<?xml version="1.0" standalone="no"?>
<!DOCTYPE svg PUBLIC "-//W3C//DTD SVG 1.1//EN" "http://www.w3.org/Graphics/SVG/1.1/DTD/svg11.dtd" >
<svg xmlns="http://www.w3.org/2000/svg" xmlns:xlink="http://www.w3.org/1999/xlink" version="1.1">
<metadata>
Created by FontForge 20170731 at Tue May 18 12:54:32 2010
 By Aleksey,,,
Generated in 2010 by FontLab Studio. Copyright info pending.
</metadata>
<defs>
<font id="Brown-ThinBackslanted" horiz-adv-x="570" >
  <font-face 
    font-family="Brown"
    font-weight="250"
    font-style="oblique"
    font-stretch="normal"
    units-per-em="1000"
    panose-1="0 0 0 0 0 0 0 0 0 0"
    ascent="800"
    descent="-200"
    x-height="430"
    cap-height="700"
    bbox="-122 -280 1314 1060"
    underline-thickness="20"
    underline-position="-140"
    slope="10"
    unicode-range="U+0020-FB04"
  />
<missing-glyph horiz-adv-x="500" 
d="M75 0v700h350v-700h-350zM95 18h310v664h-310v-664z" />
    <glyph glyph-name="uniFB00" unicode="ff" horiz-adv-x="688" 
d="M601 714l-5 -17q-18 5 -46 5q-51 0 -83 -29.5t-32 -74.5q0 -20 12 -92l13 -76h175l3 -18h-175l73 -412h-19l-73 412h-302l73 -412h-19l-73 412h-140l-3 18h140l-13 76q-12 65 -12 92q0 55 38 88.5t96 33.5q30 0 51 -6l-5 -17q-18 5 -46 5q-51 0 -83 -29.5t-32 -74.5
q0 -20 12 -92l13 -76h302l-13 76q-12 65 -12 92q0 55 38 88.5t96 33.5q30 0 51 -6z" />
    <glyph glyph-name="fi" unicode="fi" horiz-adv-x="568" 
d="M280 714l-5 -17q-18 5 -46 5q-51 0 -83 -29.5t-32 -74.5q0 -20 12 -92l13 -76h301l76 -430h-19l-73 412h-282l73 -412h-19l-73 412h-140l-3 18h140l-13 76q-12 65 -12 92q0 55 38 88.5t96 33.5q30 0 51 -6zM433 590q0 -13 -8.5 -21.5t-21.5 -8.5t-21.5 8.5t-8.5 21.5
t8.5 21.5t21.5 8.5t21.5 -8.5t8.5 -21.5z" />
    <glyph glyph-name="fl" unicode="fl" horiz-adv-x="568" 
d="M497 0l-73 412h-282l73 -412h-19l-73 412h-140l-3 18h140l-13 76q-12 65 -12 92q0 55 38 88.5t96 33.5q30 0 51 -6l-5 -17q-18 5 -46 5q-51 0 -83 -29.5t-32 -74.5q0 -20 12 -92l13 -76h282l-49 280h19l125 -710h-19z" />
    <glyph glyph-name="uniFB03" unicode="ffi" horiz-adv-x="889" 
d="M601 714l-5 -17q-18 5 -46 5q-51 0 -83 -29.5t-32 -74.5q0 -20 12 -92l13 -76h301l76 -430h-19l-73 412h-282l73 -412h-19l-73 412h-302l73 -412h-19l-73 412h-140l-3 18h140l-13 76q-12 65 -12 92q0 55 38 88.5t96 33.5q30 0 51 -6l-5 -17q-18 5 -46 5q-51 0 -83 -29.5
t-32 -74.5q0 -20 12 -92l13 -76h302l-13 76q-12 65 -12 92q0 55 38 88.5t96 33.5q30 0 51 -6zM754 590q0 -13 -8.5 -21.5t-21.5 -8.5t-21.5 8.5t-8.5 21.5t8.5 21.5t21.5 8.5t21.5 -8.5t8.5 -21.5z" />
    <glyph glyph-name="uniFB04" unicode="ffl" horiz-adv-x="889" 
d="M818 0l-73 412h-282l73 -412h-19l-73 412h-302l73 -412h-19l-73 412h-140l-3 18h140l-13 76q-12 65 -12 92q0 55 38 88.5t96 33.5q30 0 51 -6l-5 -17q-18 5 -46 5q-51 0 -83 -29.5t-32 -74.5q0 -20 12 -92l13 -76h302l-13 76q-12 65 -12 92q0 55 38 88.5t96 33.5
q30 0 51 -6l-5 -17q-18 5 -46 5q-51 0 -83 -29.5t-32 -74.5q0 -20 12 -92l13 -76h282l-49 280h19l125 -710h-19z" />
    <glyph glyph-name=".notdef" horiz-adv-x="500" 
d="M75 0v700h350v-700h-350zM95 18h310v664h-310v-664z" />
    <glyph glyph-name=".null" horiz-adv-x="0" 
 />
    <glyph glyph-name="nonmarkingreturn" horiz-adv-x="333" 
 />
    <glyph glyph-name="space" unicode=" " horiz-adv-x="250" 
 />
    <glyph glyph-name="exclam" unicode="!" horiz-adv-x="240" 
d="M134 200h-19l-88 500h19zM190 25q0 -14 -10.5 -24.5t-24.5 -10.5t-24.5 10.5t-10.5 24.5t10.5 24.5t24.5 10.5t24.5 -10.5t10.5 -24.5z" />
    <glyph glyph-name="quotedbl" unicode="&#x22;" horiz-adv-x="371" 
d="M241 465h-19l-42 235h19zM71 465h-19l-42 235h19z" />
    <glyph glyph-name="numbersign" unicode="#" horiz-adv-x="595" 
d="M138 240h-107l-3 18h115l50 184h-107l-3 18h115l65 240h19l-65 -240h191l65 240h19l-65 -240h107l3 -18h-115l-50 -184h107l3 -18h-115l-64 -240h-19l64 240h-191l-64 -240h-19zM212 442l-50 -184h191l50 184h-191z" />
    <glyph glyph-name="dollar" unicode="$" horiz-adv-x="537" 
d="M66 90l14 13q81 -95 208 -95q72 0 125.5 43.5t53.5 116.5q0 132 -166 185q-17 5 -53.5 16t-55.5 17.5t-49 18t-46.5 23.5t-34 29.5t-25 40t-7.5 49.5q0 61 41.5 105.5t103.5 54.5l-18 108h19l18 -106q4 1 14 1q91 0 165 -63l-13 -14q-65 59 -152 59q-63 0 -110.5 -40
t-47.5 -105q0 -25 7 -45t23.5 -35.5t32.5 -26.5t44 -22t46.5 -17t53 -16t51.5 -15q179 -56 179 -204q0 -69 -47.5 -116.5t-118.5 -57.5l19 -107h-19l-19 106q-7 -1 -14 -1q-128 0 -222 100z" />
    <glyph glyph-name="percent" unicode="%" horiz-adv-x="786" 
d="M503 700h21l-284 -700h-22zM36 557q0 -68 43.5 -113.5t108.5 -45.5q57 0 97 39.5t40 95.5q0 68 -43.5 113.5t-108.5 45.5q-57 0 -97 -39.5t-40 -95.5zM345 533q0 -64 -45.5 -108.5t-111.5 -44.5q-74 0 -123 50t-49 127q0 64 45.5 108.5t111.5 44.5q74 0 123 -50t49 -127z
M428 167q0 -68 43.5 -113.5t108.5 -45.5q57 0 97 39.5t40 95.5q0 68 -43.5 113.5t-108.5 45.5q-57 0 -97 -39.5t-40 -95.5zM737 143q0 -64 -45.5 -108.5t-111.5 -44.5q-74 0 -123 50t-49 127q0 64 45.5 108.5t111.5 44.5q74 0 123 -50t49 -127z" />
    <glyph glyph-name="ampersand" unicode="&#x26;" horiz-adv-x="657" 
d="M327 571q0 -88 -114 -165l331 -265q27 56 27 117q0 40 -12 81t-24 63l-12 21l18 9q6 -9 14 -25t22 -62t14 -87q0 -71 -32 -130l160 -128h-33l-137 110q-36 -55 -95 -87.5t-134 -32.5q-107 0 -182 63.5t-75 160.5q0 117 116 193q-67 54 -96.5 90.5t-29.5 85.5
q0 56 39.5 91.5t92.5 35.5q63 0 102.5 -41t39.5 -98zM320 8q69 0 124.5 31t88.5 84l-338 272q-49 -31 -80.5 -77.5t-31.5 -103.5q0 -85 67 -145.5t170 -60.5zM73 583q0 -26 10 -49t32.5 -46t37.5 -35t45 -35q109 74 109 153q0 51 -35 86t-87 35q-49 0 -80.5 -32.5
t-31.5 -76.5z" />
    <glyph glyph-name="quotesingle" unicode="'" horiz-adv-x="201" 
d="M71 465h-19l-42 235h19z" />
    <glyph glyph-name="parenleft" unicode="(" horiz-adv-x="415" 
d="M405 -197l-15 -13q-230 264 -230 563q0 197 87 357l17 -10q-84 -157 -84 -347q0 -293 225 -550z" />
    <glyph glyph-name="parenright" unicode=")" horiz-adv-x="415" 
d="M1 697l15 13q230 -264 230 -563q0 -197 -87 -357l-17 10q84 157 84 347q0 293 -225 550z" />
    <glyph glyph-name="asterisk" unicode="*" horiz-adv-x="490" 
d="M156 700h19l35 -196l176 61l6 -18l-170 -58l141 -161l-14 -12l-139 159l-91 -159l-16 9l90 159l-205 64l6 17l198 -62z" />
    <glyph glyph-name="plus" unicode="+" horiz-adv-x="523" 
d="M246 269l-34 191h18l34 -191h191l3 -18h-191l33 -191h-18l-33 191h-191l-3 18h191z" />
    <glyph glyph-name="comma" unicode="," horiz-adv-x="286" 
d="M129 -140l40 220h20l-40 -220h-20z" />
    <glyph glyph-name="hyphen" unicode="-" horiz-adv-x="410" 
d="M81 258h240l3 -18h-240z" />
    <glyph glyph-name="period" unicode="." horiz-adv-x="270" 
d="M125 25q0 14 10.5 24.5t24.5 10.5t24.5 -10.5t10.5 -24.5t-10.5 -24.5t-24.5 -10.5t-24.5 10.5t-10.5 24.5z" />
    <glyph glyph-name="slash" unicode="/" horiz-adv-x="236" 
d="M210 700h21l-205 -700h-21z" />
    <glyph glyph-name="zero" unicode="0" horiz-adv-x="590" 
d="M492 243q0 78 -15.5 154.5t-45.5 144t-82 109t-118 41.5q-88 0 -133.5 -62.5t-45.5 -172.5q0 -78 15.5 -154.5t45.5 -144t82 -109t118 -41.5q88 0 133.5 62.5t45.5 172.5zM512 243q0 -117 -50.5 -185t-148.5 -68q-71 0 -127 43t-88.5 113t-49 149.5t-16.5 161.5
q0 117 50.5 185t148.5 68q71 0 127 -43t88.5 -113t49 -149.5t16.5 -161.5z" />
    <glyph glyph-name="one" unicode="1" horiz-adv-x="386" 
d="M-2 587l-3 19l149 94h9l123 -700h-19l-118 673z" />
    <glyph glyph-name="two" unicode="2" horiz-adv-x="518" 
d="M20 579l-17 7q22 56 74.5 90t112.5 34q83 0 141 -57t58 -145q0 -84 -65 -181l-208 -309h364l3 -18h-395l-2 10l219 324q64 94 64 174q0 77 -51.5 130.5t-127.5 53.5q-56 0 -102.5 -30.5t-67.5 -82.5z" />
    <glyph glyph-name="three" unicode="3" horiz-adv-x="540" 
d="M50 88l17 10q30 -42 78 -66t104 -24q84 0 140 56t56 138q0 91 -63.5 153t-154.5 62q-51 0 -96 -15l-2 10l188 270h-319l-3 18h349l2 -10l-182 -261q29 6 63 6q100 0 169 -67t69 -166q0 -90 -61.5 -151t-154.5 -61q-62 0 -114 26.5t-85 71.5z" />
    <glyph glyph-name="four" unicode="4" horiz-adv-x="566" 
d="M15 210l304 490h9l85 -482h120l3 -18h-120l35 -200h-19l-35 200h-380zM394 218l-78 441l-274 -441h352z" />
    <glyph glyph-name="five" unicode="5" horiz-adv-x="556" 
d="M80 83l14 12q30 -39 76.5 -63t96.5 -24q80 0 139.5 54.5t59.5 137.5q0 87 -64 149.5t-151 62.5q-45 0 -90 -18.5t-74 -48.5h-10v355h311l3 -18h-294v-304q65 52 154 52q96 0 165.5 -67t69.5 -163q0 -88 -63.5 -149t-156.5 -61q-54 0 -103.5 25.5t-82.5 67.5z" />
    <glyph glyph-name="six" unicode="6" horiz-adv-x="591" 
d="M96 326l173 374h22l-145 -314q57 42 135 42q97 0 166 -66t69 -163q0 -89 -63 -149t-157 -60q-95 0 -160.5 65t-65.5 159q0 55 26 112zM126 343l-11 -23q-25 -53 -25 -107q0 -85 59.5 -145t146.5 -60q86 0 143 54.5t57 136.5q0 89 -63 150t-152 61q-93 0 -155 -67z" />
    <glyph glyph-name="seven" unicode="7" horiz-adv-x="471" 
d="M374 700l2 -10l-213 -690h-21l210 682h-394l-3 18h419z" />
    <glyph glyph-name="eight" unicode="8" 
d="M407 534q0 -46 -25.5 -83.5t-68.5 -56.5q80 -13 132 -72t52 -141q0 -80 -58.5 -135.5t-146.5 -55.5q-94 0 -159 62t-65 154q0 60 35 108t93 69q-62 14 -101.5 60.5t-39.5 111.5t48.5 110t120.5 45q77 0 130 -50t53 -126zM273 379q-79 0 -132 -50t-53 -123
q0 -83 59 -140.5t145 -57.5q79 0 132 50t53 123q0 83 -59 140.5t-145 57.5zM387 534q0 67 -47 112.5t-116 45.5q-63 0 -106 -40t-43 -97q0 -67 47 -112.5t116 -45.5q63 0 106 40t43 97z" />
    <glyph glyph-name="nine" unicode="9" horiz-adv-x="571" 
d="M450 374l-173 -374h-22l145 314q-57 -42 -135 -42q-97 0 -166 66t-69 163q0 89 63 149t157 60q95 0 160.5 -65t65.5 -159q0 -55 -26 -112zM420 357l11 23q25 53 25 107q0 85 -59.5 145t-146.5 60q-86 0 -143 -54.5t-57 -136.5q0 -89 63 -150t152 -61q93 0 155 67z" />
    <glyph glyph-name="colon" unicode=":" horiz-adv-x="270" 
d="M195 25q0 -14 -10.5 -24.5t-24.5 -10.5t-24.5 10.5t-10.5 24.5t10.5 24.5t24.5 10.5t24.5 -10.5t10.5 -24.5zM128 405q0 -14 -10.5 -24.5t-24.5 -10.5t-24.5 10.5t-10.5 24.5t10.5 24.5t24.5 10.5t24.5 -10.5t10.5 -24.5z" />
    <glyph glyph-name="semicolon" unicode=";" horiz-adv-x="286" 
d="M129 -140l40 220h20l-40 -220h-20zM128 405q0 -14 -10.5 -24.5t-24.5 -10.5t-24.5 10.5t-10.5 24.5t10.5 24.5t24.5 10.5t24.5 -10.5t10.5 -24.5z" />
    <glyph glyph-name="less" unicode="&#x3c;" horiz-adv-x="523" 
d="M416 437l3 -19l-339 -156l394 -158l4 -21l-430 172l-2 10z" />
    <glyph glyph-name="equal" unicode="=" horiz-adv-x="523" 
d="M473 162h-400l-3 18h400zM441 342h-400l-3 18h400z" />
    <glyph glyph-name="greater" unicode="&#x3e;" horiz-adv-x="523" 
d="M97 83l-3 19l339 156l-394 158l-4 21l430 -172l2 -10z" />
    <glyph glyph-name="question" unicode="?" horiz-adv-x="496" 
d="M298 25q0 -14 -10.5 -24.5t-24.5 -10.5t-24.5 10.5t-10.5 24.5t10.5 24.5t24.5 10.5t24.5 -10.5t10.5 -24.5zM12 564l-20 4q11 61 61 101.5t131 40.5q78 0 135 -47.5t57 -125.5q0 -38 -17.5 -69.5t-42.5 -53.5t-50 -42t-42.5 -43.5t-17.5 -48.5q0 -23 15 -42t29 -29
l-12 -14q-52 33 -52 85q0 28 17.5 53.5t42.5 46t50 41.5t42.5 51t17.5 65q0 68 -50 111.5t-122 43.5q-67 0 -114.5 -34t-57.5 -94z" />
    <glyph glyph-name="at" unicode="@" horiz-adv-x="1026" 
d="M515 55q-87 0 -148.5 59t-61.5 145q0 79 53.5 132.5t134.5 53.5t140 -59l-9 50h20l48 -273q15 -90 89 -90q65 0 100 63t35 155q0 165 -120 273t-283 108q-112 0 -208 -56t-152.5 -153.5t-56.5 -212.5q0 -176 123 -299t295 -123q135 0 241 82l11 -16q-109 -84 -253 -84
q-181 0 -309 129t-128 311t128 311t309 129q114 0 210.5 -51.5t154.5 -143.5t58 -204q0 -97 -39 -166.5t-116 -69.5q-78 0 -103 82q-63 -82 -163 -82zM672 161l-33 195q-59 71 -146 71q-72 0 -120 -48t-48 -120q0 -78 56 -132t134 -54q52 0 92.5 25.5t64.5 62.5z" />
    <glyph glyph-name="A" unicode="A" horiz-adv-x="660" 
d="M141 239l-61 -239h-20l177 700h9l424 -700h-23l-145 239h-361zM491 257l-243 402l-102 -402h345z" />
    <glyph glyph-name="B" unicode="B" horiz-adv-x="620" 
d="M387 0h-247l-123 700h205q75 0 113 -19q43 -22 70 -62.5t27 -88.5q0 -87 -74 -132q55 -4 91 -19q55 -23 90.5 -77t35.5 -116q0 -81 -54 -133.5t-134 -52.5zM156 18h228q74 0 122.5 47t48.5 121q0 56 -32.5 106t-83.5 71q-45 19 -127 19h-220zM361 423q51 38 51 107
q0 42 -24 79.5t-62 55.5q-34 17 -103 17h-184l50 -282h182q58 0 90 23z" />
    <glyph glyph-name="C" unicode="C" horiz-adv-x="741" 
d="M685 139l16 -12q-48 -65 -125 -101t-169 -36q-158 0 -266.5 113t-108.5 266q0 146 97.5 243.5t245.5 97.5q130 0 233 -88l-12 -14q-98 84 -221 84q-139 0 -231 -92.5t-92 -231.5q0 -146 102.5 -253t252.5 -107q86 0 159.5 35t118.5 96z" />
    <glyph glyph-name="D" unicode="D" horiz-adv-x="736" 
d="M256 700q191 0 298 -110q110 -112 110 -260t-87 -236q-94 -94 -258 -94h-179l-123 700h239zM256 682h-217l117 -664h161q157 0 245 88q82 83 82 224q0 140 -103 246t-285 106z" />
    <glyph glyph-name="E" unicode="E" horiz-adv-x="513" 
d="M140 0l-123 700h360l3 -18h-341l49 -282h272l3 -18h-272l65 -364h351l3 -18h-370z" />
    <glyph glyph-name="F" unicode="F" horiz-adv-x="490" 
d="M91 382l68 -382h-19l-123 700h360l3 -18h-341l49 -282h272l3 -18h-272z" />
    <glyph glyph-name="G" unicode="G" horiz-adv-x="766" 
d="M373 400h280l48 -273q-48 -65 -125 -101t-169 -36q-158 0 -266.5 113t-108.5 266q0 146 97.5 243.5t245.5 97.5q130 0 233 -88l-12 -14q-98 84 -221 84q-139 0 -231 -92.5t-92 -231.5q0 -146 102.5 -253t252.5 -107q86 0 157 32.5t117 93.5l-44 248h-261z" />
    <glyph glyph-name="H" unicode="H" horiz-adv-x="741" 
d="M140 0l-123 700h19l53 -300h506l-53 300h19l123 -700h-19l-67 382h-506l67 -382h-19z" />
    <glyph glyph-name="I" unicode="I" horiz-adv-x="216" 
d="M140 0l-123 700h19l123 -700h-19z" />
    <glyph glyph-name="J" unicode="J" horiz-adv-x="477" 
d="M291 700l87 -494q9 -48 9 -74q0 -71 -52 -110q-43 -32 -102 -32q-116 0 -173 104l18 9q51 -95 155 -95q53 0 91 29q43 33 43 95q0 26 -7 70l-88 498h19z" />
    <glyph glyph-name="K" unicode="K" horiz-adv-x="610" 
d="M578 0l-486 382l67 -382h-19l-123 700h19l54 -306l347 306h30l-352 -310l495 -390h-32z" />
    <glyph glyph-name="L" unicode="L" horiz-adv-x="500" 
d="M140 0l-123 700h19l120 -682h351l3 -18h-370z" />
    <glyph glyph-name="M" unicode="M" horiz-adv-x="826" 
d="M636 646l-205 -486h-9l-376 480l113 -640h-19l-123 700h9l397 -513l214 513h9l123 -700h-19z" />
    <glyph glyph-name="N" unicode="N" horiz-adv-x="746" 
d="M662 47l-115 653h19l123 -700h-9l-635 653l114 -653h-19l-123 700h9z" />
    <glyph glyph-name="O" unicode="O" horiz-adv-x="812" 
d="M406 8q61 0 121 23.5t104 68.5q89 89 89 230q0 70 -29 137.5t-79 119.5q-103 105 -246 105q-61 0 -121 -23.5t-104 -68.5q-89 -89 -89 -230q0 -70 29 -137.5t79 -119.5q103 -105 246 -105zM406 -10q-152 0 -261 111q-53 55 -83 125.5t-30 143.5q0 146 95 243
q97 97 239 97q152 0 261 -111q53 -55 83 -125.5t30 -143.5q0 -146 -95 -243q-97 -97 -239 -97z" />
    <glyph glyph-name="P" unicode="P" horiz-adv-x="585" 
d="M140 0l-123 700h256q70 0 110 -20q46 -23 74 -66t28 -95q0 -83 -61 -128q-38 -29 -110 -29h-219l64 -362h-19zM92 380h222q61 0 97 25q54 39 54 114q0 46 -25.5 85.5t-66.5 59.5q-38 18 -100 18h-234z" />
    <glyph glyph-name="Q" unicode="Q" horiz-adv-x="812" 
d="M406 -10q-152 0 -261 111q-53 55 -83 125.5t-30 143.5q0 146 95 243q97 97 239 97q152 0 261 -111q53 -55 83 -125.5t30 -143.5q0 -121 -67 -211l129 -119h-30l-112 103q-99 -113 -254 -113zM646 116l-215 199l14 15l213 -198q62 85 62 198q0 70 -29 137.5t-79 119.5
q-103 105 -246 105q-61 0 -121 -23.5t-104 -68.5q-89 -89 -89 -230q0 -70 29 -137.5t79 -119.5q103 -105 246 -105q67 0 131.5 28t108.5 80z" />
    <glyph glyph-name="R" unicode="R" horiz-adv-x="630" 
d="M88 400h203q58 0 90 23q51 38 51 107q0 42 -24 79.5t-62 55.5q-34 17 -103 17h-204zM290 382h-14l354 -382h-26l-355 382h-158l68 -382h-19l-123 700h225q75 0 113 -19q43 -22 70 -62.5t27 -88.5q0 -77 -58 -121q-34 -27 -104 -27z" />
    <glyph glyph-name="S" unicode="S" horiz-adv-x="542" 
d="M66 90l14 13q81 -95 208 -95q72 0 125.5 43.5t53.5 116.5q0 132 -166 185q-17 5 -53.5 16t-55.5 17.5t-49 18t-46.5 23.5t-34 29.5t-25 40t-7.5 49.5q0 69 52.5 116t125.5 47q91 0 165 -63l-13 -14q-65 59 -152 59q-63 0 -110.5 -40t-47.5 -105q0 -25 7 -45t23.5 -35.5
t32.5 -26.5t44 -22t46.5 -17t53 -16t51.5 -15q179 -56 179 -204q0 -77 -58.5 -126.5t-140.5 -49.5q-128 0 -222 100z" />
    <glyph glyph-name="T" unicode="T" horiz-adv-x="489" 
d="M-60 682l-3 18h459l3 -18h-220l120 -682h-19l-120 682h-220z" />
    <glyph glyph-name="U" unicode="U" horiz-adv-x="727" 
d="M89 262l-77 438h19l77 -435q46 -257 277 -257q96 0 161.5 58.5t65.5 148.5q0 26 -7 70l-73 415h19l72 -412q9 -49 9 -75q0 -96 -72 -159.5t-175 -63.5q-248 0 -296 272z" />
    <glyph glyph-name="V" unicode="V" horiz-adv-x="622" 
d="M-58 700h23l383 -658l152 658h20l-162 -700h-9z" />
    <glyph glyph-name="W" unicode="W" horiz-adv-x="931" 
d="M389 645l-88 -645h-9l-350 700h22l324 -647l88 647h9l318 -648l96 648h20l-104 -700h-9z" />
    <glyph glyph-name="X" unicode="X" horiz-adv-x="604" 
d="M276 365l-182 -365h-22l190 382l-267 318h26l250 -298l148 298h23l-156 -315l323 -385h-26z" />
    <glyph glyph-name="Y" unicode="Y" horiz-adv-x="525" 
d="M313 0h-19l-60 344l-299 356h26l280 -333l162 333h22l-172 -355z" />
    <glyph glyph-name="Z" unicode="Z" horiz-adv-x="598" 
d="M88 0l-2 10l334 672h-422l-3 18h449l2 -10l-334 -672h472l4 -18h-500z" />
    <glyph glyph-name="bracketleft" unicode="[" horiz-adv-x="415" 
d="M247 -200l-159 900h204l3 -18h-185l153 -864h185l3 -18h-204z" />
    <glyph glyph-name="backslash" unicode="\" horiz-adv-x="482" 
d="M5 700h24l448 -700h-24z" />
    <glyph glyph-name="bracketright" unicode="]" horiz-adv-x="415" 
d="M160 700l159 -900h-204l-3 18h185l-153 864h-185l-3 18h204z" />
    <glyph glyph-name="asciicircum" unicode="^" horiz-adv-x="510" 
d="M178 700h9l237 -350h-23l-214 314l-102 -314h-21z" />
    <glyph glyph-name="underscore" unicode="_" horiz-adv-x="440" 
d="M67 0h390l4 -18h-390z" />
    <glyph glyph-name="grave" unicode="`" horiz-adv-x="259" 
d="M70 640h22l97 -130h-22z" />
    <glyph glyph-name="a" unicode="a" horiz-adv-x="566" 
d="M514 0h-19l-15 89q-30 -43 -78.5 -71t-108.5 -28q-102 0 -172.5 68t-70.5 168q0 91 61.5 152.5t154.5 61.5q48 0 91.5 -20.5t72.5 -52.5l-11 63h19zM266 422q-85 0 -140.5 -56t-55.5 -140q0 -92 65 -155t158 -63q61 0 107.5 29t74.5 73l-41 229q-30 38 -74.5 60.5
t-93.5 22.5z" />
    <glyph glyph-name="b" unicode="b" horiz-adv-x="567" 
d="M10 710h19l63 -369q30 43 78.5 71t108.5 28q102 0 172.5 -68t70.5 -168q0 -91 -61.5 -152.5t-154.5 -61.5q-48 0 -91.5 20.5t-72.5 52.5l11 -63h-19zM306 8q85 0 140.5 56t55.5 140q0 92 -65 155t-158 63q-61 0 -107.5 -29t-74.5 -73l41 -229q30 -38 74.5 -60.5
t93.5 -22.5z" />
    <glyph glyph-name="c" unicode="c" horiz-adv-x="515" 
d="M421 388l-12 -14q-57 48 -132 48q-81 0 -144 -55.5t-63 -140.5q0 -90 60 -154t154 -64q53 0 100.5 23.5t80.5 66.5l15 -11q-73 -97 -196 -97q-104 0 -169 69t-65 167q0 90 67 152t160 62q80 0 144 -52z" />
    <glyph glyph-name="d" unicode="d" horiz-adv-x="566" 
d="M514 0h-19l-15 89q-30 -43 -78.5 -71t-108.5 -28q-102 0 -172.5 68t-70.5 168q0 91 61.5 152.5t154.5 61.5q48 0 91.5 -20.5t72.5 -52.5l-60 343h19zM266 422q-85 0 -140.5 -56t-55.5 -140q0 -92 65 -155t158 -63q61 0 107.5 29t74.5 73l-41 229q-30 38 -74.5 60.5
t-93.5 22.5z" />
    <glyph glyph-name="e" unicode="e" horiz-adv-x="508" 
d="M250 422q-73 0 -122.5 -50t-56.5 -126h370q-14 77 -66.5 126.5t-124.5 49.5zM448 75l13 -14q-67 -71 -173 -71q-100 0 -169 66t-69 170q0 91 57 152.5t143 61.5t145.5 -60.5t67.5 -151.5h-393q0 -97 63 -158.5t155 -61.5q97 0 160 67z" />
    <glyph glyph-name="f" unicode="f" horiz-adv-x="367" 
d="M280 714l-5 -17q-18 5 -46 5q-51 0 -83 -29.5t-32 -74.5q0 -20 12 -92l13 -76h175l3 -18h-175l73 -412h-19l-73 412h-140l-3 18h140l-13 76q-12 65 -12 92q0 55 38 88.5t96 33.5q30 0 51 -6z" />
    <glyph glyph-name="g" unicode="g" horiz-adv-x="566" 
d="M137 -169l13 12q66 -75 180 -75q78 0 126.5 38t48.5 98q0 40 -7 78l-18 107q-30 -43 -78.5 -71t-108.5 -28q-102 0 -172.5 68t-70.5 168q0 91 61.5 152.5t154.5 61.5q48 0 91.5 -20.5t72.5 -52.5l-11 63h19l79 -447q8 -48 8 -79q0 -69 -55 -111.5t-140 -42.5
q-122 0 -193 81zM266 422q-85 0 -140.5 -56t-55.5 -140q0 -92 65 -155t158 -63q61 0 107.5 29t74.5 73l-41 229q-30 38 -74.5 60.5t-93.5 22.5z" />
    <glyph glyph-name="h" unicode="h" horiz-adv-x="560" 
d="M518 0h-19l-42 237q-12 69 -41 110q-53 75 -143 75q-53 0 -99.5 -30.5t-73.5 -84.5l54 -307h-19l-125 710h19l66 -376q29 48 75.5 77t102.5 29q103 0 161 -85q29 -42 42 -118z" />
    <glyph glyph-name="i" unicode="i" horiz-adv-x="206" 
d="M71 590q0 -13 -8.5 -21.5t-21.5 -8.5t-21.5 8.5t-8.5 21.5t8.5 21.5t21.5 8.5t21.5 -8.5t8.5 -21.5zM59 430h19l76 -430h-19z" />
    <glyph glyph-name="j" unicode="j" horiz-adv-x="242" 
d="M51 -244l5 17q17 -5 37 -5q49 0 74 27.5t25 71.5q0 31 -6 63l-88 500h19l88 -499q7 -38 7 -64q0 -49 -29 -83t-90 -34q-24 0 -42 6zM110 590q0 -13 -8.5 -21.5t-21.5 -8.5t-21.5 8.5t-8.5 21.5t8.5 21.5t21.5 8.5t21.5 -8.5t8.5 -21.5z" />
    <glyph glyph-name="k" unicode="k" horiz-adv-x="481" 
d="M456 0l-343 229l41 -229h-19l-125 710h19l82 -470l245 190h33l-250 -194l352 -236h-35z" />
    <glyph glyph-name="l" unicode="l" horiz-adv-x="206" 
d="M135 0l-125 710h19l125 -710h-19z" />
    <glyph glyph-name="m" unicode="m" horiz-adv-x="910" 
d="M511 0h-19l-42 237q-12 72 -40 111q-53 74 -140 74q-50 0 -96.5 -31t-73.5 -84l54 -307h-19l-76 430h19l17 -96q28 47 75.5 76.5t99.5 29.5q101 0 158 -84q10 -17 18 -34q69 118 181 118q101 0 158 -84q27 -39 41 -119l42 -237h-19l-42 237q-12 72 -40 111
q-53 74 -140 74q-54 0 -99.5 -33t-73.5 -88q8 -28 15 -64z" />
    <glyph glyph-name="n" unicode="n" horiz-adv-x="560" 
d="M518 0h-19l-42 237q-12 69 -41 110q-53 75 -143 75q-53 0 -99.5 -30.5t-73.5 -84.5l54 -307h-19l-76 430h19l17 -96q29 48 75.5 77t102.5 29q103 0 161 -85q29 -42 42 -118z" />
    <glyph glyph-name="o" unicode="o" horiz-adv-x="554" 
d="M291 8q84 0 141 56.5t57 139.5q0 91 -65.5 154.5t-155.5 63.5q-84 0 -141 -56.5t-57 -139.5q0 -91 65.5 -154.5t155.5 -63.5zM291 -10q-99 0 -170 68.5t-71 167.5q0 91 62 152.5t156 61.5q99 0 170 -68.5t71 -167.5q0 -91 -62 -152.5t-156 -61.5z" />
    <glyph glyph-name="p" unicode="p" horiz-adv-x="567" 
d="M58 430h19l15 -89q30 43 78.5 71t108.5 28q102 0 172.5 -68t70.5 -168q0 -91 -61.5 -152.5t-154.5 -61.5q-48 0 -91.5 20.5t-72.5 52.5l53 -303h-19zM306 8q85 0 140.5 56t55.5 140q0 92 -65 155t-158 63q-61 0 -107.5 -29t-74.5 -73l41 -229q30 -38 74.5 -60.5
t93.5 -22.5z" />
    <glyph glyph-name="q" unicode="q" horiz-adv-x="566" 
d="M556 -240h-19l-57 329q-30 -43 -78.5 -71t-108.5 -28q-102 0 -172.5 68t-70.5 168q0 91 61.5 152.5t154.5 61.5q48 0 91.5 -20.5t72.5 -52.5l-11 63h19zM266 422q-85 0 -140.5 -56t-55.5 -140q0 -92 65 -155t158 -63q61 0 107.5 29t74.5 73l-41 229q-30 38 -74.5 60.5
t-93.5 22.5z" />
    <glyph glyph-name="r" unicode="r" horiz-adv-x="304" 
d="M244 440l-1 -19q-51 -1 -88.5 -31.5t-54.5 -79.5l54 -310h-19l-76 430h19l16 -90q45 96 150 100z" />
    <glyph glyph-name="s" unicode="s" horiz-adv-x="431" 
d="M90 51l13 14q54 -57 139 -57q49 0 81.5 26t32.5 69q0 44 -31 69.5t-75 36t-88.5 21t-75.5 36t-31 69.5q0 46 37.5 75.5t93.5 29.5q66 0 119 -42l-11 -15q-51 39 -107 39q-46 0 -79 -23.5t-33 -63.5q0 -38 31 -59.5t75.5 -31.5t88.5 -21.5t75 -41t31 -79.5
q0 -47 -37.5 -79.5t-99.5 -32.5q-93 0 -149 61z" />
    <glyph glyph-name="t" unicode="t" horiz-adv-x="419" 
d="M405 16l4 -18q-28 -8 -63 -8q-100 0 -143 89q-10 23 -23 92l-42 241h-140l-3 18h140l-24 130h19l24 -130h190l3 -18h-190l42 -241q13 -68 23 -89q39 -74 124 -74q33 0 59 8z" />
    <glyph glyph-name="u" unicode="u" horiz-adv-x="553" 
d="M49 430h19l42 -237q12 -72 40 -111q53 -74 140 -74q50 0 96.5 31t73.5 84l-54 307h19l76 -430h-19l-17 96q-28 -47 -75.5 -76.5t-99.5 -29.5q-101 0 -158 84q-27 39 -41 119z" />
    <glyph glyph-name="v" unicode="v" horiz-adv-x="474" 
d="M278 37l120 393h21l-132 -430h-9l-283 430h24z" />
    <glyph glyph-name="w" unicode="w" horiz-adv-x="728" 
d="M340 385l-81 -385h-9l-250 430h23l225 -387l80 387h9l220 -389l91 389h20l-101 -430h-9z" />
    <glyph glyph-name="x" unicode="x" horiz-adv-x="459" 
d="M232 221l-129 -221h-23l136 236l-176 194h26l161 -177l102 177h24l-111 -191l217 -239h-27z" />
    <glyph glyph-name="y" unicode="y" horiz-adv-x="475" 
d="M394 430h21l-198 -670h-22l86 289l-286 381h24l269 -357z" />
    <glyph glyph-name="z" unicode="z" horiz-adv-x="450" 
d="M100 18h346l4 -18h-375l-2 10l253 402h-303l-3 18h334l2 -10z" />
    <glyph glyph-name="braceleft" unicode="{" horiz-adv-x="415" 
d="M263 700l3 -18h-20q-120 0 -120 -101q0 -46 24 -134.5t24 -133.5q0 -47 -32 -61q41 -19 57 -71q12 -40 25.5 -160.5t34.5 -150.5q36 -52 135 -52h25l3 -18h-25q-114 0 -152 58q-25 38 -39 163.5t-30 168.5q-17 45 -67 50l-3 20q49 7 49 53t-24 135t-24 134q0 53 34 85.5
t102 32.5h20z" />
    <glyph glyph-name="bar" unicode="|" horiz-adv-x="150" 
d="M142 -200l-159 900h19l159 -900h-19z" />
    <glyph glyph-name="braceright" unicode="}" horiz-adv-x="415" 
d="M144 -200l-3 18h20q120 0 120 101q0 46 -24 134.5t-24 133.5q0 47 32 61q-41 19 -57 71q-12 40 -25.5 160.5t-34.5 150.5q-36 52 -135 52h-25l-3 18h25q114 0 152 -58q25 -38 39 -163.5t30 -168.5q17 -45 67 -50l3 -20q-49 -7 -49 -53t24 -135t24 -134q0 -53 -34 -85.5
t-102 -32.5h-20z" />
    <glyph glyph-name="asciitilde" unicode="~" horiz-adv-x="469" 
d="M395 303l19 -5q-9 -90 -85 -90q-40 0 -103 44t-96 44q-59 0 -66 -77l-19 5q9 90 85 90q40 0 103 -44t96 -44q59 0 66 77z" />
    <glyph glyph-name="exclamdown" unicode="&#xa1;" horiz-adv-x="240" 
d="M110 260h19l88 -500h-19zM59 405q0 14 10.5 24.5t24.5 10.5t24.5 -10.5t10.5 -24.5t-10.5 -24.5t-24.5 -10.5t-24.5 10.5t-10.5 24.5z" />
    <glyph glyph-name="cent" unicode="&#xa2;" horiz-adv-x="515" 
d="M421 388l-12 -14q-57 48 -132 48q-81 0 -144 -55.5t-63 -140.5q0 -90 60 -154t154 -64q53 0 100.5 23.5t80.5 66.5l15 -11q-58 -78 -157 -94l19 -108h-19l-19 106q-7 -1 -20 -1q-104 0 -169 69t-65 167q0 78 53 137t131 73l-18 109h19l19 -106q3 0 11 0.5t12 0.5
q80 0 144 -52z" />
    <glyph glyph-name="sterling" unicode="&#xa3;" horiz-adv-x="477" 
d="M109 18h384l4 -18h-435l-2 10q49 24 79 74t30 104q0 31 -10.5 64t-21 54t-31.5 57h-87l-4 18h80q-55 95 -55 161q0 74 48 121t116 47q87 0 150 -77l-16 -12q-57 71 -134 71q-60 0 -102 -42.5t-42 -107.5q0 -40 14.5 -76t43.5 -85h132l4 -18h-125q60 -103 60 -175
q0 -52 -23 -96.5t-57 -73.5z" />
    <glyph glyph-name="currency" unicode="&#xa4;" horiz-adv-x="500" 
d="M64 351q0 72 48 125l-72 72l13 13l72 -72q53 48 125 48t125 -48l72 72l13 -13l-72 -72q48 -53 48 -125t-48 -125l72 -72l-13 -13l-72 72q-53 -48 -125 -48t-125 48l-72 -72l-13 13l72 72q-48 53 -48 125zM84 351q0 -69 48.5 -117.5t117.5 -48.5t117.5 48.5t48.5 117.5
t-48.5 117.5t-117.5 48.5t-117.5 -48.5t-48.5 -117.5z" />
    <glyph glyph-name="yen" unicode="&#xa5;" horiz-adv-x="484" 
d="M247 279h219l3 -18h-219l45 -261h-19l-45 261h-222l-3 18h222l-12 65l-64 77h-171l-3 18h159l-220 261h26l280 -333l162 333h22l-126 -261h157l3 -18h-169l-37 -76z" />
    <glyph glyph-name="brokenbar" unicode="&#xa6;" horiz-adv-x="190" 
d="M93 190h19l69 -390h-19zM91 310h-19l-69 390h19z" />
    <glyph glyph-name="section" unicode="&#xa7;" horiz-adv-x="521" 
d="M442 219q0 31 -12.5 56t-28.5 40.5t-48 30t-53.5 21t-63.5 18t-60 17.5q-50 -16 -78.5 -53t-28.5 -88q0 -31 12.5 -56t28.5 -40.5t48 -30t53.5 -21.5t63 -18.5t60.5 -17.5q49 16 78 53.5t29 88.5zM471 -79q0 42 -23.5 71.5t-60.5 45.5t-82 28.5t-90 26.5t-82 32.5
t-60.5 53t-23.5 82.5q0 50 26.5 90t72.5 61q-61 22 -94.5 55.5t-33.5 91.5q0 68 52.5 109.5t126.5 41.5q90 0 158 -62l-13 -13q-62 57 -145 57q-62 0 -110.5 -35t-48.5 -98q0 -42 23.5 -71.5t60.5 -45.5t82 -28.5t90 -26.5t82 -32.5t60.5 -53t23.5 -82.5q0 -51 -26.5 -90.5
t-72.5 -60.5q61 -22 94.5 -56t33.5 -91q0 -68 -52.5 -109.5t-126.5 -41.5q-90 0 -158 62l13 13q62 -57 145 -57q62 0 110.5 35t48.5 98z" />
    <glyph glyph-name="dieresis" unicode="&#xa8;" horiz-adv-x="340" 
d="M70 570q0 13 8.5 21.5t21.5 8.5t21.5 -8.5t8.5 -21.5t-8.5 -21.5t-21.5 -8.5t-21.5 8.5t-8.5 21.5zM210 570q0 13 8.5 21.5t21.5 8.5t21.5 -8.5t8.5 -21.5t-8.5 -21.5t-21.5 -8.5t-21.5 8.5t-8.5 21.5z" />
    <glyph glyph-name="copyright" unicode="&#xa9;" horiz-adv-x="840" 
d="M55 350q0 145 102.5 247.5t247.5 102.5t247.5 -102.5t102.5 -247.5t-102.5 -247.5t-247.5 -102.5t-247.5 102.5t-102.5 247.5zM533 221l12 -14q-55 -52 -132 -52q-83 0 -139 57t-56 140q0 84 55.5 141t135.5 57q72 0 124 -50l-11 -13q-47 45 -113 45q-72 0 -121.5 -52
t-49.5 -128q0 -75 50.5 -127t124.5 -52q69 0 120 48zM73 350q0 -137 97.5 -234.5t234.5 -97.5t234.5 97.5t97.5 234.5t-97.5 234.5t-234.5 97.5t-234.5 -97.5t-97.5 -234.5z" />
    <glyph glyph-name="ordfeminine" unicode="&#xaa;" horiz-adv-x="410" 
d="M314 420h-19l-8 51q-48 -61 -122 -61q-69 0 -117 45.5t-48 111.5q0 61 41.5 102t104.5 41t106 -45l-6 35h19zM146 692q-54 0 -90 -36t-36 -89q0 -58 42 -98.5t103 -40.5q38 0 69 19t48 47l-24 141q-51 57 -112 57z" />
    <glyph glyph-name="guillemotleft" unicode="&#xab;" horiz-adv-x="525" 
d="M285 50h-28l-178 175l-2 10l120 175h24l-121 -178zM495 50h-28l-178 175l-2 10l120 175h24l-121 -178z" />
    <glyph glyph-name="logicalnot" unicode="&#xac;" horiz-adv-x="523" 
d="M438 360l35 -198h-18l-32 180h-382l-3 18h400z" />
    <glyph glyph-name="registered" unicode="&#xae;" horiz-adv-x="840" 
d="M55 350q0 145 102.5 247.5t247.5 102.5t247.5 -102.5t102.5 -247.5t-102.5 -247.5t-247.5 -102.5t-247.5 102.5t-102.5 247.5zM73 350q0 -137 97.5 -234.5t234.5 -97.5t234.5 97.5t97.5 234.5t-97.5 234.5t-234.5 97.5t-234.5 -97.5t-97.5 -234.5zM416 526h-112v-148h112
q50 0 70 18q24 22 24 56t-24 56q-20 18 -70 18zM284 544h134q54 0 79 -20q33 -27 33 -72t-33 -72q-25 -20 -79 -20h-5l161 -199h-22l-161 199h-87v-199h-20v383z" />
    <glyph glyph-name="macron" unicode="&#xaf;" horiz-adv-x="380" 
d="M70 571h240v-18h-240v18z" />
    <glyph glyph-name="degree" unicode="&#xb0;" horiz-adv-x="390" 
d="M0 555q0 60 42.5 102.5t102.5 42.5t102.5 -42.5t42.5 -102.5t-42.5 -102.5t-102.5 -42.5t-102.5 42.5t-42.5 102.5zM20 555q0 -52 36.5 -88.5t88.5 -36.5t88.5 36.5t36.5 88.5t-36.5 88.5t-88.5 36.5t-88.5 -36.5t-36.5 -88.5z" />
    <glyph glyph-name="plusminus" unicode="&#xb1;" horiz-adv-x="523" 
d="M88 78h400l3 -18h-400zM212 460h18l29 -167h192l3 -18h-192l29 -167h-18l-29 167h-190l-3 18h190z" />
    <glyph glyph-name="twosuperior" unicode="&#xb2;" horiz-adv-x="268" 
d="M-24 636l-16 8q29 66 95 66q47 0 78 -33t31 -79q0 -41 -35 -91l-105 -149h185l4 -18h-214l-2 11l115 166q32 46 32 81q0 37 -26 65.5t-63 28.5q-54 0 -79 -56z" />
    <glyph glyph-name="threesuperior" unicode="&#xb3;" horiz-adv-x="285" 
d="M34 547l-2 11l90 124h-164l-3 18h192l2 -11l-85 -117q10 2 22 2q53 0 91 -37.5t38 -91.5q0 -51 -32.5 -83t-85.5 -32q-70 0 -109 53l15 12q35 -47 94 -47q44 0 71 27.5t27 69.5q0 46 -32.5 78.5t-80.5 32.5q-24 0 -48 -9z" />
    <glyph glyph-name="acute" unicode="&#xb4;" horiz-adv-x="259" 
d="M167 640h22l-97 -130h-22z" />
    <glyph glyph-name="mu" unicode="&#xb5;" horiz-adv-x="562" 
d="M58 430h19l42 -237q12 -72 40 -111q54 -74 140 -74q50 0 96.5 31t73.5 84l-54 307h19l76 -430h-19l-17 96q-28 -47 -75.5 -76.5t-99.5 -29.5q-49 0 -93 24.5t-68 66.5l64 -361h-19z" />
    <glyph glyph-name="paragraph" unicode="&#xb6;" horiz-adv-x="661" 
d="M193 700h327l3 -18h-101l156 -882h-19l-156 882h-211l156 -882h-19l-83 470q-106 0 -177 64t-71 167q0 55 26 100.5t69 70.5q49 28 100 28zM18 501q0 -93 64 -152.5t161 -60.5l-70 392q-68 -10 -111.5 -59.5t-43.5 -119.5z" />
    <glyph glyph-name="periodcentered" unicode="&#xb7;" horiz-adv-x="270" 
d="M95 215q0 14 10.5 24.5t24.5 10.5t24.5 -10.5t10.5 -24.5t-10.5 -24.5t-24.5 -10.5t-24.5 10.5t-10.5 24.5z" />
    <glyph glyph-name="cedilla" unicode="&#xb8;" horiz-adv-x="199" 
d="M70 -140l40 140h19l-40 -140h-19z" />
    <glyph glyph-name="onesuperior" unicode="&#xb9;" horiz-adv-x="202" 
d="M42 673l-78 -49l-4 19l88 57h10l64 -360h-21z" />
    <glyph glyph-name="ordmasculine" unicode="&#xba;" horiz-adv-x="410" 
d="M20 570q0 -59 39 -100.5t99 -41.5q51 0 86 35t35 87q0 59 -39 100.5t-99 41.5q-51 0 -86 -35t-35 -87zM299 550q0 -59 -40.5 -99.5t-100.5 -40.5q-68 0 -113 46.5t-45 113.5q0 59 40.5 99.5t100.5 40.5q68 0 113 -46.5t45 -113.5z" />
    <glyph glyph-name="guillemotright" unicode="&#xbb;" horiz-adv-x="525" 
d="M240 410h28l178 -175l2 -10l-120 -175h-24l121 178zM30 410h28l178 -175l2 -10l-120 -175h-24l121 178z" />
    <glyph glyph-name="onequarter" unicode="&#xbc;" horiz-adv-x="482" 
d="M342 700h21l-284 -700h-22zM42 673l-78 -49l-4 19l88 57h10l64 -360h-21zM416 0l-17 95h-188l-2 10l154 255h10l44 -247h72l3 -18h-72l17 -95h-21zM396 113l-37 204l-123 -204h160z" />
    <glyph glyph-name="onehalf" unicode="&#xbd;" horiz-adv-x="511" 
d="M342 700h21l-284 -700h-22zM42 673l-78 -49l-4 19l88 57h10l64 -360h-21zM279 296l-16 8q29 66 95 66q47 0 78 -33t31 -79q0 -41 -35 -91l-105 -149h185l4 -18h-214l-2 11l115 166q32 46 32 81q0 37 -26 65.5t-63 28.5q-54 0 -79 -56z" />
    <glyph glyph-name="threequarters" unicode="&#xbe;" horiz-adv-x="536" 
d="M34 547l-2 11l90 124h-164l-3 18h192l2 -11l-85 -117q10 2 22 2q53 0 91 -37.5t38 -91.5q0 -51 -32.5 -83t-85.5 -32q-70 0 -109 53l15 12q35 -47 94 -47q44 0 71 27.5t27 69.5q0 46 -32.5 78.5t-80.5 32.5q-24 0 -48 -9zM396 700h21l-284 -700h-22zM470 0l-17 95h-188
l-2 10l154 255h10l44 -247h72l3 -18h-72l17 -95h-21zM450 113l-37 204l-123 -204h160z" />
    <glyph glyph-name="questiondown" unicode="&#xbf;" horiz-adv-x="496" 
d="M214 405q0 14 10.5 24.5t24.5 10.5t24.5 -10.5t10.5 -24.5t-10.5 -24.5t-24.5 -10.5t-24.5 10.5t-10.5 24.5zM500 -134l20 -4q-11 -61 -61 -101.5t-131 -40.5q-78 0 -135 47.5t-57 125.5q0 38 17.5 69.5t42.5 53.5t50 42t42.5 43.5t17.5 48.5q0 23 -15 42t-29 29l12 14
q52 -33 52 -85q0 -28 -17.5 -53.5t-42.5 -46t-50 -41.5t-42.5 -51t-17.5 -65q0 -68 50 -111.5t122 -43.5q67 0 114.5 34t57.5 94z" />
    <glyph glyph-name="Agrave" unicode="&#xc0;" horiz-adv-x="660" 
d="M123 870h22l97 -130h-22zM141 239l-61 -239h-20l177 700h9l424 -700h-23l-145 239h-361zM491 257l-243 402l-102 -402h345z" />
    <glyph glyph-name="Aacute" unicode="&#xc1;" horiz-adv-x="660" 
d="M321 870h22l-97 -130h-22zM141 239l-61 -239h-20l177 700h9l424 -700h-23l-145 239h-361zM491 257l-243 402l-102 -402h345z" />
    <glyph glyph-name="Acircumflex" unicode="&#xc2;" horiz-adv-x="660" 
d="M204 870h31l125 -130h-28l-113 118l-72 -118h-22zM141 239l-61 -239h-20l177 700h9l424 -700h-23l-145 239h-361zM491 257l-243 402l-102 -402h345z" />
    <glyph glyph-name="Atilde" unicode="&#xc3;" horiz-adv-x="660" 
d="M348 838l19 -3q-9 -72 -67 -72q-28 0 -75.5 29.5t-70.5 29.5q-41 0 -48 -57l-19 3q9 72 67 72q28 0 75.5 -29.5t70.5 -29.5q41 0 48 57zM141 239l-61 -239h-20l177 700h9l424 -700h-23l-145 239h-361zM491 257l-243 402l-102 -402h345z" />
    <glyph glyph-name="Adieresis" unicode="&#xc4;" horiz-adv-x="660" 
d="M130 800q0 13 8.5 21.5t21.5 8.5t21.5 -8.5t8.5 -21.5t-8.5 -21.5t-21.5 -8.5t-21.5 8.5t-8.5 21.5zM270 800q0 13 8.5 21.5t21.5 8.5t21.5 -8.5t8.5 -21.5t-8.5 -21.5t-21.5 -8.5t-21.5 8.5t-8.5 21.5zM141 239l-61 -239h-20l177 700h9l424 -700h-23l-145 239h-361z
M491 257l-243 402l-102 -402h345z" />
    <glyph glyph-name="Aring" unicode="&#xc5;" horiz-adv-x="660" 
d="M146 820q0 33 23.5 56.5t56.5 23.5t56.5 -23.5t23.5 -56.5t-23.5 -56.5t-56.5 -23.5t-56.5 23.5t-23.5 56.5zM164 820q0 -26 18 -44t44 -18t44 18t18 44t-18 44t-44 18t-44 -18t-18 -44zM141 239l-61 -239h-20l177 700h9l424 -700h-23l-145 239h-361zM491 257l-243 402
l-102 -402h345z" />
    <glyph glyph-name="AE" unicode="&#xc6;" horiz-adv-x="865" 
d="M171 239l-108 -239h-23l315 700h374l3 -18h-341l49 -282h272l3 -18h-272l65 -364h351l3 -18h-370l-43 239h-278zM371 687l-192 -430h267z" />
    <glyph glyph-name="Ccedilla" unicode="&#xc7;" horiz-adv-x="741" 
d="M375 -140l37 130h-5q-158 0 -266.5 113t-108.5 266q0 146 97.5 243.5t245.5 97.5q130 0 233 -88l-12 -14q-98 84 -221 84q-139 0 -231 -92.5t-92 -231.5q0 -146 102.5 -253t252.5 -107q86 0 159.5 35t118.5 96l16 -12q-93 -125 -270 -136l-37 -131h-19z" />
    <glyph glyph-name="Egrave" unicode="&#xc8;" horiz-adv-x="513" 
d="M140 0l-123 700h360l3 -18h-341l49 -282h272l3 -18h-272l65 -364h351l3 -18h-370zM114 870h22l97 -130h-22z" />
    <glyph glyph-name="Eacute" unicode="&#xc9;" horiz-adv-x="513" 
d="M140 0l-123 700h360l3 -18h-341l49 -282h272l3 -18h-272l65 -364h351l3 -18h-370zM259 870h22l-97 -130h-22z" />
    <glyph glyph-name="Ecircumflex" unicode="&#xca;" horiz-adv-x="513" 
d="M140 0l-123 700h360l3 -18h-341l49 -282h272l3 -18h-272l65 -364h351l3 -18h-370zM155 870h31l125 -130h-28l-113 118l-72 -118h-22z" />
    <glyph glyph-name="Edieresis" unicode="&#xcb;" horiz-adv-x="513" 
d="M140 0l-123 700h360l3 -18h-341l49 -282h272l3 -18h-272l65 -364h351l3 -18h-370zM91 800q0 13 8.5 21.5t21.5 8.5t21.5 -8.5t8.5 -21.5t-8.5 -21.5t-21.5 -8.5t-21.5 8.5t-8.5 21.5zM231 800q0 13 8.5 21.5t21.5 8.5t21.5 -8.5t8.5 -21.5t-8.5 -21.5t-21.5 -8.5
t-21.5 8.5t-8.5 21.5z" />
    <glyph glyph-name="Igrave" unicode="&#xcc;" horiz-adv-x="216" 
d="M140 0l-123 700h19l123 -700h-19zM-92 870h22l97 -130h-22z" />
    <glyph glyph-name="Iacute" unicode="&#xcd;" horiz-adv-x="216" 
d="M140 0l-123 700h19l123 -700h-19zM106 870h22l-97 -130h-22z" />
    <glyph glyph-name="Icircumflex" unicode="&#xce;" horiz-adv-x="216" 
d="M140 0l-123 700h19l123 -700h-19zM-17 870h31l125 -130h-28l-113 118l-72 -118h-22z" />
    <glyph glyph-name="Idieresis" unicode="&#xcf;" horiz-adv-x="216" 
d="M140 0l-123 700h19l123 -700h-19zM-89 800q0 13 8.5 21.5t21.5 8.5t21.5 -8.5t8.5 -21.5t-8.5 -21.5t-21.5 -8.5t-21.5 8.5t-8.5 21.5zM51 800q0 13 8.5 21.5t21.5 8.5t21.5 -8.5t8.5 -21.5t-8.5 -21.5t-21.5 -8.5t-21.5 8.5t-8.5 21.5z" />
    <glyph glyph-name="Eth" unicode="&#xd0;" horiz-adv-x="736" 
d="M-31 400h100l-52 300h239q191 0 298 -110q110 -112 110 -260t-87 -236q-94 -94 -258 -94h-179l-68 382h-100zM256 682h-217l50 -282h200l3 -18h-200l64 -364h161q157 0 245 88q82 83 82 224q0 140 -103 246t-285 106z" />
    <glyph glyph-name="Ntilde" unicode="&#xd1;" horiz-adv-x="746" 
d="M662 47l-115 653h19l123 -700h-9l-635 653l114 -653h-19l-123 700h9zM397 838l19 -3q-9 -72 -67 -72q-28 0 -75.5 29.5t-70.5 29.5q-41 0 -48 -57l-19 3q9 72 67 72q28 0 75.5 -29.5t70.5 -29.5q41 0 48 57z" />
    <glyph glyph-name="Ograve" unicode="&#xd2;" horiz-adv-x="812" 
d="M406 8q61 0 121 23.5t104 68.5q89 89 89 230q0 70 -29 137.5t-79 119.5q-103 105 -246 105q-61 0 -121 -23.5t-104 -68.5q-89 -89 -89 -230q0 -70 29 -137.5t79 -119.5q103 -105 246 -105zM406 -10q-152 0 -261 111q-53 55 -83 125.5t-30 143.5q0 146 95 243
q97 97 239 97q152 0 261 -111q53 -55 83 -125.5t30 -143.5q0 -146 -95 -243q-97 -97 -239 -97zM260 870h22l97 -130h-22z" />
    <glyph glyph-name="Oacute" unicode="&#xd3;" horiz-adv-x="812" 
d="M406 8q61 0 121 23.5t104 68.5q89 89 89 230q0 70 -29 137.5t-79 119.5q-103 105 -246 105q-61 0 -121 -23.5t-104 -68.5q-89 -89 -89 -230q0 -70 29 -137.5t79 -119.5q103 -105 246 -105zM406 -10q-152 0 -261 111q-53 55 -83 125.5t-30 143.5q0 146 95 243
q97 97 239 97q152 0 261 -111q53 -55 83 -125.5t30 -143.5q0 -146 -95 -243q-97 -97 -239 -97zM381 870h22l-97 -130h-22z" />
    <glyph glyph-name="Ocircumflex" unicode="&#xd4;" horiz-adv-x="812" 
d="M406 8q61 0 121 23.5t104 68.5q89 89 89 230q0 70 -29 137.5t-79 119.5q-103 105 -246 105q-61 0 -121 -23.5t-104 -68.5q-89 -89 -89 -230q0 -70 29 -137.5t79 -119.5q103 -105 246 -105zM406 -10q-152 0 -261 111q-53 55 -83 125.5t-30 143.5q0 146 95 243
q97 97 239 97q152 0 261 -111q53 -55 83 -125.5t30 -143.5q0 -146 -95 -243q-97 -97 -239 -97zM301 870h31l125 -130h-28l-113 118l-72 -118h-22z" />
    <glyph glyph-name="Otilde" unicode="&#xd5;" horiz-adv-x="812" 
d="M406 8q61 0 121 23.5t104 68.5q89 89 89 230q0 70 -29 137.5t-79 119.5q-103 105 -246 105q-61 0 -121 -23.5t-104 -68.5q-89 -89 -89 -230q0 -70 29 -137.5t79 -119.5q103 -105 246 -105zM406 -10q-152 0 -261 111q-53 55 -83 125.5t-30 143.5q0 146 95 243
q97 97 239 97q152 0 261 -111q53 -55 83 -125.5t30 -143.5q0 -146 -95 -243q-97 -97 -239 -97zM448 838l19 -3q-9 -72 -67 -72q-28 0 -75.5 29.5t-70.5 29.5q-41 0 -48 -57l-19 3q9 72 67 72q28 0 75.5 -29.5t70.5 -29.5q41 0 48 57z" />
    <glyph glyph-name="Odieresis" unicode="&#xd6;" horiz-adv-x="812" 
d="M406 8q61 0 121 23.5t104 68.5q89 89 89 230q0 70 -29 137.5t-79 119.5q-103 105 -246 105q-61 0 -121 -23.5t-104 -68.5q-89 -89 -89 -230q0 -70 29 -137.5t79 -119.5q103 -105 246 -105zM406 -10q-152 0 -261 111q-53 55 -83 125.5t-30 143.5q0 146 95 243
q97 97 239 97q152 0 261 -111q53 -55 83 -125.5t30 -143.5q0 -146 -95 -243q-97 -97 -239 -97zM229 800q0 13 8.5 21.5t21.5 8.5t21.5 -8.5t8.5 -21.5t-8.5 -21.5t-21.5 -8.5t-21.5 8.5t-8.5 21.5zM369 800q0 13 8.5 21.5t21.5 8.5t21.5 -8.5t8.5 -21.5t-8.5 -21.5
t-21.5 -8.5t-21.5 8.5t-8.5 21.5z" />
    <glyph glyph-name="multiply" unicode="&#xd7;" horiz-adv-x="482" 
d="M40 416l12 13l185 -157l127 157l14 -11l-127 -157l186 -157l-12 -13l-185 156l-127 -156l-14 11l127 157z" />
    <glyph glyph-name="Oslash" unicode="&#xd8;" horiz-adv-x="812" 
d="M406 -10q-82 0 -157 36l-16 -36h-21l20 45q-50 27 -87 66q-53 55 -83 125.5t-30 143.5q0 146 95 243q97 97 239 97q83 0 159 -38l18 38h21l-22 -47q46 -25 85 -64q53 -55 83 -125.5t30 -143.5q0 -146 -95 -243q-97 -97 -239 -97zM160 113q34 -36 80 -61l278 603
q-74 37 -152 37q-61 0 -121 -23.5t-104 -68.5q-89 -89 -89 -230q0 -70 29 -137.5t79 -119.5zM406 8q61 0 121 23.5t104 68.5q89 89 89 230q0 70 -29 137.5t-79 119.5q-34 34 -78 59l-277 -603q72 -35 149 -35z" />
    <glyph glyph-name="Ugrave" unicode="&#xd9;" horiz-adv-x="727" 
d="M89 262l-77 438h19l77 -435q46 -257 277 -257q96 0 161.5 58.5t65.5 148.5q0 26 -7 70l-73 415h19l72 -412q9 -49 9 -75q0 -96 -72 -159.5t-175 -63.5q-248 0 -296 272zM176 870h22l97 -130h-22z" />
    <glyph glyph-name="Uacute" unicode="&#xda;" horiz-adv-x="727" 
d="M89 262l-77 438h19l77 -435q46 -257 277 -257q96 0 161.5 58.5t65.5 148.5q0 26 -7 70l-73 415h19l72 -412q9 -49 9 -75q0 -96 -72 -159.5t-175 -63.5q-248 0 -296 272zM327 870h22l-97 -130h-22z" />
    <glyph glyph-name="Ucircumflex" unicode="&#xdb;" horiz-adv-x="727" 
d="M89 262l-77 438h19l77 -435q46 -257 277 -257q96 0 161.5 58.5t65.5 148.5q0 26 -7 70l-73 415h19l72 -412q9 -49 9 -75q0 -96 -72 -159.5t-175 -63.5q-248 0 -296 272zM227 870h31l125 -130h-28l-113 118l-72 -118h-22z" />
    <glyph glyph-name="Udieresis" unicode="&#xdc;" horiz-adv-x="727" 
d="M89 262l-77 438h19l77 -435q46 -257 277 -257q96 0 161.5 58.5t65.5 148.5q0 26 -7 70l-73 415h19l72 -412q9 -49 9 -75q0 -96 -72 -159.5t-175 -63.5q-248 0 -296 272zM162 800q0 13 8.5 21.5t21.5 8.5t21.5 -8.5t8.5 -21.5t-8.5 -21.5t-21.5 -8.5t-21.5 8.5t-8.5 21.5z
M302 800q0 13 8.5 21.5t21.5 8.5t21.5 -8.5t8.5 -21.5t-8.5 -21.5t-21.5 -8.5t-21.5 8.5t-8.5 21.5z" />
    <glyph glyph-name="Yacute" unicode="&#xdd;" horiz-adv-x="525" 
d="M313 0h-19l-60 344l-299 356h26l280 -333l162 333h22l-172 -355zM260 870h22l-97 -130h-22z" />
    <glyph glyph-name="Thorn" unicode="&#xde;" horiz-adv-x="585" 
d="M140 0l-123 700h19l32 -181h237q70 0 110 -20q46 -23 74 -66t28 -95q0 -83 -61 -128q-38 -29 -110 -29h-219l32 -181h-19zM124 199h222q61 0 97 25q54 39 54 114q0 46 -25.5 85.5t-66.5 59.5q-38 18 -100 18h-234z" />
    <glyph glyph-name="germandbls" unicode="&#xdf;" horiz-adv-x="557" 
d="M300 426q89 -8 150.5 -73t61.5 -155q0 -89 -59 -148.5t-153 -59.5q-47 0 -93 19l6 17q41 -18 87 -18q86 0 139 54t53 136q0 71 -43 126.5t-109 75.5q-30 9 -82 9h-50l-3 18h17q62 0 97.5 34.5t35.5 88.5q0 73 -48 113q-45 39 -108 39q-66 0 -105 -40.5t-39 -95.5
q0 -31 7 -72l87 -494h-19l-87 494q-7 37 -7 72q0 65 46 109.5t117 44.5q69 0 120 -42q56 -47 56 -128q0 -41 -19 -74t-56 -50z" />
    <glyph glyph-name="agrave" unicode="&#xe0;" horiz-adv-x="566" 
d="M172 640h22l97 -130h-22zM514 0h-19l-15 89q-30 -43 -78.5 -71t-108.5 -28q-102 0 -172.5 68t-70.5 168q0 91 61.5 152.5t154.5 61.5q48 0 91.5 -20.5t72.5 -52.5l-11 63h19zM266 422q-85 0 -140.5 -56t-55.5 -140q0 -92 65 -155t158 -63q61 0 107.5 29t74.5 73l-41 229
q-30 38 -74.5 60.5t-93.5 22.5z" />
    <glyph glyph-name="aacute" unicode="&#xe1;" horiz-adv-x="566" 
d="M331 640h22l-97 -130h-22zM514 0h-19l-15 89q-30 -43 -78.5 -71t-108.5 -28q-102 0 -172.5 68t-70.5 168q0 91 61.5 152.5t154.5 61.5q48 0 91.5 -20.5t72.5 -52.5l-11 63h19zM266 422q-85 0 -140.5 -56t-55.5 -140q0 -92 65 -155t158 -63q61 0 107.5 29t74.5 73l-41 229
q-30 38 -74.5 60.5t-93.5 22.5z" />
    <glyph glyph-name="acircumflex" unicode="&#xe2;" horiz-adv-x="566" 
d="M211 640h31l125 -130h-28l-113 118l-72 -118h-22zM514 0h-19l-15 89q-30 -43 -78.5 -71t-108.5 -28q-102 0 -172.5 68t-70.5 168q0 91 61.5 152.5t154.5 61.5q48 0 91.5 -20.5t72.5 -52.5l-11 63h19zM266 422q-85 0 -140.5 -56t-55.5 -140q0 -92 65 -155t158 -63
q61 0 107.5 29t74.5 73l-41 229q-30 38 -74.5 60.5t-93.5 22.5z" />
    <glyph glyph-name="atilde" unicode="&#xe3;" horiz-adv-x="566" 
d="M378 608l19 -3q-9 -72 -67 -72q-28 0 -75.5 29.5t-70.5 29.5q-41 0 -48 -57l-19 3q9 72 67 72q28 0 75.5 -29.5t70.5 -29.5q41 0 48 57zM514 0h-19l-15 89q-30 -43 -78.5 -71t-108.5 -28q-102 0 -172.5 68t-70.5 168q0 91 61.5 152.5t154.5 61.5q48 0 91.5 -20.5
t72.5 -52.5l-11 63h19zM266 422q-85 0 -140.5 -56t-55.5 -140q0 -92 65 -155t158 -63q61 0 107.5 29t74.5 73l-41 229q-30 38 -74.5 60.5t-93.5 22.5z" />
    <glyph glyph-name="adieresis" unicode="&#xe4;" horiz-adv-x="566" 
d="M147 570q0 13 8.5 21.5t21.5 8.5t21.5 -8.5t8.5 -21.5t-8.5 -21.5t-21.5 -8.5t-21.5 8.5t-8.5 21.5zM287 570q0 13 8.5 21.5t21.5 8.5t21.5 -8.5t8.5 -21.5t-8.5 -21.5t-21.5 -8.5t-21.5 8.5t-8.5 21.5zM514 0h-19l-15 89q-30 -43 -78.5 -71t-108.5 -28q-102 0 -172.5 68
t-70.5 168q0 91 61.5 152.5t154.5 61.5q48 0 91.5 -20.5t72.5 -52.5l-11 63h19zM266 422q-85 0 -140.5 -56t-55.5 -140q0 -92 65 -155t158 -63q61 0 107.5 29t74.5 73l-41 229q-30 38 -74.5 60.5t-93.5 22.5z" />
    <glyph glyph-name="aring" unicode="&#xe5;" horiz-adv-x="566" 
d="M177 590q0 33 23.5 56.5t56.5 23.5t56.5 -23.5t23.5 -56.5t-23.5 -56.5t-56.5 -23.5t-56.5 23.5t-23.5 56.5zM195 590q0 -26 18.5 -44t43.5 -18t43.5 18t18.5 44t-18.5 44t-43.5 18t-43.5 -18t-18.5 -44zM514 0h-19l-15 89q-30 -43 -78.5 -71t-108.5 -28
q-102 0 -172.5 68t-70.5 168q0 91 61.5 152.5t154.5 61.5q48 0 91.5 -20.5t72.5 -52.5l-11 63h19zM266 422q-85 0 -140.5 -56t-55.5 -140q0 -92 65 -155t158 -63q61 0 107.5 29t74.5 73l-41 229q-30 38 -74.5 60.5t-93.5 22.5z" />
    <glyph glyph-name="ae" unicode="&#xe6;" horiz-adv-x="916" 
d="M514 0h-19l-15 89q-30 -43 -78.5 -71t-108.5 -28q-102 0 -172.5 68t-70.5 168q0 91 61.5 152.5t154.5 61.5q48 0 91.5 -20.5t72.5 -52.5l-11 63h19l27 -154q14 72 67 118t126 46q86 0 145.5 -60.5t67.5 -151.5h-393q0 -97 63 -158.5t155 -61.5q97 0 160 67l13 -14
q-67 -71 -173 -71q-63 0 -115 27.5t-84 76.5zM266 422q-85 0 -140.5 -56t-55.5 -140q0 -92 65 -155t158 -63q61 0 107.5 29t74.5 73l-41 229q-30 38 -74.5 60.5t-93.5 22.5zM658 422q-73 0 -122.5 -50t-56.5 -126h370q-14 77 -66.5 126.5t-124.5 49.5z" />
    <glyph glyph-name="ccedilla" unicode="&#xe7;" horiz-adv-x="515" 
d="M421 388l-12 -14q-57 48 -132 48q-81 0 -144 -55.5t-63 -140.5q0 -90 60 -154t154 -64q53 0 100.5 23.5t80.5 66.5l15 -11q-68 -88 -177 -96l-37 -131h-19l37 130q-104 0 -169 69t-65 167q0 90 67 152t160 62q80 0 144 -52z" />
    <glyph glyph-name="egrave" unicode="&#xe8;" horiz-adv-x="508" 
d="M152 640h22l97 -130h-22zM250 422q-73 0 -122.5 -50t-56.5 -126h370q-14 77 -66.5 126.5t-124.5 49.5zM448 75l13 -14q-67 -71 -173 -71q-100 0 -169 66t-69 170q0 91 57 152.5t143 61.5t145.5 -60.5t67.5 -151.5h-393q0 -97 63 -158.5t155 -61.5q97 0 160 67z" />
    <glyph glyph-name="eacute" unicode="&#xe9;" horiz-adv-x="508" 
d="M293 640h22l-97 -130h-22zM250 422q-73 0 -122.5 -50t-56.5 -126h370q-14 77 -66.5 126.5t-124.5 49.5zM448 75l13 -14q-67 -71 -173 -71q-100 0 -169 66t-69 170q0 91 57 152.5t143 61.5t145.5 -60.5t67.5 -151.5h-393q0 -97 63 -158.5t155 -61.5q97 0 160 67z" />
    <glyph glyph-name="ecircumflex" unicode="&#xea;" horiz-adv-x="508" 
d="M193 640h31l125 -130h-28l-113 118l-72 -118h-22zM250 422q-73 0 -122.5 -50t-56.5 -126h370q-14 77 -66.5 126.5t-124.5 49.5zM448 75l13 -14q-67 -71 -173 -71q-100 0 -169 66t-69 170q0 91 57 152.5t143 61.5t145.5 -60.5t67.5 -151.5h-393q0 -97 63 -158.5t155 -61.5
q97 0 160 67z" />
    <glyph glyph-name="edieresis" unicode="&#xeb;" horiz-adv-x="508" 
d="M129 570q0 13 8.5 21.5t21.5 8.5t21.5 -8.5t8.5 -21.5t-8.5 -21.5t-21.5 -8.5t-21.5 8.5t-8.5 21.5zM269 570q0 13 8.5 21.5t21.5 8.5t21.5 -8.5t8.5 -21.5t-8.5 -21.5t-21.5 -8.5t-21.5 8.5t-8.5 21.5zM250 422q-73 0 -122.5 -50t-56.5 -126h370q-14 77 -66.5 126.5
t-124.5 49.5zM448 75l13 -14q-67 -71 -173 -71q-100 0 -169 66t-69 170q0 91 57 152.5t143 61.5t145.5 -60.5t67.5 -151.5h-393q0 -97 63 -158.5t155 -61.5q97 0 160 67z" />
    <glyph glyph-name="igrave" unicode="&#xec;" horiz-adv-x="206" 
d="M59 430h19l76 -430h-19zM-55 640h22l97 -130h-22z" />
    <glyph glyph-name="iacute" unicode="&#xed;" horiz-adv-x="206" 
d="M59 430h19l76 -430h-19zM142 640h22l-97 -130h-22z" />
    <glyph glyph-name="icircumflex" unicode="&#xee;" horiz-adv-x="206" 
d="M59 430h19l76 -430h-19zM19 640h31l125 -130h-28l-113 118l-72 -118h-22z" />
    <glyph glyph-name="idieresis" unicode="&#xef;" horiz-adv-x="206" 
d="M59 430h19l76 -430h-19zM-55 570q0 13 8.5 21.5t21.5 8.5t21.5 -8.5t8.5 -21.5t-8.5 -21.5t-21.5 -8.5t-21.5 8.5t-8.5 21.5zM85 570q0 13 8.5 21.5t21.5 8.5t21.5 -8.5t8.5 -21.5t-8.5 -21.5t-21.5 -8.5t-21.5 8.5t-8.5 21.5z" />
    <glyph glyph-name="eth" unicode="&#xf0;" horiz-adv-x="542" 
d="M163 626l-68 74h28l57 -63l99 63l9 -14l-96 -62l232 -254q73 -81 73 -171q0 -88 -60.5 -148.5t-152.5 -60.5q-97 0 -165.5 66.5t-68.5 162.5q0 88 60 148.5t151 60.5q59 0 103 -22l-189 207l-95 -61l-9 15zM261 410q-83 0 -137 -55t-54 -136q0 -88 62.5 -149.5
t151.5 -61.5q83 0 138 55t55 136q0 90 -71 161l-5 5q-62 45 -140 45z" />
    <glyph glyph-name="ntilde" unicode="&#xf1;" horiz-adv-x="560" 
d="M359 608l19 -3q-9 -72 -67 -72q-28 0 -75.5 29.5t-70.5 29.5q-41 0 -48 -57l-19 3q9 72 67 72q28 0 75.5 -29.5t70.5 -29.5q41 0 48 57zM518 0h-19l-42 237q-12 69 -41 110q-53 75 -143 75q-53 0 -99.5 -30.5t-73.5 -84.5l54 -307h-19l-76 430h19l17 -96q29 48 75.5 77
t102.5 29q103 0 161 -85q29 -42 42 -118z" />
    <glyph glyph-name="ograve" unicode="&#xf2;" horiz-adv-x="554" 
d="M291 8q84 0 141 56.5t57 139.5q0 91 -65.5 154.5t-155.5 63.5q-84 0 -141 -56.5t-57 -139.5q0 -91 65.5 -154.5t155.5 -63.5zM291 -10q-99 0 -170 68.5t-71 167.5q0 91 62 152.5t156 61.5q99 0 170 -68.5t71 -167.5q0 -91 -62 -152.5t-156 -61.5zM160 640h22l97 -130h-22
z" />
    <glyph glyph-name="oacute" unicode="&#xf3;" horiz-adv-x="554" 
d="M291 8q84 0 141 56.5t57 139.5q0 91 -65.5 154.5t-155.5 63.5q-84 0 -141 -56.5t-57 -139.5q0 -91 65.5 -154.5t155.5 -63.5zM291 -10q-99 0 -170 68.5t-71 167.5q0 91 62 152.5t156 61.5q99 0 170 -68.5t71 -167.5q0 -91 -62 -152.5t-156 -61.5zM310 640h22l-97 -130
h-22z" />
    <glyph glyph-name="ocircumflex" unicode="&#xf4;" horiz-adv-x="554" 
d="M291 8q84 0 141 56.5t57 139.5q0 91 -65.5 154.5t-155.5 63.5q-84 0 -141 -56.5t-57 -139.5q0 -91 65.5 -154.5t155.5 -63.5zM291 -10q-99 0 -170 68.5t-71 167.5q0 91 62 152.5t156 61.5q99 0 170 -68.5t71 -167.5q0 -91 -62 -152.5t-156 -61.5zM210 640h31l125 -130
h-28l-113 118l-72 -118h-22z" />
    <glyph glyph-name="otilde" unicode="&#xf5;" horiz-adv-x="554" 
d="M291 8q84 0 141 56.5t57 139.5q0 91 -65.5 154.5t-155.5 63.5q-84 0 -141 -56.5t-57 -139.5q0 -91 65.5 -154.5t155.5 -63.5zM291 -10q-99 0 -170 68.5t-71 167.5q0 91 62 152.5t156 61.5q99 0 170 -68.5t71 -167.5q0 -91 -62 -152.5t-156 -61.5zM347 608l19 -3
q-9 -72 -67 -72q-28 0 -75.5 29.5t-70.5 29.5q-41 0 -48 -57l-19 3q9 72 67 72q28 0 75.5 -29.5t70.5 -29.5q41 0 48 57z" />
    <glyph glyph-name="odieresis" unicode="&#xf6;" horiz-adv-x="554" 
d="M291 8q84 0 141 56.5t57 139.5q0 91 -65.5 154.5t-155.5 63.5q-84 0 -141 -56.5t-57 -139.5q0 -91 65.5 -154.5t155.5 -63.5zM291 -10q-99 0 -170 68.5t-71 167.5q0 91 62 152.5t156 61.5q99 0 170 -68.5t71 -167.5q0 -91 -62 -152.5t-156 -61.5zM136 570q0 13 8.5 21.5
t21.5 8.5t21.5 -8.5t8.5 -21.5t-8.5 -21.5t-21.5 -8.5t-21.5 8.5t-8.5 21.5zM276 570q0 13 8.5 21.5t21.5 8.5t21.5 -8.5t8.5 -21.5t-8.5 -21.5t-21.5 -8.5t-21.5 8.5t-8.5 21.5z" />
    <glyph glyph-name="divide" unicode="&#xf7;" horiz-adv-x="523" 
d="M322 85q0 -14 -10.5 -24.5t-24.5 -10.5t-24.5 10.5t-10.5 24.5t10.5 24.5t24.5 10.5t24.5 -10.5t10.5 -24.5zM260 435q0 -14 -10.5 -24.5t-24.5 -10.5t-24.5 10.5t-10.5 24.5t10.5 24.5t24.5 10.5t24.5 -10.5t10.5 -24.5zM458 251h-400l-3 18h400z" />
    <glyph glyph-name="oslash" unicode="&#xf8;" horiz-adv-x="554" 
d="M291 -10q-49 0 -95 19l-9 -19h-21l12 27q-58 30 -93 85.5t-35 123.5q0 91 62 152.5t156 61.5q50 0 96 -20l9 20h21l-13 -28q58 -30 93 -85.5t35 -122.5q0 -91 -62 -152.5t-156 -61.5zM70 226q0 -62 32 -112.5t84 -79.5l170 369q-43 19 -88 19q-84 0 -141 -56.5
t-57 -139.5zM291 8q84 0 141 56.5t57 139.5q0 61 -32 112t-84 79l-169 -369q40 -18 87 -18z" />
    <glyph glyph-name="ugrave" unicode="&#xf9;" horiz-adv-x="553" 
d="M143 640h22l97 -130h-22zM49 430h19l42 -237q12 -72 40 -111q53 -74 140 -74q50 0 96.5 31t73.5 84l-54 307h19l76 -430h-19l-17 96q-28 -47 -75.5 -76.5t-99.5 -29.5q-101 0 -158 84q-27 39 -41 119z" />
    <glyph glyph-name="uacute" unicode="&#xfa;" horiz-adv-x="553" 
d="M290 640h22l-97 -130h-22zM49 430h19l42 -237q12 -72 40 -111q53 -74 140 -74q50 0 96.5 31t73.5 84l-54 307h19l76 -430h-19l-17 96q-28 -47 -75.5 -76.5t-99.5 -29.5q-101 0 -158 84q-27 39 -41 119z" />
    <glyph glyph-name="ucircumflex" unicode="&#xfb;" horiz-adv-x="553" 
d="M195 640h31l125 -130h-28l-113 118l-72 -118h-22zM49 430h19l42 -237q12 -72 40 -111q53 -74 140 -74q50 0 96.5 31t73.5 84l-54 307h19l76 -430h-19l-17 96q-28 -47 -75.5 -76.5t-99.5 -29.5q-101 0 -158 84q-27 39 -41 119z" />
    <glyph glyph-name="udieresis" unicode="&#xfc;" horiz-adv-x="553" 
d="M129 570q0 13 8.5 21.5t21.5 8.5t21.5 -8.5t8.5 -21.5t-8.5 -21.5t-21.5 -8.5t-21.5 8.5t-8.5 21.5zM269 570q0 13 8.5 21.5t21.5 8.5t21.5 -8.5t8.5 -21.5t-8.5 -21.5t-21.5 -8.5t-21.5 8.5t-8.5 21.5zM49 430h19l42 -237q12 -72 40 -111q53 -74 140 -74q50 0 96.5 31
t73.5 84l-54 307h19l76 -430h-19l-17 96q-28 -47 -75.5 -76.5t-99.5 -29.5q-101 0 -158 84q-27 39 -41 119z" />
    <glyph glyph-name="yacute" unicode="&#xfd;" horiz-adv-x="475" 
d="M394 430h21l-198 -670h-22l86 289l-286 381h24l269 -357zM283 640h22l-97 -130h-22z" />
    <glyph glyph-name="thorn" unicode="&#xfe;" horiz-adv-x="567" 
d="M10 710h19l63 -369q30 43 78.5 71t108.5 28q102 0 172.5 -68t70.5 -168q0 -91 -61.5 -152.5t-154.5 -61.5q-48 0 -91.5 20.5t-72.5 52.5l53 -303h-19zM306 8q85 0 140.5 56t55.5 140q0 92 -65 155t-158 63q-61 0 -107.5 -29t-74.5 -73l41 -229q30 -38 74.5 -60.5
t93.5 -22.5z" />
    <glyph glyph-name="ydieresis" unicode="&#xff;" horiz-adv-x="475" 
d="M394 430h21l-198 -670h-22l86 289l-286 381h24l269 -357zM104 570q0 13 8.5 21.5t21.5 8.5t21.5 -8.5t8.5 -21.5t-8.5 -21.5t-21.5 -8.5t-21.5 8.5t-8.5 21.5zM244 570q0 13 8.5 21.5t21.5 8.5t21.5 -8.5t8.5 -21.5t-8.5 -21.5t-21.5 -8.5t-21.5 8.5t-8.5 21.5z" />
    <glyph glyph-name="Amacron" unicode="&#x100;" horiz-adv-x="660" 
d="M110 801h240v-18h-240v18zM141 239l-61 -239h-20l177 700h9l424 -700h-23l-145 239h-361zM491 257l-243 402l-102 -402h345z" />
    <glyph glyph-name="amacron" unicode="&#x101;" horiz-adv-x="566" 
d="M112 571h240v-18h-240v18zM514 0h-19l-15 89q-30 -43 -78.5 -71t-108.5 -28q-102 0 -172.5 68t-70.5 168q0 91 61.5 152.5t154.5 61.5q48 0 91.5 -20.5t72.5 -52.5l-11 63h19zM266 422q-85 0 -140.5 -56t-55.5 -140q0 -92 65 -155t158 -63q61 0 107.5 29t74.5 73l-41 229
q-30 38 -74.5 60.5t-93.5 22.5z" />
    <glyph glyph-name="Abreve" unicode="&#x102;" horiz-adv-x="660" 
d="M115 865h18q0 -41 28.5 -69t68.5 -28t68.5 28t28.5 69h18q0 -47 -34 -81t-81 -34t-81 34t-34 81zM141 239l-61 -239h-20l177 700h9l424 -700h-23l-145 239h-361zM491 257l-243 402l-102 -402h345z" />
    <glyph glyph-name="abreve" unicode="&#x103;" horiz-adv-x="566" 
d="M320 635h18q0 -47 -34 -81t-81 -34t-81 34t-34 81h18q0 -41 28 -69t69 -28t69 28t28 69zM514 0h-19l-15 89q-30 -43 -78.5 -71t-108.5 -28q-102 0 -172.5 68t-70.5 168q0 91 61.5 152.5t154.5 61.5q48 0 91.5 -20.5t72.5 -52.5l-11 63h19zM266 422q-85 0 -140.5 -56
t-55.5 -140q0 -92 65 -155t158 -63q61 0 107.5 29t74.5 73l-41 229q-30 38 -74.5 60.5t-93.5 22.5z" />
    <glyph glyph-name="Aogonek" unicode="&#x104;" horiz-adv-x="660" 
d="M141 239l-61 -239h-20l177 700h9l424 -700q-33 -52 -33 -105q0 -43 22 -70t61 -27q26 0 42 8l5 -17q-18 -9 -45 -9q-50 0 -77.5 31.5t-27.5 81.5q0 51 31 107l-146 239h-361zM491 257l-243 402l-102 -402h345z" />
    <glyph glyph-name="aogonek" unicode="&#x105;" horiz-adv-x="566" 
d="M514 0q-32 -51 -32 -105q0 -43 22 -70t61 -27q26 0 42 8l5 -17q-18 -9 -45 -9q-50 0 -77.5 31.5t-27.5 81.5q0 56 32 108l-14 88q-30 -43 -78.5 -71t-108.5 -28q-102 0 -172.5 68t-70.5 168q0 91 61.5 152.5t154.5 61.5q48 0 91.5 -20.5t72.5 -52.5l-11 63h19zM266 422
q-85 0 -140.5 -56t-55.5 -140q0 -92 65 -155t158 -63q61 0 107.5 29t74.5 73l-41 229q-30 38 -74.5 60.5t-93.5 22.5z" />
    <glyph glyph-name="Cacute" unicode="&#x106;" horiz-adv-x="741" 
d="M685 139l16 -12q-48 -65 -125 -101t-169 -36q-158 0 -266.5 113t-108.5 266q0 146 97.5 243.5t245.5 97.5q130 0 233 -88l-12 -14q-98 84 -221 84q-139 0 -231 -92.5t-92 -231.5q0 -146 102.5 -253t252.5 -107q86 0 159.5 35t118.5 96zM390 870h22l-97 -130h-22z" />
    <glyph glyph-name="cacute" unicode="&#x107;" horiz-adv-x="515" 
d="M264 640h22l-97 -130h-22zM421 388l-12 -14q-57 48 -132 48q-81 0 -144 -55.5t-63 -140.5q0 -90 60 -154t154 -64q53 0 100.5 23.5t80.5 66.5l15 -11q-73 -97 -196 -97q-104 0 -169 69t-65 167q0 90 67 152t160 62q80 0 144 -52z" />
    <glyph glyph-name="Ccircumflex" unicode="&#x108;" horiz-adv-x="741" 
d="M685 139l16 -12q-48 -65 -125 -101t-169 -36q-158 0 -266.5 113t-108.5 266q0 146 97.5 243.5t245.5 97.5q130 0 233 -88l-12 -14q-98 84 -221 84q-139 0 -231 -92.5t-92 -231.5q0 -146 102.5 -253t252.5 -107q86 0 159.5 35t118.5 96zM298 870h31l125 -130h-28l-113 118
l-72 -118h-22z" />
    <glyph glyph-name="ccircumflex" unicode="&#x109;" horiz-adv-x="515" 
d="M188 640h31l125 -130h-28l-113 118l-72 -118h-22zM421 388l-12 -14q-57 48 -132 48q-81 0 -144 -55.5t-63 -140.5q0 -90 60 -154t154 -64q53 0 100.5 23.5t80.5 66.5l15 -11q-73 -97 -196 -97q-104 0 -169 69t-65 167q0 90 67 152t160 62q80 0 144 -52z" />
    <glyph glyph-name="Cdotaccent" unicode="&#x10a;" horiz-adv-x="741" 
d="M685 139l16 -12q-48 -65 -125 -101t-169 -36q-158 0 -266.5 113t-108.5 266q0 146 97.5 243.5t245.5 97.5q130 0 233 -88l-12 -14q-98 84 -221 84q-139 0 -231 -92.5t-92 -231.5q0 -146 102.5 -253t252.5 -107q86 0 159.5 35t118.5 96zM351 820q0 -13 -8.5 -21.5
t-21.5 -8.5t-21.5 8.5t-8.5 21.5t8.5 21.5t21.5 8.5t21.5 -8.5t8.5 -21.5z" />
    <glyph glyph-name="cdotaccent" unicode="&#x10b;" horiz-adv-x="515" 
d="M167 590q0 13 8.5 21.5t21.5 8.5t21.5 -8.5t8.5 -21.5t-8.5 -21.5t-21.5 -8.5t-21.5 8.5t-8.5 21.5zM421 388l-12 -14q-57 48 -132 48q-81 0 -144 -55.5t-63 -140.5q0 -90 60 -154t154 -64q53 0 100.5 23.5t80.5 66.5l15 -11q-73 -97 -196 -97q-104 0 -169 69t-65 167
q0 90 67 152t160 62q80 0 144 -52z" />
    <glyph glyph-name="Ccaron" unicode="&#x10c;" horiz-adv-x="741" 
d="M685 139l16 -12q-48 -65 -125 -101t-169 -36q-158 0 -266.5 113t-108.5 266q0 146 97.5 243.5t245.5 97.5q130 0 233 -88l-12 -14q-98 84 -221 84q-139 0 -231 -92.5t-92 -231.5q0 -146 102.5 -253t252.5 -107q86 0 159.5 35t118.5 96zM361 750h-31l-125 130h28l113 -118
l72 118h22z" />
    <glyph glyph-name="ccaron" unicode="&#x10d;" horiz-adv-x="515" 
d="M225 520h-31l-125 130h28l113 -118l72 118h22zM421 388l-12 -14q-57 48 -132 48q-81 0 -144 -55.5t-63 -140.5q0 -90 60 -154t154 -64q53 0 100.5 23.5t80.5 66.5l15 -11q-73 -97 -196 -97q-104 0 -169 69t-65 167q0 90 67 152t160 62q80 0 144 -52z" />
    <glyph glyph-name="Dcaron" unicode="&#x10e;" horiz-adv-x="736" 
d="M251 750h-31l-125 130h28l113 -118l72 118h22zM256 700q191 0 298 -110q110 -112 110 -260t-87 -236q-94 -94 -258 -94h-179l-123 700h239zM256 682h-217l117 -664h161q157 0 245 88q82 83 82 224q0 140 -103 246t-285 106z" />
    <glyph glyph-name="dcaron" unicode="&#x10f;" horiz-adv-x="606" 
d="M551 700h22l-97 -130h-22zM514 0h-19l-15 89q-30 -43 -78.5 -71t-108.5 -28q-102 0 -172.5 68t-70.5 168q0 91 61.5 152.5t154.5 61.5q48 0 91.5 -20.5t72.5 -52.5l-60 343h19zM266 422q-85 0 -140.5 -56t-55.5 -140q0 -92 65 -155t158 -63q61 0 107.5 29t74.5 73
l-41 229q-30 38 -74.5 60.5t-93.5 22.5z" />
    <glyph glyph-name="Dcroat" unicode="&#x110;" horiz-adv-x="736" 
d="M-31 400h100l-52 300h239q191 0 298 -110q110 -112 110 -260t-87 -236q-94 -94 -258 -94h-179l-68 382h-100zM256 682h-217l50 -282h200l3 -18h-200l64 -364h161q157 0 245 88q82 83 82 224q0 140 -103 246t-285 106z" />
    <glyph glyph-name="dcroat" unicode="&#x111;" horiz-adv-x="566" 
d="M514 0h-19l-15 89q-30 -43 -78.5 -71t-108.5 -28q-102 0 -172.5 68t-70.5 168q0 91 61.5 152.5t154.5 61.5q48 0 91.5 -20.5t72.5 -52.5l-34 195h-131l-3 18h130l-22 130h19l23 -130h90l3 -18h-90zM266 422q-85 0 -140.5 -56t-55.5 -140q0 -92 65 -155t158 -63
q61 0 107.5 29t74.5 73l-41 229q-30 38 -74.5 60.5t-93.5 22.5z" />
    <glyph glyph-name="Emacron" unicode="&#x112;" horiz-adv-x="513" 
d="M140 0l-123 700h360l3 -18h-341l49 -282h272l3 -18h-272l65 -364h351l3 -18h-370zM70 801h240v-18h-240v18z" />
    <glyph glyph-name="emacron" unicode="&#x113;" horiz-adv-x="508" 
d="M99 571h240v-18h-240v18zM250 422q-73 0 -122.5 -50t-56.5 -126h370q-14 77 -66.5 126.5t-124.5 49.5zM448 75l13 -14q-67 -71 -173 -71q-100 0 -169 66t-69 170q0 91 57 152.5t143 61.5t145.5 -60.5t67.5 -151.5h-393q0 -97 63 -158.5t155 -61.5q97 0 160 67z" />
    <glyph glyph-name="Ebreve" unicode="&#x114;" horiz-adv-x="513" 
d="M75 865h18q0 -41 28.5 -69t68.5 -28t68.5 28t28.5 69h18q0 -47 -34 -81t-81 -34t-81 34t-34 81zM140 0l-123 700h360l3 -18h-341l49 -282h272l3 -18h-272l65 -364h351l3 -18h-370z" />
    <glyph glyph-name="ebreve" unicode="&#x115;" horiz-adv-x="508" 
d="M301 635h18q0 -47 -34 -81t-81 -34t-81 34t-34 81h18q0 -41 28.5 -69t68.5 -28t68.5 28t28.5 69zM250 422q-73 0 -122.5 -50t-56.5 -126h370q-14 77 -66.5 126.5t-124.5 49.5zM448 75l13 -14q-67 -71 -173 -71q-100 0 -169 66t-69 170q0 91 57 152.5t143 61.5
t145.5 -60.5t67.5 -151.5h-393q0 -97 63 -158.5t155 -61.5q97 0 160 67z" />
    <glyph glyph-name="Edotaccent" unicode="&#x116;" horiz-adv-x="513" 
d="M140 0l-123 700h360l3 -18h-341l49 -282h272l3 -18h-272l65 -364h351l3 -18h-370zM211 820q0 -13 -8.5 -21.5t-21.5 -8.5t-21.5 8.5t-8.5 21.5t8.5 21.5t21.5 8.5t21.5 -8.5t8.5 -21.5z" />
    <glyph glyph-name="edotaccent" unicode="&#x117;" horiz-adv-x="508" 
d="M194 590q0 13 8.5 21.5t21.5 8.5t21.5 -8.5t8.5 -21.5t-8.5 -21.5t-21.5 -8.5t-21.5 8.5t-8.5 21.5zM250 422q-73 0 -122.5 -50t-56.5 -126h370q-14 77 -66.5 126.5t-124.5 49.5zM448 75l13 -14q-67 -71 -173 -71q-100 0 -169 66t-69 170q0 91 57 152.5t143 61.5
t145.5 -60.5t67.5 -151.5h-393q0 -97 63 -158.5t155 -61.5q97 0 160 67z" />
    <glyph glyph-name="Eogonek" unicode="&#x118;" horiz-adv-x="513" 
d="M140 0l-123 700h360l3 -18h-341l49 -282h272l3 -18h-272l65 -364h351l3 -18h-100q-32 -51 -32 -105q0 -43 22 -70t61 -27q26 0 42 8l5 -17q-18 -9 -45 -9q-50 0 -77.5 31.5t-27.5 81.5q0 53 31 107h-249z" />
    <glyph glyph-name="eogonek" unicode="&#x119;" horiz-adv-x="508" 
d="M448 75l13 -14q-43 -45 -100 -61q-32 -51 -32 -105q0 -43 22 -70t61 -27q26 0 42 8l5 -17q-18 -9 -45 -9q-50 0 -77.5 31.5t-27.5 81.5q0 51 28 102q-25 -5 -49 -5q-100 0 -169 66t-69 170q0 91 57 152.5t143 61.5t145.5 -60.5t67.5 -151.5h-393q0 -97 63 -158.5
t155 -61.5q97 0 160 67zM250 422q-73 0 -122.5 -50t-56.5 -126h370q-14 77 -66.5 126.5t-124.5 49.5z" />
    <glyph glyph-name="Ecaron" unicode="&#x11a;" horiz-adv-x="513" 
d="M140 0l-123 700h360l3 -18h-341l49 -282h272l3 -18h-272l65 -364h351l3 -18h-370zM204 750h-31l-125 130h28l113 -118l72 118h22z" />
    <glyph glyph-name="ecaron" unicode="&#x11b;" horiz-adv-x="508" 
d="M222 520h-31l-125 130h28l113 -118l72 118h22zM250 422q-73 0 -122.5 -50t-56.5 -126h370q-14 77 -66.5 126.5t-124.5 49.5zM448 75l13 -14q-67 -71 -173 -71q-100 0 -169 66t-69 170q0 91 57 152.5t143 61.5t145.5 -60.5t67.5 -151.5h-393q0 -97 63 -158.5t155 -61.5
q97 0 160 67z" />
    <glyph glyph-name="Gcircumflex" unicode="&#x11c;" horiz-adv-x="766" 
d="M373 400h280l48 -273q-48 -65 -125 -101t-169 -36q-158 0 -266.5 113t-108.5 266q0 146 97.5 243.5t245.5 97.5q130 0 233 -88l-12 -14q-98 84 -221 84q-139 0 -231 -92.5t-92 -231.5q0 -146 102.5 -253t252.5 -107q86 0 157 32.5t117 93.5l-44 248h-261zM298 870h31
l125 -130h-28l-113 118l-72 -118h-22z" />
    <glyph glyph-name="gcircumflex" unicode="&#x11d;" horiz-adv-x="566" 
d="M194 640h31l125 -130h-28l-113 118l-72 -118h-22zM137 -169l13 12q66 -75 180 -75q78 0 126.5 38t48.5 98q0 40 -7 78l-18 107q-30 -43 -78.5 -71t-108.5 -28q-102 0 -172.5 68t-70.5 168q0 91 61.5 152.5t154.5 61.5q48 0 91.5 -20.5t72.5 -52.5l-11 63h19l79 -447
q8 -48 8 -79q0 -69 -55 -111.5t-140 -42.5q-122 0 -193 81zM266 422q-85 0 -140.5 -56t-55.5 -140q0 -92 65 -155t158 -63q61 0 107.5 29t74.5 73l-41 229q-30 38 -74.5 60.5t-93.5 22.5z" />
    <glyph glyph-name="Gbreve" unicode="&#x11e;" horiz-adv-x="766" 
d="M373 400h280l48 -273q-48 -65 -125 -101t-169 -36q-158 0 -266.5 113t-108.5 266q0 146 97.5 243.5t245.5 97.5q130 0 233 -88l-12 -14q-98 84 -221 84q-139 0 -231 -92.5t-92 -231.5q0 -146 102.5 -253t252.5 -107q86 0 157 32.5t117 93.5l-44 248h-261zM215 865h18
q0 -41 28.5 -69t68.5 -28t68.5 28t28.5 69h18q0 -47 -34 -81t-81 -34t-81 34t-34 81z" />
    <glyph glyph-name="gbreve" unicode="&#x11f;" horiz-adv-x="566" 
d="M317 635h18q0 -47 -34 -81t-81 -34t-81 34t-34 81h18q0 -41 28.5 -69t68.5 -28t68.5 28t28.5 69zM137 -169l13 12q66 -75 180 -75q78 0 126.5 38t48.5 98q0 40 -7 78l-18 107q-30 -43 -78.5 -71t-108.5 -28q-102 0 -172.5 68t-70.5 168q0 91 61.5 152.5t154.5 61.5
q48 0 91.5 -20.5t72.5 -52.5l-11 63h19l79 -447q8 -48 8 -79q0 -69 -55 -111.5t-140 -42.5q-122 0 -193 81zM266 422q-85 0 -140.5 -56t-55.5 -140q0 -92 65 -155t158 -63q61 0 107.5 29t74.5 73l-41 229q-30 38 -74.5 60.5t-93.5 22.5z" />
    <glyph glyph-name="Gdotaccent" unicode="&#x120;" horiz-adv-x="766" 
d="M373 400h280l48 -273q-48 -65 -125 -101t-169 -36q-158 0 -266.5 113t-108.5 266q0 146 97.5 243.5t245.5 97.5q130 0 233 -88l-12 -14q-98 84 -221 84q-139 0 -231 -92.5t-92 -231.5q0 -146 102.5 -253t252.5 -107q86 0 157 32.5t117 93.5l-44 248h-261zM351 820
q0 -13 -8.5 -21.5t-21.5 -8.5t-21.5 8.5t-8.5 21.5t8.5 21.5t21.5 8.5t21.5 -8.5t8.5 -21.5z" />
    <glyph glyph-name="gdotaccent" unicode="&#x121;" horiz-adv-x="566" 
d="M193 590q0 13 8.5 21.5t21.5 8.5t21.5 -8.5t8.5 -21.5t-8.5 -21.5t-21.5 -8.5t-21.5 8.5t-8.5 21.5zM137 -169l13 12q66 -75 180 -75q78 0 126.5 38t48.5 98q0 40 -7 78l-18 107q-30 -43 -78.5 -71t-108.5 -28q-102 0 -172.5 68t-70.5 168q0 91 61.5 152.5t154.5 61.5
q48 0 91.5 -20.5t72.5 -52.5l-11 63h19l79 -447q8 -48 8 -79q0 -69 -55 -111.5t-140 -42.5q-122 0 -193 81zM266 422q-85 0 -140.5 -56t-55.5 -140q0 -92 65 -155t158 -63q61 0 107.5 29t74.5 73l-41 229q-30 38 -74.5 60.5t-93.5 22.5z" />
    <glyph glyph-name="Gcommaaccent" unicode="&#x122;" horiz-adv-x="766" 
d="M373 400h280l48 -273q-48 -65 -125 -101t-169 -36q-158 0 -266.5 113t-108.5 266q0 146 97.5 243.5t245.5 97.5q130 0 233 -88l-12 -14q-98 84 -221 84q-139 0 -231 -92.5t-92 -231.5q0 -146 102.5 -253t252.5 -107q86 0 157 32.5t117 93.5l-44 248h-261zM433 -40h22
l-97 -130h-22z" />
    <glyph glyph-name="gcommaaccent" unicode="&#x123;" horiz-adv-x="566" 
d="M281 650h22l-97 -130h-22zM137 -169l13 12q66 -75 180 -75q78 0 126.5 38t48.5 98q0 40 -7 78l-18 107q-30 -43 -78.5 -71t-108.5 -28q-102 0 -172.5 68t-70.5 168q0 91 61.5 152.5t154.5 61.5q48 0 91.5 -20.5t72.5 -52.5l-11 63h19l79 -447q8 -48 8 -79
q0 -69 -55 -111.5t-140 -42.5q-122 0 -193 81zM266 422q-85 0 -140.5 -56t-55.5 -140q0 -92 65 -155t158 -63q61 0 107.5 29t74.5 73l-41 229q-30 38 -74.5 60.5t-93.5 22.5z" />
    <glyph glyph-name="Hcircumflex" unicode="&#x124;" horiz-adv-x="741" 
d="M140 0l-123 700h19l53 -300h506l-53 300h19l123 -700h-19l-67 382h-506l67 -382h-19zM248 870h31l125 -130h-28l-113 118l-72 -118h-22z" />
    <glyph glyph-name="hcircumflex" unicode="&#x125;" horiz-adv-x="560" 
d="M-14 880h31l125 -130h-28l-113 118l-72 -118h-22zM518 0h-19l-42 237q-12 69 -41 110q-53 75 -143 75q-53 0 -99.5 -30.5t-73.5 -84.5l54 -307h-19l-125 710h19l66 -376q29 48 75.5 77t102.5 29q103 0 161 -85q29 -42 42 -118z" />
    <glyph glyph-name="Hbar" unicode="&#x126;" horiz-adv-x="741" 
d="M-52 580h90l-21 120h19l22 -120h505l-21 120h19l21 -120h90l3 -18h-90l99 -562h-19l-67 382h-506l67 -382h-19l-99 562h-90zM89 400h506l-29 162h-505z" />
    <glyph glyph-name="hbar" unicode="&#x127;" horiz-adv-x="560" 
d="M518 0h-19l-42 237q-12 69 -41 110q-53 75 -143 75q-53 0 -99.5 -30.5t-73.5 -84.5l54 -307h-19l-99 562h-90l-3 18h90l-23 130h19l23 -130h131l3 -18h-131l40 -228q29 48 75.5 77t102.5 29q103 0 161 -85q29 -42 42 -118z" />
    <glyph glyph-name="Itilde" unicode="&#x128;" horiz-adv-x="216" 
d="M140 0l-123 700h19l123 -700h-19zM139 838l19 -3q-9 -72 -67 -72q-28 0 -75.5 29.5t-70.5 29.5q-41 0 -48 -57l-19 3q9 72 67 72q28 0 75.5 -29.5t70.5 -29.5q41 0 48 57z" />
    <glyph glyph-name="itilde" unicode="&#x129;" horiz-adv-x="206" 
d="M59 430h19l76 -430h-19zM164 608l19 -3q-9 -72 -67 -72q-28 0 -75.5 29.5t-70.5 29.5q-41 0 -48 -57l-19 3q9 72 67 72q28 0 75.5 -29.5t70.5 -29.5q41 0 48 57z" />
    <glyph glyph-name="Imacron" unicode="&#x12a;" horiz-adv-x="216" 
d="M140 0l-123 700h19l123 -700h-19zM-107 801h240v-18h-240v18z" />
    <glyph glyph-name="imacron" unicode="&#x12b;" horiz-adv-x="206" 
d="M59 430h19l76 -430h-19zM-74 571h240v-18h-240v18z" />
    <glyph glyph-name="Ibreve" unicode="&#x12c;" horiz-adv-x="216" 
d="M140 0l-123 700h19l123 -700h-19zM-103 865h18q0 -41 28.5 -69t68.5 -28t68.5 28t28.5 69h18q0 -47 -34 -81t-81 -34t-81 34t-34 81z" />
    <glyph glyph-name="ibreve" unicode="&#x12d;" horiz-adv-x="206" 
d="M59 430h19l76 -430h-19zM-71 635h18q0 -41 28.5 -69t68.5 -28t68.5 28t28.5 69h18q0 -47 -34 -81t-81 -34t-81 34t-34 81z" />
    <glyph glyph-name="Iogonek" unicode="&#x12e;" horiz-adv-x="216" 
d="M139 1l-122 699h19l122 -700q-31 -49 -31 -105q0 -43 22 -70t61 -27q26 0 42 8l5 -17q-18 -9 -45 -9q-50 0 -77.5 31.5t-27.5 81.5q0 56 32 108z" />
    <glyph glyph-name="iogonek" unicode="&#x12f;" horiz-adv-x="206" 
d="M71 590q0 -13 -8.5 -21.5t-21.5 -8.5t-21.5 8.5t-8.5 21.5t8.5 21.5t21.5 8.5t21.5 -8.5t8.5 -21.5zM78 430l76 -430q-32 -51 -32 -105q0 -43 22 -70t61 -27q26 0 42 8l5 -17q-18 -9 -45 -9q-50 0 -77.5 31.5t-27.5 81.5q0 56 32 108l-75 429h19z" />
    <glyph glyph-name="Idotaccent" unicode="&#x130;" horiz-adv-x="216" 
d="M140 0l-123 700h19l123 -700h-19zM35 820q0 -13 -8.5 -21.5t-21.5 -8.5t-21.5 8.5t-8.5 21.5t8.5 21.5t21.5 8.5t21.5 -8.5t8.5 -21.5z" />
    <glyph glyph-name="dotlessi" unicode="&#x131;" horiz-adv-x="206" 
d="M59 430h19l76 -430h-19z" />
    <glyph glyph-name="IJ" unicode="&#x132;" horiz-adv-x="693" 
d="M140 0l-123 700h19l123 -700h-19zM507 700l87 -494q9 -48 9 -74q0 -71 -52 -110q-43 -32 -102 -32q-116 0 -173 104l18 9q51 -95 155 -95q53 0 91 29q43 33 43 95q0 26 -7 70l-88 498h19z" />
    <glyph glyph-name="ij" unicode="&#x133;" horiz-adv-x="448" 
d="M71 590q0 -13 -8.5 -21.5t-21.5 -8.5t-21.5 8.5t-8.5 21.5t8.5 21.5t21.5 8.5t21.5 -8.5t8.5 -21.5zM59 430h19l76 -430h-19zM257 -244l5 17q17 -5 37 -5q49 0 74 27.5t25 71.5q0 31 -6 63l-88 500h19l88 -499q7 -39 7 -64q0 -49 -29 -83t-90 -34q-24 0 -42 6zM316 590
q0 -13 -8.5 -21.5t-21.5 -8.5t-21.5 8.5t-8.5 21.5t8.5 21.5t21.5 8.5t21.5 -8.5t8.5 -21.5z" />
    <glyph glyph-name="Jcircumflex" unicode="&#x134;" horiz-adv-x="477" 
d="M291 700l87 -494q9 -48 9 -74q0 -71 -52 -110q-43 -32 -102 -32q-116 0 -173 104l18 9q51 -95 155 -95q53 0 91 29q43 33 43 95q0 26 -7 70l-88 498h19zM228 870h31l125 -130h-28l-113 118l-72 -118h-22z" />
    <glyph glyph-name="jcircumflex" unicode="&#x135;" horiz-adv-x="242" 
d="M48 640h31l125 -130h-28l-113 118l-72 -118h-22zM51 -244l5 17q17 -5 37 -5q49 0 74 27.5t25 71.5q0 31 -6 63l-88 500h19l88 -499q7 -38 7 -64q0 -49 -29 -83t-90 -34q-24 0 -42 6z" />
    <glyph glyph-name="Kcommaaccent" unicode="&#x136;" horiz-adv-x="610" 
d="M578 0l-486 382l67 -382h-19l-123 700h19l54 -306l347 306h30l-352 -310l495 -390h-32zM359 -40h22l-97 -130h-22z" />
    <glyph glyph-name="kcommaaccent" unicode="&#x137;" horiz-adv-x="481" 
d="M456 0l-343 229l41 -229h-19l-125 710h19l82 -470l245 190h33l-250 -194l352 -236h-35zM299 -40h22l-97 -130h-22z" />
    <glyph glyph-name="kgreenlandic" unicode="&#x138;" horiz-adv-x="481" 
d="M456 0l-343 229l41 -229h-19l-76 430h19l33 -190l245 190h33l-250 -194l352 -236h-35z" />
    <glyph glyph-name="Lacute" unicode="&#x139;" horiz-adv-x="500" 
d="M140 0l-123 700h19l120 -682h351l3 -18h-370zM106 870h22l-97 -130h-22z" />
    <glyph glyph-name="lacute" unicode="&#x13a;" horiz-adv-x="206" 
d="M135 0l-125 710h19l125 -710h-19zM99 880h22l-97 -130h-22z" />
    <glyph glyph-name="Lcommaaccent" unicode="&#x13b;" horiz-adv-x="500" 
d="M140 0l-123 700h19l120 -682h351l3 -18h-370zM323 -40h22l-97 -130h-22z" />
    <glyph glyph-name="lcommaaccent" unicode="&#x13c;" horiz-adv-x="206" 
d="M135 0l-125 710h19l125 -710h-19zM142 -40h22l-97 -130h-22z" />
    <glyph glyph-name="Lcaron" unicode="&#x13d;" horiz-adv-x="500" 
d="M140 0l-123 700h19l120 -682h351l3 -18h-370zM236 700h22l-97 -130h-22z" />
    <glyph glyph-name="lcaron" unicode="&#x13e;" horiz-adv-x="246" 
d="M135 0l-125 710h19l125 -710h-19zM191 700h22l-97 -130h-22z" />
    <glyph glyph-name="Ldot" unicode="&#x13f;" horiz-adv-x="500" 
d="M140 0l-123 700h19l120 -682h351l3 -18h-370zM198 350q0 13 8.5 21.5t21.5 8.5t21.5 -8.5t8.5 -21.5t-8.5 -21.5t-21.5 -8.5t-21.5 8.5t-8.5 21.5z" />
    <glyph glyph-name="ldot" unicode="&#x140;" horiz-adv-x="206" 
d="M135 0l-125 710h19l125 -710h-19zM143 350q0 13 8.5 21.5t21.5 8.5t21.5 -8.5t8.5 -21.5t-8.5 -21.5t-21.5 -8.5t-21.5 8.5t-8.5 21.5z" />
    <glyph glyph-name="Lslash" unicode="&#x141;" horiz-adv-x="500" 
d="M88 405l108 70l3 -19l-108 -69l65 -369h351l3 -18h-370l-66 376l-90 -58l-3 19l90 57l-54 306h19z" />
    <glyph glyph-name="lslash" unicode="&#x142;" horiz-adv-x="206" 
d="M173 464l3 -19l-90 -58l68 -387h-19l-66 376l-90 -57l-3 19l90 57l-56 315h19l54 -304z" />
    <glyph glyph-name="Nacute" unicode="&#x143;" horiz-adv-x="746" 
d="M662 47l-115 653h19l123 -700h-9l-635 653l114 -653h-19l-123 700h9zM370 870h22l-97 -130h-22z" />
    <glyph glyph-name="nacute" unicode="&#x144;" horiz-adv-x="560" 
d="M302 640h22l-97 -130h-22zM518 0h-19l-42 237q-12 69 -41 110q-53 75 -143 75q-53 0 -99.5 -30.5t-73.5 -84.5l54 -307h-19l-76 430h19l17 -96q29 48 75.5 77t102.5 29q103 0 161 -85q29 -42 42 -118z" />
    <glyph glyph-name="Ncommaaccent" unicode="&#x145;" horiz-adv-x="746" 
d="M662 47l-115 653h19l123 -700h-9l-635 653l114 -653h-19l-123 700h9zM428 -40h22l-97 -130h-22z" />
    <glyph glyph-name="ncommaaccent" unicode="&#x146;" horiz-adv-x="560" 
d="M338 -40h22l-97 -130h-22zM518 0h-19l-42 237q-12 69 -41 110q-53 75 -143 75q-53 0 -99.5 -30.5t-73.5 -84.5l54 -307h-19l-76 430h19l17 -96q29 48 75.5 77t102.5 29q103 0 161 -85q29 -42 42 -118z" />
    <glyph glyph-name="Ncaron" unicode="&#x147;" horiz-adv-x="746" 
d="M662 47l-115 653h19l123 -700h-9l-635 653l114 -653h-19l-123 700h9zM306 750h-31l-125 130h28l113 -118l72 118h22z" />
    <glyph glyph-name="ncaron" unicode="&#x148;" horiz-adv-x="560" 
d="M258 520h-31l-125 130h28l113 -118l72 118h22zM518 0h-19l-42 237q-12 69 -41 110q-53 75 -143 75q-53 0 -99.5 -30.5t-73.5 -84.5l54 -307h-19l-76 430h19l17 -96q29 48 75.5 77t102.5 29q103 0 161 -85q29 -42 42 -118z" />
    <glyph glyph-name="napostrophe" unicode="&#x149;" horiz-adv-x="560" 
d="M132 700h22l-97 -130h-22zM518 0h-19l-42 237q-12 69 -41 110q-53 75 -143 75q-53 0 -99.5 -30.5t-73.5 -84.5l54 -307h-19l-76 430h19l17 -96q29 48 75.5 77t102.5 29q103 0 161 -85q29 -42 42 -118z" />
    <glyph glyph-name="Eng" unicode="&#x14a;" horiz-adv-x="746" 
d="M662 47l-115 653h19l129 -734q9 -48 9 -74q0 -71 -52 -110q-43 -32 -102 -32q-116 0 -173 104l18 9q51 -95 155 -95q53 0 91 29q43 33 43 95q0 26 -7 70l-9 50l-623 641l114 -653h-19l-123 700h9z" />
    <glyph glyph-name="eng" unicode="&#x14b;" horiz-adv-x="560" 
d="M511 -70l-54 307q-12 69 -41 110q-53 75 -143 75q-53 0 -99.5 -30.5t-73.5 -84.5l54 -307h-19l-76 430h19l17 -96q29 48 75.5 77t102.5 29q103 0 161 -85q29 -42 42 -118l54 -306q7 -38 7 -64q0 -48 -30.5 -82.5t-91.5 -34.5q-40 0 -68 16l7 17q34 -15 61 -15
q50 0 76 27.5t26 71.5q0 31 -6 63z" />
    <glyph glyph-name="Omacron" unicode="&#x14c;" horiz-adv-x="812" 
d="M406 8q61 0 121 23.5t104 68.5q89 89 89 230q0 70 -29 137.5t-79 119.5q-103 105 -246 105q-61 0 -121 -23.5t-104 -68.5q-89 -89 -89 -230q0 -70 29 -137.5t79 -119.5q103 -105 246 -105zM406 -10q-152 0 -261 111q-53 55 -83 125.5t-30 143.5q0 146 95 243
q97 97 239 97q152 0 261 -111q53 -55 83 -125.5t30 -143.5q0 -146 -95 -243q-97 -97 -239 -97zM216 801h240v-18h-240v18z" />
    <glyph glyph-name="omacron" unicode="&#x14d;" horiz-adv-x="554" 
d="M291 8q84 0 141 56.5t57 139.5q0 91 -65.5 154.5t-155.5 63.5q-84 0 -141 -56.5t-57 -139.5q0 -91 65.5 -154.5t155.5 -63.5zM291 -10q-99 0 -170 68.5t-71 167.5q0 91 62 152.5t156 61.5q99 0 170 -68.5t71 -167.5q0 -91 -62 -152.5t-156 -61.5zM102 571h240v-18h-240
v18z" />
    <glyph glyph-name="Obreve" unicode="&#x14e;" horiz-adv-x="812" 
d="M406 8q61 0 121 23.5t104 68.5q89 89 89 230q0 70 -29 137.5t-79 119.5q-103 105 -246 105q-61 0 -121 -23.5t-104 -68.5q-89 -89 -89 -230q0 -70 29 -137.5t79 -119.5q103 -105 246 -105zM406 -10q-152 0 -261 111q-53 55 -83 125.5t-30 143.5q0 146 95 243
q97 97 239 97q152 0 261 -111q53 -55 83 -125.5t30 -143.5q0 -146 -95 -243q-97 -97 -239 -97zM176 865h18q0 -41 28 -69t69 -28t69 28t28 69h18q0 -47 -34 -81t-81 -34t-81 34t-34 81z" />
    <glyph glyph-name="obreve" unicode="&#x14f;" horiz-adv-x="554" 
d="M291 8q84 0 141 56.5t57 139.5q0 91 -65.5 154.5t-155.5 63.5q-84 0 -141 -56.5t-57 -139.5q0 -91 65.5 -154.5t155.5 -63.5zM291 -10q-99 0 -170 68.5t-71 167.5q0 91 62 152.5t156 61.5q99 0 170 -68.5t71 -167.5q0 -91 -62 -152.5t-156 -61.5zM72 635h18q0 -41 28 -69
t69 -28t69 28t28 69h18q0 -47 -34 -81t-81 -34t-81 34t-34 81z" />
    <glyph glyph-name="Ohungarumlaut" unicode="&#x150;" horiz-adv-x="812" 
d="M406 8q61 0 121 23.5t104 68.5q89 89 89 230q0 70 -29 137.5t-79 119.5q-103 105 -246 105q-61 0 -121 -23.5t-104 -68.5q-89 -89 -89 -230q0 -70 29 -137.5t79 -119.5q103 -105 246 -105zM406 -10q-152 0 -261 111q-53 55 -83 125.5t-30 143.5q0 146 95 243
q97 97 239 97q152 0 261 -111q53 -55 83 -125.5t30 -143.5q0 -146 -95 -243q-97 -97 -239 -97zM356 870h22l-97 -130h-22zM476 870h22l-97 -130h-22z" />
    <glyph glyph-name="ohungarumlaut" unicode="&#x151;" horiz-adv-x="554" 
d="M291 8q84 0 141 56.5t57 139.5q0 91 -65.5 154.5t-155.5 63.5q-84 0 -141 -56.5t-57 -139.5q0 -91 65.5 -154.5t155.5 -63.5zM291 -10q-99 0 -170 68.5t-71 167.5q0 91 62 152.5t156 61.5q99 0 170 -68.5t71 -167.5q0 -91 -62 -152.5t-156 -61.5zM264 640h22l-97 -130
h-22zM384 640h22l-97 -130h-22z" />
    <glyph glyph-name="OE" unicode="&#x152;" horiz-adv-x="1156" 
d="M694 504l-34 196h360l3 -18h-341l49 -282h272l3 -18h-272l65 -364h351l3 -18h-370l-50 282q-13 -118 -88 -195q-97 -97 -239 -97q-152 0 -261 111q-53 55 -83 125.5t-30 143.5q0 146 95 243q97 97 239 97q152 0 261 -111q42 -44 67 -95zM406 8q61 0 121 23.5t104 68.5
q89 89 89 230q0 70 -29 137.5t-79 119.5q-103 105 -246 105q-61 0 -121 -23.5t-104 -68.5q-89 -89 -89 -230q0 -70 29 -137.5t79 -119.5q103 -105 246 -105z" />
    <glyph glyph-name="oe" unicode="&#x153;" horiz-adv-x="947" 
d="M291 -10q-99 0 -170 68.5t-71 167.5q0 91 62 152.5t156 61.5q78 0 140.5 -44.5t87.5 -115.5q16 71 68.5 115.5t124.5 44.5q86 0 145.5 -60.5t67.5 -151.5h-393q0 -97 63 -158.5t155 -61.5q97 0 160 67l13 -14q-67 -71 -173 -71q-78 0 -140 42.5t-85 114.5
q-18 -69 -75.5 -113t-135.5 -44zM291 8q84 0 141 56.5t57 139.5q0 91 -65.5 154.5t-155.5 63.5q-84 0 -141 -56.5t-57 -139.5q0 -91 65.5 -154.5t155.5 -63.5zM689 422q-73 0 -122.5 -50t-56.5 -126h370q-14 77 -66.5 126.5t-124.5 49.5z" />
    <glyph glyph-name="Racute" unicode="&#x154;" horiz-adv-x="630" 
d="M88 400h203q58 0 90 23q51 38 51 107q0 42 -24 79.5t-62 55.5q-34 17 -103 17h-204zM290 382h-14l354 -382h-26l-355 382h-158l68 -382h-19l-123 700h225q75 0 113 -19q43 -22 70 -62.5t27 -88.5q0 -77 -58 -121q-34 -27 -104 -27zM220 870h22l-97 -130h-22z" />
    <glyph glyph-name="racute" unicode="&#x155;" horiz-adv-x="304" 
d="M196 640h22l-97 -130h-22zM244 440l-1 -19q-51 -1 -88.5 -31.5t-54.5 -79.5l54 -310h-19l-76 430h19l16 -90q45 96 150 100z" />
    <glyph glyph-name="Rcommaaccent" unicode="&#x156;" horiz-adv-x="630" 
d="M88 400h203q58 0 90 23q51 38 51 107q0 42 -24 79.5t-62 55.5q-34 17 -103 17h-204zM290 382h-14l354 -382h-26l-355 382h-158l68 -382h-19l-123 700h225q75 0 113 -19q43 -22 70 -62.5t27 -88.5q0 -77 -58 -121q-34 -27 -104 -27zM367 -40h22l-97 -130h-22z" />
    <glyph glyph-name="rcommaaccent" unicode="&#x157;" horiz-adv-x="304" 
d="M142 -40h22l-97 -130h-22zM244 440l-1 -19q-51 -1 -88.5 -31.5t-54.5 -79.5l54 -310h-19l-76 430h19l16 -90q45 96 150 100z" />
    <glyph glyph-name="Rcaron" unicode="&#x158;" horiz-adv-x="630" 
d="M88 400h203q58 0 90 23q51 38 51 107q0 42 -24 79.5t-62 55.5q-34 17 -103 17h-204zM290 382h-14l354 -382h-26l-355 382h-158l68 -382h-19l-123 700h225q75 0 113 -19q43 -22 70 -62.5t27 -88.5q0 -77 -58 -121q-34 -27 -104 -27zM191 750h-31l-125 130h28l113 -118
l72 118h22z" />
    <glyph glyph-name="rcaron" unicode="&#x159;" horiz-adv-x="304" 
d="M147 520h-31l-125 130h28l113 -118l72 118h22zM244 440l-1 -19q-51 -1 -88.5 -31.5t-54.5 -79.5l54 -310h-19l-76 430h19l16 -90q45 96 150 100z" />
    <glyph glyph-name="Sacute" unicode="&#x15a;" horiz-adv-x="542" 
d="M260 870h22l-97 -130h-22zM66 90l14 13q81 -95 208 -95q72 0 125.5 43.5t53.5 116.5q0 132 -166 185q-17 5 -53.5 16t-55.5 17.5t-49 18t-46.5 23.5t-34 29.5t-25 40t-7.5 49.5q0 69 52.5 116t125.5 47q91 0 165 -63l-13 -14q-65 59 -152 59q-63 0 -110.5 -40t-47.5 -105
q0 -25 7 -45t23.5 -35.5t32.5 -26.5t44 -22t46.5 -17t53 -16t51.5 -15q179 -56 179 -204q0 -77 -58.5 -126.5t-140.5 -49.5q-128 0 -222 100z" />
    <glyph glyph-name="sacute" unicode="&#x15b;" horiz-adv-x="431" 
d="M233 640h22l-97 -130h-22zM90 51l13 14q54 -57 139 -57q49 0 81.5 26t32.5 69q0 44 -31 69.5t-75 36t-88.5 21t-75.5 36t-31 69.5q0 46 37.5 75.5t93.5 29.5q66 0 119 -42l-11 -15q-51 39 -107 39q-46 0 -79 -23.5t-33 -63.5q0 -38 31 -59.5t75.5 -31.5t88.5 -21.5
t75 -41t31 -79.5q0 -47 -37.5 -79.5t-99.5 -32.5q-93 0 -149 61z" />
    <glyph glyph-name="Scircumflex" unicode="&#x15c;" horiz-adv-x="542" 
d="M150 870h31l125 -130h-28l-113 118l-72 -118h-22zM66 90l14 13q81 -95 208 -95q72 0 125.5 43.5t53.5 116.5q0 132 -166 185q-17 5 -53.5 16t-55.5 17.5t-49 18t-46.5 23.5t-34 29.5t-25 40t-7.5 49.5q0 69 52.5 116t125.5 47q91 0 165 -63l-13 -14q-65 59 -152 59
q-63 0 -110.5 -40t-47.5 -105q0 -25 7 -45t23.5 -35.5t32.5 -26.5t44 -22t46.5 -17t53 -16t51.5 -15q179 -56 179 -204q0 -77 -58.5 -126.5t-140.5 -49.5q-128 0 -222 100z" />
    <glyph glyph-name="scircumflex" unicode="&#x15d;" horiz-adv-x="431" 
d="M126 640h31l125 -130h-28l-113 118l-72 -118h-22zM90 51l13 14q54 -57 139 -57q49 0 81.5 26t32.5 69q0 44 -31 69.5t-75 36t-88.5 21t-75.5 36t-31 69.5q0 46 37.5 75.5t93.5 29.5q66 0 119 -42l-11 -15q-51 39 -107 39q-46 0 -79 -23.5t-33 -63.5q0 -38 31 -59.5
t75.5 -31.5t88.5 -21.5t75 -41t31 -79.5q0 -47 -37.5 -79.5t-99.5 -32.5q-93 0 -149 61z" />
    <glyph glyph-name="Scedilla" unicode="&#x15e;" horiz-adv-x="542" 
d="M66 90l14 13q81 -95 208 -95q72 0 125.5 43.5t53.5 116.5q0 132 -166 185q-17 5 -53.5 16t-55.5 17.5t-49 18t-46.5 23.5t-34 29.5t-25 40t-7.5 49.5q0 69 52.5 116t125.5 47q91 0 165 -63l-13 -14q-65 59 -152 59q-63 0 -110.5 -40t-47.5 -105q0 -25 7 -45t23.5 -35.5
t32.5 -26.5t44 -22t46.5 -17t53 -16t51.5 -15q179 -56 179 -204q0 -70 -49.5 -118t-122.5 -56l-36 -132h-19l37 130h-9q-128 0 -222 100z" />
    <glyph glyph-name="scedilla" unicode="&#x15f;" horiz-adv-x="431" 
d="M90 51l13 14q54 -57 139 -57q49 0 81.5 26t32.5 69q0 44 -31 69.5t-75 36t-88.5 21t-75.5 36t-31 69.5q0 46 37.5 75.5t93.5 29.5q66 0 119 -42l-11 -15q-51 39 -107 39q-46 0 -79 -23.5t-33 -63.5q0 -38 31 -59.5t75.5 -31.5t88.5 -21.5t75 -41t31 -79.5
q0 -42 -30.5 -73t-83.5 -37l-37 -132h-19l37 130h-4q-93 0 -149 61z" />
    <glyph glyph-name="Scaron" unicode="&#x160;" horiz-adv-x="542" 
d="M214 750h-31l-125 130h28l113 -118l72 118h22zM66 90l14 13q81 -95 208 -95q72 0 125.5 43.5t53.5 116.5q0 132 -166 185q-17 5 -53.5 16t-55.5 17.5t-49 18t-46.5 23.5t-34 29.5t-25 40t-7.5 49.5q0 69 52.5 116t125.5 47q91 0 165 -63l-13 -14q-65 59 -152 59
q-63 0 -110.5 -40t-47.5 -105q0 -25 7 -45t23.5 -35.5t32.5 -26.5t44 -22t46.5 -17t53 -16t51.5 -15q179 -56 179 -204q0 -77 -58.5 -126.5t-140.5 -49.5q-128 0 -222 100z" />
    <glyph glyph-name="scaron" unicode="&#x161;" horiz-adv-x="431" 
d="M170 510h-31l-125 130h28l113 -118l72 118h22zM90 51l13 14q54 -57 139 -57q49 0 81.5 26t32.5 69q0 44 -31 69.5t-75 36t-88.5 21t-75.5 36t-31 69.5q0 46 37.5 75.5t93.5 29.5q66 0 119 -42l-11 -15q-51 39 -107 39q-46 0 -79 -23.5t-33 -63.5q0 -38 31 -59.5
t75.5 -31.5t88.5 -21.5t75 -41t31 -79.5q0 -47 -37.5 -79.5t-99.5 -32.5q-93 0 -149 61z" />
    <glyph glyph-name="Tcommaaccent" unicode="&#x162;" horiz-adv-x="489" 
d="M-60 682l-3 18h459l3 -18h-220l120 -682h-19l-120 682h-220zM287 -40h22l-97 -130h-22z" />
    <glyph glyph-name="tcommaaccent" unicode="&#x163;" horiz-adv-x="419" 
d="M347 -40h22l-97 -130h-22zM405 16l4 -18q-28 -8 -63 -8q-100 0 -143 89q-10 23 -23 92l-42 241h-140l-3 18h140l-24 130h19l24 -130h190l3 -18h-190l42 -241q13 -68 23 -89q39 -74 124 -74q33 0 59 8z" />
    <glyph glyph-name="Tcaron" unicode="&#x164;" horiz-adv-x="489" 
d="M-60 682l-3 18h459l3 -18h-220l120 -682h-19l-120 682h-220zM171 750h-31l-125 130h28l113 -118l72 118h22z" />
    <glyph glyph-name="tcaron" unicode="&#x165;" horiz-adv-x="419" 
d="M286 700h22l-97 -130h-22zM405 16l4 -18q-28 -8 -63 -8q-100 0 -143 89q-10 23 -23 92l-42 241h-140l-3 18h140l-24 130h19l24 -130h190l3 -18h-190l42 -241q13 -68 23 -89q39 -74 124 -74q33 0 59 8z" />
    <glyph glyph-name="Tbar" unicode="&#x166;" horiz-adv-x="489" 
d="M280 0l-67 382h-160l-3 18h160l-50 282h-220l-3 18h459l3 -18h-220l50 -282h160l3 -18h-160l67 -382h-19z" />
    <glyph glyph-name="tbar" unicode="&#x167;" horiz-adv-x="419" 
d="M405 16l4 -18q-28 -8 -63 -8q-100 0 -143 89q-10 23 -23 92l-10 56h-140l-3 18h140l-29 167h-140l-3 18h140l-24 130h19l24 -130h190l3 -18h-190l29 -167h190l3 -18h-190l10 -56q13 -68 23 -89q39 -74 124 -74q33 0 59 8z" />
    <glyph glyph-name="Utilde" unicode="&#x168;" horiz-adv-x="727" 
d="M89 262l-77 438h19l77 -435q46 -257 277 -257q96 0 161.5 58.5t65.5 148.5q0 26 -7 70l-73 415h19l72 -412q9 -49 9 -75q0 -96 -72 -159.5t-175 -63.5q-248 0 -296 272zM391 838l19 -3q-9 -72 -67 -72q-28 0 -75.5 29.5t-70.5 29.5q-41 0 -48 -57l-19 3q9 72 67 72
q28 0 75.5 -29.5t70.5 -29.5q41 0 48 57z" />
    <glyph glyph-name="utilde" unicode="&#x169;" horiz-adv-x="553" 
d="M337 608l19 -3q-9 -72 -67 -72q-28 0 -75.5 29.5t-70.5 29.5q-41 0 -48 -57l-19 3q9 72 67 72q28 0 75.5 -29.5t70.5 -29.5q41 0 48 57zM49 430h19l42 -237q12 -72 40 -111q53 -74 140 -74q50 0 96.5 31t73.5 84l-54 307h19l76 -430h-19l-17 96q-28 -47 -75.5 -76.5
t-99.5 -29.5q-101 0 -158 84q-27 39 -41 119z" />
    <glyph glyph-name="Umacron" unicode="&#x16a;" horiz-adv-x="727" 
d="M89 262l-77 438h19l77 -435q46 -257 277 -257q96 0 161.5 58.5t65.5 148.5q0 26 -7 70l-73 415h19l72 -412q9 -49 9 -75q0 -96 -72 -159.5t-175 -63.5q-248 0 -296 272zM145 801h240v-18h-240v18z" />
    <glyph glyph-name="umacron" unicode="&#x16b;" horiz-adv-x="553" 
d="M98 571h240v-18h-240v18zM49 430h19l42 -237q12 -72 40 -111q53 -74 140 -74q50 0 96.5 31t73.5 84l-54 307h19l76 -430h-19l-17 96q-28 -47 -75.5 -76.5t-99.5 -29.5q-101 0 -158 84q-27 39 -41 119z" />
    <glyph glyph-name="Ubreve" unicode="&#x16c;" horiz-adv-x="727" 
d="M89 262l-77 438h19l77 -435q46 -257 277 -257q96 0 161.5 58.5t65.5 148.5q0 26 -7 70l-73 415h19l72 -412q9 -49 9 -75q0 -96 -72 -159.5t-175 -63.5q-248 0 -296 272zM151 865h18q0 -41 28.5 -69t68.5 -28t68.5 28t28.5 69h18q0 -47 -34 -81t-81 -34t-81 34t-34 81z
" />
    <glyph glyph-name="ubreve" unicode="&#x16d;" horiz-adv-x="553" 
d="M310 635h18q0 -47 -34 -81t-81 -34t-81 34t-34 81h18q0 -41 28 -69t69 -28t69 28t28 69zM49 430h19l42 -237q12 -72 40 -111q53 -74 140 -74q50 0 96.5 31t73.5 84l-54 307h19l76 -430h-19l-17 96q-28 -47 -75.5 -76.5t-99.5 -29.5q-101 0 -158 84q-27 39 -41 119z" />
    <glyph glyph-name="Uring" unicode="&#x16e;" horiz-adv-x="727" 
d="M89 262l-77 438h19l77 -435q46 -257 277 -257q96 0 161.5 58.5t65.5 148.5q0 26 -7 70l-73 415h19l72 -412q9 -49 9 -75q0 -96 -72 -159.5t-175 -63.5q-248 0 -296 272zM353 820q0 -33 -23.5 -56.5t-56.5 -23.5t-56.5 23.5t-23.5 56.5t23.5 56.5t56.5 23.5t56.5 -23.5
t23.5 -56.5zM335 820q0 26 -18.5 44t-43.5 18t-43.5 -18t-18.5 -44t18.5 -44t43.5 -18t43.5 18t18.5 44z" />
    <glyph glyph-name="uring" unicode="&#x16f;" horiz-adv-x="553" 
d="M139 590q0 33 23.5 56.5t56.5 23.5t56.5 -23.5t23.5 -56.5t-23.5 -56.5t-56.5 -23.5t-56.5 23.5t-23.5 56.5zM157 590q0 -26 18.5 -44t43.5 -18t43.5 18t18.5 44t-18.5 44t-43.5 18t-43.5 -18t-18.5 -44zM49 430h19l42 -237q12 -72 40 -111q53 -74 140 -74q50 0 96.5 31
t73.5 84l-54 307h19l76 -430h-19l-17 96q-28 -47 -75.5 -76.5t-99.5 -29.5q-101 0 -158 84q-27 39 -41 119z" />
    <glyph glyph-name="Uhungarumlaut" unicode="&#x170;" horiz-adv-x="727" 
d="M89 262l-77 438h19l77 -435q46 -257 277 -257q96 0 161.5 58.5t65.5 148.5q0 26 -7 70l-73 415h19l72 -412q9 -49 9 -75q0 -96 -72 -159.5t-175 -63.5q-248 0 -296 272zM292 870h22l-97 -130h-22zM412 870h22l-97 -130h-22z" />
    <glyph glyph-name="uhungarumlaut" unicode="&#x171;" horiz-adv-x="553" 
d="M251 640h22l-97 -130h-22zM371 640h22l-97 -130h-22zM49 430h19l42 -237q12 -72 40 -111q53 -74 140 -74q50 0 96.5 31t73.5 84l-54 307h19l76 -430h-19l-17 96q-28 -47 -75.5 -76.5t-99.5 -29.5q-101 0 -158 84q-27 39 -41 119z" />
    <glyph glyph-name="Uogonek" unicode="&#x172;" horiz-adv-x="727" 
d="M89 262l-77 438h19l77 -435q46 -257 277 -257q96 0 161.5 58.5t65.5 148.5q0 26 -7 70l-73 415h19l72 -412q9 -49 9 -75q0 -70 -40.5 -125t-107.5 -80q-37 -51 -37 -113q0 -43 22 -70t61 -27q26 0 42 8l5 -17q-18 -9 -45 -9q-50 0 -77.5 31.5t-27.5 81.5q0 53 31 107
q-38 -10 -73 -10q-248 0 -296 272z" />
    <glyph glyph-name="uogonek" unicode="&#x173;" horiz-adv-x="553" 
d="M49 430h19l42 -237q12 -72 40 -111q53 -74 140 -74q50 0 96.5 31t73.5 84l-54 307h19l76 -430q-32 -51 -32 -105q0 -43 22 -70t61 -27q26 0 42 8l5 -17q-18 -9 -45 -9q-50 0 -77.5 31.5t-27.5 81.5q0 56 32 108l-16 95q-28 -47 -75.5 -76.5t-99.5 -29.5q-101 0 -158 84
q-27 39 -41 119z" />
    <glyph glyph-name="Wcircumflex" unicode="&#x174;" horiz-adv-x="931" 
d="M389 645l-88 -645h-9l-350 700h22l324 -647l88 647h9l318 -648l96 648h20l-104 -700h-9zM350 870h31l125 -130h-28l-113 118l-72 -118h-22z" />
    <glyph glyph-name="wcircumflex" unicode="&#x175;" horiz-adv-x="728" 
d="M340 385l-81 -385h-9l-250 430h23l225 -387l80 387h9l220 -389l91 389h20l-101 -430h-9zM283 640h31l125 -130h-28l-113 118l-72 -118h-22z" />
    <glyph glyph-name="Ycircumflex" unicode="&#x176;" horiz-adv-x="525" 
d="M313 0h-19l-60 344l-299 356h26l280 -333l162 333h22l-172 -355zM140 870h31l125 -130h-28l-113 118l-72 -118h-22z" />
    <glyph glyph-name="ycircumflex" unicode="&#x177;" horiz-adv-x="475" 
d="M394 430h21l-198 -670h-22l86 289l-286 381h24l269 -357zM169 640h31l125 -130h-28l-113 118l-72 -118h-22z" />
    <glyph glyph-name="Ydieresis" unicode="&#x178;" horiz-adv-x="525" 
d="M313 0h-19l-60 344l-299 356h26l280 -333l162 333h22l-172 -355zM76 800q0 13 8.5 21.5t21.5 8.5t21.5 -8.5t8.5 -21.5t-8.5 -21.5t-21.5 -8.5t-21.5 8.5t-8.5 21.5zM216 800q0 13 8.5 21.5t21.5 8.5t21.5 -8.5t8.5 -21.5t-8.5 -21.5t-21.5 -8.5t-21.5 8.5t-8.5 21.5z
" />
    <glyph glyph-name="Zacute" unicode="&#x179;" horiz-adv-x="598" 
d="M88 0l-2 10l334 672h-422l-3 18h449l2 -10l-334 -672h472l4 -18h-500zM270 870h22l-97 -130h-22z" />
    <glyph glyph-name="zacute" unicode="&#x17a;" horiz-adv-x="450" 
d="M100 18h346l4 -18h-375l-2 10l253 402h-303l-3 18h334l2 -10zM232 640h22l-97 -130h-22z" />
    <glyph glyph-name="Zdotaccent" unicode="&#x17b;" horiz-adv-x="598" 
d="M88 0l-2 10l334 672h-422l-3 18h449l2 -10l-334 -672h472l4 -18h-500zM231 820q0 -13 -8.5 -21.5t-21.5 -8.5t-21.5 8.5t-8.5 21.5t8.5 21.5t21.5 8.5t21.5 -8.5t8.5 -21.5z" />
    <glyph glyph-name="zdotaccent" unicode="&#x17c;" horiz-adv-x="450" 
d="M100 18h346l4 -18h-375l-2 10l253 402h-303l-3 18h334l2 -10zM135 590q0 13 8.5 21.5t21.5 8.5t21.5 -8.5t8.5 -21.5t-8.5 -21.5t-21.5 -8.5t-21.5 8.5t-8.5 21.5z" />
    <glyph glyph-name="Zcaron" unicode="&#x17d;" horiz-adv-x="598" 
d="M88 0l-2 10l334 672h-422l-3 18h449l2 -10l-334 -672h472l4 -18h-500zM240 750h-31l-125 130h28l113 -118l72 118h22z" />
    <glyph glyph-name="zcaron" unicode="&#x17e;" horiz-adv-x="450" 
d="M100 18h346l4 -18h-375l-2 10l253 402h-303l-3 18h334l2 -10zM198 510h-31l-125 130h28l113 -118l72 118h22z" />
    <glyph glyph-name="longs" unicode="&#x17f;" horiz-adv-x="336" 
d="M65 506l89 -506h-19l-89 506q-12 65 -12 92q0 55 38 88.5t96 33.5q49 0 83 -19l-8 -17q-35 18 -75 18q-51 0 -83 -29.5t-32 -74.5q0 -20 12 -92z" />
    <glyph glyph-name="uni018F" unicode="&#x18f;" horiz-adv-x="765" 
d="M373 8q122 0 206.5 85.5t93.5 217.5h-619q19 -133 107.5 -218t211.5 -85zM32 329h641q0 160 -104 261.5t-254 101.5q-169 0 -270 -117l-13 13q106 122 284 122q158 0 267.5 -106.5t109.5 -271.5q0 -145 -91.5 -243.5t-228.5 -98.5q-138 0 -232.5 96.5t-108.5 242.5z" />
    <glyph glyph-name="florin" unicode="&#x192;" horiz-adv-x="522" 
d="M243 559q-19 -86 -32 -178h166l3 -18h-172q-8 -51 -19.5 -143.5t-23 -170.5t-27.5 -153q-16 -74 -60 -111q-43 -35 -102 -35q-43 0 -82 21l9 17q34 -20 73 -20q51 0 88 31q40 32 55 102q16 75 27.5 149.5t24 172t18.5 140.5h-134l-3 18h139q17 111 33 183q16 74 60 111
q43 35 102 35q43 0 82 -21l-9 -17q-34 20 -73 20q-51 0 -88 -31q-40 -32 -55 -102z" />
    <glyph glyph-name="uni01B5" unicode="&#x1b5;" horiz-adv-x="598" 
d="M445 382h-152l-181 -364h472l4 -18h-500l-2 10l185 372h-145l-3 18h157l140 282h-422l-3 18h449l2 -10l-144 -290h140z" />
    <glyph glyph-name="uni01B6" unicode="&#x1b6;" horiz-adv-x="450" 
d="M92 250h132l102 162h-303l-3 18h334l2 -10l-108 -170h124l3 -18h-139l-136 -214h346l4 -18h-375l-2 10l139 222h-117z" />
    <glyph glyph-name="Aringacute" unicode="&#x1fa;" horiz-adv-x="660" 
d="M146 820q0 33 23.5 56.5t56.5 23.5t56.5 -23.5t23.5 -56.5t-23.5 -56.5t-56.5 -23.5t-56.5 23.5t-23.5 56.5zM164 820q0 -26 18 -44t44 -18t44 18t18 44t-18 44t-44 18t-44 -18t-18 -44zM236 1060h22l-97 -130h-22zM141 239l-61 -239h-20l177 700h9l424 -700h-23
l-145 239h-361zM491 257l-243 402l-102 -402h345z" />
    <glyph glyph-name="aringacute" unicode="&#x1fb;" horiz-adv-x="566" 
d="M177 590q0 33 23.5 56.5t56.5 23.5t56.5 -23.5t23.5 -56.5t-23.5 -56.5t-56.5 -23.5t-56.5 23.5t-23.5 56.5zM195 590q0 -26 18.5 -44t43.5 -18t43.5 18t18.5 44t-18.5 44t-43.5 18t-43.5 -18t-18.5 -44zM267 830h22l-97 -130h-22zM514 0h-19l-15 89q-30 -43 -78.5 -71
t-108.5 -28q-102 0 -172.5 68t-70.5 168q0 91 61.5 152.5t154.5 61.5q48 0 91.5 -20.5t72.5 -52.5l-11 63h19zM266 422q-85 0 -140.5 -56t-55.5 -140q0 -92 65 -155t158 -63q61 0 107.5 29t74.5 73l-41 229q-30 38 -74.5 60.5t-93.5 22.5z" />
    <glyph glyph-name="AEacute" unicode="&#x1fc;" horiz-adv-x="865" 
d="M458 870h22l-97 -130h-22zM171 239l-108 -239h-23l315 700h374l3 -18h-341l49 -282h272l3 -18h-272l65 -364h351l3 -18h-370l-43 239h-278zM371 687l-192 -430h267z" />
    <glyph glyph-name="aeacute" unicode="&#x1fd;" horiz-adv-x="916" 
d="M498 640h22l-97 -130h-22zM514 0h-19l-15 89q-30 -43 -78.5 -71t-108.5 -28q-102 0 -172.5 68t-70.5 168q0 91 61.5 152.5t154.5 61.5q48 0 91.5 -20.5t72.5 -52.5l-11 63h19l27 -154q14 72 67 118t126 46q86 0 145.5 -60.5t67.5 -151.5h-393q0 -97 63 -158.5t155 -61.5
q97 0 160 67l13 -14q-67 -71 -173 -71q-63 0 -115 27.5t-84 76.5zM266 422q-85 0 -140.5 -56t-55.5 -140q0 -92 65 -155t158 -63q61 0 107.5 29t74.5 73l-41 229q-30 38 -74.5 60.5t-93.5 22.5zM658 422q-73 0 -122.5 -50t-56.5 -126h370q-14 77 -66.5 126.5t-124.5 49.5z
" />
    <glyph glyph-name="Oslashacute" unicode="&#x1fe;" horiz-adv-x="812" 
d="M381 870h22l-97 -130h-22zM406 -10q-82 0 -157 36l-16 -36h-21l20 45q-50 27 -87 66q-53 55 -83 125.5t-30 143.5q0 146 95 243q97 97 239 97q83 0 159 -38l18 38h21l-22 -47q46 -25 85 -64q53 -55 83 -125.5t30 -143.5q0 -146 -95 -243q-97 -97 -239 -97zM160 113
q34 -36 80 -61l278 603q-74 37 -152 37q-61 0 -121 -23.5t-104 -68.5q-89 -89 -89 -230q0 -70 29 -137.5t79 -119.5zM406 8q61 0 121 23.5t104 68.5q89 89 89 230q0 70 -29 137.5t-79 119.5q-34 34 -78 59l-277 -603q72 -35 149 -35z" />
    <glyph glyph-name="oslashacute" unicode="&#x1ff;" horiz-adv-x="554" 
d="M310 640h22l-97 -130h-22zM291 -10q-49 0 -95 19l-9 -19h-21l12 27q-58 30 -93 85.5t-35 123.5q0 91 62 152.5t156 61.5q50 0 96 -20l9 20h21l-13 -28q58 -30 93 -85.5t35 -122.5q0 -91 -62 -152.5t-156 -61.5zM70 226q0 -62 32 -112.5t84 -79.5l170 369q-43 19 -88 19
q-84 0 -141 -56.5t-57 -139.5zM291 8q84 0 141 56.5t57 139.5q0 61 -32 112t-84 79l-169 -369q40 -18 87 -18z" />
    <glyph glyph-name="Scommaaccent" unicode="&#x218;" horiz-adv-x="542" 
d="M317 -40h22l-97 -130h-22zM66 90l14 13q81 -95 208 -95q72 0 125.5 43.5t53.5 116.5q0 132 -166 185q-17 5 -53.5 16t-55.5 17.5t-49 18t-46.5 23.5t-34 29.5t-25 40t-7.5 49.5q0 69 52.5 116t125.5 47q91 0 165 -63l-13 -14q-65 59 -152 59q-63 0 -110.5 -40t-47.5 -105
q0 -25 7 -45t23.5 -35.5t32.5 -26.5t44 -22t46.5 -17t53 -16t51.5 -15q179 -56 179 -204q0 -77 -58.5 -126.5t-140.5 -49.5q-128 0 -222 100z" />
    <glyph glyph-name="scommaaccent" unicode="&#x219;" horiz-adv-x="431" 
d="M257 -40h22l-97 -130h-22zM90 51l13 14q54 -57 139 -57q49 0 81.5 26t32.5 69q0 44 -31 69.5t-75 36t-88.5 21t-75.5 36t-31 69.5q0 46 37.5 75.5t93.5 29.5q66 0 119 -42l-11 -15q-51 39 -107 39q-46 0 -79 -23.5t-33 -63.5q0 -38 31 -59.5t75.5 -31.5t88.5 -21.5
t75 -41t31 -79.5q0 -47 -37.5 -79.5t-99.5 -32.5q-93 0 -149 61z" />
    <glyph glyph-name="uni0237" unicode="&#x237;" horiz-adv-x="242" 
d="M51 -244l5 17q17 -5 37 -5q49 0 74 27.5t25 71.5q0 31 -6 63l-88 500h19l88 -499q7 -38 7 -64q0 -49 -29 -83t-90 -34q-24 0 -42 6z" />
    <glyph glyph-name="uni0259" unicode="&#x259;" horiz-adv-x="508" 
d="M263 8q73 0 122.5 50t56.5 126h-370q14 -77 66.5 -126.5t124.5 -49.5zM65 355l-13 14q67 71 173 71q100 0 169 -66t69 -170q0 -91 -57 -152.5t-143 -61.5t-145.5 60.5t-67.5 151.5h393q0 97 -63 158.5t-155 61.5q-97 0 -160 -67z" />
    <glyph glyph-name="circumflex" unicode="&#x2c6;" horiz-adv-x="375" 
d="M149 640h31l125 -130h-28l-113 118l-72 -118h-22z" />
    <glyph glyph-name="caron" unicode="&#x2c7;" horiz-adv-x="375" 
d="M226 520h-31l-125 130h28l113 -118l72 118h22z" />
    <glyph glyph-name="breve" unicode="&#x2d8;" horiz-adv-x="370" 
d="M282 635h18q0 -47 -34 -81t-81 -34t-81 34t-34 81h18q0 -41 28 -69t69 -28t69 28t28 69z" />
    <glyph glyph-name="dotaccent" unicode="&#x2d9;" horiz-adv-x="200" 
d="M70 590q0 13 8.5 21.5t21.5 8.5t21.5 -8.5t8.5 -21.5t-8.5 -21.5t-21.5 -8.5t-21.5 8.5t-8.5 21.5z" />
    <glyph glyph-name="ring" unicode="&#x2da;" horiz-adv-x="300" 
d="M70 590q0 33 23.5 56.5t56.5 23.5t56.5 -23.5t23.5 -56.5t-23.5 -56.5t-56.5 -23.5t-56.5 23.5t-23.5 56.5zM88 590q0 -26 18 -44t44 -18t44 18t18 44t-18 44t-44 18t-44 -18t-18 -44z" />
    <glyph glyph-name="ogonek" unicode="&#x2db;" horiz-adv-x="290" 
d="M108 10h21q-10 -11 -24.5 -45t-14.5 -70q0 -43 22 -70t61 -27q26 0 42 8l5 -17q-18 -9 -45 -9q-50 0 -77.5 31.5t-27.5 81.5q0 25 9 53.5t16.5 42.5t12.5 21z" />
    <glyph glyph-name="tilde" unicode="&#x2dc;" horiz-adv-x="420" 
d="M331 608l19 -3q-9 -72 -67 -72q-28 0 -75.5 29.5t-70.5 29.5q-41 0 -48 -57l-19 3q9 72 67 72q28 0 75.5 -29.5t70.5 -29.5q41 0 48 57z" />
    <glyph glyph-name="hungarumlaut" unicode="&#x2dd;" horiz-adv-x="379" 
d="M167 640h22l-97 -130h-22zM287 640h22l-97 -130h-22z" />
    <glyph glyph-name="pi" unicode="&#x3c0;" horiz-adv-x="504" 
d="M179 0l-72 411q-64 -2 -85 -54l-17 9q15 38 57 55q26 9 66 9h305l3 -18h-100l50 -284q8 -46 23 -71q19 -32 65 -50l-6 -17q-49 15 -75 56q-16 27 -26 81l-50 285h-191l72 -412h-19z" />
    <glyph glyph-name="Wgrave" unicode="&#x1e80;" horiz-adv-x="931" 
d="M389 645l-88 -645h-9l-350 700h22l324 -647l88 647h9l318 -648l96 648h20l-104 -700h-9zM266 870h22l97 -130h-22z" />
    <glyph glyph-name="wgrave" unicode="&#x1e81;" horiz-adv-x="728" 
d="M340 385l-81 -385h-9l-250 430h23l225 -387l80 387h9l220 -389l91 389h20l-101 -430h-9zM214 640h22l97 -130h-22z" />
    <glyph glyph-name="Wacute" unicode="&#x1e82;" horiz-adv-x="931" 
d="M389 645l-88 -645h-9l-350 700h22l324 -647l88 647h9l318 -648l96 648h20l-104 -700h-9zM453 870h22l-97 -130h-22z" />
    <glyph glyph-name="wacute" unicode="&#x1e83;" horiz-adv-x="728" 
d="M340 385l-81 -385h-9l-250 430h23l225 -387l80 387h9l220 -389l91 389h20l-101 -430h-9zM398 640h22l-97 -130h-22z" />
    <glyph glyph-name="Wdieresis" unicode="&#x1e84;" horiz-adv-x="931" 
d="M389 645l-88 -645h-9l-350 700h22l324 -647l88 647h9l318 -648l96 648h20l-104 -700h-9zM467 800q0 -13 -8.5 -21.5t-21.5 -8.5t-21.5 8.5t-8.5 21.5t8.5 21.5t21.5 8.5t21.5 -8.5t8.5 -21.5zM327 800q0 -13 -8.5 -21.5t-21.5 -8.5t-21.5 8.5t-8.5 21.5t8.5 21.5
t21.5 8.5t21.5 -8.5t8.5 -21.5z" />
    <glyph glyph-name="wdieresis" unicode="&#x1e85;" horiz-adv-x="728" 
d="M340 385l-81 -385h-9l-250 430h23l225 -387l80 387h9l220 -389l91 389h20l-101 -430h-9zM408 570q0 -13 -8.5 -21.5t-21.5 -8.5t-21.5 8.5t-8.5 21.5t8.5 21.5t21.5 8.5t21.5 -8.5t8.5 -21.5zM268 570q0 -13 -8.5 -21.5t-21.5 -8.5t-21.5 8.5t-8.5 21.5t8.5 21.5
t21.5 8.5t21.5 -8.5t8.5 -21.5z" />
    <glyph glyph-name="uni1E8A" unicode="&#x1e8a;" horiz-adv-x="604" 
d="M231 820q0 -13 -8.5 -21.5t-21.5 -8.5t-21.5 8.5t-8.5 21.5t8.5 21.5t21.5 8.5t21.5 -8.5t8.5 -21.5zM276 365l-182 -365h-22l190 382l-267 318h26l250 -298l148 298h23l-156 -315l323 -385h-26z" />
    <glyph glyph-name="uni1E8B" unicode="&#x1e8b;" horiz-adv-x="459" 
d="M232 221l-129 -221h-23l136 236l-176 194h26l161 -177l102 177h24l-111 -191l217 -239h-27zM198 590q0 -13 -8.5 -21.5t-21.5 -8.5t-21.5 8.5t-8.5 21.5t8.5 21.5t21.5 8.5t21.5 -8.5t8.5 -21.5z" />
    <glyph glyph-name="Ygrave" unicode="&#x1ef2;" horiz-adv-x="525" 
d="M313 0h-19l-60 344l-299 356h26l280 -333l162 333h22l-172 -355zM78 870h22l97 -130h-22z" />
    <glyph glyph-name="ygrave" unicode="&#x1ef3;" horiz-adv-x="475" 
d="M394 430h21l-198 -670h-22l86 289l-286 381h24l269 -357zM93 640h22l97 -130h-22z" />
    <glyph glyph-name="endash" unicode="&#x2013;" horiz-adv-x="440" 
d="M21 258h390l3 -18h-390z" />
    <glyph glyph-name="emdash" unicode="&#x2014;" horiz-adv-x="740" 
d="M21 258h690l3 -18h-690z" />
    <glyph glyph-name="quoteleft" unicode="&#x2018;" horiz-adv-x="226" 
d="M25 480l40 220h20l-40 -220h-20z" />
    <glyph glyph-name="quoteright" unicode="&#x2019;" horiz-adv-x="226" 
d="M25 480l40 220h20l-40 -220h-20z" />
    <glyph glyph-name="quotesinglbase" unicode="&#x201a;" horiz-adv-x="226" 
d="M123 -140l40 220h20l-40 -220h-20z" />
    <glyph glyph-name="quotedblleft" unicode="&#x201c;" horiz-adv-x="406" 
d="M25 480l40 220h20l-40 -220h-20zM205 480l40 220h20l-40 -220h-20z" />
    <glyph glyph-name="quotedblright" unicode="&#x201d;" horiz-adv-x="406" 
d="M25 480l40 220h20l-40 -220h-20zM205 480l40 220h20l-40 -220h-20z" />
    <glyph glyph-name="quotedblbase" unicode="&#x201e;" horiz-adv-x="406" 
d="M123 -140l40 220h20l-40 -220h-20zM303 -140l40 220h20l-40 -220h-20z" />
    <glyph glyph-name="dagger" unicode="&#x2020;" horiz-adv-x="504" 
d="M320 -200l-106 597h-187l-3 18h187l-50 285h19l50 -285h187l3 -18h-187l106 -597h-19z" />
    <glyph glyph-name="daggerdbl" unicode="&#x2021;" horiz-adv-x="504" 
d="M64 190h187l-37 207h-187l-3 18h187l-50 285h19l50 -285h187l3 -18h-187l37 -207h187l3 -18h-187l66 -372h-19l-66 372h-187z" />
    <glyph glyph-name="bullet" unicode="&#x2022;" horiz-adv-x="480" 
d="M80 215q0 66 47 113t113 47t113 -47t47 -113t-47 -113t-113 -47t-113 47t-47 113z" />
    <glyph glyph-name="ellipsis" unicode="&#x2026;" horiz-adv-x="710" 
d="M125 25q0 14 10.5 24.5t24.5 10.5t24.5 -10.5t10.5 -24.5t-10.5 -24.5t-24.5 -10.5t-24.5 10.5t-10.5 24.5zM345 25q0 14 10.5 24.5t24.5 10.5t24.5 -10.5t10.5 -24.5t-10.5 -24.5t-24.5 -10.5t-24.5 10.5t-10.5 24.5zM565 25q0 14 10.5 24.5t24.5 10.5t24.5 -10.5
t10.5 -24.5t-10.5 -24.5t-24.5 -10.5t-24.5 10.5t-10.5 24.5z" />
    <glyph glyph-name="perthousand" unicode="&#x2030;" horiz-adv-x="1094" 
d="M1045 143q0 -64 -45.5 -108.5t-111.5 -44.5q-55 0 -97.5 29t-61.5 79q-14 -48 -55 -78t-94 -30q-74 0 -123 50t-49 127q0 64 45.5 108.5t111.5 44.5q55 0 97.5 -29.5t60.5 -78.5q14 48 55.5 78t94.5 30q74 0 123 -50t49 -127zM345 533q0 -64 -45.5 -108.5t-111.5 -44.5
q-74 0 -123 50t-49 127q0 64 45.5 108.5t111.5 44.5q74 0 123 -50t49 -127zM36 557q0 -68 43.5 -113.5t108.5 -45.5q57 0 97 39.5t40 95.5q0 68 -43.5 113.5t-108.5 45.5q-57 0 -97 -39.5t-40 -95.5zM428 167q0 -68 43.5 -113.5t108.5 -45.5q57 0 97 39.5t40 95.5
q0 68 -43.5 113.5t-108.5 45.5q-57 0 -97 -39.5t-40 -95.5zM736 167q0 -68 43.5 -113.5t108.5 -45.5q57 0 97 39.5t40 95.5q0 68 -43.5 113.5t-108.5 45.5q-57 0 -97 -39.5t-40 -95.5zM503 700h21l-284 -700h-22z" />
    <glyph glyph-name="guilsinglleft" unicode="&#x2039;" horiz-adv-x="315" 
d="M285 50h-28l-178 175l-2 10l120 175h24l-121 -178z" />
    <glyph glyph-name="guilsinglright" unicode="&#x203a;" horiz-adv-x="315" 
d="M30 410h28l178 -175l2 -10l-120 -175h-24l121 178z" />
    <glyph glyph-name="fraction" unicode="&#x2044;" horiz-adv-x="316" 
d="M290 700h21l-284 -700h-22z" />
    <glyph glyph-name="uni2070" unicode="&#x2070;" horiz-adv-x="315" 
d="M128 348q42 0 64.5 31.5t22.5 84.5q0 54 -14 104.5t-45 87t-74 36.5q-42 0 -64.5 -31.5t-22.5 -84.5q0 -54 14 -104.5t45 -87t74 -36.5zM128 330q-51 0 -87.5 40t-51 93.5t-14.5 112.5q0 62 27.5 98t79.5 36q51 0 87.5 -40t51 -93.5t14.5 -112.5q0 -62 -27.5 -98
t-79.5 -36z" />
    <glyph glyph-name="uni2074" unicode="&#x2074;" horiz-adv-x="303" 
d="M177 340l-17 95h-188l-2 10l154 255h10l44 -247h72l3 -18h-72l17 -95h-21zM157 453l-37 204l-123 -204h160z" />
    <glyph glyph-name="uni2075" unicode="&#x2075;" horiz-adv-x="293" 
d="M-1 521h-9v179h178l3 -18h-161v-130q34 23 75 23q53 0 90.5 -38t37.5 -91q0 -50 -33.5 -83t-86.5 -33q-64 0 -102 46l14 13q38 -41 88 -41q43 0 71.5 27.5t28.5 70.5q0 46 -31.5 78.5t-78.5 32.5q-45 0 -84 -36z" />
    <glyph glyph-name="uni2076" unicode="&#x2076;" horiz-adv-x="291" 
d="M97 571q55 0 92 -36.5t37 -89.5q0 -48 -34 -81.5t-84 -33.5q-56 0 -92 34.5t-36 89.5q0 30 14 63l84 183h22l-65 -142q34 13 62 13zM22 529l-7 -14q-15 -30 -15 -61q0 -47 31 -76.5t77 -29.5q42 0 70 28t28 68q0 46 -31.5 77.5t-77.5 31.5q-44 0 -75 -24z" />
    <glyph glyph-name="uni2077" unicode="&#x2077;" horiz-adv-x="252" 
d="M-52 682l-3 18h215l2 -11l-102 -349h-19l100 342h-193z" />
    <glyph glyph-name="uni2078" unicode="&#x2078;" horiz-adv-x="271" 
d="M-20 446q0 62 58 92q-28 10 -45.5 33.5t-17.5 54.5q0 34 25.5 59t63.5 25q41 0 69.5 -27.5t28.5 -67.5q0 -46 -38 -69q38 -11 62.5 -41.5t24.5 -70.5q0 -43 -32 -73.5t-79 -30.5q-52 0 -86 33t-34 83zM0 446q0 -42 28 -70t72 -28q39 0 65 25t26 61q0 41 -29 69.5
t-71 28.5q-37 0 -64 -25.5t-27 -60.5zM142 615q0 32 -23.5 54.5t-54.5 22.5q-29 0 -49 -20t-20 -46q0 -32 23 -54t54 -22q29 0 49.5 19.5t20.5 45.5z" />
    <glyph glyph-name="uni2079" unicode="&#x2079;" horiz-adv-x="286" 
d="M85 469q-55 0 -92 36.5t-37 89.5q0 48 34 81.5t84 33.5q56 0 92 -34.5t36 -89.5q0 -30 -14 -63l-84 -183h-22l65 142q-34 -13 -62 -13zM160 511l7 14q15 30 15 61q0 47 -31 76.5t-77 29.5q-42 0 -70 -28t-28 -68q0 -46 31.5 -77.5t77.5 -31.5q44 0 75 24z" />
    <glyph glyph-name="uni2080" unicode="&#x2080;" horiz-adv-x="315" 
d="M188 8q42 0 64.5 31.5t22.5 84.5q0 54 -14 104.5t-45 87t-74 36.5q-42 0 -64.5 -31.5t-22.5 -84.5q0 -54 14 -104.5t45 -87t74 -36.5zM188 -10q-51 0 -87.5 40t-51 93.5t-14.5 112.5q0 62 27.5 98t79.5 36q51 0 87.5 -40t51 -93.5t14.5 -112.5q0 -62 -27.5 -98t-79.5 -36
z" />
    <glyph glyph-name="uni2081" unicode="&#x2081;" horiz-adv-x="202" 
d="M102 333l-78 -49l-4 19l88 57h10l64 -360h-21z" />
    <glyph glyph-name="uni2082" unicode="&#x2082;" horiz-adv-x="268" 
d="M36 296l-16 8q29 66 95 66q47 0 78 -33t31 -79q0 -41 -35 -91l-105 -149h185l4 -18h-214l-2 11l115 166q32 46 32 81q0 37 -26 65.5t-63 28.5q-54 0 -79 -56z" />
    <glyph glyph-name="uni2083" unicode="&#x2083;" horiz-adv-x="285" 
d="M94 207l-2 11l90 124h-164l-3 18h192l2 -11l-85 -117q10 2 22 2q53 0 91 -37.5t38 -91.5q0 -51 -32.5 -83t-85.5 -32q-70 0 -109 53l15 12q35 -47 94 -47q44 0 71 27.5t27 69.5q0 46 -32.5 78.5t-80.5 32.5q-24 0 -48 -9z" />
    <glyph glyph-name="uni2084" unicode="&#x2084;" horiz-adv-x="303" 
d="M237 0l-17 95h-188l-2 10l154 255h10l44 -247h72l3 -18h-72l17 -95h-21zM217 113l-37 204l-123 -204h160z" />
    <glyph glyph-name="uni2085" unicode="&#x2085;" horiz-adv-x="293" 
d="M59 181h-9v179h178l3 -18h-161v-130q34 23 75 23q53 0 90.5 -38t37.5 -91q0 -50 -33.5 -83t-86.5 -33q-64 0 -102 46l14 13q38 -41 88 -41q43 0 71.5 27.5t28.5 70.5q0 46 -31.5 78.5t-78.5 32.5q-45 0 -84 -36z" />
    <glyph glyph-name="uni2086" unicode="&#x2086;" horiz-adv-x="291" 
d="M157 231q55 0 92 -36.5t37 -89.5q0 -48 -34 -81.5t-84 -33.5q-56 0 -92 34.5t-36 89.5q0 30 14 63l84 183h22l-65 -142q34 13 62 13zM82 189l-7 -14q-15 -30 -15 -61q0 -47 31 -76.5t77 -29.5q42 0 70 28t28 68q0 46 -31.5 77.5t-77.5 31.5q-44 0 -75 -24z" />
    <glyph glyph-name="uni2087" unicode="&#x2087;" horiz-adv-x="252" 
d="M8 342l-3 18h215l2 -11l-102 -349h-19l100 342h-193z" />
    <glyph glyph-name="uni2088" unicode="&#x2088;" horiz-adv-x="276" 
d="M40 106q0 62 58 92q-28 10 -45.5 33.5t-17.5 54.5q0 34 25.5 59t63.5 25q41 0 69.5 -27.5t28.5 -67.5q0 -46 -38 -69q38 -11 62.5 -41.5t24.5 -70.5q0 -43 -32 -73.5t-79 -30.5q-52 0 -86 33t-34 83zM60 106q0 -42 28 -70t72 -28q39 0 65 25t26 61q0 41 -29 69.5
t-71 28.5q-37 0 -64 -25.5t-27 -60.5zM202 275q0 32 -23.5 54.5t-54.5 22.5q-29 0 -49 -20t-20 -46q0 -32 23 -54t54 -22q29 0 49.5 19.5t20.5 45.5z" />
    <glyph glyph-name="uni2089" unicode="&#x2089;" horiz-adv-x="286" 
d="M144 129q-55 0 -92 36.5t-37 89.5q0 48 34 81.5t84 33.5q56 0 92 -34.5t36 -89.5q0 -30 -14 -63l-84 -183h-22l65 142q-34 -13 -62 -13zM219 171l7 14q15 30 15 61q0 47 -31 76.5t-77 29.5q-42 0 -70 -28t-28 -68q0 -46 31.5 -77.5t77.5 -31.5q44 0 75 24z" />
    <glyph glyph-name="Euro" unicode="&#x20ac;" horiz-adv-x="643" 
d="M617 121l16 -13q-84 -118 -241 -118q-113 0 -198.5 76t-116.5 195h-86l-3 18h85q-9 43 -9 90q0 27 3 52h-104l-3 18h110q20 120 100.5 195.5t192.5 75.5q121 0 203 -88l-14 -13q-79 83 -188 83q-103 0 -178.5 -70.5t-95.5 -182.5h281l3 -18h-287q-3 -25 -3 -53
q0 -47 9 -89h306l3 -18h-304q29 -111 109 -182t184 -71q151 0 226 113z" />
    <glyph glyph-name="trademark" unicode="&#x2122;" horiz-adv-x="840" 
d="M680 657l-157 -272h-16l-157 272v-340h-20v383h15l170 -292l170 292h15v-383h-20v340zM0 700h260v-18h-120v-365h-20v365h-120v18z" />
    <glyph glyph-name="Omega" unicode="&#x2126;" horiz-adv-x="770" 
d="M262 18l3 -18h-190l-3 18h157q-86 61 -150 152t-64 200q0 146 95 243q97 97 239 97q152 0 261 -111q54 -55 83.5 -128t29.5 -150q0 -150 -106 -303h166l3 -18h-190l-3 18q60 83 85 153.5t25 149.5q0 72 -29 143t-79 123q-103 105 -246 105q-61 0 -121 -23.5t-104 -68.5
q-89 -89 -89 -230q0 -58 21.5 -114t57 -100.5t72 -78t76.5 -59.5z" />
    <glyph glyph-name="arrowleft" unicode="&#x2190;" horiz-adv-x="742" 
d="M354 20h-27l-265 225l-1 8l184 225h25l-180 -220h582l3 -18h-580z" />
    <glyph glyph-name="arrowright" unicode="&#x2192;" horiz-adv-x="742" 
d="M382 478h27l265 -225l1 -8l-184 -225h-25l180 220h-582l-3 18h580z" />
    <glyph glyph-name="uni2196" unicode="&#x2196;" horiz-adv-x="560" 
d="M87 108l-56 315l7 7h314l21 -18h-307l467 -397l-12 -15l-467 397l54 -307z" />
    <glyph glyph-name="uni2197" unicode="&#x2197;" horiz-adv-x="560" 
d="M434 412h-311l15 18h315l8 -6l56 -316l-15 -18l-55 309l-329 -399l-14 12z" />
    <glyph glyph-name="uni2198" unicode="&#x2198;" horiz-adv-x="560" 
d="M479 322l56 -315l-7 -7h-314l-21 18h307l-467 397l12 15l467 -397l-54 307z" />
    <glyph glyph-name="uni2199" unicode="&#x2199;" horiz-adv-x="560" 
d="M132 18h311l-15 -18h-315l-8 6l-56 316l15 18l55 -309l329 399l14 -12z" />
    <glyph glyph-name="partialdiff" unicode="&#x2202;" horiz-adv-x="542" 
d="M364 406l-269 294h28l301 -330q73 -81 73 -171q0 -88 -60.5 -148.5t-152.5 -60.5q-97 0 -165.5 66.5t-68.5 162.5q0 88 60 148.5t151 60.5q59 0 103 -22zM261 410q-83 0 -137 -55t-54 -136q0 -88 62.5 -149.5t151.5 -61.5q83 0 138 55t55 136q0 90 -71 161l-5 5
q-62 45 -140 45z" />
    <glyph glyph-name="Delta" unicode="&#x2206;" horiz-adv-x="583" 
d="M205 700h9l388 -690l1 -10h-542l-1 10zM575 18l-359 639l-134 -639h493z" />
    <glyph glyph-name="product" unicode="&#x220f;" horiz-adv-x="552" 
d="M73 682h-100l-3 18h469l3 -18h-100l120 -682h-19l-120 682h-231l120 -682h-19z" />
    <glyph glyph-name="summation" unicode="&#x2211;" 
d="M419 520l-28 162h-413l356 -316l2 -10l-257 -338h439l-28 162h18l32 -180h-490l-2 10l265 349l-374 331l-2 10h470l31 -180h-19z" />
    <glyph glyph-name="minus" unicode="&#x2212;" horiz-adv-x="523" 
d="M458 251h-400l-3 18h400z" />
    <glyph glyph-name="uni2215" unicode="&#x2215;" horiz-adv-x="316" 
d="M290 700h21l-284 -700h-22z" />
    <glyph glyph-name="radical" unicode="&#x221a;" horiz-adv-x="543" 
d="M-40 430h113l232 -386l117 656h21l-125 -700h-9l-248 412h-98z" />
    <glyph glyph-name="infinity" unicode="&#x221e;" horiz-adv-x="740" 
d="M558 100q-61 0 -104 40t-90 115q-24 -75 -58 -115t-102 -40q-78 0 -129 59.5t-51 140.5q0 68 37.5 111t104.5 43q33 0 61.5 -12t52.5 -37t41 -47.5t39 -58.5q12 36 22.5 58.5t29 47.5t45.5 37t63 12q78 0 129 -59.5t51 -140.5q0 -68 -37.5 -111t-104.5 -43zM166 436
q-58 0 -90 -38.5t-32 -97.5q0 -75 46 -128.5t114 -53.5q34 0 58.5 12t41.5 37.5t26.5 47t21.5 59.5q-25 41 -39.5 61.5t-38.5 48.5t-50.5 40t-57.5 12zM558 118q58 0 90 38.5t32 97.5q0 75 -46 128.5t-114 53.5q-27 0 -49 -9.5t-35.5 -21.5t-27 -36t-20 -41t-16.5 -48
q26 -42 40 -62t38.5 -48t50.5 -40t57 -12z" />
    <glyph glyph-name="integral" unicode="&#x222b;" horiz-adv-x="522" 
d="M243 559q-26 -120 -53 -332.5t-52 -330.5q-16 -74 -60 -111q-43 -35 -102 -35q-43 0 -82 21l9 17q34 -20 73 -20q51 0 88 31q40 32 55 102q26 120 53 332.5t52 330.5q16 74 60 111q43 35 102 35q43 0 82 -21l-9 -17q-34 20 -73 20q-51 0 -88 -31q-40 -32 -55 -102z" />
    <glyph glyph-name="approxequal" unicode="&#x2248;" horiz-adv-x="469" 
d="M379 392l19 -5q-9 -90 -85 -90q-40 0 -103 44t-96 44q-59 0 -66 -77l-19 5q9 90 85 90q40 0 103 -44t96 -44q59 0 66 77zM410 214l19 -5q-9 -90 -85 -90q-40 0 -103 44t-96 44q-59 0 -66 -77l-19 5q9 90 85 90q40 0 103 -44t96 -44q59 0 66 77z" />
    <glyph glyph-name="notequal" unicode="&#x2260;" horiz-adv-x="523" 
d="M279 342h-238l-3 18h248l42 105h19l-42 -105h133l3 -18h-143l-65 -162h237l3 -18h-247l-42 -105h-18l42 105h-135l-3 18h145z" />
    <glyph glyph-name="lessequal" unicode="&#x2264;" horiz-adv-x="523" 
d="M88 78h400l3 -18h-400zM421 449l4 -20l-346 -138l395 -140l4 -20l-437 154l-2 10z" />
    <glyph glyph-name="greaterequal" unicode="&#x2265;" horiz-adv-x="523" 
d="M88 78h400l3 -18h-400zM79 131l-4 20l346 138l-395 140l-4 20l437 -154l2 -10z" />
    <glyph glyph-name="lozenge" unicode="&#x25ca;" horiz-adv-x="541" 
d="M191 670l-150 -316l269 -324l150 316zM20 355l164 345h9l286 -345l2 -10l-164 -345h-9l-286 345z" />
    <glyph glyph-name="parenleft.ss03" horiz-adv-x="415" 
d="M311 2l-16 -12q-152 221 -152 463q0 136 43 257l19 -7q-42 -121 -42 -250q0 -236 148 -451z" />
    <glyph glyph-name="parenright.ss03" horiz-adv-x="415" 
d="M60 698l16 12q152 -221 152 -463q0 -136 -43 -257l-19 7q42 121 42 250q0 236 -148 451z" />
    <glyph glyph-name="bracketleft.ss03" horiz-adv-x="415" 
d="M212 0l-124 700h204l3 -18h-185l118 -664h185l3 -18h-204z" />
    <glyph glyph-name="bracketright.ss03" horiz-adv-x="415" 
d="M160 700l124 -700h-204l-3 18h185l-118 664h-185l-3 18h204z" />
    <glyph glyph-name="braceleft.ss03" horiz-adv-x="415" 
d="M157 407q0 -40 -32 -55q28 -9 43 -36q10 -19 17 -56l18 -102q10 -61 29 -88q36 -52 137 -52h15l3 -18h-15q-112 0 -154 58q-22 31 -34 99l-18 103q-8 43 -23 59q-17 18 -51 21l-3 20q49 5 49 50q0 3 -7 50l-14 82q-4 26 -4 40q0 53 34 85.5t102 32.5h15l3 -18h-15
q-120 0 -120 -101q0 -12 4 -40l14 -81q7 -39 7 -53z" />
    <glyph glyph-name="braceright.ss03" horiz-adv-x="415" 
d="M216 293q0 40 32 55q-28 9 -43 36q-10 19 -17 56l-18 102q-10 61 -29 88q-36 52 -137 52h-15l-3 18h15q112 0 154 -58q22 -31 34 -99l18 -103q8 -43 23 -59q16 -18 51 -21l3 -20q-49 -5 -49 -50q0 -3 7 -50l14 -82q4 -26 4 -40q0 -53 -34 -85.5t-102 -32.5h-15l-3 18h15
q120 0 120 101q0 12 -4 40l-14 81q-7 38 -7 53z" />
    <glyph glyph-name="bar.ss03" horiz-adv-x="150" 
d="M106 0l-123 700h19l123 -700h-19z" />
    <glyph glyph-name="zero.tf" 
d="M485 243q0 78 -15.5 154.5t-45.5 144t-82 109t-118 41.5q-88 0 -133.5 -62.5t-45.5 -172.5q0 -78 15.5 -154.5t45.5 -144t82 -109t118 -41.5q88 0 133.5 62.5t45.5 172.5zM505 243q0 -117 -50.5 -185t-148.5 -68q-71 0 -127 43t-88.5 113t-49 149.5t-16.5 161.5
q0 117 50.5 185t148.5 68q71 0 127 -43t88.5 -113t49 -149.5t16.5 -161.5z" />
    <glyph glyph-name="one.tf" 
d="M53 575l-3 19l167 106h9l120 -682h203l4 -18h-437l-4 18h215l-115 655z" />
    <glyph glyph-name="two.tf" 
d="M55 579l-17 7q22 56 74.5 90t112.5 34q83 0 141 -57t58 -145q0 -84 -65 -181l-208 -309h364l3 -18h-395l-2 10l219 324q64 94 64 174q0 77 -51.5 130.5t-127.5 53.5q-56 0 -102.5 -30.5t-67.5 -82.5z" />
    <glyph glyph-name="three.tf" 
d="M92 88l17 10q30 -42 78 -66t104 -24q84 0 140 56t56 138q0 91 -63.5 153t-154.5 62q-51 0 -96 -15l-2 10l188 270h-319l-3 18h349l2 -10l-182 -261q28 6 63 6q100 0 169 -67t69 -166q0 -90 -61.5 -151t-154.5 -61q-62 0 -114 26.5t-85 71.5z" />
    <glyph glyph-name="four.tf" 
d="M35 210l304 490h9l85 -482h120l3 -18h-120l35 -200h-19l-35 200h-380zM414 218l-78 441l-274 -441h352z" />
    <glyph glyph-name="five.tf" 
d="M96 83l14 12q30 -39 76.5 -63t96.5 -24q80 0 139.5 54.5t59.5 137.5q0 87 -64 149.5t-151 62.5q-45 0 -90 -18.5t-74 -48.5h-10v355h311l3 -18h-294v-304q65 52 154 52q96 0 165.5 -67t69.5 -163q0 -88 -63.5 -149t-156.5 -61q-54 0 -103.5 25.5t-82.5 67.5z" />
    <glyph glyph-name="six.tf" 
d="M96 326l173 374h22l-145 -314q57 42 135 42q97 0 166 -66t69 -163q0 -89 -63 -149t-157 -60q-95 0 -160.5 65t-65.5 159q0 55 26 112zM126 343l-11 -23q-25 -53 -25 -107q0 -85 59.5 -145t146.5 -60q86 0 143 54.5t57 136.5q0 89 -63 150t-152 61q-93 0 -155 -67z" />
    <glyph glyph-name="seven.tf" 
d="M431 700l2 -10l-213 -690h-21l210 682h-394l-3 18h419z" />
    <glyph glyph-name="eight.tf" 
d="M416 534q0 -46 -25.5 -83.5t-68.5 -56.5q80 -13 132 -72t52 -141q0 -80 -58.5 -135.5t-146.5 -55.5q-94 0 -159 62t-65 154q0 60 35 108t93 69q-62 14 -101.5 60.5t-39.5 111.5t48.5 110t120.5 45q77 0 130 -50t53 -126zM282 379q-79 0 -132 -50t-53 -123
q0 -83 59 -140.5t145 -57.5q79 0 132 50t53 123q0 83 -59 140.5t-145 57.5zM396 534q0 67 -47 112.5t-116 45.5q-63 0 -106 -40t-43 -97q0 -67 47 -112.5t116 -45.5q63 0 106 40t43 97z" />
    <glyph glyph-name="nine.tf" 
d="M440 374l-173 -374h-22l145 314q-57 -42 -135 -42q-97 0 -166 66t-69 163q0 89 63 149t157 60q95 0 160.5 -65t65.5 -159q0 -55 -26 -112zM410 357l11 23q25 53 25 107q0 85 -59.5 145t-146.5 60q-86 0 -143 -54.5t-57 -136.5q0 -89 63 -150t152 -61q93 0 155 67z" />
    <glyph glyph-name="parenleft.case" horiz-adv-x="415" 
d="M388 -97l-15 -13q-230 264 -230 563q0 197 87 357l17 -10q-84 -157 -84 -347q0 -293 225 -550z" />
    <glyph glyph-name="parenright.case" horiz-adv-x="415" 
d="M-17 797l15 13q230 -264 230 -563q0 -197 -87 -357l-17 10q84 157 84 347q0 293 -225 550z" />
    <glyph glyph-name="bracketleft.case" horiz-adv-x="415" 
d="M229 -100l-159 900h204l3 -18h-185l153 -864h185l3 -18h-204z" />
    <glyph glyph-name="bracketright.case" horiz-adv-x="415" 
d="M142 800l159 -900h-204l-3 18h185l-153 864h-185l-3 18h204z" />
    <glyph glyph-name="braceleft.case" horiz-adv-x="415" 
d="M168 800l3 -18h-20q-120 0 -120 -101q0 -46 24 -134.5t24 -133.5q0 -47 -32 -61q41 -19 57 -71q12 -40 25.5 -160.5t34.5 -150.5q36 -52 135 -52h25l3 -18h-25q-114 0 -152 58q-25 38 -39 163.5t-30 168.5q-17 45 -67 50l-3 20q49 7 49 53t-24 135t-24 134q0 53 34 85.5
t102 32.5h20z" />
    <glyph glyph-name="braceright.case" horiz-adv-x="415" 
d="M126 -100l-3 18h20q120 0 120 101q0 46 -24 134.5t-24 133.5q0 47 32 61q-41 19 -57 71q-12 40 -25.5 160.5t-34.5 150.5q-36 52 -135 52h-25l-3 18h25q114 0 152 -58q25 -38 39 -163.5t30 -168.5q17 -45 67 -50l3 -20q-49 -7 -49 -53t24 -135t24 -134q0 -53 -34 -85.5
t-102 -32.5h-20z" />
    <glyph glyph-name="a.ss01" horiz-adv-x="496" 
d="M396 224l-8 42q-14 73 -41 106q-39 50 -119 50q-77 0 -135 -56l-13 12q21 23 62 42.5t86 19.5q91 0 134 -56q32 -38 46 -119l46 -265h-19l-16 92q-20 -45 -65 -73.5t-104 -28.5q-70 0 -119 40t-49 104q0 62 51 98t119 36q77 0 144 -44zM413 126l-12 73q-71 51 -149 51
q-63 0 -106.5 -33t-43.5 -83q0 -58 44.5 -92t103.5 -34q64 0 108 34.5t55 83.5z" />
    <glyph glyph-name="zero.tf.zero" 
d="M505 243q0 -117 -50.5 -185t-148.5 -68q-71 0 -127 43t-88.5 113t-49 149.5t-16.5 161.5q0 117 50.5 185t148.5 68q71 0 127 -43t88.5 -113t49 -149.5t16.5 -161.5zM485 243q0 103 -27 203.5t-78 164.5l-218 -537q61 -66 144 -66q88 0 133.5 62.5t45.5 172.5zM45 457
q0 -104 26.5 -204.5t77.5 -164.5l218 538q-60 66 -143 66q-88 0 -133.5 -62.5t-45.5 -172.5z" />
    <glyph glyph-name="endash.ss04" horiz-adv-x="1040" 
d="M21 258h990l3 -18h-990z" />
    <glyph glyph-name="periodcentered.case" horiz-adv-x="270" 
d="M85 350q0 14 10.5 24.5t24.5 10.5t24.5 -10.5t10.5 -24.5t-10.5 -24.5t-24.5 -10.5t-24.5 10.5t-10.5 24.5z" />
    <glyph glyph-name="bullet.case" horiz-adv-x="480" 
d="M60 350q0 66 47 113t113 47t113 -47t47 -113t-47 -113t-113 -47t-113 47t-47 113z" />
    <glyph glyph-name="asterisk.ss05" horiz-adv-x="490" 
d="M196 493l-135 -86l-11 17l133 85l-164 86l9 18l161 -84l-30 171h19l31 -174l135 87l11 -17l-132 -85l164 -86l-9 -18l-163 85l30 -172h-19z" />
    <glyph glyph-name="zero.zero" horiz-adv-x="590" 
d="M512 243q0 -117 -50.5 -185t-148.5 -68q-71 0 -127 43t-88.5 113t-49 149.5t-16.5 161.5q0 117 50.5 185t148.5 68q71 0 127 -43t88.5 -113t49 -149.5t16.5 -161.5zM492 243q0 103 -27 203.5t-78 164.5l-218 -537q61 -66 144 -66q88 0 133.5 62.5t45.5 172.5zM52 457
q0 -104 26.5 -204.5t77.5 -164.5l218 538q-60 66 -143 66q-88 0 -133.5 -62.5t-45.5 -172.5z" />
    <glyph glyph-name="uni2070.zero" horiz-adv-x="315" 
d="M128 330q-51 0 -87.5 40t-51 93.5t-14.5 112.5q0 62 27.5 98t79.5 36q51 0 87.5 -40t51 -93.5t14.5 -112.5q0 -62 -27.5 -98t-79.5 -36zM-5 576q0 -117 52 -185l108 266q-32 35 -73 35q-42 0 -64.5 -31.5t-22.5 -84.5zM128 348q42 0 64.5 31.5t22.5 84.5q0 106 -47 176
l-108 -263q31 -29 68 -29z" />
    <glyph glyph-name="uni2080.zero" horiz-adv-x="315" 
d="M188 -10q-51 0 -87.5 40t-51 93.5t-14.5 112.5q0 62 27.5 98t79.5 36q51 0 87.5 -40t51 -93.5t14.5 -112.5q0 -62 -27.5 -98t-79.5 -36zM55 236q0 -117 52 -185l108 266q-32 35 -73 35q-42 0 -64.5 -31.5t-22.5 -84.5zM188 8q42 0 64.5 31.5t22.5 84.5q0 106 -47 176
l-108 -263q31 -29 68 -29z" />
    <glyph glyph-name="emdash.ss04" horiz-adv-x="1340" 
d="M21 258h1290l3 -18h-1290z" />
    <glyph glyph-name="currency.tf" 
d="M99 351q0 72 48 125l-72 72l13 13l72 -72q53 48 125 48t125 -48l72 72l13 -13l-72 -72q48 -53 48 -125t-48 -125l72 -72l-13 -13l-72 72q-53 -48 -125 -48t-125 48l-72 -72l-13 13l72 72q-48 53 -48 125zM119 351q0 -69 48.5 -117.5t117.5 -48.5t117.5 48.5t48.5 117.5
t-48.5 117.5t-117.5 48.5t-117.5 -48.5t-48.5 -117.5z" />
    <glyph glyph-name="hyphen.case" horiz-adv-x="410" 
d="M56 400h240l3 -18h-240z" />
    <glyph glyph-name="endash.case" horiz-adv-x="440" 
d="M-4 400h390l3 -18h-390z" />
    <glyph glyph-name="emdash.case" horiz-adv-x="740" 
d="M-4 400h690l3 -18h-690z" />
    <glyph glyph-name="endash.case.ss04" horiz-adv-x="1040" 
d="M-4 400h990l3 -18h-990z" />
    <glyph glyph-name="emdash.case.ss04" horiz-adv-x="1340" 
d="M-4 400h1290l3 -18h-1290z" />
    <glyph glyph-name="guillemotleft.case" horiz-adv-x="525" 
d="M268 150h-28l-178 175l-2 10l120 175h24l-121 -178zM478 150h-28l-178 175l-2 10l120 175h24l-121 -178z" />
    <glyph glyph-name="guillemotright.case" horiz-adv-x="525" 
d="M223 510h28l178 -175l2 -10l-120 -175h-24l121 178zM13 510h28l178 -175l2 -10l-120 -175h-24l121 178z" />
    <glyph glyph-name="guilsinglleft.case" horiz-adv-x="315" 
d="M268 150h-28l-178 175l-2 10l120 175h24l-121 -178z" />
    <glyph glyph-name="guilsinglright.case" horiz-adv-x="315" 
d="M13 510h28l178 -175l2 -10l-120 -175h-24l121 178z" />
    <glyph glyph-name="bar.case" horiz-adv-x="150" 
d="M126 -110l-159 900h19l159 -900h-19z" />
    <glyph glyph-name="aacute.ss01" horiz-adv-x="496" 
d="M311 640h22l-97 -130h-22zM396 224l-8 42q-14 73 -41 106q-39 50 -119 50q-77 0 -135 -56l-13 12q21 23 62 42.5t86 19.5q91 0 134 -56q32 -38 46 -119l46 -265h-19l-16 92q-20 -45 -65 -73.5t-104 -28.5q-70 0 -119 40t-49 104q0 62 51 98t119 36q77 0 144 -44zM413 126
l-12 73q-71 51 -149 51q-63 0 -106.5 -33t-43.5 -83q0 -58 44.5 -92t103.5 -34q64 0 108 34.5t55 83.5z" />
    <glyph glyph-name="agrave.ss01" horiz-adv-x="496" 
d="M142 640h22l97 -130h-22zM396 224l-8 42q-14 73 -41 106q-39 50 -119 50q-77 0 -135 -56l-13 12q21 23 62 42.5t86 19.5q91 0 134 -56q32 -38 46 -119l46 -265h-19l-16 92q-20 -45 -65 -73.5t-104 -28.5q-70 0 -119 40t-49 104q0 62 51 98t119 36q77 0 144 -44zM413 126
l-12 73q-71 51 -149 51q-63 0 -106.5 -33t-43.5 -83q0 -58 44.5 -92t103.5 -34q64 0 108 34.5t55 83.5z" />
    <glyph glyph-name="acircumflex.ss01" horiz-adv-x="496" 
d="M186 640h31l125 -130h-28l-113 118l-72 -118h-22zM396 224l-8 42q-14 73 -41 106q-39 50 -119 50q-77 0 -135 -56l-13 12q21 23 62 42.5t86 19.5q91 0 134 -56q32 -38 46 -119l46 -265h-19l-16 92q-20 -45 -65 -73.5t-104 -28.5q-70 0 -119 40t-49 104q0 62 51 98t119 36
q77 0 144 -44zM413 126l-12 73q-71 51 -149 51q-63 0 -106.5 -33t-43.5 -83q0 -58 44.5 -92t103.5 -34q64 0 108 34.5t55 83.5z" />
    <glyph glyph-name="adieresis.ss01" horiz-adv-x="496" 
d="M122 570q0 13 8.5 21.5t21.5 8.5t21.5 -8.5t8.5 -21.5t-8.5 -21.5t-21.5 -8.5t-21.5 8.5t-8.5 21.5zM262 570q0 13 8.5 21.5t21.5 8.5t21.5 -8.5t8.5 -21.5t-8.5 -21.5t-21.5 -8.5t-21.5 8.5t-8.5 21.5zM396 224l-8 42q-14 73 -41 106q-39 50 -119 50q-77 0 -135 -56
l-13 12q21 23 62 42.5t86 19.5q91 0 134 -56q32 -38 46 -119l46 -265h-19l-16 92q-20 -45 -65 -73.5t-104 -28.5q-70 0 -119 40t-49 104q0 62 51 98t119 36q77 0 144 -44zM413 126l-12 73q-71 51 -149 51q-63 0 -106.5 -33t-43.5 -83q0 -58 44.5 -92t103.5 -34
q64 0 108 34.5t55 83.5z" />
    <glyph glyph-name="atilde.ss01" horiz-adv-x="496" 
d="M341 608l19 -3q-9 -72 -67 -72q-28 0 -75.5 29.5t-70.5 29.5q-41 0 -48 -57l-19 3q9 72 67 72q28 0 75.5 -29.5t70.5 -29.5q41 0 48 57zM396 224l-8 42q-14 73 -41 106q-39 50 -119 50q-77 0 -135 -56l-13 12q21 23 62 42.5t86 19.5q91 0 134 -56q32 -38 46 -119l46 -265
h-19l-16 92q-20 -45 -65 -73.5t-104 -28.5q-70 0 -119 40t-49 104q0 62 51 98t119 36q77 0 144 -44zM413 126l-12 73q-71 51 -149 51q-63 0 -106.5 -33t-43.5 -83q0 -58 44.5 -92t103.5 -34q64 0 108 34.5t55 83.5z" />
    <glyph glyph-name="aring.ss01" horiz-adv-x="496" 
d="M147 590q0 33 23.5 56.5t56.5 23.5t56.5 -23.5t23.5 -56.5t-23.5 -56.5t-56.5 -23.5t-56.5 23.5t-23.5 56.5zM165 590q0 -26 18.5 -44t43.5 -18t43.5 18t18.5 44t-18.5 44t-43.5 18t-43.5 -18t-18.5 -44zM396 224l-8 42q-14 73 -41 106q-39 50 -119 50q-77 0 -135 -56
l-13 12q21 23 62 42.5t86 19.5q91 0 134 -56q32 -38 46 -119l46 -265h-19l-16 92q-20 -45 -65 -73.5t-104 -28.5q-70 0 -119 40t-49 104q0 62 51 98t119 36q77 0 144 -44zM413 126l-12 73q-71 51 -149 51q-63 0 -106.5 -33t-43.5 -83q0 -58 44.5 -92t103.5 -34
q64 0 108 34.5t55 83.5z" />
    <glyph glyph-name="ae.ss01" horiz-adv-x="857" 
d="M797 75l13 -14q-67 -71 -173 -71q-134 0 -200 107l17 -97h-19l-16 92q-20 -45 -65 -73.5t-104 -28.5q-70 0 -119 40t-49 104q0 62 51 98t119 36q77 0 144 -44l-8 42q-14 73 -41 106q-39 50 -119 50q-77 0 -135 -56l-13 12q21 23 62 42.5t86 19.5q91 0 134 -56
q30 -36 44 -108q14 72 67 118t126 46q86 0 145.5 -60.5t67.5 -151.5h-393q0 -97 63 -158.5t155 -61.5q95 0 160 67zM413 126l-12 73q-71 51 -149 51q-63 0 -106.5 -33t-43.5 -83q0 -58 44.5 -92t103.5 -34q64 0 108 34.5t55 83.5zM599 422q-73 0 -122.5 -50t-56.5 -126h370
q-14 77 -66.5 126.5t-124.5 49.5z" />
    <glyph glyph-name="zero.dnom" horiz-adv-x="315" 
d="M188 8q42 0 64.5 31.5t22.5 84.5q0 54 -14 104.5t-45 87t-74 36.5q-42 0 -64.5 -31.5t-22.5 -84.5q0 -54 14 -104.5t45 -87t74 -36.5zM188 -10q-51 0 -87.5 40t-51 93.5t-14.5 112.5q0 62 27.5 98t79.5 36q51 0 87.5 -40t51 -93.5t14.5 -112.5q0 -62 -27.5 -98t-79.5 -36
z" />
    <glyph glyph-name="one.dnom" horiz-adv-x="202" 
d="M102 333l-78 -49l-4 19l88 57h10l64 -360h-21z" />
    <glyph glyph-name="two.dnom" horiz-adv-x="268" 
d="M36 296l-16 8q29 66 95 66q47 0 78 -33t31 -79q0 -41 -35 -91l-105 -149h185l4 -18h-214l-2 11l115 166q32 46 32 81q0 37 -26 65.5t-63 28.5q-54 0 -79 -56z" />
    <glyph glyph-name="three.dnom" horiz-adv-x="285" 
d="M94 207l-2 11l90 124h-164l-3 18h192l2 -11l-85 -117q10 2 22 2q53 0 91 -37.5t38 -91.5q0 -51 -32.5 -83t-85.5 -32q-70 0 -109 53l15 12q35 -47 94 -47q44 0 71 27.5t27 69.5q0 46 -32.5 78.5t-80.5 32.5q-24 0 -48 -9z" />
    <glyph glyph-name="four.dnom" horiz-adv-x="303" 
d="M237 0l-17 95h-188l-2 10l154 255h10l44 -247h72l3 -18h-72l17 -95h-21zM217 113l-37 204l-123 -204h160z" />
    <glyph glyph-name="five.dnom" horiz-adv-x="293" 
d="M59 181h-9v179h178l3 -18h-161v-130q34 23 75 23q53 0 90.5 -38t37.5 -91q0 -50 -33.5 -83t-86.5 -33q-64 0 -102 46l14 13q38 -41 88 -41q43 0 71.5 27.5t28.5 70.5q0 46 -31.5 78.5t-78.5 32.5q-45 0 -84 -36z" />
    <glyph glyph-name="six.dnom" horiz-adv-x="291" 
d="M157 231q55 0 92 -36.5t37 -89.5q0 -48 -34 -81.5t-84 -33.5q-56 0 -92 34.5t-36 89.5q0 30 14 63l84 183h22l-65 -142q34 13 62 13zM82 189l-7 -14q-15 -30 -15 -61q0 -47 31 -76.5t77 -29.5q42 0 70 28t28 68q0 46 -31.5 77.5t-77.5 31.5q-44 0 -75 -24z" />
    <glyph glyph-name="seven.dnom" horiz-adv-x="252" 
d="M8 342l-3 18h215l2 -11l-102 -349h-19l100 342h-193z" />
    <glyph glyph-name="eight.dnom" horiz-adv-x="276" 
d="M40 106q0 62 58 92q-28 10 -45.5 33.5t-17.5 54.5q0 34 25.5 59t63.5 25q41 0 69.5 -27.5t28.5 -67.5q0 -46 -38 -69q38 -11 62.5 -41.5t24.5 -70.5q0 -43 -32 -73.5t-79 -30.5q-52 0 -86 33t-34 83zM60 106q0 -42 28 -70t72 -28q39 0 65 25t26 61q0 41 -29 69.5
t-71 28.5q-37 0 -64 -25.5t-27 -60.5zM202 275q0 32 -23.5 54.5t-54.5 22.5q-29 0 -49 -20t-20 -46q0 -32 23 -54t54 -22q29 0 49.5 19.5t20.5 45.5z" />
    <glyph glyph-name="nine.dnom" horiz-adv-x="286" 
d="M144 129q-55 0 -92 36.5t-37 89.5q0 48 34 81.5t84 33.5q56 0 92 -34.5t36 -89.5q0 -30 -14 -63l-84 -183h-22l65 142q-34 -13 -62 -13zM219 171l7 14q15 30 15 61q0 47 -31 76.5t-77 29.5q-42 0 -70 -28t-28 -68q0 -46 31.5 -77.5t77.5 -31.5q44 0 75 24z" />
    <glyph glyph-name="zero.numr" horiz-adv-x="315" 
d="M128 348q42 0 64.5 31.5t22.5 84.5q0 54 -14 104.5t-45 87t-74 36.5q-42 0 -64.5 -31.5t-22.5 -84.5q0 -54 14 -104.5t45 -87t74 -36.5zM128 330q-51 0 -87.5 40t-51 93.5t-14.5 112.5q0 62 27.5 98t79.5 36q51 0 87.5 -40t51 -93.5t14.5 -112.5q0 -62 -27.5 -98
t-79.5 -36z" />
    <glyph glyph-name="two.numr" horiz-adv-x="268" 
d="M-24 636l-16 8q29 66 95 66q47 0 78 -33t31 -79q0 -41 -35 -91l-105 -149h185l4 -18h-214l-2 11l115 166q32 46 32 81q0 37 -26 65.5t-63 28.5q-54 0 -79 -56z" />
    <glyph glyph-name="three.numr" horiz-adv-x="285" 
d="M34 547l-2 11l90 124h-164l-3 18h192l2 -11l-85 -117q10 2 22 2q53 0 91 -37.5t38 -91.5q0 -51 -32.5 -83t-85.5 -32q-70 0 -109 53l15 12q35 -47 94 -47q44 0 71 27.5t27 69.5q0 46 -32.5 78.5t-80.5 32.5q-24 0 -48 -9z" />
    <glyph glyph-name="four.numr" horiz-adv-x="303" 
d="M177 340l-17 95h-188l-2 10l154 255h10l44 -247h72l3 -18h-72l17 -95h-21zM157 453l-37 204l-123 -204h160z" />
    <glyph glyph-name="five.numr" horiz-adv-x="293" 
d="M-1 521h-9v179h178l3 -18h-161v-130q34 23 75 23q53 0 90.5 -38t37.5 -91q0 -50 -33.5 -83t-86.5 -33q-64 0 -102 46l14 13q38 -41 88 -41q43 0 71.5 27.5t28.5 70.5q0 46 -31.5 78.5t-78.5 32.5q-45 0 -84 -36z" />
    <glyph glyph-name="six.numr" horiz-adv-x="291" 
d="M97 571q55 0 92 -36.5t37 -89.5q0 -48 -34 -81.5t-84 -33.5q-56 0 -92 34.5t-36 89.5q0 30 14 63l84 183h22l-65 -142q34 13 62 13zM22 529l-7 -14q-15 -30 -15 -61q0 -47 31 -76.5t77 -29.5q42 0 70 28t28 68q0 46 -31.5 77.5t-77.5 31.5q-44 0 -75 -24z" />
    <glyph glyph-name="seven.numr" horiz-adv-x="252" 
d="M-52 682l-3 18h215l2 -11l-102 -349h-19l100 342h-193z" />
    <glyph glyph-name="eight.numr" horiz-adv-x="271" 
d="M-20 446q0 62 58 92q-28 10 -45.5 33.5t-17.5 54.5q0 34 25.5 59t63.5 25q41 0 69.5 -27.5t28.5 -67.5q0 -46 -38 -69q38 -11 62.5 -41.5t24.5 -70.5q0 -43 -32 -73.5t-79 -30.5q-52 0 -86 33t-34 83zM0 446q0 -42 28 -70t72 -28q39 0 65 25t26 61q0 41 -29 69.5
t-71 28.5q-37 0 -64 -25.5t-27 -60.5zM142 615q0 32 -23.5 54.5t-54.5 22.5q-29 0 -49 -20t-20 -46q0 -32 23 -54t54 -22q29 0 49.5 19.5t20.5 45.5z" />
    <glyph glyph-name="nine.numr" horiz-adv-x="286" 
d="M85 469q-55 0 -92 36.5t-37 89.5q0 48 34 81.5t84 33.5q56 0 92 -34.5t36 -89.5q0 -30 -14 -63l-84 -183h-22l65 142q-34 -13 -62 -13zM160 511l7 14q15 30 15 61q0 47 -31 76.5t-77 29.5q-42 0 -70 -28t-28 -68q0 -46 31.5 -77.5t77.5 -31.5q44 0 75 24z" />
    <glyph glyph-name="zero.dnom.zero" horiz-adv-x="315" 
d="M188 -10q-51 0 -87.5 40t-51 93.5t-14.5 112.5q0 62 27.5 98t79.5 36q51 0 87.5 -40t51 -93.5t14.5 -112.5q0 -62 -27.5 -98t-79.5 -36zM55 236q0 -117 52 -185l108 266q-32 35 -73 35q-42 0 -64.5 -31.5t-22.5 -84.5zM188 8q42 0 64.5 31.5t22.5 84.5q0 106 -47 176
l-108 -263q31 -29 68 -29z" />
    <glyph glyph-name="zero.numr.zero" horiz-adv-x="315" 
d="M128 330q-51 0 -87.5 40t-51 93.5t-14.5 112.5q0 62 27.5 98t79.5 36q51 0 87.5 -40t51 -93.5t14.5 -112.5q0 -62 -27.5 -98t-79.5 -36zM-5 576q0 -117 52 -185l108 266q-32 35 -73 35q-42 0 -64.5 -31.5t-22.5 -84.5zM128 348q42 0 64.5 31.5t22.5 84.5q0 106 -47 176
l-108 -263q31 -29 68 -29z" />
    <glyph glyph-name="minus.tf" 
d="M477 251h-400l-3 18h400z" />
    <glyph glyph-name="multiply.tf" 
d="M76 416l12 13l185 -157l127 157l14 -11l-127 -157l186 -157l-12 -13l-185 156l-127 -156l-14 11l127 157z" />
    <glyph glyph-name="numbersign.tf" 
d="M122 240h-107l-3 18h115l50 184h-107l-3 18h115l65 240h19l-65 -240h191l65 240h19l-65 -240h107l3 -18h-115l-50 -184h107l3 -18h-115l-64 -240h-19l64 240h-191l-64 -240h-19zM196 442l-50 -184h191l50 184h-191z" />
    <glyph glyph-name="dollar.tf" 
d="M75 90l14 13q81 -95 208 -95q72 0 125.5 43.5t53.5 116.5q0 132 -166 185q-17 5 -53.5 16t-55.5 17.5t-49 18t-46.5 23.5t-34 29.5t-25 40t-7.5 49.5q0 61 41.5 105.5t103.5 54.5l-18 108h19l18 -106q4 1 14 1q91 0 165 -63l-13 -14q-65 59 -152 59q-63 0 -110.5 -40
t-47.5 -105q0 -25 7 -45t23.5 -35.5t32.5 -26.5t44 -22t46.5 -17t53 -16t51.5 -15q179 -56 179 -204q0 -69 -47.5 -116.5t-118.5 -57.5l19 -107h-19l-19 106q-7 -1 -14 -1q-128 0 -222 100z" />
    <glyph glyph-name="plus.tf" 
d="M274 269l-34 191h18l34 -191h191l3 -18h-191l33 -191h-18l-33 191h-191l-3 18h191z" />
    <glyph glyph-name="less.tf" 
d="M433 437l3 -19l-339 -156l394 -158l4 -21l-430 172l-2 10z" />
    <glyph glyph-name="equal.tf" 
d="M493 162h-400l-3 18h400zM461 342h-400l-3 18h400z" />
    <glyph glyph-name="greater.tf" 
d="M117 83l-3 19l339 156l-394 158l-4 21l430 -172l2 -10z" />
    <glyph glyph-name="cent.tf" 
d="M446 388l-12 -14q-57 48 -132 48q-81 0 -144 -55.5t-63 -140.5q0 -90 60 -154t154 -64q53 0 100.5 23.5t80.5 66.5l15 -11q-58 -78 -157 -94l19 -108h-19l-19 106q-7 -1 -20 -1q-104 0 -169 69t-65 167q0 78 53 137t131 73l-18 109h19l19 -106q3 0 11 0.5t12 0.5
q80 0 144 -52z" />
    <glyph glyph-name="sterling.tf" 
d="M167 18h384l4 -18h-435l-2 10q49 24 79 74t30 104q0 31 -10.5 64t-21 54t-31.5 57h-87l-4 18h80q-55 95 -55 161q0 74 48 121t116 47q87 0 150 -77l-16 -12q-57 71 -134 71q-60 0 -102 -42.5t-42 -107.5q0 -40 14.5 -76t43.5 -85h132l4 -18h-125q60 -103 60 -175
q0 -52 -23 -96.5t-57 -73.5z" />
    <glyph glyph-name="section.tf" 
d="M472 219q0 31 -12.5 56t-28.5 40.5t-48 30t-53.5 21t-63.5 18t-60 17.5q-50 -16 -78.5 -53t-28.5 -88q0 -31 12.5 -56t28.5 -40.5t48 -30t53.5 -21.5t63 -18.5t60.5 -17.5q49 16 78 53.5t29 88.5zM501 -79q0 42 -23.5 71.5t-60.5 45.5t-82 28.5t-90 26.5t-82 32.5
t-60.5 53t-23.5 82.5q0 50 26.5 90t72.5 61q-61 22 -94.5 55.5t-33.5 91.5q0 68 52.5 109.5t126.5 41.5q90 0 158 -62l-13 -13q-62 57 -145 57q-62 0 -110.5 -35t-48.5 -98q0 -42 23.5 -71.5t60.5 -45.5t82 -28.5t90 -26.5t82 -32.5t60.5 -53t23.5 -82.5q0 -51 -26.5 -90.5
t-72.5 -60.5q61 -22 94.5 -56t33.5 -91q0 -68 -52.5 -109.5t-126.5 -41.5q-90 0 -158 62l13 13q62 -57 145 -57q62 0 110.5 35t48.5 98z" />
    <glyph glyph-name="notequal.tf" 
d="M299 342h-238l-3 18h248l42 105h19l-42 -105h133l3 -18h-143l-65 -162h237l3 -18h-247l-42 -105h-18l42 105h-135l-3 18h145z" />
    <glyph glyph-name="plusminus.tf" 
d="M117 78h400l3 -18h-400zM241 460h18l29 -167h192l3 -18h-192l29 -167h-18l-29 167h-190l-3 18h190z" />
    <glyph glyph-name="lessequal.tf" 
d="M117 78h400l3 -18h-400zM450 449l4 -20l-346 -138l395 -140l4 -20l-437 154l-2 10z" />
    <glyph glyph-name="greaterequal.tf" 
d="M117 78h400l3 -18h-400zM108 131l-4 20l346 138l-395 140l-4 20l437 -154l2 -10z" />
    <glyph glyph-name="yen.tf" 
d="M283 279h219l3 -18h-219l45 -261h-19l-45 261h-222l-3 18h222l-12 65l-64 77h-171l-3 18h159l-220 261h26l280 -333l162 333h22l-126 -261h157l3 -18h-169l-37 -76z" />
    <glyph glyph-name="mu.tf" 
d="M58 430h19l42 -237q12 -72 40 -111q54 -74 140 -74q50 0 96.5 31t73.5 84l-54 307h19l76 -430h-19l-17 96q-28 -47 -75.5 -76.5t-99.5 -29.5q-49 0 -93 24.5t-68 66.5l64 -361h-19z" />
    <glyph glyph-name="partialdiff.tf" 
d="M376 406l-269 294h28l301 -330q73 -81 73 -171q0 -88 -60.5 -148.5t-152.5 -60.5q-97 0 -165.5 66.5t-68.5 162.5q0 88 60 148.5t151 60.5q59 0 103 -22zM273 410q-83 0 -137 -55t-54 -136q0 -88 62.5 -149.5t151.5 -61.5q83 0 138 55t55 136q0 90 -71 161l-5 5
q-62 45 -140 45z" />
    <glyph glyph-name="summation.tf" 
d="M439 520l-28 162h-413l356 -316l2 -10l-257 -338h439l-28 162h18l32 -180h-490l-2 10l265 349l-374 331l-2 10h470l31 -180h-19z" />
    <glyph glyph-name="product.tf" 
d="M71 682h-100l-3 18h469l3 -18h-100l120 -682h-19l-120 682h-231l120 -682h-19z" />
    <glyph glyph-name="pi.tf" 
d="M225 0l-72 411q-64 -2 -85 -54l-17 9q15 38 57 55q26 9 66 9h305l3 -18h-100l50 -284q8 -46 23 -71q19 -32 65 -50l-6 -17q-49 15 -75 56q-16 27 -26 81l-50 285h-191l72 -412h-19z" />
    <glyph glyph-name="integral.tf" 
d="M275 559q-26 -120 -53 -332.5t-52 -330.5q-16 -74 -60 -111q-43 -35 -102 -35q-43 0 -82 21l9 17q34 -20 73 -20q51 0 88 31q40 32 55 102q26 120 53 332.5t52 330.5q16 74 60 111q43 35 102 35q43 0 82 -21l-9 -17q-34 20 -73 20q-51 0 -88 -31q-40 -32 -55 -102z" />
    <glyph glyph-name="logicalnot.tf" 
d="M458 360l35 -198h-18l-32 180h-382l-3 18h400z" />
    <glyph glyph-name="radical.tf" 
d="M-17 430h113l232 -386l117 656h21l-125 -700h-9l-248 412h-98z" />
    <glyph glyph-name="florin.tf" 
d="M275 559q-19 -86 -32 -178h166l3 -18h-172q-8 -51 -19.5 -143.5t-23 -170.5t-27.5 -153q-16 -74 -60 -111q-43 -35 -102 -35q-43 0 -82 21l9 17q34 -20 73 -20q51 0 88 31q40 32 55 102q16 75 27.5 149.5t24 172t18.5 140.5h-134l-3 18h139q17 111 33 183q16 74 60 111
q43 35 102 35q43 0 82 -21l-9 -17q-34 20 -73 20q-51 0 -88 -31q-40 -32 -55 -102z" />
    <glyph glyph-name="asciicircum.tf" 
d="M208 700h9l237 -350h-23l-214 314l-102 -314h-21z" />
    <glyph glyph-name="asciitilde.tf" 
d="M441 303l19 -5q-9 -90 -85 -90q-40 0 -103 44t-96 44q-59 0 -66 -77l-19 5q9 90 85 90q40 0 103 -44t96 -44q59 0 66 77z" />
    <glyph glyph-name="approxequal.tf" 
d="M426 392l19 -5q-9 -90 -85 -90q-40 0 -103 44t-96 44q-59 0 -66 -77l-19 5q9 90 85 90q40 0 103 -44t96 -44q59 0 66 77zM457 214l19 -5q-9 -90 -85 -90q-40 0 -103 44t-96 44q-59 0 -66 -77l-19 5q9 90 85 90q40 0 103 -44t96 -44q59 0 66 77z" />
    <glyph glyph-name="Delta.tf" 
d="M198 700h9l388 -690l1 -10h-542l-1 10zM568 18l-359 639l-134 -639h493z" />
    <glyph glyph-name="Euro.tf" 
d="M580 121l16 -13q-84 -118 -241 -118q-113 0 -198.5 76t-116.5 195h-86l-3 18h85q-9 43 -9 90q0 27 3 52h-104l-3 18h110q20 120 100.5 195.5t192.5 75.5q121 0 203 -88l-14 -13q-79 83 -188 83q-103 0 -178.5 -70.5t-95.5 -182.5h281l3 -18h-287q-3 -25 -3 -53
q0 -47 9 -89h306l3 -18h-304q29 -111 109 -182t184 -71q151 0 226 113z" />
    <glyph glyph-name="lozenge.tf" 
d="M204 670l-150 -316l269 -324l150 316zM33 355l164 345h9l286 -345l2 -10l-164 -345h-9l-286 345z" />
    <glyph glyph-name="divide.tf" 
d="M341 85q0 -14 -10.5 -24.5t-24.5 -10.5t-24.5 10.5t-10.5 24.5t10.5 24.5t24.5 10.5t24.5 -10.5t10.5 -24.5zM279 435q0 -14 -10.5 -24.5t-24.5 -10.5t-24.5 10.5t-10.5 24.5t10.5 24.5t24.5 10.5t24.5 -10.5t10.5 -24.5zM477 251h-400l-3 18h400z" />
    <glyph glyph-name="quotedbl.tf" 
d="M331 465h-19l-42 235h19zM161 465h-19l-42 235h19z" />
    <glyph glyph-name="quotesingle.tf" 
d="M251 465h-19l-42 235h19z" />
    <glyph glyph-name="at.case" horiz-adv-x="1026" 
d="M499 145q-87 0 -148.5 59t-61.5 145q0 79 53.5 132.5t134.5 53.5t140 -59l-9 50h20l48 -273q15 -90 89 -90q65 0 100 63t35 155q0 165 -120 273t-283 108q-112 0 -208 -56t-152.5 -153.5t-56.5 -212.5q0 -176 123 -299t295 -123q135 0 241 82l11 -16q-109 -84 -253 -84
q-181 0 -309 129t-128 311t128 311t309 129q114 0 210.5 -51.5t154.5 -143.5t58 -204q0 -97 -39 -166.5t-116 -69.5q-78 0 -103 82q-63 -82 -163 -82zM656 251l-33 195q-59 71 -146 71q-72 0 -120 -48t-48 -120q0 -78 56 -132t134 -54q52 0 92.5 25.5t64.5 62.5z" />
    <glyph glyph-name="amacron.ss01" horiz-adv-x="496" 
d="M82 571h240v-18h-240v18zM396 224l-8 42q-14 73 -41 106q-39 50 -119 50q-77 0 -135 -56l-13 12q21 23 62 42.5t86 19.5q91 0 134 -56q32 -38 46 -119l46 -265h-19l-16 92q-20 -45 -65 -73.5t-104 -28.5q-70 0 -119 40t-49 104q0 62 51 98t119 36q77 0 144 -44zM413 126
l-12 73q-71 51 -149 51q-63 0 -106.5 -33t-43.5 -83q0 -58 44.5 -92t103.5 -34q64 0 108 34.5t55 83.5z" />
    <glyph glyph-name="abreve.ss01" horiz-adv-x="496" 
d="M290 635h18q0 -47 -34 -81t-81 -34t-81 34t-34 81h18q0 -41 28 -69t69 -28t69 28t28 69zM396 224l-8 42q-14 73 -41 106q-39 50 -119 50q-77 0 -135 -56l-13 12q21 23 62 42.5t86 19.5q91 0 134 -56q32 -38 46 -119l46 -265h-19l-16 92q-20 -45 -65 -73.5t-104 -28.5
q-70 0 -119 40t-49 104q0 62 51 98t119 36q77 0 144 -44zM413 126l-12 73q-71 51 -149 51q-63 0 -106.5 -33t-43.5 -83q0 -58 44.5 -92t103.5 -34q64 0 108 34.5t55 83.5z" />
    <glyph glyph-name="aogonek.ss01" horiz-adv-x="496" 
d="M396 224l-8 42q-14 73 -41 106q-39 50 -119 50q-77 0 -135 -56l-13 12q21 23 62 42.5t86 19.5q91 0 134 -56q32 -38 46 -119l46 -265q-32 -51 -32 -105q0 -43 22 -70t61 -27q26 0 42 8l5 -17q-18 -9 -45 -9q-50 0 -77.5 31.5t-27.5 81.5q0 56 32 108l-15 91
q-20 -45 -65 -73.5t-104 -28.5q-70 0 -119 40t-49 104q0 62 51 98t119 36q77 0 144 -44zM413 126l-12 73q-71 51 -149 51q-63 0 -106.5 -33t-43.5 -83q0 -58 44.5 -92t103.5 -34q64 0 108 34.5t55 83.5z" />
    <glyph glyph-name="aringacute.ss01" horiz-adv-x="496" 
d="M147 590q0 33 23.5 56.5t56.5 23.5t56.5 -23.5t23.5 -56.5t-23.5 -56.5t-56.5 -23.5t-56.5 23.5t-23.5 56.5zM165 590q0 -26 18.5 -44t43.5 -18t43.5 18t18.5 44t-18.5 44t-43.5 18t-43.5 -18t-18.5 -44zM237 830h22l-97 -130h-22zM396 224l-8 42q-14 73 -41 106
q-39 50 -119 50q-77 0 -135 -56l-13 12q21 23 62 42.5t86 19.5q91 0 134 -56q32 -38 46 -119l46 -265h-19l-16 92q-20 -45 -65 -73.5t-104 -28.5q-70 0 -119 40t-49 104q0 62 51 98t119 36q77 0 144 -44zM413 126l-12 73q-71 51 -149 51q-63 0 -106.5 -33t-43.5 -83
q0 -58 44.5 -92t103.5 -34q64 0 108 34.5t55 83.5z" />
    <glyph glyph-name="aeacute.ss01" horiz-adv-x="857" 
d="M449 640h22l-97 -130h-22zM797 75l13 -14q-67 -71 -173 -71q-134 0 -200 107l17 -97h-19l-16 92q-20 -45 -65 -73.5t-104 -28.5q-70 0 -119 40t-49 104q0 62 51 98t119 36q77 0 144 -44l-8 42q-14 73 -41 106q-39 50 -119 50q-77 0 -135 -56l-13 12q21 23 62 42.5
t86 19.5q91 0 134 -56q30 -36 44 -108q14 72 67 118t126 46q86 0 145.5 -60.5t67.5 -151.5h-393q0 -97 63 -158.5t155 -61.5q95 0 160 67zM413 126l-12 73q-71 51 -149 51q-63 0 -106.5 -33t-43.5 -83q0 -58 44.5 -92t103.5 -34q64 0 108 34.5t55 83.5zM599 422
q-73 0 -122.5 -50t-56.5 -126h370q-14 77 -66.5 126.5t-124.5 49.5z" />
    <glyph glyph-name="asterisk.ss06" horiz-adv-x="490" 
d="M245 320h-19l-35 196l-176 -61l-6 18l170 58l-141 161l14 12l139 -159l91 159l16 -9l-90 -159l205 -64l-6 -17l-198 62z" />
    <glyph glyph-name="asterisk.ss07" horiz-adv-x="490" 
d="M10 501l-3 18h175l-112 146l16 12l114 -146l60 146l19 -8l-62 -150h175l3 -18h-175l112 -146l-16 -12l-114 146l-60 -146l-19 8l62 150h-175z" />
    <glyph glyph-name="asterisk.ss08" horiz-adv-x="490" 
d="M227 519h165l3 -18h-165zM175 501h-165l-3 18h165zM316 343l-108 138l18 12l106 -138zM123 351l59 142l17 -12l-57 -138zM204 539l56 138l19 -8l-58 -142zM176 527l-105 138l15 12l108 -138z" />
    <glyph glyph-name="asterisk.ss09" horiz-adv-x="490" 
d="M59 641l115 -98l-12 -14l-115 98zM215 541l97 118l14 -11l-97 -119zM224 320l-32 181h19l32 -181h-19zM176 700l32 -181h-19l-32 181h19zM192 501h-182l-3 18h182zM392 519l3 -18h-184l-3 18h184zM341 379l-115 98l12 14l115 -98zM186 479l-98 -118l-14 11l98 119z" />
    <glyph glyph-name="f.ss02" horiz-adv-x="392" 
d="M312 701l-8 -17q-35 18 -75 18q-51 0 -83 -29.5t-32 -74.5q0 -20 12 -92l13 -76h215l3 -18h-215l73 -412h-19l-73 412h-140l-3 18h140l-13 76q-12 65 -12 92q0 55 38 88.5t96 33.5q49 0 83 -19z" />
    <glyph glyph-name="j.ss02" horiz-adv-x="242" 
d="M117 430l88 -499q7 -38 7 -64q0 -48 -30.5 -82.5t-91.5 -34.5q-40 0 -68 16l7 17q34 -15 61 -15q50 0 76 27.5t26 71.5q0 31 -6 63l-88 500h19zM110 590q0 -13 -8.5 -21.5t-21.5 -8.5t-21.5 8.5t-8.5 21.5t8.5 21.5t21.5 8.5t21.5 -8.5t8.5 -21.5z" />
    <glyph glyph-name="t.ss02" horiz-adv-x="446" 
d="M111 560h19l24 -130h235l3 -18h-235l42 -241q12 -62 24 -87q41 -76 128 -76q49 0 81 18l9 -16q-38 -20 -90 -20q-103 0 -147 91q-13 28 -24 90l-42 241h-140l-3 18h140z" />
    <glyph glyph-name="fi.ss02" horiz-adv-x="603" 
d="M475 430l76 -430h-19l-73 412h-317l73 -412h-19l-73 412h-140l-3 18h140l-13 76q-12 65 -12 92q0 55 38 88.5t96 33.5q49 0 83 -19l-8 -17q-35 18 -75 18q-51 0 -83 -29.5t-32 -74.5q0 -20 12 -92l13 -76h336zM468 590q0 -13 -8.5 -21.5t-21.5 -8.5t-21.5 8.5t-8.5 21.5
t8.5 21.5t21.5 8.5t21.5 -8.5t8.5 -21.5z" />
    <glyph glyph-name="fl.ss02" horiz-adv-x="603" 
d="M312 701l-8 -17q-35 18 -75 18q-51 0 -83 -29.5t-32 -74.5q0 -20 12 -92l13 -76h317l-49 280h19l125 -710h-19l-73 412h-317l73 -412h-19l-73 412h-140l-3 18h140l-13 76q-12 65 -12 92q0 55 38 88.5t96 33.5q49 0 83 -19z" />
    <glyph glyph-name="uniFB00.ss02" horiz-adv-x="784" 
d="M704 701l-8 -17q-34 18 -75 18q-51 0 -83 -29.5t-32 -74.5q0 -20 12 -92l13 -76h215l3 -18h-215l73 -412h-19l-73 412h-373l73 -412h-19l-73 412h-140l-3 18h140l-13 76q-12 65 -12 92q0 55 38 88.5t96 33.5q49 0 83 -19l-8 -17q-35 18 -75 18q-51 0 -83 -29.5t-32 -74.5
q0 -20 12 -92l13 -76h373l-13 76q-12 65 -12 92q0 55 38 88.5t96 33.5q49 0 83 -19z" />
    <glyph glyph-name="uniFB03.ss02" horiz-adv-x="995" 
d="M860 590q0 -13 -8.5 -21.5t-21.5 -8.5t-21.5 8.5t-8.5 21.5t8.5 21.5t21.5 8.5t21.5 -8.5t8.5 -21.5zM867 430l76 -430h-19l-73 412h-317l73 -412h-19l-73 412h-373l73 -412h-19l-73 412h-140l-3 18h140l-13 76q-12 65 -12 92q0 55 38 88.5t96 33.5q49 0 83 -19l-8 -17
q-35 18 -75 18q-51 0 -83 -29.5t-32 -74.5q0 -20 12 -92l13 -76h373l-13 76q-12 65 -12 92q0 55 38 88.5t96 33.5q49 0 83 -19l-8 -17q-34 18 -75 18q-51 0 -83 -29.5t-32 -74.5q0 -20 12 -92l13 -76h336z" />
    <glyph glyph-name="uniFB04.ss02" horiz-adv-x="995" 
d="M924 0l-73 412h-317l73 -412h-19l-73 412h-373l73 -412h-19l-73 412h-140l-3 18h140l-13 76q-12 65 -12 92q0 55 38 88.5t96 33.5q49 0 83 -19l-8 -17q-35 18 -75 18q-51 0 -83 -29.5t-32 -74.5q0 -20 12 -92l13 -76h373l-13 76q-12 65 -12 92q0 55 38 88.5t96 33.5
q49 0 83 -19l-8 -17q-34 18 -75 18q-51 0 -83 -29.5t-32 -74.5q0 -20 12 -92l13 -76h317l-49 280h19l125 -710h-19z" />
    <glyph glyph-name="tbar.ss02" horiz-adv-x="446" 
d="M111 560h19l24 -130h235l3 -18h-235l29 -167h235l3 -18h-235l10 -56q12 -62 24 -87q41 -76 128 -76q49 0 81 18l9 -16q-38 -20 -90 -20q-103 0 -147 91q-13 28 -24 90l-10 56h-140l-3 18h140l-29 167h-140l-3 18h140z" />
    <glyph glyph-name="ij.ss02" horiz-adv-x="448" 
d="M71 590q0 -13 -8.5 -21.5t-21.5 -8.5t-21.5 8.5t-8.5 21.5t8.5 21.5t21.5 8.5t21.5 -8.5t8.5 -21.5zM59 430h19l76 -430h-19zM323 430l88 -499q7 -39 7 -64q0 -48 -30.5 -82.5t-91.5 -34.5q-40 0 -68 16l7 17q34 -15 61 -15q50 0 76 27.5t26 71.5q0 31 -6 63l-88 500h19z
M316 590q0 -13 -8.5 -21.5t-21.5 -8.5t-21.5 8.5t-8.5 21.5t8.5 21.5t21.5 8.5t21.5 -8.5t8.5 -21.5z" />
    <glyph glyph-name="tcommaaccent.ss02" horiz-adv-x="446" 
d="M347 -40h22l-97 -130h-22zM111 560h19l24 -130h235l3 -18h-235l42 -241q12 -62 24 -87q41 -76 128 -76q49 0 81 18l9 -16q-38 -20 -90 -20q-103 0 -147 91q-13 28 -24 90l-42 241h-140l-3 18h140z" />
    <glyph glyph-name="tcaron.ss02" horiz-adv-x="446" 
d="M286 700h22l-97 -130h-22zM111 560h19l24 -130h235l3 -18h-235l42 -241q12 -62 24 -87q41 -76 128 -76q49 0 81 18l9 -16q-38 -20 -90 -20q-103 0 -147 91q-13 28 -24 90l-42 241h-140l-3 18h140z" />
    <glyph glyph-name="jcircumflex.ss02" horiz-adv-x="242" 
d="M117 430l88 -499q7 -38 7 -64q0 -48 -30.5 -82.5t-91.5 -34.5q-40 0 -68 16l7 17q34 -15 61 -15q50 0 76 27.5t26 71.5q0 31 -6 63l-88 500h19zM48 640h31l125 -130h-28l-113 118l-72 -118h-22z" />
    <glyph glyph-name="uni0237.ss02" horiz-adv-x="242" 
d="M117 430l88 -499q7 -38 7 -64q0 -48 -30.5 -82.5t-91.5 -34.5q-40 0 -68 16l7 17q34 -15 61 -15q50 0 76 27.5t26 71.5q0 31 -6 63l-88 500h19z" />
    <glyph glyph-name="r.ss02" horiz-adv-x="337" 
d="M277 439l-3 -18q-7 1 -15 1q-119 0 -159 -112l54 -310h-19l-76 430h19l16 -90q47 100 165 100q11 0 18 -1z" />
    <glyph glyph-name="racute.ss02" horiz-adv-x="337" 
d="M196 640h22l-97 -130h-22zM277 439l-3 -18q-7 1 -15 1q-119 0 -159 -112l54 -310h-19l-76 430h19l16 -90q47 100 165 100q11 0 18 -1z" />
    <glyph glyph-name="rcaron.ss02" horiz-adv-x="337" 
d="M147 520h-31l-125 130h28l113 -118l72 118h22zM277 439l-3 -18q-7 1 -15 1q-119 0 -159 -112l54 -310h-19l-76 430h19l16 -90q47 100 165 100q11 0 18 -1z" />
    <glyph glyph-name="rcommaaccent.ss02" horiz-adv-x="337" 
d="M142 -40h22l-97 -130h-22zM277 439l-3 -18q-7 1 -15 1q-119 0 -159 -112l54 -310h-19l-76 430h19l16 -90q47 100 165 100q11 0 18 -1z" />
    <glyph glyph-name="one.numr" horiz-adv-x="202" 
d="M42 673l-78 -49l-4 19l88 57h10l64 -360h-21z" />
    </font>
</defs>
</svg>
