<?xml version="1.0" standalone="no"?>
<!DOCTYPE svg PUBLIC "-//W3C//DTD SVG 1.1//EN" "http://www.w3.org/Graphics/SVG/1.1/DTD/svg11.dtd" >
<svg xmlns="http://www.w3.org/2000/svg" xmlns:xlink="http://www.w3.org/1999/xlink" version="1.1">
<metadata>
Created by FontForge 20170731 at Tue May 18 13:15:41 2010
 By Aleksey,,,
Generated in 2010 by FontLab Studio. Copyright info pending.
</metadata>
<defs>
<font id="Brown-RegularBackslantedAlt" horiz-adv-x="590" >
  <font-face 
    font-family="Brown"
    font-weight="400"
    font-style="oblique"
    font-stretch="normal"
    units-per-em="1000"
    panose-1="0 0 0 0 0 0 0 0 0 0"
    ascent="800"
    descent="-200"
    x-height="460"
    cap-height="700"
    bbox="-136 -250 1365 1110"
    underline-thickness="80"
    underline-position="-260"
    slope="10"
    unicode-range="U+0020-FB04"
  />
<missing-glyph horiz-adv-x="539" 
d="M75 0v700h389v-700h-389zM170 610v-520h199v520h-199z" />
    <glyph glyph-name="uniFB00" unicode="ff" horiz-adv-x="766" 
d="M668 715l-14 -88q-15 3 -37 3q-40 0 -61.5 -22t-21.5 -61q0 -14 7 -57l5 -30h150l15 -85h-150l66 -375h-96l-66 375h-254l66 -375h-96l-66 375h-120l-15 85h120l-5 30q-7 38 -7 66q0 72 50.5 118t124.5 46q28 0 55 -5l-14 -88q-15 3 -37 3q-40 0 -61.5 -22t-21.5 -61
q0 -14 7 -57l5 -30h254l-5 30q-7 38 -7 66q0 72 50.5 118t124.5 46q28 0 55 -5z" />
    <glyph glyph-name="fi" unicode="fi" horiz-adv-x="659" 
d="M318 715l-14 -88q-15 3 -37 3q-40 0 -61.5 -22t-21.5 -61q0 -14 7 -57l5 -30h345l81 -460h-96l-66 375h-249l66 -375h-96l-66 375h-120l-15 85h120l-5 30q-7 38 -7 66q0 72 50.5 118t124.5 46q28 0 55 -5zM528 627q0 -26 -18 -44t-44 -18t-44.5 18t-18.5 44t18.5 44.5
t44.5 18.5t44 -18.5t18 -44.5z" />
    <glyph glyph-name="fl" unicode="fl" horiz-adv-x="659" 
d="M622 0h-96l-66 375h-249l66 -375h-96l-66 375h-120l-15 85h120l-5 30q-7 38 -7 66q0 72 50.5 118t124.5 46q28 0 55 -5l-14 -88q-15 3 -37 3q-40 0 -61.5 -22t-21.5 -61q0 -14 7 -57l5 -30h249l-44 250h96z" />
    <glyph glyph-name="uniFB03" unicode="ffi" horiz-adv-x="1009" 
d="M668 715l-14 -88q-15 3 -37 3q-40 0 -61.5 -22t-21.5 -61q0 -14 7 -57l5 -30h345l81 -460h-96l-66 375h-249l66 -375h-96l-66 375h-254l66 -375h-96l-66 375h-120l-15 85h120l-5 30q-7 38 -7 66q0 72 50.5 118t124.5 46q28 0 55 -5l-14 -88q-15 3 -37 3q-40 0 -61.5 -22
t-21.5 -61q0 -14 7 -57l5 -30h254l-5 30q-7 38 -7 66q0 72 50.5 118t124.5 46q28 0 55 -5zM878 627q0 -26 -18 -44t-44 -18t-44.5 18t-18.5 44t18.5 44.5t44.5 18.5t44 -18.5t18 -44.5z" />
    <glyph glyph-name="uniFB04" unicode="ffl" horiz-adv-x="1009" 
d="M668 715l-14 -88q-15 3 -37 3q-40 0 -61.5 -22t-21.5 -61q0 -14 7 -57l5 -30h249l-44 250h96l125 -710h-96l-66 375h-249l66 -375h-96l-66 375h-254l66 -375h-96l-66 375h-120l-15 85h120l-5 30q-7 38 -7 66q0 72 50.5 118t124.5 46q28 0 55 -5l-14 -88q-15 3 -37 3
q-40 0 -61.5 -22t-21.5 -61q0 -14 7 -57l5 -30h254l-5 30q-7 38 -7 66q0 72 50.5 118t124.5 46q28 0 55 -5z" />
    <glyph glyph-name=".notdef" horiz-adv-x="539" 
d="M75 0v700h389v-700h-389zM170 610v-520h199v520h-199z" />
    <glyph glyph-name=".null" horiz-adv-x="0" 
 />
    <glyph glyph-name="nonmarkingreturn" horiz-adv-x="333" 
 />
    <glyph glyph-name="space" unicode=" " horiz-adv-x="260" 
 />
    <glyph glyph-name="exclam" unicode="!" horiz-adv-x="345" 
d="M179 460l28 -240h-66l-58 240l-42 240h96zM273 60q0 -29 -20.5 -49.5t-49.5 -20.5t-49.5 20.5t-20.5 49.5t20.5 49.5t49.5 20.5t49.5 -20.5t20.5 -49.5z" />
    <glyph glyph-name="quotedbl" unicode="&#x22;" horiz-adv-x="462" 
d="M301 700l26 -245h-66l-56 245h96zM101 700l26 -245h-66l-56 245h96z" />
    <glyph glyph-name="numbersign" unicode="#" horiz-adv-x="664" 
d="M560 195h-126l-53 -195h-93l53 195h-137l-53 -195h-93l53 195h-87l-14 90h125l34 130h-88l-15 90h127l53 195h93l-53 -195h137l53 195h93l-53 -195h87l15 -90h-126l-34 -130h87zM262 415l-34 -130h137l34 130h-137z" />
    <glyph glyph-name="dollar" unicode="$" horiz-adv-x="536" 
d="M48 97l70 68q73 -80 160 -80q44 0 78.5 27t34.5 72q0 38 -21 65.5t-54.5 43.5t-74.5 29t-81.5 28.5t-74 36t-54.5 57t-21 85.5q0 60 37.5 105t97.5 64l-21 117h95l19 -106q96 -5 159 -66l-61 -76q-49 48 -114 48q-42 0 -77 -22.5t-35 -63.5q0 -33 28 -57.5t70.5 -38
t92 -33.5t92 -43t70.5 -67.5t28 -105.5q0 -62 -35.5 -109.5t-93.5 -69.5l21 -120h-95l-19 105q-125 4 -221 107z" />
    <glyph glyph-name="percent" unicode="%" horiz-adv-x="863" 
d="M269 517q0 46 -30 77t-72 31q-39 0 -63 -26t-24 -66q0 -46 30 -77t72 -31q39 0 63 26t24 66zM183 340q-83 0 -138 56t-55 142q0 72 51 122t125 50q83 0 138 -56t55 -142q0 -72 -51 -122t-125 -50zM743 167q0 46 -30 77t-72 31q-39 0 -63 -26t-24 -66q0 -46 30 -77t72 -31
q39 0 63 26t24 66zM657 -10q-83 0 -138 56t-55 142q0 72 51 122t125 50q83 0 138 -56t55 -142q0 -72 -51 -122t-125 -50zM307 0h-79l288 700h79z" />
    <glyph glyph-name="ampersand" unicode="&#x26;" horiz-adv-x="698" 
d="M582 145l171 -145h-140l-83 71q-81 -81 -205 -81q-104 0 -182 61t-78 164q0 97 85 180q-49 43 -74.5 81.5t-25.5 83.5q0 64 45.5 107t113.5 43q64 0 113 -45t49 -112q0 -79 -81 -160l216 -183q5 22 5 41q0 83 -47 161l89 30q53 -94 53 -192q0 -52 -24 -105zM160 215
q0 -59 47.5 -97t117.5 -38q81 0 134 51l-238 203q-61 -57 -61 -119zM276 552q0 29 -19.5 48.5t-47.5 19.5q-29 0 -46.5 -18t-17.5 -43q0 -43 74 -106q57 52 57 99z" />
    <glyph glyph-name="quotesingle" unicode="'" horiz-adv-x="262" 
d="M101 700l26 -245h-66l-56 245h96z" />
    <glyph glyph-name="parenleft" unicode="(" horiz-adv-x="450" 
d="M459 -150l-72 -60q-230 264 -230 563q0 197 87 357l80 -48q-72 -149 -72 -309q0 -137 55 -266.5t152 -236.5z" />
    <glyph glyph-name="parenright" unicode=")" horiz-adv-x="450" 
d="M-14 650l72 60q230 -264 230 -563q0 -197 -87 -357l-80 48q72 149 72 309q0 137 -55 266.5t-152 236.5z" />
    <glyph glyph-name="asterisk" unicode="*" horiz-adv-x="500" 
d="M158 549l-26 151h81l27 -156l149 51l26 -75l-136 -48l105 -115l-59 -54l-105 116l-68 -116l-69 39l72 124l-163 53l24 76z" />
    <glyph glyph-name="plus" unicode="+" horiz-adv-x="550" 
d="M239 210h-170l-16 90h170l-30 170h90l30 -170h170l16 -90h-170l29 -170h-90z" />
    <glyph glyph-name="comma" unicode="," horiz-adv-x="340" 
d="M148 120h107l-95 -260h-65z" />
    <glyph glyph-name="hyphen" unicode="-" horiz-adv-x="453" 
d="M71 295h290l14 -80h-290z" />
    <glyph glyph-name="period" unicode="." horiz-adv-x="340" 
d="M125 60q0 29 20.5 49.5t49.5 20.5t49.5 -20.5t20.5 -49.5t-20.5 -49.5t-49.5 -20.5t-49.5 20.5t-20.5 49.5z" />
    <glyph glyph-name="slash" unicode="/" horiz-adv-x="308" 
d="M98 0h-93l205 700h93z" />
    <glyph glyph-name="zero" unicode="0" horiz-adv-x="612" 
d="M245 615q-108 0 -108 -158q0 -58 11.5 -120t34 -120t61.5 -95t88 -37q108 0 108 158q0 58 -11.5 120t-34 120t-61.5 95t-88 37zM332 -10q-75 0 -134 43t-92.5 113t-51 149.5t-17.5 161.5q0 116 53.5 184.5t154.5 68.5q75 0 134 -43t92.5 -113t51 -149.5t17.5 -161.5
q0 -117 -52.5 -185t-155.5 -68z" />
    <glyph glyph-name="one" unicode="1" horiz-adv-x="406" 
d="M333 0h-99l-102 581l-123 -68l-16 93l148 94h69z" />
    <glyph glyph-name="two" unicode="2" horiz-adv-x="534" 
d="M86 522l-91 39q27 77 85.5 113t118.5 36q102 0 164 -67t62 -156q0 -86 -76 -193l-140 -199h278l17 -95h-421l-11 65l197 281q56 81 56 141q0 52 -33.5 90t-86.5 38q-42 0 -74.5 -27t-44.5 -66z" />
    <glyph glyph-name="three" unicode="3" horiz-adv-x="566" 
d="M391 635l-122 -170q98 -5 167.5 -74.5t69.5 -171.5q0 -99 -65 -164t-167 -65q-142 0 -220 114l79 54q51 -73 137 -73q60 0 98 37t38 97q0 72 -49 114t-125 42q-49 0 -91 -11l-11 65l126 176h-249l-17 95h389z" />
    <glyph glyph-name="four" unicode="4" horiz-adv-x="597" 
d="M300 700h69l77 -435h109l16 -95h-109l30 -170h-99l-30 170h-342l-11 65zM145 265h201l-45 251z" />
    <glyph glyph-name="five" unicode="5" horiz-adv-x="559" 
d="M56 700h345l17 -95h-262v-151q44 16 90 16q107 0 178 -72.5t71 -178.5q0 -98 -65 -163.5t-165 -65.5q-127 0 -205 91l73 63q55 -59 129 -59q59 0 96 36.5t37 97.5q0 63 -42 110.5t-105 47.5q-64 0 -122 -42h-70v365z" />
    <glyph glyph-name="six" unicode="6" horiz-adv-x="598" 
d="M229 700h103l-98 -241q32 8 62 8q101 0 171.5 -70.5t70.5 -175.5q0 -98 -67 -164.5t-165 -66.5q-110 0 -178 72t-68 169q0 60 31 136zM281 375q-49 0 -95 -32q-28 -59 -28 -109q0 -63 43 -106t103 -43q57 0 95.5 39t38.5 97q0 67 -43.5 110.5t-113.5 43.5z" />
    <glyph glyph-name="seven" unicode="7" horiz-adv-x="481" 
d="M204 0h-100l193 605h-325l-17 95h439l12 -65z" />
    <glyph glyph-name="eight" unicode="8" horiz-adv-x="594" 
d="M442 513q0 -62 -41 -108q60 -28 95.5 -83t35.5 -125q0 -85 -63.5 -146t-158.5 -61q-101 0 -171.5 69t-70.5 169q0 91 72 150q-86 56 -86 159q0 72 53.5 122.5t132.5 50.5q84 0 143 -56.5t59 -140.5zM168 223q0 -56 42 -97t100 -41q54 0 88 33t34 84q0 56 -42 97t-100 41
q-54 0 -88 -33t-34 -84zM154 532q0 -40 30 -68.5t72 -28.5q38 0 62 23.5t24 59.5q0 40 -30 68.5t-72 28.5q-38 0 -62 -23.5t-24 -59.5z" />
    <glyph glyph-name="nine" unicode="9" horiz-adv-x="583" 
d="M329 0h-103l98 241q-32 -8 -62 -8q-101 0 -171.5 70.5t-70.5 175.5q0 98 67 164.5t165 66.5q110 0 178 -72t68 -169q0 -60 -31 -136zM277 325q49 0 95 32q28 59 28 109q0 63 -43 106t-103 43q-57 0 -95.5 -39t-38.5 -97q0 -67 43.5 -110.5t113.5 -43.5z" />
    <glyph glyph-name="colon" unicode=":" horiz-adv-x="340" 
d="M265 60q0 -29 -20.5 -49.5t-49.5 -20.5t-49.5 20.5t-20.5 49.5t20.5 49.5t49.5 20.5t49.5 -20.5t20.5 -49.5zM203 400q0 -29 -20.5 -49.5t-49.5 -20.5t-49.5 20.5t-20.5 49.5t20.5 49.5t49.5 20.5t49.5 -20.5t20.5 -49.5z" />
    <glyph glyph-name="semicolon" unicode=";" horiz-adv-x="340" 
d="M203 400q0 -29 -20.5 -49.5t-49.5 -20.5t-49.5 20.5t-20.5 49.5t20.5 49.5t49.5 20.5t49.5 -20.5t20.5 -49.5zM148 120h107l-95 -260h-65z" />
    <glyph glyph-name="less" unicode="&#x3c;" horiz-adv-x="540" 
d="M46 225l-11 60l407 188l16 -92l-258 -119l301 -120l18 -105z" />
    <glyph glyph-name="equal" unicode="=" horiz-adv-x="550" 
d="M515 120h-430l-16 90h430zM483 300h-430l-16 90h430z" />
    <glyph glyph-name="greater" unicode="&#x3e;" horiz-adv-x="540" 
d="M496 285l11 -60l-407 -188l-16 92l258 119l-301 120l-18 105z" />
    <glyph glyph-name="question" unicode="?" horiz-adv-x="505" 
d="M80 539l-90 26q17 67 74 106t128 39q83 0 141.5 -55t58.5 -135q0 -49 -21 -89.5t-45.5 -62t-45.5 -44.5t-21 -41q0 -24 34 -48l-63 -66q-66 48 -66 116q0 37 21 68t45.5 50.5t45.5 50t21 66.5q0 42 -30 71t-75 29t-75 -24.5t-37 -56.5zM205 60q0 29 20.5 49.5t49.5 20.5
t49.5 -20.5t20.5 -49.5t-20.5 -49.5t-49.5 -20.5t-49.5 20.5t-20.5 49.5z" />
    <glyph glyph-name="at" unicode="@" horiz-adv-x="1000" 
d="M483 380q-53 0 -87 -34t-34 -86q0 -63 44.5 -101.5t103.5 -38.5q31 0 62 14.5t49 36.5l-29 163q-44 46 -109 46zM505 35q-95 0 -164.5 64.5t-69.5 159.5q0 96 69 157q56 49 134 49q42 0 74 -22.5t39 -54.5l-11 67h84l44 -253q8 -49 21 -65q14 -17 36 -17q35 0 57 42.5
t22 112.5q0 143 -93 236.5t-241 93.5q-143 0 -244.5 -104t-101.5 -251t101.5 -251t245.5 -104q112 0 205 69l48 -70q-109 -84 -253 -84q-181 0 -309 129t-128 311t128 311t309 129q182 0 302.5 -117t120.5 -298q0 -102 -47.5 -171t-123.5 -69q-82 0 -120 77
q-13 -32 -50 -54.5t-84 -22.5z" />
    <glyph glyph-name="A" unicode="A" horiz-adv-x="643" 
d="M683 0h-112l-105 180h-290l-43 -180h-99l167 700h69zM410 275l-151 257l-61 -257h212z" />
    <glyph glyph-name="B" unicode="B" horiz-adv-x="634" 
d="M7 700h261q66 0 108 -21q48 -24 77 -72t29 -105q0 -50 -28 -94q63 -25 101.5 -82.5t38.5 -127.5q0 -83 -57 -140.5t-141 -57.5h-266zM155 425h129q49 0 70 18q28 23 28 65q0 48 -40 78q-24 19 -73 19h-146zM171 330l41 -235h167q66 0 96 42q19 28 19 67q0 62 -50 100
q-32 26 -91 26h-182z" />
    <glyph glyph-name="C" unicode="C" horiz-adv-x="705" 
d="M410 -10q-163 0 -273 110.5t-110 268.5q0 145 98.5 243t249.5 98q124 0 226 -79l-56 -77q-75 61 -167 61q-105 0 -178 -70t-73 -176q0 -118 80.5 -201t202.5 -83q133 0 212 99l78 -57q-48 -66 -125 -101.5t-165 -35.5z" />
    <glyph glyph-name="D" unicode="D" horiz-adv-x="731" 
d="M213 95h101q120 0 185 66q65 67 65 170q0 111 -81 192q-84 82 -216 82h-144zM314 0h-184l-123 700h259q181 0 288 -110q110 -112 110 -260q0 -142 -92 -236q-94 -94 -258 -94z" />
    <glyph glyph-name="E" unicode="E" horiz-adv-x="545" 
d="M540 0h-410l-123 700h400l17 -95h-302l32 -180h231l17 -95h-232l42 -235h311z" />
    <glyph glyph-name="F" unicode="F" horiz-adv-x="504" 
d="M229 0h-99l-123 700h400l17 -95h-302l32 -180h231l17 -95h-232z" />
    <glyph glyph-name="G" unicode="G" horiz-adv-x="750" 
d="M348 425h299l53 -298q-46 -65 -118 -101t-162 -36q-164 0 -278.5 111t-114.5 268q0 146 97.5 243.5t245.5 97.5q130 0 233 -88l-65 -68q-75 61 -168 61q-105 0 -174 -70t-69 -176q0 -117 85 -200.5t208 -83.5q103 0 176 68l-32 177h-200z" />
    <glyph glyph-name="H" unicode="H" horiz-adv-x="762" 
d="M715 0h-99l-58 330h-387l58 -330h-99l-123 700h99l49 -275h387l-49 275h99z" />
    <glyph glyph-name="I" unicode="I" horiz-adv-x="276" 
d="M229 0h-99l-123 700h99z" />
    <glyph glyph-name="J" unicode="J" horiz-adv-x="459" 
d="M25 89l82 52q37 -56 98 -56q39 0 61.5 24.5t22.5 66.5q0 21 -4 39l-85 485h99l86 -490q4 -28 4 -41q0 -80 -51 -129.5t-130 -49.5q-58 0 -106.5 25.5t-76.5 73.5z" />
    <glyph glyph-name="K" unicode="K" horiz-adv-x="645" 
d="M229 0h-99l-123 700h99l52 -297l260 297h129l-273 -314l426 -386h-144l-389 351z" />
    <glyph glyph-name="L" unicode="L" horiz-adv-x="525" 
d="M540 0h-410l-123 700h99l106 -605h311z" />
    <glyph glyph-name="M" unicode="M" horiz-adv-x="847" 
d="M800 0h-99l-83 478l-144 -328h-69l-257 312l81 -462h-99l-123 700h69l348 -425l184 425h69z" />
    <glyph glyph-name="N" unicode="N" horiz-adv-x="768" 
d="M652 0l-512 505l89 -505h-99l-123 700h69l512 -504l-89 504h99l123 -700h-69z" />
    <glyph glyph-name="O" unicode="O" horiz-adv-x="810" 
d="M366 615q-104 0 -172 -69q-67 -68 -67 -177q0 -115 84 -199q87 -85 193 -85q104 0 172 69q67 68 67 177q0 115 -84 199q-87 85 -193 85zM405 -10q-73 0 -142 29.5t-123 83.5q-113 116 -113 267q0 146 95 243q97 97 243 97q73 0 142 -29.5t123 -83.5q113 -116 113 -267
q0 -146 -95 -243q-97 -97 -243 -97z" />
    <glyph glyph-name="P" unicode="P" horiz-adv-x="600" 
d="M229 0h-99l-123 700h287q70 0 114 -22q51 -26 81.5 -76t30.5 -111q0 -93 -76 -148q-46 -33 -126 -33h-144zM295 605h-172l35 -200h154q54 0 77 20q31 26 31 72q0 54 -44 87q-27 21 -81 21z" />
    <glyph glyph-name="Q" unicode="Q" horiz-adv-x="815" 
d="M405 -10q-73 0 -142 29.5t-123 83.5q-113 116 -113 267q0 146 95 243q97 97 243 97q73 0 142 -29.5t123 -83.5q113 -116 113 -267q0 -108 -56 -195l139 -135h-132l-68 66q-93 -76 -221 -76zM404 283l62 67l148 -144q29 58 29 125q0 115 -84 199q-87 85 -193 85
q-104 0 -172 -69q-67 -68 -67 -177q0 -115 84 -199q87 -85 193 -85q87 0 151 50z" />
    <glyph glyph-name="R" unicode="R" horiz-adv-x="646" 
d="M229 0h-99l-123 700h275q66 0 108 -21q48 -24 77 -71.5t29 -105.5q0 -89 -72 -141q-25 -19 -59 -26l311 -335h-132l-308 330h-65zM283 605h-160l31 -180h144q49 0 70 18q28 23 28 65q0 48 -40 78q-24 19 -73 19z" />
    <glyph glyph-name="S" unicode="S" horiz-adv-x="536" 
d="M48 97l70 68q73 -80 160 -80q44 0 78.5 27t34.5 72q0 38 -21 65.5t-54.5 43.5t-74.5 29t-81.5 28.5t-74 36t-54.5 57t-21 85.5q0 79 63.5 130t148.5 51q55 0 101 -19.5t74 -47.5l-61 -76q-49 48 -114 48q-42 0 -77 -22.5t-35 -63.5q0 -33 28 -57.5t70.5 -38t92 -33.5
t92 -43t70.5 -67.5t28 -105.5q0 -83 -62 -138.5t-150 -55.5q-129 0 -231 107z" />
    <glyph glyph-name="T" unicode="T" horiz-adv-x="504" 
d="M405 700l17 -95h-185l106 -605h-99l-106 605h-185l-17 95h469z" />
    <glyph glyph-name="U" unicode="U" horiz-adv-x="726" 
d="M543 305l-70 395h99l68 -390q9 -52 9 -80q0 -103 -77 -171.5t-188 -68.5q-133 0 -213 74.5t-105 217.5l-73 418h99l73 -415q35 -200 213 -200q74 0 122.5 42t48.5 113q0 32 -6 65z" />
    <glyph glyph-name="V" unicode="V" horiz-adv-x="623" 
d="M441 700h100l-152 -700h-69l-398 700h111l296 -523z" />
    <glyph glyph-name="W" unicode="W" horiz-adv-x="963" 
d="M773 0h-69l-270 516l-82 -516h-69l-343 700h109l243 -501l79 501h69l265 -504l68 504h98z" />
    <glyph glyph-name="X" unicode="X" horiz-adv-x="647" 
d="M685 0h-129l-257 307l-144 -307h-110l177 377l-270 323h129l200 -239l111 239h110l-144 -309z" />
    <glyph glyph-name="Y" unicode="Y" horiz-adv-x="554" 
d="M386 700h106l-173 -380l56 -320h-99l-53 305l-321 395h124l231 -285z" />
    <glyph glyph-name="Z" unicode="Z" horiz-adv-x="588" 
d="M-8 605l-17 95h469l12 -65l-278 -540h393l17 -95h-521l-11 65l279 540h-343z" />
    <glyph glyph-name="bracketleft" unicode="[" horiz-adv-x="450" 
d="M243 -200l-158 900h251l16 -90h-155l126 -720h155l16 -90h-251z" />
    <glyph glyph-name="backslash" unicode="\" horiz-adv-x="565" 
d="M560 0h-106l-449 700h106z" />
    <glyph glyph-name="bracketright" unicode="]" horiz-adv-x="450" 
d="M202 700l158 -900h-251l-16 90h155l-126 720h-155l-16 90h251z" />
    <glyph glyph-name="asciicircum" unicode="^" 
d="M485 350h-108l-147 214l-71 -214h-94l115 350h65z" />
    <glyph glyph-name="underscore" unicode="_" horiz-adv-x="483" 
d="M63 0h440l14 -80h-440z" />
    <glyph glyph-name="grave" unicode="`" horiz-adv-x="310" 
d="M240 540h-65l-105 150h105z" />
    <glyph glyph-name="a" unicode="a" horiz-adv-x="596" 
d="M438 135l-32 190q-23 24 -57.5 39.5t-67.5 15.5q-61 0 -100 -37.5t-39 -97.5q0 -71 50.5 -118t119.5 -47q79 0 126 55zM264 470q62 0 97 -29t41 -66l-15 85h91l81 -460h-91l-17 95q0 -40 -39 -72.5t-110 -32.5q-62 0 -116 27q-66 34 -102.5 98t-36.5 135q0 91 63.5 155.5
t153.5 64.5z" />
    <glyph glyph-name="b" unicode="b" horiz-adv-x="598" 
d="M160 325l32 -190q23 -24 57.5 -39.5t67.5 -15.5q61 0 100 37.5t39 97.5q0 71 -50.5 118t-119.5 47q-79 0 -126 -55zM334 -10q-62 0 -97 29t-41 66l15 -85h-91l-125 710h96l61 -345q0 40 38 72.5t106 32.5q62 0 116 -27q66 -34 102.5 -98t36.5 -135q0 -91 -63.5 -155.5
t-153.5 -64.5z" />
    <glyph glyph-name="c" unicode="c" horiz-adv-x="524" 
d="M442 150l72 -61q-77 -99 -212 -99q-118 0 -192 81q-63 69 -63 170q0 99 68.5 164t170.5 65q106 0 179 -74l-66 -68q-47 52 -112 52q-59 0 -102 -38.5t-43 -100.5q0 -64 43 -110q46 -51 121 -51q81 0 136 70z" />
    <glyph glyph-name="d" unicode="d" horiz-adv-x="596" 
d="M438 135l-32 190q-23 24 -57.5 39.5t-67.5 15.5q-61 0 -100 -37.5t-39 -97.5q0 -71 50.5 -118t119.5 -47q79 0 126 55zM264 470q60 0 93.5 -29t39.5 -66l-59 335h96l125 -710h-91l-17 95q0 -40 -39 -72.5t-110 -32.5q-62 0 -116 27q-66 34 -102.5 98t-36.5 135
q0 91 63.5 155.5t153.5 64.5z" />
    <glyph glyph-name="e" unicode="e" horiz-adv-x="543" 
d="M270 389q-49 0 -83 -27.5t-46 -71.5h253q-11 44 -46 71.5t-78 27.5zM494 210h-353q11 -62 55 -99.5t108 -37.5q81 0 136 55l61 -58q-75 -80 -197 -80q-112 0 -184.5 72t-72.5 185q0 96 63.5 159.5t158.5 63.5q99 0 162.5 -71.5t63.5 -168.5q0 -12 -1 -20z" />
    <glyph glyph-name="f" unicode="f" horiz-adv-x="416" 
d="M318 715l-14 -88q-15 3 -37 3q-40 0 -61.5 -22t-21.5 -61q0 -14 7 -57l5 -30h150l15 -85h-150l66 -375h-96l-66 375h-120l-15 85h120l-5 30q-7 38 -7 66q0 72 50.5 118t124.5 46q28 0 55 -5z" />
    <glyph glyph-name="g" unicode="g" horiz-adv-x="596" 
d="M460 15l-14 80q0 -40 -38 -72.5t-106 -32.5q-62 0 -116 27q-66 34 -102.5 98t-36.5 135q0 91 63.5 155.5t153.5 64.5q57 0 91.5 -25.5t43.5 -60.5l-12 76h91l77 -438q6 -36 6 -63q0 -89 -60.5 -149t-163.5 -60q-70 0 -128 28.5t-90 64.5l65 68q65 -71 154 -71
q59 0 93.5 32t34.5 87q0 20 -6 56zM438 135l-32 190q-23 24 -57.5 39.5t-67.5 15.5q-61 0 -100 -37.5t-39 -97.5q0 -71 50.5 -118t119.5 -47q79 0 126 55z" />
    <glyph glyph-name="h" unicode="h" horiz-adv-x="602" 
d="M293 470q104 0 173 -75q47 -52 62 -142l44 -253h-96l-43 244q-12 66 -42 96q-40 40 -99 40q-77 0 -131 -65l55 -315h-96l-125 710h96l61 -345q0 44 41 74.5t100 30.5z" />
    <glyph glyph-name="i" unicode="i" horiz-adv-x="253" 
d="M122 627q0 -26 -18 -44t-44 -18t-44.5 18t-18.5 44t18.5 44.5t44.5 18.5t44 -18.5t18 -44.5zM39 460h96l81 -460h-96z" />
    <glyph glyph-name="j" unicode="j" horiz-adv-x="266" 
d="M12 -245l13 89q16 -4 41 -4q78 0 78 83q0 14 -7 57l-85 480h96l85 -480q7 -38 7 -66q0 -75 -47.5 -119.5t-128.5 -44.5q-29 0 -52 5zM135 627q0 -26 -18 -44t-44 -18t-44.5 18t-18.5 44t18.5 44.5t44.5 18.5t44 -18.5t18 -44.5z" />
    <glyph glyph-name="k" unicode="k" horiz-adv-x="551" 
d="M216 0h-96l-125 710h96l74 -424l172 174h129l-192 -192l312 -268h-137l-274 232z" />
    <glyph glyph-name="l" unicode="l" horiz-adv-x="253" 
d="M216 0h-96l-125 710h96z" />
    <glyph glyph-name="m" unicode="m" horiz-adv-x="946" 
d="M285 470q105 0 177 -79q73 79 173 79q105 0 174 -75q48 -53 63 -142l44 -253h-96l-43 244q-11 64 -43 96q-40 40 -100 40q-33 0 -68 -19.5t-58 -50.5q10 -32 14 -57l44 -253h-96l-43 244q-11 64 -43 96q-40 40 -100 40q-35 0 -68.5 -18t-54.5 -47l55 -315h-96l-81 460h91
l17 -95q0 42 40.5 73.5t97.5 31.5z" />
    <glyph glyph-name="n" unicode="n" horiz-adv-x="602" 
d="M293 470q104 0 173 -75q47 -52 62 -142l44 -253h-96l-43 244q-12 66 -42 96q-40 40 -99 40q-77 0 -131 -65l55 -315h-96l-81 460h91l17 -95q0 44 43 74.5t103 30.5z" />
    <glyph glyph-name="o" unicode="o" horiz-adv-x="584" 
d="M142 241q0 -66 47.5 -113.5t114.5 -47.5q60 0 99 39.5t39 99.5q0 66 -47.5 113.5t-114.5 47.5q-60 0 -99 -39.5t-39 -99.5zM47 241q0 97 66 163t167 66q106 0 181.5 -73.5t75.5 -177.5q0 -97 -66 -163t-167 -66q-106 0 -181.5 73.5t-75.5 177.5z" />
    <glyph glyph-name="p" unicode="p" horiz-adv-x="598" 
d="M160 325l32 -190q23 -24 57.5 -39.5t67.5 -15.5q61 0 100 37.5t39 97.5q0 71 -50.5 118t-119.5 47q-79 0 -126 -55zM334 -10q-58 0 -92.5 29t-40.5 66l57 -325h-96l-123 700h91l17 -95q0 40 39 72.5t110 32.5q62 0 116 -27q66 -34 102.5 -98t36.5 -135
q0 -91 -63.5 -155.5t-153.5 -64.5z" />
    <glyph glyph-name="q" unicode="q" horiz-adv-x="596" 
d="M438 135l-32 190q-23 24 -57.5 39.5t-67.5 15.5q-61 0 -100 -37.5t-39 -97.5q0 -71 50.5 -118t119.5 -47q79 0 126 55zM264 470q62 0 97 -29t41 -66l-15 85h91l123 -700h-96l-59 335q0 -40 -38 -72.5t-106 -32.5q-62 0 -116 27q-66 34 -102.5 98t-36.5 135
q0 91 63.5 155.5t153.5 64.5z" />
    <glyph glyph-name="r" unicode="r" horiz-adv-x="384" 
d="M286 380q-73 0 -124 -69l54 -311h-96l-81 460h91l17 -95q0 44 41.5 74.5t100.5 30.5q14 0 30 -3l-6 -89q-14 2 -27 2z" />
    <glyph glyph-name="s" unicode="s" horiz-adv-x="464" 
d="M63 58l56 64q56 -49 131 -49q34 0 57.5 15.5t23.5 40.5q0 27 -29.5 42.5t-71.5 23.5t-84 19t-71.5 40t-29.5 77q0 63 53.5 101t129.5 38q82 0 143 -47l-48 -70q-44 34 -95 34q-38 0 -64 -15.5t-26 -40.5q0 -19 21 -31.5t53 -17.5t69 -15t69 -23t53 -42.5t21 -71.5
q0 -62 -52.5 -101t-124.5 -39q-110 0 -184 68z" />
    <glyph glyph-name="t" unicode="t" horiz-adv-x="431" 
d="M393 85l28 -85q-33 -10 -79 -10q-81 0 -131 44q-49 43 -64 130l-37 211h-120l-15 85h120l-23 130h96l22 -130h160l15 -85h-160l33 -183q11 -62 32 -84q25 -28 72 -28q24 0 51 5z" />
    <glyph glyph-name="u" unicode="u" horiz-adv-x="598" 
d="M315 -10q-105 0 -174 75q-48 53 -63 142l-44 253h96l43 -244q11 -64 43 -96q40 -40 100 -40q35 0 68.5 18t54.5 47l-55 315h96l81 -460h-91l-17 95q0 -42 -40.5 -73.5t-97.5 -31.5z" />
    <glyph glyph-name="v" unicode="v" horiz-adv-x="497" 
d="M351 460h94l-120 -460h-65l-278 460h105l185 -305z" />
    <glyph glyph-name="w" unicode="w" horiz-adv-x="799" 
d="M654 460h93l-107 -460h-65l-188 317l-73 -317h-65l-267 460h105l176 -306l71 306h65l184 -310z" />
    <glyph glyph-name="x" unicode="x" horiz-adv-x="508" 
d="M262 168l-101 -168h-105l140 235l-204 225h122l133 -148l86 148h106l-126 -214l223 -246h-121z" />
    <glyph glyph-name="y" unicode="y" horiz-adv-x="503" 
d="M-20 460h109l190 -299l78 299h94l-181 -700h-95l73 282z" />
    <glyph glyph-name="z" unicode="z" horiz-adv-x="486" 
d="M70 60l203 315h-243l-15 85h370l10 -60l-202 -315h283l15 -85h-410z" />
    <glyph glyph-name="braceleft" unicode="{" horiz-adv-x="450" 
d="M300 -36q13 -74 102 -74h21l16 -89q-12 -1 -38 -1q-82 0 -131 36.5t-64 117.5q-6 33 -11 99t-14 97q-12 39 -31.5 54.5t-60.5 15.5l-11 60q70 2 70 56q0 39 -23 117.5t-23 116.5q0 73 65 109q30 17 92 21q15 0 22 -1l16 -89h-25q-75 0 -75 -48q0 -22 22 -101t22 -117
q0 -52 -39 -82q64 -35 80 -125q5 -29 8 -82t10 -91z" />
    <glyph glyph-name="bar" unicode="|" horiz-adv-x="257" 
d="M250 -200h-96l-159 900h96z" />
    <glyph glyph-name="braceright" unicode="}" horiz-adv-x="450" 
d="M145 536q-13 74 -102 74h-21l-16 89q12 1 38 1q82 0 131 -36.5t64 -117.5q6 -33 11 -99t14 -97q12 -39 31.5 -54.5t60.5 -15.5l11 -60q-70 -2 -70 -56q0 -38 23 -117t23 -117q0 -73 -65 -109q-30 -17 -92 -21q-15 0 -22 1l-16 89h25q75 0 75 48q0 22 -22 101t-22 117
q0 52 39 82q-64 35 -80 125q-5 29 -8 82t-10 91z" />
    <glyph glyph-name="asciitilde" unicode="~" horiz-adv-x="550" 
d="M437 338l79 -35q-12 -53 -49 -92.5t-90 -39.5q-39 0 -81 22t-75.5 44t-53.5 22q-47 0 -64 -77l-79 35q12 53 49 92.5t90 39.5q39 0 81 -22t75.5 -44t53.5 -22q47 0 64 77z" />
    <glyph glyph-name="exclamdown" unicode="&#xa1;" horiz-adv-x="345" 
d="M157 0l-28 240h66l58 -240l42 -240h-96zM63 400q0 29 20.5 49.5t49.5 20.5t49.5 -20.5t20.5 -49.5t-20.5 -49.5t-49.5 -20.5t-49.5 20.5t-20.5 49.5z" />
    <glyph glyph-name="cent" unicode="&#xa2;" horiz-adv-x="524" 
d="M442 150l72 -61q-55 -70 -142 -90l20 -114h-95l-20 106q-104 10 -167 80q-63 69 -63 170q0 74 40.5 131.5t108.5 81.5l-21 121h95l19 -105q105 -2 176 -74l-66 -68q-47 52 -112 52q-59 0 -102 -38.5t-43 -100.5q0 -64 43 -110q46 -51 121 -51q81 0 136 70z" />
    <glyph glyph-name="sterling" unicode="&#xa3;" horiz-adv-x="531" 
d="M232 90h293l16 -90h-465l-11 60q54 22 79.5 63.5t25.5 87.5q0 49 -29 104h-101l-15 85h64q-41 70 -41 132q0 76 56 127t134 51q107 0 168 -92l-72 -56q-38 58 -96 58q-37 0 -66 -24t-29 -64q0 -9 1.5 -18.5t5.5 -20t6.5 -17.5t9.5 -19.5t10 -18t12 -20t12 -18.5h150
l15 -85h-119q19 -55 19 -101q0 -68 -33 -124z" />
    <glyph glyph-name="currency" unicode="&#xa4;" horiz-adv-x="560" 
d="M59 351q0 60 32 111l-76 76l63 63l76 -76q51 32 111 32t111 -32l76 76l63 -63l-76 -76q32 -49 32 -111t-32 -111l76 -76l-63 -63l-76 76q-49 -32 -111 -32t-111 32l-76 -76l-63 63l76 76q-32 51 -32 111zM154 351q0 -46 32.5 -78.5t78.5 -32.5t78.5 32.5t32.5 78.5
t-32.5 78.5t-78.5 32.5t-78.5 -32.5t-32.5 -78.5z" />
    <glyph glyph-name="yen" unicode="&#xa5;" horiz-adv-x="554" 
d="M29 315h186l-57 70h-142l-15 85h88l-187 230h124l231 -285l129 285h106l-105 -230h96l15 -85h-149l-32 -70h194l15 -85h-191l40 -230h-99l-40 230h-192z" />
    <glyph glyph-name="brokenbar" unicode="&#xa6;" horiz-adv-x="299" 
d="M187 310h-96l-69 390h96zM112 190h96l69 -390h-96z" />
    <glyph glyph-name="section" unicode="&#xa7;" horiz-adv-x="584" 
d="M526 -51q0 -79 -62 -129t-150 -50q-55 0 -101 19.5t-74 47.5l61 76q52 -48 114 -48q45 0 78.5 23t33.5 61q0 13 -4 24t-14.5 20t-18.5 15.5t-27.5 14t-29.5 11t-36 11.5t-35 11q-49 16 -82 30.5t-69.5 39.5t-55.5 62.5t-19 86.5q0 87 62 138q-54 44 -54 118q0 79 62 129
t150 50q55 0 101 -19.5t74 -47.5l-61 -76q-53 48 -114 48q-45 0 -78.5 -23t-33.5 -61q0 -13 4 -24t14.5 -20t18.5 -15.5t27.5 -14t29.5 -11t36 -11.5t35 -11q49 -16 82 -30.5t69.5 -39.5t55.5 -62.5t19 -86.5q0 -86 -63 -138q55 -47 55 -118zM434 206q0 28 -14 49.5
t-42.5 37t-55 25t-69.5 23t-68 23.5q-50 -34 -50 -90q0 -28 14 -49.5t42.5 -37t55 -25t69.5 -23t68 -23.5q50 32 50 90z" />
    <glyph glyph-name="dieresis" unicode="&#xa8;" horiz-adv-x="450" 
d="M70 607q0 26 18 44.5t44 18.5t44.5 -18.5t18.5 -44.5t-18.5 -44t-44.5 -18t-44 18t-18 44zM255 607q0 26 18 44.5t44 18.5t44.5 -18.5t18.5 -44.5t-18.5 -44t-44.5 -18t-44 18t-18 44z" />
    <glyph glyph-name="copyright" unicode="&#xa9;" horiz-adv-x="840" 
d="M536 501l-39 -51q-45 35 -90 35q-52 0 -86 -37t-34 -95q0 -57 35 -95t91 -38q48 0 95 36l39 -52q-59 -52 -136 -52q-86 0 -141.5 57.5t-55.5 143.5q0 85 55 142.5t138 57.5q72 0 129 -52zM50 350q0 145 102.5 247.5t247.5 102.5t247.5 -102.5t102.5 -247.5t-102.5 -247.5
t-247.5 -102.5t-247.5 102.5t-102.5 247.5zM115 350q0 -118 83 -201t201 -83t201.5 83t83.5 201t-83.5 201.5t-201.5 83.5t-201 -83.5t-83 -201.5z" />
    <glyph glyph-name="ordfeminine" unicode="&#xaa;" horiz-adv-x="437" 
d="M241 494l-21 114q-23 27 -65 27q-32 0 -55 -22t-23 -57q0 -41 29 -66t66 -25q42 0 69 29zM141 710q31 0 52 -17t24 -38l-8 45h75l53 -300h-75l-9 50q0 -24 -24 -42t-62 -18q-62 0 -116 45.5t-54 120.5q0 67 49 114q42 40 95 40z" />
    <glyph glyph-name="guillemotleft" unicode="&#xab;" horiz-adv-x="611" 
d="M158 253l198 -203h-125l-161 165l-8 50l103 165h106zM398 253l198 -203h-125l-161 165l-8 50l103 165h106z" />
    <glyph glyph-name="logicalnot" unicode="&#xac;" horiz-adv-x="550" 
d="M69 300l-16 90h430l48 -270h-90l-32 180h-340z" />
    <glyph glyph-name="registered" unicode="&#xae;" horiz-adv-x="840" 
d="M526 438q0 -33 -20.5 -62.5t-51.5 -39.5l122 -175h-83l-119 170h-19v-170h-72v383h128q46 0 74 -23q41 -32 41 -83zM355 476v-77h50q29 0 39 12q9 11 9 26t-9 25q-12 14 -39 14h-50zM50 350q0 145 102.5 247.5t247.5 102.5t247.5 -102.5t102.5 -247.5t-102.5 -247.5
t-247.5 -102.5t-247.5 102.5t-102.5 247.5zM115 350q0 -118 83 -201t201 -83t201.5 83t83.5 201t-83.5 201.5t-201.5 83.5t-201 -83.5t-83 -201.5z" />
    <glyph glyph-name="macron" unicode="&#xaf;" horiz-adv-x="440" 
d="M70 650h300v-85h-300v85z" />
    <glyph glyph-name="degree" unicode="&#xb0;" horiz-adv-x="400" 
d="M-10 550q0 66 47 113t113 47t113 -47t47 -113t-47 -113t-113 -47t-113 47t-47 113zM70 550q0 -33 23.5 -56.5t56.5 -23.5t56.5 23.5t23.5 56.5t-23.5 56.5t-56.5 23.5t-56.5 -23.5t-23.5 -56.5z" />
    <glyph glyph-name="plusminus" unicode="&#xb1;" horiz-adv-x="549" 
d="M278 490l23 -135h170l16 -90h-170l23 -135h-90l-23 135h-170l-16 90h170l-23 135h90zM533 10h-430l-16 90h430z" />
    <glyph glyph-name="twosuperior" unicode="&#xb2;" horiz-adv-x="285" 
d="M23 599l-68 22q8 40 41 64.5t76 24.5q50 0 87 -33t37 -85q0 -38 -36 -95l-56 -87h119l12 -70h-229l-7 40l99 154q23 34 23 58q0 22 -14.5 35t-33.5 13q-20 0 -33 -12t-17 -29z" />
    <glyph glyph-name="threesuperior" unicode="&#xb3;" horiz-adv-x="279" 
d="M38 509l-7 40l50 81h-119l-12 70h226l8 -40l-50 -79q46 -15 72 -48t26 -79q0 -53 -39 -88.5t-96 -35.5q-67 0 -109 45l47 52q27 -27 62 -27q26 0 43 16t17 38q0 31 -19.5 47.5t-50.5 16.5q-30 0 -49 -9z" />
    <glyph glyph-name="acute" unicode="&#xb4;" horiz-adv-x="310" 
d="M135 540h-65l65 150h105z" />
    <glyph glyph-name="mu" unicode="&#xb5;" horiz-adv-x="603" 
d="M320 -10q-56 0 -107 27l45 -256h-96l-123 699h96l43 -244q11 -64 43 -96q40 -40 100 -40q35 0 68.5 18t54.5 47l-55 315h96l81 -460h-91l-17 95q0 -42 -40.5 -73.5t-97.5 -31.5z" />
    <glyph glyph-name="paragraph" unicode="&#xb6;" horiz-adv-x="695" 
d="M491 610l144 -810h-96l-144 810h-98l144 -810h-96l-84 470q-119 0 -188 64t-69 166q0 99 80 159q56 41 141 41h349l16 -90h-99zM99 494q0 -59 41.5 -96.5t104.5 -37.5l-44 249q-46 -3 -74 -35t-28 -80z" />
    <glyph glyph-name="periodcentered" unicode="&#xb7;" horiz-adv-x="340" 
d="M105 230q0 29 20.5 49.5t49.5 20.5t49.5 -20.5t20.5 -49.5t-20.5 -49.5t-49.5 -20.5t-49.5 20.5t-20.5 49.5z" />
    <glyph glyph-name="cedilla" unicode="&#xb8;" horiz-adv-x="275" 
d="M140 10h65l-30 -150h-105z" />
    <glyph glyph-name="onesuperior" unicode="&#xb9;" horiz-adv-x="227" 
d="M-35 643l97 57h46l64 -360h-76l-48 271l-70 -38z" />
    <glyph glyph-name="ordmasculine" unicode="&#xba;" horiz-adv-x="423" 
d="M162 465q34 0 54 21.5t20 56.5q0 37 -25 64.5t-60 27.5q-34 0 -54 -21.5t-20 -56.5q0 -37 25 -64.5t60 -27.5zM166 390q-73 0 -121 49.5t-48 121.5q0 63 43.5 106t106.5 43q73 0 121 -49.5t48 -121.5q0 -63 -43 -106t-107 -43z" />
    <glyph glyph-name="guillemotright" unicode="&#xbb;" horiz-adv-x="611" 
d="M213 227l-198 203h125l161 -165l8 -50l-103 -165h-106zM453 227l-198 203h125l161 -165l8 -50l-103 -165h-106z" />
    <glyph glyph-name="onequarter" unicode="&#xbc;" horiz-adv-x="585" 
d="M302 77l-8 45l155 238h46l39 -219h50l11 -64h-50l14 -77h-76l-13 77h-168zM459 141l-16 87l-56 -87h72zM161 0h-79l288 700h79zM-35 643l97 57h46l64 -360h-76l-48 271l-70 -38z" />
    <glyph glyph-name="onehalf" unicode="&#xbd;" horiz-adv-x="599" 
d="M161 0h-79l288 700h79zM-35 643l97 57h46l64 -360h-76l-48 271l-70 -38zM397 259l-68 22q8 40 41 64.5t76 24.5q50 0 87 -33t37 -85q0 -38 -36 -95l-56 -87h119l12 -70h-229l-7 40l99 154q23 34 23 58q0 22 -14.5 35t-33.5 13q-20 0 -33 -12t-17 -29z" />
    <glyph glyph-name="threequarters" unicode="&#xbe;" horiz-adv-x="617" 
d="M334 77l-8 45l155 238h46l39 -219h50l11 -64h-50l14 -77h-76l-13 77h-168zM491 141l-16 87l-56 -87h72zM193 0h-79l288 700h79zM38 509l-7 40l50 81h-119l-12 70h226l8 -40l-50 -79q46 -15 72 -48t26 -79q0 -53 -39 -88.5t-96 -35.5q-67 0 -109 45l47 52q27 -27 62 -27
q26 0 43 16t17 38q0 31 -19.5 47.5t-50.5 16.5q-30 0 -49 -9z" />
    <glyph glyph-name="questiondown" unicode="&#xbf;" horiz-adv-x="505" 
d="M432 -79l90 -26q-17 -67 -74 -106t-128 -39q-83 0 -141.5 55t-58.5 135q0 49 21 89.5t45.5 62t45.5 44.5t21 41q0 24 -34 48l63 66q66 -48 66 -116q0 -37 -21 -68t-45.5 -50.5t-45.5 -50t-21 -66.5q0 -42 30 -71t75 -29t75 24.5t37 56.5zM307 400q0 -29 -20.5 -49.5
t-49.5 -20.5t-49.5 20.5t-20.5 49.5t20.5 49.5t49.5 20.5t49.5 -20.5t20.5 -49.5z" />
    <glyph glyph-name="Agrave" unicode="&#xc0;" horiz-adv-x="643" 
d="M258 750h-65l-105 150h105zM683 0h-112l-105 180h-290l-43 -180h-99l167 700h69zM410 275l-151 257l-61 -257h212z" />
    <glyph glyph-name="Aacute" unicode="&#xc1;" horiz-adv-x="643" 
d="M259 750h-65l65 150h105zM683 0h-112l-105 180h-290l-43 -180h-99l167 700h69zM410 275l-151 257l-61 -257h212z" />
    <glyph glyph-name="Acircumflex" unicode="&#xc2;" horiz-adv-x="643" 
d="M378 750h-65l-112 88l-58 -88h-65l68 150h110zM683 0h-112l-105 180h-290l-43 -180h-99l167 700h69zM410 275l-151 257l-61 -257h212z" />
    <glyph glyph-name="Atilde" unicode="&#xc3;" horiz-adv-x="643" 
d="M153 890q30 0 74.5 -22.5t57.5 -22.5q34 0 37 45l72 -21q-2 -46 -28.5 -77.5t-70.5 -31.5q-30 0 -74.5 22.5t-57.5 22.5q-34 0 -37 -45l-72 21q2 46 28.5 77.5t70.5 31.5zM683 0h-112l-105 180h-290l-43 -180h-99l167 700h69zM410 275l-151 257l-61 -257h212z" />
    <glyph glyph-name="Adieresis" unicode="&#xc4;" horiz-adv-x="643" 
d="M67 817q0 26 18 44.5t44 18.5t44.5 -18.5t18.5 -44.5t-18.5 -44t-44.5 -18t-44 18t-18 44zM252 817q0 26 18 44.5t44 18.5t44.5 -18.5t18.5 -44.5t-18.5 -44t-44.5 -18t-44 18t-18 44zM683 0h-112l-105 180h-290l-43 -180h-99l167 700h69zM410 275l-151 257l-61 -257h212
z" />
    <glyph glyph-name="Aring" unicode="&#xc5;" horiz-adv-x="643" 
d="M121 830q0 41 29.5 70.5t70.5 29.5t70.5 -29.5t29.5 -70.5t-29.5 -70.5t-70.5 -29.5t-70.5 29.5t-29.5 70.5zM181 830q0 -16 11.5 -28t28.5 -12t28.5 12t11.5 28t-11.5 28t-28.5 12t-28.5 -12t-11.5 -28zM683 0h-112l-105 180h-290l-43 -180h-99l167 700h69zM410 275
l-151 257l-61 -257h212z" />
    <glyph glyph-name="AE" unicode="&#xc6;" horiz-adv-x="930" 
d="M143 0h-109l295 700h463l17 -95h-302l32 -180h231l17 -95h-232l42 -235h311l17 -95h-410l-32 180h-264zM405 624l-146 -349h207z" />
    <glyph glyph-name="Ccedilla" unicode="&#xc7;" horiz-adv-x="705" 
d="M374 -8q-150 13 -248.5 120.5t-98.5 256.5q0 145 98.5 243t249.5 98q124 0 226 -79l-56 -77q-75 61 -167 61q-105 0 -178 -70t-73 -176q0 -118 80.5 -201t202.5 -83q133 0 212 99l78 -57q-43 -60 -110.5 -94.5t-145.5 -40.5l-26 -132h-105z" />
    <glyph glyph-name="Egrave" unicode="&#xc8;" horiz-adv-x="545" 
d="M540 0h-410l-123 700h400l17 -95h-302l32 -180h231l17 -95h-232l42 -235h311zM259 750h-65l-105 150h105z" />
    <glyph glyph-name="Eacute" unicode="&#xc9;" horiz-adv-x="545" 
d="M540 0h-410l-123 700h400l17 -95h-302l32 -180h231l17 -95h-232l42 -235h311zM231 750h-65l65 150h105z" />
    <glyph glyph-name="Ecircumflex" unicode="&#xca;" horiz-adv-x="545" 
d="M540 0h-410l-123 700h400l17 -95h-302l32 -180h231l17 -95h-232l42 -235h311zM351 750h-65l-112 88l-58 -88h-65l68 150h110z" />
    <glyph glyph-name="Edieresis" unicode="&#xcb;" horiz-adv-x="545" 
d="M540 0h-410l-123 700h400l17 -95h-302l32 -180h231l17 -95h-232l42 -235h311zM40 817q0 26 18 44.5t44 18.5t44.5 -18.5t18.5 -44.5t-18.5 -44t-44.5 -18t-44 18t-18 44zM225 817q0 26 18 44.5t44 18.5t44.5 -18.5t18.5 -44.5t-18.5 -44t-44.5 -18t-44 18t-18 44z" />
    <glyph glyph-name="Igrave" unicode="&#xcc;" horiz-adv-x="276" 
d="M229 0h-99l-123 700h99zM84 750h-65l-105 150h105z" />
    <glyph glyph-name="Iacute" unicode="&#xcd;" horiz-adv-x="276" 
d="M229 0h-99l-123 700h99zM75 750h-65l65 150h105z" />
    <glyph glyph-name="Icircumflex" unicode="&#xce;" horiz-adv-x="276" 
d="M229 0h-99l-123 700h99zM202 750h-65l-112 88l-58 -88h-65l68 150h110z" />
    <glyph glyph-name="Idieresis" unicode="&#xcf;" horiz-adv-x="276" 
d="M229 0h-99l-123 700h99zM-119 817q0 26 18 44.5t44 18.5t44.5 -18.5t18.5 -44.5t-18.5 -44t-44.5 -18t-44 18t-18 44zM66 817q0 26 18 44.5t44 18.5t44.5 -18.5t18.5 -44.5t-18.5 -44t-44.5 -18t-44 18t-18 44z" />
    <glyph glyph-name="Eth" unicode="&#xd0;" horiz-adv-x="731" 
d="M7 700h259q181 0 288 -110q110 -112 110 -260q0 -142 -92 -236q-94 -94 -258 -94h-184l-58 330h-100l-17 95h100zM267 605h-144l32 -180h200l16 -95h-200l42 -235h101q120 0 185 66q65 67 65 170q0 111 -81 192q-84 82 -216 82z" />
    <glyph glyph-name="Ntilde" unicode="&#xd1;" horiz-adv-x="768" 
d="M652 0l-512 505l89 -505h-99l-123 700h69l512 -504l-89 504h99l123 -700h-69zM184 760l-65 21q2 46 29.5 77.5t71.5 31.5q27 0 72 -22.5t64 -22.5q30 0 38 45l65 -21q-2 -46 -29.5 -77.5t-71.5 -31.5q-27 0 -72 22.5t-64 22.5q-30 0 -38 -45z" />
    <glyph glyph-name="Ograve" unicode="&#xd2;" horiz-adv-x="810" 
d="M366 615q-104 0 -172 -69q-67 -68 -67 -177q0 -115 84 -199q87 -85 193 -85q104 0 172 69q67 68 67 177q0 115 -84 199q-87 85 -193 85zM405 -10q-73 0 -142 29.5t-123 83.5q-113 116 -113 267q0 146 95 243q97 97 243 97q73 0 142 -29.5t123 -83.5q113 -116 113 -267
q0 -146 -95 -243q-97 -97 -243 -97zM384 750h-65l-105 150h105z" />
    <glyph glyph-name="Oacute" unicode="&#xd3;" horiz-adv-x="810" 
d="M366 615q-104 0 -172 -69q-67 -68 -67 -177q0 -115 84 -199q87 -85 193 -85q104 0 172 69q67 68 67 177q0 115 -84 199q-87 85 -193 85zM405 -10q-73 0 -142 29.5t-123 83.5q-113 116 -113 267q0 146 95 243q97 97 243 97q73 0 142 -29.5t123 -83.5q113 -116 113 -267
q0 -146 -95 -243q-97 -97 -243 -97zM354 750h-65l65 150h105z" />
    <glyph glyph-name="Ocircumflex" unicode="&#xd4;" horiz-adv-x="810" 
d="M366 615q-104 0 -172 -69q-67 -68 -67 -177q0 -115 84 -199q87 -85 193 -85q104 0 172 69q67 68 67 177q0 115 -84 199q-87 85 -193 85zM405 -10q-73 0 -142 29.5t-123 83.5q-113 116 -113 267q0 146 95 243q97 97 243 97q73 0 142 -29.5t123 -83.5q113 -116 113 -267
q0 -146 -95 -243q-97 -97 -243 -97zM483 750h-65l-112 88l-58 -88h-65l68 150h110z" />
    <glyph glyph-name="Otilde" unicode="&#xd5;" horiz-adv-x="810" 
d="M366 615q-104 0 -172 -69q-67 -68 -67 -177q0 -115 84 -199q87 -85 193 -85q104 0 172 69q67 68 67 177q0 115 -84 199q-87 85 -193 85zM405 -10q-73 0 -142 29.5t-123 83.5q-113 116 -113 267q0 146 95 243q97 97 243 97q73 0 142 -29.5t123 -83.5q113 -116 113 -267
q0 -146 -95 -243q-97 -97 -243 -97zM214 760l-65 21q2 46 29.5 77.5t71.5 31.5q27 0 72 -22.5t64 -22.5q30 0 38 45l65 -21q-2 -46 -29.5 -77.5t-71.5 -31.5q-27 0 -72 22.5t-64 22.5q-30 0 -38 -45z" />
    <glyph glyph-name="Odieresis" unicode="&#xd6;" horiz-adv-x="810" 
d="M366 615q-104 0 -172 -69q-67 -68 -67 -177q0 -115 84 -199q87 -85 193 -85q104 0 172 69q67 68 67 177q0 115 -84 199q-87 85 -193 85zM405 -10q-73 0 -142 29.5t-123 83.5q-113 116 -113 267q0 146 95 243q97 97 243 97q73 0 142 -29.5t123 -83.5q113 -116 113 -267
q0 -146 -95 -243q-97 -97 -243 -97zM162 817q0 26 18 44.5t44 18.5t44.5 -18.5t18.5 -44.5t-18.5 -44t-44.5 -18t-44 18t-18 44zM347 817q0 26 18 44.5t44 18.5t44.5 -18.5t18.5 -44.5t-18.5 -44t-44.5 -18t-44 18t-18 44z" />
    <glyph glyph-name="multiply" unicode="&#xd7;" horiz-adv-x="540" 
d="M501 115l-59 -69l-170 145l-119 -145l-69 57l119 146l-172 146l59 69l171 -145l118 145l69 -57l-119 -146z" />
    <glyph glyph-name="Oslash" unicode="&#xd8;" horiz-adv-x="810" 
d="M263 -10h-95l29 65q-34 24 -57 48q-113 116 -113 267q0 146 95 243q97 97 243 97q67 0 129 -24l12 24h95l-30 -64q30 -20 59 -49q113 -116 113 -267q0 -146 -95 -243q-97 -97 -243 -97q-65 0 -131 25zM559 530q-20 18 -30 26l-211 -456q40 -15 86 -15q104 0 172 69
q67 68 67 177q0 115 -84 199zM366 615q-104 0 -172 -69q-67 -68 -67 -177q0 -115 84 -199q18 -18 28 -25l211 455q-40 15 -84 15z" />
    <glyph glyph-name="Ugrave" unicode="&#xd9;" horiz-adv-x="726" 
d="M543 305l-70 395h99l68 -390q9 -52 9 -80q0 -103 -77 -171.5t-188 -68.5q-133 0 -213 74.5t-105 217.5l-73 418h99l73 -415q35 -200 213 -200q74 0 122.5 42t48.5 113q0 32 -6 65zM324 750h-65l-105 150h105z" />
    <glyph glyph-name="Uacute" unicode="&#xda;" horiz-adv-x="726" 
d="M543 305l-70 395h99l68 -390q9 -52 9 -80q0 -103 -77 -171.5t-188 -68.5q-133 0 -213 74.5t-105 217.5l-73 418h99l73 -415q35 -200 213 -200q74 0 122.5 42t48.5 113q0 32 -6 65zM305 750h-65l65 150h105z" />
    <glyph glyph-name="Ucircumflex" unicode="&#xdb;" horiz-adv-x="726" 
d="M543 305l-70 395h99l68 -390q9 -52 9 -80q0 -103 -77 -171.5t-188 -68.5q-133 0 -213 74.5t-105 217.5l-73 418h99l73 -415q35 -200 213 -200q74 0 122.5 42t48.5 113q0 32 -6 65zM425 750h-65l-112 88l-58 -88h-65l68 150h110z" />
    <glyph glyph-name="Udieresis" unicode="&#xdc;" horiz-adv-x="726" 
d="M543 305l-70 395h99l68 -390q9 -52 9 -80q0 -103 -77 -171.5t-188 -68.5q-133 0 -213 74.5t-105 217.5l-73 418h99l73 -415q35 -200 213 -200q74 0 122.5 42t48.5 113q0 32 -6 65zM117 817q0 26 18 44.5t44 18.5t44.5 -18.5t18.5 -44.5t-18.5 -44t-44.5 -18t-44 18
t-18 44zM302 817q0 26 18 44.5t44 18.5t44.5 -18.5t18.5 -44.5t-18.5 -44t-44.5 -18t-44 18t-18 44z" />
    <glyph glyph-name="Yacute" unicode="&#xdd;" horiz-adv-x="554" 
d="M386 700h106l-173 -380l56 -320h-99l-53 305l-321 395h124l231 -285zM226 750h-65l65 150h105z" />
    <glyph glyph-name="Thorn" unicode="&#xde;" horiz-adv-x="600" 
d="M229 0h-99l-123 700h99l27 -155h188q70 0 114 -22q51 -26 81.5 -76t30.5 -111q0 -93 -76 -148q-46 -33 -126 -33h-143zM322 450h-172l35 -200h154q54 0 77 20q31 26 31 72q0 54 -44 87q-27 21 -81 21z" />
    <glyph glyph-name="germandbls" unicode="&#xdf;" 
d="M543 199q0 -89 -61.5 -149t-149.5 -60q-43 0 -84 16l29 82q26 -8 50 -8q53 0 87 33t34 86q0 74 -58 114q-39 27 -97 27h-57l-16 90q54 0 80.5 24.5t26.5 66.5q0 44 -31.5 76.5t-78.5 32.5q-40 0 -66.5 -24.5t-26.5 -62.5q0 -23 7 -60l85 -483h-96l-84 477q-6 34 -6 65
q0 78 53 128t134 50q87 0 146 -58.5t59 -140.5q0 -61 -34 -106q68 -25 111.5 -84t43.5 -132z" />
    <glyph glyph-name="agrave" unicode="&#xe0;" horiz-adv-x="596" 
d="M312 540h-65l-105 150h105zM438 135l-32 190q-23 24 -57.5 39.5t-67.5 15.5q-61 0 -100 -37.5t-39 -97.5q0 -71 50.5 -118t119.5 -47q79 0 126 55zM264 470q62 0 97 -29t41 -66l-15 85h91l81 -460h-91l-17 95q0 -40 -39 -72.5t-110 -32.5q-62 0 -116 27q-66 34 -102.5 98
t-36.5 135q0 91 63.5 155.5t153.5 64.5z" />
    <glyph glyph-name="aacute" unicode="&#xe1;" horiz-adv-x="596" 
d="M307 540h-65l65 150h105zM438 135l-32 190q-23 24 -57.5 39.5t-67.5 15.5q-61 0 -100 -37.5t-39 -97.5q0 -71 50.5 -118t119.5 -47q79 0 126 55zM264 470q62 0 97 -29t41 -66l-15 85h91l81 -460h-91l-17 95q0 -40 -39 -72.5t-110 -32.5q-62 0 -116 27q-66 34 -102.5 98
t-36.5 135q0 91 63.5 155.5t153.5 64.5z" />
    <glyph glyph-name="acircumflex" unicode="&#xe2;" horiz-adv-x="596" 
d="M427 540h-65l-112 88l-58 -88h-65l68 150h110zM438 135l-32 190q-23 24 -57.5 39.5t-67.5 15.5q-61 0 -100 -37.5t-39 -97.5q0 -71 50.5 -118t119.5 -47q79 0 126 55zM264 470q62 0 97 -29t41 -66l-15 85h91l81 -460h-91l-17 95q0 -40 -39 -72.5t-110 -32.5
q-62 0 -116 27q-66 34 -102.5 98t-36.5 135q0 91 63.5 155.5t153.5 64.5z" />
    <glyph glyph-name="atilde" unicode="&#xe3;" horiz-adv-x="596" 
d="M145 550l-65 21q2 46 29.5 77.5t71.5 31.5q27 0 72 -22.5t64 -22.5q30 0 38 45l65 -21q-2 -46 -29.5 -77.5t-71.5 -31.5q-27 0 -72 22.5t-64 22.5q-30 0 -38 -45zM438 135l-32 190q-23 24 -57.5 39.5t-67.5 15.5q-61 0 -100 -37.5t-39 -97.5q0 -71 50.5 -118t119.5 -47
q79 0 126 55zM264 470q62 0 97 -29t41 -66l-15 85h91l81 -460h-91l-17 95q0 -40 -39 -72.5t-110 -32.5q-62 0 -116 27q-66 34 -102.5 98t-36.5 135q0 91 63.5 155.5t153.5 64.5z" />
    <glyph glyph-name="adieresis" unicode="&#xe4;" horiz-adv-x="596" 
d="M112 607q0 26 18 44.5t44 18.5t44.5 -18.5t18.5 -44.5t-18.5 -44t-44.5 -18t-44 18t-18 44zM297 607q0 26 18 44.5t44 18.5t44.5 -18.5t18.5 -44.5t-18.5 -44t-44.5 -18t-44 18t-18 44zM438 135l-32 190q-23 24 -57.5 39.5t-67.5 15.5q-61 0 -100 -37.5t-39 -97.5
q0 -71 50.5 -118t119.5 -47q79 0 126 55zM264 470q62 0 97 -29t41 -66l-15 85h91l81 -460h-91l-17 95q0 -40 -39 -72.5t-110 -32.5q-62 0 -116 27q-66 34 -102.5 98t-36.5 135q0 91 63.5 155.5t153.5 64.5z" />
    <glyph glyph-name="aring" unicode="&#xe5;" horiz-adv-x="596" 
d="M167 620q0 41 29.5 70.5t70.5 29.5t70.5 -29.5t29.5 -70.5t-29.5 -70.5t-70.5 -29.5t-70.5 29.5t-29.5 70.5zM227 620q0 -16 11.5 -28t28.5 -12t28.5 12t11.5 28t-11.5 28t-28.5 12t-28.5 -12t-11.5 -28zM438 135l-32 190q-23 24 -57.5 39.5t-67.5 15.5q-61 0 -100 -37.5
t-39 -97.5q0 -71 50.5 -118t119.5 -47q79 0 126 55zM264 470q62 0 97 -29t41 -66l-15 85h91l81 -460h-91l-17 95q0 -40 -39 -72.5t-110 -32.5q-62 0 -116 27q-66 34 -102.5 98t-36.5 135q0 91 63.5 155.5t153.5 64.5z" />
    <glyph glyph-name="ae" unicode="&#xe6;" horiz-adv-x="927" 
d="M468 0l-17 95q0 -40 -39 -72.5t-110 -32.5q-62 0 -116 27q-66 34 -102.5 98t-36.5 135q0 91 63.5 155.5t153.5 64.5q62 0 97 -29t41 -66l-15 85h86l12 -67q62 77 162 77q94 0 163 -70t69 -170q0 -12 -1 -20h-361q10 -61 56 -99t109 -38q78 0 137 55l61 -58
q-74 -80 -194 -80q-81 0 -138 41l6 -31h-86zM517 290h261q-12 42 -47 70.5t-81 28.5q-49 0 -85 -28t-48 -71zM438 135l-32 190q-23 24 -57.5 39.5t-67.5 15.5q-61 0 -100 -37.5t-39 -97.5q0 -71 50.5 -118t119.5 -47q79 0 126 55z" />
    <glyph glyph-name="ccedilla" unicode="&#xe7;" horiz-adv-x="524" 
d="M442 150l72 -61q-61 -78 -162 -95l-26 -134h-105l61 131q-106 7 -172 80q-63 69 -63 170q0 99 68.5 164t170.5 65q106 0 179 -74l-66 -68q-47 52 -112 52q-59 0 -102 -38.5t-43 -100.5q0 -64 43 -110q46 -51 121 -51q81 0 136 70z" />
    <glyph glyph-name="egrave" unicode="&#xe8;" horiz-adv-x="543" 
d="M286 540h-65l-105 150h105zM270 389q-49 0 -83 -27.5t-46 -71.5h253q-11 44 -46 71.5t-78 27.5zM494 210h-353q11 -62 55 -99.5t108 -37.5q81 0 136 55l61 -58q-75 -80 -197 -80q-112 0 -184.5 72t-72.5 185q0 96 63.5 159.5t158.5 63.5q99 0 162.5 -71.5t63.5 -168.5
q0 -12 -1 -20z" />
    <glyph glyph-name="eacute" unicode="&#xe9;" horiz-adv-x="543" 
d="M271 540h-65l65 150h105zM270 389q-49 0 -83 -27.5t-46 -71.5h253q-11 44 -46 71.5t-78 27.5zM494 210h-353q11 -62 55 -99.5t108 -37.5q81 0 136 55l61 -58q-75 -80 -197 -80q-112 0 -184.5 72t-72.5 185q0 96 63.5 159.5t158.5 63.5q99 0 162.5 -71.5t63.5 -168.5
q0 -12 -1 -20z" />
    <glyph glyph-name="ecircumflex" unicode="&#xea;" horiz-adv-x="543" 
d="M385 540h-65l-112 88l-58 -88h-65l68 150h110zM270 389q-49 0 -83 -27.5t-46 -71.5h253q-11 44 -46 71.5t-78 27.5zM494 210h-353q11 -62 55 -99.5t108 -37.5q81 0 136 55l61 -58q-75 -80 -197 -80q-112 0 -184.5 72t-72.5 185q0 96 63.5 159.5t158.5 63.5
q99 0 162.5 -71.5t63.5 -168.5q0 -12 -1 -20z" />
    <glyph glyph-name="edieresis" unicode="&#xeb;" horiz-adv-x="543" 
d="M76 607q0 26 18 44.5t44 18.5t44.5 -18.5t18.5 -44.5t-18.5 -44t-44.5 -18t-44 18t-18 44zM261 607q0 26 18 44.5t44 18.5t44.5 -18.5t18.5 -44.5t-18.5 -44t-44.5 -18t-44 18t-18 44zM270 389q-49 0 -83 -27.5t-46 -71.5h253q-11 44 -46 71.5t-78 27.5zM494 210h-353
q11 -62 55 -99.5t108 -37.5q81 0 136 55l61 -58q-75 -80 -197 -80q-112 0 -184.5 72t-72.5 185q0 96 63.5 159.5t158.5 63.5q99 0 162.5 -71.5t63.5 -168.5q0 -12 -1 -20z" />
    <glyph glyph-name="igrave" unicode="&#xec;" horiz-adv-x="253" 
d="M39 460h96l81 -460h-96zM109 540h-65l-105 150h105z" />
    <glyph glyph-name="iacute" unicode="&#xed;" horiz-adv-x="253" 
d="M39 460h96l81 -460h-96zM100 540h-65l65 150h105z" />
    <glyph glyph-name="icircumflex" unicode="&#xee;" horiz-adv-x="253" 
d="M39 460h96l81 -460h-96zM228 540h-65l-112 88l-58 -88h-65l68 150h110z" />
    <glyph glyph-name="idieresis" unicode="&#xef;" horiz-adv-x="253" 
d="M39 460h96l81 -460h-96zM-97 607q0 26 18 44.5t44 18.5t44.5 -18.5t18.5 -44.5t-18.5 -44t-44.5 -18t-44 18t-18 44zM88 607q0 26 18 44.5t44 18.5t44.5 -18.5t18.5 -44.5t-18.5 -44t-44.5 -18t-44 18t-18 44z" />
    <glyph glyph-name="eth" unicode="&#xf0;" horiz-adv-x="584" 
d="M96 710h119l37 -47l85 56l44 -68l-78 -52l147 -185q45 -56 66 -100t21 -95q0 -97 -67.5 -163t-168.5 -66q-105 0 -179.5 72.5t-74.5 178.5q0 96 68 162.5t164 66.5h6l-62 77l-86 -58l-46 71l82 52zM285 380q-62 0 -102.5 -39t-40.5 -100q0 -65 45.5 -113t111.5 -48
q61 0 102 39.5t41 99.5q0 65 -72 146q-43 15 -85 15z" />
    <glyph glyph-name="ntilde" unicode="&#xf1;" horiz-adv-x="602" 
d="M158 550l-65 21q2 46 29.5 77.5t71.5 31.5q27 0 72 -22.5t64 -22.5q30 0 38 45l65 -21q-2 -46 -29.5 -77.5t-71.5 -31.5q-27 0 -72 22.5t-64 22.5q-30 0 -38 -45zM293 470q104 0 173 -75q47 -52 62 -142l44 -253h-96l-43 244q-12 66 -42 96q-40 40 -99 40q-77 0 -131 -65
l55 -315h-96l-81 460h91l17 -95q0 44 43 74.5t103 30.5z" />
    <glyph glyph-name="ograve" unicode="&#xf2;" horiz-adv-x="584" 
d="M142 241q0 -66 47.5 -113.5t114.5 -47.5q60 0 99 39.5t39 99.5q0 66 -47.5 113.5t-114.5 47.5q-60 0 -99 -39.5t-39 -99.5zM47 241q0 97 66 163t167 66q106 0 181.5 -73.5t75.5 -177.5q0 -97 -66 -163t-167 -66q-106 0 -181.5 73.5t-75.5 177.5zM290 540h-65l-105 150
h105z" />
    <glyph glyph-name="oacute" unicode="&#xf3;" horiz-adv-x="584" 
d="M142 241q0 -66 47.5 -113.5t114.5 -47.5q60 0 99 39.5t39 99.5q0 66 -47.5 113.5t-114.5 47.5q-60 0 -99 -39.5t-39 -99.5zM47 241q0 97 66 163t167 66q106 0 181.5 -73.5t75.5 -177.5q0 -97 -66 -163t-167 -66q-106 0 -181.5 73.5t-75.5 177.5zM274 540h-65l65 150h105z
" />
    <glyph glyph-name="ocircumflex" unicode="&#xf4;" horiz-adv-x="584" 
d="M142 241q0 -66 47.5 -113.5t114.5 -47.5q60 0 99 39.5t39 99.5q0 66 -47.5 113.5t-114.5 47.5q-60 0 -99 -39.5t-39 -99.5zM47 241q0 97 66 163t167 66q106 0 181.5 -73.5t75.5 -177.5q0 -97 -66 -163t-167 -66q-106 0 -181.5 73.5t-75.5 177.5zM396 540h-65l-112 88
l-58 -88h-65l68 150h110z" />
    <glyph glyph-name="otilde" unicode="&#xf5;" horiz-adv-x="584" 
d="M142 241q0 -66 47.5 -113.5t114.5 -47.5q60 0 99 39.5t39 99.5q0 66 -47.5 113.5t-114.5 47.5q-60 0 -99 -39.5t-39 -99.5zM47 241q0 97 66 163t167 66q106 0 181.5 -73.5t75.5 -177.5q0 -97 -66 -163t-167 -66q-106 0 -181.5 73.5t-75.5 177.5zM125 550l-65 21
q2 46 29.5 77.5t71.5 31.5q27 0 72 -22.5t64 -22.5q30 0 38 45l65 -21q-2 -46 -29.5 -77.5t-71.5 -31.5q-27 0 -72 22.5t-64 22.5q-30 0 -38 -45z" />
    <glyph glyph-name="odieresis" unicode="&#xf6;" horiz-adv-x="584" 
d="M142 241q0 -66 47.5 -113.5t114.5 -47.5q60 0 99 39.5t39 99.5q0 66 -47.5 113.5t-114.5 47.5q-60 0 -99 -39.5t-39 -99.5zM47 241q0 97 66 163t167 66q106 0 181.5 -73.5t75.5 -177.5q0 -97 -66 -163t-167 -66q-106 0 -181.5 73.5t-75.5 177.5zM76 607q0 26 18 44.5
t44 18.5t44.5 -18.5t18.5 -44.5t-18.5 -44t-44.5 -18t-44 18t-18 44zM261 607q0 26 18 44.5t44 18.5t44.5 -18.5t18.5 -44.5t-18.5 -44t-44.5 -18t-44 18t-18 44z" />
    <glyph glyph-name="divide" unicode="&#xf7;" horiz-adv-x="550" 
d="M499 210h-430l-16 90h430zM374 95q0 -29 -20.5 -49.5t-49.5 -20.5t-49.5 20.5t-20.5 49.5t20.5 49.5t49.5 20.5t49.5 -20.5t20.5 -49.5zM317 415q0 -29 -20.5 -49.5t-49.5 -20.5t-49.5 20.5t-20.5 49.5t20.5 49.5t49.5 20.5t49.5 -20.5t20.5 -49.5z" />
    <glyph glyph-name="oslash" unicode="&#xf8;" horiz-adv-x="584" 
d="M47 241q0 97 66 163t167 66q34 0 72 -10l5 10h91l-21 -46q51 -34 80.5 -88t29.5 -117q0 -97 -66 -163t-167 -66q-35 0 -73 10l-4 -10h-92l21 46q-51 34 -80 88t-29 117zM442 219q0 71 -54 120l-117 -256q15 -3 33 -3q60 0 99 39.5t39 99.5zM142 241q0 -72 53 -120
l117 256q-16 3 -32 3q-60 0 -99 -39.5t-39 -99.5z" />
    <glyph glyph-name="ugrave" unicode="&#xf9;" horiz-adv-x="598" 
d="M299 540h-65l-105 150h105zM315 -10q-105 0 -174 75q-48 53 -63 142l-44 253h96l43 -244q11 -64 43 -96q40 -40 100 -40q35 0 68.5 18t54.5 47l-55 315h96l81 -460h-91l-17 95q0 -42 -40.5 -73.5t-97.5 -31.5z" />
    <glyph glyph-name="uacute" unicode="&#xfa;" horiz-adv-x="598" 
d="M284 540h-65l65 150h105zM315 -10q-105 0 -174 75q-48 53 -63 142l-44 253h96l43 -244q11 -64 43 -96q40 -40 100 -40q35 0 68.5 18t54.5 47l-55 315h96l81 -460h-91l-17 95q0 -42 -40.5 -73.5t-97.5 -31.5z" />
    <glyph glyph-name="ucircumflex" unicode="&#xfb;" horiz-adv-x="598" 
d="M405 540h-65l-112 88l-58 -88h-65l68 150h110zM315 -10q-105 0 -174 75q-48 53 -63 142l-44 253h96l43 -244q11 -64 43 -96q40 -40 100 -40q35 0 68.5 18t54.5 47l-55 315h96l81 -460h-91l-17 95q0 -42 -40.5 -73.5t-97.5 -31.5z" />
    <glyph glyph-name="udieresis" unicode="&#xfc;" horiz-adv-x="598" 
d="M99 627q0 26 18 44.5t44 18.5t44.5 -18.5t18.5 -44.5t-18.5 -44t-44.5 -18t-44 18t-18 44zM284 627q0 26 18 44.5t44 18.5t44.5 -18.5t18.5 -44.5t-18.5 -44t-44.5 -18t-44 18t-18 44zM315 -10q-105 0 -174 75q-48 53 -63 142l-44 253h96l43 -244q11 -64 43 -96
q40 -40 100 -40q35 0 68.5 18t54.5 47l-55 315h96l81 -460h-91l-17 95q0 -42 -40.5 -73.5t-97.5 -31.5z" />
    <glyph glyph-name="yacute" unicode="&#xfd;" horiz-adv-x="503" 
d="M-20 460h109l190 -299l78 299h94l-181 -700h-95l73 282zM243 540h-65l65 150h105z" />
    <glyph glyph-name="thorn" unicode="&#xfe;" horiz-adv-x="598" 
d="M160 325l32 -190q23 -24 57.5 -39.5t67.5 -15.5q61 0 100 37.5t39 97.5q0 71 -50.5 118t-119.5 47q-79 0 -126 -55zM-5 710h96l61 -345q0 40 38 72.5t106 32.5q62 0 116 -27q66 -34 102.5 -98t36.5 -135q0 -91 -63.5 -155.5t-153.5 -64.5q-58 0 -92.5 29t-40.5 66
l57 -325h-96z" />
    <glyph glyph-name="ydieresis" unicode="&#xff;" horiz-adv-x="503" 
d="M-20 460h109l190 -299l78 299h94l-181 -700h-95l73 282zM55 607q0 26 18 44.5t44 18.5t44.5 -18.5t18.5 -44.5t-18.5 -44t-44.5 -18t-44 18t-18 44zM240 607q0 26 18 44.5t44 18.5t44.5 -18.5t18.5 -44.5t-18.5 -44t-44.5 -18t-44 18t-18 44z" />
    <glyph glyph-name="Amacron" unicode="&#x100;" horiz-adv-x="643" 
d="M74 850h300v-85h-300v85zM683 0h-112l-105 180h-290l-43 -180h-99l167 700h69zM410 275l-151 257l-61 -257h212z" />
    <glyph glyph-name="amacron" unicode="&#x101;" horiz-adv-x="596" 
d="M88 650h300v-85h-300v85zM438 135l-32 190q-23 24 -57.5 39.5t-67.5 15.5q-61 0 -100 -37.5t-39 -97.5q0 -71 50.5 -118t119.5 -47q79 0 126 55zM264 470q62 0 97 -29t41 -66l-15 85h91l81 -460h-91l-17 95q0 -40 -39 -72.5t-110 -32.5q-62 0 -116 27q-66 34 -102.5 98
t-36.5 135q0 91 63.5 155.5t153.5 64.5z" />
    <glyph glyph-name="Abreve" unicode="&#x102;" horiz-adv-x="643" 
d="M73 900h85q0 -22 16 -38.5t39 -16.5t39 16.5t16 38.5h85q0 -58 -41 -99t-99 -41t-99 41t-41 99zM683 0h-112l-105 180h-290l-43 -180h-99l167 700h69zM410 275l-151 257l-61 -257h212z" />
    <glyph glyph-name="abreve" unicode="&#x103;" horiz-adv-x="596" 
d="M303 690h85q0 -58 -41 -99t-99 -41t-99 41t-41 99h85q0 -22 16.5 -38.5t38.5 -16.5t38.5 16.5t16.5 38.5zM438 135l-32 190q-23 24 -57.5 39.5t-67.5 15.5q-61 0 -100 -37.5t-39 -97.5q0 -71 50.5 -118t119.5 -47q79 0 126 55zM264 470q62 0 97 -29t41 -66l-15 85h91
l81 -460h-91l-17 95q0 -40 -39 -72.5t-110 -32.5q-62 0 -116 27q-66 34 -102.5 98t-36.5 135q0 91 63.5 155.5t153.5 64.5z" />
    <glyph glyph-name="Aogonek" unicode="&#x104;" horiz-adv-x="643" 
d="M683 0q-31 -49 -31 -86q0 -21 13 -32.5t34 -11.5q13 0 23 4l15 -85q-21 -9 -55 -9q-54 0 -89.5 34.5t-35.5 85.5q0 48 22 86l-113 194h-290l-43 -180h-99l167 700h69zM410 275l-151 257l-61 -257h212z" />
    <glyph glyph-name="aogonek" unicode="&#x105;" horiz-adv-x="596" 
d="M264 470q60 0 95 -28t42 -64l-14 82h91l81 -460q-31 -49 -31 -86q0 -21 13 -32.5t34 -11.5q13 0 23 4l15 -85q-21 -9 -55 -9q-54 0 -89.5 34.5t-35.5 85.5q0 55 34 105l-16 90q0 -40 -39 -72.5t-110 -32.5q-62 0 -116 27q-66 34 -102.5 98t-36.5 135q0 91 63.5 155.5
t153.5 64.5zM438 135l-32 190q-23 24 -57.5 39.5t-67.5 15.5q-61 0 -100 -37.5t-39 -97.5q0 -71 50.5 -118t119.5 -47q79 0 126 55zM402 375l-1 3q1 -1 1 -3z" />
    <glyph glyph-name="Cacute" unicode="&#x106;" horiz-adv-x="705" 
d="M363 750h-65l65 150h105zM410 -10q-163 0 -273 110.5t-110 268.5q0 145 98.5 243t249.5 98q124 0 226 -79l-56 -77q-75 61 -167 61q-105 0 -178 -70t-73 -176q0 -118 80.5 -201t202.5 -83q133 0 212 99l78 -57q-48 -66 -125 -101.5t-165 -35.5z" />
    <glyph glyph-name="cacute" unicode="&#x107;" horiz-adv-x="524" 
d="M272 540h-65l65 150h105zM442 150l72 -61q-77 -99 -212 -99q-118 0 -192 81q-63 69 -63 170q0 99 68.5 164t170.5 65q106 0 179 -74l-66 -68q-47 52 -112 52q-59 0 -102 -38.5t-43 -100.5q0 -64 43 -110q46 -51 121 -51q81 0 136 70z" />
    <glyph glyph-name="Ccircumflex" unicode="&#x108;" horiz-adv-x="705" 
d="M492 750h-65l-112 88l-58 -88h-65l68 150h110zM410 -10q-163 0 -273 110.5t-110 268.5q0 145 98.5 243t249.5 98q124 0 226 -79l-56 -77q-75 61 -167 61q-105 0 -178 -70t-73 -176q0 -118 80.5 -201t202.5 -83q133 0 212 99l78 -57q-48 -66 -125 -101.5t-165 -35.5z" />
    <glyph glyph-name="ccircumflex" unicode="&#x109;" horiz-adv-x="524" 
d="M402 540h-65l-112 88l-58 -88h-65l68 150h110zM442 150l72 -61q-77 -99 -212 -99q-118 0 -192 81q-63 69 -63 170q0 99 68.5 164t170.5 65q106 0 179 -74l-66 -68q-47 52 -112 52q-59 0 -102 -38.5t-43 -100.5q0 -64 43 -110q46 -51 121 -51q81 0 136 70z" />
    <glyph glyph-name="Cdotaccent" unicode="&#x10a;" horiz-adv-x="705" 
d="M260 837q0 26 18 44.5t44 18.5t44.5 -18.5t18.5 -44.5t-18.5 -44t-44.5 -18t-44 18t-18 44zM410 -10q-163 0 -273 110.5t-110 268.5q0 145 98.5 243t249.5 98q124 0 226 -79l-56 -77q-75 61 -167 61q-105 0 -178 -70t-73 -176q0 -118 80.5 -201t202.5 -83q133 0 212 99
l78 -57q-48 -66 -125 -101.5t-165 -35.5z" />
    <glyph glyph-name="cdotaccent" unicode="&#x10b;" horiz-adv-x="524" 
d="M169 627q0 26 18 44.5t44 18.5t44.5 -18.5t18.5 -44.5t-18.5 -44t-44.5 -18t-44 18t-18 44zM442 150l72 -61q-77 -99 -212 -99q-118 0 -192 81q-63 69 -63 170q0 99 68.5 164t170.5 65q106 0 179 -74l-66 -68q-47 52 -112 52q-59 0 -102 -38.5t-43 -100.5q0 -64 43 -110
q46 -51 121 -51q81 0 136 70z" />
    <glyph glyph-name="Ccaron" unicode="&#x10c;" horiz-adv-x="705" 
d="M162 910h65l112 -88l58 88h65l-68 -150h-110zM410 -10q-163 0 -273 110.5t-110 268.5q0 145 98.5 243t249.5 98q124 0 226 -79l-56 -77q-75 61 -167 61q-105 0 -178 -70t-73 -176q0 -118 80.5 -201t202.5 -83q133 0 212 99l78 -57q-48 -66 -125 -101.5t-165 -35.5z" />
    <glyph glyph-name="ccaron" unicode="&#x10d;" horiz-adv-x="524" 
d="M82 690h65l112 -88l58 88h65l-68 -150h-110zM442 150l72 -61q-77 -99 -212 -99q-118 0 -192 81q-63 69 -63 170q0 99 68.5 164t170.5 65q106 0 179 -74l-66 -68q-47 52 -112 52q-59 0 -102 -38.5t-43 -100.5q0 -64 43 -110q46 -51 121 -51q81 0 136 70z" />
    <glyph glyph-name="Dcaron" unicode="&#x10e;" horiz-adv-x="731" 
d="M213 95h101q120 0 185 66q65 67 65 170q0 111 -81 192q-84 82 -216 82h-144zM314 0h-184l-123 700h259q181 0 288 -110q110 -112 110 -260q0 -142 -92 -236q-94 -94 -258 -94zM65 900h65l112 -88l58 88h65l-68 -150h-110z" />
    <glyph glyph-name="dcaron" unicode="&#x10f;" horiz-adv-x="636" 
d="M557 550h-65l65 150h105zM438 135l-32 190q-23 24 -57.5 39.5t-67.5 15.5q-61 0 -100 -37.5t-39 -97.5q0 -71 50.5 -118t119.5 -47q79 0 126 55zM264 470q60 0 93.5 -29t39.5 -66l-59 335h96l125 -710h-91l-17 95q0 -40 -39 -72.5t-110 -32.5q-62 0 -116 27
q-66 34 -102.5 98t-36.5 135q0 91 63.5 155.5t153.5 64.5z" />
    <glyph glyph-name="Dcroat" unicode="&#x110;" horiz-adv-x="731" 
d="M7 700h259q181 0 288 -110q110 -112 110 -260q0 -142 -92 -236q-94 -94 -258 -94h-184l-58 330h-100l-17 95h100zM267 605h-144l32 -180h200l16 -95h-200l42 -235h101q120 0 185 66q65 67 65 170q0 111 -81 192q-84 82 -216 82z" />
    <glyph glyph-name="dcroat" unicode="&#x111;" horiz-adv-x="596" 
d="M264 470q57 0 90 -26.5t41 -62.5l-27 154h-119l-15 85h119l-15 90h96l16 -90h80l15 -85h-80l94 -535h-91l-17 95q0 -40 -39 -72.5t-110 -32.5q-62 0 -116 27q-66 34 -102.5 98t-36.5 135q0 91 63.5 155.5t153.5 64.5zM438 135l-32 190q-23 24 -57.5 39.5t-67.5 15.5
q-61 0 -100 -37.5t-39 -97.5q0 -71 50.5 -118t119.5 -47q79 0 126 55z" />
    <glyph glyph-name="Emacron" unicode="&#x112;" horiz-adv-x="545" 
d="M540 0h-410l-123 700h400l17 -95h-302l32 -180h231l17 -95h-232l42 -235h311zM52 860h300v-85h-300v85z" />
    <glyph glyph-name="emacron" unicode="&#x113;" horiz-adv-x="543" 
d="M91 650h300v-85h-300v85zM270 389q-49 0 -83 -27.5t-46 -71.5h253q-11 44 -46 71.5t-78 27.5zM494 210h-353q11 -62 55 -99.5t108 -37.5q81 0 136 55l61 -58q-75 -80 -197 -80q-112 0 -184.5 72t-72.5 185q0 96 63.5 159.5t158.5 63.5q99 0 162.5 -71.5t63.5 -168.5
q0 -12 -1 -20z" />
    <glyph glyph-name="Ebreve" unicode="&#x114;" horiz-adv-x="545" 
d="M540 0h-410l-123 700h400l17 -95h-302l32 -180h231l17 -95h-232l42 -235h311zM247 900h85q0 -58 -41 -99t-99 -41t-99 41t-41 99h85q0 -22 16.5 -38.5t38.5 -16.5t38.5 16.5t16.5 38.5z" />
    <glyph glyph-name="ebreve" unicode="&#x115;" horiz-adv-x="543" 
d="M276 690h85q0 -58 -41 -99t-99 -41t-99 41t-41 99h85q0 -22 16 -38.5t39 -16.5t39 16.5t16 38.5zM270 389q-49 0 -83 -27.5t-46 -71.5h253q-11 44 -46 71.5t-78 27.5zM494 210h-353q11 -62 55 -99.5t108 -37.5q81 0 136 55l61 -58q-75 -80 -197 -80q-112 0 -184.5 72
t-72.5 185q0 96 63.5 159.5t158.5 63.5q99 0 162.5 -71.5t63.5 -168.5q0 -12 -1 -20z" />
    <glyph glyph-name="Edotaccent" unicode="&#x116;" horiz-adv-x="545" 
d="M540 0h-410l-123 700h400l17 -95h-302l32 -180h231l17 -95h-232l42 -235h311zM130 837q0 26 18 44.5t44 18.5t44.5 -18.5t18.5 -44.5t-18.5 -44t-44.5 -18t-44 18t-18 44z" />
    <glyph glyph-name="edotaccent" unicode="&#x117;" horiz-adv-x="543" 
d="M168 627q0 26 18 44.5t44 18.5t44.5 -18.5t18.5 -44.5t-18.5 -44t-44.5 -18t-44 18t-18 44zM270 389q-49 0 -83 -27.5t-46 -71.5h253q-11 44 -46 71.5t-78 27.5zM494 210h-353q11 -62 55 -99.5t108 -37.5q81 0 136 55l61 -58q-75 -80 -197 -80q-112 0 -184.5 72
t-72.5 185q0 96 63.5 159.5t158.5 63.5q99 0 162.5 -71.5t63.5 -168.5q0 -12 -1 -20z" />
    <glyph glyph-name="Eogonek" unicode="&#x118;" horiz-adv-x="545" 
d="M540 0h-60q-31 -46 -31 -86q0 -21 13 -32.5t34 -11.5q13 0 23 4l15 -85q-21 -9 -55 -9q-54 0 -89.5 34.5t-35.5 85.5q0 55 30 100h-254l-123 700h400l17 -95h-302l32 -180h231l17 -95h-232l42 -235h311z" />
    <glyph glyph-name="eogonek" unicode="&#x119;" horiz-adv-x="543" 
d="M494 210h-353q11 -62 55 -99.5t108 -37.5q81 0 136 55l61 -58q-42 -44 -100 -65q-34 -49 -34 -91q0 -21 13 -32.5t34 -11.5q13 0 23 4l15 -85q-21 -9 -55 -9q-54 0 -89.5 34.5t-35.5 85.5t24 90q-110 3 -179.5 74.5t-69.5 182.5q0 96 63.5 159.5t158.5 63.5
q99 0 162.5 -71.5t63.5 -168.5q0 -12 -1 -20zM270 389q-49 0 -83 -27.5t-46 -71.5h253q-11 44 -46 71.5t-78 27.5z" />
    <glyph glyph-name="Ecaron" unicode="&#x11a;" horiz-adv-x="545" 
d="M540 0h-410l-123 700h400l17 -95h-302l32 -180h231l17 -95h-232l42 -235h311zM22 900h65l112 -88l58 88h65l-68 -150h-110z" />
    <glyph glyph-name="ecaron" unicode="&#x11b;" horiz-adv-x="543" 
d="M61 690h65l112 -88l58 88h65l-68 -150h-110zM270 389q-49 0 -83 -27.5t-46 -71.5h253q-11 44 -46 71.5t-78 27.5zM494 210h-353q11 -62 55 -99.5t108 -37.5q81 0 136 55l61 -58q-75 -80 -197 -80q-112 0 -184.5 72t-72.5 185q0 96 63.5 159.5t158.5 63.5
q99 0 162.5 -71.5t63.5 -168.5q0 -12 -1 -20z" />
    <glyph glyph-name="Gcircumflex" unicode="&#x11c;" horiz-adv-x="750" 
d="M348 425h299l53 -298q-46 -65 -118 -101t-162 -36q-164 0 -278.5 111t-114.5 268q0 146 97.5 243.5t245.5 97.5q130 0 233 -88l-65 -68q-75 61 -168 61q-105 0 -174 -70t-69 -176q0 -117 85 -200.5t208 -83.5q103 0 176 68l-32 177h-200zM492 750h-65l-112 88l-58 -88
h-65l68 150h110z" />
    <glyph glyph-name="gcircumflex" unicode="&#x11d;" horiz-adv-x="596" 
d="M427 540h-65l-112 88l-58 -88h-65l68 150h110zM460 15l-14 80q0 -40 -38 -72.5t-106 -32.5q-62 0 -116 27q-66 34 -102.5 98t-36.5 135q0 91 63.5 155.5t153.5 64.5q57 0 91.5 -25.5t43.5 -60.5l-12 76h91l77 -438q6 -36 6 -63q0 -89 -60.5 -149t-163.5 -60
q-70 0 -128 28.5t-90 64.5l65 68q65 -71 154 -71q59 0 93.5 32t34.5 87q0 20 -6 56zM438 135l-32 190q-23 24 -57.5 39.5t-67.5 15.5q-61 0 -100 -37.5t-39 -97.5q0 -71 50.5 -118t119.5 -47q79 0 126 55z" />
    <glyph glyph-name="Gbreve" unicode="&#x11e;" horiz-adv-x="750" 
d="M348 425h299l53 -298q-46 -65 -118 -101t-162 -36q-164 0 -278.5 111t-114.5 268q0 146 97.5 243.5t245.5 97.5q130 0 233 -88l-65 -68q-75 61 -168 61q-105 0 -174 -70t-69 -176q0 -117 85 -200.5t208 -83.5q103 0 176 68l-32 177h-200zM360 900h85q0 -58 -41 -99
t-99 -41t-99 41t-41 99h85q0 -22 16 -38.5t39 -16.5t39 16.5t16 38.5z" />
    <glyph glyph-name="gbreve" unicode="&#x11f;" horiz-adv-x="596" 
d="M303 690h85q0 -58 -41 -99t-99 -41t-99 41t-41 99h85q0 -22 16.5 -38.5t38.5 -16.5t38.5 16.5t16.5 38.5zM460 15l-14 80q0 -40 -38 -72.5t-106 -32.5q-62 0 -116 27q-66 34 -102.5 98t-36.5 135q0 91 63.5 155.5t153.5 64.5q57 0 91.5 -25.5t43.5 -60.5l-12 76h91
l77 -438q6 -36 6 -63q0 -89 -60.5 -149t-163.5 -60q-70 0 -128 28.5t-90 64.5l65 68q65 -71 154 -71q59 0 93.5 32t34.5 87q0 20 -6 56zM438 135l-32 190q-23 24 -57.5 39.5t-67.5 15.5q-61 0 -100 -37.5t-39 -97.5q0 -71 50.5 -118t119.5 -47q79 0 126 55z" />
    <glyph glyph-name="Gdotaccent" unicode="&#x120;" horiz-adv-x="750" 
d="M348 425h299l53 -298q-46 -65 -118 -101t-162 -36q-164 0 -278.5 111t-114.5 268q0 146 97.5 243.5t245.5 97.5q130 0 233 -88l-65 -68q-75 61 -168 61q-105 0 -174 -70t-69 -176q0 -117 85 -200.5t208 -83.5q103 0 176 68l-32 177h-200zM260 837q0 26 18 44.5t44 18.5
t44.5 -18.5t18.5 -44.5t-18.5 -44t-44.5 -18t-44 18t-18 44z" />
    <glyph glyph-name="gdotaccent" unicode="&#x121;" horiz-adv-x="596" 
d="M195 627q0 26 18 44.5t44 18.5t44.5 -18.5t18.5 -44.5t-18.5 -44t-44.5 -18t-44 18t-18 44zM460 15l-14 80q0 -40 -38 -72.5t-106 -32.5q-62 0 -116 27q-66 34 -102.5 98t-36.5 135q0 91 63.5 155.5t153.5 64.5q57 0 91.5 -25.5t43.5 -60.5l-12 76h91l77 -438
q6 -36 6 -63q0 -89 -60.5 -149t-163.5 -60q-70 0 -128 28.5t-90 64.5l65 68q65 -71 154 -71q59 0 93.5 32t34.5 87q0 20 -6 56zM438 135l-32 190q-23 24 -57.5 39.5t-67.5 15.5q-61 0 -100 -37.5t-39 -97.5q0 -71 50.5 -118t119.5 -47q79 0 126 55z" />
    <glyph glyph-name="Gcommaaccent" unicode="&#x122;" horiz-adv-x="750" 
d="M348 425h299l53 -298q-46 -65 -118 -101t-162 -36q-164 0 -278.5 111t-114.5 268q0 146 97.5 243.5t245.5 97.5q130 0 233 -88l-65 -68q-75 61 -168 61q-105 0 -174 -70t-69 -176q0 -117 85 -200.5t208 -83.5q103 0 176 68l-32 177h-200zM378 -200h-65l65 150h105z" />
    <glyph glyph-name="gcommaaccent" unicode="&#x123;" horiz-adv-x="596" 
d="M304 690h65l-65 -150h-105zM460 15l-14 80q0 -40 -38 -72.5t-106 -32.5q-62 0 -116 27q-66 34 -102.5 98t-36.5 135q0 91 63.5 155.5t153.5 64.5q57 0 91.5 -25.5t43.5 -60.5l-12 76h91l77 -438q6 -36 6 -63q0 -89 -60.5 -149t-163.5 -60q-70 0 -128 28.5t-90 64.5l65 68
q65 -71 154 -71q59 0 93.5 32t34.5 87q0 20 -6 56zM438 135l-32 190q-23 24 -57.5 39.5t-67.5 15.5q-61 0 -100 -37.5t-39 -97.5q0 -71 50.5 -118t119.5 -47q79 0 126 55z" />
    <glyph glyph-name="Hcircumflex" unicode="&#x124;" horiz-adv-x="762" 
d="M439 750h-65l-112 88l-58 -88h-65l68 150h110zM715 0h-99l-58 330h-387l58 -330h-99l-123 700h99l49 -275h387l-49 275h99z" />
    <glyph glyph-name="hcircumflex" unicode="&#x125;" horiz-adv-x="602" 
d="M200 760h-65l-112 88l-58 -88h-65l68 150h110zM293 470q104 0 173 -75q47 -52 62 -142l44 -253h-96l-43 244q-12 66 -42 96q-40 40 -99 40q-77 0 -131 -65l55 -315h-96l-125 710h96l61 -345q0 44 41 74.5t100 30.5z" />
    <glyph glyph-name="Hbar" unicode="&#x126;" horiz-adv-x="762" 
d="M155 425h387l-18 100h-387zM130 0l-92 525h-101l-16 95h100l-14 80h99l14 -80h387l-14 80h99l14 -80h101l16 -95h-100l92 -525h-99l-58 330h-387l58 -330h-99z" />
    <glyph glyph-name="hbar" unicode="&#x127;" horiz-adv-x="602" 
d="M293 470q104 0 173 -75q47 -52 62 -142l44 -253h-96l-43 244q-12 66 -42 96q-40 40 -99 40q-77 0 -131 -65l55 -315h-96l-94 535h-80l-15 85h80l-16 90h96l16 -90h120l15 -85h-120l30 -170q0 44 41 74.5t100 30.5z" />
    <glyph glyph-name="Itilde" unicode="&#x128;" horiz-adv-x="276" 
d="M229 0h-99l-123 700h99zM-71 760l-65 21q2 46 29.5 77.5t71.5 31.5q27 0 72 -22.5t64 -22.5q30 0 38 45l65 -21q-2 -46 -29.5 -77.5t-71.5 -31.5q-27 0 -72 22.5t-64 22.5q-30 0 -38 -45z" />
    <glyph glyph-name="itilde" unicode="&#x129;" horiz-adv-x="253" 
d="M39 460h96l81 -460h-96zM-46 550l-65 21q2 46 29.5 77.5t71.5 31.5q27 0 72 -22.5t64 -22.5q30 0 38 45l65 -21q-2 -46 -29.5 -77.5t-71.5 -31.5q-27 0 -72 22.5t-64 22.5q-30 0 -38 -45z" />
    <glyph glyph-name="Imacron" unicode="&#x12a;" horiz-adv-x="276" 
d="M229 0h-99l-123 700h99zM-113 860h300v-85h-300v85z" />
    <glyph glyph-name="imacron" unicode="&#x12b;" horiz-adv-x="253" 
d="M39 460h96l81 -460h-96zM-88 650h300v-85h-300v85z" />
    <glyph glyph-name="Ibreve" unicode="&#x12c;" horiz-adv-x="276" 
d="M229 0h-99l-123 700h99zM-107 900h85q0 -22 16 -38.5t39 -16.5t39 16.5t16 38.5h85q0 -58 -41 -99t-99 -41t-99 41t-41 99z" />
    <glyph glyph-name="ibreve" unicode="&#x12d;" horiz-adv-x="253" 
d="M39 460h96l81 -460h-96zM-80 690h85q0 -22 16.5 -38.5t38.5 -16.5t38.5 16.5t16.5 38.5h85q0 -58 -41 -99t-99 -41t-99 41t-41 99z" />
    <glyph glyph-name="Iogonek" unicode="&#x12e;" horiz-adv-x="276" 
d="M229 0q-31 -49 -31 -86q0 -21 13 -32.5t34 -11.5q13 0 23 4l15 -85q-21 -9 -55 -9q-54 0 -89.5 34.5t-35.5 85.5q0 54 28 96l-124 704h99z" />
    <glyph glyph-name="iogonek" unicode="&#x12f;" horiz-adv-x="253" 
d="M120 0l-81 460h96l81 -460q-31 -49 -31 -86q0 -21 13 -32.5t34 -11.5q13 0 23 4l15 -85q-21 -9 -55 -9q-54 0 -89.5 34.5t-35.5 85.5q0 57 30 100zM122 627q0 -26 -18 -44t-44 -18t-44.5 18t-18.5 44t18.5 44.5t44.5 18.5t44 -18.5t18 -44.5z" />
    <glyph glyph-name="Idotaccent" unicode="&#x130;" horiz-adv-x="276" 
d="M229 0h-99l-123 700h99zM-29 837q0 26 18 44.5t44 18.5t44.5 -18.5t18.5 -44.5t-18.5 -44t-44.5 -18t-44 18t-18 44z" />
    <glyph glyph-name="dotlessi" unicode="&#x131;" horiz-adv-x="253" 
d="M39 460h96l81 -460h-96z" />
    <glyph glyph-name="IJ" unicode="&#x132;" horiz-adv-x="735" 
d="M229 0h-99l-123 700h99zM301 89l82 52q37 -56 98 -56q39 0 61.5 24.5t22.5 66.5q0 21 -4 39l-85 485h99l86 -490q4 -28 4 -41q0 -80 -51 -129.5t-130 -49.5q-58 0 -106.5 25.5t-76.5 73.5z" />
    <glyph glyph-name="ij" unicode="&#x133;" horiz-adv-x="519" 
d="M122 627q0 -26 -18 -44t-44 -18t-44.5 18t-18.5 44t18.5 44.5t44.5 18.5t44 -18.5t18 -44.5zM39 460h96l81 -460h-96zM265 -245l13 89q16 -4 41 -4q78 0 78 83q0 14 -7 57l-85 480h96l85 -480q7 -38 7 -66q0 -75 -47.5 -119.5t-128.5 -44.5q-29 0 -52 5zM388 627
q0 -26 -18 -44t-44 -18t-44.5 18t-18.5 44t18.5 44.5t44.5 18.5t44 -18.5t18 -44.5z" />
    <glyph glyph-name="Jcircumflex" unicode="&#x134;" horiz-adv-x="459" 
d="M385 750h-65l-112 88l-58 -88h-65l68 150h110zM25 89l82 52q37 -56 98 -56q39 0 61.5 24.5t22.5 66.5q0 21 -4 39l-85 485h99l86 -490q4 -28 4 -41q0 -80 -51 -129.5t-130 -49.5q-58 0 -106.5 25.5t-76.5 73.5z" />
    <glyph glyph-name="jcircumflex" unicode="&#x135;" horiz-adv-x="266" 
d="M231 540h-65l-112 88l-58 -88h-65l68 150h110zM12 -245l13 89q16 -4 41 -4q78 0 78 83q0 14 -7 57l-85 480h96l85 -480q7 -38 7 -66q0 -75 -47.5 -119.5t-128.5 -44.5q-29 0 -52 5z" />
    <glyph glyph-name="Kcommaaccent" unicode="&#x136;" horiz-adv-x="645" 
d="M229 0h-99l-123 700h99l52 -297l260 297h129l-273 -314l426 -386h-144l-389 351zM338 -200h-65l65 150h105z" />
    <glyph glyph-name="kcommaaccent" unicode="&#x137;" horiz-adv-x="551" 
d="M216 0h-96l-125 710h96l74 -424l172 174h129l-192 -192l312 -268h-137l-274 232zM278 -200h-65l65 150h105z" />
    <glyph glyph-name="kgreenlandic" unicode="&#x138;" horiz-adv-x="551" 
d="M216 0h-96l-81 460h96l30 -174l172 174h129l-192 -192l312 -268h-137l-274 232z" />
    <glyph glyph-name="Lacute" unicode="&#x139;" horiz-adv-x="525" 
d="M75 750h-65l65 150h105zM540 0h-410l-123 700h99l106 -605h311z" />
    <glyph glyph-name="lacute" unicode="&#x13a;" horiz-adv-x="253" 
d="M63 760h-65l65 150h105zM216 0h-96l-125 710h96z" />
    <glyph glyph-name="Lcommaaccent" unicode="&#x13b;" horiz-adv-x="525" 
d="M540 0h-410l-123 700h99l106 -605h311zM288 -200h-65l65 150h105z" />
    <glyph glyph-name="lcommaaccent" unicode="&#x13c;" horiz-adv-x="253" 
d="M216 0h-96l-125 710h96zM129 -200h-65l65 150h105z" />
    <glyph glyph-name="Lcaron" unicode="&#x13d;" horiz-adv-x="525" 
d="M228 550h-65l65 150h105zM540 0h-410l-123 700h99l106 -605h311z" />
    <glyph glyph-name="lcaron" unicode="&#x13e;" horiz-adv-x="293" 
d="M214 550h-65l65 150h105zM216 0h-96l-125 710h96z" />
    <glyph glyph-name="Ldot" unicode="&#x13f;" horiz-adv-x="525" 
d="M540 0h-410l-123 700h99l106 -605h311zM248 350q0 26 18 44.5t44 18.5t44.5 -18.5t18.5 -44.5t-18.5 -44t-44.5 -18t-44 18t-18 44z" />
    <glyph glyph-name="ldot" unicode="&#x140;" horiz-adv-x="253" 
d="M216 0h-96l-125 710h96zM235 350q0 26 18 44.5t44 18.5t44.5 -18.5t18.5 -44.5t-18.5 -44t-44.5 -18t-44 18t-18 44z" />
    <glyph glyph-name="Lslash" unicode="&#x141;" horiz-adv-x="525" 
d="M-12 245l-18 100l89 58l-52 297h99l42 -240l126 82l18 -100l-127 -82l47 -265h311l17 -95h-410l-54 302z" />
    <glyph glyph-name="lslash" unicode="&#x142;" horiz-adv-x="253" 
d="M-24 247l-16 97l89 58l-54 308h96l44 -253l90 58l16 -97l-89 -58l64 -360h-96l-54 305z" />
    <glyph glyph-name="Nacute" unicode="&#x143;" horiz-adv-x="768" 
d="M652 0l-512 505l89 -505h-99l-123 700h69l512 -504l-89 504h99l123 -700h-69zM314 750h-65l65 150h105z" />
    <glyph glyph-name="nacute" unicode="&#x144;" horiz-adv-x="602" 
d="M301 540h-65l65 150h105zM293 470q104 0 173 -75q47 -52 62 -142l44 -253h-96l-43 244q-12 66 -42 96q-40 40 -99 40q-77 0 -131 -65l55 -315h-96l-81 460h91l17 -95q0 44 43 74.5t103 30.5z" />
    <glyph glyph-name="Ncommaaccent" unicode="&#x145;" horiz-adv-x="768" 
d="M652 0l-512 505l89 -505h-99l-123 700h69l512 -504l-89 504h99l123 -700h-69zM378 -200h-65l65 150h105z" />
    <glyph glyph-name="ncommaaccent" unicode="&#x146;" horiz-adv-x="602" 
d="M298 -200h-65l65 150h105zM293 470q104 0 173 -75q47 -52 62 -142l44 -253h-96l-43 244q-12 66 -42 96q-40 40 -99 40q-77 0 -131 -65l55 -315h-96l-81 460h91l17 -95q0 44 43 74.5t103 30.5z" />
    <glyph glyph-name="Ncaron" unicode="&#x147;" horiz-adv-x="768" 
d="M652 0l-512 505l89 -505h-99l-123 700h69l512 -504l-89 504h99l123 -700h-69zM114 900h65l112 -88l58 88h65l-68 -150h-110z" />
    <glyph glyph-name="ncaron" unicode="&#x148;" horiz-adv-x="602" 
d="M81 690h65l112 -88l58 88h65l-68 -150h-110zM293 470q104 0 173 -75q47 -52 62 -142l44 -253h-96l-43 244q-12 66 -42 96q-40 40 -99 40q-77 0 -131 -65l55 -315h-96l-81 460h91l17 -95q0 44 43 74.5t103 30.5z" />
    <glyph glyph-name="napostrophe" unicode="&#x149;" horiz-adv-x="602" 
d="M89 550h-65l65 150h105zM293 470q104 0 173 -75q47 -52 62 -142l44 -253h-96l-43 244q-12 66 -42 96q-40 40 -99 40q-77 0 -131 -65l55 -315h-96l-81 460h91l17 -95q0 44 43 74.5t103 30.5z" />
    <glyph glyph-name="Eng" unicode="&#x14a;" horiz-adv-x="768" 
d="M367 -151l82 52q37 -56 98 -56q39 0 61.5 24.5t22.5 66.5q0 21 -4 39l-11 60l-476 470l89 -505h-99l-123 700h69l512 -504l-89 504h99l129 -730q4 -28 4 -41q0 -80 -51 -129.5t-130 -49.5q-58 0 -106.5 25.5t-76.5 73.5z" />
    <glyph glyph-name="eng" unicode="&#x14b;" horiz-adv-x="602" 
d="M293 470q104 0 173 -75q47 -52 62 -142l48 -273q7 -38 7 -66q0 -74 -51.5 -119t-129.5 -45q-61 0 -98 24l40 81q26 -15 60 -15q40 0 61.5 22t21.5 61q0 21 -7 57l-47 264q-12 66 -42 96q-40 40 -99 40q-77 0 -131 -65l55 -315h-96l-81 460h91l17 -95q0 44 43 74.5
t103 30.5z" />
    <glyph glyph-name="Omacron" unicode="&#x14c;" horiz-adv-x="810" 
d="M145 860h300v-85h-300v85zM366 615q-104 0 -172 -69q-67 -68 -67 -177q0 -115 84 -199q87 -85 193 -85q104 0 172 69q67 68 67 177q0 115 -84 199q-87 85 -193 85zM405 -10q-73 0 -142 29.5t-123 83.5q-113 116 -113 267q0 146 95 243q97 97 243 97q73 0 142 -29.5
t123 -83.5q113 -116 113 -267q0 -146 -95 -243q-97 -97 -243 -97z" />
    <glyph glyph-name="omacron" unicode="&#x14d;" horiz-adv-x="584" 
d="M142 241q0 -66 47.5 -113.5t114.5 -47.5q60 0 99 39.5t39 99.5q0 66 -47.5 113.5t-114.5 47.5q-60 0 -99 -39.5t-39 -99.5zM47 241q0 97 66 163t167 66q106 0 181.5 -73.5t75.5 -177.5q0 -97 -66 -163t-167 -66q-106 0 -181.5 73.5t-75.5 177.5zM75 650h300v-85h-300v85z
" />
    <glyph glyph-name="Obreve" unicode="&#x14e;" horiz-adv-x="810" 
d="M366 615q-104 0 -172 -69q-67 -68 -67 -177q0 -115 84 -199q87 -85 193 -85q104 0 172 69q67 68 67 177q0 115 -84 199q-87 85 -193 85zM405 -10q-73 0 -142 29.5t-123 83.5q-113 116 -113 267q0 146 95 243q97 97 243 97q73 0 142 -29.5t123 -83.5q113 -116 113 -267
q0 -146 -95 -243q-97 -97 -243 -97zM155 900h85q0 -22 16 -38.5t39 -16.5t39 16.5t16 38.5h85q0 -58 -41 -99t-99 -41t-99 41t-41 99z" />
    <glyph glyph-name="obreve" unicode="&#x14f;" horiz-adv-x="584" 
d="M142 241q0 -66 47.5 -113.5t114.5 -47.5q60 0 99 39.5t39 99.5q0 66 -47.5 113.5t-114.5 47.5q-60 0 -99 -39.5t-39 -99.5zM47 241q0 97 66 163t167 66q106 0 181.5 -73.5t75.5 -177.5q0 -97 -66 -163t-167 -66q-106 0 -181.5 73.5t-75.5 177.5zM72 690h85
q0 -22 16.5 -38.5t38.5 -16.5t38.5 16.5t16.5 38.5h85q0 -58 -41 -99t-99 -41t-99 41t-41 99z" />
    <glyph glyph-name="Ohungarumlaut" unicode="&#x150;" horiz-adv-x="810" 
d="M366 615q-104 0 -172 -69q-67 -68 -67 -177q0 -115 84 -199q87 -85 193 -85q104 0 172 69q67 68 67 177q0 115 -84 199q-87 85 -193 85zM405 -10q-73 0 -142 29.5t-123 83.5q-113 116 -113 267q0 146 95 243q97 97 243 97q73 0 142 -29.5t123 -83.5q113 -116 113 -267
q0 -146 -95 -243q-97 -97 -243 -97zM262 750h-65l65 150h105zM447 750h-65l65 150h105z" />
    <glyph glyph-name="ohungarumlaut" unicode="&#x151;" horiz-adv-x="584" 
d="M142 241q0 -66 47.5 -113.5t114.5 -47.5q60 0 99 39.5t39 99.5q0 66 -47.5 113.5t-114.5 47.5q-60 0 -99 -39.5t-39 -99.5zM47 241q0 97 66 163t167 66q106 0 181.5 -73.5t75.5 -177.5q0 -97 -66 -163t-167 -66q-106 0 -181.5 73.5t-75.5 177.5zM169 540h-65l65 150h105z
M354 540h-65l65 150h105z" />
    <glyph glyph-name="OE" unicode="&#x152;" horiz-adv-x="1120" 
d="M405 -10q-73 0 -142 29.5t-123 83.5q-113 116 -113 267q0 146 95 243q97 97 243 97q127 0 230 -86l-13 76h400l17 -95h-302l32 -180h231l17 -95h-232l42 -235h311l17 -95h-410l-23 131q-17 -27 -34 -44q-97 -97 -243 -97zM366 615q-104 0 -172 -69q-67 -68 -67 -177
q0 -115 84 -199q87 -85 193 -85q104 0 172 69q67 68 67 177q0 115 -84 199q-87 85 -193 85z" />
    <glyph glyph-name="oe" unicode="&#x153;" horiz-adv-x="937" 
d="M142 241q0 -66 47.5 -113.5t114.5 -47.5q60 0 99 39.5t39 99.5q0 66 -47.5 113.5t-114.5 47.5q-60 0 -99 -39.5t-39 -99.5zM664 389q-49 0 -83 -27.5t-46 -71.5h253q-11 44 -46 71.5t-78 27.5zM698 -10q-136 0 -204 103q-62 -103 -190 -103q-106 0 -181.5 73.5
t-75.5 177.5q0 97 66 163t167 66q62 0 114.5 -27.5t86.5 -75.5q27 48 74.5 75.5t107.5 27.5q99 0 162.5 -71.5t63.5 -168.5q0 -12 -1 -20h-353q11 -62 55 -99.5t108 -37.5q81 0 136 55l61 -58q-75 -80 -197 -80z" />
    <glyph glyph-name="Racute" unicode="&#x154;" horiz-adv-x="646" 
d="M229 0h-99l-123 700h275q66 0 108 -21q48 -24 77 -71.5t29 -105.5q0 -89 -72 -141q-25 -19 -59 -26l311 -335h-132l-308 330h-65zM283 605h-160l31 -180h144q49 0 70 18q28 23 28 65q0 48 -40 78q-24 19 -73 19zM233 750h-65l65 150h105z" />
    <glyph glyph-name="racute" unicode="&#x155;" horiz-adv-x="384" 
d="M190 540h-65l65 150h105zM286 380q-73 0 -124 -69l54 -311h-96l-81 460h91l17 -95q0 44 41.5 74.5t100.5 30.5q14 0 30 -3l-6 -89q-14 2 -27 2z" />
    <glyph glyph-name="Rcommaaccent" unicode="&#x156;" horiz-adv-x="646" 
d="M229 0h-99l-123 700h275q66 0 108 -21q48 -24 77 -71.5t29 -105.5q0 -89 -72 -141q-25 -19 -59 -26l311 -335h-132l-308 330h-65zM283 605h-160l31 -180h144q49 0 70 18q28 23 28 65q0 48 -40 78q-24 19 -73 19zM328 -200h-65l65 150h105z" />
    <glyph glyph-name="rcommaaccent" unicode="&#x157;" horiz-adv-x="384" 
d="M129 -200h-65l65 150h105zM286 380q-73 0 -124 -69l54 -311h-96l-81 460h91l17 -95q0 44 41.5 74.5t100.5 30.5q14 0 30 -3l-6 -89q-14 2 -27 2z" />
    <glyph glyph-name="Rcaron" unicode="&#x158;" horiz-adv-x="646" 
d="M229 0h-99l-123 700h275q66 0 108 -21q48 -24 77 -71.5t29 -105.5q0 -89 -72 -141q-25 -19 -59 -26l311 -335h-132l-308 330h-65zM283 605h-160l31 -180h144q49 0 70 18q28 23 28 65q0 48 -40 78q-24 19 -73 19zM33 900h65l112 -88l58 88h65l-68 -150h-110z" />
    <glyph glyph-name="rcaron" unicode="&#x159;" horiz-adv-x="384" 
d="M1 690h65l112 -88l58 88h65l-68 -150h-110zM286 380q-73 0 -124 -69l54 -311h-96l-81 460h91l17 -95q0 44 41.5 74.5t100.5 30.5q14 0 30 -3l-6 -89q-14 2 -27 2z" />
    <glyph glyph-name="Sacute" unicode="&#x15a;" horiz-adv-x="536" 
d="M218 750h-65l65 150h105zM48 97l70 68q73 -80 160 -80q44 0 78.5 27t34.5 72q0 38 -21 65.5t-54.5 43.5t-74.5 29t-81.5 28.5t-74 36t-54.5 57t-21 85.5q0 79 63.5 130t148.5 51q55 0 101 -19.5t74 -47.5l-61 -76q-49 48 -114 48q-42 0 -77 -22.5t-35 -63.5
q0 -33 28 -57.5t70.5 -38t92 -33.5t92 -43t70.5 -67.5t28 -105.5q0 -83 -62 -138.5t-150 -55.5q-129 0 -231 107z" />
    <glyph glyph-name="sacute" unicode="&#x15b;" horiz-adv-x="464" 
d="M212 540h-65l65 150h105zM63 58l56 64q56 -49 131 -49q34 0 57.5 15.5t23.5 40.5q0 27 -29.5 42.5t-71.5 23.5t-84 19t-71.5 40t-29.5 77q0 63 53.5 101t129.5 38q82 0 143 -47l-48 -70q-44 34 -95 34q-38 0 -64 -15.5t-26 -40.5q0 -19 21 -31.5t53 -17.5t69 -15t69 -23
t53 -42.5t21 -71.5q0 -62 -52.5 -101t-124.5 -39q-110 0 -184 68z" />
    <glyph glyph-name="Scircumflex" unicode="&#x15c;" horiz-adv-x="536" 
d="M341 750h-65l-112 88l-58 -88h-65l68 150h110zM48 97l70 68q73 -80 160 -80q44 0 78.5 27t34.5 72q0 38 -21 65.5t-54.5 43.5t-74.5 29t-81.5 28.5t-74 36t-54.5 57t-21 85.5q0 79 63.5 130t148.5 51q55 0 101 -19.5t74 -47.5l-61 -76q-49 48 -114 48q-42 0 -77 -22.5
t-35 -63.5q0 -33 28 -57.5t70.5 -38t92 -33.5t92 -43t70.5 -67.5t28 -105.5q0 -83 -62 -138.5t-150 -55.5q-129 0 -231 107z" />
    <glyph glyph-name="scircumflex" unicode="&#x15d;" horiz-adv-x="464" 
d="M332 540h-65l-112 88l-58 -88h-65l68 150h110zM63 58l56 64q56 -49 131 -49q34 0 57.5 15.5t23.5 40.5q0 27 -29.5 42.5t-71.5 23.5t-84 19t-71.5 40t-29.5 77q0 63 53.5 101t129.5 38q82 0 143 -47l-48 -70q-44 34 -95 34q-38 0 -64 -15.5t-26 -40.5q0 -19 21 -31.5
t53 -17.5t69 -15t69 -23t53 -42.5t21 -71.5q0 -62 -52.5 -101t-124.5 -39q-110 0 -184 68z" />
    <glyph glyph-name="Scedilla" unicode="&#x15e;" horiz-adv-x="536" 
d="M48 97l70 68q73 -80 160 -80q44 0 78.5 27t34.5 72q0 38 -21 65.5t-54.5 43.5t-74.5 29t-81.5 28.5t-74 36t-54.5 57t-21 85.5q0 79 63.5 130t148.5 51q55 0 101 -19.5t74 -47.5l-61 -76q-49 48 -114 48q-42 0 -77 -22.5t-35 -63.5q0 -33 28 -57.5t70.5 -38t92 -33.5
t92 -43t70.5 -67.5t28 -105.5q0 -70 -45 -121.5t-115 -66.5l-26 -136h-105l60 130l3 1q-120 6 -215 106z" />
    <glyph glyph-name="scedilla" unicode="&#x15f;" horiz-adv-x="464" 
d="M63 58l56 64q56 -49 131 -49q34 0 57.5 15.5t23.5 40.5q0 27 -29.5 42.5t-71.5 23.5t-84 19t-71.5 40t-29.5 77q0 63 53.5 101t129.5 38q82 0 143 -47l-48 -70q-44 34 -95 34q-38 0 -64 -15.5t-26 -40.5q0 -19 21 -31.5t53 -17.5t69 -15t69 -23t53 -42.5t21 -71.5
q0 -51 -37 -87t-93 -48l-26 -135h-105l60 131q-96 7 -160 67z" />
    <glyph glyph-name="Scaron" unicode="&#x160;" horiz-adv-x="536" 
d="M12 900h65l112 -88l58 88h65l-68 -150h-110zM48 97l70 68q73 -80 160 -80q44 0 78.5 27t34.5 72q0 38 -21 65.5t-54.5 43.5t-74.5 29t-81.5 28.5t-74 36t-54.5 57t-21 85.5q0 79 63.5 130t148.5 51q55 0 101 -19.5t74 -47.5l-61 -76q-49 48 -114 48q-42 0 -77 -22.5
t-35 -63.5q0 -33 28 -57.5t70.5 -38t92 -33.5t92 -43t70.5 -67.5t28 -105.5q0 -83 -62 -138.5t-150 -55.5q-129 0 -231 107z" />
    <glyph glyph-name="scaron" unicode="&#x161;" horiz-adv-x="464" 
d="M26 690h65l112 -88l58 88h65l-68 -150h-110zM63 58l56 64q56 -49 131 -49q34 0 57.5 15.5t23.5 40.5q0 27 -29.5 42.5t-71.5 23.5t-84 19t-71.5 40t-29.5 77q0 63 53.5 101t129.5 38q82 0 143 -47l-48 -70q-44 34 -95 34q-38 0 -64 -15.5t-26 -40.5q0 -19 21 -31.5
t53 -17.5t69 -15t69 -23t53 -42.5t21 -71.5q0 -62 -52.5 -101t-124.5 -39q-110 0 -184 68z" />
    <glyph glyph-name="Tcommaaccent" unicode="&#x162;" horiz-adv-x="504" 
d="M405 700l17 -95h-185l106 -605h-99l-106 605h-185l-17 95h469zM253 -200h-65l65 150h105z" />
    <glyph glyph-name="tcommaaccent" unicode="&#x163;" horiz-adv-x="431" 
d="M269 -200h-65l65 150h105zM393 85l28 -85q-33 -10 -79 -10q-81 0 -131 44q-49 43 -64 130l-37 211h-120l-15 85h120l-23 130h96l22 -130h160l15 -85h-160l33 -183q11 -62 32 -84q25 -28 72 -28q24 0 51 5z" />
    <glyph glyph-name="Tcaron" unicode="&#x164;" horiz-adv-x="504" 
d="M405 700l17 -95h-185l106 -605h-99l-106 605h-185l-17 95h469zM1 900h65l112 -88l58 88h65l-68 -150h-110z" />
    <glyph glyph-name="tcaron" unicode="&#x165;" horiz-adv-x="431" 
d="M270 550h-65l65 150h105zM393 85l28 -85q-33 -10 -79 -10q-81 0 -131 44q-49 43 -64 130l-37 211h-120l-15 85h120l-23 130h96l22 -130h160l15 -85h-160l33 -183q11 -62 32 -84q25 -28 72 -28q24 0 51 5z" />
    <glyph glyph-name="Tbar" unicode="&#x166;" horiz-adv-x="504" 
d="M405 700l17 -95h-185l32 -180h150l16 -95h-150l58 -330h-99l-58 330h-150l-16 95h150l-32 180h-185l-17 95h469z" />
    <glyph glyph-name="tbar" unicode="&#x167;" horiz-adv-x="431" 
d="M393 85l28 -85q-33 -10 -79 -10q-81 0 -131 44q-49 43 -64 130l-6 36h-120l-15 85h120l-16 90h-120l-15 85h120l-23 130h96l22 -130h160l15 -85h-160l16 -90h161l15 -85h-161l2 -8q11 -62 32 -84q25 -28 72 -28q24 0 51 5z" />
    <glyph glyph-name="Utilde" unicode="&#x168;" horiz-adv-x="726" 
d="M543 305l-70 395h99l68 -390q9 -52 9 -80q0 -103 -77 -171.5t-188 -68.5q-133 0 -213 74.5t-105 217.5l-73 418h99l73 -415q35 -200 213 -200q74 0 122.5 42t48.5 113q0 32 -6 65zM158 760l-65 21q2 46 29.5 77.5t71.5 31.5q27 0 72 -22.5t64 -22.5q30 0 38 45l65 -21
q-2 -46 -29.5 -77.5t-71.5 -31.5q-27 0 -72 22.5t-64 22.5q-30 0 -38 -45z" />
    <glyph glyph-name="utilde" unicode="&#x169;" horiz-adv-x="598" 
d="M143 550l-65 21q2 46 29.5 77.5t71.5 31.5q27 0 72 -22.5t64 -22.5q30 0 38 45l65 -21q-2 -46 -29.5 -77.5t-71.5 -31.5q-27 0 -72 22.5t-64 22.5q-30 0 -38 -45zM315 -10q-105 0 -174 75q-48 53 -63 142l-44 253h96l43 -244q11 -64 43 -96q40 -40 100 -40q35 0 68.5 18
t54.5 47l-55 315h96l81 -460h-91l-17 95q0 -42 -40.5 -73.5t-97.5 -31.5z" />
    <glyph glyph-name="Umacron" unicode="&#x16a;" horiz-adv-x="726" 
d="M543 305l-70 395h99l68 -390q9 -52 9 -80q0 -103 -77 -171.5t-188 -68.5q-133 0 -213 74.5t-105 217.5l-73 418h99l73 -415q35 -200 213 -200q74 0 122.5 42t48.5 113q0 32 -6 65zM116 860h300v-85h-300v85z" />
    <glyph glyph-name="umacron" unicode="&#x16b;" horiz-adv-x="598" 
d="M108 650h300v-85h-300v85zM315 -10q-105 0 -174 75q-48 53 -63 142l-44 253h96l43 -244q11 -64 43 -96q40 -40 100 -40q35 0 68.5 18t54.5 47l-55 315h96l81 -460h-91l-17 95q0 -42 -40.5 -73.5t-97.5 -31.5z" />
    <glyph glyph-name="Ubreve" unicode="&#x16c;" horiz-adv-x="726" 
d="M543 305l-70 395h99l68 -390q9 -52 9 -80q0 -103 -77 -171.5t-188 -68.5q-133 0 -213 74.5t-105 217.5l-73 418h99l73 -415q35 -200 213 -200q74 0 122.5 42t48.5 113q0 32 -6 65zM119 900h85q0 -22 16 -38.5t39 -16.5t39 16.5t16 38.5h85q0 -58 -41 -99t-99 -41t-99 41
t-41 99z" />
    <glyph glyph-name="ubreve" unicode="&#x16d;" horiz-adv-x="598" 
d="M293 690h85q0 -58 -41 -99t-99 -41t-99 41t-41 99h85q0 -22 16.5 -38.5t38.5 -16.5t38.5 16.5t16.5 38.5zM315 -10q-105 0 -174 75q-48 53 -63 142l-44 253h96l43 -244q11 -64 43 -96q40 -40 100 -40q35 0 68.5 18t54.5 47l-55 315h96l81 -460h-91l-17 95
q0 -42 -40.5 -73.5t-97.5 -31.5z" />
    <glyph glyph-name="Uring" unicode="&#x16e;" horiz-adv-x="726" 
d="M543 305l-70 395h99l68 -390q9 -52 9 -80q0 -103 -77 -171.5t-188 -68.5q-133 0 -213 74.5t-105 217.5l-73 418h99l73 -415q35 -200 213 -200q74 0 122.5 42t48.5 113q0 32 -6 65zM373 830q0 -41 -29.5 -70.5t-70.5 -29.5t-70.5 29.5t-29.5 70.5t29.5 70.5t70.5 29.5
t70.5 -29.5t29.5 -70.5zM313 830q0 16 -11.5 28t-28.5 12t-28.5 -12t-11.5 -28t11.5 -28t28.5 -12t28.5 12t11.5 28z" />
    <glyph glyph-name="uring" unicode="&#x16f;" horiz-adv-x="598" 
d="M138 620q0 41 29.5 70.5t70.5 29.5t70.5 -29.5t29.5 -70.5t-29.5 -70.5t-70.5 -29.5t-70.5 29.5t-29.5 70.5zM198 620q0 -16 12 -28t28 -12t28 12t12 28t-12 28t-28 12t-28 -12t-12 -28zM315 -10q-105 0 -174 75q-48 53 -63 142l-44 253h96l43 -244q11 -64 43 -96
q40 -40 100 -40q35 0 68.5 18t54.5 47l-55 315h96l81 -460h-91l-17 95q0 -42 -40.5 -73.5t-97.5 -31.5z" />
    <glyph glyph-name="Uhungarumlaut" unicode="&#x170;" horiz-adv-x="726" 
d="M543 305l-70 395h99l68 -390q9 -52 9 -80q0 -103 -77 -171.5t-188 -68.5q-133 0 -213 74.5t-105 217.5l-73 418h99l73 -415q35 -200 213 -200q74 0 122.5 42t48.5 113q0 32 -6 65zM211 750h-65l65 150h105zM396 750h-65l65 150h105z" />
    <glyph glyph-name="uhungarumlaut" unicode="&#x171;" horiz-adv-x="598" 
d="M186 540h-65l65 150h105zM371 540h-65l65 150h105zM315 -10q-105 0 -174 75q-48 53 -63 142l-44 253h96l43 -244q11 -64 43 -96q40 -40 100 -40q35 0 68.5 18t54.5 47l-55 315h96l81 -460h-91l-17 95q0 -42 -40.5 -73.5t-97.5 -31.5z" />
    <glyph glyph-name="Uogonek" unicode="&#x172;" horiz-adv-x="726" 
d="M543 305l-70 395h99l68 -390q9 -52 9 -80q0 -76 -44 -135t-116 -87q-37 -50 -37 -94q0 -21 13 -32.5t34 -11.5q13 0 23 4l15 -85q-21 -9 -55 -9q-54 0 -89.5 34.5t-35.5 85.5t24 90q-132 1 -211 75.5t-104 216.5l-73 418h99l73 -415q35 -200 213 -200q74 0 122.5 42
t48.5 113q0 32 -6 65z" />
    <glyph glyph-name="uogonek" unicode="&#x173;" horiz-adv-x="598" 
d="M315 -10q-105 0 -174 75q-48 53 -63 142l-44 253h96l43 -244q11 -64 43 -96q40 -40 100 -40q35 0 68.5 18t54.5 47l-55 315h96l81 -460q-31 -49 -31 -86q0 -21 13 -32.5t34 -11.5q13 0 23 4l15 -85q-21 -9 -55 -9q-54 0 -89.5 34.5t-35.5 85.5q0 55 34 105l-16 90
q0 -42 -40.5 -73.5t-97.5 -31.5z" />
    <glyph glyph-name="Wcircumflex" unicode="&#x174;" horiz-adv-x="963" 
d="M773 0h-69l-270 516l-82 -516h-69l-343 700h109l243 -501l79 501h69l265 -504l68 504h98zM560 750h-65l-112 88l-58 -88h-65l68 150h110z" />
    <glyph glyph-name="wcircumflex" unicode="&#x175;" horiz-adv-x="799" 
d="M654 460h93l-107 -460h-65l-188 317l-73 -317h-65l-267 460h105l176 -306l71 306h65l184 -310zM500 540h-65l-112 88l-58 -88h-65l68 150h110z" />
    <glyph glyph-name="Ycircumflex" unicode="&#x176;" horiz-adv-x="554" 
d="M386 700h106l-173 -380l56 -320h-99l-53 305l-321 395h124l231 -285zM349 750h-65l-112 88l-58 -88h-65l68 150h110z" />
    <glyph glyph-name="ycircumflex" unicode="&#x177;" horiz-adv-x="503" 
d="M-20 460h109l190 -299l78 299h94l-181 -700h-95l73 282zM371 540h-65l-112 88l-58 -88h-65l68 150h110z" />
    <glyph glyph-name="Ydieresis" unicode="&#x178;" horiz-adv-x="554" 
d="M386 700h106l-173 -380l56 -320h-99l-53 305l-321 395h124l231 -285zM39 817q0 26 18 44.5t44 18.5t44.5 -18.5t18.5 -44.5t-18.5 -44t-44.5 -18t-44 18t-18 44zM224 817q0 26 18 44.5t44 18.5t44.5 -18.5t18.5 -44.5t-18.5 -44t-44.5 -18t-44 18t-18 44z" />
    <glyph glyph-name="Zacute" unicode="&#x179;" horiz-adv-x="588" 
d="M-8 605l-17 95h469l12 -65l-278 -540h393l17 -95h-521l-11 65l279 540h-343zM224 750h-65l65 150h105z" />
    <glyph glyph-name="zacute" unicode="&#x17a;" horiz-adv-x="486" 
d="M213 540h-65l65 150h105zM70 60l203 315h-243l-15 85h370l10 -60l-202 -315h283l15 -85h-410z" />
    <glyph glyph-name="Zdotaccent" unicode="&#x17b;" horiz-adv-x="588" 
d="M-8 605l-17 95h469l12 -65l-278 -540h393l17 -95h-521l-11 65l279 540h-343zM141 837q0 26 18 44.5t44 18.5t44.5 -18.5t18.5 -44.5t-18.5 -44t-44.5 -18t-44 18t-18 44z" />
    <glyph glyph-name="zdotaccent" unicode="&#x17c;" horiz-adv-x="486" 
d="M127 627q0 26 18 44.5t44 18.5t44.5 -18.5t18.5 -44.5t-18.5 -44t-44.5 -18t-44 18t-18 44zM70 60l203 315h-243l-15 85h370l10 -60l-202 -315h283l15 -85h-410z" />
    <glyph glyph-name="Zcaron" unicode="&#x17d;" horiz-adv-x="588" 
d="M-8 605l-17 95h469l12 -65l-278 -540h393l17 -95h-521l-11 65l279 540h-343zM39 900h65l112 -88l58 88h65l-68 -150h-110z" />
    <glyph glyph-name="zcaron" unicode="&#x17e;" horiz-adv-x="486" 
d="M23 690h65l112 -88l58 88h65l-68 -150h-110zM70 60l203 315h-243l-15 85h370l10 -60l-202 -315h283l15 -85h-410z" />
    <glyph glyph-name="longs" unicode="&#x17f;" horiz-adv-x="365" 
d="M130 490l86 -490h-96l-86 490q-7 38 -7 66q0 71 53 117.5t127 46.5q51 0 101 -20l-32 -85q-26 15 -65 15q-41 0 -64.5 -22t-23.5 -61q0 -14 7 -57z" />
    <glyph glyph-name="uni018F" unicode="&#x18f;" horiz-adv-x="777" 
d="M377 85q93 0 153.5 54t77.5 146h-463q20 -91 85.5 -145.5t146.5 -54.5zM39 380h567q-18 107 -92 171t-179 64q-76 0 -137.5 -29t-94.5 -79l-76 64q53 68 133.5 103.5t174.5 35.5q163 0 269 -109t106 -276q0 -145 -95.5 -240t-237.5 -95q-98 0 -177 51.5t-120.5 133
t-41.5 175.5q0 18 1 30z" />
    <glyph glyph-name="florin" unicode="&#x192;" horiz-adv-x="550" 
d="M131 -44q8 27 14.5 72.5t9.5 81.5t8.5 105.5t8.5 99.5h-142l-15 85h165q9 77 20 119q21 83 61 127q58 64 154 64q40 0 75 -14l-26 -83q-25 7 -49 7q-52 0 -83 -35q-25 -30 -39 -81q-11 -36 -19 -104h157l15 -85h-181l-7.5 -97.5t-8.5 -108.5t-10 -86.5t-15 -81.5
q-21 -83 -61 -127q-58 -64 -154 -64q-40 0 -75 14l26 83q25 -7 49 -7q52 0 83 35q25 30 39 81z" />
    <glyph glyph-name="uni01B5" unicode="&#x1b5;" horiz-adv-x="588" 
d="M66 425h176l93 180h-343l-17 95h469l12 -65l-108 -210h102l16 -95h-167l-121 -235h393l17 -95h-521l-11 65l137 265h-111z" />
    <glyph glyph-name="uni01B6" unicode="&#x1b6;" horiz-adv-x="486" 
d="M67 285h148l58 90h-243l-15 85h370l10 -60l-74 -115h71l15 -85h-141l-73 -115h283l15 -85h-410l-11 60l90 140h-78z" />
    <glyph glyph-name="Aringacute" unicode="&#x1fa;" horiz-adv-x="643" 
d="M121 830q0 41 29.5 70.5t70.5 29.5t70.5 -29.5t29.5 -70.5t-29.5 -70.5t-70.5 -29.5t-70.5 29.5t-29.5 70.5zM181 830q0 -16 11.5 -28t28.5 -12t28.5 12t11.5 28t-11.5 28t-28.5 12t-28.5 -12t-11.5 -28zM224 960h-65l65 150h105zM683 0h-112l-105 180h-290l-43 -180h-99
l167 700h69zM410 275l-151 257l-61 -257h212z" />
    <glyph glyph-name="aringacute" unicode="&#x1fb;" horiz-adv-x="596" 
d="M167 620q0 41 29.5 70.5t70.5 29.5t70.5 -29.5t29.5 -70.5t-29.5 -70.5t-70.5 -29.5t-70.5 29.5t-29.5 70.5zM227 620q0 -16 11.5 -28t28.5 -12t28.5 12t11.5 28t-11.5 28t-28.5 12t-28.5 -12t-11.5 -28zM270 750h-65l65 150h105zM438 135l-32 190q-23 24 -57.5 39.5
t-67.5 15.5q-61 0 -100 -37.5t-39 -97.5q0 -71 50.5 -118t119.5 -47q79 0 126 55zM264 470q62 0 97 -29t41 -66l-15 85h91l81 -460h-91l-17 95q0 -40 -39 -72.5t-110 -32.5q-62 0 -116 27q-66 34 -102.5 98t-36.5 135q0 91 63.5 155.5t153.5 64.5z" />
    <glyph glyph-name="AEacute" unicode="&#x1fc;" horiz-adv-x="930" 
d="M413 750h-65l65 150h105zM143 0h-109l295 700h463l17 -95h-302l32 -180h231l17 -95h-232l42 -235h311l17 -95h-410l-32 180h-264zM405 624l-146 -349h207z" />
    <glyph glyph-name="aeacute" unicode="&#x1fd;" horiz-adv-x="927" 
d="M440 540h-65l65 150h105zM468 0l-17 95q0 -40 -39 -72.5t-110 -32.5q-62 0 -116 27q-66 34 -102.5 98t-36.5 135q0 91 63.5 155.5t153.5 64.5q62 0 97 -29t41 -66l-15 85h86l12 -67q62 77 162 77q94 0 163 -70t69 -170q0 -12 -1 -20h-361q10 -61 56 -99t109 -38
q78 0 137 55l61 -58q-74 -80 -194 -80q-81 0 -138 41l6 -31h-86zM517 290h261q-12 42 -47 70.5t-81 28.5q-49 0 -85 -28t-48 -71zM438 135l-32 190q-23 24 -57.5 39.5t-67.5 15.5q-61 0 -100 -37.5t-39 -97.5q0 -71 50.5 -118t119.5 -47q79 0 126 55z" />
    <glyph glyph-name="Oslashacute" unicode="&#x1fe;" horiz-adv-x="810" 
d="M354 750h-65l65 150h105zM263 -10h-95l29 65q-34 24 -57 48q-113 116 -113 267q0 146 95 243q97 97 243 97q67 0 129 -24l12 24h95l-30 -64q30 -20 59 -49q113 -116 113 -267q0 -146 -95 -243q-97 -97 -243 -97q-65 0 -131 25zM559 530q-20 18 -30 26l-211 -456
q40 -15 86 -15q104 0 172 69q67 68 67 177q0 115 -84 199zM366 615q-104 0 -172 -69q-67 -68 -67 -177q0 -115 84 -199q18 -18 28 -25l211 455q-40 15 -84 15z" />
    <glyph glyph-name="oslashacute" unicode="&#x1ff;" horiz-adv-x="584" 
d="M274 540h-65l65 150h105zM47 241q0 97 66 163t167 66q34 0 72 -10l5 10h91l-21 -46q51 -34 80.5 -88t29.5 -117q0 -97 -66 -163t-167 -66q-35 0 -73 10l-4 -10h-92l21 46q-51 34 -80 88t-29 117zM442 219q0 71 -54 120l-117 -256q15 -3 33 -3q60 0 99 39.5t39 99.5z
M142 241q0 -72 53 -120l117 256q-16 3 -32 3q-60 0 -99 -39.5t-39 -99.5z" />
    <glyph glyph-name="Scommaaccent" unicode="&#x218;" horiz-adv-x="536" 
d="M248 -200h-65l65 150h105zM48 97l70 68q73 -80 160 -80q44 0 78.5 27t34.5 72q0 38 -21 65.5t-54.5 43.5t-74.5 29t-81.5 28.5t-74 36t-54.5 57t-21 85.5q0 79 63.5 130t148.5 51q55 0 101 -19.5t74 -47.5l-61 -76q-49 48 -114 48q-42 0 -77 -22.5t-35 -63.5
q0 -33 28 -57.5t70.5 -38t92 -33.5t92 -43t70.5 -67.5t28 -105.5q0 -83 -62 -138.5t-150 -55.5q-129 0 -231 107z" />
    <glyph glyph-name="scommaaccent" unicode="&#x219;" horiz-adv-x="464" 
d="M202 -200h-65l65 150h105zM63 58l56 64q56 -49 131 -49q34 0 57.5 15.5t23.5 40.5q0 27 -29.5 42.5t-71.5 23.5t-84 19t-71.5 40t-29.5 77q0 63 53.5 101t129.5 38q82 0 143 -47l-48 -70q-44 34 -95 34q-38 0 -64 -15.5t-26 -40.5q0 -19 21 -31.5t53 -17.5t69 -15t69 -23
t53 -42.5t21 -71.5q0 -62 -52.5 -101t-124.5 -39q-110 0 -184 68z" />
    <glyph glyph-name="uni0237" unicode="&#x237;" horiz-adv-x="266" 
d="M12 -245l13 89q16 -4 41 -4q78 0 78 83q0 14 -7 57l-85 480h96l85 -480q7 -38 7 -66q0 -75 -47.5 -119.5t-128.5 -44.5q-29 0 -52 5z" />
    <glyph glyph-name="uni0259" unicode="&#x259;" horiz-adv-x="549" 
d="M279 71q49 0 83 27.5t46 71.5h-253q11 -44 46 -71.5t78 -27.5zM55 250h353q-11 62 -55 99.5t-108 37.5q-81 0 -136 -55l-61 58q75 80 197 80q113 0 185 -72t72 -185q0 -96 -63.5 -159.5t-158.5 -63.5q-99 0 -162.5 71.5t-63.5 168.5q0 12 1 20z" />
    <glyph glyph-name="circumflex" unicode="&#x2c6;" horiz-adv-x="440" 
d="M370 540h-65l-112 88l-58 -88h-65l68 150h110z" />
    <glyph glyph-name="caron" unicode="&#x2c7;" horiz-adv-x="440" 
d="M70 690h65l112 -88l58 88h65l-68 -150h-110z" />
    <glyph glyph-name="breve" unicode="&#x2d8;" horiz-adv-x="420" 
d="M265 690h85q0 -58 -41 -99t-99 -41t-99 41t-41 99h85q0 -22 16.5 -38.5t38.5 -16.5t38.5 16.5t16.5 38.5z" />
    <glyph glyph-name="dotaccent" unicode="&#x2d9;" horiz-adv-x="265" 
d="M70 627q0 26 18 44.5t44 18.5t44.5 -18.5t18.5 -44.5t-18.5 -44t-44.5 -18t-44 18t-18 44z" />
    <glyph glyph-name="ring" unicode="&#x2da;" horiz-adv-x="340" 
d="M70 620q0 41 29.5 70.5t70.5 29.5t70.5 -29.5t29.5 -70.5t-29.5 -70.5t-70.5 -29.5t-70.5 29.5t-29.5 70.5zM130 620q0 -16 12 -28t28 -12t28 12t12 28t-12 28t-28 12t-28 -12t-12 -28z" />
    <glyph glyph-name="ogonek" unicode="&#x2db;" horiz-adv-x="320" 
d="M108 10h95q-38 -52 -38 -96q0 -21 13 -32.5t34 -11.5q13 0 23 4l15 -85q-21 -9 -55 -9q-54 0 -89.5 34.5t-35.5 85.5q0 64 38 110z" />
    <glyph glyph-name="tilde" unicode="&#x2dc;" horiz-adv-x="480" 
d="M135 550l-65 21q2 46 29.5 77.5t71.5 31.5q27 0 72 -22.5t64 -22.5q30 0 38 45l65 -21q-2 -46 -29.5 -77.5t-71.5 -31.5q-27 0 -72 22.5t-64 22.5q-30 0 -38 -45z" />
    <glyph glyph-name="hungarumlaut" unicode="&#x2dd;" horiz-adv-x="495" 
d="M135 540h-65l65 150h105zM320 540h-65l65 150h105z" />
    <glyph glyph-name="pi" unicode="&#x3c0;" horiz-adv-x="570" 
d="M504 73l-45 -83q-47 22 -69 62t-33 98l-38 220h-98l65 -370h-96l-64 364q-46 -7 -73 -60l-79 43q39 77 112 102q33 11 82 11h331l15 -90h-99l38 -217q5 -31 15.5 -47.5t35.5 -32.5z" />
    <glyph glyph-name="Wgrave" unicode="&#x1e80;" horiz-adv-x="963" 
d="M773 0h-69l-270 516l-82 -516h-69l-343 700h109l243 -501l79 501h69l265 -504l68 504h98zM427 750h-65l-105 150h105z" />
    <glyph glyph-name="wgrave" unicode="&#x1e81;" horiz-adv-x="799" 
d="M654 460h93l-107 -460h-65l-188 317l-73 -317h-65l-267 460h105l176 -306l71 306h65l184 -310zM379 540h-65l-105 150h105z" />
    <glyph glyph-name="Wacute" unicode="&#x1e82;" horiz-adv-x="963" 
d="M773 0h-69l-270 516l-82 -516h-69l-343 700h109l243 -501l79 501h69l265 -504l68 504h98zM428 750h-65l65 150h105z" />
    <glyph glyph-name="wacute" unicode="&#x1e83;" horiz-adv-x="799" 
d="M654 460h93l-107 -460h-65l-188 317l-73 -317h-65l-267 460h105l176 -306l71 306h65l184 -310zM376 540h-65l65 150h105z" />
    <glyph glyph-name="Wdieresis" unicode="&#x1e84;" horiz-adv-x="963" 
d="M773 0h-69l-270 516l-82 -516h-69l-343 700h109l243 -501l79 501h69l265 -504l68 504h98zM543 817q0 -26 -18 -44t-44 -18t-44.5 18t-18.5 44t18.5 44.5t44.5 18.5t44 -18.5t18 -44.5zM358 817q0 -26 -18 -44t-44 -18t-44.5 18t-18.5 44t18.5 44.5t44.5 18.5t44 -18.5
t18 -44.5z" />
    <glyph glyph-name="wdieresis" unicode="&#x1e85;" horiz-adv-x="799" 
d="M654 460h93l-107 -460h-65l-188 317l-73 -317h-65l-267 460h105l176 -306l71 306h65l184 -310zM501 607q0 -26 -18 -44t-44 -18t-44.5 18t-18.5 44t18.5 44.5t44.5 18.5t44 -18.5t18 -44.5zM316 607q0 -26 -18 -44t-44 -18t-44.5 18t-18.5 44t18.5 44.5t44.5 18.5
t44 -18.5t18 -44.5z" />
    <glyph glyph-name="uni1E8A" unicode="&#x1e8a;" horiz-adv-x="647" 
d="M685 0h-129l-257 307l-144 -307h-110l177 377l-270 323h129l200 -239l111 239h110l-144 -309zM287 837q0 -26 -18 -44t-44 -18t-44.5 18t-18.5 44t18.5 44.5t44.5 18.5t44 -18.5t18 -44.5z" />
    <glyph glyph-name="uni1E8B" unicode="&#x1e8b;" horiz-adv-x="508" 
d="M262 168l-100 -168h-106l140 235l-204 225h123l132 -148l85 148h107l-126 -214l223 -246h-122zM256 627q0 -26 -18 -44t-44 -18t-44.5 18t-18.5 44t18.5 44.5t44.5 18.5t44 -18.5t18 -44.5z" />
    <glyph glyph-name="Ygrave" unicode="&#x1ef2;" horiz-adv-x="554" 
d="M386 700h106l-173 -380l56 -320h-99l-53 305l-321 395h124l231 -285zM252 750h-65l-105 150h105z" />
    <glyph glyph-name="ygrave" unicode="&#x1ef3;" horiz-adv-x="503" 
d="M-20 460h109l190 -299l78 299h94l-181 -700h-95l73 282zM250 540h-65l-105 150h105z" />
    <glyph glyph-name="endash" unicode="&#x2013;" horiz-adv-x="483" 
d="M11 295h440l14 -80h-440z" />
    <glyph glyph-name="emdash" unicode="&#x2014;" horiz-adv-x="783" 
d="M11 295h740l14 -80h-740z" />
    <glyph glyph-name="quoteleft" unicode="&#x2018;" horiz-adv-x="300" 
d="M107 450h-107l95 260h65z" />
    <glyph glyph-name="quoteright" unicode="&#x2019;" horiz-adv-x="300" 
d="M73 710h107l-95 -260h-65z" />
    <glyph glyph-name="quotesinglbase" unicode="&#x201a;" horiz-adv-x="300" 
d="M158 120h107l-95 -260h-65z" />
    <glyph glyph-name="quotedblleft" unicode="&#x201c;" horiz-adv-x="510" 
d="M317 450h-107l95 260h65zM107 450h-107l95 260h65z" />
    <glyph glyph-name="quotedblright" unicode="&#x201d;" horiz-adv-x="510" 
d="M73 710h107l-95 -260h-65zM283 710h107l-95 -260h-65z" />
    <glyph glyph-name="quotedblbase" unicode="&#x201e;" horiz-adv-x="510" 
d="M158 120h107l-95 -260h-65zM368 120h107l-95 -260h-65z" />
    <glyph glyph-name="dagger" unicode="&#x2020;" horiz-adv-x="520" 
d="M274 450h165l16 -90h-165l99 -560h-96l-99 560h-165l-16 90h165l-44 250h96z" />
    <glyph glyph-name="daggerdbl" unicode="&#x2021;" horiz-adv-x="520" 
d="M274 450h165l16 -90h-165l24 -140h166l16 -90h-165l58 -330h-96l-58 330h-165l-16 90h165l-25 140h-165l-16 90h165l-44 250h96z" />
    <glyph glyph-name="bullet" unicode="&#x2022;" horiz-adv-x="560" 
d="M80 230q0 82 59 141t141 59t141 -59t59 -141t-59 -141t-141 -59t-141 59t-59 141z" />
    <glyph glyph-name="ellipsis" unicode="&#x2026;" horiz-adv-x="930" 
d="M125 60q0 29 20.5 49.5t49.5 20.5t49.5 -20.5t20.5 -49.5t-20.5 -49.5t-49.5 -20.5t-49.5 20.5t-20.5 49.5zM420 60q0 29 20.5 49.5t49.5 20.5t49.5 -20.5t20.5 -49.5t-20.5 -49.5t-49.5 -20.5t-49.5 20.5t-20.5 49.5zM715 60q0 29 20.5 49.5t49.5 20.5t49.5 -20.5
t20.5 -49.5t-20.5 -49.5t-49.5 -20.5t-49.5 20.5t-20.5 49.5z" />
    <glyph glyph-name="perthousand" unicode="&#x2030;" horiz-adv-x="1142" 
d="M657 -10q-83 0 -138 56t-55 142q0 72 51 122t125 50q93 0 144 -69q48 69 135 69q83 0 138 -56t55 -142q0 -72 -51 -122t-125 -50q-92 0 -143 69q-48 -69 -136 -69zM743 167q0 46 -30 77t-72 31q-39 0 -63 -26t-24 -66q0 -46 30 -77t72 -31q39 0 63 26t24 66zM1022 167
q0 46 -30 77t-72 31q-39 0 -63 -26t-24 -66q0 -46 30 -77t72 -31q39 0 63 26t24 66zM269 517q0 46 -30 77t-72 31q-39 0 -63 -26t-24 -66q0 -46 30 -77t72 -31q39 0 63 26t24 66zM183 340q-83 0 -138 56t-55 142q0 72 51 122t125 50q83 0 138 -56t55 -142q0 -72 -51 -122
t-125 -50zM307 0h-79l288 700h79z" />
    <glyph glyph-name="guilsinglleft" unicode="&#x2039;" horiz-adv-x="371" 
d="M158 253l198 -203h-125l-161 165l-8 50l103 165h106z" />
    <glyph glyph-name="guilsinglright" unicode="&#x203a;" horiz-adv-x="371" 
d="M213 227l-198 203h125l161 -165l8 -50l-103 -165h-106z" />
    <glyph glyph-name="fraction" unicode="&#x2044;" horiz-adv-x="377" 
d="M84 0h-79l288 700h79z" />
    <glyph glyph-name="uni2070" unicode="&#x2070;" horiz-adv-x="327" 
d="M139 400q43 0 43 64q0 63 -22 119.5t-62 56.5q-43 0 -43 -64q0 -39 8 -77t28 -68.5t48 -30.5zM139 330q-55 0 -92 38.5t-52 92t-15 115.5q0 63 33.5 98.5t84.5 35.5q55 0 92 -38.5t52 -92t15 -115.5q0 -63 -33.5 -98.5t-84.5 -35.5z" />
    <glyph glyph-name="uni2074" unicode="&#x2074;" horiz-adv-x="321" 
d="M-22 417l-8 45l155 238h46l39 -219h50l11 -64h-50l14 -77h-76l-13 77h-168zM135 481l-16 87l-56 -87h72z" />
    <glyph glyph-name="uni2075" unicode="&#x2075;" horiz-adv-x="290" 
d="M-15 377l50 49q23 -26 62 -26q25 0 41.5 15t16.5 39q0 27 -18 44t-46 17q-31 0 -56 -21h-46v206h195l12 -70h-139v-55q22 5 44 5q54 -1 91.5 -34.5t37.5 -91.5q0 -52 -37.5 -88t-93.5 -36q-67 0 -114 47z" />
    <glyph glyph-name="uni2076" unicode="&#x2076;" horiz-adv-x="297" 
d="M54 700h74l-42 -118q8 2 29 2q54 0 92 -38t38 -93q0 -52 -37.5 -87.5t-93.5 -35.5q-57 0 -95 39t-38 95q0 31 15 73zM109 514q-26 0 -47 -14q-7 -21 -7 -38q0 -25 16.5 -43.5t42.5 -18.5q25 0 40.5 15t15.5 38q0 25 -17 43t-44 18z" />
    <glyph glyph-name="uni2077" unicode="&#x2077;" horiz-adv-x="260" 
d="M-38 630l-12 70h233l7 -40l-99 -320h-75l89 290h-143z" />
    <glyph glyph-name="uni2078" unicode="&#x2078;" horiz-adv-x="302" 
d="M-19 459q0 43 30 73q-37 27 -37 74q0 42 30 73t78 31q47 0 79.5 -32t32.5 -77q0 -31 -16 -50q63 -35 63 -101q0 -49 -35 -84.5t-90 -35.5q-56 0 -95.5 38.5t-39.5 90.5zM56 459q0 -23 17.5 -41t41.5 -18q22 0 36.5 14t14.5 36q0 24 -17.5 41.5t-41.5 17.5
q-22 0 -36.5 -14.5t-14.5 -35.5zM119 601q0 16 -10.5 27.5t-25.5 11.5t-24.5 -9.5t-9.5 -24.5q0 -16 10 -27t26 -11q14 0 24 9.5t10 23.5z" />
    <glyph glyph-name="uni2079" unicode="&#x2079;" horiz-adv-x="299" 
d="M156 340h-74l42 118q-8 -2 -29 -2q-54 0 -92 38t-38 93q0 52 37.5 87.5t93.5 35.5q57 0 95 -39t38 -95q0 -31 -15 -73zM101 526q26 0 47 14q7 21 7 38q0 25 -16.5 43.5t-42.5 18.5q-25 0 -40.5 -15t-15.5 -38q0 -25 17 -43t44 -18z" />
    <glyph glyph-name="uni2080" unicode="&#x2080;" horiz-adv-x="327" 
d="M199 60q43 0 43 64q0 63 -22 119.5t-62 56.5q-43 0 -43 -64q0 -39 8 -77t28 -68.5t48 -30.5zM199 -10q-55 0 -92 38.5t-52 92t-15 115.5q0 63 33.5 98.5t84.5 35.5q55 0 92 -38.5t52 -92t15 -115.5q0 -63 -33.5 -98.5t-84.5 -35.5z" />
    <glyph glyph-name="uni2081" unicode="&#x2081;" horiz-adv-x="227" 
d="M25 303l97 57h46l64 -360h-76l-48 271l-70 -38z" />
    <glyph glyph-name="uni2082" unicode="&#x2082;" horiz-adv-x="285" 
d="M83 259l-68 22q8 40 41 64.5t76 24.5q50 0 87 -33t37 -85q0 -38 -36 -95l-56 -87h119l12 -70h-229l-7 40l99 154q23 34 23 58q0 22 -14.5 35t-33.5 13q-20 0 -33 -12t-17 -29z" />
    <glyph glyph-name="uni2083" unicode="&#x2083;" horiz-adv-x="297" 
d="M98 169l-7 40l50 81h-119l-12 70h226l8 -40l-50 -79q46 -15 72 -48t26 -79q0 -53 -39 -88.5t-96 -35.5q-67 0 -109 45l47 52q27 -27 62 -27q26 0 43 16t17 38q0 31 -19.5 47.5t-50.5 16.5q-30 0 -49 -9z" />
    <glyph glyph-name="uni2084" unicode="&#x2084;" horiz-adv-x="321" 
d="M38 77l-8 45l155 238h46l39 -219h50l11 -64h-50l14 -77h-76l-13 77h-168zM195 141l-16 87l-56 -87h72z" />
    <glyph glyph-name="uni2085" unicode="&#x2085;" horiz-adv-x="290" 
d="M45 37l50 49q23 -26 62 -26q25 0 41.5 15t16.5 39q0 27 -18 44t-46 17q-31 0 -56 -21h-46v206h195l12 -70h-139v-55q22 5 44 5q54 -1 91.5 -34.5t37.5 -91.5q0 -52 -37.5 -88t-93.5 -36q-67 0 -114 47z" />
    <glyph glyph-name="uni2086" unicode="&#x2086;" horiz-adv-x="299" 
d="M113 360h74l-42 -118q8 2 29 2q54 0 92 -38t38 -93q0 -52 -37.5 -87.5t-93.5 -35.5q-57 0 -95 39t-38 95q0 31 15 73zM168 174q-26 0 -47 -14q-7 -21 -7 -38q0 -25 16.5 -43.5t42.5 -18.5q25 0 40.5 15t15.5 38q0 25 -17 43t-44 18z" />
    <glyph glyph-name="uni2087" unicode="&#x2087;" horiz-adv-x="260" 
d="M22 290l-12 70h233l7 -40l-99 -320h-75l89 290h-143z" />
    <glyph glyph-name="uni2088" unicode="&#x2088;" horiz-adv-x="302" 
d="M42 119q0 43 30 73q-37 27 -37 74q0 42 30 73t78 31q47 0 79.5 -32t32.5 -77q0 -31 -16 -50q63 -35 63 -101q0 -49 -35 -84.5t-90 -35.5q-56 0 -95.5 38.5t-39.5 90.5zM117 119q0 -23 17.5 -41t41.5 -18q22 0 36.5 14t14.5 36q0 24 -17.5 41.5t-41.5 17.5
q-22 0 -36.5 -14.5t-14.5 -35.5zM180 261q0 16 -10.5 27.5t-25.5 11.5t-24.5 -9.5t-9.5 -24.5q0 -16 10 -27t26 -11q14 0 24 9.5t10 23.5z" />
    <glyph glyph-name="uni2089" unicode="&#x2089;" horiz-adv-x="299" 
d="M216 0h-74l42 118q-8 -2 -29 -2q-54 0 -92 38t-38 93q0 52 37.5 87.5t93.5 35.5q57 0 95 -39t38 -95q0 -31 -15 -73zM161 186q26 0 47 14q7 21 7 38q0 25 -16.5 43.5t-42.5 18.5q-25 0 -40.5 -15t-15.5 -38q0 -25 17 -43t44 -18z" />
    <glyph glyph-name="Euro" unicode="&#x20ac;" horiz-adv-x="654" 
d="M77 230h-74l-15 85h70q-3 27 -3 54v16h-80l-15 85h108q28 108 110 174t192 66t201 -88l-65 -68q-60 61 -136 61q-68 0 -120.5 -39t-77.5 -106h228l15 -85h-260v-16q0 -30 4 -54h269l15 -85h-259q30 -66 85 -105.5t128 -39.5q114 0 179 99l78 -57q-86 -137 -257 -137
q-115 0 -199.5 66.5t-120.5 173.5z" />
    <glyph glyph-name="trademark" unicode="&#x2122;" horiz-adv-x="925" 
d="M377 700h46l143 -216l144 216h45v-383h-72v222l-95 -141h-44l-94 141v-222h-73v383zM50 700h272v-68h-100v-315h-72v315h-100v68z" />
    <glyph glyph-name="Omega" unicode="&#x2126;" horiz-adv-x="764" 
d="M533 0l-10 60q54 67 77.5 126t23.5 130q0 131 -86 217q-89 87 -197 87q-106 0 -175 -71q-69 -70 -69 -190q0 -99 57.5 -182t136.5 -117l10 -60h-248l-16 90h75q-50 52 -80 123.5t-30 141.5q0 160 95 258q94 97 244 97q73 0 142 -29.5t123 -83.5q113 -116 113 -282
q0 -122 -63 -225h110l16 -90h-249z" />
    <glyph glyph-name="arrowleft" unicode="&#x2190;" horiz-adv-x="723" 
d="M423 29h-124l-237 201l-8 50l167 201h103l-154 -186h481l14 -80h-461z" />
    <glyph glyph-name="arrowright" unicode="&#x2192;" horiz-adv-x="723" 
d="M293 481h124l237 -201l8 -50l-167 -201h-103l154 186h-481l-14 80h461z" />
    <glyph glyph-name="uni2196" unicode="&#x2196;" horiz-adv-x="585" 
d="M173 70l-96 82l-49 270l33 38h272l94 -80h-248l374 -319l-52 -61l-372 317z" />
    <glyph glyph-name="uni2197" unicode="&#x2197;" horiz-adv-x="585" 
d="M539 151l-66 -81l-46 258l-270 -328l-62 51l272 329h-259l66 80h278l38 -32z" />
    <glyph glyph-name="uni2198" unicode="&#x2198;" horiz-adv-x="585" 
d="M415 390l96 -82l49 -270l-33 -38h-272l-94 80h248l-374 319l52 61l372 -317z" />
    <glyph glyph-name="uni2199" unicode="&#x2199;" horiz-adv-x="585" 
d="M48 309l66 81l46 -258l270 328l62 -51l-272 -329h259l-66 -80h-278l-38 32z" />
    <glyph glyph-name="partialdiff" unicode="&#x2202;" horiz-adv-x="584" 
d="M96 710h119l235 -296q45 -56 66 -100t21 -95q0 -97 -67.5 -163t-168.5 -66q-105 0 -179.5 72.5t-74.5 178.5q0 96 68 162.5t164 66.5h6zM387 344l-17 21q-43 15 -85 15q-62 0 -102.5 -39t-40.5 -100q0 -65 45.5 -113t111.5 -48q61 0 102 39.5t41 99.5q0 62 -55 125z" />
    <glyph glyph-name="Delta" unicode="&#x2206;" horiz-adv-x="570" 
d="M169 700h65l361 -640l10 -60h-560l-10 60zM474 90l-248 440l-92 -440h340z" />
    <glyph glyph-name="product" unicode="&#x220f;" horiz-adv-x="585" 
d="M510 0h-96l-108 610h-158l108 -610h-96l-108 610h-99l-16 90h550l16 -90h-101z" />
    <glyph glyph-name="summation" unicode="&#x2211;" horiz-adv-x="575" 
d="M385 500l-19 110h-257l240 -220l11 -60l-188 -240h296l-19 110h91l35 -200h-530l-11 60l227 289l-318 291l-11 60h509l35 -200h-91z" />
    <glyph glyph-name="minus" unicode="&#x2212;" horiz-adv-x="550" 
d="M499 210h-430l-16 90h430z" />
    <glyph glyph-name="uni2215" unicode="&#x2215;" horiz-adv-x="377" 
d="M84 0h-79l288 700h79z" />
    <glyph glyph-name="radical" unicode="&#x221a;" horiz-adv-x="582" 
d="M410 700h92l-126 -700h-66l-224 370h-100l-16 90h168l176 -292z" />
    <glyph glyph-name="infinity" unicode="&#x221e;" horiz-adv-x="779" 
d="M206 474q61 0 102.5 -27t75.5 -76q52 103 158 103q86 0 145.5 -61t59.5 -157q0 -78 -48.5 -127t-125.5 -49q-107 0 -179 105q-55 -105 -157 -105q-86 0 -145.5 61t-59.5 157q0 78 48.5 127t125.5 49zM206 384q-37 0 -58 -23.5t-21 -62.5q0 -54 31 -91t79 -37
q41 0 64.5 26t42.5 75q-32 56 -62 84.5t-76 28.5zM542 384q-38 0 -61.5 -26t-44.5 -76q32 -55 62 -83.5t75 -28.5q37 0 58 23.5t21 62.5q0 54 -31 91t-79 37z" />
    <glyph glyph-name="integral" unicode="&#x222b;" horiz-adv-x="550" 
d="M131 -44q18 61 34.5 276.5t34.5 286.5q21 83 61 127q58 64 154 64q40 0 75 -14l-26 -83q-25 7 -49 7q-52 0 -83 -35q-25 -30 -39 -81q-18 -61 -34.5 -276.5t-34.5 -286.5q-21 -83 -61 -127q-58 -64 -154 -64q-40 0 -75 14l26 83q25 -7 49 -7q52 0 83 35q25 30 39 81z" />
    <glyph glyph-name="approxequal" unicode="&#x2248;" horiz-adv-x="550" 
d="M453 248l79 -35q-12 -53 -49 -92.5t-90 -39.5q-39 0 -81 22t-75.5 44t-53.5 22q-47 0 -64 -77l-79 35q12 53 49 92.5t90 39.5q39 0 81 -22t75.5 -44t53.5 -22q47 0 64 77zM422 428l79 -35q-12 -53 -49 -92.5t-90 -39.5q-39 0 -81 22t-75.5 44t-53.5 22q-47 0 -64 -77
l-79 35q12 53 49 92.5t90 39.5q39 0 81 -22t75.5 -44t53.5 -22q47 0 64 77z" />
    <glyph glyph-name="notequal" unicode="&#x2260;" horiz-adv-x="550" 
d="M245 300h-192l-16 90h244l41 105h97l-41 -105h89l16 -90h-141l-35 -90h192l16 -90h-244l-41 -105h-97l41 105h-89l-16 90h141z" />
    <glyph glyph-name="lessequal" unicode="&#x2264;" horiz-adv-x="550" 
d="M511 137l-466 147l-10 60l414 148l15 -90l-233 -83l262 -82zM88 100h430l16 -90h-430z" />
    <glyph glyph-name="greaterequal" unicode="&#x2265;" horiz-adv-x="550" 
d="M19 492l466 -147l10 -60l-414 -148l-15 90l233 83l-262 82zM534 10h-430l-16 90h430z" />
    <glyph glyph-name="lozenge" unicode="&#x25ca;" horiz-adv-x="525" 
d="M216 700l263 -320l11 -60l-151 -320h-65l-263 320l-11 60l151 320h65zM295 116l104 220l-204 248l-103 -220z" />
    <glyph glyph-name="parenleft.ss03" horiz-adv-x="450" 
d="M372 38l-81 -48q-152 218 -152 463q0 134 42 257l87 -37q-34 -102 -34 -220q0 -217 138 -415z" />
    <glyph glyph-name="parenright.ss03" horiz-adv-x="450" 
d="M38 662l81 48q152 -218 152 -463q0 -134 -42 -257l-87 37q34 102 34 220q0 217 -138 415z" />
    <glyph glyph-name="bracketleft.ss03" horiz-adv-x="450" 
d="M209 0l-124 700h251l16 -90h-155l92 -520h155l16 -90h-251z" />
    <glyph glyph-name="bracketright.ss03" horiz-adv-x="450" 
d="M202 700l124 -700h-251l-16 90h155l-92 520h-155l-16 90h251z" />
    <glyph glyph-name="braceleft.ss03" horiz-adv-x="450" 
d="M270 161q15 -71 101 -71h16l16 -89q-12 -1 -33 -1q-84 0 -133 35.5t-62 118.5q-1 4 -4.5 44.5t-7.5 56.5q-10 37 -30 51t-62 14l-11 60q70 2 70 56q0 17 -11.5 63t-11.5 71q0 73 65 109q30 17 92 21q10 0 17 -1l16 -89h-20q-75 0 -75 -48q0 -15 10.5 -59t10.5 -59
q0 -52 -39 -82q32 -18 51 -42.5t27 -67.5q3 -18 4.5 -50t3.5 -41z" />
    <glyph glyph-name="braceright.ss03" horiz-adv-x="450" 
d="M139 539q-15 71 -101 71h-16l-16 89q12 1 33 1q84 0 133 -35.5t62 -118.5q1 -4 4.5 -44.5t7.5 -56.5q10 -37 30 -51t62 -14l11 -60q-70 -2 -70 -56q0 -17 11.5 -63t11.5 -71q0 -73 -65 -109q-30 -17 -92 -21q-10 0 -17 1l-16 89h20q75 0 75 48q0 15 -10.5 59t-10.5 59
q0 52 39 82q-32 18 -51 42.5t-27 67.5q-3 18 -4.5 50t-3.5 41z" />
    <glyph glyph-name="bar.ss03" horiz-adv-x="257" 
d="M119 0l-124 700h96l124 -700h-96z" />
    <glyph glyph-name="zero.tf" 
d="M230 615q-108 0 -108 -158q0 -58 11.5 -120t34 -120t61.5 -95t88 -37q108 0 108 158q0 58 -11.5 120t-34 120t-61.5 95t-88 37zM317 -10q-75 0 -134 43t-92.5 113t-51 149.5t-17.5 161.5q0 116 53.5 184.5t154.5 68.5q75 0 134 -43t92.5 -113t51 -149.5t17.5 -161.5
q0 -117 -52.5 -185t-155.5 -68z" />
    <glyph glyph-name="one.tf" 
d="M386 95h170l17 -95h-449l-17 95h180l-86 486l-140 -80l-16 93l166 106h69z" />
    <glyph glyph-name="two.tf" 
d="M122 522l-91 39q27 77 85.5 113t118.5 36q102 0 164 -67t62 -156q0 -86 -76 -193l-140 -199h278l17 -95h-421l-11 65l197 281q56 81 56 141q0 52 -33.5 90t-86.5 38q-42 0 -74.5 -27t-44.5 -66z" />
    <glyph glyph-name="three.tf" 
d="M415 635l-122 -170q98 -5 167.5 -74.5t69.5 -171.5q0 -99 -65 -164t-167 -65q-142 0 -220 114l79 54q51 -73 137 -73q60 0 98 37t38 97q0 72 -49 114t-125 42q-49 0 -91 -11l-11 65l126 176h-249l-17 95h389z" />
    <glyph glyph-name="four.tf" 
d="M303 700h69l77 -435h109l16 -95h-109l30 -170h-99l-30 170h-342l-11 65zM148 265h201l-45 251z" />
    <glyph glyph-name="five.tf" 
d="M76 700h345l17 -95h-262v-151q44 16 90 16q107 0 178 -72.5t71 -178.5q0 -98 -65 -163.5t-165 -65.5q-127 0 -205 91l73 63q55 -59 129 -59q59 0 96 36.5t37 97.5q0 63 -42 110.5t-105 47.5q-64 0 -122 -42h-70v365z" />
    <glyph glyph-name="six.tf" 
d="M219 700h103l-98 -241q32 8 62 8q101 0 171.5 -70.5t70.5 -175.5q0 -98 -67 -164.5t-165 -66.5q-110 0 -178 72t-68 169q0 60 31 136zM271 375q-49 0 -95 -32q-28 -59 -28 -109q0 -63 43 -106t103 -43q57 0 95.5 39t38.5 97q0 67 -43.5 110.5t-113.5 43.5z" />
    <glyph glyph-name="seven.tf" 
d="M266 0h-100l193 605h-325l-17 95h439l12 -65z" />
    <glyph glyph-name="eight.tf" 
d="M435 513q0 -62 -41 -108q60 -28 95.5 -83t35.5 -125q0 -85 -63.5 -146t-158.5 -61q-101 0 -171.5 69t-70.5 169q0 91 72 150q-86 56 -86 159q0 72 53.5 122.5t132.5 50.5q84 0 143 -56.5t59 -140.5zM161 223q0 -56 42 -97t100 -41q54 0 88 33t34 84q0 56 -42 97t-100 41
q-54 0 -88 -33t-34 -84zM147 532q0 -40 30 -68.5t72 -28.5q38 0 62 23.5t24 59.5q0 40 -30 68.5t-72 28.5q-38 0 -62 -23.5t-24 -59.5z" />
    <glyph glyph-name="nine.tf" 
d="M314 0h-103l98 241q-32 -8 -62 -8q-101 0 -171.5 70.5t-70.5 175.5q0 98 67 164.5t165 66.5q110 0 178 -72t68 -169q0 -60 -31 -136zM262 325q49 0 95 32q28 59 28 109q0 63 -43 106t-103 43q-57 0 -95.5 -39t-38.5 -97q0 -67 43.5 -110.5t113.5 -43.5z" />
    <glyph glyph-name="parenleft.case" horiz-adv-x="450" 
d="M441 -50l-72 -60q-230 264 -230 563q0 197 87 357l80 -48q-72 -149 -72 -309q0 -137 55 -266.5t152 -236.5z" />
    <glyph glyph-name="parenright.case" horiz-adv-x="450" 
d="M-31 750l72 60q230 -264 230 -563q0 -197 -87 -357l-80 48q72 149 72 309q0 137 -55 266.5t-152 236.5z" />
    <glyph glyph-name="bracketleft.case" horiz-adv-x="450" 
d="M225 -100l-158 900h251l16 -90h-155l126 -720h155l16 -90h-251z" />
    <glyph glyph-name="bracketright.case" horiz-adv-x="450" 
d="M184 800l158 -900h-251l-16 90h155l-126 720h-155l-16 90h251z" />
    <glyph glyph-name="braceleft.case" horiz-adv-x="450" 
d="M282 64q13 -74 102 -74h21l16 -89q-12 -1 -38 -1q-82 0 -131 36.5t-64 117.5q-6 33 -11 99t-14 97q-12 39 -31.5 54.5t-60.5 15.5l-11 60q70 2 70 56q0 38 -23 117t-23 117q0 73 65 109q30 17 92 21q15 0 22 -1l16 -89h-25q-75 0 -75 -48q0 -22 22 -101.5t22 -116.5
q0 -52 -39 -82q64 -35 80 -125q5 -29 8 -82t10 -91z" />
    <glyph glyph-name="braceright.case" horiz-adv-x="450" 
d="M127 636q-13 74 -102 74h-21l-16 89q12 1 38 1q82 0 131 -36.5t64 -117.5q6 -33 11 -99t14 -97q12 -39 31.5 -54.5t60.5 -15.5l11 -60q-70 -2 -70 -56q0 -38 23 -116.5t23 -117.5q0 -73 -65 -109q-30 -17 -92 -21q-15 0 -22 1l-16 89h25q75 0 75 48q0 22 -22 101t-22 117
q0 52 39 82q-64 35 -80 125q-5 29 -8 82t-10 91z" />
    <glyph glyph-name="a.ss01" horiz-adv-x="528" 
d="M377 140l-10 60q-39 19 -89 19q-54 0 -85.5 -20.5t-31.5 -51.5q0 -33 25.5 -52.5t64.5 -19.5q76 0 126 65zM251 -10q-77 0 -131 42.5t-54 114.5q0 73 54.5 113.5t123.5 40.5q88 0 114 -52q-12 76 -43 104q-33 30 -89 30q-63 0 -126 -40l-50 73q25 20 73.5 37t97.5 17
q120 0 179 -71q35 -42 52 -139l46 -260h-91l-18 100q0 -49 -37.5 -79.5t-100.5 -30.5z" />
    <glyph glyph-name="zero.tf.zero" 
d="M317 -10q-75 0 -134 43t-92.5 113t-51 149.5t-17.5 161.5q0 116 53.5 184.5t154.5 68.5q75 0 134 -43t92.5 -113t51 -149.5t17.5 -161.5q0 -117 -52.5 -185t-155.5 -68zM230 615q-108 0 -108 -158q0 -134 46 -242l148 364q-38 36 -86 36zM425 243q0 133 -46 241
l-148 -364q38 -35 86 -35q108 0 108 158z" />
    <glyph glyph-name="endash.ss04" horiz-adv-x="1083" 
d="M11 295h1040l14 -80h-1040z" />
    <glyph glyph-name="periodcentered.case" horiz-adv-x="340" 
d="M80 350q0 29 20.5 49.5t49.5 20.5t49.5 -20.5t20.5 -49.5t-20.5 -49.5t-49.5 -20.5t-49.5 20.5t-20.5 49.5z" />
    <glyph glyph-name="bullet.case" horiz-adv-x="560" 
d="M55 350q0 82 58.5 141t141.5 59t141.5 -59t58.5 -141t-58.5 -141t-141.5 -59t-141.5 59t-58.5 141z" />
    <glyph glyph-name="asterisk.ss05" horiz-adv-x="500" 
d="M262 424l26 -145h-82l-25 145l-115 -74l-43 66l108 71l-133 72l37 71l121 -65l-24 135h81l24 -135l115 74l43 -67l-108 -70l134 -72l-38 -71z" />
    <glyph glyph-name="zero.zero" horiz-adv-x="612" 
d="M332 -10q-75 0 -134 43t-92.5 113t-51 149.5t-17.5 161.5q0 116 53.5 184.5t154.5 68.5q75 0 134 -43t92.5 -113t51 -149.5t17.5 -161.5q0 -117 -52.5 -185t-155.5 -68zM245 615q-108 0 -108 -158q0 -134 46 -242l148 364q-38 36 -86 36zM440 243q0 133 -46 241
l-148 -364q38 -35 86 -35q108 0 108 158z" />
    <glyph glyph-name="uni2070.zero" horiz-adv-x="327" 
d="M139 330q-55 0 -92 38.5t-52 92t-15 115.5q0 63 33.5 98.5t84.5 35.5q55 0 92 -38.5t52 -92t15 -115.5q0 -63 -33.5 -98.5t-84.5 -35.5zM98 640q-43 0 -43 -64q0 -52 13 -97l61 149q-14 12 -31 12zM139 400q43 0 43 64q0 52 -13 97l-61 -149q14 -12 31 -12z" />
    <glyph glyph-name="uni2080.zero" horiz-adv-x="327" 
d="M199 -10q-55 0 -92 38.5t-52 92t-15 115.5q0 63 33.5 98.5t84.5 35.5q55 0 92 -38.5t52 -92t15 -115.5q0 -63 -33.5 -98.5t-84.5 -35.5zM158 300q-43 0 -43 -64q0 -52 13 -97l61 149q-13 12 -31 12zM199 60q43 0 43 64q0 52 -13 97l-61 -149q14 -12 31 -12z" />
    <glyph glyph-name="emdash.ss04" horiz-adv-x="1383" 
d="M11 295h1340l14 -80h-1340z" />
    <glyph glyph-name="hyphen.case" horiz-adv-x="454" 
d="M50 420h290l14 -80h-290z" />
    <glyph glyph-name="endash.case" horiz-adv-x="484" 
d="M-10 420h440l14 -80h-440z" />
    <glyph glyph-name="emdash.case" horiz-adv-x="784" 
d="M-10 420h740l14 -80h-740z" />
    <glyph glyph-name="endash.case.ss04" horiz-adv-x="1084" 
d="M-10 420h1040l14 -80h-1040z" />
    <glyph glyph-name="emdash.case.ss04" horiz-adv-x="1384" 
d="M-10 420h1340l14 -80h-1340z" />
    <glyph glyph-name="guillemotleft.case" horiz-adv-x="611" 
d="M381 348l198 -203h-125l-161 165l-8 50l103 165h106zM141 348l198 -203h-125l-161 165l-8 50l103 165h106z" />
    <glyph glyph-name="guillemotright.case" horiz-adv-x="611" 
d="M437 322l-198 203h125l161 -165l8 -50l-103 -165h-106zM197 322l-198 203h125l161 -165l8 -50l-103 -165h-106z" />
    <glyph glyph-name="guilsinglleft.case" horiz-adv-x="371" 
d="M141 348l198 -203h-125l-161 165l-8 50l103 165h106z" />
    <glyph glyph-name="guilsinglright.case" horiz-adv-x="371" 
d="M197 322l-198 203h125l161 -165l8 -50l-103 -165h-106z" />
    <glyph glyph-name="bar.case" horiz-adv-x="257" 
d="M233 -100h-96l-159 900h96z" />
    <glyph glyph-name="aacute.ss01" horiz-adv-x="528" 
d="M262 540h-65l65 150h105zM377 140l-10 60q-39 19 -89 19q-54 0 -85.5 -20.5t-31.5 -51.5q0 -33 25.5 -52.5t64.5 -19.5q76 0 126 65zM251 -10q-77 0 -131 42.5t-54 114.5q0 73 54.5 113.5t123.5 40.5q88 0 114 -52q-12 76 -43 104q-33 30 -89 30q-63 0 -126 -40l-50 73
q25 20 73.5 37t97.5 17q120 0 179 -71q35 -42 52 -139l46 -260h-91l-18 100q0 -49 -37.5 -79.5t-100.5 -30.5z" />
    <glyph glyph-name="agrave.ss01" horiz-adv-x="528" 
d="M267 540h-65l-105 150h105zM377 140l-10 60q-39 19 -89 19q-54 0 -85.5 -20.5t-31.5 -51.5q0 -33 25.5 -52.5t64.5 -19.5q76 0 126 65zM251 -10q-77 0 -131 42.5t-54 114.5q0 73 54.5 113.5t123.5 40.5q88 0 114 -52q-12 76 -43 104q-33 30 -89 30q-63 0 -126 -40l-50 73
q25 20 73.5 37t97.5 17q120 0 179 -71q35 -42 52 -139l46 -260h-91l-18 100q0 -49 -37.5 -79.5t-100.5 -30.5z" />
    <glyph glyph-name="acircumflex.ss01" horiz-adv-x="528" 
d="M382 540h-65l-112 88l-58 -88h-65l68 150h110zM377 140l-10 60q-39 19 -89 19q-54 0 -85.5 -20.5t-31.5 -51.5q0 -33 25.5 -52.5t64.5 -19.5q76 0 126 65zM251 -10q-77 0 -131 42.5t-54 114.5q0 73 54.5 113.5t123.5 40.5q88 0 114 -52q-12 76 -43 104q-33 30 -89 30
q-63 0 -126 -40l-50 73q25 20 73.5 37t97.5 17q120 0 179 -71q35 -42 52 -139l46 -260h-91l-18 100q0 -49 -37.5 -79.5t-100.5 -30.5z" />
    <glyph glyph-name="adieresis.ss01" horiz-adv-x="528" 
d="M67 607q0 26 18 44.5t44 18.5t44.5 -18.5t18.5 -44.5t-18.5 -44t-44.5 -18t-44 18t-18 44zM252 607q0 26 18 44.5t44 18.5t44.5 -18.5t18.5 -44.5t-18.5 -44t-44.5 -18t-44 18t-18 44zM377 140l-10 60q-39 19 -89 19q-54 0 -85.5 -20.5t-31.5 -51.5q0 -33 25.5 -52.5
t64.5 -19.5q76 0 126 65zM251 -10q-77 0 -131 42.5t-54 114.5q0 73 54.5 113.5t123.5 40.5q88 0 114 -52q-12 76 -43 104q-33 30 -89 30q-63 0 -126 -40l-50 73q25 20 73.5 37t97.5 17q120 0 179 -71q35 -42 52 -139l46 -260h-91l-18 100q0 -49 -37.5 -79.5t-100.5 -30.5z
" />
    <glyph glyph-name="atilde.ss01" horiz-adv-x="528" 
d="M100 550l-65 21q2 46 29.5 77.5t71.5 31.5q27 0 72 -22.5t64 -22.5q30 0 38 45l65 -21q-2 -46 -29.5 -77.5t-71.5 -31.5q-27 0 -72 22.5t-64 22.5q-30 0 -38 -45zM377 140l-10 60q-39 19 -89 19q-54 0 -85.5 -20.5t-31.5 -51.5q0 -33 25.5 -52.5t64.5 -19.5q76 0 126 65z
M251 -10q-77 0 -131 42.5t-54 114.5q0 73 54.5 113.5t123.5 40.5q88 0 114 -52q-12 76 -43 104q-33 30 -89 30q-63 0 -126 -40l-50 73q25 20 73.5 37t97.5 17q120 0 179 -71q35 -42 52 -139l46 -260h-91l-18 100q0 -49 -37.5 -79.5t-100.5 -30.5z" />
    <glyph glyph-name="aring.ss01" horiz-adv-x="528" 
d="M122 620q0 41 29.5 70.5t70.5 29.5t70.5 -29.5t29.5 -70.5t-29.5 -70.5t-70.5 -29.5t-70.5 29.5t-29.5 70.5zM182 620q0 -16 12 -28t28 -12t28 12t12 28t-12 28t-28 12t-28 -12t-12 -28zM377 140l-10 60q-39 19 -89 19q-54 0 -85.5 -20.5t-31.5 -51.5q0 -33 25.5 -52.5
t64.5 -19.5q76 0 126 65zM251 -10q-77 0 -131 42.5t-54 114.5q0 73 54.5 113.5t123.5 40.5q88 0 114 -52q-12 76 -43 104q-33 30 -89 30q-63 0 -126 -40l-50 73q25 20 73.5 37t97.5 17q120 0 179 -71q35 -42 52 -139l46 -260h-91l-18 100q0 -49 -37.5 -79.5t-100.5 -30.5z
" />
    <glyph glyph-name="ae.ss01" horiz-adv-x="858" 
d="M585 389q-49 0 -83 -27.5t-46 -71.5h253q-11 44 -46 71.5t-78 27.5zM377 140l-10 60q-39 19 -89 19q-54 0 -85.5 -20.5t-31.5 -51.5q0 -33 25.5 -52.5t64.5 -19.5q76 0 126 65zM100 343l-50 73q25 20 73.5 37t97.5 17q120 0 179 -71l11 -16q60 87 173 87
q99 0 162.5 -71.5t63.5 -168.5q0 -12 -1 -20h-353q11 -62 55 -99.5t108 -37.5q81 0 136 55l61 -58q-77 -80 -193 -80q-75 0 -138 37l5 -27h-83l-18 100q0 -49 -37.5 -79.5t-100.5 -30.5q-77 0 -131 42.5t-54 114.5q0 73 54.5 113.5t123.5 40.5q88 0 114 -52q-12 76 -43 104
q-33 30 -89 30q-63 0 -126 -40z" />
    <glyph glyph-name="zero.dnom" horiz-adv-x="327" 
d="M199 60q43 0 43 64q0 63 -22 119.5t-62 56.5q-43 0 -43 -64q0 -39 8 -77t28 -68.5t48 -30.5zM199 -10q-55 0 -92 38.5t-52 92t-15 115.5q0 63 33.5 98.5t84.5 35.5q55 0 92 -38.5t52 -92t15 -115.5q0 -63 -33.5 -98.5t-84.5 -35.5z" />
    <glyph glyph-name="one.dnom" horiz-adv-x="227" 
d="M25 303l97 57h46l64 -360h-76l-48 271l-70 -38z" />
    <glyph glyph-name="two.dnom" horiz-adv-x="285" 
d="M83 259l-68 22q8 40 41 64.5t76 24.5q50 0 87 -33t37 -85q0 -38 -36 -95l-56 -87h119l12 -70h-229l-7 40l99 154q23 34 23 58q0 22 -14.5 35t-33.5 13q-20 0 -33 -12t-17 -29z" />
    <glyph glyph-name="three.dnom" horiz-adv-x="297" 
d="M98 169l-7 40l50 81h-119l-12 70h226l8 -40l-50 -79q46 -15 72 -48t26 -79q0 -53 -39 -88.5t-96 -35.5q-67 0 -109 45l47 52q27 -27 62 -27q26 0 43 16t17 38q0 31 -19.5 47.5t-50.5 16.5q-30 0 -49 -9z" />
    <glyph glyph-name="four.dnom" horiz-adv-x="321" 
d="M38 77l-8 45l155 238h46l39 -219h50l11 -64h-50l14 -77h-76l-13 77h-168zM195 141l-16 87l-56 -87h72z" />
    <glyph glyph-name="five.dnom" horiz-adv-x="290" 
d="M45 37l50 49q23 -26 62 -26q25 0 41.5 15t16.5 39q0 27 -18 44t-46 17q-31 0 -56 -21h-46v206h195l12 -70h-139v-55q22 5 44 5q54 -1 91.5 -34.5t37.5 -91.5q0 -52 -37.5 -88t-93.5 -36q-67 0 -114 47z" />
    <glyph glyph-name="six.dnom" horiz-adv-x="299" 
d="M113 360h74l-42 -118q8 2 29 2q54 0 92 -38t38 -93q0 -52 -37.5 -87.5t-93.5 -35.5q-57 0 -95 39t-38 95q0 31 15 73zM168 174q-26 0 -47 -14q-7 -21 -7 -38q0 -25 16.5 -43.5t42.5 -18.5q25 0 40.5 15t15.5 38q0 25 -17 43t-44 18z" />
    <glyph glyph-name="seven.dnom" horiz-adv-x="260" 
d="M22 290l-12 70h233l7 -40l-99 -320h-75l89 290h-143z" />
    <glyph glyph-name="eight.dnom" horiz-adv-x="302" 
d="M42 119q0 43 30 73q-37 27 -37 74q0 42 30 73t78 31q47 0 79.5 -32t32.5 -77q0 -31 -16 -50q63 -35 63 -101q0 -49 -35 -84.5t-90 -35.5q-56 0 -95.5 38.5t-39.5 90.5zM117 119q0 -23 17.5 -41t41.5 -18q22 0 36.5 14t14.5 36q0 24 -17.5 41.5t-41.5 17.5
q-22 0 -36.5 -14.5t-14.5 -35.5zM180 261q0 16 -10.5 27.5t-25.5 11.5t-24.5 -9.5t-9.5 -24.5q0 -16 10 -27t26 -11q14 0 24 9.5t10 23.5z" />
    <glyph glyph-name="nine.dnom" horiz-adv-x="299" 
d="M216 0h-74l42 118q-8 -2 -29 -2q-54 0 -92 38t-38 93q0 52 37.5 87.5t93.5 35.5q57 0 95 -39t38 -95q0 -31 -15 -73zM161 186q26 0 47 14q7 21 7 38q0 25 -16.5 43.5t-42.5 18.5q-25 0 -40.5 -15t-15.5 -38q0 -25 17 -43t44 -18z" />
    <glyph glyph-name="zero.numr" horiz-adv-x="327" 
d="M139 400q43 0 43 64q0 63 -22 119.5t-62 56.5q-43 0 -43 -64q0 -39 8 -77t28 -68.5t48 -30.5zM139 330q-55 0 -92 38.5t-52 92t-15 115.5q0 63 33.5 98.5t84.5 35.5q55 0 92 -38.5t52 -92t15 -115.5q0 -63 -33.5 -98.5t-84.5 -35.5z" />
    <glyph glyph-name="one.numr" horiz-adv-x="227" 
d="M-35 643l97 57h46l64 -360h-76l-48 271l-70 -38z" />
    <glyph glyph-name="two.numr" horiz-adv-x="285" 
d="M23 599l-68 22q8 40 41 64.5t76 24.5q50 0 87 -33t37 -85q0 -38 -36 -95l-56 -87h119l12 -70h-229l-7 40l99 154q23 34 23 58q0 22 -14.5 35t-33.5 13q-20 0 -33 -12t-17 -29z" />
    <glyph glyph-name="three.numr" horiz-adv-x="279" 
d="M38 509l-7 40l50 81h-119l-12 70h226l8 -40l-50 -79q46 -15 72 -48t26 -79q0 -53 -39 -88.5t-96 -35.5q-67 0 -109 45l47 52q27 -27 62 -27q26 0 43 16t17 38q0 31 -19.5 47.5t-50.5 16.5q-30 0 -49 -9z" />
    <glyph glyph-name="four.numr" horiz-adv-x="321" 
d="M-22 417l-8 45l155 238h46l39 -219h50l11 -64h-50l14 -77h-76l-13 77h-168zM135 481l-16 87l-56 -87h72z" />
    <glyph glyph-name="five.numr" horiz-adv-x="290" 
d="M-15 377l50 49q23 -26 62 -26q25 0 41.5 15t16.5 39q0 27 -18 44t-46 17q-31 0 -56 -21h-46v206h195l12 -70h-139v-55q22 5 44 5q54 -1 91.5 -34.5t37.5 -91.5q0 -52 -37.5 -88t-93.5 -36q-67 0 -114 47z" />
    <glyph glyph-name="six.numr" horiz-adv-x="297" 
d="M54 700h74l-42 -118q8 2 29 2q54 0 92 -38t38 -93q0 -52 -37.5 -87.5t-93.5 -35.5q-57 0 -95 39t-38 95q0 31 15 73zM109 514q-26 0 -47 -14q-7 -21 -7 -38q0 -25 16.5 -43.5t42.5 -18.5q25 0 40.5 15t15.5 38q0 25 -17 43t-44 18z" />
    <glyph glyph-name="seven.numr" horiz-adv-x="260" 
d="M-38 630l-12 70h233l7 -40l-99 -320h-75l89 290h-143z" />
    <glyph glyph-name="eight.numr" horiz-adv-x="302" 
d="M-19 459q0 43 30 73q-37 27 -37 74q0 42 30 73t78 31q47 0 79.5 -32t32.5 -77q0 -31 -16 -50q63 -35 63 -101q0 -49 -35 -84.5t-90 -35.5q-56 0 -95.5 38.5t-39.5 90.5zM56 459q0 -23 17.5 -41t41.5 -18q22 0 36.5 14t14.5 36q0 24 -17.5 41.5t-41.5 17.5
q-22 0 -36.5 -14.5t-14.5 -35.5zM119 601q0 16 -10.5 27.5t-25.5 11.5t-24.5 -9.5t-9.5 -24.5q0 -16 10 -27t26 -11q14 0 24 9.5t10 23.5z" />
    <glyph glyph-name="nine.numr" horiz-adv-x="299" 
d="M156 340h-74l42 118q-8 -2 -29 -2q-54 0 -92 38t-38 93q0 52 37.5 87.5t93.5 35.5q57 0 95 -39t38 -95q0 -31 -15 -73zM101 526q26 0 47 14q7 21 7 38q0 25 -16.5 43.5t-42.5 18.5q-25 0 -40.5 -15t-15.5 -38q0 -25 17 -43t44 -18z" />
    <glyph glyph-name="zero.dnom.zero" horiz-adv-x="327" 
d="M199 -10q-55 0 -92 38.5t-52 92t-15 115.5q0 63 33.5 98.5t84.5 35.5q55 0 92 -38.5t52 -92t15 -115.5q0 -63 -33.5 -98.5t-84.5 -35.5zM158 300q-43 0 -43 -64q0 -52 13 -97l61 149q-13 12 -31 12zM199 60q43 0 43 64q0 52 -13 97l-61 -149q14 -12 31 -12z" />
    <glyph glyph-name="zero.numr.zero" horiz-adv-x="327" 
d="M139 330q-55 0 -92 38.5t-52 92t-15 115.5q0 63 33.5 98.5t84.5 35.5q55 0 92 -38.5t52 -92t15 -115.5q0 -63 -33.5 -98.5t-84.5 -35.5zM98 640q-43 0 -43 -64q0 -52 13 -97l61 149q-14 12 -31 12zM139 400q43 0 43 64q0 52 -13 97l-61 -149q14 -12 31 -12z" />
    <glyph glyph-name="minus.tf" 
d="M519 210h-430l-16 90h430z" />
    <glyph glyph-name="multiply.tf" 
d="M531 115l-59 -69l-170 145l-119 -145l-69 57l119 146l-172 146l59 69l171 -145l118 145l69 -57l-119 -146z" />
    <glyph glyph-name="numbersign.tf" 
d="M521 195h-126l-53 -195h-93l53 195h-137l-53 -195h-93l53 195h-87l-14 90h125l34 130h-88l-15 90h127l53 195h93l-53 -195h137l53 195h93l-53 -195h87l15 -90h-126l-34 -130h87zM223 415l-34 -130h137l34 130h-137z" />
    <glyph glyph-name="dollar.tf" 
d="M76 97l70 68q73 -80 160 -80q44 0 78.5 27t34.5 72q0 38 -21 65.5t-54.5 43.5t-74.5 29t-81.5 28.5t-74 36t-54.5 57t-21 85.5q0 60 37.5 105t97.5 64l-21 117h95l19 -106q96 -5 159 -66l-61 -76q-49 48 -114 48q-42 0 -77 -22.5t-35 -63.5q0 -33 28 -57.5t70.5 -38
t92 -33.5t92 -43t70.5 -67.5t28 -105.5q0 -62 -35.5 -109.5t-93.5 -69.5l21 -120h-95l-19 105q-125 4 -221 107z" />
    <glyph glyph-name="plus.tf" 
d="M259 210h-170l-16 90h170l-30 170h90l30 -170h170l16 -90h-170l29 -170h-90z" />
    <glyph glyph-name="less.tf" 
d="M76 225l-11 60l407 188l16 -92l-258 -119l301 -120l18 -105z" />
    <glyph glyph-name="equal.tf" 
d="M535 120h-430l-16 90h430zM503 300h-430l-16 90h430z" />
    <glyph glyph-name="greater.tf" 
d="M516 285l11 -60l-407 -188l-16 92l258 119l-301 120l-18 105z" />
    <glyph glyph-name="cent.tf" 
d="M471 150l72 -61q-55 -70 -142 -90l20 -114h-95l-20 106q-104 10 -167 80q-63 69 -63 170q0 74 40.5 131.5t108.5 81.5l-21 121h95l19 -105q105 -2 176 -74l-66 -68q-47 52 -112 52q-59 0 -102 -38.5t-43 -100.5q0 -64 43 -110q46 -51 121 -51q81 0 136 70z" />
    <glyph glyph-name="sterling.tf" 
d="M256 90h293l16 -90h-465l-11 60q54 22 79.5 63.5t25.5 87.5q0 49 -29 104h-101l-15 85h64q-41 70 -41 132q0 76 56 127t134 51q107 0 168 -92l-72 -56q-38 58 -96 58q-37 0 -66 -24t-29 -64q0 -9 1.5 -18.5t5.5 -20t6.5 -17.5t9.5 -19.5t10 -18t12 -20t12 -18.5h150
l15 -85h-119q19 -55 19 -101q0 -68 -33 -124z" />
    <glyph glyph-name="section.tf" 
d="M537 -51q0 -79 -62 -129t-150 -50q-55 0 -101 19.5t-74 47.5l61 76q53 -48 114 -48q45 0 78.5 23t33.5 61q0 13 -4 24t-14.5 20t-18.5 15.5t-27.5 14t-29.5 11t-36 11.5t-35 11q-49 16 -82 30.5t-69.5 39.5t-55.5 62.5t-19 86.5q0 87 62 138q-54 44 -54 118q0 79 62 129
t150 50q55 0 101 -19.5t74 -47.5l-61 -76q-52 48 -114 48q-45 0 -78.5 -23t-33.5 -61q0 -13 4 -24t14.5 -20t18.5 -15.5t27.5 -14t29.5 -11t36 -11.5t35 -11q49 -16 82 -30.5t69.5 -39.5t55.5 -62.5t19 -86.5q0 -86 -63 -138q55 -47 55 -118zM445 206q0 28 -14 49.5
t-42.5 37t-55 25t-69.5 23t-68 23.5q-50 -34 -50 -90q0 -28 14 -49.5t42.5 -37t55 -25t69.5 -23t68 -23.5q50 32 50 90z" />
    <glyph glyph-name="notequal.tf" 
d="M265 300h-192l-16 90h244l41 105h97l-41 -105h89l16 -90h-141l-35 -90h192l16 -90h-244l-41 -105h-97l41 105h-89l-16 90h141z" />
    <glyph glyph-name="plusminus.tf" horiz-adv-x="589" 
d="M299 490l23 -135h170l16 -90h-170l23 -135h-90l-23 135h-170l-16 90h170l-23 135h90zM553 10h-430l-16 90h430z" />
    <glyph glyph-name="lessequal.tf" 
d="M531 137l-466 147l-10 60l414 148l15 -90l-233 -83l262 -82zM108 100h430l16 -90h-430z" />
    <glyph glyph-name="greaterequal.tf" 
d="M39 492l466 -147l10 -60l-414 -148l-15 90l233 83l-262 82zM554 10h-430l-16 90h430z" />
    <glyph glyph-name="yen.tf" 
d="M48 315h186l-57 70h-142l-15 85h88l-187 230h124l231 -285l129 285h106l-105 -230h96l15 -85h-149l-32 -70h194l15 -85h-191l40 -230h-99l-40 230h-192z" />
    <glyph glyph-name="mu.tf" 
d="M313 -10q-56 0 -107 27l45 -256h-96l-123 699h96l43 -244q11 -64 43 -96q40 -40 100 -40q35 0 68.5 18t54.5 47l-55 315h96l81 -460h-91l-17 95q0 -42 -40.5 -73.5t-97.5 -31.5z" />
    <glyph glyph-name="partialdiff.tf" 
d="M96 710h119l235 -296q45 -56 66 -100t21 -95q0 -97 -67.5 -163t-168.5 -66q-105 0 -179.5 72.5t-74.5 178.5q0 96 68 162.5t164 66.5h6zM387 344l-17 21q-43 15 -85 15q-62 0 -102.5 -39t-40.5 -100q0 -65 45.5 -113t111.5 -48q61 0 102 39.5t41 99.5q0 62 -55 125z" />
    <glyph glyph-name="summation.tf" 
d="M400 500l-19 110h-257l240 -220l11 -60l-188 -240h296l-19 110h91l35 -200h-530l-11 60l227 289l-318 291l-11 60h509l35 -200h-91z" />
    <glyph glyph-name="product.tf" 
d="M515 0h-96l-108 610h-158l108 -610h-96l-108 610h-99l-16 90h550l16 -90h-101z" />
    <glyph glyph-name="pi.tf" 
d="M514 73l-45 -83q-47 22 -69 62t-33 98l-38 220h-98l65 -370h-96l-64 364q-46 -7 -73 -60l-79 43q39 77 112 102q33 11 82 11h331l15 -90h-99l38 -217q5 -31 15.5 -47.5t35.5 -32.5z" />
    <glyph glyph-name="integral.tf" 
d="M161 -44q18 61 34.5 276.5t34.5 286.5q21 83 61 127q58 64 154 64q40 0 75 -14l-26 -83q-25 7 -49 7q-52 0 -83 -35q-25 -30 -39 -81q-18 -61 -34.5 -276.5t-34.5 -286.5q-21 -83 -61 -127q-58 -64 -154 -64q-40 0 -75 14l26 83q24 -7 49 -7q52 0 83 35q25 30 39 81z" />
    <glyph glyph-name="logicalnot.tf" 
d="M73 300l-16 90h430l48 -270h-90l-32 180h-340z" />
    <glyph glyph-name="radical.tf" 
d="M416 700h92l-126 -700h-66l-224 370h-100l-16 90h168l176 -292z" />
    <glyph glyph-name="florin.tf" 
d="M161 -44q8 27 14.5 72.5t9.5 81.5t8.5 105.5t8.5 99.5h-142l-15 85h165q9 77 20 119q21 83 61 127q58 64 154 64q40 0 75 -14l-26 -83q-25 7 -49 7q-52 0 -83 -35q-25 -30 -39 -81q-11 -36 -19 -104h157l15 -85h-181l-7.5 -97.5t-8.5 -108.5t-10 -86.5t-15 -81.5
q-21 -83 -61 -127q-58 -64 -154 -64q-40 0 -75 14l26 83q24 -7 49 -7q52 0 83 35q25 30 39 81z" />
    <glyph glyph-name="asciicircum.tf" 
d="M485 350h-108l-147 214l-71 -214h-94l115 350h65z" />
    <glyph glyph-name="asciitilde.tf" 
d="M458 338l79 -35q-12 -53 -49 -92.5t-90 -39.5q-40 0 -81.5 22t-75 44t-53.5 22q-47 0 -64 -77l-79 35q12 53 49 92.5t90 39.5q39 0 81 -22t75.5 -44t53.5 -22q47 0 64 77z" />
    <glyph glyph-name="approxequal.tf" 
d="M474 248l79 -35q-12 -53 -49 -92.5t-90 -39.5q-40 0 -81.5 22t-75 44t-53.5 22q-47 0 -64 -77l-79 35q12 53 49 92.5t90 39.5q40 0 81.5 -22t75 -44t53.5 -22q47 0 64 77zM443 428l79 -35q-12 -53 -49 -92.5t-90 -39.5q-39 0 -81 22t-75.5 44t-53.5 22q-47 0 -64 -77
l-79 35q12 53 49 92.5t90 39.5q39 0 81 -22t75.5 -44t53.5 -22q47 0 64 77z" />
    <glyph glyph-name="Delta.tf" 
d="M179 700h65l361 -640l10 -60h-560l-10 60zM484 90l-248 440l-92 -440h340z" />
    <glyph glyph-name="Euro.tf" 
d="M57 230h-74l-15 85h70q-3 27 -3 54v16h-80l-15 85h108q28 108 110 174t192 66t201 -88l-65 -68q-60 61 -136 61q-68 0 -120.5 -39t-77.5 -106h228l15 -85h-260v-16q0 -30 4 -54h269l15 -85h-259q30 -66 85 -105.5t128 -39.5q114 0 179 99l78 -57q-86 -137 -257 -137
q-115 0 -199.5 66.5t-120.5 173.5z" />
    <glyph glyph-name="currency.tf" 
d="M69 351q0 60 32 111l-76 76l63 63l76 -76q51 32 111 32t111 -32l76 76l63 -63l-76 -76q32 -49 32 -111t-32 -111l76 -76l-63 -63l-76 76q-49 -32 -111 -32t-111 32l-76 -76l-63 63l76 76q-32 51 -32 111zM164 351q0 -46 32.5 -78.5t78.5 -32.5t78.5 32.5t32.5 78.5
t-32.5 78.5t-78.5 32.5t-78.5 -32.5t-32.5 -78.5z" />
    <glyph glyph-name="lozenge.tf" 
d="M246 700l263 -320l11 -60l-151 -320h-65l-263 320l-11 60l151 320h65zM325 116l104 220l-204 248l-103 -220z" />
    <glyph glyph-name="divide.tf" 
d="M519 210h-430l-16 90h430zM394 95q0 -29 -20.5 -49.5t-49.5 -20.5t-49.5 20.5t-20.5 49.5t20.5 49.5t49.5 20.5t49.5 -20.5t20.5 -49.5zM337 415q0 -29 -20.5 -49.5t-49.5 -20.5t-49.5 20.5t-20.5 49.5t20.5 49.5t49.5 20.5t49.5 -20.5t20.5 -49.5z" />
    <glyph glyph-name="quotedbl.tf" 
d="M376 700l26 -245h-66l-56 245h96zM176 700l26 -245h-66l-56 245h96z" />
    <glyph glyph-name="quotesingle.tf" 
d="M279 700l26 -245h-66l-56 245h96z" />
    <glyph glyph-name="at.case" horiz-adv-x="1000" 
d="M467 470q-53 0 -87 -34t-34 -86q0 -63 44.5 -101.5t103.5 -38.5q31 0 62 14.5t49 36.5l-29 163q-44 46 -109 46zM489 125q-95 0 -164.5 64.5t-69.5 159.5q0 96 69 157q56 49 134 49q42 0 74 -22.5t39 -54.5l-11 67h84l44 -253q8 -49 21 -65q14 -17 36 -17q35 0 57 42.5
t22 112.5q0 143 -93 236.5t-241 93.5q-143 0 -244.5 -104t-101.5 -251t101.5 -251t245.5 -104q112 0 205 69l48 -70q-109 -84 -253 -84q-181 0 -309 129t-128 311t128 311t309 129q182 0 302.5 -117t120.5 -298q0 -102 -47.5 -171t-123.5 -69q-82 0 -120 77
q-13 -32 -50 -54.5t-84 -22.5z" />
    <glyph glyph-name="amacron.ss01" horiz-adv-x="528" 
d="M58 650h300v-85h-300v85zM377 140l-10 60q-39 19 -89 19q-54 0 -85.5 -20.5t-31.5 -51.5q0 -33 25.5 -52.5t64.5 -19.5q76 0 126 65zM251 -10q-77 0 -131 42.5t-54 114.5q0 73 54.5 113.5t123.5 40.5q88 0 114 -52q-12 76 -43 104q-33 30 -89 30q-63 0 -126 -40l-50 73
q25 20 73.5 37t97.5 17q120 0 179 -71q35 -42 52 -139l46 -260h-91l-18 100q0 -49 -37.5 -79.5t-100.5 -30.5z" />
    <glyph glyph-name="abreve.ss01" horiz-adv-x="528" 
d="M253 690h85q0 -58 -41 -99t-99 -41t-99 41t-41 99h85q0 -22 16.5 -38.5t38.5 -16.5t38.5 16.5t16.5 38.5zM377 140l-10 60q-39 19 -89 19q-54 0 -85.5 -20.5t-31.5 -51.5q0 -33 25.5 -52.5t64.5 -19.5q76 0 126 65zM251 -10q-77 0 -131 42.5t-54 114.5q0 73 54.5 113.5
t123.5 40.5q88 0 114 -52q-12 76 -43 104q-33 30 -89 30q-63 0 -126 -40l-50 73q25 20 73.5 37t97.5 17q120 0 179 -71q35 -42 52 -139l46 -260h-91l-18 100q0 -49 -37.5 -79.5t-100.5 -30.5z" />
    <glyph glyph-name="aogonek.ss01" horiz-adv-x="528" 
d="M251 -10q-77 0 -131 42.5t-54 114.5q0 73 54.5 113.5t123.5 40.5q88 0 114 -52q-12 76 -43 104q-33 30 -89 30q-63 0 -126 -40l-50 73q25 20 73.5 37t97.5 17q120 0 179 -71q35 -42 52 -139l46 -260q-31 -49 -31 -86q0 -21 13 -32.5t34 -11.5q13 0 23 4l15 -85
q-21 -9 -55 -9q-54 0 -89.5 34.5t-35.5 85.5q0 55 34 105l-17 95q0 -49 -37.5 -79.5t-100.5 -30.5zM377 140l-10 60q-39 19 -89 19q-54 0 -85.5 -20.5t-31.5 -51.5q0 -33 25.5 -52.5t64.5 -19.5q76 0 126 65z" />
    <glyph glyph-name="aringacute.ss01" horiz-adv-x="528" 
d="M122 620q0 41 29.5 70.5t70.5 29.5t70.5 -29.5t29.5 -70.5t-29.5 -70.5t-70.5 -29.5t-70.5 29.5t-29.5 70.5zM182 620q0 -16 12 -28t28 -12t28 12t12 28t-12 28t-28 12t-28 -12t-12 -28zM225 750h-65l65 150h105zM377 140l-10 60q-39 19 -89 19q-54 0 -85.5 -20.5
t-31.5 -51.5q0 -33 25.5 -52.5t64.5 -19.5q76 0 126 65zM251 -10q-77 0 -131 42.5t-54 114.5q0 73 54.5 113.5t123.5 40.5q88 0 114 -52q-12 76 -43 104q-33 30 -89 30q-63 0 -126 -40l-50 73q25 20 73.5 37t97.5 17q120 0 179 -71q35 -42 52 -139l46 -260h-91l-18 100
q0 -49 -37.5 -79.5t-100.5 -30.5z" />
    <glyph glyph-name="aeacute.ss01" horiz-adv-x="858" 
d="M420 540h-65l65 150h105zM585 389q-49 0 -83 -27.5t-46 -71.5h253q-11 44 -46 71.5t-78 27.5zM377 140l-10 60q-39 19 -89 19q-54 0 -85.5 -20.5t-31.5 -51.5q0 -33 25.5 -52.5t64.5 -19.5q76 0 126 65zM100 343l-50 73q25 20 73.5 37t97.5 17q120 0 179 -71l11 -16
q60 87 173 87q99 0 162.5 -71.5t63.5 -168.5q0 -12 -1 -20h-353q11 -62 55 -99.5t108 -37.5q81 0 136 55l61 -58q-77 -80 -193 -80q-75 0 -138 37l5 -27h-83l-18 100q0 -49 -37.5 -79.5t-100.5 -30.5q-77 0 -131 42.5t-54 114.5q0 73 54.5 113.5t123.5 40.5q88 0 114 -52
q-12 76 -43 104q-33 30 -89 30q-63 0 -126 -40z" />
    <glyph glyph-name="asterisk.ss06" horiz-adv-x="500" 
d="M261 430l26 -151h-81l-27 156l-149 -51l-26 75l136 48l-105 115l59 54l105 -116l68 116l69 -39l-72 -124l163 -53l-24 -76z" />
    <glyph glyph-name="asterisk.ss07" horiz-adv-x="500" 
d="M-13 530h147l-85 108l63 49l94 -119l51 119l73 -31l-53 -126h137l14 -80h-137l85 -108l-63 -49l-94 119l-51 -119l-73 31l53 126h-147z" />
    <glyph glyph-name="asterisk.ss08" horiz-adv-x="500" 
d="M428 450h-137l85 -108l-63 -49l-94 119l72 38l-14 80l-71 38l51 119l73 -31l-53 -126h137zM-13 530h147l14 -80h-147zM134 530l-85 108l63 49l94 -119zM95 324l53 126l71 -38l-51 -119z" />
    <glyph glyph-name="asterisk.ss09" horiz-adv-x="500" 
d="M211 700l30 -170h-81l-30 170h81zM255 450l30 -170h-81l-30 170h81zM174 450h-173l-14 80h173zM428 450h-173l-14 80h173zM105 304l-62 51l69 83l61 -51zM278 380l51 60l89 -76l-50 -60zM310 676l62 -51l-69 -83l-61 51zM137 600l-51 -60l-89 76l50 60z" />
    <glyph glyph-name="f.ss02" horiz-adv-x="446" 
d="M-20 460h120l-5 30q-7 38 -7 66q0 71 53 117.5t127 46.5q51 0 101 -20l-32 -85q-26 15 -65 15q-41 0 -64.5 -22t-23.5 -61q0 -14 7 -57l5 -30h190l15 -85h-190l66 -375h-96l-66 375h-120z" />
    <glyph glyph-name="j.ss02" horiz-adv-x="266" 
d="M52 460h96l85 -480q7 -38 7 -66q0 -74 -51.5 -119t-129.5 -45q-61 0 -98 24l40 81q26 -15 60 -15q40 0 61.5 22t21.5 61q0 14 -7 57zM135 627q0 -26 -18 -44t-44 -18t-44.5 18t-18.5 44t18.5 44.5t44.5 18.5t44 -18.5t18 -44.5z" />
    <glyph glyph-name="t.ss02" horiz-adv-x="493" 
d="M225 375l33 -183q11 -62 32 -84q25 -28 72 -28q41 0 79 18l37 -77q-46 -31 -116 -31q-81 0 -131 44q-49 43 -64 130l-37 211h-140l-15 85h140l-23 130h96l22 -130h200l15 -85h-200z" />
    <glyph glyph-name="fi.ss02" horiz-adv-x="663" 
d="M90 460l-5 30q-7 38 -7 66q0 71 53 117.5t127 46.5q51 0 101 -20l-32 -85q-26 15 -65 15q-41 0 -64.5 -22t-23.5 -61q0 -14 7 -57l5 -30h359l81 -460h-96l-66 375h-263l66 -375h-96l-66 375h-110l-15 85h110zM532 627q0 -26 -18 -44t-44 -18t-44.5 18t-18.5 44t18.5 44.5
t44.5 18.5t44 -18.5t18 -44.5z" />
    <glyph glyph-name="fl.ss02" horiz-adv-x="663" 
d="M90 460l-5 30q-7 38 -7 66q0 71 53 117.5t127 46.5q51 0 101 -20l-32 -85q-26 15 -65 15q-41 0 -64.5 -22t-23.5 -61q0 -14 7 -57l5 -30h263l-44 250h96l125 -710h-96l-66 375h-263l66 -375h-96l-66 375h-110l-15 85h110z" />
    <glyph glyph-name="uniFB00.ss02" horiz-adv-x="807" 
d="M-20 460h120l-5 30q-7 38 -7 66q0 71 53 117.5t127 46.5q51 0 101 -20l-32 -85q-26 15 -65 15q-41 0 -64.5 -22t-23.5 -61q0 -14 7 -57l5 -30h265l-5 30q-7 38 -7 66q0 71 53 117.5t127 46.5q51 0 101 -20l-32 -85q-26 15 -65 15q-41 0 -64.5 -22t-23.5 -61q0 -14 7 -57
l5 -30h190l15 -85h-190l66 -375h-96l-66 375h-265l66 -375h-96l-66 375h-120z" />
    <glyph glyph-name="uniFB03.ss02" horiz-adv-x="1034" 
d="M916 460l81 -460h-96l-66 375h-263l66 -375h-96l-66 375h-265l66 -375h-96l-66 375h-120l-15 85h120l-5 30q-7 38 -7 66q0 71 53 117.5t127 46.5q51 0 101 -20l-32 -85q-26 15 -65 15q-41 0 -64.5 -22t-23.5 -61q0 -14 7 -57l5 -30h265l-5 30q-7 38 -7 66q0 71 53 117.5
t127 46.5q51 0 101 -20l-32 -85q-26 15 -65 15q-41 0 -64.5 -22t-23.5 -61q0 -14 7 -57l5 -30h359zM903 627q0 -26 -18 -44t-44 -18t-44.5 18t-18.5 44t18.5 44.5t44.5 18.5t44 -18.5t18 -44.5z" />
    <glyph glyph-name="uniFB04.ss02" horiz-adv-x="1034" 
d="M997 0h-96l-66 375h-263l66 -375h-96l-66 375h-265l66 -375h-96l-66 375h-120l-15 85h120l-5 30q-7 38 -7 66q0 71 53 117.5t127 46.5q51 0 101 -20l-32 -85q-26 15 -65 15q-41 0 -64.5 -22t-23.5 -61q0 -14 7 -57l5 -30h265l-5 30q-7 38 -7 66q0 71 53 117.5t127 46.5
q51 0 101 -20l-32 -85q-26 15 -65 15q-41 0 -64.5 -22t-23.5 -61q0 -14 7 -57l5 -30h263l-44 250h96z" />
    <glyph glyph-name="tbar.ss02" horiz-adv-x="493" 
d="M225 375l16 -90h201l15 -85h-201l2 -8q11 -62 32 -84q25 -28 72 -28q41 0 79 18l37 -77q-46 -31 -116 -31q-81 0 -131 44q-49 43 -64 130l-6 36h-140l-15 85h140l-16 90h-140l-15 85h140l-23 130h96l22 -130h201l15 -85h-201z" />
    <glyph glyph-name="ij.ss02" horiz-adv-x="519" 
d="M122 627q0 -26 -18 -44t-44 -18t-44.5 18t-18.5 44t18.5 44.5t44.5 18.5t44 -18.5t18 -44.5zM39 460h96l81 -460h-96zM305 460h96l85 -480q7 -38 7 -66q0 -74 -51.5 -119t-129.5 -45q-61 0 -98 24l40 81q26 -15 60 -15q40 0 61.5 22t21.5 61q0 14 -7 57zM388 627
q0 -26 -18 -44t-44 -18t-44.5 18t-18.5 44t18.5 44.5t44.5 18.5t44 -18.5t18 -44.5z" />
    <glyph glyph-name="tcommaaccent.ss02" horiz-adv-x="493" 
d="M289 -200h-65l65 150h105zM225 375l33 -183q11 -62 32 -84q25 -28 72 -28q41 0 79 18l37 -77q-46 -31 -116 -31q-81 0 -131 44q-49 43 -64 130l-37 211h-140l-15 85h140l-23 130h96l22 -130h200l15 -85h-200z" />
    <glyph glyph-name="tcaron.ss02" horiz-adv-x="493" 
d="M290 550h-65l65 150h105zM225 375l33 -183q11 -62 32 -84q25 -28 72 -28q41 0 79 18l37 -77q-46 -31 -116 -31q-81 0 -131 44q-49 43 -64 130l-37 211h-140l-15 85h140l-23 130h96l22 -130h200l15 -85h-200z" />
    <glyph glyph-name="jcircumflex.ss02" horiz-adv-x="266" 
d="M52 460h96l85 -480q7 -38 7 -66q0 -74 -51.5 -119t-129.5 -45q-61 0 -98 24l40 81q26 -15 60 -15q40 0 61.5 22t21.5 61q0 14 -7 57zM231 540h-65l-112 88l-58 -88h-65l68 150h110z" />
    <glyph glyph-name="uni0237.ss02" horiz-adv-x="266" 
d="M52 460h96l85 -480q7 -38 7 -66q0 -74 -51.5 -119t-129.5 -45q-61 0 -98 24l40 81q26 -15 60 -15q40 0 61.5 22t21.5 61q0 14 -7 57z" />
    <glyph glyph-name="r.ss02" horiz-adv-x="401" 
d="M289 470q35 0 62 -8l-21 -90q-21 8 -44 8q-73 0 -124 -69l54 -311h-96l-81 460h91l17 -95q0 44 41.5 74.5t100.5 30.5z" />
    <glyph glyph-name="racute.ss02" horiz-adv-x="401" 
d="M190 540h-65l65 150h105zM289 470q35 0 62 -8l-21 -90q-21 8 -44 8q-73 0 -124 -69l54 -311h-96l-81 460h91l17 -95q0 44 41.5 74.5t100.5 30.5z" />
    <glyph glyph-name="rcaron.ss02" horiz-adv-x="401" 
d="M1 690h65l112 -88l58 88h65l-68 -150h-110zM289 470q35 0 62 -8l-21 -90q-21 8 -44 8q-73 0 -124 -69l54 -311h-96l-81 460h91l17 -95q0 44 41.5 74.5t100.5 30.5z" />
    <glyph glyph-name="rcommaaccent.ss02" horiz-adv-x="401" 
d="M129 -200h-65l65 150h105zM289 470q35 0 62 -8l-21 -90q-21 8 -44 8q-73 0 -124 -69l54 -311h-96l-81 460h91l17 -95q0 44 41.5 74.5t100.5 30.5z" />
    </font>
</defs>
</svg>
