<?xml version="1.0" standalone="no"?>
<!DOCTYPE svg PUBLIC "-//W3C//DTD SVG 1.1//EN" "http://www.w3.org/Graphics/SVG/1.1/DTD/svg11.dtd" >
<svg xmlns="http://www.w3.org/2000/svg" xmlns:xlink="http://www.w3.org/1999/xlink" version="1.1">
<metadata>
Created by FontForge 20170731 at Tue May 18 13:40:12 2010
 By Aleksey,,,
Generated in 2010 by FontLab Studio. Copyright info pending.
</metadata>
<defs>
<font id="Brown-ThinItalic" horiz-adv-x="570" >
  <font-face 
    font-family="Brown"
    font-weight="250"
    font-style="italic"
    font-stretch="normal"
    units-per-em="1000"
    panose-1="0 0 0 0 0 0 0 0 0 0"
    ascent="800"
    descent="-200"
    x-height="430"
    cap-height="700"
    bbox="-150 -250 1344 1060"
    underline-thickness="20"
    underline-position="-140"
    slope="-10"
    unicode-range="U+0020-FB04"
  />
<missing-glyph horiz-adv-x="500" 
d="M75 0v700h350v-700h-350zM95 18h310v664h-310v-664z" />
    <glyph glyph-name="uniFB00" unicode="ff" horiz-adv-x="699" 
d="M759 713l-5 -17q-21 6 -45 6q-86 0 -127 -76q-12 -25 -24 -87l-19 -109h175l-3 -18h-175l-73 -412h-19l73 412h-313l-73 -412h-19l73 412h-140l3 18h140l19 109q11 62 24 90q45 91 146 91q26 0 50 -7l-5 -17q-21 6 -45 6q-86 0 -127 -76q-12 -25 -24 -87l-19 -109h313
l19 109q11 62 24 90q45 91 146 91q26 0 50 -7z" />
    <glyph glyph-name="fi" unicode="fi" horiz-adv-x="568" 
d="M427 713l-5 -17q-21 6 -45 6q-86 0 -127 -76q-12 -25 -24 -87l-19 -109h302l-76 -430h-19l73 412h-283l-73 -412h-19l73 412h-140l3 18h140l19 109q11 62 24 90q45 91 146 91q26 0 50 -7zM497 590q0 13 8.5 21.5t21.5 8.5t21.5 -8.5t8.5 -21.5t-8.5 -21.5t-21.5 -8.5
t-21.5 8.5t-8.5 21.5z" />
    <glyph glyph-name="fl" unicode="fl" horiz-adv-x="568" 
d="M558 710l-125 -710h-19l72 412h-282l-73 -412h-19l73 412h-140l3 18h140l19 109q11 62 24 90q45 91 146 91q26 0 50 -7l-5 -17q-21 6 -45 6q-86 0 -127 -76q-12 -25 -24 -87l-19 -109h282l50 280h19z" />
    <glyph glyph-name="uniFB03" unicode="ffi" horiz-adv-x="900" 
d="M759 713l-5 -17q-21 6 -45 6q-86 0 -127 -76q-12 -25 -24 -87l-19 -109h302l-76 -430h-19l73 412h-283l-73 -412h-19l73 412h-313l-73 -412h-19l73 412h-140l3 18h140l19 109q11 62 24 90q45 91 146 91q26 0 50 -7l-5 -17q-21 6 -45 6q-86 0 -127 -76q-12 -25 -24 -87
l-19 -109h313l19 109q11 62 24 90q45 91 146 91q26 0 50 -7zM829 590q0 13 8.5 21.5t21.5 8.5t21.5 -8.5t8.5 -21.5t-8.5 -21.5t-21.5 -8.5t-21.5 8.5t-8.5 21.5z" />
    <glyph glyph-name="uniFB04" unicode="ffl" horiz-adv-x="900" 
d="M890 710l-125 -710h-19l72 412h-282l-73 -412h-19l73 412h-313l-73 -412h-19l73 412h-140l3 18h140l19 109q11 62 24 90q45 91 146 91q26 0 50 -7l-5 -17q-21 6 -45 6q-86 0 -127 -76q-12 -25 -24 -87l-19 -109h313l19 109q11 62 24 90q45 91 146 91q26 0 50 -7l-5 -17
q-21 6 -45 6q-86 0 -127 -76q-12 -25 -24 -87l-19 -109h282l50 280h19z" />
    <glyph glyph-name=".notdef" horiz-adv-x="500" 
d="M75 0v700h350v-700h-350zM95 18h310v664h-310v-664z" />
    <glyph glyph-name=".null" horiz-adv-x="0" 
 />
    <glyph glyph-name="nonmarkingreturn" horiz-adv-x="333" 
 />
    <glyph glyph-name="space" unicode=" " horiz-adv-x="265" 
 />
    <glyph glyph-name="exclam" unicode="!" horiz-adv-x="240" 
d="M125 200h-19l88 500h19zM50 25q0 14 10.5 24.5t24.5 10.5t24.5 -10.5t10.5 -24.5t-10.5 -24.5t-24.5 -10.5t-24.5 10.5t-10.5 24.5z" />
    <glyph glyph-name="quotedbl" unicode="&#x22;" horiz-adv-x="371" 
d="M149 465h-19l42 235h19zM319 465h-19l42 235h19z" />
    <glyph glyph-name="numbersign" unicode="#" 
d="M158 240h-110l3 18h112l50 184h-110l3 18h112l65 240h19l-65 -240h191l65 240h19l-65 -240h110l-3 -18h-112l-50 -184h110l-3 -18h-112l-64 -240h-19l64 240h-191l-64 -240h-19zM232 442l-50 -184h191l50 184h-191z" />
    <glyph glyph-name="dollar" unicode="$" horiz-adv-x="511" 
d="M15 108l17 10q66 -110 202 -110q74 0 131 48.5t57 125.5q0 51 -31 88.5t-75.5 60.5l-89 46t-75.5 59t-31 85q0 87 62.5 138t146.5 51h5l19 105h19l-19 -106q75 -6 143 -65l-13 -14q-66 62 -154 62q-72 0 -130.5 -44.5t-58.5 -124.5q0 -39 22.5 -69.5t56 -49t72.5 -40
t72.5 -42t56 -57t22.5 -83.5q0 -81 -60 -136.5t-148 -55.5h-7l-19 -105h-19l19 106q-129 12 -193 117z" />
    <glyph glyph-name="percent" unicode="%" horiz-adv-x="805" 
d="M391 557q0 56 -40 95.5t-97 39.5q-65 0 -108.5 -45.5t-43.5 -113.5q0 -56 40 -95.5t97 -39.5q65 0 108.5 45.5t43.5 113.5zM82 533q0 77 49 127t123 50q66 0 111.5 -44.5t45.5 -108.5q0 -77 -49 -127t-123 -50q-66 0 -111.5 44.5t-45.5 108.5zM671 700h25l-532 -700h-25z
M733 167q0 56 -40 95.5t-97 39.5q-65 0 -108.5 -45.5t-43.5 -113.5q0 -56 40 -95.5t97 -39.5q65 0 108.5 45.5t43.5 113.5zM424 143q0 77 49 127t123 50q66 0 111.5 -44.5t45.5 -108.5q0 -77 -49 -127t-123 -50q-66 0 -111.5 44.5t-45.5 108.5z" />
    <glyph glyph-name="ampersand" unicode="&#x26;" horiz-adv-x="654" 
d="M437 582q0 -32 -12 -57t-40.5 -46t-51.5 -33.5t-69 -33.5l243 -269q65 97 65 222q0 32 -2 62l20 3q2 -21 2 -65q0 -133 -71 -237l116 -128h-27l-101 111q-95 -121 -242 -121q-101 0 -168 53t-67 142q0 44 16.5 81.5t47.5 66t62 48t73 38.5q-73 84 -73 150q0 60 41 100.5
t103 40.5q57 0 96 -36.5t39 -91.5zM267 8q66 0 126 31t102 87l-251 279q-192 -88 -192 -217q0 -76 57 -128t158 -52zM178 569q0 -61 73 -142q43 19 64 30t49.5 30.5t40.5 42.5t12 52q0 48 -34 79t-81 31q-53 0 -88.5 -36.5t-35.5 -86.5z" />
    <glyph glyph-name="quotesingle" unicode="'" horiz-adv-x="201" 
d="M149 465h-19l42 235h19z" />
    <glyph glyph-name="parenleft" unicode="(" horiz-adv-x="415" 
d="M399 710l15 -13q-225 -257 -225 -550q0 -190 84 -347l-17 -10q-87 160 -87 357q0 299 230 563z" />
    <glyph glyph-name="parenright" unicode=")" horiz-adv-x="415" 
d="M25 -210l-15 13q225 257 225 550q0 190 -84 347l17 10q87 -160 87 -357q0 -299 -230 -563z" />
    <glyph glyph-name="asterisk" unicode="*" horiz-adv-x="490" 
d="M315 700h19l-36 -197l198 62l6 -17l-205 -64l90 -159l-16 -9l-91 159l-139 -159l-14 12l141 161l-170 58l6 18l176 -61z" />
    <glyph glyph-name="plus" unicode="+" horiz-adv-x="523" 
d="M311 460l-34 -191h191l-3 -18h-191l-33 -191h-18l33 191h-191l3 18h191l34 191h18z" />
    <glyph glyph-name="comma" unicode="," horiz-adv-x="270" 
d="M17 -140l111 220h23l-111 -220h-23z" />
    <glyph glyph-name="hyphen" unicode="-" horiz-adv-x="410" 
d="M89 258h240l-3 -18h-240z" />
    <glyph glyph-name="period" unicode="." horiz-adv-x="270" 
d="M75 25q0 14 10.5 24.5t24.5 10.5t24.5 -10.5t10.5 -24.5t-10.5 -24.5t-24.5 -10.5t-24.5 10.5t-10.5 24.5z" />
    <glyph glyph-name="slash" unicode="/" horiz-adv-x="482" 
d="M453 700h24l-448 -700h-24z" />
    <glyph glyph-name="zero" unicode="0" horiz-adv-x="590" 
d="M98 243q0 -110 45.5 -172.5t133.5 -62.5q66 0 118 41.5t82 109t45.5 144t15.5 154.5q0 110 -45.5 172.5t-133.5 62.5q-66 0 -118 -41.5t-82 -109t-45.5 -144t-15.5 -154.5zM78 243q0 82 16.5 161.5t49 149.5t88.5 113t127 43q98 0 148.5 -68t50.5 -185
q0 -82 -16.5 -161.5t-49 -149.5t-88.5 -113t-127 -43q-98 0 -148.5 68t-50.5 185z" />
    <glyph glyph-name="one" unicode="1" horiz-adv-x="389" 
d="M130 584l3 22l182 94h9l-123 -700h-19l117 669z" />
    <glyph glyph-name="two" unicode="2" horiz-adv-x="530" 
d="M139 577l-18 9q59 124 192 124q78 0 131.5 -50.5t53.5 -125.5q0 -48 -22.5 -92.5t-79.5 -98.5l-343 -325h370l-3 -18h-405l1 10l362 343q55 52 77.5 94t22.5 87q0 63 -46 110.5t-118 47.5q-61 0 -106 -32t-69 -83z" />
    <glyph glyph-name="three" unicode="3" horiz-adv-x="536" 
d="M457 682h-311l3 18h347l-2 -10l-257 -250h8q94 0 156 -61t62 -153q0 -99 -71 -167.5t-170 -68.5q-71 0 -126 32t-81 86l18 9q23 -50 74.5 -79.5t114.5 -29.5q91 0 156 63.5t65 154.5q0 83 -56 139.5t-142 56.5q-30 0 -55 -7l2 10z" />
    <glyph glyph-name="four" unicode="4" horiz-adv-x="562" 
d="M493 700h10l-85 -482h119l-3 -18h-119l-35 -200h-19l35 200h-381l2 10zM51 218h348l77 437z" />
    <glyph glyph-name="five" unicode="5" horiz-adv-x="538" 
d="M54 81l14 12q30 -41 79 -63t103 -22q88 0 150.5 62t62.5 150q0 82 -55 137t-139 55q-87 0 -152 -68l-10 3l110 353h297l-3 -18h-278l-91 -292q58 40 127 40q93 0 153.5 -60.5t60.5 -149.5q0 -96 -67.5 -163t-165.5 -67q-125 0 -196 91z" />
    <glyph glyph-name="six" unicode="6" horiz-adv-x="560" 
d="M465 700l-269 -294q44 22 103 22q91 0 151 -60.5t60 -148.5q0 -96 -68.5 -162.5t-165.5 -66.5q-92 0 -152.5 60.5t-60.5 148.5q0 90 73 171l301 330h28zM299 410q-78 0 -140 -45l-5 -5q-71 -71 -71 -161q0 -81 55 -136t138 -55q89 0 151.5 61.5t62.5 149.5q0 81 -54 136
t-137 55z" />
    <glyph glyph-name="seven" unicode="7" horiz-adv-x="470" 
d="M97 682l3 18h420l-2 -10l-454 -690h-24l449 682h-392z" />
    <glyph glyph-name="eight" unicode="8" horiz-adv-x="560" 
d="M158 534q0 76 53 126t130 50q72 0 120.5 -45t48.5 -110t-39.5 -111.5t-101.5 -60.5q58 -21 93 -69t35 -108q0 -92 -65 -154t-159 -62q-88 0 -146.5 55.5t-58.5 135.5q0 82 52 141t132 72q-43 19 -68.5 56.5t-25.5 83.5zM292 379q-86 0 -145 -57.5t-59 -140.5
q0 -73 53 -123t132 -50q86 0 145 57.5t59 140.5q0 73 -53 123t-132 50zM178 534q0 -57 43 -97t106 -40q69 0 116 45.5t47 112.5q0 57 -43 97t-106 40q-69 0 -116 -45.5t-47 -112.5z" />
    <glyph glyph-name="nine" unicode="9" horiz-adv-x="553" 
d="M136 0l269 294q-44 -22 -103 -22q-91 0 -151 60.5t-60 148.5q0 96 68.5 162.5t165.5 66.5q92 0 152.5 -60.5t60.5 -148.5q0 -90 -73 -171l-301 -330h-28zM302 290q78 0 140 45l5 5q71 71 71 161q0 81 -55 136t-138 55q-89 0 -151.5 -61.5t-62.5 -149.5q0 -81 54 -136
t137 -55z" />
    <glyph glyph-name="colon" unicode=":" horiz-adv-x="270" 
d="M75 25q0 14 10.5 24.5t24.5 10.5t24.5 -10.5t10.5 -24.5t-10.5 -24.5t-24.5 -10.5t-24.5 10.5t-10.5 24.5zM142 405q0 14 10.5 24.5t24.5 10.5t24.5 -10.5t10.5 -24.5t-10.5 -24.5t-24.5 -10.5t-24.5 10.5t-10.5 24.5z" />
    <glyph glyph-name="semicolon" unicode=";" horiz-adv-x="270" 
d="M17 -140l111 220h23l-111 -220h-23zM142 405q0 14 10.5 24.5t24.5 10.5t24.5 -10.5t10.5 -24.5t-10.5 -24.5t-24.5 -10.5t-24.5 10.5t-10.5 24.5z" />
    <glyph glyph-name="less" unicode="&#x3c;" horiz-adv-x="523" 
d="M429 102l-3 -19l-370 172l2 10l430 172l-4 -21l-394 -158z" />
    <glyph glyph-name="equal" unicode="=" horiz-adv-x="523" 
d="M450 162h-400l3 18h400zM482 342h-400l3 18h400z" />
    <glyph glyph-name="greater" unicode="&#x3e;" horiz-adv-x="523" 
d="M104 418l3 19l370 -172l-2 -10l-430 -172l4 21l394 158z" />
    <glyph glyph-name="question" unicode="?" horiz-adv-x="518" 
d="M170 25q0 14 10.5 24.5t24.5 10.5t24.5 -10.5t10.5 -24.5t-10.5 -24.5t-24.5 -10.5t-24.5 10.5t-10.5 24.5zM144 563l-19 6q22 63 72.5 102t123.5 39q78 0 127.5 -45t49.5 -113q0 -50 -27 -88.5t-65.5 -62.5t-77 -44.5t-65.5 -44.5t-27 -53q0 -27 20 -52l-16 -12
q-7 7 -15.5 25t-8.5 39q0 33 27 60.5t65.5 48t77 43t65.5 59t27 82.5q0 60 -44 100t-113 40q-66 0 -111.5 -36t-65.5 -93z" />
    <glyph glyph-name="at" unicode="@" horiz-adv-x="1020" 
d="M764 55q-39 0 -71.5 18.5t-40.5 53.5q-61 -72 -153 -72q-81 0 -134.5 53.5t-53.5 132.5q0 86 61.5 145t148.5 59q101 0 162 -82l13 73h19l-39 -224q-7 -37 -7 -59q0 -38 26.5 -59t68.5 -21q74 0 118.5 61t44.5 157q0 165 -120 273t-283 108q-112 0 -208 -56
t-152.5 -153.5t-56.5 -212.5q0 -176 123 -299t295 -123q135 0 241 82l11 -16q-109 -84 -253 -84q-181 0 -309 129t-128 311t128 311t309 129q114 0 210.5 -51.5t154.5 -143.5t58 -204q0 -99 -49 -167.5t-134 -68.5zM499 73q90 0 150 75q0 19 7 61l22 130q-23 37 -63.5 62.5
t-93.5 25.5q-78 0 -134 -54t-56 -132q0 -72 48 -120t120 -48z" />
    <glyph glyph-name="A" unicode="A" horiz-adv-x="660" 
d="M580 0l-61 239h-361l-145 -239h-23l424 700h9l177 -700h-20zM412 659l-243 -402h345z" />
    <glyph glyph-name="B" unicode="B" horiz-adv-x="618" 
d="M57 0l123 700h197q69 0 104 -27q58 -44 58 -121q0 -48 -27 -88.5t-70 -62.5q-9 -5 -17 -8q61 -15 99.5 -63.5t38.5 -115.5q0 -62 -35.5 -116t-90.5 -77q-49 -21 -130 -21h-250zM143 382l-64 -364h221q82 0 127 19q51 21 83.5 71t32.5 106q0 49 -23 87.5t-62 59.5
q-40 21 -106 21h-209zM378 682h-182l-50 -282h200q53 0 87 17q38 18 62 55.5t24 79.5q0 69 -51 107q-32 23 -90 23z" />
    <glyph glyph-name="C" unicode="C" horiz-adv-x="736" 
d="M92 330q0 -141 93 -231.5t234 -90.5q147 0 249 109l14 -13q-106 -114 -263 -114q-149 0 -248 95.5t-99 244.5q0 100 45.5 186.5t130 140t189.5 53.5q168 0 279 -127l-14 -13q-104 122 -265 122q-99 0 -179 -51.5t-123 -134t-43 -176.5z" />
    <glyph glyph-name="D" unicode="D" horiz-adv-x="736" 
d="M296 0h-239l123 700h179q164 0 258 -94q87 -88 87 -236t-110 -260q-107 -110 -298 -110zM79 18h217q182 0 285 106t103 246q0 141 -82 224q-88 88 -245 88h-161z" />
    <glyph glyph-name="E" unicode="E" horiz-adv-x="510" 
d="M57 0l123 700h360l-3 -18h-341l-50 -282h261l-3 -18h-261l-64 -364h351l-3 -18h-370z" />
    <glyph glyph-name="F" unicode="F" horiz-adv-x="490" 
d="M57 0l123 700h360l-3 -18h-341l-50 -282h261l-3 -18h-261l-67 -382h-19z" />
    <glyph glyph-name="G" unicode="G" horiz-adv-x="784" 
d="M716 583l-14 -13q-104 122 -265 122q-99 0 -179 -51.5t-123 -134t-43 -176.5q0 -141 93 -231.5t234 -90.5q145 0 245 103l48 271h-261l3 18h280l-52 -296q-49 -53 -118 -83.5t-145 -30.5q-149 0 -248 95.5t-99 244.5q0 100 45.5 186.5t130 140t189.5 53.5q168 0 279 -127
z" />
    <glyph glyph-name="H" unicode="H" horiz-adv-x="741" 
d="M724 700l-123 -700h-19l67 382h-506l-67 -382h-19l123 700h19l-53 -300h506l53 300h19z" />
    <glyph glyph-name="I" unicode="I" horiz-adv-x="216" 
d="M199 700l-123 -700h-19l123 700h19z" />
    <glyph glyph-name="J" unicode="J" horiz-adv-x="465" 
d="M434 700h19l-90 -514q-15 -89 -41 -125q-52 -71 -143 -71q-56 0 -100 27t-69 79l19 7q22 -47 62.5 -71t87.5 -24q79 0 124 61q26 36 40 117z" />
    <glyph glyph-name="K" unicode="K" horiz-adv-x="599" 
d="M200 700l-56 -318l451 318h34l-463 -327l361 -373h-27l-358 369l-65 -369h-20l123 700h20z" />
    <glyph glyph-name="L" unicode="L" horiz-adv-x="480" 
d="M199 700l-120 -682h351l-3 -18h-370l123 700h19z" />
    <glyph glyph-name="M" unicode="M" horiz-adv-x="826" 
d="M395 160l-205 486l-114 -646h-19l123 700h9l214 -513l397 513h9l-123 -700h-19l113 640l-376 -480h-9z" />
    <glyph glyph-name="N" unicode="N" horiz-adv-x="746" 
d="M729 700l-123 -700h-9l-406 658l-115 -658h-19l123 700h9l405 -659l116 659h19z" />
    <glyph glyph-name="O" unicode="O" horiz-adv-x="812" 
d="M406 8q143 0 246 105q50 52 79 119.5t29 137.5q0 141 -89 230q-44 45 -104 68.5t-121 23.5q-143 0 -246 -105q-50 -52 -79 -119.5t-29 -137.5q0 -141 89 -230q44 -45 104 -68.5t121 -23.5zM406 -10q-142 0 -239 97q-95 97 -95 243q0 73 30 143.5t83 125.5
q109 111 261 111q142 0 239 -97q95 -97 95 -243q0 -73 -30 -143.5t-83 -125.5q-109 -111 -261 -111z" />
    <glyph glyph-name="P" unicode="P" horiz-adv-x="574" 
d="M418 700q72 0 110 -29q61 -45 61 -128q0 -52 -28 -95t-74 -66q-40 -20 -110 -20h-237l-64 -362h-19l123 700h238zM418 682h-222l-53 -302h234q62 0 100 18q41 20 66.5 59.5t25.5 85.5q0 75 -54 114q-36 25 -97 25z" />
    <glyph glyph-name="Q" unicode="Q" horiz-adv-x="817" 
d="M406 -10q-142 0 -239 97q-95 97 -95 243q0 73 30 143.5t83 125.5q109 111 261 111q142 0 239 -97q95 -97 95 -243q0 -73 -30 -143.5t-83 -125.5l-3 -3l76 -98h-23l-66 85q-106 -95 -245 -95zM456 339l15 11l181 -237q50 52 79 119.5t29 137.5q0 141 -89 230
q-44 45 -104 68.5t-121 23.5q-143 0 -246 -105q-50 -52 -79 -119.5t-29 -137.5q0 -141 89 -230q44 -45 104 -68.5t121 -23.5q132 0 233 93z" />
    <glyph glyph-name="R" unicode="R" horiz-adv-x="615" 
d="M349 382h-34l250 -382h-23l-250 382h-149l-67 -382h-19l123 700h217q69 0 104 -27q58 -44 58 -121q0 -48 -27 -88.5t-70 -62.5q-38 -19 -113 -19zM398 682h-202l-50 -282h204q69 0 103 17q38 18 62 55.5t24 79.5q0 69 -51 107q-32 23 -90 23z" />
    <glyph glyph-name="S" unicode="S" horiz-adv-x="511" 
d="M15 108l17 10q66 -110 202 -110q74 0 131 48.5t57 125.5q0 51 -31 88.5t-75.5 60.5l-89 46t-75.5 59t-31 85q0 87 62.5 138t146.5 51q92 0 167 -66l-13 -14q-66 62 -154 62q-72 0 -130.5 -44.5t-58.5 -124.5q0 -39 22.5 -69.5t56 -49t72.5 -40t72.5 -42t56 -57
t22.5 -83.5q0 -81 -60 -136.5t-148 -55.5q-68 0 -125.5 30t-93.5 88z" />
    <glyph glyph-name="T" unicode="T" horiz-adv-x="489" 
d="M552 700l-3 -18h-220l-120 -682h-19l120 682h-220l3 18h459z" />
    <glyph glyph-name="U" unicode="U" horiz-adv-x="727" 
d="M715 700l-77 -438q-48 -272 -296 -272q-103 0 -175 63.5t-72 159.5q0 26 9 75l72 412h19l-73 -415q-7 -44 -7 -70q0 -90 65.5 -148.5t161.5 -58.5q231 0 277 257l77 435h19z" />
    <glyph glyph-name="V" unicode="V" horiz-adv-x="622" 
d="M657 700h23l-407 -700h-9l-162 700h20l152 -658z" />
    <glyph glyph-name="W" unicode="W" horiz-adv-x="931" 
d="M630 0l-88 645l-317 -645h-9l-104 700h20l96 -648l318 648h9l88 -647l324 647h22l-350 -700h-9z" />
    <glyph glyph-name="X" unicode="X" horiz-adv-x="604" 
d="M510 0l-182 365l-307 -365h-26l323 385l-156 315h23l148 -298l250 298h26l-267 -318l190 -382h-22z" />
    <glyph glyph-name="Y" unicode="Y" horiz-adv-x="525" 
d="M231 0h-19l60 345l-172 355h22l162 -333l280 333h26l-299 -356z" />
    <glyph glyph-name="Z" unicode="Z" horiz-adv-x="583" 
d="M-5 0l1 10l566 672h-417l3 18h450l-2 -10l-568 -672h470l-3 -18h-500z" />
    <glyph glyph-name="bracketleft" unicode="[" horiz-adv-x="415" 
d="M96 -200l159 900h204l-3 -18h-185l-153 -864h185l-3 -18h-204z" />
    <glyph glyph-name="backslash" unicode="\" horiz-adv-x="236" 
d="M5 700h21l205 -700h-21z" />
    <glyph glyph-name="bracketright" unicode="]" horiz-adv-x="415" 
d="M327 700l-159 -900h-204l3 18h185l153 864h-185l3 18h204z" />
    <glyph glyph-name="asciicircum" unicode="^" horiz-adv-x="510" 
d="M323 700h9l114 -350h-21l-102 314l-214 -314h-23z" />
    <glyph glyph-name="underscore" unicode="_" horiz-adv-x="440" 
d="M-17 0h390l-4 -18h-390z" />
    <glyph glyph-name="grave" unicode="`" horiz-adv-x="259" 
d="M70 640h22l97 -130h-22z" />
    <glyph glyph-name="a" unicode="a" horiz-adv-x="568" 
d="M490 430h19l-76 -430h-19l11 63q-29 -32 -72.5 -52.5t-91.5 -20.5q-93 0 -154.5 61.5t-61.5 152.5q0 100 70.5 168t172.5 68q60 0 108.5 -28t78.5 -71zM261 8q49 0 93.5 22.5t74.5 60.5l41 229q-28 44 -74.5 73t-107.5 29q-93 0 -158 -63t-65 -155q0 -84 55.5 -140
t140.5 -56z" />
    <glyph glyph-name="b" unicode="b" horiz-adv-x="566" 
d="M71 0h-19l125 710h19l-60 -343q29 32 72.5 52.5t91.5 20.5q93 0 154.5 -61.5t61.5 -152.5q0 -100 -70.5 -168t-172.5 -68q-60 0 -108.5 28t-78.5 71zM300 422q-49 0 -93.5 -22.5t-74.5 -60.5l-41 -229q28 -44 74.5 -73t107.5 -29q93 0 158 63t65 155q0 84 -55.5 140
t-140.5 56z" />
    <glyph glyph-name="c" unicode="c" horiz-adv-x="505" 
d="M422 74l13 -14q-68 -70 -168 -70q-89 0 -155.5 58.5t-66.5 150.5q0 101 69 171t171 70q52 0 98.5 -22t76.5 -60l-14 -12q-27 35 -69.5 55.5t-91.5 20.5q-93 0 -156.5 -65.5t-63.5 -157.5q0 -80 59.5 -135.5t142.5 -55.5q94 0 155 66z" />
    <glyph glyph-name="d" unicode="d" horiz-adv-x="568" 
d="M539 710h19l-125 -710h-19l11 63q-29 -32 -72.5 -52.5t-91.5 -20.5q-93 0 -154.5 61.5t-61.5 152.5q0 100 70.5 168t172.5 68q60 0 108.5 -28t78.5 -71zM261 8q49 0 93.5 22.5t74.5 60.5l41 229q-28 44 -74.5 73t-107.5 29q-93 0 -158 -63t-65 -155q0 -84 55.5 -140
t140.5 -56z" />
    <glyph glyph-name="e" unicode="e" horiz-adv-x="505" 
d="M264 422q-73 0 -126.5 -50t-68.5 -126h366q0 79 -49.5 127.5t-121.5 48.5zM409 72l13 -15q-67 -67 -163 -67q-117 0 -177 85q-37 52 -37 124q0 101 63 171t156 70q80 0 135.5 -53.5t55.5 -135.5q0 -15 -1 -23h-388q-1 -9 -1 -29q0 -63 33 -112q55 -79 160 -79
q89 0 151 64z" />
    <glyph glyph-name="f" unicode="f" horiz-adv-x="367" 
d="M427 713l-5 -17q-21 6 -45 6q-86 0 -127 -76q-12 -25 -24 -87l-19 -109h175l-3 -18h-175l-73 -412h-19l73 412h-140l3 18h140l19 109q11 62 24 90q45 91 146 91q26 0 50 -7z" />
    <glyph glyph-name="g" unicode="g" horiz-adv-x="568" 
d="M408 -31l17 94q-29 -32 -72.5 -52.5t-91.5 -20.5q-93 0 -154.5 61.5t-61.5 152.5q0 100 70.5 168t172.5 68q60 0 108.5 -28t78.5 -71l15 89h19l-85 -482q-12 -76 -45 -121q-55 -77 -171 -77q-130 0 -204 100l16 12q66 -94 188 -94q104 0 155 70q27 37 45 131zM261 8
q49 0 93.5 22.5t74.5 60.5l41 229q-28 44 -74.5 73t-107.5 29q-93 0 -158 -63t-65 -155q0 -84 55.5 -140t140.5 -56z" />
    <glyph glyph-name="h" unicode="h" horiz-adv-x="560" 
d="M440 0h-19l38 214q7 42 7 62q0 56 -31 95q-40 51 -114 51q-115 0 -196 -118l-54 -304h-19l125 710h19l-64 -368q34 43 84.5 70.5t104.5 27.5q83 0 130 -58q34 -44 34 -105q0 -18 -9 -74z" />
    <glyph glyph-name="i" unicode="i" horiz-adv-x="206" 
d="M135 590q0 13 8.5 21.5t21.5 8.5t21.5 -8.5t8.5 -21.5t-8.5 -21.5t-21.5 -8.5t-21.5 8.5t-8.5 21.5zM128 430h19l-76 -430h-19z" />
    <glyph glyph-name="j" unicode="j" horiz-adv-x="234" 
d="M164 590q0 13 8.5 21.5t21.5 8.5t21.5 -8.5t8.5 -21.5t-8.5 -21.5t-21.5 -8.5t-21.5 8.5t-8.5 21.5zM-110 -226l4 18q15 -3 31 -3q84 0 125 75q13 26 23 88l84 478h19l-84 -478q-12 -67 -23 -91q-44 -90 -144 -90q-14 0 -35 3z" />
    <glyph glyph-name="k" unicode="k" horiz-adv-x="460" 
d="M138 235l272 -235h-31l-267 232l-41 -232h-19l125 710h19l-82 -467l303 187h38z" />
    <glyph glyph-name="l" unicode="l" horiz-adv-x="206" 
d="M196 710l-125 -710h-19l125 710h19z" />
    <glyph glyph-name="m" unicode="m" horiz-adv-x="917" 
d="M434 0h-19l38 214q7 42 7 62q0 56 -31 95q-40 51 -112 51q-55 0 -105 -32t-87 -86l-54 -304h-19l76 430h19l-15 -88q35 43 84 70.5t101 27.5q81 0 128 -58q22 -31 29 -64q87 122 206 122q81 0 128 -58q34 -44 34 -105q0 -18 -9 -74l-36 -203h-19l38 214q7 42 7 62
q0 56 -31 95q-40 51 -112 51q-120 0 -202 -132q1 -4 1 -13q0 -18 -9 -74z" />
    <glyph glyph-name="n" unicode="n" horiz-adv-x="560" 
d="M440 0h-19l38 214q7 42 7 62q0 56 -31 95q-40 51 -114 51q-115 0 -196 -118l-54 -304h-19l76 430h19l-15 -88q34 43 84.5 70.5t104.5 27.5q83 0 130 -58q34 -44 34 -105q0 -18 -9 -74z" />
    <glyph glyph-name="o" unicode="o" horiz-adv-x="554" 
d="M263 8q90 0 155.5 63.5t65.5 154.5q0 83 -57 139.5t-141 56.5q-90 0 -155.5 -63.5t-65.5 -154.5q0 -83 57 -139.5t141 -56.5zM263 -10q-94 0 -156 61.5t-62 152.5q0 99 71 167.5t170 68.5q94 0 156 -61.5t62 -152.5q0 -99 -71 -167.5t-170 -68.5z" />
    <glyph glyph-name="p" unicode="p" horiz-adv-x="566" 
d="M29 -240h-19l118 670h19l-11 -63q29 32 72.5 52.5t91.5 20.5q93 0 154.5 -61.5t61.5 -152.5q0 -100 -70.5 -168t-172.5 -68q-60 0 -108.5 28t-78.5 71zM300 422q-49 0 -93.5 -22.5t-74.5 -60.5l-41 -229q28 -44 74.5 -73t107.5 -29q93 0 158 63t65 155q0 84 -55.5 140
t-140.5 56z" />
    <glyph glyph-name="q" unicode="q" horiz-adv-x="568" 
d="M490 430h19l-118 -670h-19l53 303q-29 -32 -72.5 -52.5t-91.5 -20.5q-93 0 -154.5 61.5t-61.5 152.5q0 100 70.5 168t172.5 68q60 0 108.5 -28t78.5 -71zM261 8q49 0 93.5 22.5t74.5 60.5l41 229q-28 44 -74.5 73t-107.5 29q-93 0 -158 -63t-65 -155q0 -84 55.5 -140
t140.5 -56z" />
    <glyph glyph-name="r" unicode="r" horiz-adv-x="321" 
d="M311 439l-4 -18q-6 1 -13 1q-101 0 -169 -118l-54 -304h-19l76 430h19l-14 -84q60 94 163 94q9 0 15 -1z" />
    <glyph glyph-name="s" unicode="s" horiz-adv-x="395" 
d="M15 54l14 14q60 -60 146 -60q47 0 85 29t38 76q0 34 -23 56.5t-55.5 34.5t-64.5 24.5t-55 35.5t-23 58q0 55 43 86.5t99 31.5q71 0 131 -43l-12 -14q-48 39 -119 39q-48 0 -85 -26t-37 -74q0 -31 23 -51t55.5 -31.5t64.5 -24t55 -38t23 -64.5q0 -52 -43.5 -87.5
t-98.5 -35.5q-91 0 -161 64z" />
    <glyph glyph-name="t" unicode="t" horiz-adv-x="387" 
d="M311 12l2 -18q-19 -4 -43 -4q-58 0 -99 32t-41 89q0 16 8 62l42 239h-140l3 18h140l23 130h19l-23 -130h175l-3 -18h-175l-42 -239q-7 -44 -7 -62q0 -47 33 -75t87 -28q21 0 41 4z" />
    <glyph glyph-name="u" unicode="u" horiz-adv-x="559" 
d="M118 430h19l-38 -214q-7 -42 -7 -62q0 -56 31 -95q40 -51 112 -51q55 0 105 32t87 86l54 304h19l-76 -430h-19l15 88q-35 -43 -84 -70.5t-101 -27.5q-81 0 -128 58q-34 44 -34 105q0 18 9 74z" />
    <glyph glyph-name="v" unicode="v" horiz-adv-x="474" 
d="M76 430l120 -393l259 393h24l-283 -430h-9l-132 430h21z" />
    <glyph glyph-name="w" unicode="w" horiz-adv-x="728" 
d="M469 0l-81 385l-218 -385h-9l-101 430h20l91 -389l220 389h9l80 -387l225 387h23l-250 -430h-9z" />
    <glyph glyph-name="x" unicode="x" horiz-adv-x="459" 
d="M356 0l-129 221l-200 -221h-27l217 239l-111 191h24l102 -177l161 177h26l-176 -194l136 -236h-23z" />
    <glyph glyph-name="y" unicode="y" horiz-adv-x="468" 
d="M449 430h24l-434 -672h-24l182 282l-150 390h20l144 -369z" />
    <glyph glyph-name="z" unicode="z" horiz-adv-x="441" 
d="M32 18h336l-3 -18h-370l2 10l385 402h-294l3 18h330l-2 -10z" />
    <glyph glyph-name="braceleft" unicode="{" horiz-adv-x="415" 
d="M274 -182l-3 -18h-20q-68 0 -102 32.5t-34 85.5q0 45 24 134t24 135t-49 53l3 20q50 5 67 50q16 43 30 168.5t39 163.5q38 58 152 58h25l-3 -18h-25q-99 0 -135 -52q-21 -30 -34.5 -150.5t-25.5 -160.5q-16 -52 -57 -71q32 -14 32 -61q0 -45 -24 -133.5t-24 -134.5
q0 -101 120 -101h20z" />
    <glyph glyph-name="bar" unicode="|" horiz-adv-x="150" 
d="M167 700l-159 -900h-19l159 900h19z" />
    <glyph glyph-name="braceright" unicode="}" horiz-adv-x="415" 
d="M149 682l3 18h20q68 0 102 -32.5t34 -85.5q0 -45 -24 -134t-24 -135t49 -53l-3 -20q-50 -5 -67 -50q-16 -43 -30 -168.5t-39 -163.5q-38 -58 -152 -58h-25l3 18h25q99 0 135 52q21 30 34.5 150.5t25.5 160.5q16 52 57 71q-32 14 -32 61q0 45 24 133.5t24 134.5
q0 101 -120 101h-20z" />
    <glyph glyph-name="asciitilde" unicode="~" horiz-adv-x="480" 
d="M63 219l-18 6q38 89 109 89q34 0 63.5 -22t57.5 -44t56 -22q55 0 91 77l18 -6q-38 -89 -109 -89q-34 0 -63.5 22t-57.5 44t-56 22q-55 0 -91 -77z" />
    <glyph glyph-name="exclamdown" unicode="&#xa1;" horiz-adv-x="240" 
d="M111 260h19l-88 -500h-19zM181 405q0 -14 -10.5 -24.5t-24.5 -10.5t-24.5 10.5t-10.5 24.5t10.5 24.5t24.5 10.5t24.5 -10.5t10.5 -24.5z" />
    <glyph glyph-name="cent" unicode="&#xa2;" horiz-adv-x="505" 
d="M422 74l13 -14q-68 -70 -168 -70q-4 0 -12 0.5t-11 0.5l-18 -106h-19l19 109q-77 13 -129 68.5t-52 136.5q0 101 69 171t171 70q3 0 9.5 -0.5t9.5 -0.5l19 106h19l-19 -108q86 -16 137 -79l-14 -12q-27 35 -69.5 55.5t-91.5 20.5q-93 0 -156.5 -65.5t-63.5 -157.5
q0 -80 59.5 -135.5t142.5 -55.5q94 0 155 66z" />
    <glyph glyph-name="sterling" unicode="&#xa3;" horiz-adv-x="478" 
d="M74 363l3 18h88q-21 88 -21 129q0 83 55.5 141.5t140.5 58.5q51 0 94.5 -25.5t63.5 -66.5l-17 -9q-19 35 -56 59t-85 24q-75 0 -125.5 -53.5t-50.5 -128.5q0 -37 22 -129h126l-3 -18h-119q11 -59 11 -103q0 -77 -44.5 -140t-103.5 -102h375l-3 -18h-435l1 10
q74 29 132 101t58 150q0 50 -12 102h-95z" />
    <glyph glyph-name="currency" unicode="&#xa4;" horiz-adv-x="500" 
d="M64 351q0 72 48 125l-72 72l13 13l72 -72q53 48 125 48t125 -48l72 72l13 -13l-72 -72q48 -53 48 -125t-48 -125l72 -72l-13 -13l-72 72q-53 -48 -125 -48t-125 48l-72 -72l-13 13l72 72q-48 53 -48 125zM84 351q0 -69 48.5 -117.5t117.5 -48.5t117.5 48.5t48.5 117.5
t-48.5 117.5t-117.5 48.5t-117.5 -48.5t-48.5 -117.5z" />
    <glyph glyph-name="yen" unicode="&#xa5;" horiz-adv-x="525" 
d="M41 279h219l12 66l-37 76h-169l3 18h157l-126 261h22l162 -333l280 333h26l-220 -261h159l-3 -18h-171l-64 -77l-12 -65h222l-3 -18h-222l-45 -261h-19l45 261h-219z" />
    <glyph glyph-name="brokenbar" unicode="&#xa6;" horiz-adv-x="190" 
d="M78 190h19l-69 -390h-19zM118 310h-19l69 390h19z" />
    <glyph glyph-name="section" unicode="&#xa7;" horiz-adv-x="522" 
d="M452 234q0 35 -14 61t-40 43t-51.5 28t-62.5 25t-58 25q-63 -12 -107 -58t-44 -112q0 -35 13.5 -61t40 -43t52 -28t62 -25.5t58.5 -25.5q64 13 107.5 58.5t43.5 112.5zM367 -66q0 36 -17 62.5t-44.5 42.5t-61 29t-67 27t-61 32t-44.5 48t-17 71q0 66 41 116.5t107 67.5
q-63 41 -63 116t60 119.5t134 44.5q96 0 174 -66l-13 -14q-68 62 -161 62q-69 0 -121.5 -40t-52.5 -106q0 -36 17 -62.5t44.5 -42.5t61 -29t67 -27t61 -32t44.5 -48t17 -71q0 -66 -41.5 -116.5t-107.5 -67.5q64 -43 64 -116q0 -75 -60 -119.5t-134 -44.5q-96 0 -174 66
l13 14q68 -62 161 -62q69 0 121.5 40t52.5 106z" />
    <glyph glyph-name="dieresis" unicode="&#xa8;" horiz-adv-x="340" 
d="M70 570q0 13 8.5 21.5t21.5 8.5t21.5 -8.5t8.5 -21.5t-8.5 -21.5t-21.5 -8.5t-21.5 8.5t-8.5 21.5zM210 570q0 13 8.5 21.5t21.5 8.5t21.5 -8.5t8.5 -21.5t-8.5 -21.5t-21.5 -8.5t-21.5 8.5t-8.5 21.5z" />
    <glyph glyph-name="copyright" unicode="&#xa9;" horiz-adv-x="840" 
d="M85 350q0 145 102.5 247.5t247.5 102.5t247.5 -102.5t102.5 -247.5t-102.5 -247.5t-247.5 -102.5t-247.5 102.5t-102.5 247.5zM563 221l12 -14q-55 -52 -132 -52q-83 0 -139 57t-56 140q0 84 55.5 141t135.5 57q72 0 124 -50l-11 -13q-47 45 -113 45q-72 0 -121.5 -52
t-49.5 -128q0 -75 50.5 -127t124.5 -52q69 0 120 48zM103 350q0 -137 97.5 -234.5t234.5 -97.5t234.5 97.5t97.5 234.5t-97.5 234.5t-234.5 97.5t-234.5 -97.5t-97.5 -234.5z" />
    <glyph glyph-name="ordfeminine" unicode="&#xaa;" horiz-adv-x="425" 
d="M406 700h19l-49 -280h-19l6 35q-43 -45 -106 -45t-104.5 41t-41.5 102q0 66 48 111.5t117 45.5q74 0 122 -61zM257 428q61 0 112 57l24 141q-17 28 -48 47t-69 19q-61 0 -103 -40.5t-42 -98.5q0 -53 36 -89t90 -36z" />
    <glyph glyph-name="guillemotleft" unicode="&#xab;" horiz-adv-x="525" 
d="M257 410h28l-185 -182l121 -178h-24l-120 175l2 10zM467 410h28l-185 -182l121 -178h-24l-120 175l2 10z" />
    <glyph glyph-name="logicalnot" unicode="&#xac;" horiz-adv-x="523" 
d="M450 162h-18l32 180h-382l3 18h400z" />
    <glyph glyph-name="registered" unicode="&#xae;" horiz-adv-x="840" 
d="M85 350q0 145 102.5 247.5t247.5 102.5t247.5 -102.5t102.5 -247.5t-102.5 -247.5t-247.5 -102.5t-247.5 102.5t-102.5 247.5zM103 350q0 -137 97.5 -234.5t234.5 -97.5t234.5 97.5t97.5 234.5t-97.5 234.5t-234.5 97.5t-234.5 -97.5t-97.5 -234.5zM446 526h-112v-148
h112q50 0 70 18q24 22 24 56t-24 56q-19 18 -70 18zM314 544h134q54 0 79 -20q33 -27 33 -72t-33 -72q-25 -20 -79 -20h-5l161 -199h-22l-161 199h-87v-199h-20v383z" />
    <glyph glyph-name="macron" unicode="&#xaf;" horiz-adv-x="380" 
d="M70 571h240v-18h-240v18z" />
    <glyph glyph-name="degree" unicode="&#xb0;" horiz-adv-x="390" 
d="M100 555q0 60 42.5 102.5t102.5 42.5t102.5 -42.5t42.5 -102.5t-42.5 -102.5t-102.5 -42.5t-102.5 42.5t-42.5 102.5zM120 555q0 -52 36.5 -88.5t88.5 -36.5t88.5 36.5t36.5 88.5t-36.5 88.5t-88.5 36.5t-88.5 -36.5t-36.5 -88.5z" />
    <glyph glyph-name="plusminus" unicode="&#xb1;" horiz-adv-x="523" 
d="M35 78h400l-3 -18h-400zM293 460h18l-29 -167h190l-3 -18h-190l-29 -167h-18l29 167h-192l3 18h192z" />
    <glyph glyph-name="twosuperior" unicode="&#xb2;" horiz-adv-x="272" 
d="M110 640l-15 11q33 59 102 59q43 0 71.5 -27.5t28.5 -67.5q0 -54 -63 -112l-157 -145h180l-3 -18h-214l2 11l174 161q61 55 61 103q0 33 -23.5 55t-56.5 22q-54 0 -87 -52z" />
    <glyph glyph-name="threesuperior" unicode="&#xb3;" horiz-adv-x="270" 
d="M138 551l2 11l129 120h-159l3 18h192l-2 -11l-125 -116q48 -2 78 -36t30 -79q0 -52 -38 -90t-92 -38q-32 0 -62.5 15.5t-48.5 41.5l14 11q37 -50 97 -50q43 0 76.5 32.5t33.5 77.5q0 43 -27 70t-70 27q-13 0 -31 -4z" />
    <glyph glyph-name="acute" unicode="&#xb4;" horiz-adv-x="259" 
d="M167 640h22l-97 -130h-22z" />
    <glyph glyph-name="mu" unicode="&#xb5;" horiz-adv-x="567" 
d="M147 430l-38 -214q-7 -42 -7 -62q0 -67 42.5 -106.5t104.5 -39.5q59 0 107 34t79 84l54 304h19l-76 -430h-19l15 87q-31 -44 -79 -70.5t-100 -26.5q-58 0 -101.5 30t-58.5 83l-60 -343h-19l118 670h19z" />
    <glyph glyph-name="paragraph" unicode="&#xb6;" horiz-adv-x="675" 
d="M682 700l-3 -18h-100l-156 -882h-19l156 882h-211l-156 -882h-19l83 471q-74 9 -123 65t-49 133q0 103 71 167t177 64h349zM105 469q0 -71 43.5 -120.5t111.5 -59.5l70 393q-97 -2 -161 -61t-64 -152z" />
    <glyph glyph-name="periodcentered" unicode="&#xb7;" horiz-adv-x="270" 
d="M105 215q0 14 10.5 24.5t24.5 10.5t24.5 -10.5t10.5 -24.5t-10.5 -24.5t-24.5 -10.5t-24.5 10.5t-10.5 24.5z" />
    <glyph glyph-name="cedilla" unicode="&#xb8;" horiz-adv-x="199" 
d="M70 -140l40 140h19l-40 -140h-19z" />
    <glyph glyph-name="onesuperior" unicode="&#xb9;" horiz-adv-x="200" 
d="M95 630l3 21l107 49h10l-63 -360h-21l59 333z" />
    <glyph glyph-name="ordmasculine" unicode="&#xba;" horiz-adv-x="410" 
d="M390 570q0 52 -35 87t-86 35q-60 0 -99 -41.5t-39 -100.5q0 -52 35 -87t86 -35q60 0 99 41.5t39 100.5zM111 550q0 67 45 113.5t113 46.5q60 0 100.5 -40.5t40.5 -99.5q0 -67 -45 -113.5t-113 -46.5q-60 0 -100.5 40.5t-40.5 99.5z" />
    <glyph glyph-name="guillemotright" unicode="&#xbb;" horiz-adv-x="525" 
d="M268 50h-28l185 182l-121 178h24l120 -175l-2 -10zM58 50h-28l185 182l-121 178h24l120 -175l-2 -10z" />
    <glyph glyph-name="onequarter" unicode="&#xbc;" horiz-adv-x="515" 
d="M95 630l3 21l107 49h10l-63 -360h-21l59 333zM527 700h25l-532 -700h-25zM390 0l16 95h-199l2 10l255 255h10l-44 -247h65l-3 -18h-65l-16 -95h-21zM244 113h165l36 202z" />
    <glyph glyph-name="onehalf" unicode="&#xbd;" horiz-adv-x="604" 
d="M527 700h25l-532 -700h-25zM95 630l3 21l107 49h10l-63 -360h-21l59 333zM382 300l-15 11q33 59 102 59q43 0 71.5 -27.5t28.5 -67.5q0 -54 -63 -112l-157 -145h180l-3 -18h-214l2 11l174 161q61 55 61 103q0 33 -23.5 55t-56.5 22q-54 0 -87 -52z" />
    <glyph glyph-name="threequarters" unicode="&#xbe;" horiz-adv-x="565" 
d="M577 700h25l-532 -700h-25zM138 551l2 11l129 120h-159l3 18h192l-2 -11l-125 -116q48 -2 78 -36t30 -79q0 -52 -38 -90t-92 -38q-32 0 -62.5 15.5t-48.5 41.5l14 11q37 -50 97 -50q43 0 76.5 32.5t33.5 77.5q0 43 -27 70t-70 27q-13 0 -31 -4zM440 0l16 95h-199l2 10
l255 255h10l-44 -247h65l-3 -18h-65l-16 -95h-21zM294 113h165l36 202z" />
    <glyph glyph-name="questiondown" unicode="&#xbf;" horiz-adv-x="518" 
d="M378 435q0 -14 -10.5 -24.5t-24.5 -10.5t-24.5 10.5t-10.5 24.5t10.5 24.5t24.5 10.5t24.5 -10.5t10.5 -24.5zM404 -103l19 -6q-22 -63 -72.5 -102t-123.5 -39q-78 0 -127.5 45t-49.5 113q0 50 27 88.5t65.5 62.5t77 44.5t65.5 44.5t27 53q0 27 -20 52l16 12
q7 -7 15.5 -25t8.5 -39q0 -33 -27 -60.5t-65.5 -48t-77 -43t-65.5 -59t-27 -82.5q0 -60 44 -100t113 -40q66 0 111.5 36t65.5 93z" />
    <glyph glyph-name="Agrave" unicode="&#xc0;" horiz-adv-x="660" 
d="M315 870h22l97 -130h-22zM580 0l-61 239h-361l-145 -239h-23l424 700h9l177 -700h-20zM412 659l-243 -402h345z" />
    <glyph glyph-name="Aacute" unicode="&#xc1;" horiz-adv-x="660" 
d="M580 0l-70 274h-331l-166 -274h-23l424 700h9l177 -700h-20zM412 659l-222 -367h315zM512 870h22l-97 -130h-22z" />
    <glyph glyph-name="Acircumflex" unicode="&#xc2;" horiz-adv-x="660" 
d="M580 0l-70 274h-331l-166 -274h-23l424 700h9l177 -700h-20zM412 659l-222 -367h315zM418 870h31l79 -130h-22l-72 118l-113 -118h-28z" />
    <glyph glyph-name="Atilde" unicode="&#xc3;" horiz-adv-x="660" 
d="M545 838l19 -3q-9 -72 -67 -72q-28 0 -75.5 29.5t-70.5 29.5q-41 0 -48 -57l-19 3q9 72 67 72q28 0 75.5 -29.5t70.5 -29.5q41 0 48 57zM580 0l-61 239h-361l-145 -239h-23l424 700h9l177 -700h-20zM412 659l-243 -402h345z" />
    <glyph glyph-name="Adieresis" unicode="&#xc4;" horiz-adv-x="660" 
d="M332 800q0 13 8.5 21.5t21.5 8.5t21.5 -8.5t8.5 -21.5t-8.5 -21.5t-21.5 -8.5t-21.5 8.5t-8.5 21.5zM472 800q0 13 8.5 21.5t21.5 8.5t21.5 -8.5t8.5 -21.5t-8.5 -21.5t-21.5 -8.5t-21.5 8.5t-8.5 21.5zM580 0l-61 239h-361l-145 -239h-23l424 700h9l177 -700h-20z
M412 659l-243 -402h345z" />
    <glyph glyph-name="Aring" unicode="&#xc5;" horiz-adv-x="660" 
d="M354 820q0 33 23.5 56.5t56.5 23.5t56.5 -23.5t23.5 -56.5t-23.5 -56.5t-56.5 -23.5t-56.5 23.5t-23.5 56.5zM372 820q0 -26 18 -44t44 -18t44 18t18 44t-18 44t-44 18t-44 -18t-18 -44zM580 0l-61 239h-361l-145 -239h-23l424 700h9l177 -700h-20zM412 659l-243 -402
h345z" />
    <glyph glyph-name="AE" unicode="&#xc6;" horiz-adv-x="883" 
d="M-20 0l560 700h373l-3 -18h-341l-50 -282h271l-3 -18h-271l-64 -364h351l-3 -18h-370l42 239h-277l-190 -239h-25zM210 257h265l74 422z" />
    <glyph glyph-name="Ccedilla" unicode="&#xc7;" horiz-adv-x="736" 
d="M315 -140l38 136q-125 21 -203 111.5t-78 222.5q0 100 45.5 186.5t130 140t189.5 53.5q168 0 279 -127l-14 -13q-104 122 -265 122q-99 0 -179 -51.5t-123 -134t-43 -176.5q0 -141 93 -231.5t234 -90.5q147 0 249 109l14 -13q-106 -114 -263 -114q-25 0 -47 3l-38 -133
h-19z" />
    <glyph glyph-name="Egrave" unicode="&#xc8;" horiz-adv-x="510" 
d="M57 0l123 700h360l-3 -18h-341l-50 -282h261l-3 -18h-261l-64 -364h351l-3 -18h-370zM272 870h22l97 -130h-22z" />
    <glyph glyph-name="Eacute" unicode="&#xc9;" horiz-adv-x="510" 
d="M57 0l123 700h360l-3 -18h-341l-50 -282h261l-3 -18h-261l-64 -364h351l-3 -18h-370zM438 870h22l-97 -130h-22z" />
    <glyph glyph-name="Ecircumflex" unicode="&#xca;" horiz-adv-x="510" 
d="M57 0l123 700h360l-3 -18h-341l-50 -282h261l-3 -18h-261l-64 -364h351l-3 -18h-370zM374 870h31l79 -130h-22l-72 118l-113 -118h-28z" />
    <glyph glyph-name="Edieresis" unicode="&#xcb;" horiz-adv-x="510" 
d="M57 0l123 700h360l-3 -18h-341l-50 -282h261l-3 -18h-261l-64 -364h351l-3 -18h-370zM272 800q0 13 8.5 21.5t21.5 8.5t21.5 -8.5t8.5 -21.5t-8.5 -21.5t-21.5 -8.5t-21.5 8.5t-8.5 21.5zM412 800q0 13 8.5 21.5t21.5 8.5t21.5 -8.5t8.5 -21.5t-8.5 -21.5t-21.5 -8.5
t-21.5 8.5t-8.5 21.5z" />
    <glyph glyph-name="Igrave" unicode="&#xcc;" horiz-adv-x="216" 
d="M199 700l-123 -700h-19l123 700h19zM87 870h22l97 -130h-22z" />
    <glyph glyph-name="Iacute" unicode="&#xcd;" horiz-adv-x="216" 
d="M199 700l-123 -700h-19l123 700h19zM276 870h22l-97 -130h-22z" />
    <glyph glyph-name="Icircumflex" unicode="&#xce;" horiz-adv-x="216" 
d="M199 700l-123 -700h-19l123 700h19zM199 870h31l79 -130h-22l-72 118l-113 -118h-28z" />
    <glyph glyph-name="Idieresis" unicode="&#xcf;" horiz-adv-x="216" 
d="M199 700l-123 -700h-19l123 700h19zM102 800q0 13 8.5 21.5t21.5 8.5t21.5 -8.5t8.5 -21.5t-8.5 -21.5t-21.5 -8.5t-21.5 8.5t-8.5 21.5zM242 800q0 13 8.5 21.5t21.5 8.5t21.5 -8.5t8.5 -21.5t-8.5 -21.5t-21.5 -8.5t-21.5 8.5t-8.5 21.5z" />
    <glyph glyph-name="Eth" unicode="&#xd0;" horiz-adv-x="736" 
d="M296 0h-239l67 382h-100l3 18h100l53 300h179q164 0 258 -94q87 -88 87 -236t-110 -260q-107 -110 -298 -110zM146 400h200l-3 -18h-200l-64 -364h217q182 0 285 106t103 246q0 141 -82 224q-88 88 -245 88h-161z" />
    <glyph glyph-name="Ntilde" unicode="&#xd1;" horiz-adv-x="746" 
d="M729 700l-123 -700h-9l-406 658l-115 -658h-19l123 700h9l405 -659l116 659h19zM583 838l19 -3q-9 -72 -67 -72q-28 0 -75.5 29.5t-70.5 29.5q-41 0 -48 -57l-19 3q9 72 67 72q28 0 75.5 -29.5t70.5 -29.5q41 0 48 57z" />
    <glyph glyph-name="Ograve" unicode="&#xd2;" horiz-adv-x="812" 
d="M406 8q143 0 246 105q50 52 79 119.5t29 137.5q0 141 -89 230q-44 45 -104 68.5t-121 23.5q-143 0 -246 -105q-50 -52 -79 -119.5t-29 -137.5q0 -141 89 -230q44 -45 104 -68.5t121 -23.5zM406 -10q-142 0 -239 97q-95 97 -95 243q0 73 30 143.5t83 125.5
q109 111 261 111q142 0 239 -97q95 -97 95 -243q0 -73 -30 -143.5t-83 -125.5q-109 -111 -261 -111zM380 870h22l97 -130h-22z" />
    <glyph glyph-name="Oacute" unicode="&#xd3;" horiz-adv-x="812" 
d="M406 8q143 0 246 105q50 52 79 119.5t29 137.5q0 141 -89 230q-44 45 -104 68.5t-121 23.5q-143 0 -246 -105q-50 -52 -79 -119.5t-29 -137.5q0 -141 89 -230q44 -45 104 -68.5t121 -23.5zM406 -10q-142 0 -239 97q-95 97 -95 243q0 73 30 143.5t83 125.5
q109 111 261 111q142 0 239 -97q95 -97 95 -243q0 -73 -30 -143.5t-83 -125.5q-109 -111 -261 -111zM546 870h22l-97 -130h-22z" />
    <glyph glyph-name="Ocircumflex" unicode="&#xd4;" horiz-adv-x="812" 
d="M406 8q143 0 246 105q50 52 79 119.5t29 137.5q0 141 -89 230q-44 45 -104 68.5t-121 23.5q-143 0 -246 -105q-50 -52 -79 -119.5t-29 -137.5q0 -141 89 -230q44 -45 104 -68.5t121 -23.5zM406 -10q-142 0 -239 97q-95 97 -95 243q0 73 30 143.5t83 125.5
q109 111 261 111q142 0 239 -97q95 -97 95 -243q0 -73 -30 -143.5t-83 -125.5q-109 -111 -261 -111zM488 870h31l79 -130h-22l-72 118l-113 -118h-28z" />
    <glyph glyph-name="Otilde" unicode="&#xd5;" horiz-adv-x="812" 
d="M406 8q143 0 246 105q50 52 79 119.5t29 137.5q0 141 -89 230q-44 45 -104 68.5t-121 23.5q-143 0 -246 -105q-50 -52 -79 -119.5t-29 -137.5q0 -141 89 -230q44 -45 104 -68.5t121 -23.5zM406 -10q-142 0 -239 97q-95 97 -95 243q0 73 30 143.5t83 125.5
q109 111 261 111q142 0 239 -97q95 -97 95 -243q0 -73 -30 -143.5t-83 -125.5q-109 -111 -261 -111zM603 838l19 -3q-9 -72 -67 -72q-28 0 -75.5 29.5t-70.5 29.5q-41 0 -48 -57l-19 3q9 72 67 72q28 0 75.5 -29.5t70.5 -29.5q41 0 48 57z" />
    <glyph glyph-name="Odieresis" unicode="&#xd6;" horiz-adv-x="812" 
d="M406 8q143 0 246 105q50 52 79 119.5t29 137.5q0 141 -89 230q-44 45 -104 68.5t-121 23.5q-143 0 -246 -105q-50 -52 -79 -119.5t-29 -137.5q0 -141 89 -230q44 -45 104 -68.5t121 -23.5zM406 -10q-142 0 -239 97q-95 97 -95 243q0 73 30 143.5t83 125.5
q109 111 261 111q142 0 239 -97q95 -97 95 -243q0 -73 -30 -143.5t-83 -125.5q-109 -111 -261 -111zM381 800q0 13 8.5 21.5t21.5 8.5t21.5 -8.5t8.5 -21.5t-8.5 -21.5t-21.5 -8.5t-21.5 8.5t-8.5 21.5zM521 800q0 13 8.5 21.5t21.5 8.5t21.5 -8.5t8.5 -21.5t-8.5 -21.5
t-21.5 -8.5t-21.5 8.5t-8.5 21.5z" />
    <glyph glyph-name="multiply" unicode="&#xd7;" horiz-adv-x="482" 
d="M430 429l12 -13l-186 -157l127 -157l-14 -11l-127 156l-185 -156l-12 13l186 157l-127 157l14 11l127 -157z" />
    <glyph glyph-name="Oslash" unicode="&#xd8;" horiz-adv-x="812" 
d="M168 -10h-25l53 71q-20 16 -29 26q-95 97 -95 243q0 73 30 143.5t83 125.5q109 111 261 111q108 0 193 -59l45 59h25l-53 -71q1 -1 29 -26q95 -97 95 -243q0 -73 -30 -143.5t-83 -125.5q-109 -111 -261 -111q-109 0 -194 59zM181 100q11 -12 26 -24l421 559
q-82 57 -182 57q-143 0 -246 -105q-50 -52 -79 -119.5t-29 -137.5q0 -141 89 -230zM406 8q143 0 246 105q50 52 79 119.5t29 137.5q0 141 -89 230q-3 2 -6.5 5.5l-6.5 6.5t-7 6t-7 6l-420 -560q82 -56 182 -56z" />
    <glyph glyph-name="Ugrave" unicode="&#xd9;" horiz-adv-x="727" 
d="M715 700l-77 -438q-48 -272 -296 -272q-103 0 -175 63.5t-72 159.5q0 26 9 75l72 412h19l-73 -415q-7 -44 -7 -70q0 -90 65.5 -148.5t161.5 -58.5q231 0 277 257l77 435h19zM358 870h22l97 -130h-22z" />
    <glyph glyph-name="Uacute" unicode="&#xda;" horiz-adv-x="727" 
d="M715 700l-77 -438q-48 -272 -296 -272q-103 0 -175 63.5t-72 159.5q0 26 9 75l72 412h19l-73 -415q-7 -44 -7 -70q0 -90 65.5 -148.5t161.5 -58.5q231 0 277 257l77 435h19zM496 870h22l-97 -130h-22z" />
    <glyph glyph-name="Ucircumflex" unicode="&#xdb;" horiz-adv-x="727" 
d="M715 700l-77 -438q-48 -272 -296 -272q-103 0 -175 63.5t-72 159.5q0 26 9 75l72 412h19l-73 -415q-7 -44 -7 -70q0 -90 65.5 -148.5t161.5 -58.5q231 0 277 257l77 435h19zM449 870h31l79 -130h-22l-72 118l-113 -118h-28z" />
    <glyph glyph-name="Udieresis" unicode="&#xdc;" horiz-adv-x="727" 
d="M715 700l-77 -438q-48 -272 -296 -272q-103 0 -175 63.5t-72 159.5q0 26 9 75l72 412h19l-73 -415q-7 -44 -7 -70q0 -90 65.5 -148.5t161.5 -58.5q231 0 277 257l77 435h19zM347 800q0 13 8.5 21.5t21.5 8.5t21.5 -8.5t8.5 -21.5t-8.5 -21.5t-21.5 -8.5t-21.5 8.5
t-8.5 21.5zM487 800q0 13 8.5 21.5t21.5 8.5t21.5 -8.5t8.5 -21.5t-8.5 -21.5t-21.5 -8.5t-21.5 8.5t-8.5 21.5z" />
    <glyph glyph-name="Yacute" unicode="&#xdd;" horiz-adv-x="525" 
d="M231 0h-19l60 345l-172 355h22l162 -333l280 333h26l-299 -356zM418 870h22l-97 -130h-22z" />
    <glyph glyph-name="Thorn" unicode="&#xde;" horiz-adv-x="581" 
d="M194 700l-32 -181h219q72 0 110 -29q61 -45 61 -128q0 -52 -28 -95t-74 -66q-40 -20 -110 -20h-237l-32 -181h-19l123 700h19zM381 501h-222l-53 -302h234q62 0 100 18q41 20 66.5 59.5t25.5 85.5q0 75 -54 114q-36 25 -97 25z" />
    <glyph glyph-name="germandbls" unicode="&#xdf;" horiz-adv-x="561" 
d="M146 23l12 15q40 -30 120 -30q89 0 151 63t62 157q0 50 -23 95t-66 68q-35 19 -99 19h-24l3 18h27q60 0 93 14q75 34 75 124q0 55 -38.5 95.5t-104.5 40.5q-62 0 -108 -39q-46 -38 -61 -128l-94 -535h-19l94 535q17 99 68 142q52 43 120 43q71 0 117 -44.5t46 -109.5
q0 -51 -28.5 -93t-80.5 -56q54 -18 88.5 -71.5t34.5 -117.5q0 -99 -66.5 -168.5t-166.5 -69.5q-87 0 -132 33z" />
    <glyph glyph-name="agrave" unicode="&#xe0;" horiz-adv-x="568" 
d="M252 640h22l97 -130h-22zM490 430h19l-76 -430h-19l11 63q-29 -32 -72.5 -52.5t-91.5 -20.5q-93 0 -154.5 61.5t-61.5 152.5q0 100 70.5 168t172.5 68q60 0 108.5 -28t78.5 -71zM261 8q49 0 93.5 22.5t74.5 60.5l41 229q-28 44 -74.5 73t-107.5 29q-93 0 -158 -63
t-65 -155q0 -84 55.5 -140t140.5 -56z" />
    <glyph glyph-name="aacute" unicode="&#xe1;" horiz-adv-x="568" 
d="M391 640h22l-97 -130h-22zM490 430h19l-76 -430h-19l11 63q-29 -32 -72.5 -52.5t-91.5 -20.5q-93 0 -154.5 61.5t-61.5 152.5q0 100 70.5 168t172.5 68q60 0 108.5 -28t78.5 -71zM261 8q49 0 93.5 22.5t74.5 60.5l41 229q-28 44 -74.5 73t-107.5 29q-93 0 -158 -63
t-65 -155q0 -84 55.5 -140t140.5 -56z" />
    <glyph glyph-name="acircumflex" unicode="&#xe2;" horiz-adv-x="568" 
d="M334 640h31l79 -130h-22l-72 118l-113 -118h-28zM490 430h19l-76 -430h-19l11 63q-29 -32 -72.5 -52.5t-91.5 -20.5q-93 0 -154.5 61.5t-61.5 152.5q0 100 70.5 168t172.5 68q60 0 108.5 -28t78.5 -71zM261 8q49 0 93.5 22.5t74.5 60.5l41 229q-28 44 -74.5 73t-107.5 29
q-93 0 -158 -63t-65 -155q0 -84 55.5 -140t140.5 -56z" />
    <glyph glyph-name="atilde" unicode="&#xe3;" horiz-adv-x="568" 
d="M458 608l19 -3q-9 -72 -67 -72q-28 0 -75.5 29.5t-70.5 29.5q-41 0 -48 -57l-19 3q9 72 67 72q28 0 75.5 -29.5t70.5 -29.5q41 0 48 57zM490 430h19l-76 -430h-19l11 63q-29 -32 -72.5 -52.5t-91.5 -20.5q-93 0 -154.5 61.5t-61.5 152.5q0 100 70.5 168t172.5 68
q60 0 108.5 -28t78.5 -71zM261 8q49 0 93.5 22.5t74.5 60.5l41 229q-28 44 -74.5 73t-107.5 29q-93 0 -158 -63t-65 -155q0 -84 55.5 -140t140.5 -56z" />
    <glyph glyph-name="adieresis" unicode="&#xe4;" horiz-adv-x="568" 
d="M237 570q0 13 8.5 21.5t21.5 8.5t21.5 -8.5t8.5 -21.5t-8.5 -21.5t-21.5 -8.5t-21.5 8.5t-8.5 21.5zM377 570q0 13 8.5 21.5t21.5 8.5t21.5 -8.5t8.5 -21.5t-8.5 -21.5t-21.5 -8.5t-21.5 8.5t-8.5 21.5zM490 430h19l-76 -430h-19l11 63q-29 -32 -72.5 -52.5t-91.5 -20.5
q-93 0 -154.5 61.5t-61.5 152.5q0 100 70.5 168t172.5 68q60 0 108.5 -28t78.5 -71zM261 8q49 0 93.5 22.5t74.5 60.5l41 229q-28 44 -74.5 73t-107.5 29q-93 0 -158 -63t-65 -155q0 -84 55.5 -140t140.5 -56z" />
    <glyph glyph-name="aring" unicode="&#xe5;" horiz-adv-x="568" 
d="M267 590q0 33 23.5 56.5t56.5 23.5t56.5 -23.5t23.5 -56.5t-23.5 -56.5t-56.5 -23.5t-56.5 23.5t-23.5 56.5zM285 590q0 -26 18.5 -44t43.5 -18t43.5 18t18.5 44t-18.5 44t-43.5 18t-43.5 -18t-18.5 -44zM490 430h19l-76 -430h-19l11 63q-29 -32 -72.5 -52.5t-91.5 -20.5
q-93 0 -154.5 61.5t-61.5 152.5q0 100 70.5 168t172.5 68q60 0 108.5 -28t78.5 -71zM261 8q49 0 93.5 22.5t74.5 60.5l41 229q-28 44 -74.5 73t-107.5 29q-93 0 -158 -63t-65 -155q0 -84 55.5 -140t140.5 -56z" />
    <glyph glyph-name="ae" unicode="&#xe6;" horiz-adv-x="913" 
d="M817 72l13 -15q-67 -67 -163 -67q-117 0 -177 85q-24 33 -31 72l-26 -147h-19l11 63q-29 -32 -72.5 -52.5t-91.5 -20.5q-93 0 -154.5 61.5t-61.5 152.5q0 100 70.5 168t172.5 68q60 0 108.5 -28t78.5 -71l15 89h19l-17 -93q30 48 77 75.5t103 27.5q80 0 135.5 -53.5
t55.5 -135.5q0 -15 -1 -23h-388q-1 -9 -1 -29q0 -63 33 -112q55 -79 160 -79q89 0 151 64zM261 8q49 0 93.5 22.5t74.5 60.5l41 229q-28 44 -74.5 73t-107.5 29q-93 0 -158 -63t-65 -155q0 -84 55.5 -140t140.5 -56zM672 422q-73 0 -126.5 -50t-68.5 -126h366
q0 79 -49.5 127.5t-121.5 48.5z" />
    <glyph glyph-name="ccedilla" unicode="&#xe7;" horiz-adv-x="505" 
d="M422 74l13 -14q-68 -70 -168 -70h-11l-37 -130h-19l38 132q-81 9 -137 65.5t-56 141.5q0 101 69 171t171 70q52 0 98.5 -22t76.5 -60l-14 -12q-27 35 -69.5 55.5t-91.5 20.5q-93 0 -156.5 -65.5t-63.5 -157.5q0 -80 59.5 -135.5t142.5 -55.5q94 0 155 66z" />
    <glyph glyph-name="egrave" unicode="&#xe8;" horiz-adv-x="505" 
d="M215 640h22l97 -130h-22zM264 422q-73 0 -126.5 -50t-68.5 -126h366q0 79 -49.5 127.5t-121.5 48.5zM409 72l13 -15q-67 -67 -163 -67q-117 0 -177 85q-37 52 -37 124q0 101 63 171t156 70q80 0 135.5 -53.5t55.5 -135.5q0 -15 -1 -23h-388q-1 -9 -1 -29q0 -63 33 -112
q55 -79 160 -79q89 0 151 64z" />
    <glyph glyph-name="eacute" unicode="&#xe9;" horiz-adv-x="505" 
d="M361 640h22l-97 -130h-22zM264 422q-73 0 -126.5 -50t-68.5 -126h366q0 79 -49.5 127.5t-121.5 48.5zM409 72l13 -15q-67 -67 -163 -67q-117 0 -177 85q-37 52 -37 124q0 101 63 171t156 70q80 0 135.5 -53.5t55.5 -135.5q0 -15 -1 -23h-388q-1 -9 -1 -29q0 -63 33 -112
q55 -79 160 -79q89 0 151 64z" />
    <glyph glyph-name="ecircumflex" unicode="&#xea;" horiz-adv-x="505" 
d="M299 640h31l79 -130h-22l-72 118l-113 -118h-28zM264 422q-73 0 -126.5 -50t-68.5 -126h366q0 79 -49.5 127.5t-121.5 48.5zM409 72l13 -15q-67 -67 -163 -67q-117 0 -177 85q-37 52 -37 124q0 101 63 171t156 70q80 0 135.5 -53.5t55.5 -135.5q0 -15 -1 -23h-388
q-1 -9 -1 -29q0 -63 33 -112q55 -79 160 -79q89 0 151 64z" />
    <glyph glyph-name="edieresis" unicode="&#xeb;" horiz-adv-x="505" 
d="M202 570q0 13 8.5 21.5t21.5 8.5t21.5 -8.5t8.5 -21.5t-8.5 -21.5t-21.5 -8.5t-21.5 8.5t-8.5 21.5zM342 570q0 13 8.5 21.5t21.5 8.5t21.5 -8.5t8.5 -21.5t-8.5 -21.5t-21.5 -8.5t-21.5 8.5t-8.5 21.5zM264 422q-73 0 -126.5 -50t-68.5 -126h366q0 79 -49.5 127.5
t-121.5 48.5zM409 72l13 -15q-67 -67 -163 -67q-117 0 -177 85q-37 52 -37 124q0 101 63 171t156 70q80 0 135.5 -53.5t55.5 -135.5q0 -15 -1 -23h-388q-1 -9 -1 -29q0 -63 33 -112q55 -79 160 -79q89 0 151 64z" />
    <glyph glyph-name="igrave" unicode="&#xec;" horiz-adv-x="206" 
d="M128 430h19l-76 -430h-19zM40 640h22l97 -130h-22z" />
    <glyph glyph-name="iacute" unicode="&#xed;" horiz-adv-x="206" 
d="M128 430h19l-76 -430h-19zM230 640h22l-97 -130h-22z" />
    <glyph glyph-name="icircumflex" unicode="&#xee;" horiz-adv-x="206" 
d="M128 430h19l-76 -430h-19zM151 640h31l79 -130h-22l-72 118l-113 -118h-28z" />
    <glyph glyph-name="idieresis" unicode="&#xef;" horiz-adv-x="206" 
d="M127 430h19l-76 -430h-19zM56 570q0 13 8.5 21.5t21.5 8.5t21.5 -8.5t8.5 -21.5t-8.5 -21.5t-21.5 -8.5t-21.5 8.5t-8.5 21.5zM196 570q0 13 8.5 21.5t21.5 8.5t21.5 -8.5t8.5 -21.5t-8.5 -21.5t-21.5 -8.5t-21.5 8.5t-8.5 21.5z" />
    <glyph glyph-name="eth" unicode="&#xf0;" horiz-adv-x="554" 
d="M504 226q0 -99 -71 -167.5t-170 -68.5q-94 0 -156 61.5t-62 152.5q0 99 71 167.5t170 68.5q83 0 140 -42l-100 216l-122 -64l-9 15l123 65l-36 80h22l32 -70l114 60l9 -16l-115 -60l128 -277q32 -69 32 -121zM484 226q0 47 -27 106l-11 23q-62 67 -160 67
q-90 0 -155.5 -63.5t-65.5 -154.5q0 -83 57 -139.5t141 -56.5q90 0 155.5 63.5t65.5 154.5z" />
    <glyph glyph-name="ntilde" unicode="&#xf1;" horiz-adv-x="560" 
d="M465 608l19 -3q-9 -72 -67 -72q-28 0 -75.5 29.5t-70.5 29.5q-41 0 -48 -57l-19 3q9 72 67 72q28 0 75.5 -29.5t70.5 -29.5q41 0 48 57zM440 0h-19l38 214q7 42 7 62q0 56 -31 95q-40 51 -114 51q-115 0 -196 -118l-54 -304h-19l76 430h19l-15 -88q34 43 84.5 70.5
t104.5 27.5q83 0 130 -58q34 -44 34 -105q0 -18 -9 -74z" />
    <glyph glyph-name="ograve" unicode="&#xf2;" horiz-adv-x="554" 
d="M263 8q90 0 155.5 63.5t65.5 154.5q0 83 -57 139.5t-141 56.5q-90 0 -155.5 -63.5t-65.5 -154.5q0 -83 57 -139.5t141 -56.5zM263 -10q-94 0 -156 61.5t-62 152.5q0 99 71 167.5t170 68.5q94 0 156 -61.5t62 -152.5q0 -99 -71 -167.5t-170 -68.5zM216 640h22l97 -130h-22
z" />
    <glyph glyph-name="oacute" unicode="&#xf3;" horiz-adv-x="554" 
d="M263 8q90 0 155.5 63.5t65.5 154.5q0 83 -57 139.5t-141 56.5q-90 0 -155.5 -63.5t-65.5 -154.5q0 -83 57 -139.5t141 -56.5zM263 -10q-94 0 -156 61.5t-62 152.5q0 99 71 167.5t170 68.5q94 0 156 -61.5t62 -152.5q0 -99 -71 -167.5t-170 -68.5zM370 640h22l-97 -130
h-22z" />
    <glyph glyph-name="ocircumflex" unicode="&#xf4;" horiz-adv-x="554" 
d="M263 8q90 0 155.5 63.5t65.5 154.5q0 83 -57 139.5t-141 56.5q-90 0 -155.5 -63.5t-65.5 -154.5q0 -83 57 -139.5t141 -56.5zM263 -10q-94 0 -156 61.5t-62 152.5q0 99 71 167.5t170 68.5q94 0 156 -61.5t62 -152.5q0 -99 -71 -167.5t-170 -68.5zM310 640h31l79 -130h-22
l-72 118l-113 -118h-28z" />
    <glyph glyph-name="otilde" unicode="&#xf5;" horiz-adv-x="554" 
d="M263 8q90 0 155.5 63.5t65.5 154.5q0 83 -57 139.5t-141 56.5q-90 0 -155.5 -63.5t-65.5 -154.5q0 -83 57 -139.5t141 -56.5zM263 -10q-94 0 -156 61.5t-62 152.5q0 99 71 167.5t170 68.5q94 0 156 -61.5t62 -152.5q0 -99 -71 -167.5t-170 -68.5zM444 608l19 -3
q-9 -72 -67 -72q-28 0 -75.5 29.5t-70.5 29.5q-41 0 -48 -57l-19 3q9 72 67 72q28 0 75.5 -29.5t70.5 -29.5q41 0 48 57z" />
    <glyph glyph-name="odieresis" unicode="&#xf6;" horiz-adv-x="554" 
d="M263 8q90 0 155.5 63.5t65.5 154.5q0 83 -57 139.5t-141 56.5q-90 0 -155.5 -63.5t-65.5 -154.5q0 -83 57 -139.5t141 -56.5zM263 -10q-94 0 -156 61.5t-62 152.5q0 99 71 167.5t170 68.5q94 0 156 -61.5t62 -152.5q0 -99 -71 -167.5t-170 -68.5zM213 570q0 13 8.5 21.5
t21.5 8.5t21.5 -8.5t8.5 -21.5t-8.5 -21.5t-21.5 -8.5t-21.5 8.5t-8.5 21.5zM353 570q0 13 8.5 21.5t21.5 8.5t21.5 -8.5t8.5 -21.5t-8.5 -21.5t-21.5 -8.5t-21.5 8.5t-8.5 21.5z" />
    <glyph glyph-name="divide" unicode="&#xf7;" horiz-adv-x="523" 
d="M201 85q0 14 10.5 24.5t24.5 10.5t24.5 -10.5t10.5 -24.5t-10.5 -24.5t-24.5 -10.5t-24.5 10.5t-10.5 24.5zM263 435q0 14 10.5 24.5t24.5 10.5t24.5 -10.5t10.5 -24.5t-10.5 -24.5t-24.5 -10.5t-24.5 10.5t-10.5 24.5zM465 251h-400l3 18h400z" />
    <glyph glyph-name="oslash" unicode="&#xf8;" horiz-adv-x="554" 
d="M119 -10h-25l33 44q-82 63 -82 170q0 99 71 167.5t170 68.5q67 0 119 -33l25 33h25l-33 -44q82 -63 82 -170q0 -99 -71 -167.5t-170 -68.5q-68 0 -120 32zM65 204q0 -98 74 -154l255 342q-49 30 -108 30q-90 0 -155.5 -63.5t-65.5 -154.5zM263 8q90 0 155.5 63.5
t65.5 154.5q0 95 -74 154l-255 -342q47 -30 108 -30z" />
    <glyph glyph-name="ugrave" unicode="&#xf9;" horiz-adv-x="559" 
d="M216 640h22l97 -130h-22zM118 430h19l-38 -214q-7 -42 -7 -62q0 -56 31 -95q40 -51 112 -51q55 0 105 32t87 86l54 304h19l-76 -430h-19l15 88q-35 -43 -84 -70.5t-101 -27.5q-81 0 -128 58q-34 44 -34 105q0 18 9 74z" />
    <glyph glyph-name="uacute" unicode="&#xfa;" horiz-adv-x="559" 
d="M379 640h22l-97 -130h-22zM118 430h19l-38 -214q-7 -42 -7 -62q0 -56 31 -95q40 -51 112 -51q55 0 105 32t87 86l54 304h19l-76 -430h-19l15 88q-35 -43 -84 -70.5t-101 -27.5q-81 0 -128 58q-34 44 -34 105q0 18 9 74z" />
    <glyph glyph-name="ucircumflex" unicode="&#xfb;" horiz-adv-x="559" 
d="M320 640h31l79 -130h-22l-72 118l-113 -118h-28zM118 430h19l-38 -214q-7 -42 -7 -62q0 -56 31 -95q40 -51 112 -51q55 0 105 32t87 86l54 304h19l-76 -430h-19l15 88q-35 -43 -84 -70.5t-101 -27.5q-81 0 -128 58q-34 44 -34 105q0 18 9 74z" />
    <glyph glyph-name="udieresis" unicode="&#xfc;" horiz-adv-x="559" 
d="M220 570q0 13 8.5 21.5t21.5 8.5t21.5 -8.5t8.5 -21.5t-8.5 -21.5t-21.5 -8.5t-21.5 8.5t-8.5 21.5zM360 570q0 13 8.5 21.5t21.5 8.5t21.5 -8.5t8.5 -21.5t-8.5 -21.5t-21.5 -8.5t-21.5 8.5t-8.5 21.5zM118 430h19l-38 -214q-7 -42 -7 -62q0 -56 31 -95q40 -51 112 -51
q55 0 105 32t87 86l54 304h19l-76 -430h-19l15 88q-35 -43 -84 -70.5t-101 -27.5q-81 0 -128 58q-34 44 -34 105q0 18 9 74z" />
    <glyph glyph-name="yacute" unicode="&#xfd;" horiz-adv-x="468" 
d="M449 430h24l-434 -672h-24l182 282l-150 390h20l144 -369zM346 640h22l-97 -130h-22z" />
    <glyph glyph-name="thorn" unicode="&#xfe;" horiz-adv-x="566" 
d="M29 -240h-19l167 950h19l-60 -343q29 32 72.5 52.5t91.5 20.5q93 0 154.5 -61.5t61.5 -152.5q0 -100 -70.5 -168t-172.5 -68q-60 0 -108.5 28t-78.5 71zM300 422q-49 0 -93.5 -22.5t-74.5 -60.5l-41 -229q28 -44 74.5 -73t107.5 -29q93 0 158 63t65 155q0 84 -55.5 140
t-140.5 56z" />
    <glyph glyph-name="ydieresis" unicode="&#xff;" horiz-adv-x="468" 
d="M449 430h24l-434 -672h-24l182 282l-150 390h20l144 -369zM192 570q0 13 8.5 21.5t21.5 8.5t21.5 -8.5t8.5 -21.5t-8.5 -21.5t-21.5 -8.5t-21.5 8.5t-8.5 21.5zM332 570q0 13 8.5 21.5t21.5 8.5t21.5 -8.5t8.5 -21.5t-8.5 -21.5t-21.5 -8.5t-21.5 8.5t-8.5 21.5z" />
    <glyph glyph-name="Amacron" unicode="&#x100;" horiz-adv-x="660" 
d="M310 801h240v-18h-240v18zM580 0l-61 239h-361l-145 -239h-23l424 700h9l177 -700h-20zM412 659l-243 -402h345z" />
    <glyph glyph-name="amacron" unicode="&#x101;" horiz-adv-x="568" 
d="M219 571h240v-18h-240v18zM490 430h19l-76 -430h-19l11 63q-29 -32 -72.5 -52.5t-91.5 -20.5q-93 0 -154.5 61.5t-61.5 152.5q0 100 70.5 168t172.5 68q60 0 108.5 -28t78.5 -71zM261 8q49 0 93.5 22.5t74.5 60.5l41 229q-28 44 -74.5 73t-107.5 29q-93 0 -158 -63
t-65 -155q0 -84 55.5 -140t140.5 -56z" />
    <glyph glyph-name="Abreve" unicode="&#x102;" horiz-adv-x="660" 
d="M527 865h18q0 -47 -34 -81t-81 -34t-81 34t-34 81h18q0 -41 28.5 -69t68.5 -28t68.5 28t28.5 69zM580 0l-61 239h-361l-145 -239h-23l424 700h9l177 -700h-20zM412 659l-243 -402h345z" />
    <glyph glyph-name="abreve" unicode="&#x103;" horiz-adv-x="568" 
d="M461 635h18q0 -47 -34 -81t-81 -34t-81 34t-34 81h18q0 -41 28.5 -69t68.5 -28t68.5 28t28.5 69zM490 430h19l-76 -430h-19l11 63q-29 -32 -72.5 -52.5t-91.5 -20.5q-93 0 -154.5 61.5t-61.5 152.5q0 100 70.5 168t172.5 68q60 0 108.5 -28t78.5 -71zM261 8
q49 0 93.5 22.5t74.5 60.5l41 229q-28 44 -74.5 73t-107.5 29q-93 0 -158 -63t-65 -155q0 -84 55.5 -140t140.5 -56z" />
    <glyph glyph-name="Aogonek" unicode="&#x104;" horiz-adv-x="660" 
d="M423 700l177 -700q-32 -51 -32 -105q0 -43 22 -70t61 -27q26 0 42 8l5 -17q-18 -9 -45 -9q-50 0 -77.5 31.5t-27.5 81.5q0 52 31 108l-60 238h-361l-145 -239h-23l424 700h9zM412 659l-243 -402h345z" />
    <glyph glyph-name="aogonek" unicode="&#x105;" horiz-adv-x="568" 
d="M490 430h19l-76 -430q-32 -51 -32 -105q0 -43 22 -70t61 -27q26 0 42 8l5 -17q-18 -9 -45 -9q-50 0 -77.5 31.5t-27.5 81.5q0 61 34 112l10 58q-29 -32 -72.5 -52.5t-91.5 -20.5q-93 0 -154.5 61.5t-61.5 152.5q0 100 70.5 168t172.5 68q60 0 108.5 -28t78.5 -71zM261 8
q49 0 93.5 22.5t74.5 60.5l41 229q-28 44 -74.5 73t-107.5 29q-93 0 -158 -63t-65 -155q0 -84 55.5 -140t140.5 -56z" />
    <glyph glyph-name="Cacute" unicode="&#x106;" horiz-adv-x="736" 
d="M92 330q0 -141 93 -231.5t234 -90.5q147 0 249 109l14 -13q-106 -114 -263 -114q-149 0 -248 95.5t-99 244.5q0 100 45.5 186.5t130 140t189.5 53.5q168 0 279 -127l-14 -13q-104 122 -265 122q-99 0 -179 -51.5t-123 -134t-43 -176.5zM571 870h22l-97 -130h-22z" />
    <glyph glyph-name="cacute" unicode="&#x107;" horiz-adv-x="505" 
d="M383 640h22l-97 -130h-22zM422 74l13 -14q-68 -70 -168 -70q-89 0 -155.5 58.5t-66.5 150.5q0 101 69 171t171 70q52 0 98.5 -22t76.5 -60l-14 -12q-27 35 -69.5 55.5t-91.5 20.5q-93 0 -156.5 -65.5t-63.5 -157.5q0 -80 59.5 -135.5t142.5 -55.5q94 0 155 66z" />
    <glyph glyph-name="Ccircumflex" unicode="&#x108;" horiz-adv-x="736" 
d="M92 330q0 -141 93 -231.5t234 -90.5q147 0 249 109l14 -13q-106 -114 -263 -114q-149 0 -248 95.5t-99 244.5q0 100 45.5 186.5t130 140t189.5 53.5q168 0 279 -127l-14 -13q-104 122 -265 122q-99 0 -179 -51.5t-123 -134t-43 -176.5zM490 870h31l79 -130h-22l-72 118
l-113 -118h-28z" />
    <glyph glyph-name="ccircumflex" unicode="&#x109;" horiz-adv-x="505" 
d="M331 640h31l79 -130h-22l-72 118l-113 -118h-28zM422 74l13 -14q-68 -70 -168 -70q-89 0 -155.5 58.5t-66.5 150.5q0 101 69 171t171 70q52 0 98.5 -22t76.5 -60l-14 -12q-27 35 -69.5 55.5t-91.5 20.5q-93 0 -156.5 -65.5t-63.5 -157.5q0 -80 59.5 -135.5t142.5 -55.5
q94 0 155 66z" />
    <glyph glyph-name="Cdotaccent" unicode="&#x10a;" horiz-adv-x="736" 
d="M92 330q0 -141 93 -231.5t234 -90.5q147 0 249 109l14 -13q-106 -114 -263 -114q-149 0 -248 95.5t-99 244.5q0 100 45.5 186.5t130 140t189.5 53.5q168 0 279 -127l-14 -13q-104 122 -265 122q-99 0 -179 -51.5t-123 -134t-43 -176.5zM475 820q0 13 8.5 21.5t21.5 8.5
t21.5 -8.5t8.5 -21.5t-8.5 -21.5t-21.5 -8.5t-21.5 8.5t-8.5 21.5z" />
    <glyph glyph-name="cdotaccent" unicode="&#x10b;" horiz-adv-x="505" 
d="M295 590q0 13 8.5 21.5t21.5 8.5t21.5 -8.5t8.5 -21.5t-8.5 -21.5t-21.5 -8.5t-21.5 8.5t-8.5 21.5zM422 74l13 -14q-68 -70 -168 -70q-89 0 -155.5 58.5t-66.5 150.5q0 101 69 171t171 70q52 0 98.5 -22t76.5 -60l-14 -12q-27 35 -69.5 55.5t-91.5 20.5
q-93 0 -156.5 -65.5t-63.5 -157.5q0 -80 59.5 -135.5t142.5 -55.5q94 0 155 66z" />
    <glyph glyph-name="Ccaron" unicode="&#x10c;" horiz-adv-x="736" 
d="M92 330q0 -141 93 -231.5t234 -90.5q147 0 249 109l14 -13q-106 -114 -263 -114q-149 0 -248 95.5t-99 244.5q0 100 45.5 186.5t130 140t189.5 53.5q168 0 279 -127l-14 -13q-104 122 -265 122q-99 0 -179 -51.5t-123 -134t-43 -176.5zM499 750h-31l-79 130h22l72 -118
l113 118h28z" />
    <glyph glyph-name="ccaron" unicode="&#x10d;" horiz-adv-x="505" 
d="M338 520h-31l-79 130h22l72 -118l113 118h28zM422 74l13 -14q-68 -70 -168 -70q-89 0 -155.5 58.5t-66.5 150.5q0 101 69 171t171 70q52 0 98.5 -22t76.5 -60l-14 -12q-27 35 -69.5 55.5t-91.5 20.5q-93 0 -156.5 -65.5t-63.5 -157.5q0 -80 59.5 -135.5t142.5 -55.5
q94 0 155 66z" />
    <glyph glyph-name="Dcaron" unicode="&#x10e;" horiz-adv-x="736" 
d="M296 0h-239l123 700h179q164 0 258 -94q87 -88 87 -236t-110 -260q-107 -110 -298 -110zM79 18h217q182 0 285 106t103 246q0 141 -82 224q-88 88 -245 88h-161zM417 750h-31l-79 130h22l72 -118l113 118h28z" />
    <glyph glyph-name="dcaron" unicode="&#x10f;" horiz-adv-x="618" 
d="M671 700h22l-97 -130h-22zM539 710h19l-125 -710h-19l11 63q-29 -32 -72.5 -52.5t-91.5 -20.5q-93 0 -154.5 61.5t-61.5 152.5q0 100 70.5 168t172.5 68q60 0 108.5 -28t78.5 -71zM261 8q49 0 93.5 22.5t74.5 60.5l41 229q-28 44 -74.5 73t-107.5 29q-93 0 -158 -63
t-65 -155q0 -84 55.5 -140t140.5 -56z" />
    <glyph glyph-name="Dcroat" unicode="&#x110;" horiz-adv-x="736" 
d="M296 0h-239l67 382h-100l3 18h100l53 300h179q164 0 258 -94q87 -88 87 -236t-110 -260q-107 -110 -298 -110zM146 400h200l-3 -18h-200l-64 -364h217q182 0 285 106t103 246q0 141 -82 224q-88 88 -245 88h-161z" />
    <glyph glyph-name="dcroat" unicode="&#x111;" horiz-adv-x="568" 
d="M539 710h19l-23 -130h90l-3 -18h-90l-99 -562h-19l11 63q-29 -32 -72.5 -52.5t-91.5 -20.5q-93 0 -154.5 61.5t-61.5 152.5q0 100 70.5 168t172.5 68q60 0 108.5 -28t78.5 -71l38 221h-131l3 18h131zM261 8q49 0 93.5 22.5t74.5 60.5l41 229q-28 44 -74.5 73t-107.5 29
q-93 0 -158 -63t-65 -155q0 -84 55.5 -140t140.5 -56z" />
    <glyph glyph-name="Emacron" unicode="&#x112;" horiz-adv-x="510" 
d="M57 0l123 700h360l-3 -18h-341l-50 -282h261l-3 -18h-261l-64 -364h351l-3 -18h-370zM258 801h240v-18h-240v18z" />
    <glyph glyph-name="emacron" unicode="&#x113;" horiz-adv-x="505" 
d="M187 571h240v-18h-240v18zM264 422q-73 0 -126.5 -50t-68.5 -126h366q0 79 -49.5 127.5t-121.5 48.5zM409 72l13 -15q-67 -67 -163 -67q-117 0 -177 85q-37 52 -37 124q0 101 63 171t156 70q80 0 135.5 -53.5t55.5 -135.5q0 -15 -1 -23h-388q-1 -9 -1 -29q0 -63 33 -112
q55 -79 160 -79q89 0 151 64z" />
    <glyph glyph-name="Ebreve" unicode="&#x114;" horiz-adv-x="510" 
d="M57 0l123 700h360l-3 -18h-341l-50 -282h261l-3 -18h-261l-64 -364h351l-3 -18h-370zM487 865h18q0 -47 -34 -81t-81 -34t-81 34t-34 81h18q0 -41 28.5 -69t68.5 -28t68.5 28t28.5 69z" />
    <glyph glyph-name="ebreve" unicode="&#x115;" horiz-adv-x="505" 
d="M413 635h18q0 -47 -34 -81t-81 -34t-81 34t-34 81h18q0 -41 28.5 -69t68.5 -28t68.5 28t28.5 69zM264 422q-73 0 -126.5 -50t-68.5 -126h366q0 79 -49.5 127.5t-121.5 48.5zM409 72l13 -15q-67 -67 -163 -67q-117 0 -177 85q-37 52 -37 124q0 101 63 171t156 70
q80 0 135.5 -53.5t55.5 -135.5q0 -15 -1 -23h-388q-1 -9 -1 -29q0 -63 33 -112q55 -79 160 -79q89 0 151 64z" />
    <glyph glyph-name="Edotaccent" unicode="&#x116;" horiz-adv-x="510" 
d="M57 0l123 700h360l-3 -18h-341l-50 -282h261l-3 -18h-261l-64 -364h351l-3 -18h-370zM333 820q0 13 8.5 21.5t21.5 8.5t21.5 -8.5t8.5 -21.5t-8.5 -21.5t-21.5 -8.5t-21.5 8.5t-8.5 21.5z" />
    <glyph glyph-name="edotaccent" unicode="&#x117;" horiz-adv-x="505" 
d="M282 590q0 13 8.5 21.5t21.5 8.5t21.5 -8.5t8.5 -21.5t-8.5 -21.5t-21.5 -8.5t-21.5 8.5t-8.5 21.5zM264 422q-73 0 -126.5 -50t-68.5 -126h366q0 79 -49.5 127.5t-121.5 48.5zM409 72l13 -15q-67 -67 -163 -67q-117 0 -177 85q-37 52 -37 124q0 101 63 171t156 70
q80 0 135.5 -53.5t55.5 -135.5q0 -15 -1 -23h-388q-1 -9 -1 -29q0 -63 33 -112q55 -79 160 -79q89 0 151 64z" />
    <glyph glyph-name="Eogonek" unicode="&#x118;" horiz-adv-x="510" 
d="M57 0l123 700h360l-3 -18h-341l-50 -282h261l-3 -18h-261l-64 -364h351l-3 -18h-150q-32 -51 -32 -105q0 -43 22 -70t61 -27q26 0 42 8l5 -17q-18 -9 -45 -9q-50 0 -77.5 31.5t-27.5 81.5q0 53 31 107h-199z" />
    <glyph glyph-name="eogonek" unicode="&#x119;" horiz-adv-x="505" 
d="M409 72l13 -15q-46 -46 -105 -60q-30 -50 -30 -102q0 -43 22 -70t61 -27q26 0 42 8l5 -17q-18 -9 -45 -9q-50 0 -77.5 31.5t-27.5 81.5q0 48 27 100q-16 -3 -35 -3q-117 0 -177 85q-37 52 -37 124q0 101 63 171t156 70q80 0 135.5 -53.5t55.5 -135.5q0 -15 -1 -23h-388
q-1 -9 -1 -29q0 -63 33 -112q55 -79 160 -79q89 0 151 64zM264 422q-73 0 -126.5 -50t-68.5 -126h366q0 79 -49.5 127.5t-121.5 48.5z" />
    <glyph glyph-name="Ecaron" unicode="&#x11a;" horiz-adv-x="510" 
d="M57 0l123 700h360l-3 -18h-341l-50 -282h261l-3 -18h-261l-64 -364h351l-3 -18h-370zM379 750h-31l-79 130h22l72 -118l113 118h28z" />
    <glyph glyph-name="ecaron" unicode="&#x11b;" horiz-adv-x="505" 
d="M313 520h-31l-79 130h22l72 -118l113 118h28zM264 422q-73 0 -126.5 -50t-68.5 -126h366q0 79 -49.5 127.5t-121.5 48.5zM409 72l13 -15q-67 -67 -163 -67q-117 0 -177 85q-37 52 -37 124q0 101 63 171t156 70q80 0 135.5 -53.5t55.5 -135.5q0 -15 -1 -23h-388
q-1 -9 -1 -29q0 -63 33 -112q55 -79 160 -79q89 0 151 64z" />
    <glyph glyph-name="Gcircumflex" unicode="&#x11c;" horiz-adv-x="784" 
d="M716 583l-14 -13q-104 122 -265 122q-99 0 -179 -51.5t-123 -134t-43 -176.5q0 -141 93 -231.5t234 -90.5q145 0 245 103l48 271h-261l3 18h280l-52 -296q-49 -53 -118 -83.5t-145 -30.5q-149 0 -248 95.5t-99 244.5q0 100 45.5 186.5t130 140t189.5 53.5q168 0 279 -127
zM490 870h31l79 -130h-22l-72 118l-113 -118h-28z" />
    <glyph glyph-name="gcircumflex" unicode="&#x11d;" horiz-adv-x="568" 
d="M334 640h31l79 -130h-22l-72 118l-113 -118h-28zM408 -31l17 94q-29 -32 -72.5 -52.5t-91.5 -20.5q-93 0 -154.5 61.5t-61.5 152.5q0 100 70.5 168t172.5 68q60 0 108.5 -28t78.5 -71l15 89h19l-85 -482q-12 -76 -45 -121q-55 -77 -171 -77q-130 0 -204 100l16 12
q66 -94 188 -94q104 0 155 70q27 37 45 131zM261 8q49 0 93.5 22.5t74.5 60.5l41 229q-28 44 -74.5 73t-107.5 29q-93 0 -158 -63t-65 -155q0 -84 55.5 -140t140.5 -56z" />
    <glyph glyph-name="Gbreve" unicode="&#x11e;" horiz-adv-x="784" 
d="M716 583l-14 -13q-104 122 -265 122q-99 0 -179 -51.5t-123 -134t-43 -176.5q0 -141 93 -231.5t234 -90.5q145 0 245 103l48 271h-261l3 18h280l-52 -296q-49 -53 -118 -83.5t-145 -30.5q-149 0 -248 95.5t-99 244.5q0 100 45.5 186.5t130 140t189.5 53.5q168 0 279 -127
zM587 865h18q0 -47 -34 -81t-81 -34t-81 34t-34 81h18q0 -41 28.5 -69t68.5 -28t68.5 28t28.5 69z" />
    <glyph glyph-name="gbreve" unicode="&#x11f;" horiz-adv-x="568" 
d="M443 635h18q0 -47 -34 -81t-81 -34t-81 34t-34 81h18q0 -41 28.5 -69t68.5 -28t68.5 28t28.5 69zM408 -31l17 94q-29 -32 -72.5 -52.5t-91.5 -20.5q-93 0 -154.5 61.5t-61.5 152.5q0 100 70.5 168t172.5 68q60 0 108.5 -28t78.5 -71l15 89h19l-85 -482q-12 -76 -45 -121
q-55 -77 -171 -77q-130 0 -204 100l16 12q66 -94 188 -94q104 0 155 70q27 37 45 131zM261 8q49 0 93.5 22.5t74.5 60.5l41 229q-28 44 -74.5 73t-107.5 29q-93 0 -158 -63t-65 -155q0 -84 55.5 -140t140.5 -56z" />
    <glyph glyph-name="Gdotaccent" unicode="&#x120;" horiz-adv-x="784" 
d="M716 583l-14 -13q-104 122 -265 122q-99 0 -179 -51.5t-123 -134t-43 -176.5q0 -141 93 -231.5t234 -90.5q145 0 245 103l48 271h-261l3 18h280l-52 -296q-49 -53 -118 -83.5t-145 -30.5q-149 0 -248 95.5t-99 244.5q0 100 45.5 186.5t130 140t189.5 53.5q168 0 279 -127
zM475 820q0 13 8.5 21.5t21.5 8.5t21.5 -8.5t8.5 -21.5t-8.5 -21.5t-21.5 -8.5t-21.5 8.5t-8.5 21.5z" />
    <glyph glyph-name="gdotaccent" unicode="&#x121;" horiz-adv-x="568" 
d="M324 590q0 13 8.5 21.5t21.5 8.5t21.5 -8.5t8.5 -21.5t-8.5 -21.5t-21.5 -8.5t-21.5 8.5t-8.5 21.5zM408 -31l17 94q-29 -32 -72.5 -52.5t-91.5 -20.5q-93 0 -154.5 61.5t-61.5 152.5q0 100 70.5 168t172.5 68q60 0 108.5 -28t78.5 -71l15 89h19l-85 -482
q-12 -76 -45 -121q-55 -77 -171 -77q-130 0 -204 100l16 12q66 -94 188 -94q104 0 155 70q27 37 45 131zM261 8q49 0 93.5 22.5t74.5 60.5l41 229q-28 44 -74.5 73t-107.5 29q-93 0 -158 -63t-65 -155q0 -84 55.5 -140t140.5 -56z" />
    <glyph glyph-name="Gcommaaccent" unicode="&#x122;" horiz-adv-x="784" 
d="M716 583l-14 -13q-104 122 -265 122q-99 0 -179 -51.5t-123 -134t-43 -176.5q0 -141 93 -231.5t234 -90.5q145 0 245 103l48 271h-261l3 18h280l-52 -296q-49 -53 -118 -83.5t-145 -30.5q-149 0 -248 95.5t-99 244.5q0 100 45.5 186.5t130 140t189.5 53.5q168 0 279 -127
zM393 -40h22l-97 -130h-22z" />
    <glyph glyph-name="gcommaaccent" unicode="&#x123;" horiz-adv-x="568" 
d="M411 650h22l-97 -130h-22zM408 -31l17 94q-29 -32 -72.5 -52.5t-91.5 -20.5q-93 0 -154.5 61.5t-61.5 152.5q0 100 70.5 168t172.5 68q60 0 108.5 -28t78.5 -71l15 89h19l-85 -482q-12 -76 -45 -121q-55 -77 -171 -77q-130 0 -204 100l16 12q66 -94 188 -94q104 0 155 70
q27 37 45 131zM261 8q49 0 93.5 22.5t74.5 60.5l41 229q-28 44 -74.5 73t-107.5 29q-93 0 -158 -63t-65 -155q0 -84 55.5 -140t140.5 -56z" />
    <glyph glyph-name="Hcircumflex" unicode="&#x124;" horiz-adv-x="741" 
d="M724 700l-123 -700h-19l67 382h-506l-67 -382h-19l123 700h19l-53 -300h506l53 300h19zM462 870h31l79 -130h-22l-72 118l-113 -118h-28z" />
    <glyph glyph-name="hcircumflex" unicode="&#x125;" horiz-adv-x="560" 
d="M206 880h31l79 -130h-22l-72 118l-113 -118h-28zM440 0h-19l38 214q7 42 7 62q0 56 -31 95q-40 51 -114 51q-115 0 -196 -118l-54 -304h-19l125 710h19l-64 -368q34 43 84.5 70.5t104.5 27.5q83 0 130 -58q34 -44 34 -105q0 -18 -9 -74z" />
    <glyph glyph-name="Hbar" unicode="&#x126;" horiz-adv-x="741" 
d="M703 580h90l-3 -18h-90l-99 -562h-19l67 382h-506l-67 -382h-19l99 562h-90l3 18h90l21 120h19l-21 -120h505l22 120h19zM146 400h506l28 162h-505z" />
    <glyph glyph-name="hbar" unicode="&#x127;" horiz-adv-x="560" 
d="M440 0h-19l38 214q7 42 7 62q0 56 -31 95q-40 51 -114 51q-115 0 -196 -118l-54 -304h-19l99 562h-90l3 18h90l23 130h19l-23 -130h131l-3 -18h-131l-38 -220q34 43 84.5 70.5t104.5 27.5q83 0 130 -58q34 -44 34 -105q0 -18 -9 -74z" />
    <glyph glyph-name="Itilde" unicode="&#x128;" horiz-adv-x="216" 
d="M199 700l-123 -700h-19l123 700h19zM331 838l19 -3q-9 -72 -67 -72q-28 0 -75.5 29.5t-70.5 29.5q-41 0 -48 -57l-19 3q9 72 67 72q28 0 75.5 -29.5t70.5 -29.5q41 0 48 57z" />
    <glyph glyph-name="itilde" unicode="&#x129;" horiz-adv-x="206" 
d="M128 430h19l-76 -430h-19zM284 608l19 -3q-9 -72 -67 -72q-28 0 -75.5 29.5t-70.5 29.5q-41 0 -48 -57l-19 3q9 72 67 72q28 0 75.5 -29.5t70.5 -29.5q41 0 48 57z" />
    <glyph glyph-name="Imacron" unicode="&#x12a;" horiz-adv-x="216" 
d="M199 700l-123 -700h-19l123 700h19zM83 801h240v-18h-240v18z" />
    <glyph glyph-name="imacron" unicode="&#x12b;" horiz-adv-x="206" 
d="M128 430h19l-76 -430h-19zM40 571h240v-18h-240v18z" />
    <glyph glyph-name="Ibreve" unicode="&#x12c;" horiz-adv-x="216" 
d="M199 700l-123 -700h-19l123 700h19zM301 865h18q0 -47 -34 -81t-81 -34t-81 34t-34 81h18q0 -41 28.5 -69t68.5 -28t68.5 28t28.5 69z" />
    <glyph glyph-name="ibreve" unicode="&#x12d;" horiz-adv-x="206" 
d="M128 430h19l-76 -430h-19zM259 635h18q0 -47 -34 -81t-81 -34t-81 34t-34 81h18q0 -41 28.5 -69t68.5 -28t68.5 28t28.5 69z" />
    <glyph glyph-name="Iogonek" unicode="&#x12e;" horiz-adv-x="216" 
d="M58 5l122 695h19l-123 -700q-32 -51 -32 -105q0 -43 22 -70t61 -27q26 0 42 8l5 -17q-18 -9 -45 -9q-50 0 -77.5 31.5t-27.5 81.5q0 61 34 112z" />
    <glyph glyph-name="iogonek" unicode="&#x12f;" horiz-adv-x="206" 
d="M135 590q0 13 8.5 21.5t21.5 8.5t21.5 -8.5t8.5 -21.5t-8.5 -21.5t-21.5 -8.5t-21.5 8.5t-8.5 21.5zM147 430l-76 -430q-32 -51 -32 -105q0 -43 22 -70t61 -27q26 0 42 8l5 -17q-18 -9 -45 -9q-50 0 -77.5 31.5t-27.5 81.5q0 61 34 112l75 425h19z" />
    <glyph glyph-name="Idotaccent" unicode="&#x130;" horiz-adv-x="216" 
d="M199 700l-123 -700h-19l123 700h19zM181 820q0 13 8.5 21.5t21.5 8.5t21.5 -8.5t8.5 -21.5t-8.5 -21.5t-21.5 -8.5t-21.5 8.5t-8.5 21.5z" />
    <glyph glyph-name="dotlessi" unicode="&#x131;" horiz-adv-x="206" 
d="M128 430h19l-76 -430h-19z" />
    <glyph glyph-name="IJ" unicode="&#x132;" horiz-adv-x="681" 
d="M199 700l-123 -700h-19l123 700h19zM650 700h19l-90 -514q-15 -89 -41 -125q-52 -71 -143 -71q-56 0 -100 27t-69 79l19 7q22 -47 62.5 -71t87.5 -24q79 0 124 61q26 36 40 117z" />
    <glyph glyph-name="ij" unicode="&#x133;" horiz-adv-x="490" 
d="M135 590q0 13 8.5 21.5t21.5 8.5t21.5 -8.5t8.5 -21.5t-8.5 -21.5t-21.5 -8.5t-21.5 8.5t-8.5 21.5zM128 430h19l-76 -430h-19zM370 590q0 13 8.5 21.5t21.5 8.5t21.5 -8.5t8.5 -21.5t-8.5 -21.5t-21.5 -8.5t-21.5 8.5t-8.5 21.5zM96 -226l4 18q15 -3 31 -3q84 0 125 75
q13 26 23 88l84 478h19l-84 -478q-12 -67 -23 -91q-44 -90 -144 -90q-14 0 -35 3z" />
    <glyph glyph-name="Jcircumflex" unicode="&#x134;" horiz-adv-x="465" 
d="M434 700h19l-90 -514q-15 -89 -41 -125q-52 -71 -143 -71q-56 0 -100 27t-69 79l19 7q22 -47 62.5 -71t87.5 -24q79 0 124 61q26 36 40 117zM443 870h31l79 -130h-22l-72 118l-113 -118h-28z" />
    <glyph glyph-name="jcircumflex" unicode="&#x135;" horiz-adv-x="234" 
d="M170 640h31l79 -130h-22l-72 118l-113 -118h-28zM-110 -226l4 18q15 -3 31 -3q84 0 125 75q13 26 23 88l84 478h19l-84 -478q-12 -67 -23 -91q-44 -90 -144 -90q-14 0 -35 3z" />
    <glyph glyph-name="Kcommaaccent" unicode="&#x136;" horiz-adv-x="599" 
d="M200 700l-56 -318l451 318h34l-463 -327l361 -373h-27l-358 369l-65 -369h-20l123 700h20zM263 -40h22l-97 -130h-22z" />
    <glyph glyph-name="kcommaaccent" unicode="&#x137;" horiz-adv-x="460" 
d="M138 235l272 -235h-31l-267 232l-41 -232h-19l125 710h19l-82 -467l303 187h38zM209 -40h22l-97 -130h-22z" />
    <glyph glyph-name="kgreenlandic" unicode="&#x138;" horiz-adv-x="460" 
d="M138 235l272 -235h-31l-267 232l-41 -232h-19l76 430h19l-33 -187l303 187h38z" />
    <glyph glyph-name="Lacute" unicode="&#x139;" horiz-adv-x="480" 
d="M199 700l-120 -682h351l-3 -18h-370l123 700h19zM286 870h22l-97 -130h-22z" />
    <glyph glyph-name="lacute" unicode="&#x13a;" horiz-adv-x="206" 
d="M196 710l-125 -710h-19l125 710h19zM281 880h22l-97 -130h-22z" />
    <glyph glyph-name="Lcommaaccent" unicode="&#x13b;" horiz-adv-x="480" 
d="M199 700l-120 -682h351l-3 -18h-370l123 700h19zM224 -40h22l-97 -130h-22z" />
    <glyph glyph-name="lcommaaccent" unicode="&#x13c;" horiz-adv-x="206" 
d="M196 710l-125 -710h-19l125 710h19zM44 -40h22l-97 -130h-22z" />
    <glyph glyph-name="Lcaron" unicode="&#x13d;" horiz-adv-x="480" 
d="M199 700l-120 -682h351l-3 -18h-370l123 700h19zM353 700h22l-97 -130h-22z" />
    <glyph glyph-name="lcaron" unicode="&#x13e;" horiz-adv-x="256" 
d="M196 710l-125 -710h-19l125 710h19zM309 700h22l-97 -130h-22z" />
    <glyph glyph-name="Ldot" unicode="&#x13f;" horiz-adv-x="480" 
d="M199 700l-120 -682h351l-3 -18h-370l123 700h19zM238 350q0 13 8.5 21.5t21.5 8.5t21.5 -8.5t8.5 -21.5t-8.5 -21.5t-21.5 -8.5t-21.5 8.5t-8.5 21.5z" />
    <glyph glyph-name="ldot" unicode="&#x140;" horiz-adv-x="206" 
d="M196 710l-125 -710h-19l125 710h19zM183 350q0 13 8.5 21.5t21.5 8.5t21.5 -8.5t8.5 -21.5t-8.5 -21.5t-21.5 -8.5t-21.5 8.5t-8.5 21.5z" />
    <glyph glyph-name="Lslash" unicode="&#x141;" horiz-adv-x="480" 
d="M281 479l-4 -25l-134 -69l-64 -367h351l-3 -18h-370l66 374l-110 -56l4 25l110 57l53 300h19l-51 -290z" />
    <glyph glyph-name="lslash" unicode="&#x142;" horiz-adv-x="206" 
d="M71 0h-19l66 374l-110 -56l4 25l110 57l55 310h19l-53 -300l109 56l-4 -25l-110 -57z" />
    <glyph glyph-name="Nacute" unicode="&#x143;" horiz-adv-x="746" 
d="M729 700l-123 -700h-9l-406 658l-115 -658h-19l123 700h9l405 -659l116 659h19zM530 870h22l-97 -130h-22z" />
    <glyph glyph-name="nacute" unicode="&#x144;" horiz-adv-x="560" 
d="M415 640h22l-97 -130h-22zM440 0h-19l38 214q7 42 7 62q0 56 -31 95q-40 51 -114 51q-115 0 -196 -118l-54 -304h-19l76 430h19l-15 -88q34 43 84.5 70.5t104.5 27.5q83 0 130 -58q34 -44 34 -105q0 -18 -9 -74z" />
    <glyph glyph-name="Ncommaaccent" unicode="&#x145;" horiz-adv-x="746" 
d="M729 700l-123 -700h-9l-406 658l-115 -658h-19l123 700h9l405 -659l116 659h19zM308 -40h22l-97 -130h-22z" />
    <glyph glyph-name="ncommaaccent" unicode="&#x146;" horiz-adv-x="560" 
d="M231 -40h22l-97 -130h-22zM440 0h-19l38 214q7 42 7 62q0 56 -31 95q-40 51 -114 51q-115 0 -196 -118l-54 -304h-19l76 430h19l-15 -88q34 43 84.5 70.5t104.5 27.5q83 0 130 -58q34 -44 34 -105q0 -18 -9 -74z" />
    <glyph glyph-name="Ncaron" unicode="&#x147;" horiz-adv-x="746" 
d="M729 700l-123 -700h-9l-406 658l-115 -658h-19l123 700h9l405 -659l116 659h19zM472 750h-31l-79 130h22l72 -118l113 118h28z" />
    <glyph glyph-name="ncaron" unicode="&#x148;" horiz-adv-x="560" 
d="M341 520h-31l-79 130h22l72 -118l113 118h28zM440 0h-19l38 214q7 42 7 62q0 56 -31 95q-40 51 -114 51q-115 0 -196 -118l-54 -304h-19l76 430h19l-15 -88q34 43 84.5 70.5t104.5 27.5q83 0 130 -58q34 -44 34 -105q0 -18 -9 -74z" />
    <glyph glyph-name="napostrophe" unicode="&#x149;" horiz-adv-x="560" 
d="M250 700h22l-97 -130h-22zM440 0h-19l38 214q7 42 7 62q0 56 -31 95q-40 51 -114 51q-115 0 -196 -118l-54 -304h-19l76 430h19l-15 -88q34 43 84.5 70.5t104.5 27.5q83 0 130 -58q34 -44 34 -105q0 -18 -9 -74z" />
    <glyph glyph-name="Eng" unicode="&#x14a;" horiz-adv-x="746" 
d="M729 700l-129 -733q-15 -89 -41 -125q-52 -71 -143 -71q-56 0 -100 27t-69 79l19 7q22 -47 62.5 -71t87.5 -24q79 0 124 61q26 36 40 117l8 47l-397 644l-115 -658h-19l123 700h9l404 -658l117 658h19z" />
    <glyph glyph-name="eng" unicode="&#x14b;" horiz-adv-x="560" 
d="M476 203l-44 -251q-11 -62 -24 -90q-20 -41 -58 -66t-91 -25q-37 0 -69 12l8 17q29 -11 61 -11q89 0 130 76q15 29 24 87l46 262q7 42 7 62q0 56 -31 95q-40 51 -114 51q-115 0 -196 -118l-54 -304h-19l76 430h19l-15 -88q34 43 84.5 70.5t104.5 27.5q83 0 130 -58
q34 -44 34 -105q0 -18 -9 -74z" />
    <glyph glyph-name="Omacron" unicode="&#x14c;" horiz-adv-x="812" 
d="M406 8q143 0 246 105q50 52 79 119.5t29 137.5q0 141 -89 230q-44 45 -104 68.5t-121 23.5q-143 0 -246 -105q-50 -52 -79 -119.5t-29 -137.5q0 -141 89 -230q44 -45 104 -68.5t121 -23.5zM406 -10q-142 0 -239 97q-95 97 -95 243q0 73 30 143.5t83 125.5
q109 111 261 111q142 0 239 -97q95 -97 95 -243q0 -73 -30 -143.5t-83 -125.5q-109 -111 -261 -111zM356 801h240v-18h-240v18z" />
    <glyph glyph-name="omacron" unicode="&#x14d;" horiz-adv-x="554" 
d="M263 8q90 0 155.5 63.5t65.5 154.5q0 83 -57 139.5t-141 56.5q-90 0 -155.5 -63.5t-65.5 -154.5q0 -83 57 -139.5t141 -56.5zM263 -10q-94 0 -156 61.5t-62 152.5q0 99 71 167.5t170 68.5q94 0 156 -61.5t62 -152.5q0 -99 -71 -167.5t-170 -68.5zM212 571h240v-18h-240
v18z" />
    <glyph glyph-name="Obreve" unicode="&#x14e;" horiz-adv-x="812" 
d="M406 8q143 0 246 105q50 52 79 119.5t29 137.5q0 141 -89 230q-44 45 -104 68.5t-121 23.5q-143 0 -246 -105q-50 -52 -79 -119.5t-29 -137.5q0 -141 89 -230q44 -45 104 -68.5t121 -23.5zM406 -10q-142 0 -239 97q-95 97 -95 243q0 73 30 143.5t83 125.5
q109 111 261 111q142 0 239 -97q95 -97 95 -243q0 -73 -30 -143.5t-83 -125.5q-109 -111 -261 -111zM618 865h18q0 -47 -34 -81t-81 -34t-81 34t-34 81h18q0 -41 28 -69t69 -28t69 28t28 69z" />
    <glyph glyph-name="obreve" unicode="&#x14f;" horiz-adv-x="554" 
d="M263 8q90 0 155.5 63.5t65.5 154.5q0 83 -57 139.5t-141 56.5q-90 0 -155.5 -63.5t-65.5 -154.5q0 -83 57 -139.5t141 -56.5zM263 -10q-94 0 -156 61.5t-62 152.5q0 99 71 167.5t170 68.5q94 0 156 -61.5t62 -152.5q0 -99 -71 -167.5t-170 -68.5zM464 635h18
q0 -47 -34 -81t-81 -34t-81 34t-34 81h18q0 -41 28 -69t69 -28t69 28t28 69z" />
    <glyph glyph-name="Ohungarumlaut" unicode="&#x150;" horiz-adv-x="812" 
d="M406 8q143 0 246 105q50 52 79 119.5t29 137.5q0 141 -89 230q-44 45 -104 68.5t-121 23.5q-143 0 -246 -105q-50 -52 -79 -119.5t-29 -137.5q0 -141 89 -230q44 -45 104 -68.5t121 -23.5zM406 -10q-142 0 -239 97q-95 97 -95 243q0 73 30 143.5t83 125.5
q109 111 261 111q142 0 239 -97q95 -97 95 -243q0 -73 -30 -143.5t-83 -125.5q-109 -111 -261 -111zM506 870h22l-97 -130h-22zM626 870h22l-97 -130h-22z" />
    <glyph glyph-name="ohungarumlaut" unicode="&#x151;" horiz-adv-x="554" 
d="M263 8q90 0 155.5 63.5t65.5 154.5q0 83 -57 139.5t-141 56.5q-90 0 -155.5 -63.5t-65.5 -154.5q0 -83 57 -139.5t141 -56.5zM263 -10q-94 0 -156 61.5t-62 152.5q0 99 71 167.5t170 68.5q94 0 156 -61.5t62 -152.5q0 -99 -71 -167.5t-170 -68.5zM364 640h22l-97 -130
h-22zM484 640h22l-97 -130h-22z" />
    <glyph glyph-name="OE" unicode="&#x152;" horiz-adv-x="1153" 
d="M700 0l33 193q-28 -54 -66 -92q-109 -111 -261 -111q-142 0 -239 97q-95 97 -95 243q0 73 30 143.5t83 125.5q109 111 261 111q142 0 239 -97q75 -76 89 -191l49 278h360l-3 -18h-341l-50 -282h271l-3 -18h-271l-64 -364h351l-3 -18h-370zM406 8q143 0 246 105
q50 52 79 119.5t29 137.5q0 141 -89 230q-44 45 -104 68.5t-121 23.5q-143 0 -246 -105q-50 -52 -79 -119.5t-29 -137.5q0 -141 89 -230q44 -45 104 -68.5t121 -23.5z" />
    <glyph glyph-name="oe" unicode="&#x153;" horiz-adv-x="944" 
d="M263 -10q-94 0 -156 61.5t-62 152.5q0 99 71 167.5t170 68.5q79 0 136 -45t75 -117q22 72 78 117t128 45q80 0 135.5 -53.5t55.5 -135.5q0 -15 -1 -23h-388q-1 -9 -1 -29q0 -63 33 -112q55 -79 160 -79q89 0 151 64l13 -15q-67 -67 -163 -67q-118 0 -177 85
q-24 33 -31 74q-25 -71 -87 -115t-140 -44zM264 8q90 0 155.5 63.5t65.5 154.5q0 83 -57 139.5t-141 56.5q-90 0 -155.5 -63.5t-65.5 -154.5q0 -83 57 -139.5t141 -56.5zM703 422q-73 0 -126.5 -50t-68.5 -126h366q0 79 -49.5 127.5t-121.5 48.5z" />
    <glyph glyph-name="Racute" unicode="&#x154;" horiz-adv-x="615" 
d="M349 382h-34l250 -382h-23l-250 382h-149l-67 -382h-19l123 700h217q69 0 104 -27q58 -44 58 -121q0 -48 -27 -88.5t-70 -62.5q-38 -19 -113 -19zM398 682h-202l-50 -282h204q69 0 103 17q38 18 62 55.5t24 79.5q0 69 -51 107q-32 23 -90 23zM431 870h22l-97 -130h-22z
" />
    <glyph glyph-name="racute" unicode="&#x155;" horiz-adv-x="321" 
d="M286 640h22l-97 -130h-22zM311 439l-4 -18q-6 1 -13 1q-101 0 -169 -118l-54 -304h-19l76 430h19l-14 -84q60 94 163 94q9 0 15 -1z" />
    <glyph glyph-name="Rcommaaccent" unicode="&#x156;" horiz-adv-x="615" 
d="M349 382h-34l250 -382h-23l-250 382h-149l-67 -382h-19l123 700h217q69 0 104 -27q58 -44 58 -121q0 -48 -27 -88.5t-70 -62.5q-38 -19 -113 -19zM398 682h-202l-50 -282h204q69 0 103 17q38 18 62 55.5t24 79.5q0 69 -51 107q-32 23 -90 23zM263 -40h22l-97 -130h-22z
" />
    <glyph glyph-name="rcommaaccent" unicode="&#x157;" horiz-adv-x="321" 
d="M44 -40h22l-97 -130h-22zM311 439l-4 -18q-6 1 -13 1q-101 0 -169 -118l-54 -304h-19l76 430h19l-14 -84q60 94 163 94q9 0 15 -1z" />
    <glyph glyph-name="Rcaron" unicode="&#x158;" horiz-adv-x="615" 
d="M349 382h-34l250 -382h-23l-250 382h-149l-67 -382h-19l123 700h217q69 0 104 -27q58 -44 58 -121q0 -48 -27 -88.5t-70 -62.5q-38 -19 -113 -19zM398 682h-202l-50 -282h204q69 0 103 17q38 18 62 55.5t24 79.5q0 69 -51 107q-32 23 -90 23zM379 750h-31l-79 130h22
l72 -118l113 118h28z" />
    <glyph glyph-name="rcaron" unicode="&#x159;" horiz-adv-x="321" 
d="M260 520h-31l-79 130h22l72 -118l113 118h28zM311 439l-4 -18q-6 1 -13 1q-101 0 -169 -118l-54 -304h-19l76 430h19l-14 -84q60 94 163 94q9 0 15 -1z" />
    <glyph glyph-name="Sacute" unicode="&#x15a;" horiz-adv-x="511" 
d="M426 870h22l-97 -130h-22zM15 108l17 10q66 -110 202 -110q74 0 131 48.5t57 125.5q0 51 -31 88.5t-75.5 60.5l-89 46t-75.5 59t-31 85q0 87 62.5 138t146.5 51q92 0 167 -66l-13 -14q-66 62 -154 62q-72 0 -130.5 -44.5t-58.5 -124.5q0 -39 22.5 -69.5t56 -49t72.5 -40
t72.5 -42t56 -57t22.5 -83.5q0 -81 -60 -136.5t-148 -55.5q-68 0 -125.5 30t-93.5 88z" />
    <glyph glyph-name="sacute" unicode="&#x15b;" horiz-adv-x="395" 
d="M321 640h22l-97 -130h-22zM15 54l14 14q60 -60 146 -60q47 0 85 29t38 76q0 34 -23 56.5t-55.5 34.5t-64.5 24.5t-55 35.5t-23 58q0 55 43 86.5t99 31.5q71 0 131 -43l-12 -14q-48 39 -119 39q-48 0 -85 -26t-37 -74q0 -31 23 -51t55.5 -31.5t64.5 -24t55 -38t23 -64.5
q0 -52 -43.5 -87.5t-98.5 -35.5q-91 0 -161 64z" />
    <glyph glyph-name="Scircumflex" unicode="&#x15c;" horiz-adv-x="511" 
d="M374 870h31l79 -130h-22l-72 118l-113 -118h-28zM15 108l17 10q66 -110 202 -110q74 0 131 48.5t57 125.5q0 51 -31 88.5t-75.5 60.5l-89 46t-75.5 59t-31 85q0 87 62.5 138t146.5 51q92 0 167 -66l-13 -14q-66 62 -154 62q-72 0 -130.5 -44.5t-58.5 -124.5
q0 -39 22.5 -69.5t56 -49t72.5 -40t72.5 -42t56 -57t22.5 -83.5q0 -81 -60 -136.5t-148 -55.5q-68 0 -125.5 30t-93.5 88z" />
    <glyph glyph-name="scircumflex" unicode="&#x15d;" horiz-adv-x="395" 
d="M257 640h31l79 -130h-22l-72 118l-113 -118h-28zM15 54l14 14q60 -60 146 -60q47 0 85 29t38 76q0 34 -23 56.5t-55.5 34.5t-64.5 24.5t-55 35.5t-23 58q0 55 43 86.5t99 31.5q71 0 131 -43l-12 -14q-48 39 -119 39q-48 0 -85 -26t-37 -74q0 -31 23 -51t55.5 -31.5
t64.5 -24t55 -38t23 -64.5q0 -52 -43.5 -87.5t-98.5 -35.5q-91 0 -161 64z" />
    <glyph glyph-name="Scedilla" unicode="&#x15e;" horiz-adv-x="511" 
d="M15 108l17 10q66 -110 202 -110q74 0 131 48.5t57 125.5q0 51 -31 88.5t-75.5 60.5l-89 46t-75.5 59t-31 85q0 87 62.5 138t146.5 51q92 0 167 -66l-13 -14q-66 62 -154 62q-72 0 -130.5 -44.5t-58.5 -124.5q0 -39 22.5 -69.5t56 -49t72.5 -40t72.5 -42t56 -57
t22.5 -83.5q0 -81 -60 -136.5t-148 -55.5h-9l-36 -130h-19l37 131q-128 12 -192 117z" />
    <glyph glyph-name="scedilla" unicode="&#x15f;" horiz-adv-x="395" 
d="M15 54l14 14q60 -60 146 -60q47 0 85 29t38 76q0 34 -23 56.5t-55.5 34.5t-64.5 24.5t-55 35.5t-23 58q0 55 43 86.5t99 31.5q71 0 131 -43l-12 -14q-48 39 -119 39q-48 0 -85 -26t-37 -74q0 -31 23 -51t55.5 -31.5t64.5 -24t55 -38t23 -64.5q0 -52 -43.5 -87.5
t-98.5 -35.5h-8l-37 -130h-19l37 132q-75 8 -134 62z" />
    <glyph glyph-name="Scaron" unicode="&#x160;" horiz-adv-x="511" 
d="M359 750h-31l-79 130h22l72 -118l113 118h28zM15 108l17 10q66 -110 202 -110q74 0 131 48.5t57 125.5q0 51 -31 88.5t-75.5 60.5l-89 46t-75.5 59t-31 85q0 87 62.5 138t146.5 51q92 0 167 -66l-13 -14q-66 62 -154 62q-72 0 -130.5 -44.5t-58.5 -124.5
q0 -39 22.5 -69.5t56 -49t72.5 -40t72.5 -42t56 -57t22.5 -83.5q0 -81 -60 -136.5t-148 -55.5q-68 0 -125.5 30t-93.5 88z" />
    <glyph glyph-name="scaron" unicode="&#x161;" horiz-adv-x="395" 
d="M269 510h-31l-79 130h22l72 -118l113 118h28zM15 54l14 14q60 -60 146 -60q47 0 85 29t38 76q0 34 -23 56.5t-55.5 34.5t-64.5 24.5t-55 35.5t-23 58q0 55 43 86.5t99 31.5q71 0 131 -43l-12 -14q-48 39 -119 39q-48 0 -85 -26t-37 -74q0 -31 23 -51t55.5 -31.5t64.5 -24
t55 -38t23 -64.5q0 -52 -43.5 -87.5t-98.5 -35.5q-91 0 -161 64z" />
    <glyph glyph-name="Tcommaaccent" unicode="&#x162;" horiz-adv-x="489" 
d="M552 700l-3 -18h-220l-120 -682h-19l120 682h-220l3 18h459zM184 -40h22l-97 -130h-22z" />
    <glyph glyph-name="tcommaaccent" unicode="&#x163;" horiz-adv-x="387" 
d="M229 -40h22l-97 -130h-22zM311 12l2 -18q-19 -4 -43 -4q-58 0 -99 32t-41 89q0 16 8 62l42 239h-140l3 18h140l23 130h19l-23 -130h175l-3 -18h-175l-42 -239q-7 -44 -7 -62q0 -47 33 -75t87 -28q21 0 41 4z" />
    <glyph glyph-name="Tcaron" unicode="&#x164;" horiz-adv-x="489" 
d="M552 700l-3 -18h-220l-120 -682h-19l120 682h-220l3 18h459zM349 750h-31l-79 130h22l72 -118l113 118h28z" />
    <glyph glyph-name="tcaron" unicode="&#x165;" horiz-adv-x="387" 
d="M384 700h22l-97 -130h-22zM311 12l2 -18q-19 -4 -43 -4q-58 0 -99 32t-41 89q0 16 8 62l42 239h-140l3 18h140l23 130h19l-23 -130h175l-3 -18h-175l-42 -239q-7 -44 -7 -62q0 -47 33 -75t87 -28q21 0 41 4z" />
    <glyph glyph-name="Tbar" unicode="&#x166;" horiz-adv-x="489" 
d="M276 382l-67 -382h-19l67 382h-160l3 18h160l50 282h-220l3 18h459l-3 -18h-220l-50 -282h160l-3 -18h-160z" />
    <glyph glyph-name="tbar" unicode="&#x167;" horiz-adv-x="392" 
d="M316 12l2 -18q-19 -4 -43 -4q-58 0 -99 32t-41 89q0 16 8 62l9 54h-139l3 18h139l30 167h-140l3 18h140l23 130h19l-23 -130h175l-3 -18h-175l-30 -167h176l-3 -18h-176l-9 -54q-7 -44 -7 -62q0 -47 33 -75t87 -28q21 0 41 4z" />
    <glyph glyph-name="Utilde" unicode="&#x168;" horiz-adv-x="727" 
d="M715 700l-77 -438q-48 -272 -296 -272q-103 0 -175 63.5t-72 159.5q0 26 9 75l72 412h19l-73 -415q-7 -44 -7 -70q0 -90 65.5 -148.5t161.5 -58.5q231 0 277 257l77 435h19zM581 838l19 -3q-9 -72 -67 -72q-28 0 -75.5 29.5t-70.5 29.5q-41 0 -48 -57l-19 3q9 72 67 72
q28 0 75.5 -29.5t70.5 -29.5q41 0 48 57z" />
    <glyph glyph-name="utilde" unicode="&#x169;" horiz-adv-x="559" 
d="M453 608l19 -3q-9 -72 -67 -72q-28 0 -75.5 29.5t-70.5 29.5q-41 0 -48 -57l-19 3q9 72 67 72q28 0 75.5 -29.5t70.5 -29.5q41 0 48 57zM118 430h19l-38 -214q-7 -42 -7 -62q0 -56 31 -95q40 -51 112 -51q55 0 105 32t87 86l54 304h19l-76 -430h-19l15 88
q-35 -43 -84 -70.5t-101 -27.5q-81 0 -128 58q-34 44 -34 105q0 18 9 74z" />
    <glyph glyph-name="Umacron" unicode="&#x16a;" horiz-adv-x="727" 
d="M715 700l-77 -438q-48 -272 -296 -272q-103 0 -175 63.5t-72 159.5q0 26 9 75l72 412h19l-73 -415q-7 -44 -7 -70q0 -90 65.5 -148.5t161.5 -58.5q231 0 277 257l77 435h19zM342 801h240v-18h-240v18z" />
    <glyph glyph-name="umacron" unicode="&#x16b;" horiz-adv-x="559" 
d="M212 571h240v-18h-240v18zM118 430h19l-38 -214q-7 -42 -7 -62q0 -56 31 -95q40 -51 112 -51q55 0 105 32t87 86l54 304h19l-76 -430h-19l15 88q-35 -43 -84 -70.5t-101 -27.5q-81 0 -128 58q-34 44 -34 105q0 18 9 74z" />
    <glyph glyph-name="Ubreve" unicode="&#x16c;" horiz-adv-x="727" 
d="M715 700l-77 -438q-48 -272 -296 -272q-103 0 -175 63.5t-72 159.5q0 26 9 75l72 412h19l-73 -415q-7 -44 -7 -70q0 -90 65.5 -148.5t161.5 -58.5q231 0 277 257l77 435h19zM558 865h18q0 -47 -34 -81t-81 -34t-81 34t-34 81h18q0 -41 28 -69t69 -28t69 28t28 69z" />
    <glyph glyph-name="ubreve" unicode="&#x16d;" horiz-adv-x="559" 
d="M437 635h18q0 -47 -34 -81t-81 -34t-81 34t-34 81h18q0 -41 28.5 -69t68.5 -28t68.5 28t28.5 69zM118 430h19l-38 -214q-7 -42 -7 -62q0 -56 31 -95q40 -51 112 -51q55 0 105 32t87 86l54 304h19l-76 -430h-19l15 88q-35 -43 -84 -70.5t-101 -27.5q-81 0 -128 58
q-34 44 -34 105q0 18 9 74z" />
    <glyph glyph-name="Uring" unicode="&#x16e;" horiz-adv-x="727" 
d="M715 700l-77 -438q-48 -272 -296 -272q-103 0 -175 63.5t-72 159.5q0 26 9 75l72 412h19l-73 -415q-7 -44 -7 -70q0 -90 65.5 -148.5t161.5 -58.5q231 0 277 257l77 435h19zM374 820q0 33 23.5 56.5t56.5 23.5t56.5 -23.5t23.5 -56.5t-23.5 -56.5t-56.5 -23.5t-56.5 23.5
t-23.5 56.5zM392 820q0 -26 18 -44t44 -18t44 18t18 44t-18 44t-44 18t-44 -18t-18 -44z" />
    <glyph glyph-name="uring" unicode="&#x16f;" horiz-adv-x="559" 
d="M263 590q0 33 23.5 56.5t56.5 23.5t56.5 -23.5t23.5 -56.5t-23.5 -56.5t-56.5 -23.5t-56.5 23.5t-23.5 56.5zM281 590q0 -26 18.5 -44t43.5 -18t43.5 18t18.5 44t-18.5 44t-43.5 18t-43.5 -18t-18.5 -44zM118 430h19l-38 -214q-7 -42 -7 -62q0 -56 31 -95q40 -51 112 -51
q55 0 105 32t87 86l54 304h19l-76 -430h-19l15 88q-35 -43 -84 -70.5t-101 -27.5q-81 0 -128 58q-34 44 -34 105q0 18 9 74z" />
    <glyph glyph-name="Uhungarumlaut" unicode="&#x170;" horiz-adv-x="727" 
d="M715 700l-77 -438q-48 -272 -296 -272q-103 0 -175 63.5t-72 159.5q0 26 9 75l72 412h19l-73 -415q-7 -44 -7 -70q0 -90 65.5 -148.5t161.5 -58.5q231 0 277 257l77 435h19zM462 870h22l-97 -130h-22zM582 870h22l-97 -130h-22z" />
    <glyph glyph-name="uhungarumlaut" unicode="&#x171;" horiz-adv-x="559" 
d="M335 640h22l-97 -130h-22zM455 640h22l-97 -130h-22zM118 430h19l-38 -214q-7 -42 -7 -62q0 -56 31 -95q40 -51 112 -51q55 0 105 32t87 86l54 304h19l-76 -430h-19l15 88q-35 -43 -84 -70.5t-101 -27.5q-81 0 -128 58q-34 44 -34 105q0 18 9 74z" />
    <glyph glyph-name="Uogonek" unicode="&#x172;" horiz-adv-x="727" 
d="M715 700l-77 -438q-48 -269 -292 -272q-27 -49 -27 -95q0 -43 22 -70t61 -27q26 0 42 8l5 -17q-18 -9 -45 -9q-50 0 -77.5 31.5t-27.5 81.5q0 44 26 98q-97 5 -163.5 67.5t-66.5 154.5q0 26 9 75l72 412h19l-73 -415q-7 -44 -7 -70q0 -90 65.5 -148.5t161.5 -58.5
q231 0 277 257l77 435h19z" />
    <glyph glyph-name="uogonek" unicode="&#x173;" horiz-adv-x="559" 
d="M118 430h19l-38 -214q-7 -42 -7 -62q0 -56 31 -95q40 -51 112 -51q55 0 105 32t87 86l54 304h19l-76 -430q-32 -51 -32 -105q0 -43 22 -70t61 -27q26 0 42 8l5 -17q-18 -9 -45 -9q-50 0 -77.5 31.5t-27.5 81.5q0 61 34 112l14 83q-35 -43 -84 -70.5t-101 -27.5
q-81 0 -128 58q-34 44 -34 105q0 18 9 74z" />
    <glyph glyph-name="Wcircumflex" unicode="&#x174;" horiz-adv-x="931" 
d="M630 0l-88 645l-317 -645h-9l-104 700h20l96 -648l318 648h9l88 -647l324 647h22l-350 -700h-9zM550 870h31l79 -130h-22l-72 118l-113 -118h-28z" />
    <glyph glyph-name="wcircumflex" unicode="&#x175;" horiz-adv-x="728" 
d="M469 0l-81 385l-218 -385h-9l-101 430h20l91 -389l220 389h9l80 -387l225 387h23l-250 -430h-9zM414 640h31l79 -130h-22l-72 118l-113 -118h-28z" />
    <glyph glyph-name="Ycircumflex" unicode="&#x176;" horiz-adv-x="525" 
d="M231 0h-19l60 345l-172 355h22l162 -333l280 333h26l-299 -356zM354 870h31l79 -130h-22l-72 118l-113 -118h-28z" />
    <glyph glyph-name="ycircumflex" unicode="&#x177;" horiz-adv-x="468" 
d="M449 430h24l-434 -672h-24l182 282l-150 390h20l144 -369zM280 640h31l79 -130h-22l-72 118l-113 -118h-28z" />
    <glyph glyph-name="Ydieresis" unicode="&#x178;" horiz-adv-x="525" 
d="M231 0h-19l60 345l-172 355h22l162 -333l280 333h26l-299 -356zM256 800q0 13 8.5 21.5t21.5 8.5t21.5 -8.5t8.5 -21.5t-8.5 -21.5t-21.5 -8.5t-21.5 8.5t-8.5 21.5zM396 800q0 13 8.5 21.5t21.5 8.5t21.5 -8.5t8.5 -21.5t-8.5 -21.5t-21.5 -8.5t-21.5 8.5t-8.5 21.5z
" />
    <glyph glyph-name="Zacute" unicode="&#x179;" horiz-adv-x="583" 
d="M-5 0l1 10l566 672h-417l3 18h450l-2 -10l-568 -672h470l-3 -18h-500zM441 870h22l-97 -130h-22z" />
    <glyph glyph-name="zacute" unicode="&#x17a;" horiz-adv-x="441" 
d="M32 18h336l-3 -18h-370l2 10l385 402h-294l3 18h330l-2 -10zM348 640h22l-97 -130h-22z" />
    <glyph glyph-name="Zdotaccent" unicode="&#x17b;" horiz-adv-x="583" 
d="M-5 0l1 10l566 672h-417l3 18h450l-2 -10l-568 -672h470l-3 -18h-500zM363 820q0 13 8.5 21.5t21.5 8.5t21.5 -8.5t8.5 -21.5t-8.5 -21.5t-21.5 -8.5t-21.5 8.5t-8.5 21.5z" />
    <glyph glyph-name="zdotaccent" unicode="&#x17c;" horiz-adv-x="441" 
d="M32 18h336l-3 -18h-370l2 10l385 402h-294l3 18h330l-2 -10zM240 590q0 13 8.5 21.5t21.5 8.5t21.5 -8.5t8.5 -21.5t-8.5 -21.5t-21.5 -8.5t-21.5 8.5t-8.5 21.5z" />
    <glyph glyph-name="Zcaron" unicode="&#x17d;" horiz-adv-x="583" 
d="M-5 0l1 10l566 672h-417l3 18h450l-2 -10l-568 -672h470l-3 -18h-500zM393 750h-31l-79 130h22l72 -118l113 118h28z" />
    <glyph glyph-name="zcaron" unicode="&#x17e;" horiz-adv-x="441" 
d="M32 18h336l-3 -18h-370l2 10l385 402h-294l3 18h330l-2 -10zM305 510h-31l-79 130h22l72 -118l113 118h28z" />
    <glyph glyph-name="longs" unicode="&#x17f;" horiz-adv-x="360" 
d="M166 539l-95 -539h-19l95 539q11 62 24 90q20 41 58.5 66t90.5 25q45 0 89 -25l-9 -16q-39 23 -80 23q-89 0 -130 -76q-12 -25 -24 -87z" />
    <glyph glyph-name="uni018F" unicode="&#x18f;" horiz-adv-x="761" 
d="M378 8q123 0 214 85.5t112 217.5h-613v-5q0 -135 83 -216.5t204 -81.5zM74 329h633q2 15 2 48q0 135 -89 225t-221 90q-77 0 -147 -31t-117 -86l-14 14q50 57 123.5 89t154.5 32q141 0 235.5 -95t94.5 -239q0 -162 -101.5 -274t-249.5 -112q-129 0 -217.5 86t-88.5 217
q0 24 2 36z" />
    <glyph glyph-name="florin" unicode="&#x192;" horiz-adv-x="432" 
d="M273 559q-19 -86 -32 -178h169l-3 -18h-169q-8 -51 -19.5 -143.5t-23 -170.5t-27.5 -153q-16 -74 -60 -111q-43 -35 -102 -35q-43 0 -82 21l9 17q34 -20 73 -20q51 0 88 31q40 32 55 102q16 75 27.5 149.5t24 172t18.5 140.5h-137l3 18h136q17 111 33 183q16 74 60 111
q43 35 102 35q43 0 82 -21l-9 -17q-34 20 -73 20q-51 0 -88 -31q-40 -32 -55 -102z" />
    <glyph glyph-name="uni01B5" unicode="&#x1b5;" horiz-adv-x="583" 
d="M162 400h162l238 282h-417l3 18h450l-2 -10l-245 -290h130l-3 -18h-142l-308 -364h470l-3 -18h-500l1 10l313 372h-150z" />
    <glyph glyph-name="uni01B6" unicode="&#x1b6;" horiz-adv-x="441" 
d="M32 18h336l-3 -18h-370l2 10l212 222h-127l3 18h141l156 162h-294l3 18h330l-2 -10l-164 -170h110l-3 -18h-124z" />
    <glyph glyph-name="Aringacute" unicode="&#x1fa;" horiz-adv-x="660" 
d="M367 820q0 33 23.5 56.5t56.5 23.5t56.5 -23.5t23.5 -56.5t-23.5 -56.5t-56.5 -23.5t-56.5 23.5t-23.5 56.5zM385 820q0 -26 18.5 -44t43.5 -18t43.5 18t18.5 44t-18.5 44t-43.5 18t-43.5 -18t-18.5 -44zM541 1060h22l-97 -130h-22zM580 0l-61 239h-361l-145 -239h-23
l424 700h9l177 -700h-20zM412 659l-243 -402h345z" />
    <glyph glyph-name="aringacute" unicode="&#x1fb;" horiz-adv-x="568" 
d="M257 600q0 33 23.5 56.5t56.5 23.5t56.5 -23.5t23.5 -56.5t-23.5 -56.5t-56.5 -23.5t-56.5 23.5t-23.5 56.5zM275 600q0 -26 18.5 -44t43.5 -18t43.5 18t18.5 44t-18.5 44t-43.5 18t-43.5 -18t-18.5 -44zM431 840h22l-97 -130h-22zM490 430h19l-76 -430h-19l11 63
q-29 -32 -72.5 -52.5t-91.5 -20.5q-93 0 -154.5 61.5t-61.5 152.5q0 100 70.5 168t172.5 68q60 0 108.5 -28t78.5 -71zM261 8q49 0 93.5 22.5t74.5 60.5l41 229q-28 44 -74.5 73t-107.5 29q-93 0 -158 -63t-65 -155q0 -84 55.5 -140t140.5 -56z" />
    <glyph glyph-name="AEacute" unicode="&#x1fc;" horiz-adv-x="883" 
d="M661 870h22l-97 -130h-22zM-20 0l560 700h373l-3 -18h-341l-50 -282h271l-3 -18h-271l-64 -364h351l-3 -18h-370l42 239h-277l-190 -239h-25zM210 257h265l74 422z" />
    <glyph glyph-name="aeacute" unicode="&#x1fd;" horiz-adv-x="913" 
d="M601 640h22l-97 -130h-22zM817 72l13 -15q-67 -67 -163 -67q-117 0 -177 85q-24 33 -31 72l-26 -147h-19l11 63q-29 -32 -72.5 -52.5t-91.5 -20.5q-93 0 -154.5 61.5t-61.5 152.5q0 100 70.5 168t172.5 68q60 0 108.5 -28t78.5 -71l15 89h19l-17 -93q30 48 77 75.5
t103 27.5q80 0 135.5 -53.5t55.5 -135.5q0 -15 -1 -23h-388q-1 -9 -1 -29q0 -63 33 -112q55 -79 160 -79q89 0 151 64zM261 8q49 0 93.5 22.5t74.5 60.5l41 229q-28 44 -74.5 73t-107.5 29q-93 0 -158 -63t-65 -155q0 -84 55.5 -140t140.5 -56zM672 422q-73 0 -126.5 -50
t-68.5 -126h366q0 79 -49.5 127.5t-121.5 48.5z" />
    <glyph glyph-name="Oslashacute" unicode="&#x1fe;" horiz-adv-x="812" 
d="M546 870h22l-97 -130h-22zM168 -10h-25l53 71q-20 16 -29 26q-95 97 -95 243q0 73 30 143.5t83 125.5q109 111 261 111q108 0 193 -59l45 59h25l-53 -71q1 -1 29 -26q95 -97 95 -243q0 -73 -30 -143.5t-83 -125.5q-109 -111 -261 -111q-109 0 -194 59zM181 100
q11 -12 26 -24l421 559q-82 57 -182 57q-143 0 -246 -105q-50 -52 -79 -119.5t-29 -137.5q0 -141 89 -230zM406 8q143 0 246 105q50 52 79 119.5t29 137.5q0 141 -89 230q-3 2 -6.5 5.5l-6.5 6.5t-7 6t-7 6l-420 -560q82 -56 182 -56z" />
    <glyph glyph-name="oslashacute" unicode="&#x1ff;" horiz-adv-x="554" 
d="M370 640h22l-97 -130h-22zM119 -10h-25l33 44q-82 63 -82 170q0 99 71 167.5t170 68.5q67 0 119 -33l25 33h25l-33 -44q82 -63 82 -170q0 -99 -71 -167.5t-170 -68.5q-68 0 -120 32zM65 204q0 -98 74 -154l255 342q-49 30 -108 30q-90 0 -155.5 -63.5t-65.5 -154.5z
M263 8q90 0 155.5 63.5t65.5 154.5q0 95 -74 154l-255 -342q47 -30 108 -30z" />
    <glyph glyph-name="Scommaaccent" unicode="&#x218;" horiz-adv-x="512" 
d="M203 -40h22l-97 -130h-22zM15 108l17 10q66 -110 202 -110q74 0 131 48.5t57 125.5q0 51 -31 88.5t-75.5 60.5l-89 46t-75.5 59t-31 85q0 87 62.5 138t146.5 51q92 0 167 -66l-13 -14q-66 62 -154 62q-72 0 -130.5 -44.5t-58.5 -124.5q0 -39 22.5 -69.5t56 -49t72.5 -40
t72.5 -42t56 -57t22.5 -83.5q0 -81 -60 -136.5t-148 -55.5q-68 0 -125.5 30t-93.5 88z" />
    <glyph glyph-name="scommaaccent" unicode="&#x219;" horiz-adv-x="395" 
d="M153 -40h22l-97 -130h-22zM15 54l14 14q60 -60 146 -60q47 0 85 29t38 76q0 34 -23 56.5t-55.5 34.5t-64.5 24.5t-55 35.5t-23 58q0 55 43 86.5t99 31.5q71 0 131 -43l-12 -14q-48 39 -119 39q-48 0 -85 -26t-37 -74q0 -31 23 -51t55.5 -31.5t64.5 -24t55 -38t23 -64.5
q0 -52 -43.5 -87.5t-98.5 -35.5q-91 0 -161 64z" />
    <glyph glyph-name="uni0237" unicode="&#x237;" horiz-adv-x="234" 
d="M-110 -226l4 18q15 -3 31 -3q84 0 125 75q13 26 23 88l84 478h19l-84 -478q-12 -67 -23 -91q-44 -90 -144 -90q-14 0 -35 3z" />
    <glyph glyph-name="uni0259" unicode="&#x259;" horiz-adv-x="505" 
d="M236 8q73 0 126.5 50t68.5 126h-366q0 -79 49.5 -127.5t121.5 -48.5zM91 358l-13 15q67 67 163 67q117 0 177 -85q37 -52 37 -124q0 -101 -63 -171t-156 -70q-80 0 -135.5 53.5t-55.5 135.5q0 15 1 23h388q1 9 1 29q0 63 -33 112q-55 79 -160 79q-89 0 -151 -64z" />
    <glyph glyph-name="circumflex" unicode="&#x2c6;" horiz-adv-x="375" 
d="M195 640h31l79 -130h-22l-72 118l-113 -118h-28z" />
    <glyph glyph-name="caron" unicode="&#x2c7;" horiz-adv-x="375" 
d="M180 520h-31l-79 130h22l72 -118l113 118h28z" />
    <glyph glyph-name="breve" unicode="&#x2d8;" horiz-adv-x="370" 
d="M282 635h18q0 -47 -34 -81t-81 -34t-81 34t-34 81h18q0 -41 28 -69t69 -28t69 28t28 69z" />
    <glyph glyph-name="dotaccent" unicode="&#x2d9;" horiz-adv-x="200" 
d="M70 590q0 13 8.5 21.5t21.5 8.5t21.5 -8.5t8.5 -21.5t-8.5 -21.5t-21.5 -8.5t-21.5 8.5t-8.5 21.5z" />
    <glyph glyph-name="ring" unicode="&#x2da;" horiz-adv-x="300" 
d="M70 590q0 33 23.5 56.5t56.5 23.5t56.5 -23.5t23.5 -56.5t-23.5 -56.5t-56.5 -23.5t-56.5 23.5t-23.5 56.5zM88 590q0 -26 18 -44t44 -18t44 18t18 44t-18 44t-44 18t-44 -18t-18 -44z" />
    <glyph glyph-name="ogonek" unicode="&#x2db;" horiz-adv-x="290" 
d="M108 10h21q-10 -11 -24.5 -45t-14.5 -70q0 -43 22 -70t61 -27q26 0 42 8l5 -17q-18 -9 -45 -9q-50 0 -77.5 31.5t-27.5 81.5q0 25 9 53.5t16.5 42.5t12.5 21z" />
    <glyph glyph-name="tilde" unicode="&#x2dc;" horiz-adv-x="420" 
d="M331 608l19 -3q-9 -72 -67 -72q-28 0 -75.5 29.5t-70.5 29.5q-41 0 -48 -57l-19 3q9 72 67 72q28 0 75.5 -29.5t70.5 -29.5q41 0 48 57z" />
    <glyph glyph-name="hungarumlaut" unicode="&#x2dd;" horiz-adv-x="379" 
d="M167 640h22l-97 -130h-22zM287 640h22l-97 -130h-22z" />
    <glyph glyph-name="pi" unicode="&#x3c0;" horiz-adv-x="517" 
d="M108 0l72 410q-64 -2 -104 -54l-16 12q28 35 73 52q30 10 64 10h315l-3 -18h-100l-45 -257q-7 -38 -7 -59q0 -62 45 -90l-9 -16q-55 32 -55 104q0 22 7 61l45 257h-191l-72 -412h-19z" />
    <glyph glyph-name="Wgrave" unicode="&#x1e80;" horiz-adv-x="931" 
d="M630 0l-88 645l-317 -645h-9l-104 700h20l96 -648l318 648h9l88 -647l324 647h22l-350 -700h-9zM456 870h22l97 -130h-22z" />
    <glyph glyph-name="wgrave" unicode="&#x1e81;" horiz-adv-x="728" 
d="M469 0l-81 385l-218 -385h-9l-101 430h20l91 -389l220 389h9l80 -387l225 387h23l-250 -430h-9zM308 640h22l97 -130h-22z" />
    <glyph glyph-name="Wacute" unicode="&#x1e82;" horiz-adv-x="931" 
d="M630 0l-88 645l-317 -645h-9l-104 700h20l96 -648l318 648h9l88 -647l324 647h22l-350 -700h-9zM644 870h22l-97 -130h-22z" />
    <glyph glyph-name="wacute" unicode="&#x1e83;" horiz-adv-x="728" 
d="M469 0l-81 385l-218 -385h-9l-101 430h20l91 -389l220 389h9l80 -387l225 387h23l-250 -430h-9zM488 640h22l-97 -130h-22z" />
    <glyph glyph-name="Wdieresis" unicode="&#x1e84;" horiz-adv-x="931" 
d="M630 0l-88 645l-317 -645h-9l-104 700h20l96 -648l318 648h9l88 -647l324 647h22l-350 -700h-9zM464 800q0 13 8.5 21.5t21.5 8.5t21.5 -8.5t8.5 -21.5t-8.5 -21.5t-21.5 -8.5t-21.5 8.5t-8.5 21.5zM604 800q0 13 8.5 21.5t21.5 8.5t21.5 -8.5t8.5 -21.5t-8.5 -21.5
t-21.5 -8.5t-21.5 8.5t-8.5 21.5z" />
    <glyph glyph-name="wdieresis" unicode="&#x1e85;" horiz-adv-x="728" 
d="M469 0l-81 385l-218 -385h-9l-101 430h20l91 -389l220 389h9l80 -387l225 387h23l-250 -430h-9zM320 570q0 13 8.5 21.5t21.5 8.5t21.5 -8.5t8.5 -21.5t-8.5 -21.5t-21.5 -8.5t-21.5 8.5t-8.5 21.5zM460 570q0 13 8.5 21.5t21.5 8.5t21.5 -8.5t8.5 -21.5t-8.5 -21.5
t-21.5 -8.5t-21.5 8.5t-8.5 21.5z" />
    <glyph glyph-name="uni1E8A" unicode="&#x1e8a;" horiz-adv-x="604" 
d="M373 820q0 13 8.5 21.5t21.5 8.5t21.5 -8.5t8.5 -21.5t-8.5 -21.5t-21.5 -8.5t-21.5 8.5t-8.5 21.5zM510 0l-182 365l-307 -365h-26l323 385l-156 315h23l148 -298l250 298h26l-267 -318l190 -382h-22z" />
    <glyph glyph-name="uni1E8B" unicode="&#x1e8b;" horiz-adv-x="459" 
d="M356 0l-129 221l-200 -221h-27l217 239l-111 191h24l102 -177l161 177h26l-176 -194l136 -236h-23zM261 590q0 13 8.5 21.5t21.5 8.5t21.5 -8.5t8.5 -21.5t-8.5 -21.5t-21.5 -8.5t-21.5 8.5t-8.5 21.5z" />
    <glyph glyph-name="Ygrave" unicode="&#x1ef2;" horiz-adv-x="525" 
d="M231 0h-19l60 345l-172 355h22l162 -333l280 333h26l-299 -356zM251 870h22l97 -130h-22z" />
    <glyph glyph-name="ygrave" unicode="&#x1ef3;" horiz-adv-x="468" 
d="M449 430h24l-434 -672h-24l182 282l-150 390h20l144 -369zM173 640h22l97 -130h-22z" />
    <glyph glyph-name="endash" unicode="&#x2013;" horiz-adv-x="440" 
d="M29 258h390l-3 -18h-390z" />
    <glyph glyph-name="emdash" unicode="&#x2014;" horiz-adv-x="740" 
d="M29 258h690l-3 -18h-690z" />
    <glyph glyph-name="quoteleft" unicode="&#x2018;" horiz-adv-x="202" 
d="M98 480l111 220h23l-111 -220h-23z" />
    <glyph glyph-name="quoteright" unicode="&#x2019;" horiz-adv-x="190" 
d="M97 480l111 220h23l-111 -220h-23z" />
    <glyph glyph-name="quotesinglbase" unicode="&#x201a;" horiz-adv-x="202" 
d="M-10 -140l111 220h23l-111 -220h-23z" />
    <glyph glyph-name="quotedblleft" unicode="&#x201c;" horiz-adv-x="382" 
d="M98 480l111 220h23l-111 -220h-23zM278 480l111 220h23l-111 -220h-23z" />
    <glyph glyph-name="quotedblright" unicode="&#x201d;" horiz-adv-x="370" 
d="M97 480l111 220h23l-111 -220h-23zM277 480l111 220h23l-111 -220h-23z" />
    <glyph glyph-name="quotedblbase" unicode="&#x201e;" horiz-adv-x="382" 
d="M-10 -140l111 220h23l-111 -220h-23zM170 -140l111 220h23l-111 -220h-23z" />
    <glyph glyph-name="dagger" unicode="&#x2020;" horiz-adv-x="504" 
d="M290 397l-106 -597h-19l106 597h-187l3 18h187l50 285h19l-50 -285h187l-3 -18h-187z" />
    <glyph glyph-name="daggerdbl" unicode="&#x2021;" horiz-adv-x="504" 
d="M253 190h187l-3 -18h-187l-66 -372h-19l66 372h-187l3 18h187l37 207h-187l3 18h187l50 285h19l-50 -285h187l-3 -18h-187z" />
    <glyph glyph-name="bullet" unicode="&#x2022;" horiz-adv-x="480" 
d="M80 215q0 66 47 113t113 47t113 -47t47 -113t-47 -113t-113 -47t-113 47t-47 113z" />
    <glyph glyph-name="ellipsis" unicode="&#x2026;" horiz-adv-x="710" 
d="M75 25q0 14 10.5 24.5t24.5 10.5t24.5 -10.5t10.5 -24.5t-10.5 -24.5t-24.5 -10.5t-24.5 10.5t-10.5 24.5zM295 25q0 14 10.5 24.5t24.5 10.5t24.5 -10.5t10.5 -24.5t-10.5 -24.5t-24.5 -10.5t-24.5 10.5t-10.5 24.5zM515 25q0 14 10.5 24.5t24.5 10.5t24.5 -10.5
t10.5 -24.5t-10.5 -24.5t-24.5 -10.5t-24.5 10.5t-10.5 24.5z" />
    <glyph glyph-name="perthousand" unicode="&#x2030;" horiz-adv-x="1113" 
d="M424 143q0 77 49 127t123 50q54 0 94.5 -31t54.5 -80q18 51 60.5 81t98.5 30q66 0 111.5 -44.5t45.5 -108.5q0 -77 -49 -127t-123 -50q-54 0 -94.5 30.5t-54.5 79.5q-18 -51 -60.5 -80.5t-98.5 -29.5q-66 0 -111.5 44.5t-45.5 108.5zM82 533q0 77 49 127t123 50
q66 0 111.5 -44.5t45.5 -108.5q0 -77 -49 -127t-123 -50q-66 0 -111.5 44.5t-45.5 108.5zM733 167q0 56 -40 95.5t-97 39.5q-65 0 -108.5 -45.5t-43.5 -113.5q0 -56 40 -95.5t97 -39.5q65 0 108.5 45.5t43.5 113.5zM391 557q0 56 -40 95.5t-97 39.5q-65 0 -108.5 -45.5
t-43.5 -113.5q0 -56 40 -95.5t97 -39.5q65 0 108.5 45.5t43.5 113.5zM1041 167q0 56 -40 95.5t-97 39.5q-65 0 -108.5 -45.5t-43.5 -113.5q0 -56 40 -95.5t97 -39.5q65 0 108.5 45.5t43.5 113.5zM671 700h25l-532 -700h-25z" />
    <glyph glyph-name="guilsinglleft" unicode="&#x2039;" horiz-adv-x="315" 
d="M257 410h28l-185 -182l121 -178h-24l-120 175l2 10z" />
    <glyph glyph-name="guilsinglright" unicode="&#x203a;" horiz-adv-x="315" 
d="M58 50h-28l185 182l-121 178h24l120 -175l-2 -10z" />
    <glyph glyph-name="fraction" unicode="&#x2044;" horiz-adv-x="567" 
d="M537 700h25l-532 -700h-25z" />
    <glyph glyph-name="uni2070" unicode="&#x2070;" horiz-adv-x="315" 
d="M187 348q43 0 74 36.5t45 87t14 104.5q0 53 -22.5 84.5t-64.5 31.5q-43 0 -74 -36.5t-45 -87t-14 -104.5q0 -53 22.5 -84.5t64.5 -31.5zM187 330q-52 0 -79.5 36t-27.5 98q0 59 14.5 112.5t51 93.5t87.5 40q52 0 79.5 -36t27.5 -98q0 -59 -14.5 -112.5t-51 -93.5
t-87.5 -40z" />
    <glyph glyph-name="uni2074" unicode="&#x2074;" horiz-adv-x="298" 
d="M233 340l16 95h-199l2 10l255 255h10l-44 -247h65l-3 -18h-65l-16 -95h-21zM87 453h165l36 202z" />
    <glyph glyph-name="uni2075" unicode="&#x2075;" horiz-adv-x="280" 
d="M97 526l-10 2l54 172h174l-3 -18h-158l-40 -123q26 16 61 16q50 0 82.5 -34t32.5 -83q0 -53 -38.5 -90.5t-92.5 -37.5q-67 0 -104 56l15 10q33 -48 89 -48q45 0 78 33t33 77q0 42 -27.5 70.5t-67.5 28.5t-78 -31z" />
    <glyph glyph-name="uni2076" unicode="&#x2076;" horiz-adv-x="290" 
d="M273 700l-117 -135q20 5 42 5q52 0 84.5 -32.5t32.5 -81.5q0 -53 -37 -89.5t-92 -36.5q-51 0 -83.5 33t-32.5 82q0 52 45 103l131 152h27zM198 552q-32 0 -65 -13q-24 -27 -33.5 -47t-9.5 -47q0 -41 28 -69t68 -28q46 0 77.5 31.5t31.5 76.5q0 41 -27 68.5t-70 27.5z" />
    <glyph glyph-name="uni2077" unicode="&#x2077;" horiz-adv-x="249" 
d="M96 682l3 18h215l-2 -11l-221 -349h-21l215 342h-189z" />
    <glyph glyph-name="uni2078" unicode="&#x2078;" horiz-adv-x="276" 
d="M296 446q0 -50 -34 -83t-86 -33q-47 0 -79 30.5t-32 73.5q0 40 24.5 70.5t62.5 41.5q-38 23 -38 69q0 40 28.5 67.5t69.5 27.5q38 0 63.5 -25t25.5 -59q0 -31 -17.5 -54.5t-45.5 -33.5q58 -30 58 -92zM276 446q0 35 -27 60.5t-64 25.5q-42 0 -71 -28.5t-29 -69.5
q0 -36 26 -61t65 -25q44 0 72 28t28 70zM134 615q0 -26 20.5 -45.5t49.5 -19.5q31 0 54 22t23 54q0 26 -20 46t-49 20q-31 0 -54.5 -22.5t-23.5 -54.5z" />
    <glyph glyph-name="uni2079" unicode="&#x2079;" horiz-adv-x="295" 
d="M127 330l117 135q-20 -5 -42 -5q-52 0 -84.5 32.5t-32.5 81.5q0 53 37 89.5t92 36.5q51 0 83.5 -33t32.5 -82q0 -52 -45 -103l-131 -152h-27zM202 478q33 0 65 13q24 27 33.5 47t9.5 47q0 41 -28 69t-68 28q-46 0 -77.5 -31.5t-31.5 -76.5q0 -41 27 -68.5t70 -27.5z" />
    <glyph glyph-name="uni2080" unicode="&#x2080;" horiz-adv-x="315" 
d="M127 8q43 0 74 36.5t45 87t14 104.5q0 53 -22.5 84.5t-64.5 31.5q-43 0 -74 -36.5t-45 -87t-14 -104.5q0 -53 22.5 -84.5t64.5 -31.5zM127 -10q-52 0 -79.5 36t-27.5 98q0 59 14.5 112.5t51 93.5t87.5 40q52 0 79.5 -36t27.5 -98q0 -59 -14.5 -112.5t-51 -93.5t-87.5 -40
z" />
    <glyph glyph-name="uni2081" unicode="&#x2081;" horiz-adv-x="200" 
d="M35 290l3 21l107 49h10l-63 -360h-21l59 333z" />
    <glyph glyph-name="uni2082" unicode="&#x2082;" horiz-adv-x="272" 
d="M50 300l-15 11q33 59 102 59q43 0 71.5 -27.5t28.5 -67.5q0 -54 -63 -112l-157 -145h180l-3 -18h-214l2 11l174 161q61 55 61 103q0 33 -23.5 55t-56.5 22q-54 0 -87 -52z" />
    <glyph glyph-name="uni2083" unicode="&#x2083;" horiz-adv-x="270" 
d="M78 211l2 11l129 120h-159l3 18h192l-2 -11l-125 -116q48 -2 78 -36t30 -79q0 -52 -38 -90t-92 -38q-32 0 -62.5 15.5t-48.5 41.5l14 11q37 -50 97 -50q43 0 76.5 32.5t33.5 77.5q0 43 -27 70t-70 27q-13 0 -31 -4z" />
    <glyph glyph-name="uni2084" unicode="&#x2084;" horiz-adv-x="298" 
d="M173 0l16 95h-199l2 10l255 255h10l-44 -247h65l-3 -18h-65l-16 -95h-21zM27 113h165l36 202z" />
    <glyph glyph-name="uni2085" unicode="&#x2085;" horiz-adv-x="280" 
d="M37 186l-10 2l54 172h174l-3 -18h-158l-40 -123q26 16 61 16q50 0 82.5 -34t32.5 -83q0 -53 -38.5 -90.5t-92.5 -37.5q-67 0 -104 56l15 10q33 -48 89 -48q45 0 78 33t33 77q0 42 -27.5 70.5t-67.5 28.5t-78 -31z" />
    <glyph glyph-name="uni2086" unicode="&#x2086;" horiz-adv-x="290" 
d="M213 360l-117 -135q20 5 42 5q52 0 84.5 -32.5t32.5 -81.5q0 -53 -37 -89.5t-92 -36.5q-51 0 -83.5 33t-32.5 82q0 52 45 103l131 152h27zM138 212q-32 0 -65 -13q-24 -27 -33.5 -47t-9.5 -47q0 -41 28 -69t68 -28q46 0 77.5 31.5t31.5 76.5q0 41 -27 68.5t-70 27.5z" />
    <glyph glyph-name="uni2087" unicode="&#x2087;" horiz-adv-x="249" 
d="M36 342l3 18h215l-2 -11l-221 -349h-21l215 342h-189z" />
    <glyph glyph-name="uni2088" unicode="&#x2088;" horiz-adv-x="276" 
d="M236 106q0 -50 -34 -83t-86 -33q-47 0 -79 30.5t-32 73.5q0 40 24.5 70.5t62.5 41.5q-38 23 -38 69q0 40 28.5 67.5t69.5 27.5q38 0 63.5 -25t25.5 -59q0 -31 -17.5 -54.5t-45.5 -33.5q58 -30 58 -92zM216 106q0 35 -27 60.5t-64 25.5q-42 0 -71 -28.5t-29 -69.5
q0 -36 26 -61t65 -25q44 0 72 28t28 70zM74 275q0 -26 20.5 -45.5t49.5 -19.5q31 0 54 22t23 54q0 26 -20 46t-49 20q-31 0 -54.5 -22.5t-23.5 -54.5z" />
    <glyph glyph-name="uni2089" unicode="&#x2089;" horiz-adv-x="295" 
d="M67 0l117 135q-20 -5 -42 -5q-52 0 -84.5 32.5t-32.5 81.5q0 53 37 89.5t92 36.5q51 0 83.5 -33t32.5 -82q0 -52 -45 -103l-131 -152h-27zM142 148q33 0 65 13q24 27 33.5 47t9.5 47q0 41 -28 69t-68 28q-46 0 -77.5 -31.5t-31.5 -76.5q0 -41 27 -68.5t70 -27.5z" />
    <glyph glyph-name="Euro" unicode="&#x20ac;" horiz-adv-x="608" 
d="M422 261h-308q17 -107 85 -180t176 -73q126 0 203 97l15 -12q-84 -103 -220 -103q-111 0 -186.5 74.5t-92.5 196.5h-84l3 18h78q-2 34 -2 52q0 47 9 90h-60l3 18h61q30 118 113.5 194.5t190.5 76.5q132 0 212 -111l-16 -11q-70 104 -196 104q-98 0 -176 -71.5
t-107 -181.5h330l-3 -18h-332q-9 -43 -9 -90q0 -35 2 -52h314z" />
    <glyph glyph-name="trademark" unicode="&#x2122;" horiz-adv-x="840" 
d="M780 657l-157 -272h-16l-157 272v-340h-20v383h15l170 -292l170 292h15v-383h-20v340zM100 700h260v-18h-120v-365h-20v365h-120v18z" />
    <glyph glyph-name="Omega" unicode="&#x2126;" horiz-adv-x="770" 
d="M505 0l3 18q40 26 76.5 59.5t72 78t57 100.5t21.5 114q0 141 -89 230q-44 45 -104 68.5t-121 23.5q-143 0 -246 -105q-50 -52 -79 -123t-29 -143q0 -79 25 -149.5t85 -153.5l-3 -18h-190l3 18h166q-106 153 -106 303q0 77 29.5 150t83.5 128q109 111 261 111
q142 0 239 -97q95 -97 95 -243q0 -109 -64 -200t-150 -152h157l-3 -18h-190z" />
    <glyph glyph-name="arrowleft" unicode="&#x2190;" horiz-adv-x="742" 
d="M333 478h27l-259 -220h580l-3 -18h-582l180 -220h-25l-184 225l1 8z" />
    <glyph glyph-name="arrowright" unicode="&#x2192;" horiz-adv-x="742" 
d="M415 20h-27l259 220h-580l3 18h582l-180 220h25l184 -225l-1 -8z" />
    <glyph glyph-name="uni2196" unicode="&#x2196;" horiz-adv-x="560" 
d="M437 412h-311l330 -400l-14 -12l-329 399l-55 -309l-15 18l56 316l8 6h315z" />
    <glyph glyph-name="uni2197" unicode="&#x2197;" horiz-adv-x="560" 
d="M529 423l-56 -315l-21 -18l54 307l-467 -397l-12 15l467 397h-307l21 18h314z" />
    <glyph glyph-name="uni2198" unicode="&#x2198;" horiz-adv-x="560" 
d="M117 18h311l-330 400l14 12l329 -399l55 309l15 -18l-56 -316l-8 -6h-315z" />
    <glyph glyph-name="uni2199" unicode="&#x2199;" horiz-adv-x="560" 
d="M25 7l56 315l21 18l-54 -307l467 397l12 -15l-467 -397h307l-21 -18h-314z" />
    <glyph glyph-name="partialdiff" unicode="&#x2202;" horiz-adv-x="554" 
d="M504 226q0 -99 -71 -167.5t-170 -68.5q-94 0 -156 61.5t-62 152.5q0 99 71 167.5t170 68.5q83 0 140 -42l-144 312h22l168 -363q32 -69 32 -121zM484 226q0 47 -27 106l-11 23q-62 67 -160 67q-90 0 -155.5 -63.5t-65.5 -154.5q0 -83 57 -139.5t141 -56.5
q90 0 155.5 63.5t65.5 154.5z" />
    <glyph glyph-name="Delta" unicode="&#x2206;" horiz-adv-x="583" 
d="M369 700h9l145 -690l-1 -10h-542l1 10zM367 657l-359 -639h493z" />
    <glyph glyph-name="product" unicode="&#x220f;" horiz-adv-x="552" 
d="M579 682h-100l-120 -682h-19l120 682h-231l-120 -682h-19l120 682h-100l3 18h469z" />
    <glyph glyph-name="summation" unicode="&#x2211;" 
d="M522 520l29 162h-417l249 -316l-2 -10l-372 -338h435l29 162h19l-32 -180h-490l1 10l389 353l-259 327l2 10h470l-32 -180h-19z" />
    <glyph glyph-name="minus" unicode="&#x2212;" horiz-adv-x="523" 
d="M465 251h-400l3 18h400z" />
    <glyph glyph-name="uni2215" unicode="&#x2215;" horiz-adv-x="567" 
d="M537 700h25l-532 -700h-25z" />
    <glyph glyph-name="radical" unicode="&#x221a;" horiz-adv-x="563" 
d="M600 700h23l-374 -700h-9l-99 412h-101l3 18h114l93 -385z" />
    <glyph glyph-name="infinity" unicode="&#x221e;" horiz-adv-x="740" 
d="M182 100q-67 0 -104.5 43t-37.5 111q0 81 51 140.5t129 59.5q36 0 63 -12t45.5 -37t29 -47.5t22.5 -58.5q22 36 39 58.5t41 47.5t52.5 37t61.5 12q67 0 104.5 -43t37.5 -111q0 -81 -51 -140.5t-129 -59.5q-68 0 -102 40t-58 115q-47 -75 -90 -115t-104 -40zM574 436
q-31 0 -57.5 -12t-50.5 -40t-38.5 -48.5t-39.5 -61.5q12 -38 21.5 -59.5t26.5 -47t41.5 -37.5t58.5 -12q68 0 114 53.5t46 128.5q0 59 -32 97.5t-90 38.5zM182 118q31 0 57 12t50.5 40t38.5 48t40 62q-10 31 -16.5 48t-20 41t-27 36t-35.5 21.5t-49 9.5q-68 0 -114 -53.5
t-46 -128.5q0 -59 32 -97.5t90 -38.5z" />
    <glyph glyph-name="integral" unicode="&#x222b;" horiz-adv-x="432" 
d="M273 559q-26 -120 -53 -332.5t-52 -330.5q-16 -74 -60 -111q-43 -35 -102 -35q-43 0 -82 21l9 17q34 -20 73 -20q51 0 88 31q40 32 55 102q26 120 53 332.5t52 330.5q16 74 60 111q43 35 102 35q43 0 82 -21l-9 -17q-34 20 -73 20q-51 0 -88 -31q-40 -32 -55 -102z" />
    <glyph glyph-name="approxequal" unicode="&#x2248;" horiz-adv-x="480" 
d="M48 130l-18 6q38 89 109 89q34 0 63.5 -22t57.5 -44t56 -22q55 0 91 77l18 -6q-38 -89 -109 -89q-34 0 -63.5 22t-57.5 44t-56 22q-55 0 -91 -77zM80 308l-18 6q38 89 109 89q34 0 63.5 -22t57.5 -44t56 -22q55 0 91 77l18 -6q-38 -89 -109 -89q-34 0 -63.5 22t-57.5 44
t-56 22q-55 0 -91 -77z" />
    <glyph glyph-name="notequal" unicode="&#x2260;" horiz-adv-x="523" 
d="M482 342h-144l-121 -162h236l-3 -18h-247l-78 -105h-21l78 105h-132l3 18h143l121 162h-235l3 18h245l79 105h21l-79 -105h134z" />
    <glyph glyph-name="lessequal" unicode="&#x2264;" horiz-adv-x="523" 
d="M35 78h400l-3 -18h-400zM448 151l-4 -20l-382 154l2 10l437 154l-4 -20l-395 -140z" />
    <glyph glyph-name="greaterequal" unicode="&#x2265;" horiz-adv-x="523" 
d="M35 78h400l-3 -18h-400zM98 429l4 20l382 -154l-2 -10l-437 -154l4 20l395 140z" />
    <glyph glyph-name="lozenge" unicode="&#x25ca;" horiz-adv-x="541" 
d="M500 354l-150 316l-269 -324l150 -316zM357 700l164 -345l-2 -10l-286 -345h-9l-164 345l2 10l286 345h9z" />
    <glyph glyph-name="parenleft.ss03" horiz-adv-x="415" 
d="M339 710l16 -12q-148 -215 -148 -451q0 -129 42 -250l-19 -7q-43 121 -43 257q0 242 152 463z" />
    <glyph glyph-name="parenright.ss03" horiz-adv-x="415" 
d="M120 -10l-16 12q148 215 148 451q0 129 -42 250l19 7q43 -121 43 -257q0 -242 -152 -463z" />
    <glyph glyph-name="bracketleft.ss03" horiz-adv-x="415" 
d="M131 0l124 700h204l-3 -18h-185l-118 -664h185l-3 -18h-204z" />
    <glyph glyph-name="bracketright.ss03" horiz-adv-x="415" 
d="M327 700l-124 -700h-204l3 18h185l118 664h-185l3 18h204z" />
    <glyph glyph-name="braceleft.ss03" horiz-adv-x="415" 
d="M199 293q0 -15 -7 -53l-14 -81q-4 -28 -4 -40q0 -101 120 -101h15l-3 -18h-15q-68 0 -102 32.5t-34 85.5q0 14 4 40l14 82q7 47 7 50q0 45 -49 50l3 20q34 3 51 21q15 16 23 59l18 103q12 68 34 99q42 58 154 58h15l-3 -18h-15q-101 0 -137 -52q-19 -27 -29 -88l-18 -102
q-7 -37 -17 -56q-15 -27 -43 -36q32 -15 32 -55z" />
    <glyph glyph-name="braceright.ss03" horiz-adv-x="415" 
d="M258 407q0 15 7 53l14 81q4 28 4 40q0 101 -120 101h-15l3 18h15q68 0 102 -32.5t34 -85.5q0 -14 -4 -40l-14 -82q-7 -47 -7 -50q0 -45 49 -50l-3 -20q-35 -3 -51 -21q-15 -16 -23 -59l-18 -103q-12 -68 -34 -99q-42 -58 -154 -58h-15l3 18h15q101 0 137 52q19 27 29 88
l18 102q7 37 17 56q15 27 43 36q-32 15 -32 55z" />
    <glyph glyph-name="bar.ss03" horiz-adv-x="150" 
d="M167 700l-123 -700h-19l123 700h19z" />
    <glyph glyph-name="zero.tf" 
d="M85 243q0 -110 45.5 -172.5t133.5 -62.5q66 0 118 41.5t82 109t45.5 144t15.5 154.5q0 110 -45.5 172.5t-133.5 62.5q-66 0 -118 -41.5t-82 -109t-45.5 -144t-15.5 -154.5zM65 243q0 82 16.5 161.5t49 149.5t88.5 113t127 43q98 0 148.5 -68t50.5 -185
q0 -82 -16.5 -161.5t-49 -149.5t-88.5 -113t-127 -43q-98 0 -148.5 68t-50.5 185z" />
    <glyph glyph-name="one.tf" 
d="M187 572l3 22l205 106h9l-120 -682h200l-3 -18h-429l3 18h210l114 651z" />
    <glyph glyph-name="two.tf" 
d="M149 577l-18 9q59 124 192 124q78 0 131.5 -50.5t53.5 -125.5q0 -48 -22.5 -92.5t-79.5 -98.5l-343 -325h370l-3 -18h-405l1 10l362 343q55 52 77.5 94t22.5 87q0 63 -46 110.5t-118 47.5q-61 0 -106 -32t-69 -83z" />
    <glyph glyph-name="three.tf" 
d="M473 682h-311l3 18h347l-2 -10l-257 -250h8q94 0 156 -61t62 -153q0 -99 -71 -167.5t-170 -68.5q-71 0 -126 32t-81 86l18 9q23 -50 74.5 -79.5t114.5 -29.5q91 0 156 63.5t65 154.5q0 83 -56 139.5t-142 56.5q-30 0 -55 -7l2 10z" />
    <glyph glyph-name="four.tf" 
d="M504 700h10l-85 -482h119l-3 -18h-119l-35 -200h-19l35 200h-381l2 10zM62 218h348l77 437z" />
    <glyph glyph-name="five.tf" 
d="M74 81l14 12q30 -41 79 -63t103 -22q88 0 150.5 62t62.5 150q0 82 -55 137t-139 55q-87 0 -152 -68l-10 3l110 353h297l-3 -18h-278l-91 -292q58 40 127 40q93 0 153.5 -60.5t60.5 -149.5q0 -96 -67.5 -163t-165.5 -67q-125 0 -196 91z" />
    <glyph glyph-name="six.tf" 
d="M455 700l-269 -294q44 22 103 22q91 0 151 -60.5t60 -148.5q0 -96 -68.5 -162.5t-165.5 -66.5q-92 0 -152.5 60.5t-60.5 148.5q0 90 73 171l301 330h28zM289 410q-78 0 -140 -45l-5 -5q-71 -71 -71 -161q0 -81 55 -136t138 -55q89 0 151.5 61.5t62.5 149.5q0 81 -54 136
t-137 55z" />
    <glyph glyph-name="seven.tf" 
d="M155 682l3 18h420l-2 -10l-454 -690h-24l449 682h-392z" />
    <glyph glyph-name="eight.tf" 
d="M154 534q0 76 53 126t130 50q72 0 120.5 -45t48.5 -110t-39.5 -111.5t-101.5 -60.5q58 -21 93 -69t35 -108q0 -92 -65 -154t-159 -62q-88 0 -146.5 55.5t-58.5 135.5q0 82 52 141t132 72q-43 19 -68.5 56.5t-25.5 83.5zM288 379q-86 0 -145 -57.5t-59 -140.5
q0 -73 53 -123t132 -50q86 0 145 57.5t59 140.5q0 73 -53 123t-132 50zM174 534q0 -57 43 -97t106 -40q69 0 116 45.5t47 112.5q0 57 -43 97t-106 40q-69 0 -116 -45.5t-47 -112.5z" />
    <glyph glyph-name="nine.tf" 
d="M141 0l269 294q-44 -22 -103 -22q-91 0 -151 60.5t-60 148.5q0 96 68.5 162.5t165.5 66.5q92 0 152.5 -60.5t60.5 -148.5q0 -90 -73 -171l-301 -330h-28zM307 290q78 0 140 45l5 5q71 71 71 161q0 81 -55 136t-138 55q-89 0 -151.5 -61.5t-62.5 -149.5q0 -81 54 -136
t137 -55z" />
    <glyph glyph-name="parenleft.case" horiz-adv-x="415" 
d="M417 810l15 -13q-225 -257 -225 -550q0 -190 84 -347l-17 -10q-87 160 -87 357q0 299 230 563z" />
    <glyph glyph-name="parenright.case" horiz-adv-x="415" 
d="M42 -110l-15 13q225 257 225 550q0 190 -84 347l17 10q87 -160 87 -357q0 -299 -230 -563z" />
    <glyph glyph-name="bracketleft.case" horiz-adv-x="415" 
d="M114 -100l159 900h204l-3 -18h-185l-153 -864h185l-3 -18h-204z" />
    <glyph glyph-name="bracketright.case" horiz-adv-x="415" 
d="M345 800l-159 -900h-204l3 18h185l153 864h-185l3 18h204z" />
    <glyph glyph-name="braceleft.case" horiz-adv-x="415" 
d="M292 -82l-3 -18h-20q-68 0 -102 32.5t-34 85.5q0 45 24 134t24 135t-49 53l3 20q50 5 67 50q16 43 30 168.5t39 163.5q38 58 152 58h25l-3 -18h-25q-99 0 -135 -52q-21 -30 -34.5 -150.5t-25.5 -160.5q-16 -52 -57 -71q32 -14 32 -61q0 -45 -24 -133.5t-24 -134.5
q0 -101 120 -101h20z" />
    <glyph glyph-name="braceright.case" horiz-adv-x="415" 
d="M244 782l3 18h20q68 0 102 -32.5t34 -85.5q0 -45 -24 -134t-24 -135t49 -53l-3 -20q-50 -5 -67 -50q-16 -43 -30 -168.5t-39 -163.5q-38 -58 -152 -58h-25l3 18h25q99 0 135 52q21 30 34.5 150.5t25.5 160.5q16 52 57 71q-32 14 -32 61q0 45 24 133.5t24 134.5
q0 101 -120 101h-20z" />
    <glyph glyph-name="a.ss01" horiz-adv-x="478" 
d="M356 122l13 74q-41 28 -73 38.5t-74 10.5q-66 0 -116.5 -36t-50.5 -94q0 -47 36.5 -77t87.5 -30q104 0 177 114zM372 217l6 28q6 30 6 52q0 55 -38 90t-97 35q-77 0 -135 -48l-11 15q66 51 146 51q64 0 109 -38.5t45 -104.5q0 -23 -7 -58l-42 -239h-19l15 86
q-64 -96 -169 -96q-58 0 -102 33t-44 92q0 68 57.5 108t129.5 40q84 0 150 -46z" />
    <glyph glyph-name="zero.tf.zero" 
d="M65 243q0 82 16.5 161.5t49 149.5t88.5 113t127 43q98 0 148.5 -68t50.5 -185q0 -82 -16.5 -161.5t-49 -149.5t-88.5 -113t-127 -43q-98 0 -148.5 68t-50.5 185zM264 8q66 0 118 41.5t82 109t45.5 144t15.5 154.5q0 81 -25 135l-383 -501q45 -83 147 -83zM85 243
q0 -79 24 -135l382 503q-46 81 -145 81q-66 0 -118 -41.5t-82 -109t-45.5 -144t-15.5 -154.5z" />
    <glyph glyph-name="endash.ss04" horiz-adv-x="1040" 
d="M29 258h990l-3 -18h-990z" />
    <glyph glyph-name="periodcentered.case" horiz-adv-x="270" 
d="M115 350q0 14 10.5 24.5t24.5 10.5t24.5 -10.5t10.5 -24.5t-10.5 -24.5t-24.5 -10.5t-24.5 10.5t-10.5 24.5z" />
    <glyph glyph-name="bullet.case" horiz-adv-x="480" 
d="M100 350q0 66 47 113t113 47t113 -47t47 -113t-47 -113t-113 -47t-113 47t-47 113z" />
    <glyph glyph-name="asterisk.ss05" horiz-adv-x="490" 
d="M429 407l-135 86l-30 -173h-19l30 172l-163 -85l-9 18l164 86l-132 85l11 17l135 -87l31 174h19l-30 -171l161 84l9 -18l-164 -86l133 -85z" />
    <glyph glyph-name="zero.zero" horiz-adv-x="590" 
d="M78 243q0 82 16.5 161.5t49 149.5t88.5 113t127 43q98 0 148.5 -68t50.5 -185q0 -82 -16.5 -161.5t-49 -149.5t-88.5 -113t-127 -43q-98 0 -148.5 68t-50.5 185zM277 8q66 0 118 41.5t82 109t45.5 144t15.5 154.5q0 81 -25 135l-383 -501q45 -83 147 -83zM98 243
q0 -79 24 -135l382 503q-46 81 -145 81q-66 0 -118 -41.5t-82 -109t-45.5 -144t-15.5 -154.5z" />
    <glyph glyph-name="uni2070.zero" horiz-adv-x="315" 
d="M187 330q-52 0 -79.5 36t-27.5 98q0 59 14.5 112.5t51 93.5t87.5 40q52 0 79.5 -36t27.5 -98q0 -59 -14.5 -112.5t-51 -93.5t-87.5 -40zM187 348q43 0 74 36.5t45 87t14 104.5q0 37 -10 61l-192 -252q23 -37 69 -37zM100 464q0 -36 9 -61l192 252q-23 37 -68 37
q-43 0 -74 -36.5t-45 -87t-14 -104.5z" />
    <glyph glyph-name="uni2080.zero" horiz-adv-x="315" 
d="M127 -10q-52 0 -79.5 36t-27.5 98q0 59 14.5 112.5t51 93.5t87.5 40q52 0 79.5 -36t27.5 -98q0 -59 -14.5 -112.5t-51 -93.5t-87.5 -40zM127 8q43 0 74 36.5t45 87t14 104.5q0 37 -10 61l-192 -252q23 -37 69 -37zM40 124q0 -36 9 -61l192 252q-23 37 -68 37
q-43 0 -74 -36.5t-45 -87t-14 -104.5z" />
    <glyph glyph-name="emdash.ss04" horiz-adv-x="1340" 
d="M29 258h1290l-3 -18h-1290z" />
    <glyph glyph-name="currency.tf" 
d="M99 351q0 72 48 125l-72 72l13 13l72 -72q53 48 125 48t125 -48l72 72l13 -13l-72 -72q48 -53 48 -125t-48 -125l72 -72l-13 -13l-72 72q-53 -48 -125 -48t-125 48l-72 -72l-13 13l72 72q-48 53 -48 125zM119 351q0 -69 48.5 -117.5t117.5 -48.5t117.5 48.5t48.5 117.5
t-48.5 117.5t-117.5 48.5t-117.5 -48.5t-48.5 -117.5z" />
    <glyph glyph-name="hyphen.case" horiz-adv-x="410" 
d="M114 400h240l-3 -18h-240z" />
    <glyph glyph-name="endash.case" horiz-adv-x="440" 
d="M54 400h390l-3 -18h-390z" />
    <glyph glyph-name="emdash.case" horiz-adv-x="740" 
d="M54 400h690l-3 -18h-690z" />
    <glyph glyph-name="endash.case.ss04" horiz-adv-x="1040" 
d="M54 400h990l-3 -18h-990z" />
    <glyph glyph-name="emdash.case.ss04" horiz-adv-x="1340" 
d="M54 400h1290l-3 -18h-1290z" />
    <glyph glyph-name="guillemotleft.case" horiz-adv-x="525" 
d="M274 510h28l-185 -182l121 -178h-24l-120 175l2 10zM484 510h28l-185 -182l121 -178h-24l-120 175l2 10z" />
    <glyph glyph-name="guillemotright.case" horiz-adv-x="525" 
d="M285 150h-28l185 182l-121 178h24l120 -175l-2 -10zM75 150h-28l185 182l-121 178h24l120 -175l-2 -10z" />
    <glyph glyph-name="guilsinglleft.case" horiz-adv-x="315" 
d="M274 510h28l-185 -182l121 -178h-24l-120 175l2 10z" />
    <glyph glyph-name="guilsinglright.case" horiz-adv-x="315" 
d="M75 150h-28l185 182l-121 178h24l120 -175l-2 -10z" />
    <glyph glyph-name="bar.case" horiz-adv-x="150" 
d="M183 790l-159 -900h-19l159 900h19z" />
    <glyph glyph-name="aacute.ss01" horiz-adv-x="478" 
d="M356 640h22l-97 -130h-22zM356 122l13 74q-41 28 -73 38.5t-74 10.5q-66 0 -116.5 -36t-50.5 -94q0 -47 36.5 -77t87.5 -30q104 0 177 114zM372 217l6 28q6 30 6 52q0 55 -38 90t-97 35q-77 0 -135 -48l-11 15q66 51 146 51q64 0 109 -38.5t45 -104.5q0 -23 -7 -58
l-42 -239h-19l15 86q-64 -96 -169 -96q-58 0 -102 33t-44 92q0 68 57.5 108t129.5 40q84 0 150 -46z" />
    <glyph glyph-name="agrave.ss01" horiz-adv-x="478" 
d="M217 640h22l97 -130h-22zM356 122l13 74q-41 28 -73 38.5t-74 10.5q-66 0 -116.5 -36t-50.5 -94q0 -47 36.5 -77t87.5 -30q104 0 177 114zM372 217l6 28q6 30 6 52q0 55 -38 90t-97 35q-77 0 -135 -48l-11 15q66 51 146 51q64 0 109 -38.5t45 -104.5q0 -23 -7 -58
l-42 -239h-19l15 86q-64 -96 -169 -96q-58 0 -102 33t-44 92q0 68 57.5 108t129.5 40q84 0 150 -46z" />
    <glyph glyph-name="acircumflex.ss01" horiz-adv-x="478" 
d="M296 640h31l79 -130h-22l-72 118l-113 -118h-28zM356 122l13 74q-41 28 -73 38.5t-74 10.5q-66 0 -116.5 -36t-50.5 -94q0 -47 36.5 -77t87.5 -30q104 0 177 114zM372 217l6 28q6 30 6 52q0 55 -38 90t-97 35q-77 0 -135 -48l-11 15q66 51 146 51q64 0 109 -38.5
t45 -104.5q0 -23 -7 -58l-42 -239h-19l15 86q-64 -96 -169 -96q-58 0 -102 33t-44 92q0 68 57.5 108t129.5 40q84 0 150 -46z" />
    <glyph glyph-name="adieresis.ss01" horiz-adv-x="478" 
d="M197 570q0 13 8.5 21.5t21.5 8.5t21.5 -8.5t8.5 -21.5t-8.5 -21.5t-21.5 -8.5t-21.5 8.5t-8.5 21.5zM337 570q0 13 8.5 21.5t21.5 8.5t21.5 -8.5t8.5 -21.5t-8.5 -21.5t-21.5 -8.5t-21.5 8.5t-8.5 21.5zM356 122l13 74q-41 28 -73 38.5t-74 10.5q-66 0 -116.5 -36
t-50.5 -94q0 -47 36.5 -77t87.5 -30q104 0 177 114zM372 217l6 28q6 30 6 52q0 55 -38 90t-97 35q-77 0 -135 -48l-11 15q66 51 146 51q64 0 109 -38.5t45 -104.5q0 -23 -7 -58l-42 -239h-19l15 86q-64 -96 -169 -96q-58 0 -102 33t-44 92q0 68 57.5 108t129.5 40
q84 0 150 -46z" />
    <glyph glyph-name="atilde.ss01" horiz-adv-x="478" 
d="M418 608l19 -3q-9 -72 -67 -72q-28 0 -75.5 29.5t-70.5 29.5q-41 0 -48 -57l-19 3q9 72 67 72q28 0 75.5 -29.5t70.5 -29.5q41 0 48 57zM356 122l13 74q-41 28 -73 38.5t-74 10.5q-66 0 -116.5 -36t-50.5 -94q0 -47 36.5 -77t87.5 -30q104 0 177 114zM372 217l6 28
q6 30 6 52q0 55 -38 90t-97 35q-77 0 -135 -48l-11 15q66 51 146 51q64 0 109 -38.5t45 -104.5q0 -23 -7 -58l-42 -239h-19l15 86q-64 -96 -169 -96q-58 0 -102 33t-44 92q0 68 57.5 108t129.5 40q84 0 150 -46z" />
    <glyph glyph-name="aring.ss01" horiz-adv-x="478" 
d="M229 590q0 33 23.5 56.5t56.5 23.5t56.5 -23.5t23.5 -56.5t-23.5 -56.5t-56.5 -23.5t-56.5 23.5t-23.5 56.5zM247 590q0 -26 18.5 -44t43.5 -18t43.5 18t18.5 44t-18.5 44t-43.5 18t-43.5 -18t-18.5 -44zM356 122l13 74q-41 28 -73 38.5t-74 10.5q-66 0 -116.5 -36
t-50.5 -94q0 -47 36.5 -77t87.5 -30q104 0 177 114zM372 217l6 28q6 30 6 52q0 55 -38 90t-97 35q-77 0 -135 -48l-11 15q66 51 146 51q64 0 109 -38.5t45 -104.5q0 -23 -7 -58l-42 -239h-19l15 86q-64 -96 -169 -96q-58 0 -102 33t-44 92q0 68 57.5 108t129.5 40
q84 0 150 -46z" />
    <glyph glyph-name="ae.ss01" horiz-adv-x="835" 
d="M739 72l13 -15q-69 -67 -167 -67q-76 0 -131.5 43t-73.5 118l-26 -151h-19l15 86q-64 -96 -169 -96q-58 0 -102 33t-44 92q0 68 57.5 108t129.5 40q84 0 150 -46l6 28q6 30 6 52q0 55 -38 90t-97 35q-77 0 -135 -48l-11 15q66 51 146 51q58 0 102 -33t51 -91
q28 57 78.5 90.5t113.5 33.5q80 0 135.5 -53.5t55.5 -135.5q0 -15 -1 -23h-388q-1 -9 -1 -29q0 -79 52 -135t139 -56q84 0 153 64zM356 122l13 74q-41 28 -73 38.5t-74 10.5q-66 0 -116.5 -36t-50.5 -94q0 -47 36.5 -77t87.5 -30q104 0 177 114zM594 422q-73 0 -126.5 -50
t-68.5 -126h366q0 79 -49.5 127.5t-121.5 48.5z" />
    <glyph glyph-name="zero.dnom" horiz-adv-x="315" 
d="M127 8q43 0 74 36.5t45 87t14 104.5q0 53 -22.5 84.5t-64.5 31.5q-43 0 -74 -36.5t-45 -87t-14 -104.5q0 -53 22.5 -84.5t64.5 -31.5zM127 -10q-52 0 -79.5 36t-27.5 98q0 59 14.5 112.5t51 93.5t87.5 40q52 0 79.5 -36t27.5 -98q0 -59 -14.5 -112.5t-51 -93.5t-87.5 -40
z" />
    <glyph glyph-name="one.dnom" horiz-adv-x="200" 
d="M35 290l3 21l107 49h10l-63 -360h-21l59 333z" />
    <glyph glyph-name="two.dnom" horiz-adv-x="272" 
d="M50 300l-15 11q33 59 102 59q43 0 71.5 -27.5t28.5 -67.5q0 -54 -63 -112l-157 -145h180l-3 -18h-214l2 11l174 161q61 55 61 103q0 33 -23.5 55t-56.5 22q-54 0 -87 -52z" />
    <glyph glyph-name="three.dnom" horiz-adv-x="270" 
d="M78 211l2 11l129 120h-159l3 18h192l-2 -11l-125 -116q48 -2 78 -36t30 -79q0 -52 -38 -90t-92 -38q-32 0 -62.5 15.5t-48.5 41.5l14 11q37 -50 97 -50q43 0 76.5 32.5t33.5 77.5q0 43 -27 70t-70 27q-13 0 -31 -4z" />
    <glyph glyph-name="four.dnom" horiz-adv-x="298" 
d="M173 0l16 95h-199l2 10l255 255h10l-44 -247h65l-3 -18h-65l-16 -95h-21zM27 113h165l36 202z" />
    <glyph glyph-name="five.dnom" horiz-adv-x="280" 
d="M37 186l-10 2l54 172h174l-3 -18h-158l-40 -123q26 16 61 16q50 0 82.5 -34t32.5 -83q0 -53 -38.5 -90.5t-92.5 -37.5q-67 0 -104 56l15 10q33 -48 89 -48q45 0 78 33t33 77q0 42 -27.5 70.5t-67.5 28.5t-78 -31z" />
    <glyph glyph-name="six.dnom" horiz-adv-x="290" 
d="M213 360l-117 -135q20 5 42 5q52 0 84.5 -32.5t32.5 -81.5q0 -53 -37 -89.5t-92 -36.5q-51 0 -83.5 33t-32.5 82q0 52 45 103l131 152h27zM138 212q-32 0 -65 -13q-24 -27 -33.5 -47t-9.5 -47q0 -41 28 -69t68 -28q46 0 77.5 31.5t31.5 76.5q0 41 -27 68.5t-70 27.5z" />
    <glyph glyph-name="seven.dnom" horiz-adv-x="249" 
d="M36 342l3 18h215l-2 -11l-221 -349h-21l215 342h-189z" />
    <glyph glyph-name="eight.dnom" horiz-adv-x="276" 
d="M236 106q0 -50 -34 -83t-86 -33q-47 0 -79 30.5t-32 73.5q0 40 24.5 70.5t62.5 41.5q-38 23 -38 69q0 40 28.5 67.5t69.5 27.5q38 0 63.5 -25t25.5 -59q0 -31 -17.5 -54.5t-45.5 -33.5q58 -30 58 -92zM216 106q0 35 -27 60.5t-64 25.5q-42 0 -71 -28.5t-29 -69.5
q0 -36 26 -61t65 -25q44 0 72 28t28 70zM74 275q0 -26 20.5 -45.5t49.5 -19.5q31 0 54 22t23 54q0 26 -20 46t-49 20q-31 0 -54.5 -22.5t-23.5 -54.5z" />
    <glyph glyph-name="nine.dnom" horiz-adv-x="295" 
d="M67 0l117 135q-20 -5 -42 -5q-52 0 -84.5 32.5t-32.5 81.5q0 53 37 89.5t92 36.5q51 0 83.5 -33t32.5 -82q0 -52 -45 -103l-131 -152h-27zM142 148q33 0 65 13q24 27 33.5 47t9.5 47q0 41 -28 69t-68 28q-46 0 -77.5 -31.5t-31.5 -76.5q0 -41 27 -68.5t70 -27.5z" />
    <glyph glyph-name="zero.numr" horiz-adv-x="315" 
d="M187 348q43 0 74 36.5t45 87t14 104.5q0 53 -22.5 84.5t-64.5 31.5q-43 0 -74 -36.5t-45 -87t-14 -104.5q0 -53 22.5 -84.5t64.5 -31.5zM187 330q-52 0 -79.5 36t-27.5 98q0 59 14.5 112.5t51 93.5t87.5 40q52 0 79.5 -36t27.5 -98q0 -59 -14.5 -112.5t-51 -93.5
t-87.5 -40z" />
    <glyph glyph-name="one.numr" horiz-adv-x="200" 
d="M95 630l3 21l107 49h10l-63 -360h-21l59 333z" />
    <glyph glyph-name="two.numr" horiz-adv-x="272" 
d="M110 640l-15 11q33 59 102 59q43 0 71.5 -27.5t28.5 -67.5q0 -54 -63 -112l-157 -145h180l-3 -18h-214l2 11l174 161q61 55 61 103q0 33 -23.5 55t-56.5 22q-54 0 -87 -52z" />
    <glyph glyph-name="three.numr" horiz-adv-x="270" 
d="M138 551l2 11l129 120h-159l3 18h192l-2 -11l-125 -116q48 -2 78 -36t30 -79q0 -52 -38 -90t-92 -38q-32 0 -62.5 15.5t-48.5 41.5l14 11q37 -50 97 -50q43 0 76.5 32.5t33.5 77.5q0 43 -27 70t-70 27q-13 0 -31 -4z" />
    <glyph glyph-name="four.numr" horiz-adv-x="298" 
d="M233 340l16 95h-199l2 10l255 255h10l-44 -247h65l-3 -18h-65l-16 -95h-21zM87 453h165l36 202z" />
    <glyph glyph-name="five.numr" horiz-adv-x="280" 
d="M97 526l-10 2l54 172h174l-3 -18h-158l-40 -123q26 16 61 16q50 0 82.5 -34t32.5 -83q0 -53 -38.5 -90.5t-92.5 -37.5q-67 0 -104 56l15 10q33 -48 89 -48q45 0 78 33t33 77q0 42 -27.5 70.5t-67.5 28.5t-78 -31z" />
    <glyph glyph-name="six.numr" horiz-adv-x="290" 
d="M273 700l-117 -135q20 5 42 5q52 0 84.5 -32.5t32.5 -81.5q0 -53 -37 -89.5t-92 -36.5q-51 0 -83.5 33t-32.5 82q0 52 45 103l131 152h27zM198 552q-32 0 -65 -13q-24 -27 -33.5 -47t-9.5 -47q0 -41 28 -69t68 -28q46 0 77.5 31.5t31.5 76.5q0 41 -27 68.5t-70 27.5z" />
    <glyph glyph-name="seven.numr" horiz-adv-x="249" 
d="M96 682l3 18h215l-2 -11l-221 -349h-21l215 342h-189z" />
    <glyph glyph-name="eight.numr" horiz-adv-x="276" 
d="M296 446q0 -50 -34 -83t-86 -33q-47 0 -79 30.5t-32 73.5q0 40 24.5 70.5t62.5 41.5q-38 23 -38 69q0 40 28.5 67.5t69.5 27.5q38 0 63.5 -25t25.5 -59q0 -31 -17.5 -54.5t-45.5 -33.5q58 -30 58 -92zM276 446q0 35 -27 60.5t-64 25.5q-42 0 -71 -28.5t-29 -69.5
q0 -36 26 -61t65 -25q44 0 72 28t28 70zM134 615q0 -26 20.5 -45.5t49.5 -19.5q31 0 54 22t23 54q0 26 -20 46t-49 20q-31 0 -54.5 -22.5t-23.5 -54.5z" />
    <glyph glyph-name="nine.numr" horiz-adv-x="295" 
d="M127 330l117 135q-20 -5 -42 -5q-52 0 -84.5 32.5t-32.5 81.5q0 53 37 89.5t92 36.5q51 0 83.5 -33t32.5 -82q0 -52 -45 -103l-131 -152h-27zM202 478q33 0 65 13q24 27 33.5 47t9.5 47q0 41 -28 69t-68 28q-46 0 -77.5 -31.5t-31.5 -76.5q0 -41 27 -68.5t70 -27.5z" />
    <glyph glyph-name="zero.dnom.zero" horiz-adv-x="315" 
d="M127 -10q-52 0 -79.5 36t-27.5 98q0 59 14.5 112.5t51 93.5t87.5 40q52 0 79.5 -36t27.5 -98q0 -59 -14.5 -112.5t-51 -93.5t-87.5 -40zM127 8q43 0 74 36.5t45 87t14 104.5q0 37 -10 61l-192 -252q23 -37 69 -37zM40 124q0 -36 9 -61l192 252q-23 37 -68 37
q-43 0 -74 -36.5t-45 -87t-14 -104.5z" />
    <glyph glyph-name="zero.numr.zero" horiz-adv-x="315" 
d="M187 330q-52 0 -79.5 36t-27.5 98q0 59 14.5 112.5t51 93.5t87.5 40q52 0 79.5 -36t27.5 -98q0 -59 -14.5 -112.5t-51 -93.5t-87.5 -40zM187 348q43 0 74 36.5t45 87t14 104.5q0 37 -10 61l-192 -252q23 -37 69 -37zM100 464q0 -36 9 -61l192 252q-23 37 -68 37
q-43 0 -74 -36.5t-45 -87t-14 -104.5z" />
    <glyph glyph-name="minus.tf" 
d="M493 251h-400l3 18h400z" />
    <glyph glyph-name="multiply.tf" 
d="M482 429l12 -13l-186 -157l127 -157l-14 -11l-127 156l-185 -156l-12 13l186 157l-127 157l14 11l127 -157z" />
    <glyph glyph-name="numbersign.tf" 
d="M159 240h-110l3 18h112l50 184h-110l3 18h112l65 240h19l-65 -240h191l65 240h19l-65 -240h110l-3 -18h-112l-50 -184h110l-3 -18h-112l-64 -240h-19l64 240h-191l-64 -240h-19zM233 442l-50 -184h191l50 184h-191z" />
    <glyph glyph-name="dollar.tf" 
d="M65 108l17 10q66 -110 202 -110q74 0 131 48.5t57 125.5q0 51 -31 88.5t-75.5 60.5l-89 46t-75.5 59t-31 85q0 87 62.5 138t146.5 51h5l19 105h19l-19 -106q75 -6 143 -65l-13 -14q-66 62 -154 62q-72 0 -130.5 -44.5t-58.5 -124.5q0 -39 22.5 -69.5t56 -49t72.5 -40
t72.5 -42t56 -57t22.5 -83.5q0 -81 -60 -136.5t-148 -55.5h-7l-19 -105h-19l19 106q-129 12 -193 117z" />
    <glyph glyph-name="plus.tf" 
d="M320 460l-34 -191h191l-3 -18h-191l-33 -191h-18l33 191h-191l3 18h191l34 191h18z" />
    <glyph glyph-name="less.tf" 
d="M456 102l-3 -19l-370 172l2 10l430 172l-4 -21l-394 -158z" />
    <glyph glyph-name="equal.tf" 
d="M477 162h-400l3 18h400zM509 342h-400l3 18h400z" />
    <glyph glyph-name="greater.tf" 
d="M132 418l3 19l370 -172l-2 -10l-430 -172l4 21l394 158z" />
    <glyph glyph-name="cent.tf" 
d="M445 74l13 -14q-68 -70 -168 -70q-4 0 -12 0.5t-11 0.5l-18 -106h-19l19 109q-77 13 -129 68.5t-52 136.5q0 101 69 171t171 70q3 0 9.5 -0.5t9.5 -0.5l19 106h19l-19 -108q86 -16 137 -79l-14 -12q-27 35 -69.5 55.5t-91.5 20.5q-93 0 -156.5 -65.5t-63.5 -157.5
q0 -80 59.5 -135.5t142.5 -55.5q94 0 155 66z" />
    <glyph glyph-name="sterling.tf" 
d="M124 363l3 18h88q-21 88 -21 129q0 83 55.5 141.5t140.5 58.5q51 0 94.5 -25.5t63.5 -66.5l-17 -9q-19 35 -56 59t-85 24q-75 0 -125.5 -53.5t-50.5 -128.5q0 -37 22 -129h126l-3 -18h-119q11 -59 11 -103q0 -77 -44.5 -140t-103.5 -102h375l-3 -18h-435l1 10
q74 29 132 101t58 150q0 50 -12 102h-95z" />
    <glyph glyph-name="section.tf" 
d="M474 234q0 35 -14 61t-40 43t-51.5 28t-62.5 25t-58 25q-63 -12 -107 -58t-44 -112q0 -35 13.5 -61t40 -43t52 -28t62 -25.5t58.5 -25.5q64 13 107.5 58.5t43.5 112.5zM389 -66q0 36 -17 62.5t-44.5 42.5t-61 29t-67 27t-61 32t-44.5 48t-17 71q0 66 41 116.5t107 67.5
q-63 41 -63 116t60 119.5t134 44.5q96 0 174 -66l-13 -14q-68 62 -161 62q-69 0 -121.5 -40t-52.5 -106q0 -36 17 -62.5t44.5 -42.5t61 -29t67 -27t61 -32t44.5 -48t17 -71q0 -66 -41.5 -116.5t-107.5 -67.5q64 -43 64 -116q0 -75 -60 -119.5t-134 -44.5q-96 0 -174 66
l13 14q68 -62 161 -62q69 0 121.5 40t52.5 106z" />
    <glyph glyph-name="notequal.tf" 
d="M509 342h-144l-121 -162h236l-3 -18h-247l-78 -105h-21l78 105h-132l3 18h143l121 162h-235l3 18h245l79 105h21l-79 -105h134z" />
    <glyph glyph-name="plusminus.tf" 
d="M63 78h400l-3 -18h-400zM321 460h18l-29 -167h190l-3 -18h-190l-29 -167h-18l29 167h-192l3 18h192z" />
    <glyph glyph-name="lessequal.tf" 
d="M63 78h400l-3 -18h-400zM476 151l-4 -20l-382 154l2 10l437 154l-4 -20l-395 -140z" />
    <glyph glyph-name="greaterequal.tf" 
d="M63 78h400l-3 -18h-400zM126 429l4 20l382 -154l-2 -10l-437 -154l4 20l395 140z" />
    <glyph glyph-name="yen.tf" 
d="M68 279h219l12 66l-37 76h-169l3 18h157l-126 261h22l162 -333l280 333h26l-220 -261h159l-3 -18h-171l-64 -77l-12 -65h222l-3 -18h-222l-45 -261h-19l45 261h-219z" />
    <glyph glyph-name="mu.tf" 
d="M151 430l-38 -214q-7 -42 -7 -62q0 -67 42.5 -106.5t104.5 -39.5q59 0 107 34t79 84l54 304h19l-76 -430h-19l15 87q-31 -44 -79 -70.5t-100 -26.5q-58 0 -101.5 30t-58.5 83l-60 -343h-19l118 670h19z" />
    <glyph glyph-name="partialdiff.tf" 
d="M512 226q0 -99 -71 -167.5t-170 -68.5q-94 0 -156 61.5t-62 152.5q0 99 71 167.5t170 68.5q83 0 140 -42l-144 312h22l168 -363q32 -69 32 -121zM492 226q0 47 -27 106l-11 23q-62 67 -160 67q-90 0 -155.5 -63.5t-65.5 -154.5q0 -83 57 -139.5t141 -56.5
q90 0 155.5 63.5t65.5 154.5z" />
    <glyph glyph-name="summation.tf" 
d="M542 520l29 162h-417l249 -316l-2 -10l-372 -338h435l29 162h19l-32 -180h-490l1 10l389 353l-259 327l2 10h470l-32 -180h-19z" />
    <glyph glyph-name="product.tf" 
d="M599 682h-100l-120 -682h-19l120 682h-231l-120 -682h-19l120 682h-100l3 18h469z" />
    <glyph glyph-name="pi.tf" 
d="M137 0l72 410q-64 -2 -104 -54l-16 12q28 35 73 52q30 10 64 10h315l-3 -18h-100l-45 -257q-7 -38 -7 -59q0 -62 45 -90l-9 -16q-55 32 -55 104q0 22 7 61l45 257h-191l-72 -412h-19z" />
    <glyph glyph-name="integral.tf" 
d="M343 559q-26 -120 -53 -332.5t-52 -330.5q-16 -74 -60 -111q-43 -35 -102 -35q-43 0 -82 21l9 17q34 -20 73 -20q51 0 88 31q40 32 55 102q26 120 53 332.5t52 330.5q16 74 60 111q43 35 102 35q43 0 82 -21l-9 -17q-34 20 -73 20q-51 0 -88 -31q-40 -32 -55 -102z" />
    <glyph glyph-name="logicalnot.tf" 
d="M477 162h-18l32 180h-382l3 18h400z" />
    <glyph glyph-name="radical.tf" 
d="M621 700h23l-374 -700h-9l-99 412h-101l3 18h114l93 -385z" />
    <glyph glyph-name="florin.tf" 
d="M343 559q-19 -86 -32 -178h169l-3 -18h-169q-8 -51 -19.5 -143.5t-23 -170.5t-27.5 -153q-16 -74 -60 -111q-43 -35 -102 -35q-43 0 -82 21l9 17q34 -20 73 -20q51 0 88 31q40 32 55 102q16 75 27.5 149.5t24 172t18.5 140.5h-137l3 18h136q17 111 33 183q16 74 60 111
q43 35 102 35q43 0 82 -21l-9 -17q-34 20 -73 20q-51 0 -88 -31q-40 -32 -55 -102z" />
    <glyph glyph-name="asciicircum.tf" 
d="M353 700h9l114 -350h-21l-102 314l-214 -314h-23z" />
    <glyph glyph-name="asciitilde.tf" 
d="M109 219l-18 6q38 89 109 89q34 0 63.5 -22t57.5 -44t56 -22q55 0 91 77l18 -6q-38 -89 -109 -89q-34 0 -63.5 22t-57.5 44t-56 22q-55 0 -91 -77z" />
    <glyph glyph-name="approxequal.tf" 
d="M93 130l-18 6q38 89 109 89q34 0 63.5 -22t57.5 -44t56 -22q55 0 91 77l18 -6q-38 -89 -109 -89q-34 0 -63.5 22t-57.5 44t-56 22q-55 0 -91 -77zM125 308l-18 6q38 89 109 89q34 0 63.5 -22t57.5 -44t56 -22q55 0 91 77l18 -6q-38 -89 -109 -89q-34 0 -63.5 22t-57.5 44
t-56 22q-55 0 -91 -77z" />
    <glyph glyph-name="Delta.tf" 
d="M363 700h9l145 -690l-1 -10h-542l1 10zM361 657l-359 -639h493z" />
    <glyph glyph-name="Euro.tf" 
d="M399 261h-308q17 -107 85 -180t176 -73q126 0 203 97l15 -12q-84 -103 -220 -103q-111 0 -186.5 74.5t-92.5 196.5h-84l3 18h78q-2 34 -2 52q0 47 9 90h-60l3 18h61q30 118 113.5 194.5t190.5 76.5q132 0 212 -111l-16 -11q-70 104 -196 104q-98 0 -176 -71.5
t-107 -181.5h330l-3 -18h-332q-9 -43 -9 -90q0 -35 2 -52h314z" />
    <glyph glyph-name="lozenge.tf" 
d="M516 354l-150 316l-269 -324l150 -316zM373 700l164 -345l-2 -10l-286 -345h-9l-164 345l2 10l286 345h9z" />
    <glyph glyph-name="divide.tf" 
d="M229 85q0 14 10.5 24.5t24.5 10.5t24.5 -10.5t10.5 -24.5t-10.5 -24.5t-24.5 -10.5t-24.5 10.5t-10.5 24.5zM291 435q0 14 10.5 24.5t24.5 10.5t24.5 -10.5t10.5 -24.5t-10.5 -24.5t-24.5 -10.5t-24.5 10.5t-10.5 24.5zM493 251h-400l3 18h400z" />
    <glyph glyph-name="quotedbl.tf" 
d="M258 465h-19l42 235h19zM428 465h-19l42 235h19z" />
    <glyph glyph-name="quotesingle.tf" 
d="M338 465h-19l42 235h19z" />
    <glyph glyph-name="minus.osf" horiz-adv-x="523" 
d="M460 221h-400l3 18h400z" />
    <glyph glyph-name="multiply.osf" horiz-adv-x="482" 
d="M440 399l12 -13l-186 -157l127 -157l-14 -11l-127 156l-185 -156l-12 13l186 157l-127 157l14 11l127 -157z" />
    <glyph glyph-name="plus.osf" horiz-adv-x="523" 
d="M306 430l-34 -191h191l-3 -18h-191l-33 -191h-18l33 191h-191l3 18h191l34 191h18z" />
    <glyph glyph-name="less.osf" horiz-adv-x="523" 
d="M423 72l-3 -19l-370 172l2 10l430 172l-4 -21l-394 -158z" />
    <glyph glyph-name="equal.osf" horiz-adv-x="523" 
d="M444 132h-400l3 18h400zM476 312h-400l3 18h400z" />
    <glyph glyph-name="greater.osf" horiz-adv-x="523" 
d="M100 388l3 19l370 -172l-2 -10l-430 -172l4 21l394 158z" />
    <glyph glyph-name="notequal.osf" horiz-adv-x="523" 
d="M476 312h-144l-121 -162h236l-3 -18h-247l-78 -105h-21l78 105h-132l3 18h143l121 162h-235l3 18h245l79 105h21l-79 -105h134z" />
    <glyph glyph-name="plusminus.osf" horiz-adv-x="523" 
d="M30 48h400l-3 -18h-400zM288 430h18l-29 -167h190l-3 -18h-190l-29 -167h-18l29 167h-192l3 18h192z" />
    <glyph glyph-name="lessequal.osf" horiz-adv-x="523" 
d="M30 48h400l-3 -18h-400zM443 121l-4 -20l-382 154l2 10l437 154l-4 -20l-395 -140z" />
    <glyph glyph-name="greaterequal.osf" horiz-adv-x="523" 
d="M30 48h400l-3 -18h-400zM93 399l4 20l382 -154l-2 -10l-437 -154l4 20l395 140z" />
    <glyph glyph-name="logicalnot.osf" horiz-adv-x="523" 
d="M444 132h-18l32 180h-382l3 18h400z" />
    <glyph glyph-name="divide.osf" horiz-adv-x="523" 
d="M196 55q0 14 10.5 24.5t24.5 10.5t24.5 -10.5t10.5 -24.5t-10.5 -24.5t-24.5 -10.5t-24.5 10.5t-10.5 24.5zM258 405q0 14 10.5 24.5t24.5 10.5t24.5 -10.5t10.5 -24.5t-10.5 -24.5t-24.5 -10.5t-24.5 10.5t-10.5 24.5zM460 221h-400l3 18h400z" />
    <glyph glyph-name="minus.tosf" 
d="M487 221h-400l3 18h400z" />
    <glyph glyph-name="multiply.tosf" 
d="M480 399l12 -13l-186 -157l127 -157l-14 -11l-127 156l-185 -156l-12 13l186 157l-127 157l14 11l127 -157z" />
    <glyph glyph-name="plus.tosf" 
d="M333 430l-34 -191h191l-3 -18h-191l-33 -191h-18l33 191h-191l3 18h191l34 191h18z" />
    <glyph glyph-name="less.tosf" 
d="M450 72l-3 -19l-370 172l2 10l430 172l-4 -21l-394 -158z" />
    <glyph glyph-name="equal.tosf" 
d="M471 132h-400l3 18h400zM503 312h-400l3 18h400z" />
    <glyph glyph-name="greater.tosf" 
d="M127 388l3 19l370 -172l-2 -10l-430 -172l4 21l394 158z" />
    <glyph glyph-name="notequal.tosf" 
d="M503 312h-144l-121 -162h236l-3 -18h-247l-78 -105h-21l78 105h-132l3 18h143l121 162h-235l3 18h245l79 105h21l-79 -105h134z" />
    <glyph glyph-name="plusminus.tosf" 
d="M56 48h400l-3 -18h-400zM314 430h18l-29 -167h190l-3 -18h-190l-29 -167h-18l29 167h-192l3 18h192z" />
    <glyph glyph-name="lessequal.tosf" 
d="M56 48h400l-3 -18h-400zM469 121l-4 -20l-382 154l2 10l437 154l-4 -20l-395 -140z" />
    <glyph glyph-name="greaterequal.tosf" 
d="M56 48h400l-3 -18h-400zM119 399l4 20l382 -154l-2 -10l-437 -154l4 20l395 140z" />
    <glyph glyph-name="logicalnot.tosf" 
d="M471 132h-18l32 180h-382l3 18h400z" />
    <glyph glyph-name="divide.tosf" 
d="M223 55q0 14 10.5 24.5t24.5 10.5t24.5 -10.5t10.5 -24.5t-10.5 -24.5t-24.5 -10.5t-24.5 10.5t-10.5 24.5zM285 405q0 14 10.5 24.5t24.5 10.5t24.5 -10.5t10.5 -24.5t-10.5 -24.5t-24.5 -10.5t-24.5 10.5t-10.5 24.5zM487 221h-400l3 18h400z" />
    <glyph glyph-name="at.case" horiz-adv-x="1020" 
d="M780 145q-39 0 -71.5 18.5t-40.5 53.5q-61 -72 -153 -72q-81 0 -134.5 53.5t-53.5 132.5q0 86 61.5 145t148.5 59q101 0 162 -82l13 73h19l-39 -224q-7 -37 -7 -59q0 -38 26.5 -59t68.5 -21q74 0 118.5 61t44.5 157q0 165 -120 273t-283 108q-112 0 -208 -56
t-152.5 -153.5t-56.5 -212.5q0 -176 123 -299t295 -123q135 0 241 82l11 -16q-109 -84 -253 -84q-181 0 -309 129t-128 311t128 311t309 129q114 0 210.5 -51.5t154.5 -143.5t58 -204q0 -99 -49 -167.5t-134 -68.5zM515 163q90 0 150 75q0 19 7 61l22 130q-23 37 -63.5 62.5
t-93.5 25.5q-78 0 -134 -54t-56 -132q0 -72 48 -120t120 -48z" />
    <glyph glyph-name="amacron.ss01" horiz-adv-x="478" 
d="M185 571h240v-18h-240v18zM356 122l13 74q-41 28 -73 38.5t-74 10.5q-66 0 -116.5 -36t-50.5 -94q0 -47 36.5 -77t87.5 -30q104 0 177 114zM372 217l6 28q6 30 6 52q0 55 -38 90t-97 35q-77 0 -135 -48l-11 15q66 51 146 51q64 0 109 -38.5t45 -104.5q0 -23 -7 -58
l-42 -239h-19l15 86q-64 -96 -169 -96q-58 0 -102 33t-44 92q0 68 57.5 108t129.5 40q84 0 150 -46z" />
    <glyph glyph-name="abreve.ss01" horiz-adv-x="478" 
d="M418 635h18q0 -47 -34 -81t-81 -34t-81 34t-34 81h18q0 -41 28 -69t69 -28t69 28t28 69zM356 122l13 74q-41 28 -73 38.5t-74 10.5q-66 0 -116.5 -36t-50.5 -94q0 -47 36.5 -77t87.5 -30q104 0 177 114zM372 217l6 28q6 30 6 52q0 55 -38 90t-97 35q-77 0 -135 -48
l-11 15q66 51 146 51q64 0 109 -38.5t45 -104.5q0 -23 -7 -58l-42 -239h-19l15 86q-64 -96 -169 -96q-58 0 -102 33t-44 92q0 68 57.5 108t129.5 40q84 0 150 -46z" />
    <glyph glyph-name="aogonek.ss01" horiz-adv-x="478" 
d="M372 217l6 28q6 30 6 52q0 55 -38 90t-97 35q-77 0 -135 -48l-11 15q66 51 146 51q64 0 109 -38.5t45 -104.5q0 -23 -7 -58l-42 -239q-32 -51 -32 -105q0 -43 22 -70t61 -27q26 0 42 8l5 -17q-18 -9 -45 -9q-50 0 -77.5 31.5t-27.5 81.5q0 61 34 112l14 81
q-64 -96 -169 -96q-58 0 -102 33t-44 92q0 68 57.5 108t129.5 40q84 0 150 -46zM356 122l13 74q-41 28 -73 38.5t-74 10.5q-66 0 -116.5 -36t-50.5 -94q0 -47 36.5 -77t87.5 -30q104 0 177 114z" />
    <glyph glyph-name="aringacute.ss01" horiz-adv-x="478" 
d="M257 600q0 33 23.5 56.5t56.5 23.5t56.5 -23.5t23.5 -56.5t-23.5 -56.5t-56.5 -23.5t-56.5 23.5t-23.5 56.5zM275 600q0 -26 18.5 -44t43.5 -18t43.5 18t18.5 44t-18.5 44t-43.5 18t-43.5 -18t-18.5 -44zM431 840h22l-97 -130h-22zM356 122l13 74q-41 28 -73 38.5
t-74 10.5q-66 0 -116.5 -36t-50.5 -94q0 -47 36.5 -77t87.5 -30q104 0 177 114zM372 217l6 28q6 30 6 52q0 55 -38 90t-97 35q-77 0 -135 -48l-11 15q66 51 146 51q64 0 109 -38.5t45 -104.5q0 -23 -7 -58l-42 -239h-19l15 86q-64 -96 -169 -96q-58 0 -102 33t-44 92
q0 68 57.5 108t129.5 40q84 0 150 -46z" />
    <glyph glyph-name="aeacute.ss01" horiz-adv-x="835" 
d="M521 640h22l-97 -130h-22zM739 72l13 -15q-69 -67 -167 -67q-76 0 -131.5 43t-73.5 118l-26 -151h-19l15 86q-64 -96 -169 -96q-58 0 -102 33t-44 92q0 68 57.5 108t129.5 40q84 0 150 -46l6 28q6 30 6 52q0 55 -38 90t-97 35q-77 0 -135 -48l-11 15q66 51 146 51
q58 0 102 -33t51 -91q28 57 78.5 90.5t113.5 33.5q80 0 135.5 -53.5t55.5 -135.5q0 -15 -1 -23h-388q-1 -9 -1 -29q0 -79 52 -135t139 -56q84 0 153 64zM356 122l13 74q-41 28 -73 38.5t-74 10.5q-66 0 -116.5 -36t-50.5 -94q0 -47 36.5 -77t87.5 -30q104 0 177 114z
M594 422q-73 0 -126.5 -50t-68.5 -126h366q0 79 -49.5 127.5t-121.5 48.5z" />
    <glyph glyph-name="asterisk.ss06" horiz-adv-x="490" 
d="M264 320h-19l36 197l-198 -62l-6 17l205 64l-90 159l16 9l91 -159l139 159l14 -12l-141 -161l170 -58l-6 -18l-176 61z" />
    <glyph glyph-name="asterisk.ss07" horiz-adv-x="490" 
d="M483 519l-3 -18h-175l62 -150l-19 -8l-60 146l-114 -146l-16 12l112 146h-175l3 18h175l-62 150l19 8l60 -146l114 146l16 -12l-112 -146h175z" />
    <glyph glyph-name="asterisk.ss08" horiz-adv-x="490" 
d="M98 519h165l-3 -18h-165zM480 501h-165l3 18h165zM282 481l-108 -138l-16 12l106 138zM308 493l59 -142l-19 -8l-57 138zM230 677l56 -138l-17 -12l-58 142zM419 665l-105 -138l-18 12l108 138z" />
    <glyph glyph-name="asterisk.ss09" horiz-adv-x="490" 
d="M316 543l115 98l12 -14l-115 -98zM178 659l97 -118l-14 -12l-97 119zM298 501l-32 -181h-19l32 181h19zM282 519l32 181h19l-32 -181h-19zM480 501h-182l3 18h182zM95 501l3 18h184l-3 -18h-184zM264 477l-115 -98l-12 14l115 98zM402 361l-98 118l14 12l98 -119z" />
    <glyph glyph-name="f.ss02" horiz-adv-x="400" 
d="M419 412h-215l-73 -412h-19l73 412h-140l3 18h140l19 109q11 62 24 90q20 41 58.5 66t90.5 25q46 0 90 -25l-9 -16q-39 23 -81 23q-89 0 -130 -76q-12 -25 -24 -87l-19 -109h215z" />
    <glyph glyph-name="j.ss02" horiz-adv-x="234" 
d="M164 590q0 13 8.5 21.5t21.5 8.5t21.5 -8.5t8.5 -21.5t-8.5 -21.5t-21.5 -8.5t-21.5 8.5t-8.5 21.5zM157 430h19l-84 -478q-11 -62 -24 -90q-20 -41 -58 -66t-91 -25q-37 0 -69 12l8 17q29 -11 61 -11q89 0 130 76q15 29 24 87z" />
    <glyph glyph-name="t.ss02" horiz-adv-x="417" 
d="M345 25l7 -17q-32 -18 -82 -18q-62 0 -101 36.5t-39 86.5q0 18 8 60l42 239h-140l3 18h140l23 130h19l-23 -130h225l-3 -18h-225l-42 -239q-7 -37 -7 -58q0 -43 32.5 -75t87.5 -32q41 0 75 17z" />
    <glyph glyph-name="fi.ss02" horiz-adv-x="607" 
d="M188 430l19 109q11 62 24 90q20 41 58.5 66t90.5 25q46 0 90 -25l-9 -16q-39 23 -81 23q-89 0 -130 -76q-12 -25 -24 -87l-19 -109h341l-76 -430h-19l72 412h-321l-73 -412h-19l73 412h-140l3 18h140zM536 590q0 13 8.5 21.5t21.5 8.5t21.5 -8.5t8.5 -21.5t-8.5 -21.5
t-21.5 -8.5t-21.5 8.5t-8.5 21.5z" />
    <glyph glyph-name="fl.ss02" horiz-adv-x="607" 
d="M188 430l19 109q11 62 24 90q20 41 58.5 66t90.5 25q46 0 90 -25l-9 -16q-39 23 -81 23q-89 0 -130 -76q-12 -25 -24 -87l-19 -109h321l50 280h19l-125 -710h-19l72 412h-321l-73 -412h-19l73 412h-140l3 18h140z" />
    <glyph glyph-name="uniFB00.ss02" horiz-adv-x="785" 
d="M573 430l19 109q11 62 24 90q20 41 58 66t91 25q46 0 90 -25l-9 -16q-39 23 -81 23q-89 0 -130 -76q-12 -25 -24 -87l-19 -109h215l-3 -18h-215l-73 -412h-19l73 412h-366l-73 -412h-19l73 412h-140l3 18h140l19 109q11 62 24 90q20 41 58.5 66t90.5 25q46 0 90 -25
l-9 -16q-39 23 -81 23q-89 0 -130 -76q-12 -25 -24 -87l-19 -109h366z" />
    <glyph glyph-name="uniFB03.ss02" horiz-adv-x="992" 
d="M207 430h366l19 109q11 62 24 90q20 41 58 66t91 25q46 0 90 -25l-9 -16q-39 23 -81 23q-89 0 -130 -76q-12 -25 -24 -87l-19 -109h341l-76 -430h-19l72 412h-321l-73 -412h-19l73 412h-366l-73 -412h-19l73 412h-140l3 18h140l19 109q11 62 24 90q20 41 58.5 66t90.5 25
q46 0 90 -25l-9 -16q-39 23 -81 23q-89 0 -130 -76q-12 -25 -24 -87zM921 590q0 13 8.5 21.5t21.5 8.5t21.5 -8.5t8.5 -21.5t-8.5 -21.5t-21.5 -8.5t-21.5 8.5t-8.5 21.5z" />
    <glyph glyph-name="uniFB04.ss02" horiz-adv-x="992" 
d="M207 430h366l19 109q11 62 24 90q20 41 58 66t91 25q46 0 90 -25l-9 -16q-39 23 -81 23q-89 0 -130 -76q-12 -25 -24 -87l-19 -109h321l50 280h19l-125 -710h-19l72 412h-321l-73 -412h-19l73 412h-366l-73 -412h-19l73 412h-140l3 18h140l19 109q11 62 24 90
q20 41 58.5 66t90.5 25q46 0 90 -25l-9 -16q-39 23 -81 23q-89 0 -130 -76q-12 -25 -24 -87z" />
    <glyph glyph-name="tbar.ss02" horiz-adv-x="417" 
d="M345 25l7 -17q-32 -18 -82 -18q-62 0 -101 36.5t-39 86.5q0 18 8 60l9 54h-139l3 18h139l30 167h-140l3 18h140l23 130h19l-23 -130h225l-3 -18h-225l-30 -167h226l-3 -18h-226l-9 -54q-7 -37 -7 -58q0 -43 32.5 -75t87.5 -32q41 0 75 17z" />
    <glyph glyph-name="ij.ss02" horiz-adv-x="440" 
d="M135 590q0 13 8.5 21.5t21.5 8.5t21.5 -8.5t8.5 -21.5t-8.5 -21.5t-21.5 -8.5t-21.5 8.5t-8.5 21.5zM128 430h19l-76 -430h-19zM370 590q0 13 8.5 21.5t21.5 8.5t21.5 -8.5t8.5 -21.5t-8.5 -21.5t-21.5 -8.5t-21.5 8.5t-8.5 21.5zM363 430h19l-84 -478q-11 -62 -24 -90
q-20 -41 -58 -66t-91 -25q-37 0 -69 12l8 17q29 -11 61 -11q89 0 130 76q15 29 24 87z" />
    <glyph glyph-name="tcommaaccent.ss02" horiz-adv-x="417" 
d="M229 -40h22l-97 -130h-22zM345 25l7 -17q-32 -18 -82 -18q-62 0 -101 36.5t-39 86.5q0 18 8 60l42 239h-140l3 18h140l23 130h19l-23 -130h225l-3 -18h-225l-42 -239q-7 -37 -7 -58q0 -43 32.5 -75t87.5 -32q41 0 75 17z" />
    <glyph glyph-name="tcaron.ss02" horiz-adv-x="417" 
d="M384 700h22l-97 -130h-22zM345 25l7 -17q-32 -18 -82 -18q-62 0 -101 36.5t-39 86.5q0 18 8 60l42 239h-140l3 18h140l23 130h19l-23 -130h225l-3 -18h-225l-42 -239q-7 -37 -7 -58q0 -43 32.5 -75t87.5 -32q41 0 75 17z" />
    <glyph glyph-name="jcircumflex.ss02" horiz-adv-x="234" 
d="M157 430h19l-84 -478q-11 -62 -24 -90q-20 -41 -58 -66t-91 -25q-37 0 -69 12l8 17q29 -11 61 -11q89 0 130 76q15 29 24 87zM170 640h31l79 -130h-22l-72 118l-113 -118h-28z" />
    <glyph glyph-name="uni0237.ss02" horiz-adv-x="234" 
d="M157 430h19l-84 -478q-11 -62 -24 -90q-20 -41 -58 -66t-91 -25q-37 0 -69 12l8 17q29 -11 61 -11q89 0 130 76q15 29 24 87z" />
    <glyph glyph-name="r.ss02" horiz-adv-x="338" 
d="M338 435l-5 -17q-16 4 -30 4q-104 0 -178 -118l-54 -304h-19l76 430h19l-14 -83q63 93 170 93q20 0 35 -5z" />
    <glyph glyph-name="racute.ss02" horiz-adv-x="338" 
d="M286 640h22l-97 -130h-22zM338 435l-5 -17q-16 4 -30 4q-104 0 -178 -118l-54 -304h-19l76 430h19l-14 -83q63 93 170 93q20 0 35 -5z" />
    <glyph glyph-name="rcaron.ss02" horiz-adv-x="338" 
d="M260 520h-31l-79 130h22l72 -118l113 118h28zM338 435l-5 -17q-16 4 -30 4q-104 0 -178 -118l-54 -304h-19l76 430h19l-14 -83q63 93 170 93q20 0 35 -5z" />
    <glyph glyph-name="rcommaaccent.ss02" horiz-adv-x="338" 
d="M44 -40h22l-97 -130h-22zM338 435l-5 -17q-16 4 -30 4q-104 0 -178 -118l-54 -304h-19l76 430h19l-14 -83q63 93 170 93q20 0 35 -5z" />
    </font>
</defs>
</svg>
