<?xml version="1.0" standalone="no"?>
<!DOCTYPE svg PUBLIC "-//W3C//DTD SVG 1.1//EN" "http://www.w3.org/Graphics/SVG/1.1/DTD/svg11.dtd" >
<svg xmlns="http://www.w3.org/2000/svg" xmlns:xlink="http://www.w3.org/1999/xlink" version="1.1">
<metadata>
Created by FontForge 20170731 at Tue May 18 13:33:39 2010
 By Aleksey,,,
Generated in 2010 by FontLab Studio. Copyright info pending.
</metadata>
<defs>
<font id="Brown-BoldBackslanted-Alt" horiz-adv-x="590" >
  <font-face 
    font-family="Brown"
    font-weight="700"
    font-style="oblique"
    font-stretch="normal"
    units-per-em="1000"
    panose-1="0 0 0 0 0 0 0 0 0 0"
    ascent="800"
    descent="-200"
    x-height="475"
    cap-height="700"
    bbox="-153 -250 1410 1150"
    underline-thickness="100"
    underline-position="-300"
    slope="10"
    unicode-range="U+000D-FB04"
  />
<missing-glyph horiz-adv-x="570" 
d="M75 0v700h420v-700h-420zM195 585v-470h180v470h-180z" />
    <glyph glyph-name="uniFB00" unicode="ff" horiz-adv-x="823" 
d="M724 725l-13 -113q-18 3 -34 3q-37 0 -60.5 -18.5t-23.5 -49.5q0 -12 7 -52l4 -20h154l20 -110h-155l65 -365h-131l-65 365h-231l65 -365h-131l-65 365h-125l-20 110h125q-8 43 -8 71q0 79 59.5 131.5t137.5 52.5q37 0 63 -5l-13 -113q-18 3 -34 3q-37 0 -60.5 -18.5
t-23.5 -49.5q0 -12 7 -52l4 -20h230q-8 43 -8 71q0 79 59.5 131.5t137.5 52.5q37 0 63 -5z" />
    <glyph glyph-name="fi" unicode="fi" horiz-adv-x="718" 
d="M362 725l-13 -113q-18 3 -34 3q-37 0 -60.5 -18.5t-23.5 -49.5q0 -12 7 -52l4 -20h362l84 -475h-131l-65 365h-231l65 -365h-131l-65 365h-125l-20 110h125q-8 43 -8 71q0 79 59.5 131.5t137.5 52.5q37 0 63 -5zM593 647q0 -35 -25 -59t-60 -24t-60 24t-25 59t25 59
t60 24t60 -24t25 -59z" />
    <glyph glyph-name="fl" unicode="fl" horiz-adv-x="718" 
d="M562 710l126 -710h-131l-65 365h-231l65 -365h-131l-65 365h-125l-20 110h125q-8 43 -8 71q0 79 59.5 131.5t137.5 52.5q37 0 63 -5l-13 -113q-18 3 -34 3q-37 0 -60.5 -18.5t-23.5 -49.5q0 -12 7 -52l4 -20h230l-41 235h131z" />
    <glyph glyph-name="uniFB03" unicode="ffi" horiz-adv-x="1080" 
d="M724 725l-13 -113q-18 3 -34 3q-37 0 -60.5 -18.5t-23.5 -49.5q0 -12 7 -52l4 -20h362l84 -475h-131l-65 365h-231l65 -365h-131l-65 365h-231l65 -365h-131l-65 365h-125l-20 110h125q-8 43 -8 71q0 79 59.5 131.5t137.5 52.5q37 0 63 -5l-13 -113q-18 3 -34 3
q-37 0 -60.5 -18.5t-23.5 -49.5q0 -12 7 -52l4 -20h230q-8 43 -8 71q0 79 59.5 131.5t137.5 52.5q37 0 63 -5zM955 647q0 -35 -25 -59t-60 -24t-60 24t-25 59t25 59t60 24t60 -24t25 -59z" />
    <glyph glyph-name="uniFB04" unicode="ffl" horiz-adv-x="1080" 
d="M724 725l-13 -113q-18 3 -34 3q-37 0 -60.5 -18.5t-23.5 -49.5q0 -12 7 -52l4 -20h362l84 -475h-131l-65 365h-231l65 -365h-131l-65 365h-231l65 -365h-131l-65 365h-125l-20 110h125q-8 43 -8 71q0 79 59.5 131.5t137.5 52.5q37 0 63 -5l-13 -113q-18 3 -34 3
q-37 0 -60.5 -18.5t-23.5 -49.5q0 -12 7 -52l4 -20h230q-8 43 -8 71q0 79 59.5 131.5t137.5 52.5q37 0 63 -5zM955 647q0 -35 -25 -59t-60 -24t-60 24t-25 59t25 59t60 24t60 -24t25 -59z" />
    <glyph glyph-name=".notdef" horiz-adv-x="570" 
d="M75 0v700h420v-700h-420zM195 585v-470h180v470h-180z" />
    <glyph glyph-name=".null" horiz-adv-x="0" 
 />
    <glyph glyph-name=".null" horiz-adv-x="0" 
 />
    <glyph glyph-name="nonmarkingreturn" horiz-adv-x="333" 
 />
    <glyph glyph-name="CR" unicode="&#xd;" horiz-adv-x="250" 
 />
    <glyph glyph-name="space" unicode=" " horiz-adv-x="245" 
 />
    <glyph glyph-name="exclam" unicode="!" horiz-adv-x="383" 
d="M45 700h131l40 -225l23 -245h-90l-64 245zM308 75q0 -37 -25 -61t-62 -24t-62.5 24.5t-25.5 60.5q0 37 25.5 61.5t62.5 24.5t62 -24.5t25 -61.5z" />
    <glyph glyph-name="quotedbl" unicode="&#x22;" horiz-adv-x="459" 
d="M259 455l-64 245h131l23 -245h-90zM49 455l-64 245h131l23 -245h-90z" />
    <glyph glyph-name="numbersign" unicode="#" horiz-adv-x="699" 
d="M279 405l-30 -110h126l30 110h-126zM55 515h140l49 185h114l-49 -185h126l49 185h114l-49 -185h90l20 -110h-139l-31 -110h90l24 -110h-143l-49 -185h-114l49 185h-126l-49 -185h-114l49 185h-90l-20 110h139l30 110h-90z" />
    <glyph glyph-name="dollar" unicode="$" horiz-adv-x="537" 
d="M35 95l80 91q31 -33 73.5 -54.5t84.5 -21.5q44 0 71.5 23t27.5 60q0 30 -20.5 51.5t-53.5 35t-72.5 25.5t-79 27.5t-72.5 37t-53.5 58.5t-20.5 87q0 59 35 107t95 71l-22 122h121l19 -106q92 -7 164 -61l-74 -96q-45 38 -104 38q-42 0 -70.5 -21t-28.5 -54
q0 -29 27.5 -50t69 -32.5t89.5 -30t89.5 -40.5t69 -66.5t27.5 -105.5t-37.5 -109.5t-97.5 -72.5l22 -123h-121l-19 106q-129 9 -219 104z" />
    <glyph glyph-name="percent" unicode="%" horiz-adv-x="904" 
d="M337 0h-103l288 700h103zM253 518q0 36 -22.5 59t-54.5 23q-29 0 -47.5 -19.5t-18.5 -48.5q0 -36 22.5 -59t54.5 -23q29 0 47.5 19.5t18.5 48.5zM-10 532q0 75 54 126.5t132 51.5q81 0 139 -55t58 -137q0 -75 -54 -126.5t-132 -51.5q-81 0 -139 55t-58 137zM749 168
q0 36 -22.5 59t-54.5 23q-29 0 -47.5 -19.5t-18.5 -48.5q0 -36 22.5 -59t54.5 -23q29 0 47.5 19.5t18.5 48.5zM486 182q0 75 54 126.5t132 51.5q81 0 139 -55t58 -137q0 -75 -54 -126.5t-132 -51.5q-81 0 -139 55t-58 137z" />
    <glyph glyph-name="ampersand" unicode="&#x26;" horiz-adv-x="680" 
d="M493 271q0 42 -15.5 89.5t-26.5 65.5l113 48q5 -6 17 -34.5t24.5 -77.5t12.5 -91q0 -75 -36 -137l143 -134h-178l-47 44q-78 -54 -186 -54q-117 0 -198 67.5t-81 170.5q0 105 81 177q-76 78 -76 143q0 70 51 116t121 46q68 0 120.5 -46.5t52.5 -118.5q0 -82 -78 -153
l179 -168q7 20 7 47zM165 228q0 -49 41 -83.5t108 -34.5q52 0 93 21l-200 189q-42 -39 -42 -92zM255 545q0 18 -13 31.5t-30 13.5q-18 0 -30 -12t-12 -30q0 -30 46 -72q39 37 39 69z" />
    <glyph glyph-name="quotesingle" unicode="'" horiz-adv-x="249" 
d="M49 455l-64 245h131l23 -245h-90z" />
    <glyph glyph-name="parenleft" unicode="(" horiz-adv-x="456" 
d="M466 -130l-89 -80q-230 264 -230 563q0 197 87 357l100 -61q-67 -137 -67 -296q0 -130 53.5 -255t145.5 -228z" />
    <glyph glyph-name="parenright" unicode=")" horiz-adv-x="456" 
d="M-15 630l89 80q230 -264 230 -563q0 -197 -87 -357l-100 61q67 137 67 296q0 131 -53.5 255.5t-145.5 227.5z" />
    <glyph glyph-name="asterisk" unicode="*" horiz-adv-x="516" 
d="M387 599l38 -104l-112 -40l104 -111l-81 -74l-106 113l-62 -113l-98 52l67 122l-164 50l33 105l142 -44l-25 145h111l25 -146z" />
    <glyph glyph-name="plus" unicode="+" horiz-adv-x="570" 
d="M324 335h175l19 -110h-175l31 -175h-111l-31 175h-175l-19 110h175l-32 175h111z" />
    <glyph glyph-name="comma" unicode="," horiz-adv-x="375" 
d="M165 155h140l-105 -295h-90z" />
    <glyph glyph-name="hyphen" unicode="-" horiz-adv-x="490" 
d="M69 315h330l19 -110h-330z" />
    <glyph glyph-name="period" unicode="." horiz-adv-x="375" 
d="M130 75q0 37 25 61.5t62 24.5t62.5 -24.5t25.5 -61.5q0 -36 -25.5 -60.5t-62.5 -24.5t-62 24t-25 61z" />
    <glyph glyph-name="slash" unicode="/" horiz-adv-x="326" 
d="M118 0h-113l202 700h114z" />
    <glyph glyph-name="zero" unicode="0" horiz-adv-x="593" 
d="M156 461q0 -57 9 -115.5t27 -113t50.5 -88.5t74.5 -34q82 0 82 129q0 57 -9 115.5t-27 113t-50.5 88.5t-74.5 34q-82 0 -82 -129zM317 -10q-67 0 -120.5 33.5t-85.5 84t-53 116t-29 123.5t-8 113q0 121 58.5 185.5t158.5 64.5q67 0 120.5 -33.5t85.5 -84t53 -116
t29 -123.5t8 -113q0 -121 -58.5 -185.5t-158.5 -64.5z" />
    <glyph glyph-name="one" unicode="1" horiz-adv-x="438" 
d="M133 557l-118 -69l-20 110l154 102h95l124 -700h-136z" />
    <glyph glyph-name="two" unicode="2" horiz-adv-x="543" 
d="M107 506l-122 35q18 77 79.5 123t145.5 46q95 0 165 -61.5t70 -161.5q0 -49 -17.5 -90.5t-54.5 -96.5l-122 -180h255l21 -120h-440l-14 80l189 284q48 73 48 123q0 45 -29 74t-71 29q-41 0 -68.5 -25.5t-34.5 -58.5z" />
    <glyph glyph-name="three" unicode="3" horiz-adv-x="570" 
d="M54 79l90 85q47 -54 114 -54q53 0 87.5 34t34.5 84q0 61 -40 99t-102 38q-45 0 -92 -21l-14 80l108 156h-239l-21 120h426l14 -80l-100 -144q84 -23 139.5 -91.5t55.5 -161.5q0 -98 -72.5 -165.5t-178.5 -67.5q-129 0 -210 89z" />
    <glyph glyph-name="four" unicode="4" horiz-adv-x="603" 
d="M288 700h94l75 -420h120l21 -120h-120l29 -160h-136l-28 160h-324l-14 80zM321 280l-32 179l-110 -179h142z" />
    <glyph glyph-name="five" unicode="5" horiz-adv-x="564" 
d="M40 64l78 101q51 -55 128 -55q52 0 90 33t38 86q0 56 -39 91t-95 35q-59 0 -101 -38h-95v383h365l21 -120h-251v-114q35 8 73 8q62 0 115 -25q64 -31 103 -89.5t39 -130.5q0 -106 -72.5 -172.5t-185.5 -66.5q-126 0 -211 74z" />
    <glyph glyph-name="six" unicode="6" horiz-adv-x="605" 
d="M392 700l-124 -224q10 1 25 1q109 0 188.5 -73t79.5 -181q0 -98 -70.5 -165.5t-177.5 -67.5q-109 0 -188.5 73.5t-79.5 180.5q0 85 59 193l143 263h145zM178 244q0 -54 39.5 -94t93.5 -40q49 0 82 32t33 81q0 55 -39.5 94.5t-93.5 39.5q-60 0 -98 -30q-17 -38 -17 -83z
" />
    <glyph glyph-name="seven" unicode="7" horiz-adv-x="534" 
d="M-19 580l-21 120h465l14 -80l-192 -620h-130l177 580h-313z" />
    <glyph glyph-name="eight" unicode="8" horiz-adv-x="587" 
d="M443 505q0 -60 -32 -101q56 -29 88.5 -81.5t32.5 -121.5q0 -87 -67.5 -149t-166.5 -62q-107 0 -178.5 70.5t-71.5 173.5q0 85 62 141q-75 57 -75 151q0 74 55.5 129t142.5 55q90 0 150 -59t60 -146zM183 226q0 -47 34 -81.5t81 -34.5q44 0 71.5 28t27.5 71q0 47 -34 81.5
t-81 34.5q-44 0 -71.5 -28t-27.5 -71zM170 523q0 -32 22 -55t53 -23q28 0 45.5 19t17.5 48q0 32 -22 55t-53 23q-28 0 -45.5 -19t-17.5 -48z" />
    <glyph glyph-name="nine" unicode="9" horiz-adv-x="596" 
d="M174 0l124 224q-10 -1 -25 -1q-109 0 -188.5 73t-79.5 181q0 98 70.5 165.5t177.5 67.5q109 0 188.5 -73.5t79.5 -180.5q0 -85 -59 -193l-143 -263h-145zM388 456q0 54 -39.5 94t-93.5 40q-49 0 -82 -32t-33 -81q0 -55 39.5 -94.5t93.5 -39.5q60 0 98 30q17 38 17 83z
" />
    <glyph glyph-name="colon" unicode=":" horiz-adv-x="375" 
d="M248 399q0 -37 -25 -61t-62 -24t-62.5 24.5t-25.5 60.5q0 37 25.5 61.5t62.5 24.5t62 -24.5t25 -61.5zM305 75q0 -37 -25 -61t-62 -24t-62.5 24.5t-25.5 60.5q0 37 25.5 61.5t62.5 24.5t62 -24.5t25 -61.5z" />
    <glyph glyph-name="semicolon" unicode=";" horiz-adv-x="375" 
d="M165 155h140l-105 -295h-90zM248 399q0 -37 -25 -61t-62 -24t-62.5 24.5t-25.5 60.5q0 37 25.5 61.5t62.5 24.5t62 -24.5t25 -61.5z" />
    <glyph glyph-name="less" unicode="&#x3c;" horiz-adv-x="550" 
d="M436 517l20 -112l-245 -116l285 -115l24 -129l-497 200l-12 70z" />
    <glyph glyph-name="equal" unicode="=" horiz-adv-x="570" 
d="M20 440h461l19 -110h-461zM57 230h461l19 -110h-461z" />
    <glyph glyph-name="greater" unicode="&#x3e;" 
d="M108 43l-20 112l245 116l-285 115l-24 129l497 -200l12 -70z" />
    <glyph glyph-name="question" unicode="?" horiz-adv-x="500" 
d="M126 529l-121 33q15 64 70.5 106t128.5 42q83 0 142 -54t59 -134q0 -42 -19 -79.5t-41.5 -59t-41.5 -43t-19 -36.5q0 -20 28 -41l-95 -78q-10 9 -22 22t-26.5 41t-14.5 55q0 36 19 68.5t41.5 53.5t41.5 47t19 50q0 29 -20 48.5t-51 19.5q-29 0 -50.5 -18.5t-27.5 -42.5z
M197 75q0 37 25 61.5t62 24.5t62.5 -24.5t25.5 -61.5q0 -36 -25.5 -60.5t-62.5 -24.5t-62 24t-25 61z" />
    <glyph glyph-name="at" unicode="@" horiz-adv-x="1000" 
d="M758 35q-88 0 -128 66q-12 -30 -45 -48t-76 -18q-89 0 -157.5 65.5t-68.5 158.5q0 49 21.5 93t58.5 72q55 41 120 41q75 0 98 -53l-8 43h91l49 -275q8 -45 45 -45q32 0 49.5 35t17.5 91q0 132 -94 225.5t-226 93.5q-133 0 -226.5 -96.5t-93.5 -233.5t93.5 -233.5
t226.5 -96.5q116 0 198 65l62 -91q-112 -84 -253 -84q-183 0 -310 128.5t-127 311.5t126.5 311.5t310.5 128.5q173 0 298 -126.5t125 -302.5q0 -97 -50.5 -161.5t-126.5 -64.5zM393 259q0 -53 37 -88.5t91 -35.5q49 0 85 30l-34 179q-33 21 -67 21q-45 0 -75 -24
q-37 -29 -37 -82z" />
    <glyph glyph-name="A" unicode="A" horiz-adv-x="699" 
d="M739 0h-153l-94 155h-281l-41 -155h-135l185 700h95zM419 275l-123 202l-53 -202h176z" />
    <glyph glyph-name="B" unicode="B" horiz-adv-x="615" 
d="M241 700q111 0 169 -52q69 -61 69 -149q0 -48 -29 -90q62 -27 101 -81t39 -119q0 -96 -76 -159q-61 -50 -175 -50h-218l-124 700h244zM320 315h-119l35 -195h100q74 0 99 31q20 23 20 58q0 46 -34 78q-31 28 -101 28zM244 580h-90l27 -150h75q52 0 71 22q17 19 17 47
q0 38 -29 62q-22 19 -71 19z" />
    <glyph glyph-name="C" unicode="C" horiz-adv-x="703" 
d="M604 210l89 -84q-106 -136 -289 -136q-163 0 -278.5 113t-115.5 267q0 144 100.5 242t252.5 98q123 0 230 -81l-68 -101q-83 62 -162 62q-93 0 -155.5 -62t-62.5 -158q0 -105 77.5 -182.5t181.5 -77.5q37 0 67 7.5t56 25.5t39 29.5t38 37.5z" />
    <glyph glyph-name="D" unicode="D" horiz-adv-x="734" 
d="M-3 700h282q147 0 244 -68q74 -52 117.5 -132t43.5 -169q0 -86 -39 -158t-108 -117q-86 -56 -226 -56h-190zM278 580h-124l82 -460h75q109 0 166 49q72 62 72 162q0 57 -26.5 109t-71.5 88q-67 52 -173 52z" />
    <glyph glyph-name="E" unicode="E" horiz-adv-x="551" 
d="M121 0l-124 700h420l21 -120h-284l26 -145h214l21 -120h-214l34 -195h295l21 -120h-430z" />
    <glyph glyph-name="F" unicode="F" horiz-adv-x="523" 
d="M121 0l-124 700h420l21 -120h-284l26 -145h214l21 -120h-214l56 -315h-136z" />
    <glyph glyph-name="G" unicode="G" horiz-adv-x="733" 
d="M324 435h315l54 -309q-106 -136 -289 -136q-163 0 -278.5 113t-115.5 267q0 144 100.5 242t252.5 98q123 0 230 -81l-68 -101q-83 62 -162 62q-93 0 -155.5 -62t-62.5 -158q0 -105 77.5 -182.5t181.5 -77.5q87 0 146 49l-27 156h-178z" />
    <glyph glyph-name="H" unicode="H" horiz-adv-x="779" 
d="M201 315l56 -315h-136l-124 700h136l47 -265h349l-47 265h136l124 -700h-136l-56 315h-349z" />
    <glyph glyph-name="I" unicode="I" horiz-adv-x="294" 
d="M133 700l124 -700h-136l-124 700h136z" />
    <glyph glyph-name="J" unicode="J" horiz-adv-x="504" 
d="M355 700l71 -398q18 -95 18 -125q0 -79 -57.5 -133t-148.5 -54q-72 0 -123.5 33t-79.5 78l106 68q37 -59 97 -59q30 0 50.5 18t20.5 49q0 19 -8 61l-82 462h136z" />
    <glyph glyph-name="K" unicode="K" horiz-adv-x="700" 
d="M557 0l-359 340l61 -340h-133l-124 700h133l50 -281l237 281h169l-263 -308l417 -392h-188z" />
    <glyph glyph-name="L" unicode="L" horiz-adv-x="546" 
d="M121 0l-124 700h136l102 -580h295l21 -120h-430z" />
    <glyph glyph-name="M" unicode="M" horiz-adv-x="859" 
d="M615 395l-111 -280h-95l-221 271l69 -386h-136l-124 700h95l343 -419l168 419h95l124 -700h-136z" />
    <glyph glyph-name="N" unicode="N" horiz-adv-x="779" 
d="M561 253l-79 447h136l124 -700h-95l-469 445l79 -445h-136l-124 700h95z" />
    <glyph glyph-name="O" unicode="O" horiz-adv-x="800" 
d="M615 330q0 103 -75.5 181.5t-176.5 78.5q-93 0 -155.5 -62.5t-62.5 -157.5q0 -103 75.5 -181.5t176.5 -78.5q93 0 155.5 62.5t62.5 157.5zM10 370q0 144 100.5 242t252.5 98q160 0 273.5 -114t113.5 -266q0 -144 -100.5 -242t-252.5 -98q-160 0 -273.5 114t-113.5 266z
" />
    <glyph glyph-name="P" unicode="P" horiz-adv-x="600" 
d="M206 285l51 -285h-136l-124 700h275q101 0 163 -44q41 -30 65.5 -75.5t24.5 -96.5q0 -71 -47 -126q-62 -73 -191 -73h-81zM185 405h95q72 0 94 30q16 21 16 49q0 44 -34 73q-26 23 -90 23h-112z" />
    <glyph glyph-name="Q" unicode="Q" horiz-adv-x="800" 
d="M10 370q0 144 100.5 242t252.5 98q160 0 273.5 -114t113.5 -266q0 -106 -58 -191l142 -139h-163l-59 57q-93 -67 -215 -67q-160 0 -273.5 114t-113.5 266zM344 319l80 81l171 -167q20 45 20 97q0 103 -75.5 181.5t-176.5 78.5q-93 0 -155.5 -62.5t-62.5 -157.5
q0 -103 75.5 -181.5t176.5 -78.5q69 0 124 36z" />
    <glyph glyph-name="R" unicode="R" horiz-adv-x="676" 
d="M257 0h-136l-124 700h256q89 0 137 -28q46 -27 73 -72t27 -99q0 -44 -20 -83t-55 -65q-9 -7 -18 -12l324 -341h-178l-295 315h-47zM181 430h76q46 0 71 16q27 17 27 54q0 39 -23 59q-24 21 -80 21h-98z" />
    <glyph glyph-name="S" unicode="S" horiz-adv-x="537" 
d="M35 95l80 91q31 -33 73.5 -54.5t84.5 -21.5q44 0 71.5 23t27.5 60q0 30 -20.5 51.5t-53.5 35t-72.5 25.5t-79 27.5t-72.5 37t-53.5 58.5t-20.5 87q0 82 64.5 138.5t160.5 56.5q106 0 187 -62l-74 -96q-45 38 -104 38q-42 0 -70.5 -21t-28.5 -54q0 -29 27.5 -50t69 -32.5
t89.5 -30t89.5 -40.5t69 -66.5t27.5 -105.5q0 -85 -68.5 -142.5t-161.5 -57.5q-142 0 -242 105z" />
    <glyph glyph-name="T" unicode="T" horiz-adv-x="564" 
d="M-53 700h506l21 -120h-185l103 -580h-136l-103 580h-185z" />
    <glyph glyph-name="U" unicode="U" horiz-adv-x="752" 
d="M527 363l-60 337h136l50 -284q24 -129 24 -161q0 -125 -83.5 -195t-205.5 -70q-161 0 -246 99q-62 71 -88 222l-69 389h136l67 -375q20 -113 58 -157q49 -58 142 -58q67 0 110.5 36t43.5 102q0 29 -15 115z" />
    <glyph glyph-name="V" unicode="V" horiz-adv-x="659" 
d="M574 700l-156 -700h-95l-403 700h149l269 -466l104 466h132z" />
    <glyph glyph-name="W" unicode="W" horiz-adv-x="984" 
d="M894 700l-111 -700h-95l-238 440l-74 -440h-95l-356 700h145l219 -431l74 431h95l235 -436l70 436h131z" />
    <glyph glyph-name="X" unicode="X" horiz-adv-x="684" 
d="M320 276l-131 -276h-145l182 377l-266 323h169l171 -212l100 212h145l-150 -313l319 -387h-169z" />
    <glyph glyph-name="Y" unicode="Y" horiz-adv-x="634" 
d="M235 315l-309 385h169l196 -247l110 247h143l-173 -386l56 -314h-136z" />
    <glyph glyph-name="Z" unicode="Z" horiz-adv-x="629" 
d="M84 0l-14 80l259 500h-313l-21 120h484l14 -80l-262 -500h372l21 -120h-540z" />
    <glyph glyph-name="bracketleft" unicode="[" horiz-adv-x="456" 
d="M235 -200l-160 900h276l21 -115h-155l118 -670h155l21 -115h-276z" />
    <glyph glyph-name="backslash" unicode="\" horiz-adv-x="588" 
d="M583 0h-130l-448 700h130z" />
    <glyph glyph-name="bracketright" unicode="]" horiz-adv-x="456" 
d="M216 700l160 -900h-276l-21 115h155l-118 670h-155l-21 115h276z" />
    <glyph glyph-name="asciicircum" unicode="^" horiz-adv-x="495" 
d="M123 700h90l247 -350h-134l-140 199l-69 -199h-117z" />
    <glyph glyph-name="underscore" unicode="_" horiz-adv-x="520" 
d="M56 0h490l19 -110h-490z" />
    <glyph glyph-name="grave" unicode="`" horiz-adv-x="350" 
d="M70 710h140l70 -160h-90z" />
    <glyph glyph-name="a" unicode="a" horiz-adv-x="608" 
d="M420 158l-27 155q-50 53 -116 53q-51 0 -81 -31t-30 -80q0 -61 41 -102.5t98 -41.5q70 0 115 47zM249 485q104 0 138 -71l-11 61h119l84 -475h-120l-13 75q-7 -34 -46.5 -59.5t-103.5 -25.5q-68 0 -131 36q-60 35 -94.5 100t-34.5 135q0 98 62.5 161t150.5 63z" />
    <glyph glyph-name="b" unicode="b" horiz-adv-x="611" 
d="M191 317l27 -155q50 -53 116 -53q51 0 81 31t30 80q0 61 -41 102.5t-98 41.5q-70 0 -115 -47zM362 -10q-104 0 -138 71l11 -61h-119l-126 710h131l54 -310q7 33 44.5 59t95.5 26q68 0 131 -36q60 -35 94.5 -100t34.5 -135q0 -98 -62.5 -161t-150.5 -63z" />
    <glyph glyph-name="c" unicode="c" horiz-adv-x="522" 
d="M422 161l95 -70q-35 -49 -90.5 -75t-119.5 -26q-109 0 -190.5 71t-81.5 184q0 99 70 169.5t175 70.5q101 0 178 -63l-73 -94q-44 37 -97 37q-54 0 -88.5 -34.5t-34.5 -85.5q0 -56 42 -95.5t103 -39.5q65 0 112 51z" />
    <glyph glyph-name="d" unicode="d" horiz-adv-x="608" 
d="M419 158l-27 155q-50 53 -116 53q-51 0 -81 -31t-30 -80q0 -61 41 -102.5t98 -41.5q70 0 115 47zM374 414l-53 296h131l126 -710h-120l-13 75q-7 -34 -46.5 -59.5t-103.5 -25.5q-68 0 -131 36q-60 35 -94.5 100t-34.5 135q0 98 61 161t148 63q42 0 77 -18.5t53 -52.5z
" />
    <glyph glyph-name="e" unicode="e" horiz-adv-x="538" 
d="M434 142l68 -85q-83 -67 -193 -67q-115 0 -194.5 71.5t-79.5 185.5q0 105 62.5 171.5t164.5 66.5q99 0 169.5 -74.5t70.5 -182.5q0 -16 -1 -24h-337q10 -48 51 -78.5t94 -30.5q69 0 125 47zM160 296h214q-12 39 -41.5 61.5t-66.5 22.5q-83 0 -106 -84z" />
    <glyph glyph-name="f" unicode="f" horiz-adv-x="461" 
d="M362 725l-13 -113q-18 3 -34 3q-37 0 -60.5 -18.5t-23.5 -49.5q0 -12 7 -52l4 -20h154l20 -110h-155l65 -365h-131l-65 365h-125l-20 110h125q-8 43 -8 71q0 79 59.5 131.5t137.5 52.5q37 0 63 -5z" />
    <glyph glyph-name="g" unicode="g" horiz-adv-x="608" 
d="M442 37l-7 38q-7 -33 -44.5 -59t-95.5 -26q-68 0 -131 36q-60 35 -94.5 100t-34.5 135q0 98 62.5 161t150.5 63q104 0 138 -71l-11 61h119l77 -432q8 -44 8 -82q0 -89 -70.5 -150t-175.5 -61q-119 0 -209 82l76 93q59 -55 133 -55q48 0 82 25.5t34 71.5q0 32 -7 70z
M419 158l-27 155q-50 53 -116 53q-51 0 -81 -31t-30 -80q0 -61 41 -102.5t98 -41.5q70 0 115 47z" />
    <glyph glyph-name="h" unicode="h" horiz-adv-x="632" 
d="M311 485q105 0 174 -69q60 -58 79 -170l43 -246h-131l-41 233q-14 76 -49 105q-32 27 -79 27q-35 0 -68 -20.5t-45 -44.5l53 -300h-131l-126 710h131l57 -320q5 41 41.5 68t91.5 27z" />
    <glyph glyph-name="i" unicode="i" horiz-adv-x="277" 
d="M32 475h131l84 -475h-131zM152 647q0 -35 -25 -59t-60 -24t-60 24t-25 59t25 59t60 24t60 -24t25 -59z" />
    <glyph glyph-name="j" unicode="j" horiz-adv-x="310" 
d="M41 -246l11 119q12 -3 35 -3q31 0 51 18t20 50q0 12 -7 52l-86 485h131l80 -452q11 -66 11 -84q0 -62 -25 -103t-69.5 -63.5t-99.5 -22.5q-37 0 -52 4zM185 647q0 -35 -25 -59t-60 -24t-60 24t-25 59t25 59t60 24t60 -24t25 -59z" />
    <glyph glyph-name="k" unicode="k" horiz-adv-x="586" 
d="M320 278l316 -278h-188l-238 210l37 -210h-131l-126 710h131l69 -388l148 153h174z" />
    <glyph glyph-name="l" unicode="l" horiz-adv-x="277" 
d="M121 710l126 -710h-131l-126 710h131z" />
    <glyph glyph-name="m" unicode="m" horiz-adv-x="978" 
d="M312 485q101 0 168 -67l10 -11q74 78 175 78q103 0 170 -67q55 -53 75 -172l43 -246h-131l-41 233q-14 79 -48 107q-30 25 -72 25q-35 0 -66 -19t-49 -49q8 -30 11 -51l43 -246h-131l-41 233q-14 79 -48 107q-30 25 -72 25q-33 0 -65 -18t-49 -47l53 -300h-131l-84 475
h119l15 -85q5 41 46 68t100 27z" />
    <glyph glyph-name="n" unicode="n" horiz-adv-x="632" 
d="M311 485q105 0 174 -69q60 -58 79 -170l43 -246h-131l-41 233q-14 76 -49 105q-32 27 -79 27q-35 0 -68 -20.5t-45 -44.5l53 -300h-131l-84 475h119l15 -85q5 41 45.5 68t99.5 27z" />
    <glyph glyph-name="o" unicode="o" horiz-adv-x="585" 
d="M419 227q0 56 -40.5 97t-96.5 41q-50 0 -83.5 -33.5t-33.5 -83.5q0 -56 40.5 -97t96.5 -41q50 0 83.5 33.5t33.5 83.5zM35 248q0 99 71 168t176 69q109 0 188 -75.5t79 -182.5q0 -99 -71 -168t-176 -69q-109 0 -188 75.5t-79 182.5z" />
    <glyph glyph-name="p" unicode="p" horiz-adv-x="611" 
d="M191 317l27 -155q50 -53 116 -53q51 0 81 31t30 80q0 61 -41 102.5t-98 41.5q-70 0 -115 -47zM236 61l54 -301h-131l-127 715h120l13 -75q7 34 46.5 59.5t103.5 25.5q68 0 131 -36q60 -35 94.5 -100t34.5 -135q0 -98 -61 -161t-148 -63q-42 0 -77 18.5t-53 52.5z" />
    <glyph glyph-name="q" unicode="q" horiz-adv-x="608" 
d="M419 158l-27 155q-50 53 -116 53q-51 0 -81 -31t-30 -80q0 -61 41 -102.5t98 -41.5q70 0 115 47zM248 485q104 0 138 -71l-11 61h119l126 -715h-131l-54 315q-7 -33 -44.5 -59t-95.5 -26q-68 0 -131 36q-60 35 -94.5 100t-34.5 135q0 98 62.5 161t150.5 63z" />
    <glyph glyph-name="r" unicode="r" horiz-adv-x="422" 
d="M311 485q26 0 46 -4l-13 -119q-13 3 -34 3q-34 0 -66 -19.5t-49 -50.5l52 -295h-131l-84 475h119l15 -85q5 41 45.5 68t99.5 27z" />
    <glyph glyph-name="s" unicode="s" horiz-adv-x="467" 
d="M64 44l62 95q54 -39 117 -39q28 0 48.5 11t20.5 31q0 16 -20.5 26.5t-51.5 15.5t-66.5 15.5t-66.5 24t-51.5 42t-20.5 69.5q0 66 56.5 108t142.5 42q79 0 140 -36l-55 -95q-34 21 -80 21q-34 0 -54 -11t-20 -27t28.5 -26.5t69.5 -19t81.5 -22.5t69 -46.5t28.5 -80.5
q0 -64 -54.5 -108t-133.5 -44q-112 0 -190 54z" />
    <glyph glyph-name="t" unicode="t" horiz-adv-x="513" 
d="M454 113l39 -107q-43 -16 -100 -16q-53 0 -102 20.5t-80 61.5q-32 44 -47 128l-30 165h-135l-19 110h135l-22 125h131l22 -125h165l19 -110h-165l30 -165q8 -44 24 -64q23 -31 82 -31q27 0 53 8z" />
    <glyph glyph-name="u" unicode="u" horiz-adv-x="625" 
d="M315 -10q-103 0 -170 67q-55 53 -75 172l-43 246h131l41 -233q14 -79 48 -107q30 -25 72 -25q33 0 65 18t49 47l-53 300h131l84 -475h-119l-15 85q-5 -41 -46 -68t-100 -27z" />
    <glyph glyph-name="v" unicode="v" horiz-adv-x="568" 
d="M-30 475h145l188 -286l87 286h128l-146 -475h-90z" />
    <glyph glyph-name="w" unicode="w" horiz-adv-x="849" 
d="M669 475h125l-121 -475h-90l-169 274l-68 -274h-90l-286 475h140l163 -268l68 268h90l168 -274z" />
    <glyph glyph-name="x" unicode="x" horiz-adv-x="566" 
d="M284 164l-81 -164h-144l135 251l-199 224h164l112 -135l67 135h139l-115 -220l229 -255h-169z" />
    <glyph glyph-name="y" unicode="y" horiz-adv-x="572" 
d="M319 -240h-129l84 295l-309 420h155l197 -275l76 275h129z" />
    <glyph glyph-name="z" unicode="z" horiz-adv-x="519" 
d="M420 475l14 -80l-196 -285h256l20 -110h-430l-14 80l194 285h-225l-19 110h400z" />
    <glyph glyph-name="braceleft" unicode="{" horiz-adv-x="456" 
d="M209 262q37 -12 58.5 -40t29.5 -92q3 -21 6 -67.5t9 -77.5q12 -70 94 -70q21 0 31 1l21 -114q-15 -2 -54 -2q-84 0 -142 40t-69 135q-4 30 -6 82t-7 83q-12 70 -109 70l-16 80q82 0 82 62q0 33 -20 100t-20 102q0 72 43.5 109t122.5 37q25 0 36 -1l20 -115q-12 1 -37 1
q-66 0 -66 -56q0 -20 18.5 -85.5t18.5 -102.5q0 -54 -44 -79z" />
    <glyph glyph-name="bar" unicode="|" horiz-adv-x="278" 
d="M118 700l160 -900h-121l-160 900h121z" />
    <glyph glyph-name="braceright" unicode="}" horiz-adv-x="456" 
d="M242 238q-37 12 -58.5 40t-29.5 92q-3 21 -6 67.5t-9 77.5q-12 70 -94 70q-21 0 -31 -1l-21 114q15 2 54 2q84 0 142 -40t69 -135q4 -30 6 -82t7 -83q12 -70 109 -70l16 -80q-82 0 -82 -62q0 -33 20 -100t20 -102q0 -72 -43.5 -109t-122.5 -37q-25 0 -36 1l-20 115
q12 -1 37 -1q66 0 66 56q0 20 -18.5 85.5t-18.5 102.5q0 54 44 79z" />
    <glyph glyph-name="asciitilde" unicode="~" horiz-adv-x="570" 
d="M123 188l-108 19q0 73 43.5 121.5t119.5 48.5q43 0 81 -21t66 -42t47 -21q25 0 39.5 23.5t15.5 55.5l108 -19q0 -73 -43.5 -121.5t-119.5 -48.5q-43 0 -81 21t-66 42t-47 21q-25 0 -39.5 -23.5t-15.5 -55.5z" />
    <glyph glyph-name="exclamdown" unicode="&#xa1;" horiz-adv-x="383" 
d="M343 -240h-131l-40 225l-23 245h90l64 -245zM253 399q0 -37 -25 -61t-62 -24t-62.5 24.5t-25.5 60.5q0 37 25.5 61.5t62.5 24.5t62 -24.5t25 -61.5z" />
    <glyph glyph-name="cent" unicode="&#xa2;" horiz-adv-x="522" 
d="M422 161l95 -70q-47 -66 -130 -90l21 -116h-121l-19 108q-98 13 -165.5 81.5t-67.5 170.5q0 76 42.5 137.5t113.5 87.5l-20 120h121l19 -107q81 -8 147 -61l-73 -94q-44 37 -97 37q-54 0 -88.5 -34.5t-34.5 -85.5q0 -56 42 -95.5t103 -39.5q65 0 112 51z" />
    <glyph glyph-name="sterling" unicode="&#xa3;" horiz-adv-x="564" 
d="M224 405h146l19 -110h-109q15 -43 15 -84q0 -51 -21 -91h274l21 -120h-488l-14 80q98 30 98 124q0 41 -25 91h-101l-19 110h64q-25 55 -25 106q0 86 64 142.5t147 56.5q79 0 132 -41.5t67 -90.5l-112 -43q-30 55 -81 55q-37 0 -62 -23t-25 -56q0 -42 35 -106z" />
    <glyph glyph-name="currency" unicode="&#xa4;" horiz-adv-x="610" 
d="M94 351q0 54 26 100l-80 80l85 85l80 -80q46 26 100 26q55 0 101 -26l79 80l85 -85l-79 -80q25 -47 25 -100q0 -54 -25 -101l79 -79l-85 -85l-79 79q-47 -25 -101 -25q-53 0 -100 25l-80 -79l-85 85l80 79q-26 46 -26 101zM224 351q0 -34 23.5 -57.5t57.5 -23.5
t57.5 23.5t23.5 57.5t-23.5 57.5t-57.5 23.5t-57.5 -23.5t-23.5 -57.5z" />
    <glyph glyph-name="yen" unicode="&#xa5;" horiz-adv-x="672" 
d="M99 485l-173 215h169l196 -247l110 247h143l-96 -215h85l20 -110h-154l-23 -50h186l20 -110h-193l38 -215h-136l-38 215h-192l-20 110h186l-40 50h-155l-19 110h86z" />
    <glyph glyph-name="brokenbar" unicode="&#xa6;" horiz-adv-x="321" 
d="M210 310h-121l-69 390h121zM110 190h121l70 -390h-121z" />
    <glyph glyph-name="section" unicode="&#xa7;" horiz-adv-x="581" 
d="M416 201q0 23 -12 40.5t-37 30.5t-47.5 22t-61.5 21.5t-61 21.5q-27 -27 -27 -58q0 -23 11.5 -40.5t37 -31t47.5 -22.5t61.5 -22t61.5 -21q27 27 27 59zM407 -35q0 16 -7.5 28t-26.5 22t-33 16t-46 16.5t-48 16.5q-37 13 -62 24t-56 30t-49 39.5t-31 52t-13 69.5
q0 70 51 126q-42 44 -42 110q0 82 64.5 138.5t160.5 56.5q106 0 187 -62l-74 -96q-45 38 -104 38q-42 0 -70.5 -21t-28.5 -54q0 -16 7.5 -28t26.5 -22t33 -16t46 -16.5t48 -16.5q37 -13 62 -24t56 -30t49 -39.5t31 -52t13 -69.5q0 -72 -51 -126q42 -45 42 -110
q0 -82 -64.5 -138.5t-160.5 -56.5q-106 0 -187 62l74 96q45 -38 104 -38q42 0 70.5 21t28.5 54z" />
    <glyph glyph-name="dieresis" unicode="&#xa8;" horiz-adv-x="510" 
d="M70 632q0 33 23.5 55.5t56.5 22.5t56.5 -22.5t23.5 -55.5t-23.5 -55.5t-56.5 -22.5t-56.5 22.5t-23.5 55.5zM280 632q0 33 23.5 55.5t56.5 22.5t56.5 -22.5t23.5 -55.5t-23.5 -55.5t-56.5 -22.5t-56.5 22.5t-23.5 55.5z" />
    <glyph glyph-name="copyright" unicode="&#xa9;" horiz-adv-x="840" 
d="M50 350q0 145 102.5 247.5t247.5 102.5t247.5 -102.5t102.5 -247.5t-102.5 -247.5t-247.5 -102.5t-247.5 102.5t-102.5 247.5zM120 350q0 -116 82 -198t198 -82t198 82t82 198t-82 198t-198 82t-198 -82t-82 -198zM499 266l51 -61q-22 -23 -59.5 -39t-76.5 -16
q-88 0 -148 57.5t-60 142.5q0 86 58.5 143.5t144.5 57.5q78 0 126 -46l-49 -59q-35 25 -76 25q-49 0 -83 -35.5t-34 -85.5t35 -85t85 -35t86 36z" />
    <glyph glyph-name="ordfeminine" unicode="&#xaa;" horiz-adv-x="416" 
d="M163 480q36 0 57 25l-16 90q-22 25 -55 25q-26 0 -43 -17t-17 -44q0 -34 21 -56.5t53 -22.5zM207 664l-6 36h85l53 -300h-85l-10 43q-7 -24 -31 -38.5t-56 -14.5q-73 0 -120.5 49.5t-47.5 119.5q0 61 42 106t100 45q61 0 76 -46z" />
    <glyph glyph-name="guillemotleft" unicode="&#xab;" horiz-adv-x="655" 
d="M147 437h130l-108 -176l176 -204h-147l-133 155l-12 70zM417 437h130l-108 -176l176 -204h-147l-133 155l-12 70z" />
    <glyph glyph-name="logicalnot" unicode="&#xac;" horiz-adv-x="570" 
d="M537 120h-111l-37 210h-350l-19 110h461z" />
    <glyph glyph-name="registered" unicode="&#xae;" horiz-adv-x="840" 
d="M50 350q0 145 102.5 247.5t247.5 102.5t247.5 -102.5t102.5 -247.5t-102.5 -247.5t-247.5 -102.5t-247.5 102.5t-102.5 247.5zM375 321h-23v-162h-87v383h136q63 0 96 -30q38 -33 38 -86q0 -59 -49 -88q-8 -6 -24 -11l115 -168h-95zM352 392h52q27 0 37 13q7 9 7 21
q0 13 -7 22q-12 14 -37 14h-52v-70zM120 350q0 -116 82 -198t198 -82t198 82t82 198t-82 198t-198 82t-198 -82t-82 -198z" />
    <glyph glyph-name="macron" unicode="&#xaf;" horiz-adv-x="460" 
d="M70 680h320v-100h-320v100z" />
    <glyph glyph-name="degree" unicode="&#xb0;" horiz-adv-x="430" 
d="M0 540q0 70 50 120t120 50t120 -50t50 -120t-50 -120t-120 -50t-120 50t-50 120zM100 540q0 -29 20.5 -49.5t49.5 -20.5t49.5 20.5t20.5 49.5t-20.5 49.5t-49.5 20.5t-49.5 -20.5t-20.5 -49.5z" />
    <glyph glyph-name="plusminus" unicode="&#xb1;" horiz-adv-x="570" 
d="M243 168l-23 126h-175l-19 110h175l-23 126h111l23 -126h175l19 -110h-175l23 -126h-111zM74 140h461l19 -110h-461z" />
    <glyph glyph-name="twosuperior" unicode="&#xb2;" horiz-adv-x="296" 
d="M31 589l-86 27q12 44 46.5 69t77.5 25q52 0 92 -33t40 -86q0 -42 -39 -99l-43 -62h116l16 -90h-264l-9 50l108 154q17 24 17 43q0 13 -9.5 23t-24.5 10q-14 0 -24.5 -10t-13.5 -21z" />
    <glyph glyph-name="threesuperior" unicode="&#xb3;" horiz-adv-x="305" 
d="M-26 374l58 65q26 -24 56 -24q20 0 33.5 10.5t13.5 30.5t-16 33t-38 13t-46 -12l-9 50l48 75h-109l-15 85h226l9 -50l-46 -75q43 -13 69.5 -45.5t26.5 -75.5q0 -55 -38.5 -89.5t-104.5 -34.5q-67 0 -118 44z" />
    <glyph glyph-name="acute" unicode="&#xb4;" horiz-adv-x="350" 
d="M140 710h140l-120 -160h-90z" />
    <glyph glyph-name="mu" unicode="&#xb5;" horiz-adv-x="630" 
d="M320 -10q-41 0 -74 15l44 -245h-131l-127 715h131l41 -233q14 -79 48 -107q30 -25 72 -25q33 0 65 18t49 47l-53 300h131l84 -475h-119l-15 85q-5 -41 -46 -68t-100 -27z" />
    <glyph glyph-name="paragraph" unicode="&#xb6;" horiz-adv-x="723" 
d="M192 700h411l20 -110h-100l140 -790h-121l-140 790h-99l140 -790h-121l-83 469q-74 0 -131 28q-59 29 -93.5 81.5t-34.5 122.5q0 78 47 131q61 68 165 68zM219 380l-38 210q-36 0 -58.5 -24.5t-22.5 -64.5q0 -50 35 -85.5t84 -35.5z" />
    <glyph glyph-name="periodcentered" unicode="&#xb7;" horiz-adv-x="375" 
d="M105 238q0 37 25 61.5t62 24.5t62.5 -24.5t25.5 -61.5q0 -36 -25.5 -60.5t-62.5 -24.5t-62 24t-25 61z" />
    <glyph glyph-name="cedilla" unicode="&#xb8;" horiz-adv-x="310" 
d="M70 -150l65 160h95l-30 -160h-130z" />
    <glyph glyph-name="onesuperior" unicode="&#xb9;" horiz-adv-x="273" 
d="M-40 631l119 69h60l64 -360h-101l-45 249l-82 -45z" />
    <glyph glyph-name="ordmasculine" unicode="&#xba;" horiz-adv-x="416" 
d="M221 541q0 34 -21 56.5t-53 22.5q-26 0 -42 -18t-16 -43q0 -34 21 -56.5t53 -22.5q26 0 42 18t16 43zM321 541q0 -63 -45.5 -107t-112.5 -44q-76 0 -125 49t-49 120q0 63 45.5 107t112.5 44q76 0 125 -49t49 -120z" />
    <glyph glyph-name="guillemotright" unicode="&#xbb;" horiz-adv-x="655" 
d="M506 57h-130l108 176l-176 204h147l133 -155l12 -70zM236 57h-130l108 176l-176 204h147l133 -155l12 -70z" />
    <glyph glyph-name="onequarter" unicode="&#xbc;" horiz-adv-x="683" 
d="M-40 631l119 69h60l64 -360h-101l-45 249l-82 -45zM576 360l38 -215h61l13 -75h-61l13 -70h-91l-13 70h-178l-9 50l167 240h60zM523 145l-12 67l-47 -67h59zM221 0h-103l288 700h103z" />
    <glyph glyph-name="onehalf" unicode="&#xbd;" horiz-adv-x="680" 
d="M221 0h-103l288 700h103zM-40 631l119 69h60l64 -360h-101l-45 249l-82 -45zM475 249l-86 27q12 44 46.5 69t77.5 25q52 0 92 -33t40 -86q0 -42 -39 -99l-43 -62h116l16 -90h-264l-9 50l108 154q17 24 17 43q0 13 -9.5 23t-24.5 10q-14 0 -24.5 -10t-13.5 -21z" />
    <glyph glyph-name="threequarters" unicode="&#xbe;" horiz-adv-x="680" 
d="M-26 374l58 65q26 -24 56 -24q20 0 33.5 10.5t13.5 30.5t-16 33t-38 13t-46 -12l-9 50l48 75h-109l-15 85h226l9 -50l-46 -75q43 -13 69.5 -45.5t26.5 -75.5q0 -54 -40.5 -89t-103.5 -35q-66 0 -117 44zM573 360l38 -215h61l13 -75h-61l13 -70h-91l-13 70h-178l-9 50
l167 240h60zM520 145l-12 67l-47 -67h59zM218 0h-103l288 700h103z" />
    <glyph glyph-name="questiondown" unicode="&#xbf;" horiz-adv-x="500" 
d="M389 -69l121 -33q-15 -64 -70.5 -106t-128.5 -42q-83 0 -142 54t-59 134q0 42 19 79.5t41.5 59t41.5 43t19 36.5q0 20 -28 41l95 78q10 -9 22 -22t26.5 -41t14.5 -55q0 -36 -19 -68.5t-41.5 -53.5t-41.5 -47t-19 -50q0 -29 20 -48.5t51 -19.5q29 0 50.5 18.5t27.5 42.5z
M316 399q0 -37 -25 -61t-62 -24t-62.5 24.5t-25.5 60.5q0 37 25.5 61.5t62.5 24.5t62 -24.5t25 -61.5z" />
    <glyph glyph-name="Agrave" unicode="&#xc0;" horiz-adv-x="699" 
d="M95 920h140l70 -160h-90zM739 0h-153l-94 155h-281l-41 -155h-135l185 700h95zM419 275l-123 202l-53 -202h176z" />
    <glyph glyph-name="Aacute" unicode="&#xc1;" horiz-adv-x="699" 
d="M281 920h140l-120 -160h-90zM739 0h-153l-94 155h-281l-41 -155h-135l185 700h95zM419 275l-123 202l-53 -202h176z" />
    <glyph glyph-name="Acircumflex" unicode="&#xc2;" horiz-adv-x="699" 
d="M100 760l70 160h140l130 -160h-95l-95 90l-65 -90h-85zM739 0h-153l-94 155h-281l-41 -155h-135l185 700h95zM419 275l-123 202l-53 -202h176z" />
    <glyph glyph-name="Atilde" unicode="&#xc3;" horiz-adv-x="699" 
d="M739 0h-153l-94 155h-281l-41 -155h-135l185 700h95zM419 275l-123 202l-53 -202h176zM365 920l80 -16q0 -57 -29.5 -95.5t-81.5 -38.5q-32 0 -81 25t-68 25q-35 0 -40 -50l-80 16q0 57 29.5 95.5t81.5 38.5q32 0 81 -25t68 -25q35 0 40 50z" />
    <glyph glyph-name="Adieresis" unicode="&#xc4;" horiz-adv-x="699" 
d="M427 842q0 -33 -23.5 -55.5t-56.5 -22.5t-56.5 22.5t-23.5 55.5t23.5 55.5t56.5 22.5t56.5 -22.5t23.5 -55.5zM217 842q0 -33 -23.5 -55.5t-56.5 -22.5t-56.5 22.5t-23.5 55.5t23.5 55.5t56.5 22.5t56.5 -22.5t23.5 -55.5zM739 0h-153l-94 155h-281l-41 -155h-135
l185 700h95zM419 275l-123 202l-53 -202h176z" />
    <glyph glyph-name="Aring" unicode="&#xc5;" horiz-adv-x="699" 
d="M142 850q0 46 32 78t78 32t78 -32t32 -78t-32 -78t-78 -32t-78 32t-32 78zM222 850q0 -13 8.5 -21.5t21.5 -8.5t21.5 8.5t8.5 21.5t-8.5 21.5t-21.5 8.5t-21.5 -8.5t-8.5 -21.5zM739 0h-153l-94 155h-281l-41 -155h-135l185 700h95zM419 275l-123 202l-53 -202h176z" />
    <glyph glyph-name="AE" unicode="&#xc6;" horiz-adv-x="956" 
d="M177 0h-142l295 700h492l21 -120h-284l26 -145h214l21 -120h-214l34 -195h295l21 -120h-430l-28 155h-255zM423 581l-129 -306h183z" />
    <glyph glyph-name="Ccedilla" unicode="&#xc7;" horiz-adv-x="703" 
d="M308 -150l57 142q-149 14 -252 124t-103 254t100.5 242t252.5 98q123 0 230 -81l-68 -101q-83 62 -162 62q-93 0 -155.5 -62t-62.5 -158q0 -105 77.5 -182.5t181.5 -77.5q37 0 67 7.5t56 25.5t39 29.5t38 37.5l89 -84q-88 -112 -228 -131l-27 -145h-130z" />
    <glyph glyph-name="Egrave" unicode="&#xc8;" horiz-adv-x="551" 
d="M121 0l-124 700h420l21 -120h-284l26 -145h214l21 -120h-214l34 -195h295l21 -120h-430zM44 920h140l70 -160h-90z" />
    <glyph glyph-name="Eacute" unicode="&#xc9;" horiz-adv-x="551" 
d="M121 0l-124 700h420l21 -120h-284l26 -145h214l21 -120h-214l34 -195h295l21 -120h-430zM211 920h140l-120 -160h-90z" />
    <glyph glyph-name="Ecircumflex" unicode="&#xca;" horiz-adv-x="551" 
d="M121 0l-124 700h420l21 -120h-284l26 -145h214l21 -120h-214l34 -195h295l21 -120h-430zM34 760l70 160h140l130 -160h-95l-95 90l-65 -90h-85z" />
    <glyph glyph-name="Edieresis" unicode="&#xcb;" horiz-adv-x="551" 
d="M121 0l-124 700h420l21 -120h-284l26 -145h214l21 -120h-214l34 -195h295l21 -120h-430zM4 840q0 33 23.5 56.5t56.5 23.5t56.5 -23.5t23.5 -56.5t-23.5 -56.5t-56.5 -23.5t-56.5 23.5t-23.5 56.5zM214 840q0 33 23.5 56.5t56.5 23.5t56.5 -23.5t23.5 -56.5t-23.5 -56.5
t-56.5 -23.5t-56.5 23.5t-23.5 56.5z" />
    <glyph glyph-name="Igrave" unicode="&#xcc;" horiz-adv-x="294" 
d="M133 700l124 -700h-136l-124 700h136zM-98 920h140l70 -160h-90z" />
    <glyph glyph-name="Iacute" unicode="&#xcd;" horiz-adv-x="294" 
d="M133 700l124 -700h-136l-124 700h136zM67 920h140l-120 -160h-90z" />
    <glyph glyph-name="Icircumflex" unicode="&#xce;" horiz-adv-x="294" 
d="M133 700l124 -700h-136l-124 700h136zM-112 760l70 160h140l130 -160h-95l-95 90l-65 -90h-85z" />
    <glyph glyph-name="Idieresis" unicode="&#xcf;" horiz-adv-x="294" 
d="M133 700l124 -700h-136l-124 700h136zM-133 840q0 33 23.5 56.5t56.5 23.5t56.5 -23.5t23.5 -56.5t-23.5 -56.5t-56.5 -23.5t-56.5 23.5t-23.5 56.5zM77 840q0 33 23.5 56.5t56.5 23.5t56.5 -23.5t23.5 -56.5t-23.5 -56.5t-56.5 -23.5t-56.5 23.5t-23.5 56.5z" />
    <glyph glyph-name="Eth" unicode="&#xd0;" horiz-adv-x="794" 
d="M57 700h282q147 0 244 -68q74 -52 117.5 -132t43.5 -169q0 -86 -39 -158t-108 -117q-86 -56 -226 -56h-190l-56 315h-100l-21 120h100zM338 580h-124l26 -145h200l21 -120h-200l35 -195h75q109 0 166 49q72 62 72 162q0 57 -26.5 109t-71.5 88q-67 52 -173 52z" />
    <glyph glyph-name="Ntilde" unicode="&#xd1;" horiz-adv-x="779" 
d="M561 253l-79 447h136l124 -700h-95l-469 445l79 -445h-136l-124 700h95zM411 920l80 -16q0 -57 -29.5 -95.5t-81.5 -38.5q-32 0 -81 25t-68 25q-35 0 -40 -50l-80 16q0 57 29.5 95.5t81.5 38.5q32 0 81 -25t68 -25q35 0 40 50z" />
    <glyph glyph-name="Ograve" unicode="&#xd2;" horiz-adv-x="800" 
d="M615 330q0 103 -75.5 181.5t-176.5 78.5q-93 0 -155.5 -62.5t-62.5 -157.5q0 -103 75.5 -181.5t176.5 -78.5q93 0 155.5 62.5t62.5 157.5zM10 370q0 144 100.5 242t252.5 98q160 0 273.5 -114t113.5 -266q0 -144 -100.5 -242t-252.5 -98q-160 0 -273.5 114t-113.5 266z
M158 920h140l70 -160h-90z" />
    <glyph glyph-name="Oacute" unicode="&#xd3;" horiz-adv-x="800" 
d="M615 330q0 103 -75.5 181.5t-176.5 78.5q-93 0 -155.5 -62.5t-62.5 -157.5q0 -103 75.5 -181.5t176.5 -78.5q93 0 155.5 62.5t62.5 157.5zM10 370q0 144 100.5 242t252.5 98q160 0 273.5 -114t113.5 -266q0 -144 -100.5 -242t-252.5 -98q-160 0 -273.5 114t-113.5 266z
M338 920h140l-120 -160h-90z" />
    <glyph glyph-name="Ocircumflex" unicode="&#xd4;" horiz-adv-x="800" 
d="M615 330q0 103 -75.5 181.5t-176.5 78.5q-93 0 -155.5 -62.5t-62.5 -157.5q0 -103 75.5 -181.5t176.5 -78.5q93 0 155.5 62.5t62.5 157.5zM10 370q0 144 100.5 242t252.5 98q160 0 273.5 -114t113.5 -266q0 -144 -100.5 -242t-252.5 -98q-160 0 -273.5 114t-113.5 266z
M162 760l70 160h140l130 -160h-95l-95 90l-65 -90h-85z" />
    <glyph glyph-name="Otilde" unicode="&#xd5;" horiz-adv-x="800" 
d="M615 330q0 103 -75.5 181.5t-176.5 78.5q-93 0 -155.5 -62.5t-62.5 -157.5q0 -103 75.5 -181.5t176.5 -78.5q93 0 155.5 62.5t62.5 157.5zM10 370q0 144 100.5 242t252.5 98q160 0 273.5 -114t113.5 -266q0 -144 -100.5 -242t-252.5 -98q-160 0 -273.5 114t-113.5 266z
M420 920l80 -16q0 -57 -29.5 -95.5t-81.5 -38.5q-32 0 -81 25t-68 25q-35 0 -40 -50l-80 16q0 57 29.5 95.5t81.5 38.5q32 0 81 -25t68 -25q35 0 40 50z" />
    <glyph glyph-name="Odieresis" unicode="&#xd6;" horiz-adv-x="800" 
d="M615 330q0 103 -75.5 181.5t-176.5 78.5q-93 0 -155.5 -62.5t-62.5 -157.5q0 -103 75.5 -181.5t176.5 -78.5q93 0 155.5 62.5t62.5 157.5zM10 370q0 144 100.5 242t252.5 98q160 0 273.5 -114t113.5 -266q0 -144 -100.5 -242t-252.5 -98q-160 0 -273.5 114t-113.5 266z
M499 842q0 -33 -23.5 -55.5t-56.5 -22.5t-56.5 22.5t-23.5 55.5t23.5 55.5t56.5 22.5t56.5 -22.5t23.5 -55.5zM289 842q0 -33 -23.5 -55.5t-56.5 -22.5t-56.5 22.5t-23.5 55.5t23.5 55.5t56.5 22.5t56.5 -22.5t23.5 -55.5z" />
    <glyph glyph-name="multiply" unicode="&#xd7;" horiz-adv-x="534" 
d="M255 358l116 138l84 -71l-116 -138l164 -138l-71 -85l-164 138l-117 -138l-84 71l116 138l-164 138l71 85z" />
    <glyph glyph-name="Oslash" unicode="&#xd8;" horiz-adv-x="800" 
d="M10 370q0 144 100.5 242t252.5 98q55 0 116 -18l8 18h127l-32 -69q77 -53 122.5 -136t45.5 -175q0 -144 -100.5 -242t-252.5 -98q-57 0 -116 18l-8 -18h-127l31 68q-77 54 -122 136.5t-45 175.5zM145 370q0 -114 87 -193l187 406q-32 7 -56 7q-93 0 -155.5 -62.5
t-62.5 -157.5zM615 330q0 113 -87 192l-187 -405q25 -7 56 -7q93 0 155.5 62.5t62.5 157.5z" />
    <glyph glyph-name="Ugrave" unicode="&#xd9;" horiz-adv-x="752" 
d="M527 363l-60 337h136l50 -284q24 -129 24 -161q0 -125 -83.5 -195t-205.5 -70q-161 0 -246 99q-62 71 -88 222l-69 389h136l67 -375q20 -113 58 -157q49 -58 142 -58q67 0 110.5 36t43.5 102q0 29 -15 115zM122 920h140l70 -160h-90z" />
    <glyph glyph-name="Uacute" unicode="&#xda;" horiz-adv-x="752" 
d="M527 363l-60 337h136l50 -284q24 -129 24 -161q0 -125 -83.5 -195t-205.5 -70q-161 0 -246 99q-62 71 -88 222l-69 389h136l67 -375q20 -113 58 -157q49 -58 142 -58q67 0 110.5 36t43.5 102q0 29 -15 115zM303 920h140l-120 -160h-90z" />
    <glyph glyph-name="Ucircumflex" unicode="&#xdb;" horiz-adv-x="752" 
d="M527 363l-60 337h136l50 -284q24 -129 24 -161q0 -125 -83.5 -195t-205.5 -70q-161 0 -246 99q-62 71 -88 222l-69 389h136l67 -375q20 -113 58 -157q49 -58 142 -58q67 0 110.5 36t43.5 102q0 29 -15 115zM118 760l70 160h140l130 -160h-95l-95 90l-65 -90h-85z" />
    <glyph glyph-name="Udieresis" unicode="&#xdc;" horiz-adv-x="752" 
d="M527 363l-60 337h136l50 -284q24 -129 24 -161q0 -125 -83.5 -195t-205.5 -70q-161 0 -246 99q-62 71 -88 222l-69 389h136l67 -375q20 -113 58 -157q49 -58 142 -58q67 0 110.5 36t43.5 102q0 29 -15 115zM467 842q0 -33 -23.5 -55.5t-56.5 -22.5t-56.5 22.5t-23.5 55.5
t23.5 55.5t56.5 22.5t56.5 -22.5t23.5 -55.5zM257 842q0 -33 -23.5 -55.5t-56.5 -22.5t-56.5 22.5t-23.5 55.5t23.5 55.5t56.5 22.5t56.5 -22.5t23.5 -55.5z" />
    <glyph glyph-name="Yacute" unicode="&#xdd;" horiz-adv-x="634" 
d="M235 315l-309 385h169l196 -247l110 247h143l-173 -386l56 -314h-136zM267 920h140l-120 -160h-90z" />
    <glyph glyph-name="Thorn" unicode="&#xde;" horiz-adv-x="605" 
d="M231 143l26 -143h-136l-124 700h136l25 -142h139q101 0 163 -44q41 -30 65.5 -75.5t24.5 -96.5q0 -71 -47 -126q-62 -73 -191 -73h-81zM210 263h95q72 0 94 30q16 21 16 49q0 44 -34 73q-26 23 -90 23h-112z" />
    <glyph glyph-name="germandbls" unicode="&#xdf;" horiz-adv-x="613" 
d="M266 5l37 112q21 -7 43 -7q44 0 72.5 28.5t28.5 70.5q0 57 -45 90q-31 23 -77 23h-59l-21 120q34 0 56 21.5t22 55.5q0 39 -26 65t-64 26q-33 0 -56 -21t-23 -53q0 -12 6 -48l87 -488h-131l-78 438l-2 8q-1 7 -2.5 18t-3.5 23.5t-3.5 26t-1.5 22.5q0 56 34 107
q61 87 174 87q89 0 154.5 -60t65.5 -148q0 -46 -32 -100q70 -23 113 -82t43 -131q0 -91 -66.5 -155t-164.5 -64q-51 0 -80 15z" />
    <glyph glyph-name="agrave" unicode="&#xe0;" horiz-adv-x="608" 
d="M124 710h140l70 -160h-90zM420 158l-27 155q-50 53 -116 53q-51 0 -81 -31t-30 -80q0 -61 41 -102.5t98 -41.5q70 0 115 47zM249 485q104 0 138 -71l-11 61h119l84 -475h-120l-13 75q-7 -34 -46.5 -59.5t-103.5 -25.5q-68 0 -131 36q-60 35 -94.5 100t-34.5 135
q0 98 62.5 161t150.5 63z" />
    <glyph glyph-name="aacute" unicode="&#xe1;" horiz-adv-x="608" 
d="M294 710h140l-120 -160h-90zM420 158l-27 155q-50 53 -116 53q-51 0 -81 -31t-30 -80q0 -61 41 -102.5t98 -41.5q70 0 115 47zM249 485q104 0 138 -71l-11 61h119l84 -475h-120l-13 75q-7 -34 -46.5 -59.5t-103.5 -25.5q-68 0 -131 36q-60 35 -94.5 100t-34.5 135
q0 98 62.5 161t150.5 63z" />
    <glyph glyph-name="acircumflex" unicode="&#xe2;" horiz-adv-x="608" 
d="M104 550l70 160h140l130 -160h-95l-95 90l-65 -90h-85zM420 158l-27 155q-50 53 -116 53q-51 0 -81 -31t-30 -80q0 -61 41 -102.5t98 -41.5q70 0 115 47zM249 485q104 0 138 -71l-11 61h119l84 -475h-120l-13 75q-7 -34 -46.5 -59.5t-103.5 -25.5q-68 0 -131 36
q-60 35 -94.5 100t-34.5 135q0 98 62.5 161t150.5 63z" />
    <glyph glyph-name="atilde" unicode="&#xe3;" horiz-adv-x="608" 
d="M370 710l80 -16q0 -57 -29.5 -95.5t-81.5 -38.5q-32 0 -81 25t-68 25q-35 0 -40 -50l-80 16q0 57 29.5 95.5t81.5 38.5q32 0 81 -25t68 -25q35 0 40 50zM420 158l-27 155q-50 53 -116 53q-51 0 -81 -31t-30 -80q0 -61 41 -102.5t98 -41.5q70 0 115 47zM249 485
q104 0 138 -71l-11 61h119l84 -475h-120l-13 75q-7 -34 -46.5 -59.5t-103.5 -25.5q-68 0 -131 36q-60 35 -94.5 100t-34.5 135q0 98 62.5 161t150.5 63z" />
    <glyph glyph-name="adieresis" unicode="&#xe4;" horiz-adv-x="608" 
d="M70 632q0 33 23.5 55.5t56.5 22.5t56.5 -22.5t23.5 -55.5t-23.5 -55.5t-56.5 -22.5t-56.5 22.5t-23.5 55.5zM280 632q0 33 23.5 55.5t56.5 22.5t56.5 -22.5t23.5 -55.5t-23.5 -55.5t-56.5 -22.5t-56.5 22.5t-23.5 55.5zM420 158l-27 155q-50 53 -116 53q-51 0 -81 -31
t-30 -80q0 -61 41 -102.5t98 -41.5q70 0 115 47zM249 485q104 0 138 -71l-11 61h119l84 -475h-120l-13 75q-7 -34 -46.5 -59.5t-103.5 -25.5q-68 0 -131 36q-60 35 -94.5 100t-34.5 135q0 98 62.5 161t150.5 63z" />
    <glyph glyph-name="aring" unicode="&#xe5;" horiz-adv-x="608" 
d="M164 640q0 46 32 78t78 32t78 -32t32 -78t-32 -78t-78 -32t-78 32t-32 78zM244 640q0 -13 8.5 -21.5t21.5 -8.5t21.5 8.5t8.5 21.5t-8.5 21.5t-21.5 8.5t-21.5 -8.5t-8.5 -21.5zM420 158l-27 155q-50 53 -116 53q-51 0 -81 -31t-30 -80q0 -61 41 -102.5t98 -41.5
q70 0 115 47zM249 485q104 0 138 -71l-11 61h119l84 -475h-120l-13 75q-7 -34 -46.5 -59.5t-103.5 -25.5q-68 0 -131 36q-60 35 -94.5 100t-34.5 135q0 98 62.5 161t150.5 63z" />
    <glyph glyph-name="ae" unicode="&#xe6;" horiz-adv-x="915" 
d="M531 296h220q-12 38 -43 61t-68 23q-40 0 -69 -22t-40 -62zM419 158l-27 155q-50 53 -116 53q-51 0 -81 -31t-30 -80q0 -61 41 -102.5t98 -41.5q70 0 115 47zM375 475h104l8 -49q59 59 152 59q99 0 169.5 -74.5t70.5 -182.5q0 -16 -1 -24h-343q10 -48 50 -78.5t97 -30.5
q73 0 129 47l68 -85q-83 -67 -193 -67q-68 0 -126 28l3 -18h-105l-13 75q-7 -34 -46.5 -59.5t-103.5 -25.5q-68 0 -131 36q-60 35 -94.5 100t-34.5 135q0 98 62.5 161t150.5 63q104 0 138 -71z" />
    <glyph glyph-name="ccedilla" unicode="&#xe7;" horiz-adv-x="522" 
d="M422 161l95 -70q-56 -78 -156 -96l-26 -145h-130l58 144q-96 13 -162 81t-66 170q0 99 70 169.5t175 70.5q101 0 178 -63l-73 -94q-44 37 -97 37q-54 0 -88.5 -34.5t-34.5 -85.5q0 -56 42 -95.5t103 -39.5q65 0 112 51z" />
    <glyph glyph-name="egrave" unicode="&#xe8;" horiz-adv-x="538" 
d="M104 710h140l70 -160h-90zM434 142l68 -85q-83 -67 -193 -67q-115 0 -194.5 71.5t-79.5 185.5q0 105 62.5 171.5t164.5 66.5q99 0 169.5 -74.5t70.5 -182.5q0 -16 -1 -24h-337q10 -48 51 -78.5t94 -30.5q69 0 125 47zM160 296h214q-12 39 -41.5 61.5t-66.5 22.5
q-83 0 -106 -84z" />
    <glyph glyph-name="eacute" unicode="&#xe9;" horiz-adv-x="538" 
d="M274 710h140l-120 -160h-90zM434 142l68 -85q-83 -67 -193 -67q-115 0 -194.5 71.5t-79.5 185.5q0 105 62.5 171.5t164.5 66.5q99 0 169.5 -74.5t70.5 -182.5q0 -16 -1 -24h-337q10 -48 51 -78.5t94 -30.5q69 0 125 47zM160 296h214q-12 39 -41.5 61.5t-66.5 22.5
q-83 0 -106 -84z" />
    <glyph glyph-name="ecircumflex" unicode="&#xea;" horiz-adv-x="538" 
d="M74 550l70 160h140l130 -160h-95l-95 90l-65 -90h-85zM434 142l68 -85q-83 -67 -193 -67q-115 0 -194.5 71.5t-79.5 185.5q0 105 62.5 171.5t164.5 66.5q99 0 169.5 -74.5t70.5 -182.5q0 -16 -1 -24h-337q10 -48 51 -78.5t94 -30.5q69 0 125 47zM160 296h214
q-12 39 -41.5 61.5t-66.5 22.5q-83 0 -106 -84z" />
    <glyph glyph-name="edieresis" unicode="&#xeb;" horiz-adv-x="538" 
d="M52 632q0 33 23.5 55.5t56.5 22.5t56.5 -22.5t23.5 -55.5t-23.5 -55.5t-56.5 -22.5t-56.5 22.5t-23.5 55.5zM262 632q0 33 23.5 55.5t56.5 22.5t56.5 -22.5t23.5 -55.5t-23.5 -55.5t-56.5 -22.5t-56.5 22.5t-23.5 55.5zM434 142l68 -85q-83 -67 -193 -67
q-115 0 -194.5 71.5t-79.5 185.5q0 105 62.5 171.5t164.5 66.5q99 0 169.5 -74.5t70.5 -182.5q0 -16 -1 -24h-337q10 -48 51 -78.5t94 -30.5q69 0 125 47zM160 296h214q-12 39 -41.5 61.5t-66.5 22.5q-83 0 -106 -84z" />
    <glyph glyph-name="igrave" unicode="&#xec;" horiz-adv-x="277" 
d="M32 475h131l84 -475h-131zM-81 710h140l70 -160h-90z" />
    <glyph glyph-name="iacute" unicode="&#xed;" horiz-adv-x="277" 
d="M32 475h131l84 -475h-131zM108 710h140l-120 -160h-90z" />
    <glyph glyph-name="icircumflex" unicode="&#xee;" horiz-adv-x="277" 
d="M32 475h131l84 -475h-131zM-83 550l70 160h140l130 -160h-95l-95 90l-65 -90h-85z" />
    <glyph glyph-name="idieresis" unicode="&#xef;" horiz-adv-x="277" 
d="M32 475h131l84 -475h-131zM-116 632q0 33 23.5 55.5t56.5 22.5t56.5 -22.5t23.5 -55.5t-23.5 -55.5t-56.5 -22.5t-56.5 22.5t-23.5 55.5zM94 632q0 33 23.5 55.5t56.5 22.5t56.5 -22.5t23.5 -55.5t-23.5 -55.5t-56.5 -22.5t-56.5 22.5t-23.5 55.5z" />
    <glyph glyph-name="eth" unicode="&#xf0;" horiz-adv-x="585" 
d="M157 611l-79 99h154l27 -34l91 59l53 -82l-83 -53l134 -165q95 -117 95 -204q0 -101 -69.5 -171t-176.5 -70q-110 0 -189 75t-79 181q0 93 63.5 161t160.5 76l-41 51l-94 -60l-53 83zM294 365q-55 0 -92 -33.5t-37 -86.5q0 -55 41 -95t97 -40q51 0 84.5 34.5t33.5 86.5
q0 55 -54 120q-34 14 -73 14z" />
    <glyph glyph-name="ntilde" unicode="&#xf1;" horiz-adv-x="632" 
d="M375 710l80 -16q0 -57 -29.5 -95.5t-81.5 -38.5q-32 0 -81 25t-68 25q-35 0 -40 -50l-80 16q0 57 29.5 95.5t81.5 38.5q32 0 81 -25t68 -25q35 0 40 50zM311 485q105 0 174 -69q60 -58 79 -170l43 -246h-131l-41 233q-14 76 -49 105q-32 27 -79 27q-35 0 -68 -20.5
t-45 -44.5l53 -300h-131l-84 475h119l15 -85q5 41 45.5 68t99.5 27z" />
    <glyph glyph-name="ograve" unicode="&#xf2;" horiz-adv-x="585" 
d="M419 227q0 56 -40.5 97t-96.5 41q-50 0 -83.5 -33.5t-33.5 -83.5q0 -56 40.5 -97t96.5 -41q50 0 83.5 33.5t33.5 83.5zM35 248q0 99 71 168t176 69q109 0 188 -75.5t79 -182.5q0 -99 -71 -168t-176 -69q-109 0 -188 75.5t-79 182.5zM96 710h140l70 -160h-90z" />
    <glyph glyph-name="oacute" unicode="&#xf3;" horiz-adv-x="585" 
d="M419 227q0 56 -40.5 97t-96.5 41q-50 0 -83.5 -33.5t-33.5 -83.5q0 -56 40.5 -97t96.5 -41q50 0 83.5 33.5t33.5 83.5zM35 248q0 99 71 168t176 69q109 0 188 -75.5t79 -182.5q0 -99 -71 -168t-176 -69q-109 0 -188 75.5t-79 182.5zM276 710h140l-120 -160h-90z" />
    <glyph glyph-name="ocircumflex" unicode="&#xf4;" horiz-adv-x="585" 
d="M419 227q0 56 -40.5 97t-96.5 41q-50 0 -83.5 -33.5t-33.5 -83.5q0 -56 40.5 -97t96.5 -41q50 0 83.5 33.5t33.5 83.5zM35 248q0 99 71 168t176 69q109 0 188 -75.5t79 -182.5q0 -99 -71 -168t-176 -69q-109 0 -188 75.5t-79 182.5zM86 550l70 160h140l130 -160h-95
l-95 90l-65 -90h-85z" />
    <glyph glyph-name="otilde" unicode="&#xf5;" horiz-adv-x="585" 
d="M419 227q0 56 -40.5 97t-96.5 41q-50 0 -83.5 -33.5t-33.5 -83.5q0 -56 40.5 -97t96.5 -41q50 0 83.5 33.5t33.5 83.5zM35 248q0 99 71 168t176 69q109 0 188 -75.5t79 -182.5q0 -99 -71 -168t-176 -69q-109 0 -188 75.5t-79 182.5zM346 710l80 -16q0 -57 -29.5 -95.5
t-81.5 -38.5q-32 0 -81 25t-68 25q-35 0 -40 -50l-80 16q0 57 29.5 95.5t81.5 38.5q32 0 81 -25t68 -25q35 0 40 50z" />
    <glyph glyph-name="odieresis" unicode="&#xf6;" horiz-adv-x="585" 
d="M419 227q0 56 -40.5 97t-96.5 41q-50 0 -83.5 -33.5t-33.5 -83.5q0 -56 40.5 -97t96.5 -41q50 0 83.5 33.5t33.5 83.5zM35 248q0 99 71 168t176 69q109 0 188 -75.5t79 -182.5q0 -99 -71 -168t-176 -69q-109 0 -188 75.5t-79 182.5zM57 632q0 33 23.5 55.5t56.5 22.5
t56.5 -22.5t23.5 -55.5t-23.5 -55.5t-56.5 -22.5t-56.5 22.5t-23.5 55.5zM267 632q0 33 23.5 55.5t56.5 22.5t56.5 -22.5t23.5 -55.5t-23.5 -55.5t-56.5 -22.5t-56.5 22.5t-23.5 55.5z" />
    <glyph glyph-name="divide" unicode="&#xf7;" horiz-adv-x="570" 
d="M38 335h461l19 -110h-461zM384 103q0 -31 -22 -52t-53 -21t-53 21t-22 52t22 52t53 21t53 -21t22 -52zM322 457q0 -31 -22 -52t-53 -21t-53 21t-22 52t22 52t53 21t53 -21t22 -52z" />
    <glyph glyph-name="oslash" unicode="&#xf8;" horiz-adv-x="585" 
d="M35 248q0 99 71 168t176 69q33 0 73 -10l5 10h121l-30 -60q98 -78 98 -198q0 -99 -71 -168t-176 -69q-36 0 -74 10l-5 -10h-121l30 60q-97 77 -97 198zM419 227q0 44 -27 81l-99 -198h9q50 0 83.5 33.5t33.5 83.5zM165 248q0 -43 26 -80l98 197h-7q-50 0 -83.5 -33.5
t-33.5 -83.5z" />
    <glyph glyph-name="ugrave" unicode="&#xf9;" horiz-adv-x="625" 
d="M105 710h140l70 -160h-90zM315 -10q-103 0 -170 67q-55 53 -75 172l-43 246h131l41 -233q14 -79 48 -107q30 -25 72 -25q33 0 65 18t49 47l-53 300h131l84 -475h-119l-15 85q-5 -41 -46 -68t-100 -27z" />
    <glyph glyph-name="uacute" unicode="&#xfa;" horiz-adv-x="625" 
d="M287 710h140l-120 -160h-90zM315 -10q-103 0 -170 67q-55 53 -75 172l-43 246h131l41 -233q14 -79 48 -107q30 -25 72 -25q33 0 65 18t49 47l-53 300h131l84 -475h-119l-15 85q-5 -41 -46 -68t-100 -27z" />
    <glyph glyph-name="ucircumflex" unicode="&#xfb;" horiz-adv-x="625" 
d="M95 550l70 160h140l130 -160h-95l-95 90l-65 -90h-85zM315 -10q-103 0 -170 67q-55 53 -75 172l-43 246h131l41 -233q14 -79 48 -107q30 -25 72 -25q33 0 65 18t49 47l-53 300h131l84 -475h-119l-15 85q-5 -41 -46 -68t-100 -27z" />
    <glyph glyph-name="udieresis" unicode="&#xfc;" horiz-adv-x="625" 
d="M80 632q0 33 23.5 55.5t56.5 22.5t56.5 -22.5t23.5 -55.5t-23.5 -55.5t-56.5 -22.5t-56.5 22.5t-23.5 55.5zM290 632q0 33 23.5 55.5t56.5 22.5t56.5 -22.5t23.5 -55.5t-23.5 -55.5t-56.5 -22.5t-56.5 22.5t-23.5 55.5zM315 -10q-103 0 -170 67q-55 53 -75 172l-43 246
h131l41 -233q14 -79 48 -107q30 -25 72 -25q33 0 65 18t49 47l-53 300h131l84 -475h-119l-15 85q-5 -41 -46 -68t-100 -27z" />
    <glyph glyph-name="yacute" unicode="&#xfd;" horiz-adv-x="572" 
d="M279 710h140l-120 -160h-90zM319 -240h-129l84 295l-309 420h155l197 -275l76 275h129z" />
    <glyph glyph-name="thorn" unicode="&#xfe;" horiz-adv-x="611" 
d="M191 317l27 -155q50 -53 116 -53q51 0 81 31t30 80q0 61 -41 102.5t-98 41.5q-70 0 -115 -47zM-10 710h131l54 -310q7 33 44.5 59t95.5 26q68 0 131 -36q60 -35 94.5 -100t34.5 -135q0 -98 -61 -161t-148 -63q-42 0 -77 18.5t-53 52.5l54 -301h-131z" />
    <glyph glyph-name="ydieresis" unicode="&#xff;" horiz-adv-x="572" 
d="M49 632q0 33 23.5 55.5t56.5 22.5t56.5 -22.5t23.5 -55.5t-23.5 -55.5t-56.5 -22.5t-56.5 22.5t-23.5 55.5zM259 632q0 33 23.5 55.5t56.5 22.5t56.5 -22.5t23.5 -55.5t-23.5 -55.5t-56.5 -22.5t-56.5 22.5t-23.5 55.5zM319 -240h-129l84 295l-309 420h155l197 -275
l76 275h129z" />
    <glyph glyph-name="Amacron" unicode="&#x100;" horiz-adv-x="699" 
d="M89 890h320v-100h-320v100zM739 0h-153l-94 155h-281l-41 -155h-135l185 700h95zM419 275l-123 202l-53 -202h176z" />
    <glyph glyph-name="amacron" unicode="&#x101;" horiz-adv-x="608" 
d="M104 680h320v-100h-320v100zM420 158l-27 155q-50 53 -116 53q-51 0 -81 -31t-30 -80q0 -61 41 -102.5t98 -41.5q70 0 115 47zM249 485q104 0 138 -71l-11 61h119l84 -475h-120l-13 75q-7 -34 -46.5 -59.5t-103.5 -25.5q-68 0 -131 36q-60 35 -94.5 100t-34.5 135
q0 98 62.5 161t150.5 63z" />
    <glyph glyph-name="Abreve" unicode="&#x102;" horiz-adv-x="699" 
d="M99 920h105q0 -19 13 -32t32 -13t32 13t13 32h105q0 -62 -44 -106t-106 -44t-106 44t-44 106zM739 0h-153l-94 155h-281l-41 -155h-135l185 700h95zM419 275l-123 202l-53 -202h176z" />
    <glyph glyph-name="abreve" unicode="&#x103;" horiz-adv-x="608" 
d="M299 710h105q0 -62 -44 -106t-106 -44t-106 44t-44 106h105q0 -19 13 -32t32 -13t32 13t13 32zM420 158l-27 155q-50 53 -116 53q-51 0 -81 -31t-30 -80q0 -61 41 -102.5t98 -41.5q70 0 115 47zM249 485q104 0 138 -71l-11 61h119l84 -475h-120l-13 75
q-7 -34 -46.5 -59.5t-103.5 -25.5q-68 0 -131 36q-60 35 -94.5 100t-34.5 135q0 98 62.5 161t150.5 63z" />
    <glyph glyph-name="Aogonek" unicode="&#x104;" horiz-adv-x="699" 
d="M739 0q-25 -36 -25 -63q0 -18 11 -30t29 -12q13 0 25 4l15 -109q-20 -10 -65 -10q-61 0 -98 34.5t-37 85.5q0 55 30 100h-38l-94 155h-281l-41 -155h-135l185 700h95zM419 275l-123 202l-53 -202h176z" />
    <glyph glyph-name="aogonek" unicode="&#x105;" horiz-adv-x="608" 
d="M249 485q104 0 138 -71l-11 61h119l84 -475q-25 -36 -25 -63q0 -18 11 -30t29 -12q13 0 25 4l15 -109q-20 -10 -65 -10q-61 0 -98 34.5t-37 85.5q0 50 26 95l-14 80q-7 -34 -46.5 -59.5t-103.5 -25.5q-68 0 -131 36q-60 35 -94.5 100t-34.5 135q0 98 62.5 161t150.5 63z
M420 158l-27 155q-50 53 -116 53q-51 0 -81 -31t-30 -80q0 -61 41 -102.5t98 -41.5q70 0 115 47z" />
    <glyph glyph-name="Cacute" unicode="&#x106;" horiz-adv-x="703" 
d="M604 210l89 -84q-106 -136 -289 -136q-163 0 -278.5 113t-115.5 267q0 144 100.5 242t252.5 98q123 0 230 -81l-68 -101q-83 62 -162 62q-93 0 -155.5 -62t-62.5 -158q0 -105 77.5 -182.5t181.5 -77.5q37 0 67 7.5t56 25.5t39 29.5t38 37.5zM316 920h140l-120 -160h-90z
" />
    <glyph glyph-name="cacute" unicode="&#x107;" horiz-adv-x="528" 
d="M259 710h140l-120 -160h-90zM422 161l95 -70q-35 -49 -90.5 -75t-119.5 -26q-109 0 -190.5 71t-81.5 184q0 99 70 169.5t175 70.5q101 0 178 -63l-73 -94q-44 37 -97 37q-54 0 -88.5 -34.5t-34.5 -85.5q0 -56 42 -95.5t103 -39.5q65 0 112 51z" />
    <glyph glyph-name="Ccircumflex" unicode="&#x108;" horiz-adv-x="703" 
d="M604 210l89 -84q-106 -136 -289 -136q-163 0 -278.5 113t-115.5 267q0 144 100.5 242t252.5 98q123 0 230 -81l-68 -101q-83 62 -162 62q-93 0 -155.5 -62t-62.5 -158q0 -105 77.5 -182.5t181.5 -77.5q37 0 67 7.5t56 25.5t39 29.5t38 37.5zM161 760l70 160h140l130 -160
h-95l-95 90l-65 -90h-85z" />
    <glyph glyph-name="ccircumflex" unicode="&#x109;" horiz-adv-x="528" 
d="M74 550l70 160h140l130 -160h-95l-95 90l-65 -90h-85zM422 161l95 -70q-35 -49 -90.5 -75t-119.5 -26q-109 0 -190.5 71t-81.5 184q0 99 70 169.5t175 70.5q101 0 178 -63l-73 -94q-44 37 -97 37q-54 0 -88.5 -34.5t-34.5 -85.5q0 -56 42 -95.5t103 -39.5q65 0 112 51z
" />
    <glyph glyph-name="Cdotaccent" unicode="&#x10a;" horiz-adv-x="703" 
d="M604 210l89 -84q-106 -136 -289 -136q-163 0 -278.5 113t-115.5 267q0 144 100.5 242t252.5 98q123 0 230 -81l-68 -101q-83 62 -162 62q-93 0 -155.5 -62t-62.5 -158q0 -105 77.5 -182.5t181.5 -77.5q37 0 67 7.5t56 25.5t39 29.5t38 37.5zM225 857q0 35 25 59t60 24
t60 -24t25 -59t-25 -59t-60 -24t-60 24t-25 59z" />
    <glyph glyph-name="cdotaccent" unicode="&#x10b;" horiz-adv-x="528" 
d="M139 647q0 35 25 59t60 24t60 -24t25 -59t-25 -59t-60 -24t-60 24t-25 59zM422 161l95 -70q-35 -49 -90.5 -75t-119.5 -26q-109 0 -190.5 71t-81.5 184q0 99 70 169.5t175 70.5q101 0 178 -63l-73 -94q-44 37 -97 37q-54 0 -88.5 -34.5t-34.5 -85.5q0 -56 42 -95.5
t103 -39.5q65 0 112 51z" />
    <glyph glyph-name="Ccaron" unicode="&#x10c;" horiz-adv-x="703" 
d="M604 210l89 -84q-106 -136 -289 -136q-163 0 -278.5 113t-115.5 267q0 144 100.5 242t252.5 98q123 0 230 -81l-68 -101q-83 62 -162 62q-93 0 -155.5 -62t-62.5 -158q0 -105 77.5 -182.5t181.5 -77.5q37 0 67 7.5t56 25.5t39 29.5t38 37.5zM471 920l-70 -160h-140
l-130 160h95l95 -90l65 90h85z" />
    <glyph glyph-name="ccaron" unicode="&#x10d;" horiz-adv-x="528" 
d="M394 710l-70 -160h-140l-130 160h95l95 -90l65 90h85zM422 161l95 -70q-35 -49 -90.5 -75t-119.5 -26q-109 0 -190.5 71t-81.5 184q0 99 70 169.5t175 70.5q101 0 178 -63l-73 -94q-44 37 -97 37q-54 0 -88.5 -34.5t-34.5 -85.5q0 -56 42 -95.5t103 -39.5q65 0 112 51z
" />
    <glyph glyph-name="Dcaron" unicode="&#x10e;" horiz-adv-x="734" 
d="M-3 700h282q147 0 244 -68q74 -52 117.5 -132t43.5 -169q0 -86 -39 -158t-108 -117q-86 -56 -226 -56h-190zM278 580h-124l82 -460h75q109 0 166 49q72 62 72 162q0 57 -26.5 109t-71.5 88q-67 52 -173 52zM367 935l-70 -160h-140l-130 160h95l95 -90l65 90h85z" />
    <glyph glyph-name="dcaron" unicode="&#x10f;" horiz-adv-x="708" 
d="M593 700h140l-120 -160h-90zM419 158l-27 155q-50 53 -116 53q-51 0 -81 -31t-30 -80q0 -61 41 -102.5t98 -41.5q70 0 115 47zM374 414l-53 296h131l126 -710h-120l-13 75q-7 -34 -46.5 -59.5t-103.5 -25.5q-68 0 -131 36q-60 35 -94.5 100t-34.5 135q0 98 61 161t148 63
q42 0 77 -18.5t53 -52.5z" />
    <glyph glyph-name="Dcroat" unicode="&#x110;" horiz-adv-x="734" 
d="M57 700h282q147 0 244 -68q74 -52 117.5 -132t43.5 -169q0 -86 -39 -158t-108 -117q-86 -56 -226 -56h-190l-56 315h-100l-21 120h100zM338 580h-124l26 -145h200l21 -120h-200l35 -195h75q109 0 166 49q72 62 72 162q0 57 -26.5 109t-71.5 88q-67 52 -173 52z" />
    <glyph glyph-name="dcroat" unicode="&#x111;" horiz-adv-x="608" 
d="M374 414l-23 126h-130l-20 110h130l-10 60h131l10 -60h80l20 -110h-80l96 -540h-120l-13 75q-7 -34 -46.5 -59.5t-103.5 -25.5q-68 0 -131 36q-60 35 -94.5 100t-34.5 135q0 98 61 161t148 63q42 0 77 -18.5t53 -52.5zM419 158l-27 155q-50 53 -116 53q-51 0 -81 -31
t-30 -80q0 -61 41 -102.5t98 -41.5q70 0 115 47z" />
    <glyph glyph-name="Emacron" unicode="&#x112;" horiz-adv-x="551" 
d="M121 0l-124 700h420l21 -120h-284l26 -145h214l21 -120h-214l34 -195h295l21 -120h-430zM35 890h320v-100h-320v100z" />
    <glyph glyph-name="emacron" unicode="&#x113;" horiz-adv-x="538" 
d="M69 680h320v-100h-320v100zM434 142l68 -85q-83 -67 -193 -67q-115 0 -194.5 71.5t-79.5 185.5q0 105 62.5 171.5t164.5 66.5q99 0 169.5 -74.5t70.5 -182.5q0 -16 -1 -24h-337q10 -48 51 -78.5t94 -30.5q69 0 125 47zM160 296h214q-12 39 -41.5 61.5t-66.5 22.5
q-83 0 -106 -84z" />
    <glyph glyph-name="Ebreve" unicode="&#x114;" horiz-adv-x="551" 
d="M121 0l-124 700h420l21 -120h-284l26 -145h214l21 -120h-214l34 -195h295l21 -120h-430zM230 925h105q0 -62 -44 -106t-106 -44t-106 44t-44 106h105q0 -19 13 -32t32 -13t32 13t13 32z" />
    <glyph glyph-name="ebreve" unicode="&#x115;" horiz-adv-x="538" 
d="M254 710h105q0 -62 -44 -106t-106 -44t-106 44t-44 106h105q0 -19 13 -32t32 -13t32 13t13 32zM434 142l68 -85q-83 -67 -193 -67q-115 0 -194.5 71.5t-79.5 185.5q0 105 62.5 171.5t164.5 66.5q99 0 169.5 -74.5t70.5 -182.5q0 -16 -1 -24h-337q10 -48 51 -78.5
t94 -30.5q69 0 125 47zM160 296h214q-12 39 -41.5 61.5t-66.5 22.5q-83 0 -106 -84z" />
    <glyph glyph-name="Edotaccent" unicode="&#x116;" horiz-adv-x="551" 
d="M121 0l-124 700h420l21 -120h-284l26 -145h214l21 -120h-214l34 -195h295l21 -120h-430zM100 857q0 35 25 59t60 24t60 -24t25 -59t-25 -59t-60 -24t-60 24t-25 59z" />
    <glyph glyph-name="edotaccent" unicode="&#x117;" horiz-adv-x="538" 
d="M134 647q0 35 25 59t60 24t60 -24t25 -59t-25 -59t-60 -24t-60 24t-25 59zM434 142l68 -85q-83 -67 -193 -67q-115 0 -194.5 71.5t-79.5 185.5q0 105 62.5 171.5t164.5 66.5q99 0 169.5 -74.5t70.5 -182.5q0 -16 -1 -24h-337q10 -48 51 -78.5t94 -30.5q69 0 125 47z
M160 296h214q-12 39 -41.5 61.5t-66.5 22.5q-83 0 -106 -84z" />
    <glyph glyph-name="Eogonek" unicode="&#x118;" horiz-adv-x="551" 
d="M121 0l-124 700h420l21 -120h-284l26 -145h214l21 -120h-214l34 -195h295l21 -120h-49q-25 -36 -25 -63q0 -18 11 -30t29 -12q13 0 25 4l15 -109q-20 -10 -65 -10q-61 0 -98 34.5t-37 85.5q0 55 30 100h-266z" />
    <glyph glyph-name="eogonek" unicode="&#x119;" horiz-adv-x="538" 
d="M434 142l68 -85q-45 -36 -98 -53q-28 -36 -28 -67q0 -18 11 -30t29 -12q13 0 25 4l15 -109q-20 -10 -65 -10q-61 0 -98 34.5t-37 85.5q0 49 25 91q-106 9 -176 79t-70 177q0 105 62.5 171.5t164.5 66.5q99 0 169.5 -74.5t70.5 -182.5q0 -16 -1 -24h-337q10 -48 51 -78.5
t94 -30.5q69 0 125 47zM160 296h214q-12 39 -41.5 61.5t-66.5 22.5q-83 0 -106 -84z" />
    <glyph glyph-name="Ecaron" unicode="&#x11a;" horiz-adv-x="551" 
d="M121 0l-124 700h420l21 -120h-284l26 -145h214l21 -120h-214l34 -195h295l21 -120h-430zM335 920l-70 -160h-140l-130 160h95l95 -90l65 90h85z" />
    <glyph glyph-name="ecaron" unicode="&#x11b;" horiz-adv-x="538" 
d="M359 710l-70 -160h-140l-130 160h95l95 -90l65 90h85zM434 142l68 -85q-83 -67 -193 -67q-115 0 -194.5 71.5t-79.5 185.5q0 105 62.5 171.5t164.5 66.5q99 0 169.5 -74.5t70.5 -182.5q0 -16 -1 -24h-337q10 -48 51 -78.5t94 -30.5q69 0 125 47zM160 296h214
q-12 39 -41.5 61.5t-66.5 22.5q-83 0 -106 -84z" />
    <glyph glyph-name="Gcircumflex" unicode="&#x11c;" horiz-adv-x="733" 
d="M161 760l70 160h140l130 -160h-95l-95 90l-65 -90h-85zM324 435h315l54 -309q-106 -136 -289 -136q-163 0 -278.5 113t-115.5 267q0 144 100.5 242t252.5 98q123 0 230 -81l-68 -101q-83 62 -162 62q-93 0 -155.5 -62t-62.5 -158q0 -105 77.5 -182.5t181.5 -77.5
q87 0 146 49l-27 156h-178z" />
    <glyph glyph-name="gcircumflex" unicode="&#x11d;" horiz-adv-x="608" 
d="M104 550l70 160h140l130 -160h-95l-95 90l-65 -90h-85zM442 37l-7 38q-7 -33 -44.5 -59t-95.5 -26q-68 0 -131 36q-60 35 -94.5 100t-34.5 135q0 98 62.5 161t150.5 63q104 0 138 -71l-11 61h119l77 -432q8 -44 8 -82q0 -89 -70.5 -150t-175.5 -61q-119 0 -209 82l76 93
q59 -55 133 -55q48 0 82 25.5t34 71.5q0 32 -7 70zM419 158l-27 155q-50 53 -116 53q-51 0 -81 -31t-30 -80q0 -61 41 -102.5t98 -41.5q70 0 115 47z" />
    <glyph glyph-name="Gbreve" unicode="&#x11e;" horiz-adv-x="733" 
d="M324 435h315l54 -309q-106 -136 -289 -136q-163 0 -278.5 113t-115.5 267q0 144 100.5 242t252.5 98q123 0 230 -81l-68 -101q-83 62 -162 62q-93 0 -155.5 -62t-62.5 -158q0 -105 77.5 -182.5t181.5 -77.5q87 0 146 49l-27 156h-178zM361 920h105q0 -62 -44 -106
t-106 -44t-106 44t-44 106h105q0 -19 13 -32t32 -13t32 13t13 32z" />
    <glyph glyph-name="gbreve" unicode="&#x11f;" horiz-adv-x="608" 
d="M299 710h105q0 -62 -44 -106t-106 -44t-106 44t-44 106h105q0 -19 13 -32t32 -13t32 13t13 32zM442 37l-7 38q-7 -33 -44.5 -59t-95.5 -26q-68 0 -131 36q-60 35 -94.5 100t-34.5 135q0 98 62.5 161t150.5 63q104 0 138 -71l-11 61h119l77 -432q8 -44 8 -82
q0 -89 -70.5 -150t-175.5 -61q-119 0 -209 82l76 93q59 -55 133 -55q48 0 82 25.5t34 71.5q0 32 -7 70zM419 158l-27 155q-50 53 -116 53q-51 0 -81 -31t-30 -80q0 -61 41 -102.5t98 -41.5q70 0 115 47z" />
    <glyph glyph-name="Gdotaccent" unicode="&#x120;" horiz-adv-x="733" 
d="M225 857q0 35 25 59t60 24t60 -24t25 -59t-25 -59t-60 -24t-60 24t-25 59zM324 435h315l54 -309q-106 -136 -289 -136q-163 0 -278.5 113t-115.5 267q0 144 100.5 242t252.5 98q123 0 230 -81l-68 -101q-83 62 -162 62q-93 0 -155.5 -62t-62.5 -158q0 -105 77.5 -182.5
t181.5 -77.5q87 0 146 49l-27 156h-178z" />
    <glyph glyph-name="gdotaccent" unicode="&#x121;" horiz-adv-x="608" 
d="M179 647q0 35 25 59t60 24t60 -24t25 -59t-25 -59t-60 -24t-60 24t-25 59zM442 37l-7 38q-7 -33 -44.5 -59t-95.5 -26q-68 0 -131 36q-60 35 -94.5 100t-34.5 135q0 98 62.5 161t150.5 63q104 0 138 -71l-11 61h119l77 -432q8 -44 8 -82q0 -89 -70.5 -150t-175.5 -61
q-119 0 -209 82l76 93q59 -55 133 -55q48 0 82 25.5t34 71.5q0 32 -7 70zM419 158l-27 155q-50 53 -116 53q-51 0 -81 -31t-30 -80q0 -61 41 -102.5t98 -41.5q70 0 115 47z" />
    <glyph glyph-name="Gcommaaccent" unicode="&#x122;" horiz-adv-x="733" 
d="M324 435h315l54 -309q-106 -136 -289 -136q-163 0 -278.5 113t-115.5 267q0 144 100.5 242t252.5 98q123 0 230 -81l-68 -101q-83 62 -162 62q-93 0 -155.5 -62t-62.5 -158q0 -105 77.5 -182.5t181.5 -77.5q87 0 146 49l-27 156h-178zM362 -60h140l-120 -160h-90z" />
    <glyph glyph-name="gcommaaccent" unicode="&#x123;" horiz-adv-x="608" 
d="M325 550h-140l120 160h90zM442 37l-7 38q-7 -33 -44.5 -59t-95.5 -26q-68 0 -131 36q-60 35 -94.5 100t-34.5 135q0 98 62.5 161t150.5 63q104 0 138 -71l-11 61h119l77 -432q8 -44 8 -82q0 -89 -70.5 -150t-175.5 -61q-119 0 -209 82l76 93q59 -55 133 -55q48 0 82 25.5
t34 71.5q0 32 -7 70zM419 158l-27 155q-50 53 -116 53q-51 0 -81 -31t-30 -80q0 -61 41 -102.5t98 -41.5q70 0 115 47z" />
    <glyph glyph-name="Hcircumflex" unicode="&#x124;" horiz-adv-x="779" 
d="M201 315l56 -315h-136l-124 700h136l47 -265h349l-47 265h136l124 -700h-136l-56 315h-349zM133 760l70 160h140l130 -160h-95l-95 90l-65 -90h-85z" />
    <glyph glyph-name="hcircumflex" unicode="&#x125;" horiz-adv-x="632" 
d="M-109 770l70 160h140l130 -160h-95l-95 90l-65 -90h-85zM311 485q105 0 174 -69q60 -58 79 -170l43 -246h-131l-41 233q-14 76 -49 105q-32 27 -79 27q-35 0 -68 -20.5t-45 -44.5l53 -300h-131l-126 710h131l57 -320q5 41 41.5 68t91.5 27z" />
    <glyph glyph-name="Hbar" unicode="&#x126;" horiz-adv-x="779" 
d="M201 315l56 -315h-136l-92 521h-101l-21 120h101l-11 59h136l11 -59h349l-11 59h136l11 -59h100l21 -120h-100l92 -521h-136l-56 315h-349zM180 435h349l-15 86h-349z" />
    <glyph glyph-name="hbar" unicode="&#x127;" horiz-adv-x="632" 
d="M311 485q105 0 174 -69q60 -58 79 -170l43 -246h-131l-41 233q-14 76 -49 105q-32 27 -79 27q-35 0 -68 -20.5t-45 -44.5l53 -300h-131l-96 540h-79l-20 100h81l-12 70h131l12 -70h129l20 -100h-131l27 -150q5 41 41.5 68t91.5 27z" />
    <glyph glyph-name="Itilde" unicode="&#x128;" horiz-adv-x="294" 
d="M133 700l124 -700h-136l-124 700h136zM147 920l80 -16q0 -57 -29.5 -95.5t-81.5 -38.5q-32 0 -81 25t-68 25q-35 0 -40 -50l-80 16q0 57 29.5 95.5t81.5 38.5q32 0 81 -25t68 -25q35 0 40 50z" />
    <glyph glyph-name="itilde" unicode="&#x129;" horiz-adv-x="277" 
d="M32 475h131l84 -475h-131zM182 710l80 -16q0 -57 -29.5 -95.5t-81.5 -38.5q-32 0 -81 25t-68 25q-35 0 -40 -50l-80 16q0 57 29.5 95.5t81.5 38.5q32 0 81 -25t68 -25q35 0 40 50z" />
    <glyph glyph-name="Imacron" unicode="&#x12a;" horiz-adv-x="294" 
d="M133 700l124 -700h-136l-124 700h136zM-104 890h320v-100h-320v100z" />
    <glyph glyph-name="imacron" unicode="&#x12b;" horiz-adv-x="277" 
d="M32 475h131l84 -475h-131zM-84 680h320v-100h-320v100z" />
    <glyph glyph-name="Ibreve" unicode="&#x12c;" horiz-adv-x="294" 
d="M273 700l124 -700h-136l-124 700h136zM37 920h105q0 -19 13 -32t32 -13t32 13t13 32h105q0 -62 -44 -106t-106 -44t-106 44t-44 106z" />
    <glyph glyph-name="ibreve" unicode="&#x12d;" horiz-adv-x="277" 
d="M32 475h131l84 -475h-131zM-79 710h105q0 -19 13 -32t32 -13t32 13t13 32h105q0 -62 -44 -106t-106 -44t-106 44t-44 106z" />
    <glyph glyph-name="Iogonek" unicode="&#x12e;" horiz-adv-x="294" 
d="M133 700l124 -700q-26 -38 -26 -63q0 -18 11 -30t29 -12q13 0 25 4l15 -109q-20 -10 -65 -10q-61 0 -98 34.5t-37 85.5q0 55 30 100h-20l-124 700h136z" />
    <glyph glyph-name="iogonek" unicode="&#x12f;" horiz-adv-x="277" 
d="M116 0l-84 475h131l84 -475q-25 -36 -25 -63q0 -18 11 -30t29 -12q13 0 25 4l15 -109q-20 -10 -65 -10q-61 0 -98 34.5t-37 85.5q0 55 30 100h-16zM152 647q0 -35 -25 -59t-60 -24t-60 24t-25 59t25 59t60 24t60 -24t25 -59z" />
    <glyph glyph-name="Idotaccent" unicode="&#x130;" horiz-adv-x="294" 
d="M133 700l124 -700h-136l-124 700h136zM128 857q0 -35 -25 -59t-60 -24t-60 24t-25 59t25 59t60 24t60 -24t25 -59z" />
    <glyph glyph-name="dotlessi" unicode="&#x131;" horiz-adv-x="277" 
d="M32 475h131l84 -475h-131z" />
    <glyph glyph-name="IJ" unicode="&#x132;" horiz-adv-x="798" 
d="M133 700l124 -700h-136l-124 700h136zM649 700l71 -398q18 -95 18 -125q0 -79 -57.5 -133t-148.5 -54q-72 0 -123.5 33t-79.5 78l106 68q37 -59 97 -59q30 0 50.5 18t20.5 49q0 19 -8 61l-82 462h136z" />
    <glyph glyph-name="ij" unicode="&#x133;" horiz-adv-x="587" 
d="M32 475h131l84 -475h-131zM152 647q0 -35 -25 -59t-60 -24t-60 24t-25 59t25 59t60 24t60 -24t25 -59zM318 -246l11 119q12 -3 35 -3q31 0 51 18t20 50q0 12 -7 52l-86 485h131l80 -452q11 -66 11 -84q0 -62 -25 -103t-69.5 -63.5t-99.5 -22.5q-37 0 -52 4zM462 647
q0 -35 -25 -59t-60 -24t-60 24t-25 59t25 59t60 24t60 -24t25 -59z" />
    <glyph glyph-name="Jcircumflex" unicode="&#x134;" horiz-adv-x="504" 
d="M100 760l70 160h140l130 -160h-95l-95 90l-65 -90h-85zM355 700l71 -398q18 -95 18 -125q0 -79 -57.5 -133t-148.5 -54q-72 0 -123.5 33t-79.5 78l106 68q37 -59 97 -59q30 0 50.5 18t20.5 49q0 19 -8 61l-82 462h136z" />
    <glyph glyph-name="jcircumflex" unicode="&#x135;" horiz-adv-x="310" 
d="M-60 550l70 160h140l130 -160h-95l-95 90l-65 -90h-85zM41 -246l11 119q12 -3 35 -3q31 0 51 18t20 50q0 12 -7 52l-86 485h131l80 -452q11 -66 11 -84q0 -62 -25 -103t-69.5 -63.5t-99.5 -22.5q-37 0 -52 4z" />
    <glyph glyph-name="Kcommaaccent" unicode="&#x136;" horiz-adv-x="700" 
d="M557 0l-359 340l61 -340h-133l-124 700h133l50 -281l237 281h169l-263 -308l417 -392h-188zM352 -60h140l-120 -160h-90z" />
    <glyph glyph-name="kcommaaccent" unicode="&#x137;" horiz-adv-x="586" 
d="M320 278l316 -278h-188l-238 210l37 -210h-131l-126 710h131l69 -388l148 153h174zM282 -60h140l-120 -160h-90z" />
    <glyph glyph-name="kgreenlandic" unicode="&#x138;" horiz-adv-x="586" 
d="M320 278l316 -278h-188l-238 210l37 -210h-131l-84 475h131l27 -153l148 153h174z" />
    <glyph glyph-name="Lacute" unicode="&#x139;" horiz-adv-x="546" 
d="M67 920h140l-120 -160h-90zM121 0l-124 700h136l102 -580h295l21 -120h-430z" />
    <glyph glyph-name="lacute" unicode="&#x13a;" horiz-adv-x="277" 
d="M60 930h140l-120 -160h-90zM121 710l126 -710h-131l-126 710h131z" />
    <glyph glyph-name="Lcommaaccent" unicode="&#x13b;" horiz-adv-x="546" 
d="M121 0l-124 700h136l102 -580h295l21 -120h-430zM287 -60h140l-120 -160h-90z" />
    <glyph glyph-name="lcommaaccent" unicode="&#x13c;" horiz-adv-x="277" 
d="M121 710l126 -710h-131l-126 710h131zM126 -60h140l-120 -160h-90z" />
    <glyph glyph-name="Lcaron" unicode="&#x13d;" horiz-adv-x="546" 
d="M121 0l-124 700h136l102 -580h295l21 -120h-430zM281 700h140l-120 -160h-90z" />
    <glyph glyph-name="lcaron" unicode="&#x13e;" horiz-adv-x="378" 
d="M121 710l126 -710h-131l-126 710h131zM263 700h140l-120 -160h-90z" />
    <glyph glyph-name="Ldot" unicode="&#x13f;" horiz-adv-x="546" 
d="M121 0l-124 700h136l102 -580h295l21 -120h-430zM276 350q0 35 25 59t60 24t60 -24t25 -59t-25 -59t-60 -24t-60 24t-25 59z" />
    <glyph glyph-name="ldot" unicode="&#x140;" horiz-adv-x="377" 
d="M121 710l126 -710h-131l-126 710h131zM225 350q0 35 25 59t60 24t60 -24t25 -59t-25 -59t-60 -24t-60 24t-25 59z" />
    <glyph glyph-name="Lslash" unicode="&#x141;" horiz-adv-x="546" 
d="M-25 205l-22 122l99 63l-55 310h136l40 -232l126 82l22 -122l-126 -82l40 -226h295l21 -120h-430l-48 268z" />
    <glyph glyph-name="lslash" unicode="&#x142;" horiz-adv-x="277" 
d="M-31 210l-22 122l98 66l-55 312h131l42 -238l99 64l21 -122l-98 -64l62 -350h-131l-49 275z" />
    <glyph glyph-name="Nacute" unicode="&#x143;" horiz-adv-x="779" 
d="M561 253l-79 447h136l124 -700h-95l-469 445l79 -445h-136l-124 700h95zM314 920h140l-120 -160h-90z" />
    <glyph glyph-name="nacute" unicode="&#x144;" horiz-adv-x="632" 
d="M301 710h140l-120 -160h-90zM311 485q105 0 174 -69q60 -58 79 -170l43 -246h-131l-41 233q-14 76 -49 105q-32 27 -79 27q-35 0 -68 -20.5t-45 -44.5l53 -300h-131l-84 475h119l15 -85q5 41 45.5 68t99.5 27z" />
    <glyph glyph-name="Ncommaaccent" unicode="&#x145;" horiz-adv-x="779" 
d="M561 253l-79 447h136l124 -700h-95l-469 445l79 -445h-136l-124 700h95zM372 -60h140l-120 -160h-90z" />
    <glyph glyph-name="ncommaaccent" unicode="&#x146;" horiz-adv-x="632" 
d="M302 -60h140l-120 -160h-90zM311 485q105 0 174 -69q60 -58 79 -170l43 -246h-131l-41 233q-14 76 -49 105q-32 27 -79 27q-35 0 -68 -20.5t-45 -44.5l53 -300h-131l-84 475h119l15 -85q5 41 45.5 68t99.5 27z" />
    <glyph glyph-name="Ncaron" unicode="&#x147;" horiz-adv-x="779" 
d="M561 253l-79 447h136l124 -700h-95l-469 445l79 -445h-136l-124 700h95zM439 920l-70 -160h-140l-130 160h95l95 -90l65 90h85z" />
    <glyph glyph-name="ncaron" unicode="&#x148;" horiz-adv-x="632" 
d="M406 710l-70 -160h-140l-130 160h95l95 -90l65 90h85zM311 485q105 0 174 -69q60 -58 79 -170l43 -246h-131l-41 233q-14 76 -49 105q-32 27 -79 27q-35 0 -68 -20.5t-45 -44.5l53 -300h-131l-84 475h119l15 -85q5 41 45.5 68t99.5 27z" />
    <glyph glyph-name="napostrophe" unicode="&#x149;" horiz-adv-x="632" 
d="M91 700h140l-120 -160h-90zM311 485q105 0 174 -69q60 -58 79 -170l43 -246h-131l-41 233q-14 76 -49 105q-32 27 -79 27q-35 0 -68 -20.5t-45 -44.5l53 -300h-131l-84 475h119l15 -85q5 41 45.5 68t99.5 27z" />
    <glyph glyph-name="Eng" unicode="&#x14a;" horiz-adv-x="779" 
d="M618 700l114 -638q18 -95 18 -125q0 -79 -57.5 -133t-148.5 -54q-72 0 -123.5 33t-79.5 78l106 68q37 -59 97 -59q30 0 50.5 18t20.5 49q0 19 -8 61l-9 48l-420 399l79 -445h-136l-124 700h95l469 -447l-79 447h136z" />
    <glyph glyph-name="eng" unicode="&#x14b;" horiz-adv-x="632" 
d="M151 475l15 -85q5 41 45.5 68t99.5 27q105 0 174 -69q60 -58 79 -170l42 -246q8 -42 8 -61q0 -83 -58 -136t-142 -53q-69 0 -115 27l49 107q28 -14 66 -14q34 0 52.5 19t18.5 49q0 12 -7 52l-43 243q-14 76 -49 105q-32 27 -79 27q-35 0 -68 -20.5t-45 -44.5l53 -300
h-131l-84 475h119z" />
    <glyph glyph-name="Omacron" unicode="&#x14c;" horiz-adv-x="800" 
d="M615 330q0 103 -75.5 181.5t-176.5 78.5q-93 0 -155.5 -62.5t-62.5 -157.5q0 -103 75.5 -181.5t176.5 -78.5q93 0 155.5 62.5t62.5 157.5zM10 370q0 144 100.5 242t252.5 98q160 0 273.5 -114t113.5 -266q0 -144 -100.5 -242t-252.5 -98q-160 0 -273.5 114t-113.5 266z
M160 890h320v-100h-320v100z" />
    <glyph glyph-name="omacron" unicode="&#x14d;" horiz-adv-x="585" 
d="M419 227q0 56 -40.5 97t-96.5 41q-50 0 -83.5 -33.5t-33.5 -83.5q0 -56 40.5 -97t96.5 -41q50 0 83.5 33.5t33.5 83.5zM35 248q0 99 71 168t176 69q109 0 188 -75.5t79 -182.5q0 -99 -71 -168t-176 -69q-109 0 -188 75.5t-79 182.5zM73 680h320v-100h-320v100z" />
    <glyph glyph-name="Obreve" unicode="&#x14e;" horiz-adv-x="800" 
d="M655 330q0 103 -75.5 181.5t-176.5 78.5q-93 0 -155.5 -62.5t-62.5 -157.5q0 -103 75.5 -181.5t176.5 -78.5q93 0 155.5 62.5t62.5 157.5zM50 370q0 144 100.5 242t252.5 98q160 0 273.5 -114t113.5 -266q0 -144 -100.5 -242t-252.5 -98q-160 0 -273.5 114t-113.5 266z
M190 920h105q0 -19 13 -32t32 -13t32 13t13 32h105q0 -62 -44 -106t-106 -44t-106 44t-44 106z" />
    <glyph glyph-name="obreve" unicode="&#x14f;" horiz-adv-x="585" 
d="M419 227q0 56 -40.5 97t-96.5 41q-50 0 -83.5 -33.5t-33.5 -83.5q0 -56 40.5 -97t96.5 -41q50 0 83.5 33.5t33.5 83.5zM35 248q0 99 71 168t176 69q109 0 188 -75.5t79 -182.5q0 -99 -71 -168t-176 -69q-109 0 -188 75.5t-79 182.5zM73 710h105q0 -19 13 -32t32 -13
t32 13t13 32h105q0 -62 -44 -106t-106 -44t-106 44t-44 106z" />
    <glyph glyph-name="Ohungarumlaut" unicode="&#x150;" horiz-adv-x="800" 
d="M615 330q0 103 -75.5 181.5t-176.5 78.5q-93 0 -155.5 -62.5t-62.5 -157.5q0 -103 75.5 -181.5t176.5 -78.5q93 0 155.5 62.5t62.5 157.5zM10 370q0 144 100.5 242t252.5 98q160 0 273.5 -114t113.5 -266q0 -144 -100.5 -242t-252.5 -98q-160 0 -273.5 114t-113.5 266z
M230 920h140l-120 -160h-90zM450 920h140l-120 -160h-90z" />
    <glyph glyph-name="ohungarumlaut" unicode="&#x151;" horiz-adv-x="585" 
d="M419 227q0 56 -40.5 97t-96.5 41q-50 0 -83.5 -33.5t-33.5 -83.5q0 -56 40.5 -97t96.5 -41q50 0 83.5 33.5t33.5 83.5zM35 248q0 99 71 168t176 69q109 0 188 -75.5t79 -182.5q0 -99 -71 -168t-176 -69q-109 0 -188 75.5t-79 182.5zM132 710h140l-120 -160h-90zM352 710
h140l-120 -160h-90z" />
    <glyph glyph-name="OE" unicode="&#x152;" horiz-adv-x="1107" 
d="M561 655l-8 45h420l21 -120h-284l26 -145h214l21 -120h-214l34 -195h295l21 -120h-430l-18 99q-90 -109 -262 -109q-160 0 -273.5 114t-113.5 266q0 144 100.5 242t252.5 98q107 0 198 -55zM615 330q0 103 -75.5 181.5t-176.5 78.5q-93 0 -155.5 -62.5t-62.5 -157.5
q0 -103 75.5 -181.5t176.5 -78.5q93 0 155.5 62.5t62.5 157.5z" />
    <glyph glyph-name="oe" unicode="&#x153;" horiz-adv-x="922" 
d="M35 248q0 99 71 168t176 69q114 0 190 -83q59 85 174 85q99 0 169.5 -74.5t70.5 -182.5q0 -16 -1 -24h-337q10 -48 51 -78.5t94 -30.5q69 0 125 47l68 -85q-83 -67 -193 -67q-128 0 -203 86q-68 -88 -188 -88q-109 0 -188 75.5t-79 182.5zM419 227q0 56 -40.5 97
t-96.5 41q-50 0 -83.5 -33.5t-33.5 -83.5q0 -56 40.5 -97t96.5 -41q50 0 83.5 33.5t33.5 83.5zM544 298h214q-12 39 -41.5 61.5t-66.5 22.5q-83 0 -106 -84z" />
    <glyph glyph-name="Racute" unicode="&#x154;" horiz-adv-x="676" 
d="M257 0h-136l-124 700h256q89 0 137 -28q46 -27 73 -72t27 -99q0 -44 -20 -83t-55 -65q-9 -7 -18 -12l324 -341h-178l-295 315h-47zM181 430h76q46 0 71 16q27 17 27 54q0 39 -23 59q-24 21 -80 21h-98zM193 920h140l-120 -160h-90z" />
    <glyph glyph-name="racute" unicode="&#x155;" horiz-adv-x="422" 
d="M204 710h140l-120 -160h-90zM311 485q26 0 46 -4l-13 -119q-13 3 -34 3q-34 0 -66 -19.5t-49 -50.5l52 -295h-131l-84 475h119l15 -85q5 41 45.5 68t99.5 27z" />
    <glyph glyph-name="Rcommaaccent" unicode="&#x156;" horiz-adv-x="676" 
d="M257 0h-136l-124 700h256q89 0 137 -28q46 -27 73 -72t27 -99q0 -44 -20 -83t-55 -65q-9 -7 -18 -12l324 -341h-178l-295 315h-47zM181 430h76q46 0 71 16q27 17 27 54q0 39 -23 59q-24 21 -80 21h-98zM342 -60h140l-120 -160h-90z" />
    <glyph glyph-name="rcommaaccent" unicode="&#x157;" horiz-adv-x="422" 
d="M126 -60h140l-120 -160h-90zM311 485q26 0 46 -4l-13 -119q-13 3 -34 3q-34 0 -66 -19.5t-49 -50.5l52 -295h-131l-84 475h119l15 -85q5 41 45.5 68t99.5 27z" />
    <glyph glyph-name="Rcaron" unicode="&#x158;" horiz-adv-x="676" 
d="M257 0h-136l-124 700h256q89 0 137 -28q46 -27 73 -72t27 -99q0 -44 -20 -83t-55 -65q-9 -7 -18 -12l324 -341h-178l-295 315h-47zM181 430h76q46 0 71 16q27 17 27 54q0 39 -23 59q-24 21 -80 21h-98zM328 920l-70 -160h-140l-130 160h95l95 -90l65 90h85z" />
    <glyph glyph-name="rcaron" unicode="&#x159;" horiz-adv-x="422" 
d="M349 710l-70 -160h-140l-130 160h95l95 -90l65 90h85zM311 485q26 0 46 -4l-13 -119q-13 3 -34 3q-34 0 -66 -19.5t-49 -50.5l52 -295h-131l-84 475h119l15 -85q5 41 45.5 68t99.5 27z" />
    <glyph glyph-name="Sacute" unicode="&#x15a;" horiz-adv-x="537" 
d="M203 920h140l-120 -160h-90zM35 95l80 91q31 -33 73.5 -54.5t84.5 -21.5q44 0 71.5 23t27.5 60q0 30 -20.5 51.5t-53.5 35t-72.5 25.5t-79 27.5t-72.5 37t-53.5 58.5t-20.5 87q0 82 64.5 138.5t160.5 56.5q106 0 187 -62l-74 -96q-45 38 -104 38q-42 0 -70.5 -21
t-28.5 -54q0 -29 27.5 -50t69 -32.5t89.5 -30t89.5 -40.5t69 -66.5t27.5 -105.5q0 -85 -68.5 -142.5t-161.5 -57.5q-142 0 -242 105z" />
    <glyph glyph-name="sacute" unicode="&#x15b;" horiz-adv-x="467" 
d="M64 44l62 95q54 -39 117 -39q28 0 48.5 11t20.5 31q0 16 -20.5 26.5t-51.5 15.5t-66.5 15.5t-66.5 24t-51.5 42t-20.5 69.5q0 66 56.5 108t142.5 42q79 0 140 -36l-55 -95q-34 21 -80 21q-34 0 -54 -11t-20 -27t28.5 -26.5t69.5 -19t81.5 -22.5t69 -46.5t28.5 -80.5
q0 -64 -54.5 -108t-133.5 -44q-112 0 -190 54zM198 710h140l-120 -160h-90z" />
    <glyph glyph-name="Scircumflex" unicode="&#x15c;" horiz-adv-x="537" 
d="M28 760l70 160h140l130 -160h-95l-95 90l-65 -90h-85zM35 95l80 91q31 -33 73.5 -54.5t84.5 -21.5q44 0 71.5 23t27.5 60q0 30 -20.5 51.5t-53.5 35t-72.5 25.5t-79 27.5t-72.5 37t-53.5 58.5t-20.5 87q0 82 64.5 138.5t160.5 56.5q106 0 187 -62l-74 -96q-45 38 -104 38
q-42 0 -70.5 -21t-28.5 -54q0 -29 27.5 -50t69 -32.5t89.5 -30t89.5 -40.5t69 -66.5t27.5 -105.5q0 -85 -68.5 -142.5t-161.5 -57.5q-142 0 -242 105z" />
    <glyph glyph-name="scircumflex" unicode="&#x15d;" horiz-adv-x="467" 
d="M64 44l62 95q54 -39 117 -39q28 0 48.5 11t20.5 31q0 16 -20.5 26.5t-51.5 15.5t-66.5 15.5t-66.5 24t-51.5 42t-20.5 69.5q0 66 56.5 108t142.5 42q79 0 140 -36l-55 -95q-34 21 -80 21q-34 0 -54 -11t-20 -27t28.5 -26.5t69.5 -19t81.5 -22.5t69 -46.5t28.5 -80.5
q0 -64 -54.5 -108t-133.5 -44q-112 0 -190 54zM14 550l70 160h140l130 -160h-95l-95 90l-65 -90h-85z" />
    <glyph glyph-name="Scedilla" unicode="&#x15e;" horiz-adv-x="537" 
d="M35 95l80 91q31 -33 73.5 -54.5t84.5 -21.5q44 0 71.5 23t27.5 60q0 30 -20.5 51.5t-53.5 35t-72.5 25.5t-79 27.5t-72.5 37t-53.5 58.5t-20.5 87q0 82 64.5 138.5t160.5 56.5q106 0 187 -62l-74 -96q-45 38 -104 38q-42 0 -70.5 -21t-28.5 -54q0 -29 27.5 -50t69 -32.5
t89.5 -30t89.5 -40.5t69 -66.5t27.5 -105.5q0 -68 -45.5 -119.5t-115.5 -70.5l-28 -150h-130l57 142q-124 12 -210 103z" />
    <glyph glyph-name="scedilla" unicode="&#x15f;" horiz-adv-x="467" 
d="M163 -150l57 142q-93 7 -156 52l62 95q54 -39 117 -39q28 0 48.5 11t20.5 31q0 16 -20.5 26.5t-51.5 15.5t-66.5 15.5t-66.5 24t-51.5 42t-20.5 69.5q0 66 56.5 108t142.5 42q79 0 140 -36l-55 -95q-34 21 -80 21q-34 0 -54 -11t-20 -27t28.5 -26.5t69.5 -19t81.5 -22.5
t69 -46.5t28.5 -80.5q0 -50 -33.5 -88.5t-87.5 -53.5l-28 -150h-130z" />
    <glyph glyph-name="Scaron" unicode="&#x160;" horiz-adv-x="537" 
d="M351 920l-70 -160h-140l-130 160h95l95 -90l65 90h85zM35 95l80 91q31 -33 73.5 -54.5t84.5 -21.5q44 0 71.5 23t27.5 60q0 30 -20.5 51.5t-53.5 35t-72.5 25.5t-79 27.5t-72.5 37t-53.5 58.5t-20.5 87q0 82 64.5 138.5t160.5 56.5q106 0 187 -62l-74 -96q-45 38 -104 38
q-42 0 -70.5 -21t-28.5 -54q0 -29 27.5 -50t69 -32.5t89.5 -30t89.5 -40.5t69 -66.5t27.5 -105.5q0 -85 -68.5 -142.5t-161.5 -57.5q-142 0 -242 105z" />
    <glyph glyph-name="scaron" unicode="&#x161;" horiz-adv-x="467" 
d="M332 710l-70 -160h-140l-130 160h95l95 -90l65 90h85zM64 44l62 95q54 -39 117 -39q28 0 48.5 11t20.5 31q0 16 -20.5 26.5t-51.5 15.5t-66.5 15.5t-66.5 24t-51.5 42t-20.5 69.5q0 66 56.5 108t142.5 42q79 0 140 -36l-55 -95q-34 21 -80 21q-34 0 -54 -11t-20 -27
t28.5 -26.5t69.5 -19t81.5 -22.5t69 -46.5t28.5 -80.5q0 -64 -54.5 -108t-133.5 -44q-112 0 -190 54z" />
    <glyph glyph-name="Tcommaaccent" unicode="&#x162;" horiz-adv-x="564" 
d="M-53 700h506l21 -120h-185l103 -580h-136l-103 580h-185zM266 -60h140l-120 -160h-90z" />
    <glyph glyph-name="tcommaaccent" unicode="&#x163;" horiz-adv-x="513" 
d="M296 -60h140l-120 -160h-90zM454 113l39 -107q-43 -16 -100 -16q-53 0 -102 20.5t-80 61.5q-32 44 -47 128l-30 165h-135l-19 110h135l-22 125h131l22 -125h165l19 -110h-165l30 -165q8 -44 24 -64q23 -31 82 -31q27 0 53 8z" />
    <glyph glyph-name="Tcaron" unicode="&#x164;" horiz-adv-x="564" 
d="M-53 700h506l21 -120h-185l103 -580h-136l-103 580h-185zM343 920l-70 -160h-140l-130 160h95l95 -90l65 90h85z" />
    <glyph glyph-name="tcaron" unicode="&#x165;" horiz-adv-x="513" 
d="M345 700h140l-120 -160h-90zM454 113l39 -107q-43 -16 -100 -16q-53 0 -102 20.5t-80 61.5q-32 44 -47 128l-30 165h-135l-19 110h135l-22 125h131l22 -125h165l19 -110h-165l30 -165q8 -44 24 -64q23 -31 82 -31q27 0 53 8z" />
    <glyph glyph-name="Tbar" unicode="&#x166;" horiz-adv-x="564" 
d="M256 0l-56 315h-140l-21 120h140l-26 145h-185l-21 120h506l21 -120h-185l26 -145h140l21 -120h-140l56 -315h-136z" />
    <glyph glyph-name="tbar" unicode="&#x167;" horiz-adv-x="513" 
d="M454 113l39 -107q-43 -16 -100 -16q-53 0 -102 20.5t-80 61.5q-30 41 -46 123h-136l-19 110h135l-11 60h-135l-19 110h135l-22 125h131l22 -125h165l19 -110h-165l11 -60h165l19 -110h-164q8 -42 23 -59q23 -31 82 -31q27 0 53 8z" />
    <glyph glyph-name="Utilde" unicode="&#x168;" horiz-adv-x="752" 
d="M527 363l-60 337h136l50 -284q24 -129 24 -161q0 -125 -83.5 -195t-205.5 -70q-161 0 -246 99q-62 71 -88 222l-69 389h136l67 -375q20 -113 58 -157q49 -58 142 -58q67 0 110.5 36t43.5 102q0 29 -15 115zM389 920l80 -16q0 -57 -29.5 -95.5t-81.5 -38.5q-32 0 -81 25
t-68 25q-35 0 -40 -50l-80 16q0 57 29.5 95.5t81.5 38.5q32 0 81 -25t68 -25q35 0 40 50z" />
    <glyph glyph-name="utilde" unicode="&#x169;" horiz-adv-x="625" 
d="M361 710l80 -16q0 -57 -29.5 -95.5t-81.5 -38.5q-32 0 -81 25t-68 25q-35 0 -40 -50l-80 16q0 57 29.5 95.5t81.5 38.5q32 0 81 -25t68 -25q35 0 40 50zM315 -10q-103 0 -170 67q-55 53 -75 172l-43 246h131l41 -233q14 -79 48 -107q30 -25 72 -25q33 0 65 18t49 47
l-53 300h131l84 -475h-119l-15 85q-5 -41 -46 -68t-100 -27z" />
    <glyph glyph-name="Umacron" unicode="&#x16a;" horiz-adv-x="752" 
d="M527 363l-60 337h136l50 -284q24 -129 24 -161q0 -125 -83.5 -195t-205.5 -70q-161 0 -246 99q-62 71 -88 222l-69 389h136l67 -375q20 -113 58 -157q49 -58 142 -58q67 0 110.5 36t43.5 102q0 29 -15 115zM125 890h320v-100h-320v100z" />
    <glyph glyph-name="umacron" unicode="&#x16b;" horiz-adv-x="625" 
d="M101 680h320v-100h-320v100zM315 -10q-103 0 -170 67q-55 53 -75 172l-43 246h131l41 -233q14 -79 48 -107q30 -25 72 -25q33 0 65 18t49 47l-53 300h131l84 -475h-119l-15 85q-5 -41 -46 -68t-100 -27z" />
    <glyph glyph-name="Ubreve" unicode="&#x16c;" horiz-adv-x="752" 
d="M527 363l-60 337h136l50 -284q24 -129 24 -161q0 -125 -83.5 -195t-205.5 -70q-161 0 -246 99q-62 71 -88 222l-69 389h136l67 -375q20 -113 58 -157q49 -58 142 -58q67 0 110.5 36t43.5 102q0 29 -15 115zM134 920h105q0 -19 13 -32t32 -13t32 13t13 32h105
q0 -62 -44 -106t-106 -44t-106 44t-44 106z" />
    <glyph glyph-name="ubreve" unicode="&#x16d;" horiz-adv-x="625" 
d="M296 710h105q0 -62 -44 -106t-106 -44t-106 44t-44 106h105q0 -19 13 -32t32 -13t32 13t13 32zM315 -10q-103 0 -170 67q-55 53 -75 172l-43 246h131l41 -233q14 -79 48 -107q30 -25 72 -25q33 0 65 18t49 47l-53 300h131l84 -475h-119l-15 85q-5 -41 -46 -68t-100 -27z
" />
    <glyph glyph-name="Uring" unicode="&#x16e;" horiz-adv-x="752" 
d="M527 363l-60 337h136l50 -284q24 -129 24 -161q0 -125 -83.5 -195t-205.5 -70q-161 0 -246 99q-62 71 -88 222l-69 389h136l67 -375q20 -113 58 -157q49 -58 142 -58q67 0 110.5 36t43.5 102q0 29 -15 115zM406 850q0 -46 -32 -78t-78 -32t-78 32t-32 78t32 78t78 32
t78 -32t32 -78zM326 850q0 13 -8.5 21.5t-21.5 8.5t-21.5 -8.5t-8.5 -21.5t8.5 -21.5t21.5 -8.5t21.5 8.5t8.5 21.5z" />
    <glyph glyph-name="uring" unicode="&#x16f;" horiz-adv-x="625" 
d="M141 640q0 46 32 78t78 32t78 -32t32 -78t-32 -78t-78 -32t-78 32t-32 78zM221 640q0 -13 8.5 -21.5t21.5 -8.5t21.5 8.5t8.5 21.5t-8.5 21.5t-21.5 8.5t-21.5 -8.5t-8.5 -21.5zM315 -10q-103 0 -170 67q-55 53 -75 172l-43 246h131l41 -233q14 -79 48 -107
q30 -25 72 -25q33 0 65 18t49 47l-53 300h131l84 -475h-119l-15 85q-5 -41 -46 -68t-100 -27z" />
    <glyph glyph-name="Uhungarumlaut" unicode="&#x170;" horiz-adv-x="752" 
d="M527 363l-60 337h136l50 -284q24 -129 24 -161q0 -125 -83.5 -195t-205.5 -70q-161 0 -246 99q-62 71 -88 222l-69 389h136l67 -375q20 -113 58 -157q49 -58 142 -58q67 0 110.5 36t43.5 102q0 29 -15 115zM206 920h140l-120 -160h-90zM426 920h140l-120 -160h-90z" />
    <glyph glyph-name="uhungarumlaut" unicode="&#x171;" horiz-adv-x="625" 
d="M181 710h140l-120 -160h-90zM401 710h140l-120 -160h-90zM315 -10q-103 0 -170 67q-55 53 -75 172l-43 246h131l41 -233q14 -79 48 -107q30 -25 72 -25q33 0 65 18t49 47l-53 300h131l84 -475h-119l-15 85q-5 -41 -46 -68t-100 -27z" />
    <glyph glyph-name="Uogonek" unicode="&#x172;" horiz-adv-x="752" 
d="M527 363l-60 337h136l50 -284q24 -129 24 -161q0 -92 -47 -155t-125 -91q-32 -38 -32 -72q0 -18 11 -30t29 -12q13 0 25 4l15 -109q-20 -10 -65 -10q-61 0 -98 34.5t-37 85.5q0 49 24 90q-153 3 -235 99q-62 71 -88 222l-69 389h136l67 -375q20 -113 58 -157
q49 -58 142 -58q67 0 110.5 36t43.5 102q0 29 -15 115z" />
    <glyph glyph-name="uogonek" unicode="&#x173;" horiz-adv-x="625" 
d="M315 -10q-103 0 -170 67q-55 53 -75 172l-43 246h131l41 -233q14 -79 48 -107q30 -25 72 -25q33 0 65 18t49 47l-53 300h131l84 -475q-25 -36 -25 -63q0 -18 11 -30t29 -12q13 0 25 4l15 -109q-20 -10 -65 -10q-61 0 -98 34.5t-37 85.5q0 54 26 95l-15 90q-5 -41 -46 -68
t-100 -27z" />
    <glyph glyph-name="Wcircumflex" unicode="&#x174;" horiz-adv-x="984" 
d="M894 700l-111 -700h-95l-238 440l-74 -440h-95l-356 700h145l219 -431l74 431h95l235 -436l70 436h131zM233 760l70 160h140l130 -160h-95l-95 90l-65 -90h-85z" />
    <glyph glyph-name="wcircumflex" unicode="&#x175;" horiz-adv-x="849" 
d="M669 475h125l-121 -475h-90l-169 274l-68 -274h-90l-286 475h140l163 -268l68 268h90l168 -274zM215 550l70 160h140l130 -160h-95l-95 90l-65 -90h-85z" />
    <glyph glyph-name="Ycircumflex" unicode="&#x176;" horiz-adv-x="634" 
d="M235 315l-309 385h169l196 -247l110 247h143l-173 -386l56 -314h-136zM77 760l70 160h140l130 -160h-95l-95 90l-65 -90h-85z" />
    <glyph glyph-name="ycircumflex" unicode="&#x177;" horiz-adv-x="572" 
d="M319 -240h-129l84 295l-309 420h155l197 -275l76 275h129zM76 550l70 160h140l130 -160h-95l-95 90l-65 -90h-85z" />
    <glyph glyph-name="Ydieresis" unicode="&#x178;" horiz-adv-x="634" 
d="M235 315l-309 385h169l196 -247l110 247h143l-173 -386l56 -314h-136zM48 842q0 33 23.5 55.5t56.5 22.5t56.5 -22.5t23.5 -55.5t-23.5 -55.5t-56.5 -22.5t-56.5 22.5t-23.5 55.5zM258 842q0 33 23.5 55.5t56.5 22.5t56.5 -22.5t23.5 -55.5t-23.5 -55.5t-56.5 -22.5
t-56.5 22.5t-23.5 55.5z" />
    <glyph glyph-name="Zacute" unicode="&#x179;" horiz-adv-x="629" 
d="M84 0l-14 80l259 500h-313l-21 120h484l14 -80l-262 -500h372l21 -120h-540zM259 920h140l-120 -160h-90z" />
    <glyph glyph-name="zacute" unicode="&#x17a;" horiz-adv-x="519" 
d="M420 475l14 -80l-196 -285h256l20 -110h-430l-14 80l194 285h-225l-19 110h400zM234 710h140l-120 -160h-90z" />
    <glyph glyph-name="Zdotaccent" unicode="&#x17b;" horiz-adv-x="629" 
d="M84 0l-14 80l259 500h-313l-21 120h484l14 -80l-262 -500h372l21 -120h-540zM139 857q0 35 25 59t60 24t60 -24t25 -59t-25 -59t-60 -24t-60 24t-25 59z" />
    <glyph glyph-name="zdotaccent" unicode="&#x17c;" horiz-adv-x="519" 
d="M420 475l14 -80l-196 -285h256l20 -110h-430l-14 80l194 285h-225l-19 110h400zM124 647q0 35 25 59t60 24t60 -24t25 -59t-25 -59t-60 -24t-60 24t-25 59z" />
    <glyph glyph-name="Zcaron" unicode="&#x17d;" horiz-adv-x="629" 
d="M84 0l-14 80l259 500h-313l-21 120h484l14 -80l-262 -500h372l21 -120h-540zM378 920l-70 -160h-140l-130 160h95l95 -90l65 90h85z" />
    <glyph glyph-name="zcaron" unicode="&#x17e;" horiz-adv-x="519" 
d="M420 475l14 -80l-196 -285h256l20 -110h-430l-14 80l194 285h-225l-19 110h400zM369 710l-70 -160h-140l-130 160h95l95 -90l65 90h85z" />
    <glyph glyph-name="longs" unicode="&#x17f;" horiz-adv-x="424" 
d="M159 495l88 -495h-131l-85 475q-8 43 -8 71q0 81 61.5 132.5t145.5 51.5q68 0 114 -24l-44 -105q-25 14 -64 14q-37 0 -60.5 -18.5t-23.5 -49.5q0 -12 7 -52z" />
    <glyph glyph-name="uni018F" unicode="&#x18f;" horiz-adv-x="739" 
d="M12 397h538q-22 87 -89 140t-156 53q-67 0 -112 -24.5t-87 -68.5l-88 91q105 122 287 122q161 0 272.5 -109t111.5 -265q0 -153 -93.5 -249.5t-242.5 -96.5q-145 0 -244 109.5t-99 264.5q0 9 2 33zM555 277h-397q23 -79 77 -123t118 -44q75 0 128.5 42t73.5 125z" />
    <glyph glyph-name="florin" unicode="&#x192;" horiz-adv-x="576" 
d="M-118 -229l33 108q36 -14 66 -14q91 0 120 93q6 19 11.5 45.5t9.5 48t9.5 59.5t7.5 57t7.5 66t7.5 61h-150l-20 110h184q15 99 27 138q54 177 243 177q52 0 99 -21l-33 -108q-36 14 -66 14q-91 0 -120 -93q-12 -35 -24 -107h150l20 -110h-186q-4 -30 -12 -100.5
t-12.5 -108t-13 -84.5t-16.5 -75q-54 -177 -243 -177q-52 0 -99 21z" />
    <glyph glyph-name="uni01B5" unicode="&#x1b5;" horiz-adv-x="629" 
d="M71 435h183l75 145h-313l-21 120h484l14 -80l-97 -185h105l21 -120h-189l-102 -195h372l21 -120h-540l-14 80l122 235h-100z" />
    <glyph glyph-name="uni01B6" unicode="&#x1b6;" horiz-adv-x="519" 
d="M457 195h-161l-58 -85h256l20 -110h-430l-14 80l78 115h-61l-20 110h156l41 60h-225l-19 110h400l14 -80l-62 -90h65z" />
    <glyph glyph-name="Aringacute" unicode="&#x1fa;" horiz-adv-x="699" 
d="M142 850q0 46 32 78t78 32t78 -32t32 -78t-32 -78t-78 -32t-78 32t-32 78zM222 850q0 -13 8.5 -21.5t21.5 -8.5t21.5 8.5t8.5 21.5t-8.5 21.5t-21.5 8.5t-21.5 -8.5t-8.5 -21.5zM246 1150h140l-120 -160h-90zM739 0h-153l-94 155h-281l-41 -155h-135l185 700h95zM419 275
l-123 202l-53 -202h176z" />
    <glyph glyph-name="aringacute" unicode="&#x1fb;" horiz-adv-x="608" 
d="M164 640q0 46 32 78t78 32t78 -32t32 -78t-32 -78t-78 -32t-78 32t-32 78zM244 640q0 -13 8.5 -21.5t21.5 -8.5t21.5 8.5t8.5 21.5t-8.5 21.5t-21.5 8.5t-21.5 -8.5t-8.5 -21.5zM268 940h140l-120 -160h-90zM420 158l-27 155q-50 53 -116 53q-51 0 -81 -31t-30 -80
q0 -61 41 -102.5t98 -41.5q70 0 115 47zM249 485q104 0 138 -71l-11 61h119l84 -475h-120l-13 75q-7 -34 -46.5 -59.5t-103.5 -25.5q-68 0 -131 36q-60 35 -94.5 100t-34.5 135q0 98 62.5 161t150.5 63z" />
    <glyph glyph-name="AEacute" unicode="&#x1fc;" horiz-adv-x="956" 
d="M425 920h140l-120 -160h-90zM177 0h-142l295 700h492l21 -120h-284l26 -145h214l21 -120h-214l34 -195h295l21 -120h-430l-28 155h-255zM423 581l-129 -306h183z" />
    <glyph glyph-name="aeacute" unicode="&#x1fd;" horiz-adv-x="915" 
d="M429 710h140l-120 -160h-90zM531 296h220q-12 38 -43 61t-68 23q-40 0 -69 -22t-40 -62zM419 158l-27 155q-50 53 -116 53q-51 0 -81 -31t-30 -80q0 -61 41 -102.5t98 -41.5q70 0 115 47zM375 475h104l8 -49q59 59 152 59q99 0 169.5 -74.5t70.5 -182.5q0 -16 -1 -24
h-343q10 -48 50 -78.5t97 -30.5q73 0 129 47l68 -85q-83 -67 -193 -67q-68 0 -126 28l3 -18h-105l-13 75q-7 -34 -46.5 -59.5t-103.5 -25.5q-68 0 -131 36q-60 35 -94.5 100t-34.5 135q0 98 62.5 161t150.5 63q104 0 138 -71z" />
    <glyph glyph-name="Oslashacute" unicode="&#x1fe;" horiz-adv-x="800" 
d="M338 920h140l-120 -160h-90zM10 370q0 144 100.5 242t252.5 98q55 0 116 -18l8 18h127l-32 -69q77 -53 122.5 -136t45.5 -175q0 -144 -100.5 -242t-252.5 -98q-57 0 -116 18l-8 -18h-127l31 68q-77 54 -122 136.5t-45 175.5zM145 370q0 -114 87 -193l187 406q-32 7 -56 7
q-93 0 -155.5 -62.5t-62.5 -157.5zM615 330q0 113 -87 192l-187 -405q25 -7 56 -7q93 0 155.5 62.5t62.5 157.5z" />
    <glyph glyph-name="oslashacute" unicode="&#x1ff;" horiz-adv-x="585" 
d="M276 710h140l-120 -160h-90zM35 248q0 99 71 168t176 69q33 0 73 -10l5 10h121l-30 -60q98 -78 98 -198q0 -99 -71 -168t-176 -69q-36 0 -74 10l-5 -10h-121l30 60q-97 77 -97 198zM419 227q0 44 -27 81l-99 -198h9q50 0 83.5 33.5t33.5 83.5zM165 248q0 -43 26 -80
l98 197h-7q-50 0 -83.5 -33.5t-33.5 -83.5z" />
    <glyph glyph-name="Scommaaccent" unicode="&#x218;" horiz-adv-x="537" 
d="M232 -60h140l-120 -160h-90zM35 95l80 91q31 -33 73.5 -54.5t84.5 -21.5q44 0 71.5 23t27.5 60q0 30 -20.5 51.5t-53.5 35t-72.5 25.5t-79 27.5t-72.5 37t-53.5 58.5t-20.5 87q0 82 64.5 138.5t160.5 56.5q106 0 187 -62l-74 -96q-45 38 -104 38q-42 0 -70.5 -21
t-28.5 -54q0 -29 27.5 -50t69 -32.5t89.5 -30t89.5 -40.5t69 -66.5t27.5 -105.5q0 -85 -68.5 -142.5t-161.5 -57.5q-142 0 -242 105z" />
    <glyph glyph-name="scommaaccent" unicode="&#x219;" horiz-adv-x="467" 
d="M64 44l62 95q54 -39 117 -39q28 0 48.5 11t20.5 31q0 16 -20.5 26.5t-51.5 15.5t-66.5 15.5t-66.5 24t-51.5 42t-20.5 69.5q0 66 56.5 108t142.5 42q79 0 140 -36l-55 -95q-34 21 -80 21q-34 0 -54 -11t-20 -27t28.5 -26.5t69.5 -19t81.5 -22.5t69 -46.5t28.5 -80.5
q0 -64 -54.5 -108t-133.5 -44q-112 0 -190 54zM202 -60h140l-120 -160h-90z" />
    <glyph glyph-name="uni0237" unicode="&#x237;" horiz-adv-x="310" 
d="M41 -246l11 119q12 -3 35 -3q31 0 51 18t20 50q0 12 -7 52l-86 485h131l80 -452q11 -66 11 -84q0 -62 -25 -103t-69.5 -63.5t-99.5 -22.5q-37 0 -52 4z" />
    <glyph glyph-name="uni0259" unicode="&#x259;" horiz-adv-x="538" 
d="M103 333l-68 85q83 67 193 67q115 0 194.5 -71.5t79.5 -185.5q0 -105 -62.5 -171.5t-164.5 -66.5q-99 0 -169.5 74.5t-70.5 182.5q0 16 1 24h337q-10 48 -51 78.5t-94 30.5q-69 0 -125 -47zM377 179h-214q12 -39 41.5 -61.5t66.5 -22.5q83 0 106 84z" />
    <glyph glyph-name="circumflex" unicode="&#x2c6;" horiz-adv-x="480" 
d="M70 550l70 160h140l130 -160h-95l-95 90l-65 -90h-85z" />
    <glyph glyph-name="caron" unicode="&#x2c7;" horiz-adv-x="480" 
d="M410 710l-70 -160h-140l-130 160h95l95 -90l65 90h85z" />
    <glyph glyph-name="breve" unicode="&#x2d8;" horiz-adv-x="440" 
d="M265 710h105q0 -62 -44 -106t-106 -44t-106 44t-44 106h105q0 -19 13 -32t32 -13t32 13t13 32z" />
    <glyph glyph-name="dotaccent" unicode="&#x2d9;" horiz-adv-x="310" 
d="M70 647q0 35 25 59t60 24t60 -24t25 -59t-25 -59t-60 -24t-60 24t-25 59z" />
    <glyph glyph-name="ring" unicode="&#x2da;" horiz-adv-x="360" 
d="M70 640q0 46 32 78t78 32t78 -32t32 -78t-32 -78t-78 -32t-78 32t-32 78zM150 640q0 -13 8.5 -21.5t21.5 -8.5t21.5 8.5t8.5 21.5t-8.5 21.5t-21.5 8.5t-21.5 -8.5t-8.5 -21.5z" />
    <glyph glyph-name="ogonek" unicode="&#x2db;" horiz-adv-x="340" 
d="M108 10h115q-33 -40 -33 -73q0 -18 11 -30t29 -12q13 0 25 4l15 -109q-20 -10 -65 -10q-61 0 -98 34.5t-37 85.5q0 57 38 110z" />
    <glyph glyph-name="tilde" unicode="&#x2dc;" horiz-adv-x="520" 
d="M370 710l80 -16q0 -57 -29.5 -95.5t-81.5 -38.5q-32 0 -81 25t-68 25q-35 0 -40 -50l-80 16q0 57 29.5 95.5t81.5 38.5q32 0 81 -25t68 -25q35 0 40 50z" />
    <glyph glyph-name="hungarumlaut" unicode="&#x2dd;" horiz-adv-x="570" 
d="M140 710h140l-120 -160h-90zM360 710h140l-120 -160h-90z" />
    <glyph glyph-name="pi" unicode="&#x3c0;" horiz-adv-x="579" 
d="M162 0l-61 350q-41 -5 -60 -37l-81 82q49 75 150 75h410l19 -110h-100l36 -207q9 -50 43 -72l-68 -91q-48 31 -66.5 68t-30.5 103l-35 199h-98l63 -360h-121z" />
    <glyph glyph-name="Wgrave" unicode="&#x1e80;" horiz-adv-x="984" 
d="M894 700l-111 -700h-95l-238 440l-74 -440h-95l-356 700h145l219 -431l74 431h95l235 -436l70 436h131zM234 920h140l70 -160h-90z" />
    <glyph glyph-name="wgrave" unicode="&#x1e81;" horiz-adv-x="849" 
d="M669 475h125l-121 -475h-90l-169 274l-68 -274h-90l-286 475h140l163 -268l68 268h90l168 -274zM199 710h140l70 -160h-90z" />
    <glyph glyph-name="Wacute" unicode="&#x1e82;" horiz-adv-x="984" 
d="M894 700l-111 -700h-95l-238 440l-74 -440h-95l-356 700h145l219 -431l74 431h95l235 -436l70 436h131zM424 920h140l-120 -160h-90z" />
    <glyph glyph-name="wacute" unicode="&#x1e83;" horiz-adv-x="849" 
d="M669 475h125l-121 -475h-90l-169 274l-68 -274h-90l-286 475h140l163 -268l68 268h90l168 -274zM395 710h140l-120 -160h-90z" />
    <glyph glyph-name="Wdieresis" unicode="&#x1e84;" horiz-adv-x="984" 
d="M894 700l-111 -700h-95l-238 440l-74 -440h-95l-356 700h145l219 -431l74 431h95l235 -436l70 436h131zM574 842q0 -33 -23.5 -55.5t-56.5 -22.5t-56.5 22.5t-23.5 55.5t23.5 55.5t56.5 22.5t56.5 -22.5t23.5 -55.5zM364 842q0 -33 -23.5 -55.5t-56.5 -22.5t-56.5 22.5
t-23.5 55.5t23.5 55.5t56.5 22.5t56.5 -22.5t23.5 -55.5z" />
    <glyph glyph-name="wdieresis" unicode="&#x1e85;" horiz-adv-x="849" 
d="M669 475h125l-121 -475h-90l-169 274l-68 -274h-90l-286 475h140l163 -268l68 268h90l168 -274zM549 632q0 -33 -23.5 -55.5t-56.5 -22.5t-56.5 22.5t-23.5 55.5t23.5 55.5t56.5 22.5t56.5 -22.5t23.5 -55.5zM339 632q0 -33 -23.5 -55.5t-56.5 -22.5t-56.5 22.5
t-23.5 55.5t23.5 55.5t56.5 22.5t56.5 -22.5t23.5 -55.5z" />
    <glyph glyph-name="uni1E8A" unicode="&#x1e8a;" horiz-adv-x="684" 
d="M334 857q0 -35 -25 -59t-60 -24t-60 24t-25 59t25 59t60 24t60 -24t25 -59zM320 276l-131 -276h-145l182 377l-266 323h169l171 -212l100 212h145l-150 -313l319 -387h-169z" />
    <glyph glyph-name="uni1E8B" unicode="&#x1e8b;" horiz-adv-x="566" 
d="M284 164l-81 -164h-144l135 251l-199 224h164l112 -135l67 135h139l-115 -220l229 -255h-169zM296 647q0 -35 -25 -59t-60 -24t-60 24t-25 59t25 59t60 24t60 -24t25 -59z" />
    <glyph glyph-name="Ygrave" unicode="&#x1ef2;" horiz-adv-x="634" 
d="M235 315l-309 385h169l196 -247l110 247h143l-173 -386l56 -314h-136zM76 920h140l70 -160h-90z" />
    <glyph glyph-name="ygrave" unicode="&#x1ef3;" horiz-adv-x="572" 
d="M319 -240h-129l84 295l-309 420h155l197 -275l76 275h129zM83 710h140l70 -160h-90z" />
    <glyph glyph-name="endash" unicode="&#x2013;" horiz-adv-x="520" 
d="M0 315h491l19 -110h-491z" />
    <glyph glyph-name="emdash" unicode="&#x2014;" horiz-adv-x="820" 
d="M0 315h791l19 -110h-791z" />
    <glyph glyph-name="quoteleft" unicode="&#x2018;" horiz-adv-x="340" 
d="M160 405h-140l105 295h90z" />
    <glyph glyph-name="quoteright" unicode="&#x2019;" horiz-adv-x="340" 
d="M85 700h140l-105 -295h-90z" />
    <glyph glyph-name="quotesinglbase" unicode="&#x201a;" horiz-adv-x="340" 
d="M155 155h140l-105 -295h-90z" />
    <glyph glyph-name="quotedblleft" unicode="&#x201c;" horiz-adv-x="580" 
d="M400 405h-140l105 295h90zM160 405h-140l105 295h90z" />
    <glyph glyph-name="quotedblright" unicode="&#x201d;" horiz-adv-x="580" 
d="M85 700h140l-105 -295h-90zM325 700h140l-105 -295h-90z" />
    <glyph glyph-name="quotedblbase" unicode="&#x201e;" horiz-adv-x="580" 
d="M155 155h140l-105 -295h-90zM395 155h140l-105 -295h-90z" />
    <glyph glyph-name="dagger" unicode="&#x2020;" horiz-adv-x="550" 
d="M293 -200l-98 555h-170l-20 110h170l-42 235h121l42 -235h170l20 -110h-170l98 -555h-121z" />
    <glyph glyph-name="daggerdbl" unicode="&#x2021;" horiz-adv-x="550" 
d="M316 355l26 -149h170l20 -110h-170l52 -296h-121l-52 296h-170l-20 110h170l-26 149h-170l-20 110h170l-42 235h121l42 -235h170l20 -110h-170z" />
    <glyph glyph-name="bullet" unicode="&#x2022;" 
d="M75 242q0 91 64.5 155.5t155.5 64.5t155.5 -64.5t64.5 -155.5t-64.5 -155.5t-155.5 -64.5t-155.5 64.5t-64.5 155.5z" />
    <glyph glyph-name="ellipsis" unicode="&#x2026;" horiz-adv-x="995" 
d="M130 75q0 37 25 61.5t62 24.5t62.5 -24.5t25.5 -61.5q0 -36 -25.5 -60.5t-62.5 -24.5t-62 24t-25 61zM440 75q0 37 25 61.5t62 24.5t62.5 -24.5t25.5 -61.5q0 -36 -25.5 -60.5t-62.5 -24.5t-62 24t-25 61zM750 75q0 37 25 61.5t62 24.5t62.5 -24.5t25.5 -61.5
q0 -36 -25.5 -60.5t-62.5 -24.5t-62 24t-25 61z" />
    <glyph glyph-name="perthousand" unicode="&#x2030;" horiz-adv-x="1167" 
d="M486 182q0 75 54 126.5t132 51.5t133 -52q54 52 130 52q81 0 139 -55t58 -137q0 -75 -54 -126.5t-132 -51.5q-79 0 -134 52q-50 -52 -129 -52q-81 0 -139 55t-58 137zM-10 532q0 75 54 126.5t132 51.5q81 0 139 -55t58 -137q0 -75 -54 -126.5t-132 -51.5q-81 0 -139 55
t-58 137zM337 0h-103l288 700h103zM749 168q0 36 -22.5 59t-54.5 23q-29 0 -47.5 -19.5t-18.5 -48.5q0 -36 22.5 -59t54.5 -23q29 0 47.5 19.5t18.5 48.5zM253 518q0 36 -22.5 59t-54.5 23q-29 0 -47.5 -19.5t-18.5 -48.5q0 -36 22.5 -59t54.5 -23q29 0 47.5 19.5t18.5 48.5
zM1012 168q0 36 -22.5 59t-54.5 23q-29 0 -47.5 -19.5t-18.5 -48.5q0 -36 22.5 -59t54.5 -23q29 0 47.5 19.5t18.5 48.5z" />
    <glyph glyph-name="guilsinglleft" unicode="&#x2039;" horiz-adv-x="385" 
d="M147 437h130l-108 -176l176 -204h-147l-133 155l-12 70z" />
    <glyph glyph-name="guilsinglright" unicode="&#x203a;" horiz-adv-x="385" 
d="M236 57h-130l108 176l-176 204h147l133 -155l12 -70z" />
    <glyph glyph-name="fraction" unicode="&#x2044;" horiz-adv-x="401" 
d="M108 0h-103l288 700h103z" />
    <glyph glyph-name="uni2070" unicode="&#x2070;" horiz-adv-x="336" 
d="M75 565q0 -50 15 -97.5t42 -47.5q31 0 31 55q0 50 -14.5 97.5t-41.5 47.5q-32 0 -32 -55zM-25 565q0 70 37 107.5t95 37.5q56 0 92.5 -37.5t50 -87.5t13.5 -110q0 -70 -37 -107.5t-94 -37.5q-43 0 -75 21t-49 56.5t-25 75t-8 82.5z" />
    <glyph glyph-name="uni2074" unicode="&#x2074;" horiz-adv-x="364" 
d="M196 700l38 -215h61l13 -75h-61l13 -70h-91l-13 70h-178l-9 50l167 240h60zM143 485l-12 67l-47 -67h59z" />
    <glyph glyph-name="uni2075" unicode="&#x2075;" horiz-adv-x="312" 
d="M43 490h-57v210h209l15 -85h-128v-32q14 2 27 2q55 0 94 -34.5t39 -92.5q0 -56 -42 -92t-104 -36q-78 0 -121 54l67 53q22 -22 51 -22q19 0 34 11t15 30q0 21 -16 34.5t-37 13.5q-23 0 -46 -14z" />
    <glyph glyph-name="uni2076" unicode="&#x2076;" horiz-adv-x="322" 
d="M64 700h97l-51 -116h5q65 0 103.5 -35.5t38.5 -91.5q0 -53 -39 -90t-95 -37q-57 0 -100 36t-43 94q0 44 24 99zM73 463q0 -20 13 -34t33 -14t32.5 11.5t12.5 29.5q0 22 -14 34t-36 12q-23 0 -33 -8q-8 -14 -8 -31z" />
    <glyph glyph-name="uni2077" unicode="&#x2077;" horiz-adv-x="284" 
d="M-56 700h250l9 -50l-86 -310h-95l75 270h-138z" />
    <glyph glyph-name="uni2078" unicode="&#x2078;" horiz-adv-x="320" 
d="M-26 461q0 39 25 67q-35 30 -35 71q0 45 33.5 78t87.5 33q55 0 89.5 -34t34.5 -81q0 -25 -11 -44q56 -34 56 -97q0 -53 -38.5 -89t-98.5 -36t-101.5 39t-41.5 93zM71 461q0 -18 13.5 -32t32.5 -14q17 0 28.5 11t11.5 28q0 19 -13 32.5t-33 13.5q-17 0 -28.5 -11.5
t-11.5 -27.5zM114 594q0 13 -8 22t-21 9q-12 0 -19 -7.5t-7 -19.5t7.5 -21t21.5 -9q11 0 18.5 7.5t7.5 18.5z" />
    <glyph glyph-name="uni2079" unicode="&#x2079;" horiz-adv-x="317" 
d="M157 340h-97l51 116h-5q-65 0 -103.5 35.5t-38.5 91.5q0 53 39 90t95 37q57 0 100 -36t43 -94q0 -44 -24 -99zM148 577q0 20 -13 34t-33 14t-32.5 -11.5t-12.5 -29.5q0 -22 14 -34t36 -12q23 0 33 8q8 14 8 31z" />
    <glyph glyph-name="uni2080" unicode="&#x2080;" horiz-adv-x="336" 
d="M135 225q0 -50 15 -97.5t42 -47.5q31 0 31 55q0 50 -14.5 97.5t-41.5 47.5q-32 0 -32 -55zM35 225q0 70 37 107.5t95 37.5q56 0 92.5 -37.5t50 -87.5t13.5 -110q0 -70 -37 -107.5t-94 -37.5q-43 0 -75 21t-49 56.5t-25 75t-8 82.5z" />
    <glyph glyph-name="uni2081" unicode="&#x2081;" horiz-adv-x="273" 
d="M20 291l119 69h60l64 -360h-101l-45 249l-82 -45z" />
    <glyph glyph-name="uni2082" unicode="&#x2082;" horiz-adv-x="296" 
d="M91 249l-86 27q12 44 46.5 69t77.5 25q52 0 92 -33t40 -86q0 -42 -39 -99l-43 -62h116l16 -90h-264l-9 50l108 154q17 24 17 43q0 13 -9.5 23t-24.5 10q-14 0 -24.5 -10t-13.5 -21z" />
    <glyph glyph-name="uni2083" unicode="&#x2083;" horiz-adv-x="305" 
d="M34 34l58 65q26 -24 56 -24q20 0 33.5 10.5t13.5 30.5t-16 33t-38 13t-46 -12l-9 50l48 75h-109l-15 85h226l9 -50l-46 -75q43 -13 69.5 -45.5t26.5 -75.5q0 -55 -38.5 -89.5t-104.5 -34.5q-67 0 -118 44z" />
    <glyph glyph-name="uni2084" unicode="&#x2084;" horiz-adv-x="364" 
d="M257 360l38 -215h61l13 -75h-61l13 -70h-91l-13 70h-178l-9 50l167 240h60zM204 145l-12 67l-47 -67h59z" />
    <glyph glyph-name="uni2085" unicode="&#x2085;" horiz-adv-x="312" 
d="M103 150h-57v210h209l15 -85h-128v-32q14 2 27 2q55 0 94 -34.5t39 -92.5q0 -56 -42 -92t-104 -36q-78 0 -121 54l67 53q22 -22 51 -22q19 0 34 11t15 30q0 21 -16 34.5t-37 13.5q-23 0 -46 -14z" />
    <glyph glyph-name="uni2086" unicode="&#x2086;" horiz-adv-x="322" 
d="M124 360h97l-51 -116h5q65 0 103.5 -35.5t38.5 -91.5q0 -53 -39 -90t-95 -37q-57 0 -100 36t-43 94q0 44 24 99zM133 123q0 -20 13 -34t33 -14t32.5 11.5t12.5 29.5q0 22 -14 34t-36 12q-23 0 -33 -8q-8 -14 -8 -31z" />
    <glyph glyph-name="uni2087" unicode="&#x2087;" horiz-adv-x="284" 
d="M5 360h250l9 -50l-86 -310h-95l75 270h-138z" />
    <glyph glyph-name="uni2088" unicode="&#x2088;" horiz-adv-x="320" 
d="M35 122q0 39 25 67q-35 30 -35 71q0 45 33.5 78t87.5 33q55 0 89.5 -34t34.5 -81q0 -25 -11 -44q56 -34 56 -97q0 -53 -38.5 -89t-98.5 -36t-101.5 39t-41.5 93zM132 122q0 -18 13.5 -32t32.5 -14q17 0 28.5 11t11.5 28q0 19 -13 32.5t-33 13.5q-17 0 -28.5 -11.5
t-11.5 -27.5zM175 255q0 13 -8 22t-21 9q-12 0 -19 -7.5t-7 -19.5t8 -21t21 -9q11 0 18.5 7.5t7.5 18.5z" />
    <glyph glyph-name="uni2089" unicode="&#x2089;" horiz-adv-x="317" 
d="M218 0h-97l51 116h-5q-65 0 -103.5 35.5t-38.5 91.5q0 53 39 90t95 37q57 0 100 -36t43 -94q0 -44 -24 -99zM209 237q0 20 -13 34t-33 14t-32.5 -11.5t-12.5 -29.5q0 -22 14 -34t36 -12q23 0 33 8q8 14 8 31z" />
    <glyph glyph-name="Euro" unicode="&#x20ac;" horiz-adv-x="642" 
d="M480 215h-250q31 -49 78 -77t102 -28q89 0 149 70l88 -81q-38 -54 -101.5 -81.5t-135.5 -27.5q-112 0 -199.5 62t-128.5 163h-73l-20 110h66q-2 14 -2 43v7h-73l-20 110h110q31 101 112.5 163t190.5 62q110 0 196 -78l-78 -92q-53 50 -118 50q-53 0 -95 -28t-66 -77h219
l20 -110h-263v-7q0 -22 3 -43h269z" />
    <glyph glyph-name="trademark" unicode="&#x2122;" horiz-adv-x="880" 
d="M0 700h287v-80h-100v-303h-87v303h-100v80zM390 700l149 -217l148 217h53v-383h-89v183l-91 -131h-44l-91 131v-183h-89v383h54z" />
    <glyph glyph-name="Omega" unicode="&#x2126;" horiz-adv-x="750" 
d="M30 120h70q-90 125 -90 249q0 149 95.5 245t243.5 96q157 0 267.5 -113.5t110.5 -266.5q0 -50 -14.5 -110.5t-38.5 -99.5h85l21 -120h-259l-13 80q89 115 89 247q0 102 -70 182.5t-175 80.5q-95 0 -153.5 -65t-58.5 -159q0 -92 53.5 -174t122.5 -112l13 -80h-278z" />
    <glyph glyph-name="arrowleft" unicode="&#x2190;" horiz-adv-x="711" 
d="M207 485h142l-138 -170h431l19 -110h-401l202 -170h-170l-226 190l-12 70z" />
    <glyph glyph-name="arrowright" unicode="&#x2192;" horiz-adv-x="711" 
d="M504 35h-142l138 170h-441l-19 110h411l-202 170h170l226 -190l12 -70z" />
    <glyph glyph-name="uni2196" unicode="&#x2196;" horiz-adv-x="597" 
d="M197 58l-131 112l-47 265l41 50h266l129 -110h-231l345 -292l-71 -83l-342 289z" />
    <glyph glyph-name="uni2197" unicode="&#x2197;" horiz-adv-x="597" 
d="M180 485h266l59 -50l48 -264l-92 -111l-43 243l-251 -303l-83 70l253 305h-248z" />
    <glyph glyph-name="uni2198" unicode="&#x2198;" horiz-adv-x="597" 
d="M397 427l131 -112l47 -265l-41 -50h-266l-129 110h231l-345 292l71 83l342 -289z" />
    <glyph glyph-name="uni2199" unicode="&#x2199;" horiz-adv-x="597" 
d="M413 0h-266l-59 50l-48 264l92 111l43 -243l251 303l83 -70l-253 -305h248z" />
    <glyph glyph-name="partialdiff" unicode="&#x2202;" horiz-adv-x="585" 
d="M259 483l-181 227h154l222 -275q95 -117 95 -204q0 -101 -69.5 -171t-176.5 -70q-110 0 -189 75t-79 181q0 93 63.5 161t160.5 76zM294 365q-55 0 -92 -33.5t-37 -86.5q0 -55 41 -95t97 -40q51 0 84.5 34.5t33.5 86.5q0 55 -54 120q-34 14 -73 14z" />
    <glyph glyph-name="Delta" unicode="&#x2206;" 
d="M40 70l128 630h90l350 -630l12 -70h-568zM460 110l-219 396l-81 -396h300z" />
    <glyph glyph-name="product" unicode="&#x220f;" 
d="M176 590l105 -590h-121l-105 590h-100l-19 110h560l19 -110h-100l105 -590h-121l-105 590h-118z" />
    <glyph glyph-name="summation" unicode="&#x2211;" horiz-adv-x="605" 
d="M503 490h-111l-18 100h-217l218 -193l12 -70l-176 -217h258l-18 100h111l38 -210h-550l-12 70l226 280l-316 280l-12 70h530z" />
    <glyph glyph-name="minus" unicode="&#x2212;" horiz-adv-x="570" 
d="M38 335h461l19 -110h-461z" />
    <glyph glyph-name="uni2215" unicode="&#x2215;" horiz-adv-x="401" 
d="M108 0h-103l288 700h103z" />
    <glyph glyph-name="radical" unicode="&#x221a;" 
d="M409 700h111l-136 -700h-90l-202 365h-93l-19 110h177l153 -279z" />
    <glyph glyph-name="infinity" unicode="&#x221e;" horiz-adv-x="780" 
d="M557 70q-99 0 -169 95q-57 -95 -157 -95q-88 0 -151.5 62.5t-63.5 156.5q0 86 58 140.5t137 54.5q98 0 169 -96q58 96 157 96q88 0 151.5 -62.5t63.5 -156.5q0 -86 -58 -140.5t-137 -54.5zM537 374q-31 0 -52 -23t-41 -67q30 -52 55 -78t58 -26q42 0 63.5 26t21.5 59
q0 44 -29.5 76.5t-75.5 32.5zM231 180q32 0 53 23t41 66q-30 52 -55 78.5t-59 26.5q-42 0 -63.5 -26t-21.5 -59q0 -44 29.5 -76.5t75.5 -32.5z" />
    <glyph glyph-name="integral" unicode="&#x222b;" horiz-adv-x="576" 
d="M-118 -229l33 108q36 -14 66 -14q91 0 120 93q23 74 49 298.5t45 286.5q54 177 243 177q52 0 99 -21l-33 -108q-36 14 -66 14q-91 0 -120 -93q-23 -74 -49 -298.5t-45 -286.5q-54 -177 -243 -177q-52 0 -99 21z" />
    <glyph glyph-name="approxequal" unicode="&#x2248;" horiz-adv-x="570" 
d="M147 78l-108 19q0 73 43.5 121.5t119.5 48.5q43 0 81 -21t66 -42t47 -21q25 0 39.5 23.5t15.5 55.5l108 -19q0 -73 -43.5 -121.5t-119.5 -48.5q-43 0 -81 21t-66 42t-47 21q-25 0 -39.5 -23.5t-15.5 -55.5zM109 298l-108 19q0 73 43.5 121.5t119.5 48.5q43 0 81 -21
t66 -42t47 -21q25 0 39.5 23.5t15.5 55.5l108 -19q0 -73 -43.5 -121.5t-119.5 -48.5q-43 0 -81 21t-66 42t-47 21q-25 0 -39.5 -23.5t-15.5 -55.5z" />
    <glyph glyph-name="notequal" unicode="&#x2260;" horiz-adv-x="570" 
d="M399 440h82l19 -110h-143l-39 -100h200l19 -110h-262l-42 -110h-119l43 110h-81l-19 110h142l39 100h-199l-19 110h261l43 110h118z" />
    <glyph glyph-name="lessequal" unicode="&#x2264;" horiz-adv-x="570" 
d="M73 140h461l19 -110h-461zM464 535l20 -109l-202 -70l226 -70l22 -122l-488 151l-12 70z" />
    <glyph glyph-name="greaterequal" unicode="&#x2265;" horiz-adv-x="570" 
d="M68 164l-20 109l202 70l-226 70l-22 122l488 -151l12 -70zM73 140h461l19 -110h-461z" />
    <glyph glyph-name="lozenge" unicode="&#x25ca;" horiz-adv-x="567" 
d="M505 385l12 -70l-144 -315h-90l-256 315l-12 70l144 315h90zM314 136l91 198l-187 230l-91 -199z" />
    <glyph glyph-name="parenleft.ss03" horiz-adv-x="456" 
d="M388 44l-107 -54q-152 221 -152 463q0 136 43 257l109 -48q-32 -102 -32 -209q0 -214 139 -409z" />
    <glyph glyph-name="parenright.ss03" horiz-adv-x="456" 
d="M27 656l107 54q152 -221 152 -463q0 -136 -43 -257l-109 48q32 102 32 209q0 214 -139 409z" />
    <glyph glyph-name="bracketleft.ss03" horiz-adv-x="456" 
d="M200 0l-125 700h276l21 -115h-155l83 -470h155l21 -115h-276z" />
    <glyph glyph-name="bracketright.ss03" horiz-adv-x="456" 
d="M216 700l125 -700h-276l-21 115h155l-83 470h-155l-21 115h276z" />
    <glyph glyph-name="braceleft.ss03" horiz-adv-x="456" 
d="M195 350q23 -9 36 -18t27.5 -37t22.5 -75l6 -35q7 -40 23 -54q19 -16 54 -16h37l21 -115h-46q-90 0 -142 40t-67 140l-9 60q-11 70 -105 70l-16 80q82 0 82 53q0 5 -5 42q-7 40 -7 69q0 72 46 109t126 37h20l20 -115h-37q-56 0 -56 -43q0 -12 5 -40l4 -22q5 -28 5 -46
q0 -57 -45 -84z" />
    <glyph glyph-name="braceright.ss03" horiz-adv-x="456" 
d="M220 350q-23 9 -36 18t-27.5 37t-22.5 75l-6 35q-7 40 -23 54q-19 16 -54 16h-37l-21 115h46q90 0 142 -40t67 -140l9 -60q11 -70 105 -70l16 -80q-82 0 -82 -53q0 -4 5 -42q7 -40 7 -69q0 -72 -46 -109t-126 -37h-20l-20 115h37q56 0 56 43q0 12 -5 40l-4 22
q-5 28 -5 46q0 57 45 84z" />
    <glyph glyph-name="bar.ss03" horiz-adv-x="278" 
d="M118 700l125 -700h-121l-125 700h121z" />
    <glyph glyph-name="zero.tf" 
d="M157 461q0 -57 9 -115.5t27 -113t50.5 -88.5t74.5 -34q82 0 82 129q0 57 -9 115.5t-27 113t-50.5 88.5t-74.5 34q-82 0 -82 -129zM318 -10q-67 0 -120.5 33.5t-85.5 84t-53 116t-29 123.5t-8 113q0 121 58.5 185.5t158.5 64.5q67 0 120.5 -33.5t85.5 -84t53 -116
t29 -123.5t8 -113q0 -121 -58.5 -185.5t-158.5 -64.5z" />
    <glyph glyph-name="one.tf" 
d="M193 552l-138 -84l-21 115l174 117h95l102 -580h166l21 -120h-500l-22 120h199z" />
    <glyph glyph-name="two.tf" 
d="M134 506l-122 35q18 77 79.5 123t145.5 46q95 0 165 -61.5t70 -161.5q0 -49 -17.5 -90.5t-54.5 -96.5l-122 -180h255l21 -120h-440l-14 80l189 284q48 73 48 123q0 45 -29 74t-71 29q-41 0 -68.5 -25.5t-34.5 -58.5z" />
    <glyph glyph-name="three.tf" 
d="M62 79l90 85q47 -54 114 -54q53 0 87.5 34t34.5 84q0 61 -40 99t-102 38q-45 0 -92 -21l-14 80l108 156h-239l-21 120h426l14 -80l-100 -144q84 -23 139.5 -91.5t55.5 -161.5q0 -98 -72.5 -165.5t-178.5 -67.5q-129 0 -210 89z" />
    <glyph glyph-name="four.tf" 
d="M283 700h94l75 -420h120l21 -120h-120l29 -160h-136l-28 160h-324l-14 80zM316 280l-32 179l-110 -179h142z" />
    <glyph glyph-name="five.tf" 
d="M61 64l78 101q51 -55 128 -55q52 0 90 33t38 86q0 56 -39 91t-95 35q-59 0 -101 -38h-95v383h365l21 -120h-251v-114q35 8 73 8q62 0 115 -25q64 -31 103 -89.5t39 -130.5q0 -106 -72.5 -172.5t-185.5 -66.5q-126 0 -211 74z" />
    <glyph glyph-name="six.tf" 
d="M382 700l-124 -224q10 1 25 1q109 0 188.5 -73t79.5 -181q0 -98 -70.5 -165.5t-177.5 -67.5q-109 0 -188.5 73.5t-79.5 180.5q0 85 59 193l143 263h145zM168 244q0 -54 39.5 -94t93.5 -40q49 0 82 32t33 81q0 55 -39.5 94.5t-93.5 39.5q-60 0 -98 -30q-17 -38 -17 -83z
" />
    <glyph glyph-name="seven.tf" 
d="M11 580l-21 120h465l14 -80l-192 -620h-130l177 580h-313z" />
    <glyph glyph-name="eight.tf" 
d="M454 505q0 -60 -32 -101q56 -29 88.5 -81.5t32.5 -121.5q0 -87 -67.5 -149t-166.5 -62q-107 0 -178.5 70.5t-71.5 173.5q0 85 62 141q-75 57 -75 151q0 74 55.5 129t142.5 55q90 0 150 -59t60 -146zM194 226q0 -47 34 -81.5t81 -34.5q44 0 71.5 28t27.5 71q0 47 -34 81.5
t-81 34.5q-44 0 -71.5 -28t-27.5 -71zM181 523q0 -32 22 -55t53 -23q28 0 45.5 19t17.5 48q0 32 -22 55t-53 23q-28 0 -45.5 -19t-17.5 -48z" />
    <glyph glyph-name="nine.tf" 
d="M164 0l124 224q-10 -1 -25 -1q-109 0 -188.5 73t-79.5 181q0 98 70.5 165.5t177.5 67.5q109 0 188.5 -73.5t79.5 -180.5q0 -85 -59 -193l-143 -263h-145zM378 456q0 54 -39.5 94t-93.5 40q-49 0 -82 -32t-33 -81q0 -55 39.5 -94.5t93.5 -39.5q60 0 98 30q17 38 17 83z
" />
    <glyph glyph-name="parenleft.case" horiz-adv-x="456" 
d="M448 -30l-89 -80q-230 264 -230 563q0 197 87 357l100 -61q-67 -137 -67 -296q0 -130 53.5 -255t145.5 -228z" />
    <glyph glyph-name="parenright.case" horiz-adv-x="456" 
d="M-33 730l89 80q230 -264 230 -563q0 -197 -87 -357l-100 61q67 137 67 296q0 131 -53.5 255.5t-145.5 227.5z" />
    <glyph glyph-name="bracketleft.case" horiz-adv-x="456" 
d="M217 -100l-160 900h276l21 -115h-155l118 -670h155l21 -115h-276z" />
    <glyph glyph-name="bracketright.case" horiz-adv-x="456" 
d="M198 800l160 -900h-276l-21 115h155l-118 670h-155l-21 115h276z" />
    <glyph glyph-name="braceleft.case" horiz-adv-x="456" 
d="M191 362q37 -12 58.5 -40t29.5 -92q3 -21 6 -67.5t9 -77.5q12 -70 94 -70q21 0 31 1l21 -114q-15 -2 -54 -2q-84 0 -142 40t-69 135q-4 30 -6 82t-7 83q-12 70 -109 70l-16 80q82 0 82 62q0 33 -20 100t-20 102q0 72 43.5 109t122.5 37q25 0 36 -1l20 -115q-12 1 -37 1
q-66 0 -66 -56q0 -20 18.5 -85.5t18.5 -102.5q0 -54 -44 -79z" />
    <glyph glyph-name="braceright.case" horiz-adv-x="456" 
d="M224 338q-37 12 -58.5 40t-29.5 92q-3 21 -6 67.5t-9 77.5q-12 70 -94 70q-21 0 -31 -1l-21 114q15 2 54 2q84 0 142 -40t69 -135q4 -30 6 -82t7 -83q12 -70 109 -70l16 -80q-82 0 -82 -62q0 -33 20 -100t20 -102q0 -72 -43.5 -109t-122.5 -37q-25 0 -36 1l-20 115
q12 -1 37 -1q66 0 66 56q0 20 -18.5 85.5t-18.5 102.5q0 54 44 79z" />
    <glyph glyph-name="a.ss01" horiz-adv-x="540" 
d="M358 149l-7 38q-35 18 -80 18q-34 0 -58 -13t-24 -38q0 -24 21 -39t52 -15q64 0 96 49zM241 310q73 0 97 -46l-5 25q-18 86 -114 86q-55 0 -124 -38l-50 102q76 46 176 46q110 0 176 -60q52 -47 71 -159l47 -266h-119l-13 75q-3 -35 -42 -60t-88 -25q-78 0 -136 45
t-58 119q0 67 51.5 111.5t130.5 44.5z" />
    <glyph glyph-name="zero.tf.zero" 
d="M22 457q0 123 58.5 188t158.5 65q76 0 135 -41t93 -109.5t51 -148.5t17 -168q0 -123 -58.5 -188t-158.5 -65q-76 0 -135 41t-93 109.5t-51 148.5t-17 168zM400 239q0 97 -24 189l-122 -294q29 -24 64 -24q82 0 82 129zM157 461q0 -99 23 -187l121 292q-29 24 -62 24
q-82 0 -82 -129z" />
    <glyph glyph-name="endash.ss04" horiz-adv-x="1120" 
d="M0 315h1091l19 -110h-1091z" />
    <glyph glyph-name="periodcentered.case" horiz-adv-x="375" 
d="M85 350q0 37 25 61.5t62 24.5t62.5 -24.5t25.5 -61.5q0 -36 -25.5 -60.5t-62.5 -24.5t-62 24t-25 61z" />
    <glyph glyph-name="bullet.case" 
d="M60 350q0 91 64.5 155.5t155.5 64.5t155.5 -64.5t64.5 -155.5t-64.5 -155.5t-155.5 -64.5t-155.5 64.5t-64.5 155.5z" />
    <glyph glyph-name="asterisk.ss05" horiz-adv-x="516" 
d="M312 260h-110l-23 125l-107 -74l-63 90l100 71l-124 62l50 99l111 -57l-22 124h110l22 -124l108 74l63 -91l-100 -70l123 -62l-49 -99l-111 57z" />
    <glyph glyph-name="zero.zero" horiz-adv-x="613" 
d="M30 457q0 123 58.5 188t158.5 65q76 0 135 -41t93 -109.5t51 -148.5t17 -168q0 -123 -58.5 -188t-158.5 -65q-76 0 -135 41t-93 109.5t-51 148.5t-17 168zM408 239q0 97 -24 189l-122 -294q29 -24 64 -24q82 0 82 129zM165 461q0 -99 23 -187l121 292q-29 24 -62 24
q-82 0 -82 -129z" />
    <glyph glyph-name="uni2070.zero" horiz-adv-x="336" 
d="M-25 565q0 70 37 107.5t95 37.5q56 0 92.5 -37.5t50 -87.5t13.5 -110q0 -70 -37 -107.5t-94 -37.5q-43 0 -75 21t-49 56.5t-25 75t-8 82.5zM75 565q0 -24 5 -59l45 107q-10 7 -18 7q-32 0 -32 -55zM164 475q0 24 -5 59l-45 -107q10 -7 18 -7q32 0 32 55z" />
    <glyph glyph-name="uni2080.zero" horiz-adv-x="336" 
d="M35 225q0 70 37 107.5t95 37.5q56 0 92.5 -37.5t50 -87.5t13.5 -110q0 -70 -37 -107.5t-94 -37.5q-43 0 -75 21t-49 56.5t-25 75t-8 82.5zM135 225q0 -24 5 -59l45 107q-11 7 -18 7q-32 0 -32 -55zM224 135q0 24 -5 59l-45 -107q10 -7 18 -7q32 0 32 55z" />
    <glyph glyph-name="emdash.ss04" horiz-adv-x="1420" 
d="M0 315h1391l19 -110h-1391z" />
    <glyph glyph-name="currency.tf" 
d="M84 351q0 54 26 100l-80 80l85 85l80 -80q46 26 100 26q55 0 101 -26l79 80l85 -85l-79 -80q25 -47 25 -100q0 -54 -25 -101l79 -79l-85 -85l-79 79q-47 -25 -101 -25q-53 0 -100 25l-80 -79l-85 85l80 79q-26 46 -26 101zM214 351q0 -34 23.5 -57.5t57.5 -23.5
t57.5 23.5t23.5 57.5t-23.5 57.5t-57.5 23.5t-57.5 -23.5t-23.5 -57.5z" />
    <glyph glyph-name="hyphen.case" horiz-adv-x="490" 
d="M49 430h330l19 -110h-330z" />
    <glyph glyph-name="endash.case" horiz-adv-x="520" 
d="M-19 430h491l19 -110h-491z" />
    <glyph glyph-name="emdash.case" horiz-adv-x="820" 
d="M-19 430h791l19 -110h-791z" />
    <glyph glyph-name="endash.case.ss04" horiz-adv-x="1120" 
d="M-19 430h1091l19 -110h-1091z" />
    <glyph glyph-name="emdash.case.ss04" horiz-adv-x="1420" 
d="M-19 430h1391l19 -110h-1391z" />
    <glyph glyph-name="guillemotleft.case" horiz-adv-x="655" 
d="M130 527h130l-108 -176l176 -204h-147l-133 155l-12 70zM400 527h130l-108 -176l176 -204h-147l-133 155l-12 70z" />
    <glyph glyph-name="guillemotright.case" horiz-adv-x="655" 
d="M491 147h-130l108 176l-176 204h147l133 -155l12 -70zM221 147h-130l108 176l-176 204h147l133 -155l12 -70z" />
    <glyph glyph-name="guilsinglleft.case" horiz-adv-x="385" 
d="M130 527h130l-108 -176l176 -204h-147l-133 155l-12 70z" />
    <glyph glyph-name="guilsinglright.case" horiz-adv-x="385" 
d="M221 147h-130l108 176l-176 204h147l133 -155l12 -70z" />
    <glyph glyph-name="bar.case" horiz-adv-x="278" 
d="M100 800l160 -900h-121l-160 900h121z" />
    <glyph glyph-name="aacute.ss01" horiz-adv-x="540" 
d="M249 710h140l-120 -160h-90zM358 149l-7 38q-35 18 -80 18q-34 0 -58 -13t-24 -38q0 -24 21 -39t52 -15q64 0 96 49zM241 310q73 0 97 -46l-5 25q-18 86 -114 86q-55 0 -124 -38l-50 102q76 46 176 46q110 0 176 -60q52 -47 71 -159l47 -266h-119l-13 75q-3 -35 -42 -60
t-88 -25q-78 0 -136 45t-58 119q0 67 51.5 111.5t130.5 44.5z" />
    <glyph glyph-name="agrave.ss01" horiz-adv-x="540" 
d="M79 710h140l70 -160h-90zM358 149l-7 38q-35 18 -80 18q-34 0 -58 -13t-24 -38q0 -24 21 -39t52 -15q64 0 96 49zM241 310q73 0 97 -46l-5 25q-18 86 -114 86q-55 0 -124 -38l-50 102q76 46 176 46q110 0 176 -60q52 -47 71 -159l47 -266h-119l-13 75q-3 -35 -42 -60
t-88 -25q-78 0 -136 45t-58 119q0 67 51.5 111.5t130.5 44.5z" />
    <glyph glyph-name="acircumflex.ss01" horiz-adv-x="540" 
d="M59 550l70 160h140l130 -160h-95l-95 90l-65 -90h-85zM358 149l-7 38q-35 18 -80 18q-34 0 -58 -13t-24 -38q0 -24 21 -39t52 -15q64 0 96 49zM241 310q73 0 97 -46l-5 25q-18 86 -114 86q-55 0 -124 -38l-50 102q76 46 176 46q110 0 176 -60q52 -47 71 -159l47 -266
h-119l-13 75q-3 -35 -42 -60t-88 -25q-78 0 -136 45t-58 119q0 67 51.5 111.5t130.5 44.5z" />
    <glyph glyph-name="adieresis.ss01" horiz-adv-x="540" 
d="M35 632q0 33 23.5 55.5t56.5 22.5t56.5 -22.5t23.5 -55.5t-23.5 -55.5t-56.5 -22.5t-56.5 22.5t-23.5 55.5zM245 632q0 33 23.5 55.5t56.5 22.5t56.5 -22.5t23.5 -55.5t-23.5 -55.5t-56.5 -22.5t-56.5 22.5t-23.5 55.5zM358 149l-7 38q-35 18 -80 18q-34 0 -58 -13
t-24 -38q0 -24 21 -39t52 -15q64 0 96 49zM241 310q73 0 97 -46l-5 25q-18 86 -114 86q-55 0 -124 -38l-50 102q76 46 176 46q110 0 176 -60q52 -47 71 -159l47 -266h-119l-13 75q-3 -35 -42 -60t-88 -25q-78 0 -136 45t-58 119q0 67 51.5 111.5t130.5 44.5z" />
    <glyph glyph-name="atilde.ss01" horiz-adv-x="540" 
d="M124 560l-89 16q3 53 32 93.5t82 40.5q31 0 79.5 -25t60.5 -25q33 0 37 50l89 -16q-3 -53 -32 -93.5t-82 -40.5q-31 0 -79.5 25t-60.5 25q-33 0 -37 -50zM358 149l-7 38q-35 18 -80 18q-34 0 -58 -13t-24 -38q0 -24 21 -39t52 -15q64 0 96 49zM241 310q73 0 97 -46l-5 25
q-18 86 -114 86q-55 0 -124 -38l-50 102q76 46 176 46q110 0 176 -60q52 -47 71 -159l47 -266h-119l-13 75q-3 -35 -42 -60t-88 -25q-78 0 -136 45t-58 119q0 67 51.5 111.5t130.5 44.5z" />
    <glyph glyph-name="aring.ss01" horiz-adv-x="540" 
d="M129 640q0 46 32 78t78 32t78 -32t32 -78t-32 -78t-78 -32t-78 32t-32 78zM209 640q0 -13 8.5 -21.5t21.5 -8.5t21.5 8.5t8.5 21.5t-8.5 21.5t-21.5 8.5t-21.5 -8.5t-8.5 -21.5zM358 149l-7 38q-35 18 -80 18q-34 0 -58 -13t-24 -38q0 -24 21 -39t52 -15q64 0 96 49z
M241 310q73 0 97 -46l-5 25q-18 86 -114 86q-55 0 -124 -38l-50 102q76 46 176 46q110 0 176 -60q52 -47 71 -159l47 -266h-119l-13 75q-3 -35 -42 -60t-88 -25q-78 0 -136 45t-58 119q0 67 51.5 111.5t130.5 44.5z" />
    <glyph glyph-name="ae.ss01" horiz-adv-x="846" 
d="M468 296h214q-12 39 -41.5 61.5t-66.5 22.5q-83 0 -106 -84zM358 149l-7 38q-35 18 -80 18q-34 0 -58 -13t-24 -38q0 -24 21 -39t52 -15q64 0 96 49zM95 337l-50 102q76 46 176 46t166 -60q8 -7 20 -25q58 85 166 85q98 0 167.5 -75t69.5 -182q0 -16 -1 -24h-337
q10 -48 51 -78.5t94 -30.5q69 0 125 47l68 -85q-83 -67 -189 -67q-72 0 -130 32l4 -22h-99l-13 75q-3 -35 -42 -60t-88 -25q-78 0 -136 45t-58 119q0 67 51.5 111.5t130.5 44.5q73 0 97 -46l-5 25q-18 86 -114 86q-55 0 -124 -38z" />
    <glyph glyph-name="zero.dnom" horiz-adv-x="336" 
d="M135 225q0 -50 15 -97.5t42 -47.5q31 0 31 55q0 50 -14.5 97.5t-41.5 47.5q-32 0 -32 -55zM35 225q0 70 37 107.5t95 37.5q56 0 92.5 -37.5t50 -87.5t13.5 -110q0 -70 -37 -107.5t-94 -37.5q-43 0 -75 21t-49 56.5t-25 75t-8 82.5z" />
    <glyph glyph-name="one.dnom" horiz-adv-x="273" 
d="M20 291l119 69h60l64 -360h-101l-45 249l-82 -45z" />
    <glyph glyph-name="two.dnom" horiz-adv-x="296" 
d="M91 249l-86 27q12 44 46.5 69t77.5 25q52 0 92 -33t40 -86q0 -42 -39 -99l-43 -62h116l16 -90h-264l-9 50l108 154q17 24 17 43q0 13 -9.5 23t-24.5 10q-14 0 -24.5 -10t-13.5 -21z" />
    <glyph glyph-name="three.dnom" horiz-adv-x="305" 
d="M34 34l58 65q26 -24 56 -24q20 0 33.5 10.5t13.5 30.5t-16 33t-38 13t-46 -12l-9 50l48 75h-109l-15 85h226l9 -50l-46 -75q43 -13 69.5 -45.5t26.5 -75.5q0 -55 -38.5 -89.5t-104.5 -34.5q-67 0 -118 44z" />
    <glyph glyph-name="four.dnom" horiz-adv-x="364" 
d="M257 360l38 -215h61l13 -75h-61l13 -70h-91l-13 70h-178l-9 50l167 240h60zM204 145l-12 67l-47 -67h59z" />
    <glyph glyph-name="five.dnom" horiz-adv-x="312" 
d="M103 150h-57v210h209l15 -85h-128v-32q14 2 27 2q55 0 94 -34.5t39 -92.5q0 -56 -42 -92t-104 -36q-78 0 -121 54l67 53q22 -22 51 -22q19 0 34 11t15 30q0 21 -16 34.5t-37 13.5q-23 0 -46 -14z" />
    <glyph glyph-name="six.dnom" horiz-adv-x="322" 
d="M124 360h97l-51 -116h5q65 0 103.5 -35.5t38.5 -91.5q0 -53 -39 -90t-95 -37q-57 0 -100 36t-43 94q0 44 24 99zM133 123q0 -20 13 -34t33 -14t32.5 11.5t12.5 29.5q0 22 -14 34t-36 12q-23 0 -33 -8q-8 -14 -8 -31z" />
    <glyph glyph-name="seven.dnom" horiz-adv-x="284" 
d="M5 360h250l9 -50l-86 -310h-95l75 270h-138z" />
    <glyph glyph-name="eight.dnom" horiz-adv-x="320" 
d="M35 122q0 39 25 67q-35 30 -35 71q0 45 33.5 78t87.5 33q55 0 89.5 -34t34.5 -81q0 -25 -11 -44q56 -34 56 -97q0 -53 -38.5 -89t-98.5 -36t-101.5 39t-41.5 93zM132 122q0 -18 13.5 -32t32.5 -14q17 0 28.5 11t11.5 28q0 19 -13 32.5t-33 13.5q-17 0 -28.5 -11.5
t-11.5 -27.5zM175 255q0 13 -8 22t-21 9q-12 0 -19 -7.5t-7 -19.5t8 -21t21 -9q11 0 18.5 7.5t7.5 18.5z" />
    <glyph glyph-name="nine.dnom" horiz-adv-x="317" 
d="M218 0h-97l51 116h-5q-65 0 -103.5 35.5t-38.5 91.5q0 53 39 90t95 37q57 0 100 -36t43 -94q0 -44 -24 -99zM209 237q0 20 -13 34t-33 14t-32.5 -11.5t-12.5 -29.5q0 -22 14 -34t36 -12q23 0 33 8q8 14 8 31z" />
    <glyph glyph-name="zero.numr" horiz-adv-x="336" 
d="M75 565q0 -50 15 -97.5t42 -47.5q31 0 31 55q0 50 -14.5 97.5t-41.5 47.5q-32 0 -32 -55zM-25 565q0 70 37 107.5t95 37.5q56 0 92.5 -37.5t50 -87.5t13.5 -110q0 -70 -37 -107.5t-94 -37.5q-43 0 -75 21t-49 56.5t-25 75t-8 82.5z" />
    <glyph glyph-name="one.numr" horiz-adv-x="273" 
d="M-40 631l119 69h60l64 -360h-101l-45 249l-82 -45z" />
    <glyph glyph-name="two.numr" horiz-adv-x="296" 
d="M31 589l-86 27q12 44 46.5 69t77.5 25q52 0 92 -33t40 -86q0 -42 -39 -99l-43 -62h116l16 -90h-264l-9 50l108 154q17 24 17 43q0 13 -9.5 23t-24.5 10q-14 0 -24.5 -10t-13.5 -21z" />
    <glyph glyph-name="three.numr" horiz-adv-x="305" 
d="M-26 374l58 65q26 -24 56 -24q20 0 33.5 10.5t13.5 30.5t-16 33t-38 13t-46 -12l-9 50l48 75h-109l-15 85h226l9 -50l-46 -75q43 -13 69.5 -45.5t26.5 -75.5q0 -55 -38.5 -89.5t-104.5 -34.5q-67 0 -118 44z" />
    <glyph glyph-name="four.numr" horiz-adv-x="364" 
d="M196 700l38 -215h61l13 -75h-61l13 -70h-91l-13 70h-178l-9 50l167 240h60zM143 485l-12 67l-47 -67h59z" />
    <glyph glyph-name="five.numr" horiz-adv-x="312" 
d="M43 490h-57v210h209l15 -85h-128v-32q14 2 27 2q55 0 94 -34.5t39 -92.5q0 -56 -42 -92t-104 -36q-78 0 -121 54l67 53q22 -22 51 -22q19 0 34 11t15 30q0 21 -16 34.5t-37 13.5q-23 0 -46 -14z" />
    <glyph glyph-name="six.numr" horiz-adv-x="322" 
d="M64 700h97l-51 -116h5q65 0 103.5 -35.5t38.5 -91.5q0 -53 -39 -90t-95 -37q-57 0 -100 36t-43 94q0 44 24 99zM73 463q0 -20 13 -34t33 -14t32.5 11.5t12.5 29.5q0 22 -14 34t-36 12q-23 0 -33 -8q-8 -14 -8 -31z" />
    <glyph glyph-name="seven.numr" horiz-adv-x="284" 
d="M-56 700h250l9 -50l-86 -310h-95l75 270h-138z" />
    <glyph glyph-name="eight.numr" horiz-adv-x="320" 
d="M-26 461q0 39 25 67q-35 30 -35 71q0 45 33.5 78t87.5 33q55 0 89.5 -34t34.5 -81q0 -25 -11 -44q56 -34 56 -97q0 -53 -38.5 -89t-98.5 -36t-101.5 39t-41.5 93zM71 461q0 -18 13.5 -32t32.5 -14q17 0 28.5 11t11.5 28q0 19 -13 32.5t-33 13.5q-17 0 -28.5 -11.5
t-11.5 -27.5zM114 594q0 13 -8 22t-21 9q-12 0 -19 -7.5t-7 -19.5t7.5 -21t21.5 -9q11 0 18.5 7.5t7.5 18.5z" />
    <glyph glyph-name="nine.numr" horiz-adv-x="313" 
d="M157 340h-97l51 116h-5q-65 0 -103.5 35.5t-38.5 91.5q0 53 39 90t95 37q57 0 100 -36t43 -94q0 -44 -24 -99zM148 577q0 20 -13 34t-33 14t-32.5 -11.5t-12.5 -29.5q0 -22 14 -34t36 -12q23 0 33 8q8 14 8 31z" />
    <glyph glyph-name="zero.dnom.zero" horiz-adv-x="336" 
d="M35 225q0 70 37 107.5t95 37.5q56 0 92.5 -37.5t50 -87.5t13.5 -110q0 -70 -37 -107.5t-94 -37.5q-43 0 -75 21t-49 56.5t-25 75t-8 82.5zM135 225q0 -24 5 -59l45 107q-11 7 -18 7q-32 0 -32 -55zM224 135q0 24 -5 59l-45 -107q10 -7 18 -7q32 0 32 55z" />
    <glyph glyph-name="zero.numr.zero" horiz-adv-x="336" 
d="M-25 565q0 70 37 107.5t95 37.5q56 0 92.5 -37.5t50 -87.5t13.5 -110q0 -70 -37 -107.5t-94 -37.5q-43 0 -75 21t-49 56.5t-25 75t-8 82.5zM75 565q0 -24 5 -59l45 107q-10 7 -18 7q-32 0 -32 -55zM164 475q0 24 -5 59l-45 -107q10 -7 18 -7q32 0 32 55z" />
    <glyph glyph-name="minus.tf" 
d="M48 335h461l19 -110h-461z" />
    <glyph glyph-name="multiply.tf" 
d="M282 358l116 138l84 -71l-116 -138l164 -138l-71 -85l-164 138l-117 -138l-84 71l116 138l-164 138l71 85z" />
    <glyph glyph-name="numbersign.tf" 
d="M228 405l-30 -110h126l30 110h-126zM4 515h140l49 185h114l-49 -185h126l49 185h114l-49 -185h90l20 -110h-139l-31 -110h90l24 -110h-143l-49 -185h-114l49 185h-126l-49 -185h-114l49 185h-90l-20 110h139l30 110h-90z" />
    <glyph glyph-name="dollar.tf" 
d="M65 95l80 91q31 -33 73.5 -54.5t84.5 -21.5q44 0 71.5 23t27.5 60q0 30 -20.5 51.5t-53.5 35t-72.5 25.5t-79 27.5t-72.5 37t-53.5 58.5t-20.5 87q0 59 35 107t95 71l-22 122h121l19 -106q92 -7 164 -61l-74 -96q-45 38 -104 38q-42 0 -70.5 -21t-28.5 -54
q0 -29 27.5 -50t69 -32.5t89.5 -30t89.5 -40.5t69 -66.5t27.5 -105.5t-37.5 -109.5t-97.5 -72.5l22 -123h-121l-19 106q-129 9 -219 104z" />
    <glyph glyph-name="plus.tf" 
d="M334 335h175l19 -110h-175l31 -175h-111l-31 175h-175l-19 110h175l-32 175h111z" />
    <glyph glyph-name="less.tf" 
d="M478 517l20 -112l-245 -116l285 -115l24 -129l-497 200l-12 70z" />
    <glyph glyph-name="equal.tf" 
d="M30 440h461l19 -110h-461zM67 230h461l19 -110h-461z" />
    <glyph glyph-name="greater.tf" 
d="M100 43l-20 112l245 116l-285 115l-24 129l497 -200l12 -70z" />
    <glyph glyph-name="cent.tf" 
d="M452 161l95 -70q-47 -66 -130 -90l21 -116h-121l-19 108q-98 13 -165.5 81.5t-67.5 170.5q0 76 42.5 137.5t113.5 87.5l-20 120h121l19 -107q81 -8 147 -61l-73 -94q-44 37 -97 37q-54 0 -88.5 -34.5t-34.5 -85.5q0 -56 42 -95.5t103 -39.5q65 0 112 51z" />
    <glyph glyph-name="sterling.tf" 
d="M234 405h146l19 -110h-109q15 -43 15 -84q0 -51 -21 -91h274l21 -120h-488l-14 80q98 30 98 124q0 41 -25 91h-101l-19 110h64q-25 55 -25 106q0 86 64 142.5t147 56.5q79 0 132 -41.5t67 -90.5l-112 -43q-30 55 -81 55q-37 0 -62 -23t-25 -56q0 -42 35 -106z" />
    <glyph glyph-name="section.tf" 
d="M418 201q0 23 -12 40.5t-37 30.5t-47.5 22t-61.5 21.5t-61 21.5q-27 -27 -27 -58q0 -23 11.5 -40.5t37 -31t47.5 -22.5t61.5 -22t61.5 -21q27 27 27 59zM409 -35q0 16 -7.5 28t-26.5 22t-33 16t-46 16.5t-48 16.5q-37 13 -62 24t-56 30t-49 39.5t-31 52t-13 69.5
q0 70 51 126q-42 44 -42 110q0 82 64.5 138.5t160.5 56.5q106 0 187 -62l-74 -96q-45 38 -104 38q-42 0 -70.5 -21t-28.5 -54q0 -16 7.5 -28t26.5 -22t33 -16t46 -16.5t48 -16.5q37 -13 62 -24t56 -30t49 -39.5t31 -52t13 -69.5q0 -72 -51 -126q42 -45 42 -110
q0 -82 -64.5 -138.5t-160.5 -56.5q-106 0 -187 62l74 96q45 -38 104 -38q42 0 70.5 21t28.5 54z" />
    <glyph glyph-name="notequal.tf" 
d="M409 440h82l19 -110h-143l-39 -100h200l19 -110h-262l-42 -110h-119l43 110h-81l-19 110h142l39 100h-199l-19 110h261l43 110h118z" />
    <glyph glyph-name="plusminus.tf" 
d="M253 168l-23 126h-175l-19 110h175l-23 126h111l23 -126h175l19 -110h-175l23 -126h-111zM84 140h461l19 -110h-461z" />
    <glyph glyph-name="lessequal.tf" 
d="M84 140h461l19 -110h-461zM475 535l20 -109l-202 -70l226 -70l22 -122l-488 151l-12 70z" />
    <glyph glyph-name="greaterequal.tf" 
d="M79 164l-20 109l202 70l-226 70l-22 122l488 -151l12 -70zM84 140h461l19 -110h-461z" />
    <glyph glyph-name="yen.tf" 
d="M77 485l-173 215h169l196 -247l110 247h143l-96 -215h85l20 -110h-154l-23 -50h186l20 -110h-193l38 -215h-136l-38 215h-192l-20 110h186l-40 50h-155l-19 110h86z" />
    <glyph glyph-name="mu.tf" 
d="M298 -10q-41 0 -74 15l44 -245h-131l-127 715h131l41 -233q14 -79 48 -107q30 -25 72 -25q33 0 65 18t49 47l-53 300h131l84 -475h-119l-15 85q-5 -41 -46 -68t-100 -27z" />
    <glyph glyph-name="partialdiff.tf" 
d="M259 483l-181 227h154l222 -275q95 -117 95 -204q0 -101 -69.5 -171t-176.5 -70q-110 0 -189 75t-79 181q0 93 63.5 161t160.5 76zM294 365q-55 0 -92 -33.5t-37 -86.5q0 -55 41 -95t97 -40q51 0 84.5 34.5t33.5 86.5q0 55 -54 120q-34 14 -73 14z" />
    <glyph glyph-name="summation.tf" 
d="M503 490h-111l-18 100h-217l218 -193l12 -70l-176 -217h258l-18 100h111l38 -210h-550l-12 70l226 280l-316 280l-12 70h530z" />
    <glyph glyph-name="product.tf" 
d="M176 590l105 -590h-121l-105 590h-100l-19 110h560l19 -110h-100l105 -590h-121l-105 590h-118z" />
    <glyph glyph-name="pi.tf" 
d="M172 0l-61 350q-41 -5 -60 -37l-81 82q49 75 150 75h410l19 -110h-100l36 -207q9 -50 43 -72l-68 -91q-48 31 -66.5 68t-30.5 103l-35 199h-98l63 -360h-121z" />
    <glyph glyph-name="integral.tf" 
d="M-115 -229l33 108q36 -14 66 -14q91 0 120 93q23 74 49 298.5t45 286.5q54 177 243 177q52 0 99 -21l-33 -108q-36 14 -66 14q-91 0 -120 -93q-23 -74 -49 -298.5t-45 -286.5q-54 -177 -243 -177q-52 0 -99 21z" />
    <glyph glyph-name="logicalnot.tf" 
d="M547 120h-111l-37 210h-350l-19 110h461z" />
    <glyph glyph-name="radical.tf" 
d="M409 700h111l-136 -700h-90l-202 365h-93l-19 110h177l153 -279z" />
    <glyph glyph-name="florin.tf" 
d="M-115 -229l33 108q36 -14 66 -14q91 0 120 93q6 19 11.5 45.5t9.5 48t9.5 59.5t7.5 57t7.5 66t7.5 61h-150l-20 110h184q15 99 27 138q54 177 243 177q52 0 99 -21l-33 -108q-36 14 -66 14q-91 0 -120 -93q-12 -35 -24 -107h150l20 -110h-186q-4 -30 -12 -100.5
t-12.5 -108t-13 -84.5t-16.5 -75q-54 -177 -243 -177q-52 0 -99 21z" />
    <glyph glyph-name="asciitilde.tf" 
d="M136 188l-108 19q0 73 43.5 121.5t119.5 48.5q43 0 81 -21t66 -42t47 -21q25 0 39.5 23.5t15.5 55.5l108 -19q0 -73 -43.5 -121.5t-119.5 -48.5q-43 0 -81 21t-66 42t-47 21q-25 0 -39.5 -23.5t-15.5 -55.5z" />
    <glyph glyph-name="asciicircum.tf" 
d="M178 700h90l247 -350h-134l-140 199l-69 -199h-117z" />
    <glyph glyph-name="approxequal.tf" 
d="M157 78l-108 19q0 73 43.5 121.5t119.5 48.5q43 0 81 -21t66 -42t47 -21q25 0 39.5 23.5t15.5 55.5l108 -19q0 -73 -43.5 -121.5t-119.5 -48.5q-43 0 -81 21t-66 42t-47 21q-25 0 -39.5 -23.5t-15.5 -55.5zM119 298l-108 19q0 73 43.5 121.5t119.5 48.5q43 0 81 -21
t66 -42t47 -21q25 0 39.5 23.5t15.5 55.5l108 -19q0 -73 -43.5 -121.5t-119.5 -48.5q-43 0 -81 21t-66 42t-47 21q-25 0 -39.5 -23.5t-15.5 -55.5z" />
    <glyph glyph-name="Delta.tf" 
d="M40 70l128 630h90l350 -630l12 -70h-568zM460 110l-219 396l-81 -396h300z" />
    <glyph glyph-name="Euro.tf" 
d="M460 215h-250q31 -49 78 -77t102 -28q89 0 149 70l88 -81q-38 -54 -101.5 -81.5t-135.5 -27.5q-112 0 -199.5 62t-128.5 163h-73l-20 110h66q-2 14 -2 43v7h-73l-20 110h110q31 101 112.5 163t190.5 62q110 0 196 -78l-78 -92q-53 50 -118 50q-53 0 -95 -28t-66 -77h219
l20 -110h-263v-7q0 -22 3 -43h269z" />
    <glyph glyph-name="lozenge.tf" 
d="M518 385l12 -70l-144 -315h-90l-256 315l-12 70l144 315h90zM327 136l91 198l-187 230l-91 -199z" />
    <glyph glyph-name="quotedbl.tf" 
d="M324 455l-64 245h131l23 -245h-90zM114 455l-64 245h131l23 -245h-90z" />
    <glyph glyph-name="quotesingle.tf" 
d="M210 455l-64 245h131l23 -245h-90z" />
    <glyph glyph-name="divide.tf" 
d="M48 335h461l19 -110h-461zM394 103q0 -31 -22 -52t-53 -21t-53 21t-22 52t22 52t53 21t53 -21t22 -52zM332 457q0 -31 -22 -52t-53 -21t-53 21t-22 52t22 52t53 21t53 -21t22 -52z" />
    <glyph glyph-name="at.case" horiz-adv-x="1000" 
d="M741 135q-88 0 -128 66q-12 -30 -45 -48t-76 -18q-89 0 -157.5 65.5t-68.5 158.5q0 49 21.5 93t58.5 72q55 41 120 41q75 0 98 -53l-8 43h91l49 -275q8 -45 45 -45q32 0 49.5 35t17.5 91q0 132 -94 225.5t-226 93.5q-133 0 -226.5 -96.5t-93.5 -233.5t93.5 -233.5
t226.5 -96.5q116 0 198 65l62 -91q-112 -84 -253 -84q-183 0 -310 128.5t-127 311.5t126.5 311.5t310.5 128.5q173 0 298 -126.5t125 -302.5q0 -97 -50.5 -161.5t-126.5 -64.5zM376 359q0 -53 37 -88.5t91 -35.5q49 0 85 30l-34 179q-33 21 -67 21q-45 0 -75 -24
q-37 -29 -37 -82z" />
    <glyph glyph-name="amacron.ss01" horiz-adv-x="540" 
d="M54 680h320v-100h-320v100zM358 149l-7 38q-35 18 -80 18q-34 0 -58 -13t-24 -38q0 -24 21 -39t52 -15q64 0 96 49zM241 310q73 0 97 -46l-5 25q-18 86 -114 86q-55 0 -124 -38l-50 102q76 46 176 46q110 0 176 -60q52 -47 71 -159l47 -266h-119l-13 75q-3 -35 -42 -60
t-88 -25q-78 0 -136 45t-58 119q0 67 51.5 111.5t130.5 44.5z" />
    <glyph glyph-name="abreve.ss01" horiz-adv-x="540" 
d="M259 710h105q0 -62 -44 -106t-106 -44t-106 44t-44 106h105q0 -19 13 -32t32 -13t32 13t13 32zM358 149l-7 38q-35 18 -80 18q-34 0 -58 -13t-24 -38q0 -24 21 -39t52 -15q64 0 96 49zM241 310q73 0 97 -46l-5 25q-18 86 -114 86q-55 0 -124 -38l-50 102q76 46 176 46
q110 0 176 -60q52 -47 71 -159l47 -266h-119l-13 75q-3 -35 -42 -60t-88 -25q-78 0 -136 45t-58 119q0 67 51.5 111.5t130.5 44.5z" />
    <glyph glyph-name="aogonek.ss01" horiz-adv-x="540" 
d="M241 310q73 0 97 -46l-5 25q-18 86 -114 86q-55 0 -124 -38l-50 102q76 46 176 46q110 0 176 -60q52 -47 71 -159l47 -266q-25 -36 -25 -63q0 -18 11 -30t29 -12q13 0 25 4l15 -109q-20 -10 -65 -10q-61 0 -98 34.5t-37 85.5q0 54 26 95l-13 80q-3 -35 -42 -60t-88 -25
q-78 0 -136 45t-58 119q0 67 51.5 111.5t130.5 44.5zM358 149l-7 38q-35 18 -80 18q-34 0 -58 -13t-24 -38q0 -24 21 -39t52 -15q64 0 96 49z" />
    <glyph glyph-name="aringacute.ss01" horiz-adv-x="540" 
d="M129 640q0 46 32 78t78 32t78 -32t32 -78t-32 -78t-78 -32t-78 32t-32 78zM209 640q0 -13 8.5 -21.5t21.5 -8.5t21.5 8.5t8.5 21.5t-8.5 21.5t-21.5 8.5t-21.5 -8.5t-8.5 -21.5zM233 940h140l-120 -160h-90zM358 149l-7 38q-35 18 -80 18q-34 0 -58 -13t-24 -38
q0 -24 21 -39t52 -15q64 0 96 49zM241 310q73 0 97 -46l-5 25q-18 86 -114 86q-55 0 -124 -38l-50 102q76 46 176 46q110 0 176 -60q52 -47 71 -159l47 -266h-119l-13 75q-3 -35 -42 -60t-88 -25q-78 0 -136 45t-58 119q0 67 51.5 111.5t130.5 44.5z" />
    <glyph glyph-name="aeacute.ss01" horiz-adv-x="846" 
d="M409 710h140l-120 -160h-90zM468 296h214q-12 39 -41.5 61.5t-66.5 22.5q-83 0 -106 -84zM358 149l-7 38q-35 18 -80 18q-34 0 -58 -13t-24 -38q0 -24 21 -39t52 -15q64 0 96 49zM95 337l-50 102q76 46 176 46t166 -60q8 -7 20 -25q58 85 166 85q98 0 167.5 -75
t69.5 -182q0 -16 -1 -24h-337q10 -48 51 -78.5t94 -30.5q69 0 125 47l68 -85q-83 -67 -189 -67q-72 0 -130 32l4 -22h-99l-13 75q-3 -35 -42 -60t-88 -25q-78 0 -136 45t-58 119q0 67 51.5 111.5t130.5 44.5q73 0 97 -46l-5 25q-18 86 -114 86q-55 0 -124 -38z" />
    <glyph glyph-name="asterisk.ss06" horiz-adv-x="516" 
d="M48 361l-38 104l112 40l-104 111l81 74l106 -113l62 113l98 -52l-67 -122l164 -50l-33 -105l-142 44l25 -145h-111l-25 146z" />
    <glyph glyph-name="asterisk.ss07" horiz-adv-x="516" 
d="M3 426l-19 109h127l-75 99l88 66l83 -111l52 111l100 -46l-54 -119h126l19 -109h-126l75 -99l-88 -66l-83 111l-52 -111l-100 46l54 119h-127z" />
    <glyph glyph-name="asterisk.ss08" horiz-adv-x="516" 
d="M130 426h-127l-19 109h127l-75 99l88 66l83 -111l-96 -54zM450 426h-126l-19 109l-98 54l52 111l100 -46l-54 -119h126zM228 372l96 54l75 -99l-88 -66zM130 426l98 -54l-52 -111l-100 46z" />
    <glyph glyph-name="asterisk.ss09" horiz-adv-x="516" 
d="M431 535l19 -109h-167l-20 109h168zM283 426l29 -166h-110l-29 166h110zM153 535l-29 165h110l29 -165h-110zM-16 535h169l20 -109h-170zM55 688l72 -59l-71 -84l-72 60zM405 617l-61 -72l-83 72l61 71zM381 273l-72 59l71 84l72 -60zM31 344l61 72l83 -72l-61 -71z" />
    <glyph glyph-name="f.ss02" horiz-adv-x="506" 
d="M326 0h-131l-65 365h-125l-20 110h125q-8 43 -8 71q0 81 61.5 132.5t145.5 51.5q68 0 114 -24l-44 -105q-25 14 -64 14q-37 0 -60.5 -18.5t-23.5 -49.5q0 -12 7 -52l4 -20h194l20 -110h-195z" />
    <glyph glyph-name="j.ss02" horiz-adv-x="310" 
d="M65 475h131l80 -452q11 -66 11 -84q0 -83 -58 -136t-142 -53q-69 0 -115 27l49 107q28 -14 66 -14q34 0 52.5 19t18.5 49q0 12 -7 52zM185 647q0 -35 -25 -59t-60 -24t-60 24t-25 59t25 59t60 24t60 -24t25 -59z" />
    <glyph glyph-name="t.ss02" horiz-adv-x="530" 
d="M134 365h-135l-19 110h135l-22 125h131l22 -125h205l19 -110h-205l30 -165q8 -44 24 -64q23 -31 82 -31q43 0 75 17l44 -104q-48 -28 -127 -28q-53 0 -102 20.5t-80 61.5q-32 44 -47 128z" />
    <glyph glyph-name="fi.ss02" horiz-adv-x="748" 
d="M326 0h-131l-65 365h-125l-20 110h125q-8 43 -8 71q0 81 61.5 132.5t145.5 51.5q68 0 114 -24l-44 -105q-25 14 -64 14q-37 0 -60.5 -18.5t-23.5 -49.5q0 -12 7 -52l4 -20h392l84 -475h-131l-65 365h-261zM623 647q0 -35 -25 -59t-60 -24t-60 24t-25 59t25 59t60 24
t60 -24t25 -59z" />
    <glyph glyph-name="fl.ss02" horiz-adv-x="748" 
d="M592 710l126 -710h-131l-65 365h-261l65 -365h-131l-65 365h-125l-20 110h125q-8 43 -8 71q0 81 61.5 132.5t145.5 51.5q68 0 114 -24l-44 -105q-25 14 -64 14q-37 0 -60.5 -18.5t-23.5 -49.5q0 -12 7 -52l4 -20h260l-41 235h131z" />
    <glyph glyph-name="uniFB00.ss02" horiz-adv-x="898" 
d="M718 0h-131l-65 365h-261l65 -365h-131l-65 365h-125l-20 110h125q-8 43 -8 71q0 81 61.5 132.5t145.5 51.5q68 0 114 -24l-44 -105q-25 14 -64 14q-37 0 -60.5 -18.5t-23.5 -49.5q0 -12 7 -52l4 -20h260q-8 43 -8 71q0 81 61.5 132.5t145.5 51.5q68 0 114 -24l-44 -105
q-25 14 -64 14q-37 0 -60.5 -18.5t-23.5 -49.5q0 -12 7 -52l4 -20h194l20 -110h-195z" />
    <glyph glyph-name="uniFB03.ss02" horiz-adv-x="1140" 
d="M242 475h260q-8 43 -8 71q0 81 61.5 132.5t145.5 51.5q68 0 114 -24l-44 -105q-25 14 -64 14q-37 0 -60.5 -18.5t-23.5 -49.5q0 -12 7 -52l4 -20h392l84 -475h-131l-65 365h-261l65 -365h-131l-65 365h-261l65 -365h-131l-65 365h-125l-20 110h125q-8 43 -8 71
q0 81 61.5 132.5t145.5 51.5q68 0 114 -24l-44 -105q-25 14 -64 14q-37 0 -60.5 -18.5t-23.5 -49.5q0 -12 7 -52zM1015 647q0 -35 -25 -59t-60 -24t-60 24t-25 59t25 59t60 24t60 -24t25 -59z" />
    <glyph glyph-name="uniFB04.ss02" horiz-adv-x="1140" 
d="M984 710l126 -710h-131l-65 365h-261l65 -365h-131l-65 365h-261l65 -365h-131l-65 365h-125l-20 110h125q-8 43 -8 71q0 81 61.5 132.5t145.5 51.5q68 0 114 -24l-44 -105q-25 14 -64 14q-37 0 -60.5 -18.5t-23.5 -49.5q0 -12 7 -52l4 -20h260q-8 43 -8 71
q0 81 61.5 132.5t145.5 51.5q68 0 114 -24l-44 -105q-25 14 -64 14q-37 0 -60.5 -18.5t-23.5 -49.5q0 -12 7 -52l4 -20h260l-41 235h131z" />
    <glyph glyph-name="tbar.ss02" horiz-adv-x="530" 
d="M134 365h-135l-19 110h135l-22 125h131l22 -125h205l19 -110h-205l11 -60h205l19 -110h-204q8 -42 23 -59q23 -31 82 -31q43 0 75 17l44 -104q-48 -28 -127 -28q-53 0 -102 20.5t-80 61.5q-30 41 -46 123h-136l-19 110h135z" />
    <glyph glyph-name="ij.ss02" horiz-adv-x="587" 
d="M32 475h131l84 -475h-131zM152 647q0 -35 -25 -59t-60 -24t-60 24t-25 59t25 59t60 24t60 -24t25 -59zM342 475h131l80 -452q11 -66 11 -84q0 -83 -58 -136t-142 -53q-69 0 -115 27l49 107q28 -14 66 -14q34 0 52.5 19t18.5 49q0 12 -7 52zM462 647q0 -35 -25 -59
t-60 -24t-60 24t-25 59t25 59t60 24t60 -24t25 -59z" />
    <glyph glyph-name="tcommaaccent.ss02" horiz-adv-x="530" 
d="M296 -60h140l-120 -160h-90zM134 365h-135l-19 110h135l-22 125h131l22 -125h205l19 -110h-205l30 -165q8 -44 24 -64q23 -31 82 -31q43 0 75 17l44 -104q-48 -28 -127 -28q-53 0 -102 20.5t-80 61.5q-32 44 -47 128z" />
    <glyph glyph-name="tcaron.ss02" horiz-adv-x="530" 
d="M345 700h140l-120 -160h-90zM134 365h-135l-19 110h135l-22 125h131l22 -125h205l19 -110h-205l30 -165q8 -44 24 -64q23 -31 82 -31q43 0 75 17l44 -104q-48 -28 -127 -28q-53 0 -102 20.5t-80 61.5q-32 44 -47 128z" />
    <glyph glyph-name="jcircumflex.ss02" horiz-adv-x="310" 
d="M65 475h131l80 -452q11 -66 11 -84q0 -83 -58 -136t-142 -53q-69 0 -115 27l49 107q28 -14 66 -14q34 0 52.5 19t18.5 49q0 12 -7 52zM-60 550l70 160h140l130 -160h-95l-95 90l-65 -90h-85z" />
    <glyph glyph-name="uni0237.ss02" horiz-adv-x="310" 
d="M65 475h131l80 -452q11 -66 11 -84q0 -83 -58 -136t-142 -53q-69 0 -115 27l49 107q28 -14 66 -14q34 0 52.5 19t18.5 49q0 12 -7 52z" />
    <glyph glyph-name="r.ss02" horiz-adv-x="458" 
d="M311 485q52 0 92 -17l-31 -115q-30 12 -62 12q-34 0 -66 -19.5t-49 -50.5l52 -295h-131l-84 475h119l15 -85q5 41 45.5 68t99.5 27z" />
    <glyph glyph-name="racute.ss02" horiz-adv-x="458" 
d="M204 710h140l-120 -160h-90zM311 485q52 0 92 -17l-31 -115q-30 12 -62 12q-34 0 -66 -19.5t-49 -50.5l52 -295h-131l-84 475h119l15 -85q5 41 45.5 68t99.5 27z" />
    <glyph glyph-name="rcaron.ss02" horiz-adv-x="458" 
d="M349 710l-70 -160h-140l-130 160h95l95 -90l65 90h85zM311 485q52 0 92 -17l-31 -115q-30 12 -62 12q-34 0 -66 -19.5t-49 -50.5l52 -295h-131l-84 475h119l15 -85q5 41 45.5 68t99.5 27z" />
    <glyph glyph-name="rcommaaccent.ss02" horiz-adv-x="458" 
d="M311 485q52 0 92 -17l-31 -115q-30 12 -62 12q-34 0 -66 -19.5t-49 -50.5l52 -295h-131l-84 475h119l15 -85q5 41 45.5 68t99.5 27zM126 -60h140l-120 -160h-90z" />
    </font>
</defs>
</svg>
